M48
;DRILL file {KiCad 4.0.7-e2-6376~58~ubuntu14.04.1} date Sat Jan 20 12:50:40 2018
;FORMAT={-:-/ absolute / metric / decimal}
FMAT,2
METRIC,TZ
T1C0.400
T2C0.762
T3C0.800
T4C0.800
T5C0.813
T6C1.000
T7C1.016
%
G90
G05
M71
T1
X121.4Y-54.4
X121.4Y-96.4
X122.6Y-42.4
X122.6Y-64.8
X122.6Y-84.4
X122.6Y-106.8
X125.3Y-60.7
X125.3Y-102.7
X129.1Y-52.7
X129.1Y-94.7
X131.3Y-53.1
X131.3Y-95.1
X133.Y-47.1
X133.Y-89.1
X133.2Y-48.4
X133.2Y-90.4
X135.1Y-52.3
X135.1Y-55.7
X135.1Y-94.3
X135.1Y-97.7
X135.3Y-67.2
X135.3Y-109.2
X136.2Y-37.5
X136.2Y-79.5
X136.4Y-56.1
X136.4Y-98.1
X137.Y-62.3
X137.Y-104.3
X140.Y-46.8
X140.Y-88.8
X140.2Y-48.6
X140.2Y-90.6
X141.Y-49.4
X141.Y-91.4
X142.3Y-49.4
X142.3Y-91.4
X144.4Y-54.7
X144.4Y-96.7
X145.6Y-55.2
X145.6Y-97.2
X145.9Y-56.
X145.9Y-57.
X145.9Y-98.
X145.9Y-99.
X146.1Y-62.7
X146.1Y-104.7
X146.2Y-67.2
X146.2Y-109.2
X146.6Y-46.7
X146.6Y-88.7
X148.7Y-47.8
X148.7Y-89.8
X149.1Y-53.3
X149.1Y-95.3
X150.8Y-40.6
X150.8Y-82.6
X151.Y-51.5
X151.Y-93.5
X151.8Y-51.
X151.8Y-93.
X152.5Y-62.1
X152.5Y-104.1
X152.7Y-50.2
X152.7Y-92.2
X152.8Y-63.6
X152.8Y-105.6
X153.1Y-51.6
X153.1Y-93.6
X153.7Y-62.2
X153.7Y-104.2
X154.8Y-59.
X154.8Y-101.
X155.2Y-45.4
X155.2Y-87.4
X155.6Y-59.
X155.6Y-101.
X155.9Y-46.1
X155.9Y-88.1
X156.3Y-52.6
X156.3Y-94.6
X156.6Y-46.8
X156.6Y-88.8
X156.8Y-51.1
X156.8Y-64.
X156.8Y-93.1
X156.8Y-106.
X157.8Y-53.3
X157.8Y-54.1
X157.8Y-55.
X157.8Y-55.8
X157.8Y-56.6
X157.8Y-57.5
X157.8Y-58.3
X157.8Y-59.4
X157.8Y-95.3
X157.8Y-96.1
X157.8Y-97.
X157.8Y-97.8
X157.8Y-98.6
X157.8Y-99.5
X157.8Y-100.3
X157.8Y-101.4
X158.8Y-40.6
X158.8Y-82.6
X159.2Y-61.
X159.2Y-103.
X159.6Y-44.4
X159.6Y-86.4
X160.4Y-49.5
X160.4Y-91.5
X163.6Y-66.8
X163.6Y-68.
X163.6Y-108.8
X163.6Y-110.
X164.Y-65.8
X164.Y-107.8
X164.4Y-38.5
X164.4Y-42.5
X164.4Y-80.5
X164.4Y-84.5
X164.7Y-52.5
X164.7Y-94.5
X165.5Y-54.4
X165.5Y-55.5
X165.5Y-56.7
X165.5Y-60.1
X165.5Y-61.2
X165.5Y-62.4
X165.5Y-96.4
X165.5Y-97.5
X165.5Y-98.7
X165.5Y-102.1
X165.5Y-103.2
X165.5Y-104.4
X165.6Y-57.9
X165.6Y-59.1
X165.6Y-99.9
X165.6Y-101.1
X165.9Y-46.9
X165.9Y-88.9
X166.5Y-39.6
X166.5Y-81.6
X168.Y-49.9
X168.Y-91.9
X168.4Y-62.4
X168.4Y-104.4
X170.5Y-45.3
X170.5Y-87.3
X171.7Y-54.4
X171.7Y-55.4
X171.7Y-56.6
X171.7Y-57.9
X171.7Y-59.1
X171.7Y-60.1
X171.7Y-61.2
X171.7Y-96.4
X171.7Y-97.4
X171.7Y-98.6
X171.7Y-99.9
X171.7Y-101.1
X171.7Y-102.1
X171.7Y-103.2
X179.Y-38.4
X179.Y-80.4
T2
X116.92Y-46.
X116.92Y-51.08
X116.92Y-88.
X116.92Y-93.08
X119.46Y-46.
X119.46Y-51.08
X119.46Y-88.
X119.46Y-93.08
X122.Y-46.
X122.Y-51.08
X122.Y-88.
X122.Y-93.08
T3
X116.69Y-60.42
X116.69Y-66.42
X116.69Y-102.42
X116.69Y-108.42
X116.87Y-57.06
X116.87Y-99.06
X118.87Y-57.06
X118.87Y-99.06
X120.87Y-57.06
X120.87Y-99.06
X121.09Y-60.42
X121.09Y-66.42
X121.09Y-102.42
X121.09Y-108.42
T4
X131.Y-57.559
X131.Y-62.441
X131.Y-99.559
X131.Y-104.441
T5
X142.6Y-43.23
X142.6Y-45.77
X142.6Y-85.23
X142.6Y-87.77
T6
X176.53Y-55.79
X176.53Y-58.33
X176.53Y-60.87
X176.53Y-63.41
X176.53Y-97.79
X176.53Y-100.33
X176.53Y-102.87
X176.53Y-105.41
T7
X116.84Y-34.2
X116.84Y-72.3
X116.84Y-76.2
X116.84Y-114.3
X119.38Y-34.2
X119.38Y-72.3
X119.38Y-76.2
X119.38Y-114.3
X121.92Y-34.2
X121.92Y-72.3
X121.92Y-76.2
X121.92Y-114.3
X124.46Y-34.2
X124.46Y-72.3
X124.46Y-76.2
X124.46Y-114.3
X127.Y-34.2
X127.Y-72.3
X127.Y-76.2
X127.Y-114.3
X129.54Y-34.2
X129.54Y-72.3
X129.54Y-76.2
X129.54Y-114.3
X132.08Y-34.2
X132.08Y-72.3
X132.08Y-76.2
X132.08Y-114.3
X134.62Y-34.2
X134.62Y-72.3
X134.62Y-76.2
X134.62Y-114.3
X137.16Y-34.2
X137.16Y-72.3
X137.16Y-76.2
X137.16Y-114.3
X139.7Y-34.2
X139.7Y-72.3
X139.7Y-76.2
X139.7Y-114.3
X142.24Y-34.2
X142.24Y-72.3
X142.24Y-76.2
X142.24Y-114.3
X144.78Y-34.2
X144.78Y-72.3
X144.78Y-76.2
X144.78Y-114.3
X147.32Y-34.2
X147.32Y-72.3
X147.32Y-76.2
X147.32Y-114.3
X149.86Y-34.2
X149.86Y-72.3
X149.86Y-76.2
X149.86Y-114.3
X152.4Y-34.2
X152.4Y-72.3
X152.4Y-76.2
X152.4Y-114.3
X154.94Y-34.2
X154.94Y-72.3
X154.94Y-76.2
X154.94Y-114.3
X157.48Y-34.2
X157.48Y-72.3
X157.48Y-76.2
X157.48Y-114.3
X160.02Y-34.2
X160.02Y-72.3
X160.02Y-76.2
X160.02Y-114.3
X162.56Y-34.2
X162.56Y-72.3
X162.56Y-76.2
X162.56Y-114.3
X165.1Y-34.2
X165.1Y-72.3
X165.1Y-76.2
X165.1Y-114.3
X167.64Y-34.2
X167.64Y-72.3
X167.64Y-76.2
X167.64Y-114.3
X170.18Y-34.2
X170.18Y-72.3
X170.18Y-76.2
X170.18Y-114.3
X172.72Y-34.2
X172.72Y-72.3
X172.72Y-76.2
X172.72Y-114.3
X175.26Y-34.2
X175.26Y-72.3
X175.26Y-76.2
X175.26Y-114.3
X177.8Y-34.2
X177.8Y-72.3
X177.8Y-76.2
X177.8Y-114.3
T0
M30
