G04 #@! TF.FileFunction,Paste,Top*
%FSLAX46Y46*%
G04 Gerber Fmt 4.6, Leading zero omitted, Abs format (unit mm)*
G04 Created by KiCad (PCBNEW 4.0.7-e2-6376~58~ubuntu14.04.1) date Tue Dec 26 10:18:39 2017*
%MOMM*%
%LPD*%
G01*
G04 APERTURE LIST*
%ADD10C,0.100000*%
%ADD11R,0.635000X1.143000*%
%ADD12R,1.297940X0.248920*%
%ADD13R,1.000000X0.250000*%
%ADD14R,0.250000X1.000000*%
%ADD15R,1.143000X0.635000*%
%ADD16R,1.500000X1.300000*%
%ADD17R,1.597660X1.800860*%
%ADD18R,1.524000X2.032000*%
G04 APERTURE END LIST*
D10*
D11*
X157838000Y-102200000D03*
X159362000Y-102200000D03*
X152162000Y-121400000D03*
X150638000Y-121400000D03*
X116348000Y-108720000D03*
X117872000Y-108720000D03*
D12*
X168114720Y-98744160D03*
X168114720Y-99394400D03*
X168114720Y-100044640D03*
X168114720Y-100694880D03*
X168114720Y-101345120D03*
X168114720Y-101995360D03*
X168114720Y-102645600D03*
X168114720Y-103295840D03*
X173865280Y-103295840D03*
X173865280Y-102645600D03*
X173865280Y-101995360D03*
X173865280Y-101345120D03*
X173865280Y-100694880D03*
X173865280Y-100044640D03*
X173865280Y-99394400D03*
X173865280Y-98744160D03*
D13*
X146800000Y-104950000D03*
X146800000Y-105450000D03*
X146800000Y-105950000D03*
X146800000Y-106450000D03*
X146800000Y-106950000D03*
X146800000Y-107450000D03*
X146800000Y-107950000D03*
X146800000Y-108450000D03*
X146800000Y-108950000D03*
X146800000Y-109450000D03*
X146800000Y-109950000D03*
X146800000Y-110450000D03*
X146800000Y-110950000D03*
X146800000Y-111450000D03*
X146800000Y-111950000D03*
X146800000Y-112450000D03*
D14*
X148750000Y-114400000D03*
X149250000Y-114400000D03*
X149750000Y-114400000D03*
X150250000Y-114400000D03*
X150750000Y-114400000D03*
X151250000Y-114400000D03*
X151750000Y-114400000D03*
X152250000Y-114400000D03*
X152750000Y-114400000D03*
X153250000Y-114400000D03*
X153750000Y-114400000D03*
X154250000Y-114400000D03*
X154750000Y-114400000D03*
X155250000Y-114400000D03*
X155750000Y-114400000D03*
X156250000Y-114400000D03*
D13*
X158200000Y-112450000D03*
X158200000Y-111950000D03*
X158200000Y-111450000D03*
X158200000Y-110950000D03*
X158200000Y-110450000D03*
X158200000Y-109950000D03*
X158200000Y-109450000D03*
X158200000Y-108950000D03*
X158200000Y-108450000D03*
X158200000Y-107950000D03*
X158200000Y-107450000D03*
X158200000Y-106950000D03*
X158200000Y-106450000D03*
X158200000Y-105950000D03*
X158200000Y-105450000D03*
X158200000Y-104950000D03*
D14*
X156250000Y-103000000D03*
X155750000Y-103000000D03*
X155250000Y-103000000D03*
X154750000Y-103000000D03*
X154250000Y-103000000D03*
X153750000Y-103000000D03*
X153250000Y-103000000D03*
X152750000Y-103000000D03*
X152250000Y-103000000D03*
X151750000Y-103000000D03*
X151250000Y-103000000D03*
X150750000Y-103000000D03*
X150250000Y-103000000D03*
X149750000Y-103000000D03*
X149250000Y-103000000D03*
X148750000Y-103000000D03*
D11*
X123968000Y-99830000D03*
X125492000Y-99830000D03*
X133738000Y-98600000D03*
X135262000Y-98600000D03*
D15*
X122190000Y-113038000D03*
X122190000Y-114562000D03*
D11*
X125492000Y-104910000D03*
X123968000Y-104910000D03*
D16*
X136250000Y-108600000D03*
X138950000Y-108600000D03*
D17*
X131229860Y-99830000D03*
X128390140Y-99830000D03*
X131229860Y-104910000D03*
X128390140Y-104910000D03*
D11*
X177362000Y-97700000D03*
X175838000Y-97700000D03*
X169988000Y-97150000D03*
X171512000Y-97150000D03*
D15*
X177250000Y-99888000D03*
X177250000Y-101412000D03*
D11*
X166038000Y-105000000D03*
X167562000Y-105000000D03*
X174662000Y-105000000D03*
X173138000Y-105000000D03*
D15*
X137300000Y-97838000D03*
X137300000Y-99362000D03*
X139300000Y-99362000D03*
X139300000Y-97838000D03*
X144500000Y-103562000D03*
X144500000Y-102038000D03*
D11*
X117362000Y-95600000D03*
X115838000Y-95600000D03*
X137338000Y-111000000D03*
X138862000Y-111000000D03*
D18*
X115649000Y-93200000D03*
X118951000Y-93200000D03*
X138851000Y-113500000D03*
X135549000Y-113500000D03*
D11*
X137262000Y-105700000D03*
X135738000Y-105700000D03*
X135738000Y-101000000D03*
X137262000Y-101000000D03*
X135738000Y-103600000D03*
X137262000Y-103600000D03*
X135738000Y-145600000D03*
X137262000Y-145600000D03*
X135738000Y-143000000D03*
X137262000Y-143000000D03*
X137262000Y-147700000D03*
X135738000Y-147700000D03*
D18*
X138851000Y-155500000D03*
X135549000Y-155500000D03*
X115649000Y-135200000D03*
X118951000Y-135200000D03*
D11*
X137338000Y-153000000D03*
X138862000Y-153000000D03*
X117362000Y-137600000D03*
X115838000Y-137600000D03*
D15*
X144500000Y-145562000D03*
X144500000Y-144038000D03*
X139300000Y-141362000D03*
X139300000Y-139838000D03*
X137300000Y-139838000D03*
X137300000Y-141362000D03*
D11*
X174662000Y-147000000D03*
X173138000Y-147000000D03*
X166038000Y-147000000D03*
X167562000Y-147000000D03*
D15*
X177250000Y-141888000D03*
X177250000Y-143412000D03*
D11*
X169988000Y-139150000D03*
X171512000Y-139150000D03*
X177362000Y-139700000D03*
X175838000Y-139700000D03*
D17*
X131229860Y-146910000D03*
X128390140Y-146910000D03*
X131229860Y-141830000D03*
X128390140Y-141830000D03*
D16*
X136250000Y-150600000D03*
X138950000Y-150600000D03*
D11*
X125492000Y-146910000D03*
X123968000Y-146910000D03*
D15*
X122190000Y-155038000D03*
X122190000Y-156562000D03*
D11*
X133738000Y-140600000D03*
X135262000Y-140600000D03*
X123968000Y-141830000D03*
X125492000Y-141830000D03*
D13*
X146800000Y-146950000D03*
X146800000Y-147450000D03*
X146800000Y-147950000D03*
X146800000Y-148450000D03*
X146800000Y-148950000D03*
X146800000Y-149450000D03*
X146800000Y-149950000D03*
X146800000Y-150450000D03*
X146800000Y-150950000D03*
X146800000Y-151450000D03*
X146800000Y-151950000D03*
X146800000Y-152450000D03*
X146800000Y-152950000D03*
X146800000Y-153450000D03*
X146800000Y-153950000D03*
X146800000Y-154450000D03*
D14*
X148750000Y-156400000D03*
X149250000Y-156400000D03*
X149750000Y-156400000D03*
X150250000Y-156400000D03*
X150750000Y-156400000D03*
X151250000Y-156400000D03*
X151750000Y-156400000D03*
X152250000Y-156400000D03*
X152750000Y-156400000D03*
X153250000Y-156400000D03*
X153750000Y-156400000D03*
X154250000Y-156400000D03*
X154750000Y-156400000D03*
X155250000Y-156400000D03*
X155750000Y-156400000D03*
X156250000Y-156400000D03*
D13*
X158200000Y-154450000D03*
X158200000Y-153950000D03*
X158200000Y-153450000D03*
X158200000Y-152950000D03*
X158200000Y-152450000D03*
X158200000Y-151950000D03*
X158200000Y-151450000D03*
X158200000Y-150950000D03*
X158200000Y-150450000D03*
X158200000Y-149950000D03*
X158200000Y-149450000D03*
X158200000Y-148950000D03*
X158200000Y-148450000D03*
X158200000Y-147950000D03*
X158200000Y-147450000D03*
X158200000Y-146950000D03*
D14*
X156250000Y-145000000D03*
X155750000Y-145000000D03*
X155250000Y-145000000D03*
X154750000Y-145000000D03*
X154250000Y-145000000D03*
X153750000Y-145000000D03*
X153250000Y-145000000D03*
X152750000Y-145000000D03*
X152250000Y-145000000D03*
X151750000Y-145000000D03*
X151250000Y-145000000D03*
X150750000Y-145000000D03*
X150250000Y-145000000D03*
X149750000Y-145000000D03*
X149250000Y-145000000D03*
X148750000Y-145000000D03*
D12*
X168114720Y-140744160D03*
X168114720Y-141394400D03*
X168114720Y-142044640D03*
X168114720Y-142694880D03*
X168114720Y-143345120D03*
X168114720Y-143995360D03*
X168114720Y-144645600D03*
X168114720Y-145295840D03*
X173865280Y-145295840D03*
X173865280Y-144645600D03*
X173865280Y-143995360D03*
X173865280Y-143345120D03*
X173865280Y-142694880D03*
X173865280Y-142044640D03*
X173865280Y-141394400D03*
X173865280Y-140744160D03*
D11*
X116348000Y-150720000D03*
X117872000Y-150720000D03*
X152162000Y-163400000D03*
X150638000Y-163400000D03*
X157838000Y-144200000D03*
X159362000Y-144200000D03*
M02*
