G04 #@! TF.FileFunction,Paste,Top*
%FSLAX46Y46*%
G04 Gerber Fmt 4.6, Leading zero omitted, Abs format (unit mm)*
G04 Created by KiCad (PCBNEW 4.0.7-e2-6376~58~ubuntu14.04.1) date Sat Jan 20 12:50:39 2018*
%MOMM*%
%LPD*%
G01*
G04 APERTURE LIST*
%ADD10C,0.100000*%
%ADD11R,1.200000X0.400000*%
%ADD12R,0.635000X1.143000*%
%ADD13R,1.000000X0.250000*%
%ADD14R,0.250000X1.000000*%
%ADD15R,1.143000X0.635000*%
%ADD16R,1.500000X1.300000*%
%ADD17R,1.597660X1.800860*%
%ADD18R,1.524000X2.032000*%
G04 APERTURE END LIST*
D10*
D11*
X175050000Y-49075000D03*
X175050000Y-48425000D03*
X175050000Y-47775000D03*
X175050000Y-47125000D03*
X175050000Y-46475000D03*
X175050000Y-45825000D03*
X175050000Y-45175000D03*
X175050000Y-44525000D03*
X168150000Y-44525000D03*
X168150000Y-45175000D03*
X168150000Y-45825000D03*
X168150000Y-46475000D03*
X168150000Y-47125000D03*
X168150000Y-47775000D03*
X168150000Y-48425000D03*
X168150000Y-49075000D03*
D12*
X158838000Y-48000000D03*
X160362000Y-48000000D03*
X153162000Y-67200000D03*
X151638000Y-67200000D03*
X117348000Y-54520000D03*
X118872000Y-54520000D03*
D13*
X147800000Y-50750000D03*
X147800000Y-51250000D03*
X147800000Y-51750000D03*
X147800000Y-52250000D03*
X147800000Y-52750000D03*
X147800000Y-53250000D03*
X147800000Y-53750000D03*
X147800000Y-54250000D03*
X147800000Y-54750000D03*
X147800000Y-55250000D03*
X147800000Y-55750000D03*
X147800000Y-56250000D03*
X147800000Y-56750000D03*
X147800000Y-57250000D03*
X147800000Y-57750000D03*
X147800000Y-58250000D03*
D14*
X149750000Y-60200000D03*
X150250000Y-60200000D03*
X150750000Y-60200000D03*
X151250000Y-60200000D03*
X151750000Y-60200000D03*
X152250000Y-60200000D03*
X152750000Y-60200000D03*
X153250000Y-60200000D03*
X153750000Y-60200000D03*
X154250000Y-60200000D03*
X154750000Y-60200000D03*
X155250000Y-60200000D03*
X155750000Y-60200000D03*
X156250000Y-60200000D03*
X156750000Y-60200000D03*
X157250000Y-60200000D03*
D13*
X159200000Y-58250000D03*
X159200000Y-57750000D03*
X159200000Y-57250000D03*
X159200000Y-56750000D03*
X159200000Y-56250000D03*
X159200000Y-55750000D03*
X159200000Y-55250000D03*
X159200000Y-54750000D03*
X159200000Y-54250000D03*
X159200000Y-53750000D03*
X159200000Y-53250000D03*
X159200000Y-52750000D03*
X159200000Y-52250000D03*
X159200000Y-51750000D03*
X159200000Y-51250000D03*
X159200000Y-50750000D03*
D14*
X157250000Y-48800000D03*
X156750000Y-48800000D03*
X156250000Y-48800000D03*
X155750000Y-48800000D03*
X155250000Y-48800000D03*
X154750000Y-48800000D03*
X154250000Y-48800000D03*
X153750000Y-48800000D03*
X153250000Y-48800000D03*
X152750000Y-48800000D03*
X152250000Y-48800000D03*
X151750000Y-48800000D03*
X151250000Y-48800000D03*
X150750000Y-48800000D03*
X150250000Y-48800000D03*
X149750000Y-48800000D03*
D12*
X124968000Y-45630000D03*
X126492000Y-45630000D03*
X134738000Y-44400000D03*
X136262000Y-44400000D03*
D15*
X123190000Y-58838000D03*
X123190000Y-60362000D03*
D12*
X126492000Y-50710000D03*
X124968000Y-50710000D03*
D16*
X137250000Y-54400000D03*
X139950000Y-54400000D03*
D17*
X132229860Y-45630000D03*
X129390140Y-45630000D03*
X132229860Y-50710000D03*
X129390140Y-50710000D03*
D12*
X178362000Y-43500000D03*
X176838000Y-43500000D03*
X171038000Y-41000000D03*
X172562000Y-41000000D03*
D15*
X178250000Y-45688000D03*
X178250000Y-47212000D03*
D12*
X167038000Y-51800000D03*
X168562000Y-51800000D03*
X175262000Y-51700000D03*
X173738000Y-51700000D03*
D15*
X138300000Y-43638000D03*
X138300000Y-45162000D03*
X140300000Y-45162000D03*
X140300000Y-43638000D03*
X145500000Y-49362000D03*
X145500000Y-47838000D03*
D12*
X118362000Y-41400000D03*
X116838000Y-41400000D03*
X138338000Y-56800000D03*
X139862000Y-56800000D03*
D18*
X116649000Y-39000000D03*
X119951000Y-39000000D03*
X139851000Y-59300000D03*
X136549000Y-59300000D03*
D12*
X138262000Y-51500000D03*
X136738000Y-51500000D03*
X136738000Y-46800000D03*
X138262000Y-46800000D03*
X136738000Y-49400000D03*
X138262000Y-49400000D03*
X136738000Y-91400000D03*
X138262000Y-91400000D03*
X136738000Y-88800000D03*
X138262000Y-88800000D03*
X138262000Y-93500000D03*
X136738000Y-93500000D03*
D18*
X139851000Y-101300000D03*
X136549000Y-101300000D03*
X116649000Y-81000000D03*
X119951000Y-81000000D03*
D12*
X138338000Y-98800000D03*
X139862000Y-98800000D03*
X118362000Y-83400000D03*
X116838000Y-83400000D03*
D15*
X145500000Y-91362000D03*
X145500000Y-89838000D03*
X140300000Y-87162000D03*
X140300000Y-85638000D03*
X138300000Y-85638000D03*
X138300000Y-87162000D03*
D12*
X175262000Y-93700000D03*
X173738000Y-93700000D03*
X167038000Y-93800000D03*
X168562000Y-93800000D03*
D15*
X178250000Y-87688000D03*
X178250000Y-89212000D03*
D12*
X171038000Y-83000000D03*
X172562000Y-83000000D03*
X178362000Y-85500000D03*
X176838000Y-85500000D03*
D17*
X132229860Y-92710000D03*
X129390140Y-92710000D03*
X132229860Y-87630000D03*
X129390140Y-87630000D03*
D16*
X137250000Y-96400000D03*
X139950000Y-96400000D03*
D12*
X126492000Y-92710000D03*
X124968000Y-92710000D03*
D15*
X123190000Y-100838000D03*
X123190000Y-102362000D03*
D12*
X134738000Y-86400000D03*
X136262000Y-86400000D03*
X124968000Y-87630000D03*
X126492000Y-87630000D03*
D13*
X147800000Y-92750000D03*
X147800000Y-93250000D03*
X147800000Y-93750000D03*
X147800000Y-94250000D03*
X147800000Y-94750000D03*
X147800000Y-95250000D03*
X147800000Y-95750000D03*
X147800000Y-96250000D03*
X147800000Y-96750000D03*
X147800000Y-97250000D03*
X147800000Y-97750000D03*
X147800000Y-98250000D03*
X147800000Y-98750000D03*
X147800000Y-99250000D03*
X147800000Y-99750000D03*
X147800000Y-100250000D03*
D14*
X149750000Y-102200000D03*
X150250000Y-102200000D03*
X150750000Y-102200000D03*
X151250000Y-102200000D03*
X151750000Y-102200000D03*
X152250000Y-102200000D03*
X152750000Y-102200000D03*
X153250000Y-102200000D03*
X153750000Y-102200000D03*
X154250000Y-102200000D03*
X154750000Y-102200000D03*
X155250000Y-102200000D03*
X155750000Y-102200000D03*
X156250000Y-102200000D03*
X156750000Y-102200000D03*
X157250000Y-102200000D03*
D13*
X159200000Y-100250000D03*
X159200000Y-99750000D03*
X159200000Y-99250000D03*
X159200000Y-98750000D03*
X159200000Y-98250000D03*
X159200000Y-97750000D03*
X159200000Y-97250000D03*
X159200000Y-96750000D03*
X159200000Y-96250000D03*
X159200000Y-95750000D03*
X159200000Y-95250000D03*
X159200000Y-94750000D03*
X159200000Y-94250000D03*
X159200000Y-93750000D03*
X159200000Y-93250000D03*
X159200000Y-92750000D03*
D14*
X157250000Y-90800000D03*
X156750000Y-90800000D03*
X156250000Y-90800000D03*
X155750000Y-90800000D03*
X155250000Y-90800000D03*
X154750000Y-90800000D03*
X154250000Y-90800000D03*
X153750000Y-90800000D03*
X153250000Y-90800000D03*
X152750000Y-90800000D03*
X152250000Y-90800000D03*
X151750000Y-90800000D03*
X151250000Y-90800000D03*
X150750000Y-90800000D03*
X150250000Y-90800000D03*
X149750000Y-90800000D03*
D12*
X117348000Y-96520000D03*
X118872000Y-96520000D03*
X153162000Y-109200000D03*
X151638000Y-109200000D03*
X158838000Y-90000000D03*
X160362000Y-90000000D03*
D11*
X175050000Y-91075000D03*
X175050000Y-90425000D03*
X175050000Y-89775000D03*
X175050000Y-89125000D03*
X175050000Y-88475000D03*
X175050000Y-87825000D03*
X175050000Y-87175000D03*
X175050000Y-86525000D03*
X168150000Y-86525000D03*
X168150000Y-87175000D03*
X168150000Y-87825000D03*
X168150000Y-88475000D03*
X168150000Y-89125000D03*
X168150000Y-89775000D03*
X168150000Y-90425000D03*
X168150000Y-91075000D03*
M02*
