G04 #@! TF.FileFunction,Legend,Top*
%FSLAX46Y46*%
G04 Gerber Fmt 4.6, Leading zero omitted, Abs format (unit mm)*
G04 Created by KiCad (PCBNEW 4.0.7-e2-6376~58~ubuntu14.04.1) date Fri Jan 19 14:59:29 2018*
%MOMM*%
%LPD*%
G01*
G04 APERTURE LIST*
%ADD10C,0.100000*%
%ADD11C,0.200000*%
%ADD12C,0.150000*%
%ADD13C,0.119380*%
%ADD14C,0.127000*%
%ADD15C,0.114300*%
G04 APERTURE END LIST*
D10*
D11*
X152595237Y-38054762D02*
X152738094Y-38102381D01*
X152976190Y-38102381D01*
X153071428Y-38054762D01*
X153119047Y-38007143D01*
X153166666Y-37911905D01*
X153166666Y-37816667D01*
X153119047Y-37721429D01*
X153071428Y-37673810D01*
X152976190Y-37626190D01*
X152785713Y-37578571D01*
X152690475Y-37530952D01*
X152642856Y-37483333D01*
X152595237Y-37388095D01*
X152595237Y-37292857D01*
X152642856Y-37197619D01*
X152690475Y-37150000D01*
X152785713Y-37102381D01*
X153023809Y-37102381D01*
X153166666Y-37150000D01*
X153452380Y-37102381D02*
X154023809Y-37102381D01*
X153738094Y-38102381D02*
X153738094Y-37102381D01*
X154357142Y-38102381D02*
X154357142Y-37102381D01*
X154690476Y-37816667D01*
X155023809Y-37102381D01*
X155023809Y-38102381D01*
X155404761Y-37102381D02*
X156023809Y-37102381D01*
X155690475Y-37483333D01*
X155833333Y-37483333D01*
X155928571Y-37530952D01*
X155976190Y-37578571D01*
X156023809Y-37673810D01*
X156023809Y-37911905D01*
X155976190Y-38007143D01*
X155928571Y-38054762D01*
X155833333Y-38102381D01*
X155547618Y-38102381D01*
X155452380Y-38054762D01*
X155404761Y-38007143D01*
X156404761Y-37197619D02*
X156452380Y-37150000D01*
X156547618Y-37102381D01*
X156785714Y-37102381D01*
X156880952Y-37150000D01*
X156928571Y-37197619D01*
X156976190Y-37292857D01*
X156976190Y-37388095D01*
X156928571Y-37530952D01*
X156357142Y-38102381D01*
X156976190Y-38102381D01*
X157738095Y-37578571D02*
X157404761Y-37578571D01*
X157404761Y-38102381D02*
X157404761Y-37102381D01*
X157880952Y-37102381D01*
X158976190Y-38054762D02*
X159119047Y-38102381D01*
X159357143Y-38102381D01*
X159452381Y-38054762D01*
X159500000Y-38007143D01*
X159547619Y-37911905D01*
X159547619Y-37816667D01*
X159500000Y-37721429D01*
X159452381Y-37673810D01*
X159357143Y-37626190D01*
X159166666Y-37578571D01*
X159071428Y-37530952D01*
X159023809Y-37483333D01*
X158976190Y-37388095D01*
X158976190Y-37292857D01*
X159023809Y-37197619D01*
X159071428Y-37150000D01*
X159166666Y-37102381D01*
X159404762Y-37102381D01*
X159547619Y-37150000D01*
X159833333Y-37102381D02*
X160404762Y-37102381D01*
X160119047Y-38102381D02*
X160119047Y-37102381D01*
X160690476Y-37816667D02*
X161166667Y-37816667D01*
X160595238Y-38102381D02*
X160928571Y-37102381D01*
X161261905Y-38102381D01*
X161595238Y-38102381D02*
X161595238Y-37102381D01*
X161928572Y-37816667D01*
X162261905Y-37102381D01*
X162261905Y-38102381D01*
X162738095Y-38102381D02*
X162738095Y-37102381D01*
X163119048Y-37102381D01*
X163214286Y-37150000D01*
X163261905Y-37197619D01*
X163309524Y-37292857D01*
X163309524Y-37435714D01*
X163261905Y-37530952D01*
X163214286Y-37578571D01*
X163119048Y-37626190D01*
X162738095Y-37626190D01*
X164833334Y-37578571D02*
X164976191Y-37626190D01*
X165023810Y-37673810D01*
X165071429Y-37769048D01*
X165071429Y-37911905D01*
X165023810Y-38007143D01*
X164976191Y-38054762D01*
X164880953Y-38102381D01*
X164500000Y-38102381D01*
X164500000Y-37102381D01*
X164833334Y-37102381D01*
X164928572Y-37150000D01*
X164976191Y-37197619D01*
X165023810Y-37292857D01*
X165023810Y-37388095D01*
X164976191Y-37483333D01*
X164928572Y-37530952D01*
X164833334Y-37578571D01*
X164500000Y-37578571D01*
X165642857Y-38102381D02*
X165547619Y-38054762D01*
X165500000Y-38007143D01*
X165452381Y-37911905D01*
X165452381Y-37626190D01*
X165500000Y-37530952D01*
X165547619Y-37483333D01*
X165642857Y-37435714D01*
X165785715Y-37435714D01*
X165880953Y-37483333D01*
X165928572Y-37530952D01*
X165976191Y-37626190D01*
X165976191Y-37911905D01*
X165928572Y-38007143D01*
X165880953Y-38054762D01*
X165785715Y-38102381D01*
X165642857Y-38102381D01*
X166833334Y-38102381D02*
X166833334Y-37578571D01*
X166785715Y-37483333D01*
X166690477Y-37435714D01*
X166500000Y-37435714D01*
X166404762Y-37483333D01*
X166833334Y-38054762D02*
X166738096Y-38102381D01*
X166500000Y-38102381D01*
X166404762Y-38054762D01*
X166357143Y-37959524D01*
X166357143Y-37864286D01*
X166404762Y-37769048D01*
X166500000Y-37721429D01*
X166738096Y-37721429D01*
X166833334Y-37673810D01*
X167309524Y-38102381D02*
X167309524Y-37435714D01*
X167309524Y-37626190D02*
X167357143Y-37530952D01*
X167404762Y-37483333D01*
X167500000Y-37435714D01*
X167595239Y-37435714D01*
X168357144Y-38102381D02*
X168357144Y-37102381D01*
X168357144Y-38054762D02*
X168261906Y-38102381D01*
X168071429Y-38102381D01*
X167976191Y-38054762D01*
X167928572Y-38007143D01*
X167880953Y-37911905D01*
X167880953Y-37626190D01*
X167928572Y-37530952D01*
X167976191Y-37483333D01*
X168071429Y-37435714D01*
X168261906Y-37435714D01*
X168357144Y-37483333D01*
X157142857Y-39802381D02*
X157142857Y-38802381D01*
X157714286Y-39802381D02*
X157285714Y-39230952D01*
X157714286Y-38802381D02*
X157142857Y-39373810D01*
X158857143Y-39754762D02*
X159000000Y-39802381D01*
X159238096Y-39802381D01*
X159333334Y-39754762D01*
X159380953Y-39707143D01*
X159428572Y-39611905D01*
X159428572Y-39516667D01*
X159380953Y-39421429D01*
X159333334Y-39373810D01*
X159238096Y-39326190D01*
X159047619Y-39278571D01*
X158952381Y-39230952D01*
X158904762Y-39183333D01*
X158857143Y-39088095D01*
X158857143Y-38992857D01*
X158904762Y-38897619D01*
X158952381Y-38850000D01*
X159047619Y-38802381D01*
X159285715Y-38802381D01*
X159428572Y-38850000D01*
X160285715Y-39802381D02*
X160285715Y-39278571D01*
X160238096Y-39183333D01*
X160142858Y-39135714D01*
X159952381Y-39135714D01*
X159857143Y-39183333D01*
X160285715Y-39754762D02*
X160190477Y-39802381D01*
X159952381Y-39802381D01*
X159857143Y-39754762D01*
X159809524Y-39659524D01*
X159809524Y-39564286D01*
X159857143Y-39469048D01*
X159952381Y-39421429D01*
X160190477Y-39421429D01*
X160285715Y-39373810D01*
X160761905Y-39802381D02*
X160761905Y-39135714D01*
X160761905Y-39326190D02*
X160809524Y-39230952D01*
X160857143Y-39183333D01*
X160952381Y-39135714D01*
X161047620Y-39135714D01*
X161380953Y-39802381D02*
X161380953Y-38802381D01*
X161476191Y-39421429D02*
X161761906Y-39802381D01*
X161761906Y-39135714D02*
X161380953Y-39516667D01*
X162190477Y-39802381D02*
X162190477Y-39135714D01*
X162190477Y-38802381D02*
X162142858Y-38850000D01*
X162190477Y-38897619D01*
X162238096Y-38850000D01*
X162190477Y-38802381D01*
X162190477Y-38897619D01*
X163047620Y-39754762D02*
X162952382Y-39802381D01*
X162761905Y-39802381D01*
X162666667Y-39754762D01*
X162619048Y-39659524D01*
X162619048Y-39278571D01*
X162666667Y-39183333D01*
X162761905Y-39135714D01*
X162952382Y-39135714D01*
X163047620Y-39183333D01*
X163095239Y-39278571D01*
X163095239Y-39373810D01*
X162619048Y-39469048D01*
X163476191Y-39754762D02*
X163571429Y-39802381D01*
X163761905Y-39802381D01*
X163857144Y-39754762D01*
X163904763Y-39659524D01*
X163904763Y-39611905D01*
X163857144Y-39516667D01*
X163761905Y-39469048D01*
X163619048Y-39469048D01*
X163523810Y-39421429D01*
X163476191Y-39326190D01*
X163476191Y-39278571D01*
X163523810Y-39183333D01*
X163619048Y-39135714D01*
X163761905Y-39135714D01*
X163857144Y-39183333D01*
X156071428Y-40502381D02*
X156166667Y-40502381D01*
X156261905Y-40550000D01*
X156309524Y-40597619D01*
X156357143Y-40692857D01*
X156404762Y-40883333D01*
X156404762Y-41121429D01*
X156357143Y-41311905D01*
X156309524Y-41407143D01*
X156261905Y-41454762D01*
X156166667Y-41502381D01*
X156071428Y-41502381D01*
X155976190Y-41454762D01*
X155928571Y-41407143D01*
X155880952Y-41311905D01*
X155833333Y-41121429D01*
X155833333Y-40883333D01*
X155880952Y-40692857D01*
X155928571Y-40597619D01*
X155976190Y-40550000D01*
X156071428Y-40502381D01*
X156880952Y-41502381D02*
X157071428Y-41502381D01*
X157166667Y-41454762D01*
X157214286Y-41407143D01*
X157309524Y-41264286D01*
X157357143Y-41073810D01*
X157357143Y-40692857D01*
X157309524Y-40597619D01*
X157261905Y-40550000D01*
X157166667Y-40502381D01*
X156976190Y-40502381D01*
X156880952Y-40550000D01*
X156833333Y-40597619D01*
X156785714Y-40692857D01*
X156785714Y-40930952D01*
X156833333Y-41026190D01*
X156880952Y-41073810D01*
X156976190Y-41121429D01*
X157166667Y-41121429D01*
X157261905Y-41073810D01*
X157309524Y-41026190D01*
X157357143Y-40930952D01*
X158500000Y-40454762D02*
X157642857Y-41740476D01*
X159357143Y-41502381D02*
X158785714Y-41502381D01*
X159071428Y-41502381D02*
X159071428Y-40502381D01*
X158976190Y-40645238D01*
X158880952Y-40740476D01*
X158785714Y-40788095D01*
X159738095Y-40597619D02*
X159785714Y-40550000D01*
X159880952Y-40502381D01*
X160119048Y-40502381D01*
X160214286Y-40550000D01*
X160261905Y-40597619D01*
X160309524Y-40692857D01*
X160309524Y-40788095D01*
X160261905Y-40930952D01*
X159690476Y-41502381D01*
X160309524Y-41502381D01*
X161452381Y-40454762D02*
X160595238Y-41740476D01*
X161738095Y-40597619D02*
X161785714Y-40550000D01*
X161880952Y-40502381D01*
X162119048Y-40502381D01*
X162214286Y-40550000D01*
X162261905Y-40597619D01*
X162309524Y-40692857D01*
X162309524Y-40788095D01*
X162261905Y-40930952D01*
X161690476Y-41502381D01*
X162309524Y-41502381D01*
X162928571Y-40502381D02*
X163023810Y-40502381D01*
X163119048Y-40550000D01*
X163166667Y-40597619D01*
X163214286Y-40692857D01*
X163261905Y-40883333D01*
X163261905Y-41121429D01*
X163214286Y-41311905D01*
X163166667Y-41407143D01*
X163119048Y-41454762D01*
X163023810Y-41502381D01*
X162928571Y-41502381D01*
X162833333Y-41454762D01*
X162785714Y-41407143D01*
X162738095Y-41311905D01*
X162690476Y-41121429D01*
X162690476Y-40883333D01*
X162738095Y-40692857D01*
X162785714Y-40597619D01*
X162833333Y-40550000D01*
X162928571Y-40502381D01*
X164214286Y-41502381D02*
X163642857Y-41502381D01*
X163928571Y-41502381D02*
X163928571Y-40502381D01*
X163833333Y-40645238D01*
X163738095Y-40740476D01*
X163642857Y-40788095D01*
X164547619Y-40502381D02*
X165214286Y-40502381D01*
X164785714Y-41502381D01*
X156309524Y-42202381D02*
X156642857Y-43202381D01*
X156976191Y-42202381D01*
X157690477Y-43154762D02*
X157595239Y-43202381D01*
X157404762Y-43202381D01*
X157309524Y-43154762D01*
X157261905Y-43059524D01*
X157261905Y-42678571D01*
X157309524Y-42583333D01*
X157404762Y-42535714D01*
X157595239Y-42535714D01*
X157690477Y-42583333D01*
X157738096Y-42678571D01*
X157738096Y-42773810D01*
X157261905Y-42869048D01*
X158166667Y-43202381D02*
X158166667Y-42535714D01*
X158166667Y-42726190D02*
X158214286Y-42630952D01*
X158261905Y-42583333D01*
X158357143Y-42535714D01*
X158452382Y-42535714D01*
X158738096Y-43154762D02*
X158833334Y-43202381D01*
X159023810Y-43202381D01*
X159119049Y-43154762D01*
X159166668Y-43059524D01*
X159166668Y-43011905D01*
X159119049Y-42916667D01*
X159023810Y-42869048D01*
X158880953Y-42869048D01*
X158785715Y-42821429D01*
X158738096Y-42726190D01*
X158738096Y-42678571D01*
X158785715Y-42583333D01*
X158880953Y-42535714D01*
X159023810Y-42535714D01*
X159119049Y-42583333D01*
X159595239Y-43202381D02*
X159595239Y-42535714D01*
X159595239Y-42202381D02*
X159547620Y-42250000D01*
X159595239Y-42297619D01*
X159642858Y-42250000D01*
X159595239Y-42202381D01*
X159595239Y-42297619D01*
X160214286Y-43202381D02*
X160119048Y-43154762D01*
X160071429Y-43107143D01*
X160023810Y-43011905D01*
X160023810Y-42726190D01*
X160071429Y-42630952D01*
X160119048Y-42583333D01*
X160214286Y-42535714D01*
X160357144Y-42535714D01*
X160452382Y-42583333D01*
X160500001Y-42630952D01*
X160547620Y-42726190D01*
X160547620Y-43011905D01*
X160500001Y-43107143D01*
X160452382Y-43154762D01*
X160357144Y-43202381D01*
X160214286Y-43202381D01*
X160976191Y-42535714D02*
X160976191Y-43202381D01*
X160976191Y-42630952D02*
X161023810Y-42583333D01*
X161119048Y-42535714D01*
X161261906Y-42535714D01*
X161357144Y-42583333D01*
X161404763Y-42678571D01*
X161404763Y-43202381D01*
X162833334Y-42202381D02*
X162928573Y-42202381D01*
X163023811Y-42250000D01*
X163071430Y-42297619D01*
X163119049Y-42392857D01*
X163166668Y-42583333D01*
X163166668Y-42821429D01*
X163119049Y-43011905D01*
X163071430Y-43107143D01*
X163023811Y-43154762D01*
X162928573Y-43202381D01*
X162833334Y-43202381D01*
X162738096Y-43154762D01*
X162690477Y-43107143D01*
X162642858Y-43011905D01*
X162595239Y-42821429D01*
X162595239Y-42583333D01*
X162642858Y-42392857D01*
X162690477Y-42297619D01*
X162738096Y-42250000D01*
X162833334Y-42202381D01*
X163595239Y-43107143D02*
X163642858Y-43154762D01*
X163595239Y-43202381D01*
X163547620Y-43154762D01*
X163595239Y-43107143D01*
X163595239Y-43202381D01*
X164261905Y-42202381D02*
X164357144Y-42202381D01*
X164452382Y-42250000D01*
X164500001Y-42297619D01*
X164547620Y-42392857D01*
X164595239Y-42583333D01*
X164595239Y-42821429D01*
X164547620Y-43011905D01*
X164500001Y-43107143D01*
X164452382Y-43154762D01*
X164357144Y-43202381D01*
X164261905Y-43202381D01*
X164166667Y-43154762D01*
X164119048Y-43107143D01*
X164071429Y-43011905D01*
X164023810Y-42821429D01*
X164023810Y-42583333D01*
X164071429Y-42392857D01*
X164119048Y-42297619D01*
X164166667Y-42250000D01*
X164261905Y-42202381D01*
X152595237Y-80054762D02*
X152738094Y-80102381D01*
X152976190Y-80102381D01*
X153071428Y-80054762D01*
X153119047Y-80007143D01*
X153166666Y-79911905D01*
X153166666Y-79816667D01*
X153119047Y-79721429D01*
X153071428Y-79673810D01*
X152976190Y-79626190D01*
X152785713Y-79578571D01*
X152690475Y-79530952D01*
X152642856Y-79483333D01*
X152595237Y-79388095D01*
X152595237Y-79292857D01*
X152642856Y-79197619D01*
X152690475Y-79150000D01*
X152785713Y-79102381D01*
X153023809Y-79102381D01*
X153166666Y-79150000D01*
X153452380Y-79102381D02*
X154023809Y-79102381D01*
X153738094Y-80102381D02*
X153738094Y-79102381D01*
X154357142Y-80102381D02*
X154357142Y-79102381D01*
X154690476Y-79816667D01*
X155023809Y-79102381D01*
X155023809Y-80102381D01*
X155404761Y-79102381D02*
X156023809Y-79102381D01*
X155690475Y-79483333D01*
X155833333Y-79483333D01*
X155928571Y-79530952D01*
X155976190Y-79578571D01*
X156023809Y-79673810D01*
X156023809Y-79911905D01*
X155976190Y-80007143D01*
X155928571Y-80054762D01*
X155833333Y-80102381D01*
X155547618Y-80102381D01*
X155452380Y-80054762D01*
X155404761Y-80007143D01*
X156404761Y-79197619D02*
X156452380Y-79150000D01*
X156547618Y-79102381D01*
X156785714Y-79102381D01*
X156880952Y-79150000D01*
X156928571Y-79197619D01*
X156976190Y-79292857D01*
X156976190Y-79388095D01*
X156928571Y-79530952D01*
X156357142Y-80102381D01*
X156976190Y-80102381D01*
X157738095Y-79578571D02*
X157404761Y-79578571D01*
X157404761Y-80102381D02*
X157404761Y-79102381D01*
X157880952Y-79102381D01*
X158976190Y-80054762D02*
X159119047Y-80102381D01*
X159357143Y-80102381D01*
X159452381Y-80054762D01*
X159500000Y-80007143D01*
X159547619Y-79911905D01*
X159547619Y-79816667D01*
X159500000Y-79721429D01*
X159452381Y-79673810D01*
X159357143Y-79626190D01*
X159166666Y-79578571D01*
X159071428Y-79530952D01*
X159023809Y-79483333D01*
X158976190Y-79388095D01*
X158976190Y-79292857D01*
X159023809Y-79197619D01*
X159071428Y-79150000D01*
X159166666Y-79102381D01*
X159404762Y-79102381D01*
X159547619Y-79150000D01*
X159833333Y-79102381D02*
X160404762Y-79102381D01*
X160119047Y-80102381D02*
X160119047Y-79102381D01*
X160690476Y-79816667D02*
X161166667Y-79816667D01*
X160595238Y-80102381D02*
X160928571Y-79102381D01*
X161261905Y-80102381D01*
X161595238Y-80102381D02*
X161595238Y-79102381D01*
X161928572Y-79816667D01*
X162261905Y-79102381D01*
X162261905Y-80102381D01*
X162738095Y-80102381D02*
X162738095Y-79102381D01*
X163119048Y-79102381D01*
X163214286Y-79150000D01*
X163261905Y-79197619D01*
X163309524Y-79292857D01*
X163309524Y-79435714D01*
X163261905Y-79530952D01*
X163214286Y-79578571D01*
X163119048Y-79626190D01*
X162738095Y-79626190D01*
X164833334Y-79578571D02*
X164976191Y-79626190D01*
X165023810Y-79673810D01*
X165071429Y-79769048D01*
X165071429Y-79911905D01*
X165023810Y-80007143D01*
X164976191Y-80054762D01*
X164880953Y-80102381D01*
X164500000Y-80102381D01*
X164500000Y-79102381D01*
X164833334Y-79102381D01*
X164928572Y-79150000D01*
X164976191Y-79197619D01*
X165023810Y-79292857D01*
X165023810Y-79388095D01*
X164976191Y-79483333D01*
X164928572Y-79530952D01*
X164833334Y-79578571D01*
X164500000Y-79578571D01*
X165642857Y-80102381D02*
X165547619Y-80054762D01*
X165500000Y-80007143D01*
X165452381Y-79911905D01*
X165452381Y-79626190D01*
X165500000Y-79530952D01*
X165547619Y-79483333D01*
X165642857Y-79435714D01*
X165785715Y-79435714D01*
X165880953Y-79483333D01*
X165928572Y-79530952D01*
X165976191Y-79626190D01*
X165976191Y-79911905D01*
X165928572Y-80007143D01*
X165880953Y-80054762D01*
X165785715Y-80102381D01*
X165642857Y-80102381D01*
X166833334Y-80102381D02*
X166833334Y-79578571D01*
X166785715Y-79483333D01*
X166690477Y-79435714D01*
X166500000Y-79435714D01*
X166404762Y-79483333D01*
X166833334Y-80054762D02*
X166738096Y-80102381D01*
X166500000Y-80102381D01*
X166404762Y-80054762D01*
X166357143Y-79959524D01*
X166357143Y-79864286D01*
X166404762Y-79769048D01*
X166500000Y-79721429D01*
X166738096Y-79721429D01*
X166833334Y-79673810D01*
X167309524Y-80102381D02*
X167309524Y-79435714D01*
X167309524Y-79626190D02*
X167357143Y-79530952D01*
X167404762Y-79483333D01*
X167500000Y-79435714D01*
X167595239Y-79435714D01*
X168357144Y-80102381D02*
X168357144Y-79102381D01*
X168357144Y-80054762D02*
X168261906Y-80102381D01*
X168071429Y-80102381D01*
X167976191Y-80054762D01*
X167928572Y-80007143D01*
X167880953Y-79911905D01*
X167880953Y-79626190D01*
X167928572Y-79530952D01*
X167976191Y-79483333D01*
X168071429Y-79435714D01*
X168261906Y-79435714D01*
X168357144Y-79483333D01*
X157142857Y-81802381D02*
X157142857Y-80802381D01*
X157714286Y-81802381D02*
X157285714Y-81230952D01*
X157714286Y-80802381D02*
X157142857Y-81373810D01*
X158857143Y-81754762D02*
X159000000Y-81802381D01*
X159238096Y-81802381D01*
X159333334Y-81754762D01*
X159380953Y-81707143D01*
X159428572Y-81611905D01*
X159428572Y-81516667D01*
X159380953Y-81421429D01*
X159333334Y-81373810D01*
X159238096Y-81326190D01*
X159047619Y-81278571D01*
X158952381Y-81230952D01*
X158904762Y-81183333D01*
X158857143Y-81088095D01*
X158857143Y-80992857D01*
X158904762Y-80897619D01*
X158952381Y-80850000D01*
X159047619Y-80802381D01*
X159285715Y-80802381D01*
X159428572Y-80850000D01*
X160285715Y-81802381D02*
X160285715Y-81278571D01*
X160238096Y-81183333D01*
X160142858Y-81135714D01*
X159952381Y-81135714D01*
X159857143Y-81183333D01*
X160285715Y-81754762D02*
X160190477Y-81802381D01*
X159952381Y-81802381D01*
X159857143Y-81754762D01*
X159809524Y-81659524D01*
X159809524Y-81564286D01*
X159857143Y-81469048D01*
X159952381Y-81421429D01*
X160190477Y-81421429D01*
X160285715Y-81373810D01*
X160761905Y-81802381D02*
X160761905Y-81135714D01*
X160761905Y-81326190D02*
X160809524Y-81230952D01*
X160857143Y-81183333D01*
X160952381Y-81135714D01*
X161047620Y-81135714D01*
X161380953Y-81802381D02*
X161380953Y-80802381D01*
X161476191Y-81421429D02*
X161761906Y-81802381D01*
X161761906Y-81135714D02*
X161380953Y-81516667D01*
X162190477Y-81802381D02*
X162190477Y-81135714D01*
X162190477Y-80802381D02*
X162142858Y-80850000D01*
X162190477Y-80897619D01*
X162238096Y-80850000D01*
X162190477Y-80802381D01*
X162190477Y-80897619D01*
X163047620Y-81754762D02*
X162952382Y-81802381D01*
X162761905Y-81802381D01*
X162666667Y-81754762D01*
X162619048Y-81659524D01*
X162619048Y-81278571D01*
X162666667Y-81183333D01*
X162761905Y-81135714D01*
X162952382Y-81135714D01*
X163047620Y-81183333D01*
X163095239Y-81278571D01*
X163095239Y-81373810D01*
X162619048Y-81469048D01*
X163476191Y-81754762D02*
X163571429Y-81802381D01*
X163761905Y-81802381D01*
X163857144Y-81754762D01*
X163904763Y-81659524D01*
X163904763Y-81611905D01*
X163857144Y-81516667D01*
X163761905Y-81469048D01*
X163619048Y-81469048D01*
X163523810Y-81421429D01*
X163476191Y-81326190D01*
X163476191Y-81278571D01*
X163523810Y-81183333D01*
X163619048Y-81135714D01*
X163761905Y-81135714D01*
X163857144Y-81183333D01*
X156071428Y-82502381D02*
X156166667Y-82502381D01*
X156261905Y-82550000D01*
X156309524Y-82597619D01*
X156357143Y-82692857D01*
X156404762Y-82883333D01*
X156404762Y-83121429D01*
X156357143Y-83311905D01*
X156309524Y-83407143D01*
X156261905Y-83454762D01*
X156166667Y-83502381D01*
X156071428Y-83502381D01*
X155976190Y-83454762D01*
X155928571Y-83407143D01*
X155880952Y-83311905D01*
X155833333Y-83121429D01*
X155833333Y-82883333D01*
X155880952Y-82692857D01*
X155928571Y-82597619D01*
X155976190Y-82550000D01*
X156071428Y-82502381D01*
X156880952Y-83502381D02*
X157071428Y-83502381D01*
X157166667Y-83454762D01*
X157214286Y-83407143D01*
X157309524Y-83264286D01*
X157357143Y-83073810D01*
X157357143Y-82692857D01*
X157309524Y-82597619D01*
X157261905Y-82550000D01*
X157166667Y-82502381D01*
X156976190Y-82502381D01*
X156880952Y-82550000D01*
X156833333Y-82597619D01*
X156785714Y-82692857D01*
X156785714Y-82930952D01*
X156833333Y-83026190D01*
X156880952Y-83073810D01*
X156976190Y-83121429D01*
X157166667Y-83121429D01*
X157261905Y-83073810D01*
X157309524Y-83026190D01*
X157357143Y-82930952D01*
X158500000Y-82454762D02*
X157642857Y-83740476D01*
X159357143Y-83502381D02*
X158785714Y-83502381D01*
X159071428Y-83502381D02*
X159071428Y-82502381D01*
X158976190Y-82645238D01*
X158880952Y-82740476D01*
X158785714Y-82788095D01*
X159738095Y-82597619D02*
X159785714Y-82550000D01*
X159880952Y-82502381D01*
X160119048Y-82502381D01*
X160214286Y-82550000D01*
X160261905Y-82597619D01*
X160309524Y-82692857D01*
X160309524Y-82788095D01*
X160261905Y-82930952D01*
X159690476Y-83502381D01*
X160309524Y-83502381D01*
X161452381Y-82454762D02*
X160595238Y-83740476D01*
X161738095Y-82597619D02*
X161785714Y-82550000D01*
X161880952Y-82502381D01*
X162119048Y-82502381D01*
X162214286Y-82550000D01*
X162261905Y-82597619D01*
X162309524Y-82692857D01*
X162309524Y-82788095D01*
X162261905Y-82930952D01*
X161690476Y-83502381D01*
X162309524Y-83502381D01*
X162928571Y-82502381D02*
X163023810Y-82502381D01*
X163119048Y-82550000D01*
X163166667Y-82597619D01*
X163214286Y-82692857D01*
X163261905Y-82883333D01*
X163261905Y-83121429D01*
X163214286Y-83311905D01*
X163166667Y-83407143D01*
X163119048Y-83454762D01*
X163023810Y-83502381D01*
X162928571Y-83502381D01*
X162833333Y-83454762D01*
X162785714Y-83407143D01*
X162738095Y-83311905D01*
X162690476Y-83121429D01*
X162690476Y-82883333D01*
X162738095Y-82692857D01*
X162785714Y-82597619D01*
X162833333Y-82550000D01*
X162928571Y-82502381D01*
X164214286Y-83502381D02*
X163642857Y-83502381D01*
X163928571Y-83502381D02*
X163928571Y-82502381D01*
X163833333Y-82645238D01*
X163738095Y-82740476D01*
X163642857Y-82788095D01*
X164547619Y-82502381D02*
X165214286Y-82502381D01*
X164785714Y-83502381D01*
X156309524Y-84202381D02*
X156642857Y-85202381D01*
X156976191Y-84202381D01*
X157690477Y-85154762D02*
X157595239Y-85202381D01*
X157404762Y-85202381D01*
X157309524Y-85154762D01*
X157261905Y-85059524D01*
X157261905Y-84678571D01*
X157309524Y-84583333D01*
X157404762Y-84535714D01*
X157595239Y-84535714D01*
X157690477Y-84583333D01*
X157738096Y-84678571D01*
X157738096Y-84773810D01*
X157261905Y-84869048D01*
X158166667Y-85202381D02*
X158166667Y-84535714D01*
X158166667Y-84726190D02*
X158214286Y-84630952D01*
X158261905Y-84583333D01*
X158357143Y-84535714D01*
X158452382Y-84535714D01*
X158738096Y-85154762D02*
X158833334Y-85202381D01*
X159023810Y-85202381D01*
X159119049Y-85154762D01*
X159166668Y-85059524D01*
X159166668Y-85011905D01*
X159119049Y-84916667D01*
X159023810Y-84869048D01*
X158880953Y-84869048D01*
X158785715Y-84821429D01*
X158738096Y-84726190D01*
X158738096Y-84678571D01*
X158785715Y-84583333D01*
X158880953Y-84535714D01*
X159023810Y-84535714D01*
X159119049Y-84583333D01*
X159595239Y-85202381D02*
X159595239Y-84535714D01*
X159595239Y-84202381D02*
X159547620Y-84250000D01*
X159595239Y-84297619D01*
X159642858Y-84250000D01*
X159595239Y-84202381D01*
X159595239Y-84297619D01*
X160214286Y-85202381D02*
X160119048Y-85154762D01*
X160071429Y-85107143D01*
X160023810Y-85011905D01*
X160023810Y-84726190D01*
X160071429Y-84630952D01*
X160119048Y-84583333D01*
X160214286Y-84535714D01*
X160357144Y-84535714D01*
X160452382Y-84583333D01*
X160500001Y-84630952D01*
X160547620Y-84726190D01*
X160547620Y-85011905D01*
X160500001Y-85107143D01*
X160452382Y-85154762D01*
X160357144Y-85202381D01*
X160214286Y-85202381D01*
X160976191Y-84535714D02*
X160976191Y-85202381D01*
X160976191Y-84630952D02*
X161023810Y-84583333D01*
X161119048Y-84535714D01*
X161261906Y-84535714D01*
X161357144Y-84583333D01*
X161404763Y-84678571D01*
X161404763Y-85202381D01*
X162833334Y-84202381D02*
X162928573Y-84202381D01*
X163023811Y-84250000D01*
X163071430Y-84297619D01*
X163119049Y-84392857D01*
X163166668Y-84583333D01*
X163166668Y-84821429D01*
X163119049Y-85011905D01*
X163071430Y-85107143D01*
X163023811Y-85154762D01*
X162928573Y-85202381D01*
X162833334Y-85202381D01*
X162738096Y-85154762D01*
X162690477Y-85107143D01*
X162642858Y-85011905D01*
X162595239Y-84821429D01*
X162595239Y-84583333D01*
X162642858Y-84392857D01*
X162690477Y-84297619D01*
X162738096Y-84250000D01*
X162833334Y-84202381D01*
X163595239Y-85107143D02*
X163642858Y-85154762D01*
X163595239Y-85202381D01*
X163547620Y-85154762D01*
X163595239Y-85107143D01*
X163595239Y-85202381D01*
X164261905Y-84202381D02*
X164357144Y-84202381D01*
X164452382Y-84250000D01*
X164500001Y-84297619D01*
X164547620Y-84392857D01*
X164595239Y-84583333D01*
X164595239Y-84821429D01*
X164547620Y-85011905D01*
X164500001Y-85107143D01*
X164452382Y-85154762D01*
X164357144Y-85202381D01*
X164261905Y-85202381D01*
X164166667Y-85154762D01*
X164119048Y-85107143D01*
X164071429Y-85011905D01*
X164023810Y-84821429D01*
X164023810Y-84583333D01*
X164071429Y-84392857D01*
X164119048Y-84297619D01*
X164166667Y-84250000D01*
X164261905Y-84202381D01*
D12*
X174375000Y-50075000D02*
X174375000Y-49600000D01*
X168825000Y-50075000D02*
X168825000Y-49500000D01*
X168825000Y-43525000D02*
X168825000Y-44100000D01*
X174375000Y-43525000D02*
X174375000Y-44100000D01*
X174375000Y-50075000D02*
X168825000Y-50075000D01*
X174375000Y-43525000D02*
X168825000Y-43525000D01*
X174375000Y-49600000D02*
X175650000Y-49600000D01*
D13*
X160100380Y-48650240D02*
X160798880Y-48650240D01*
X159099620Y-48650240D02*
X158401120Y-48650240D01*
X160100380Y-47349760D02*
X160798880Y-47349760D01*
X158401120Y-47349760D02*
X159099620Y-47349760D01*
X160798880Y-47365000D02*
X160798880Y-48635000D01*
X158401120Y-48635000D02*
X158401120Y-47365000D01*
X151899620Y-66549760D02*
X151201120Y-66549760D01*
X152900380Y-66549760D02*
X153598880Y-66549760D01*
X151899620Y-67850240D02*
X151201120Y-67850240D01*
X153598880Y-67850240D02*
X152900380Y-67850240D01*
X151201120Y-67835000D02*
X151201120Y-66565000D01*
X153598880Y-66565000D02*
X153598880Y-67835000D01*
D12*
X123337000Y-44790000D02*
X123337000Y-52417000D01*
X123337000Y-52417000D02*
X115329000Y-52417000D01*
X115329000Y-52417000D02*
X115329000Y-44790000D01*
X115329000Y-44790000D02*
X123270000Y-44790000D01*
D14*
X117609620Y-53821500D02*
X116903500Y-53821500D01*
X116903500Y-53821500D02*
X116903500Y-55218500D01*
X116903500Y-55218500D02*
X117609620Y-55218500D01*
X119316500Y-53821500D02*
X118610380Y-53821500D01*
X119316500Y-53821500D02*
X119316500Y-55218500D01*
X119316500Y-55218500D02*
X118610380Y-55218500D01*
D12*
X179705000Y-64680000D02*
X179705000Y-54520000D01*
X175260000Y-64680000D02*
X175260000Y-54520000D01*
X173355000Y-64680000D02*
X173355000Y-54520000D01*
X173355000Y-64680000D02*
X179705000Y-64680000D01*
X173355000Y-54520000D02*
X179705000Y-54520000D01*
X144505000Y-46405000D02*
X144505000Y-42595000D01*
X144505000Y-42595000D02*
X152760000Y-42595000D01*
X152760000Y-42595000D02*
X152760000Y-46405000D01*
X152760000Y-46405000D02*
X144505000Y-46405000D01*
X142600000Y-45770000D02*
X144505000Y-45770000D01*
X142600000Y-43230000D02*
X144505000Y-43230000D01*
X148325000Y-49325000D02*
X148325000Y-50400000D01*
X158675000Y-49325000D02*
X158675000Y-50400000D01*
X158675000Y-59675000D02*
X158675000Y-58600000D01*
X148325000Y-59675000D02*
X148325000Y-58600000D01*
X148325000Y-49325000D02*
X149400000Y-49325000D01*
X148325000Y-59675000D02*
X149400000Y-59675000D01*
X158675000Y-59675000D02*
X157600000Y-59675000D01*
X158675000Y-49325000D02*
X157600000Y-49325000D01*
X148325000Y-50400000D02*
X147300000Y-50400000D01*
X121430000Y-63420000D02*
G75*
G03X121430000Y-63420000I-2540000J0D01*
G01*
X115890000Y-66420000D02*
X115890000Y-60420000D01*
X115890000Y-60420000D02*
X121890000Y-60420000D01*
X121890000Y-60420000D02*
X121890000Y-66420000D01*
X115890000Y-66420000D02*
X121890000Y-66420000D01*
D14*
X125229620Y-44931500D02*
X124523500Y-44931500D01*
X124523500Y-44931500D02*
X124523500Y-46328500D01*
X124523500Y-46328500D02*
X125229620Y-46328500D01*
X126936500Y-44931500D02*
X126230380Y-44931500D01*
X126936500Y-44931500D02*
X126936500Y-46328500D01*
X126936500Y-46328500D02*
X126230380Y-46328500D01*
X134999620Y-43701500D02*
X134293500Y-43701500D01*
X134293500Y-43701500D02*
X134293500Y-45098500D01*
X134293500Y-45098500D02*
X134999620Y-45098500D01*
X136706500Y-43701500D02*
X136000380Y-43701500D01*
X136706500Y-43701500D02*
X136706500Y-45098500D01*
X136706500Y-45098500D02*
X136000380Y-45098500D01*
X123888500Y-59099620D02*
X123888500Y-58393500D01*
X123888500Y-58393500D02*
X122491500Y-58393500D01*
X122491500Y-58393500D02*
X122491500Y-59099620D01*
X123888500Y-60806500D02*
X123888500Y-60100380D01*
X123888500Y-60806500D02*
X122491500Y-60806500D01*
X122491500Y-60806500D02*
X122491500Y-60100380D01*
X126230380Y-51408500D02*
X126936500Y-51408500D01*
X126936500Y-51408500D02*
X126936500Y-50011500D01*
X126936500Y-50011500D02*
X126230380Y-50011500D01*
X124523500Y-51408500D02*
X125229620Y-51408500D01*
X124523500Y-51408500D02*
X124523500Y-50011500D01*
X124523500Y-50011500D02*
X125229620Y-50011500D01*
D12*
X139200000Y-55275000D02*
X138000000Y-55275000D01*
X138000000Y-53525000D02*
X139200000Y-53525000D01*
X176530000Y-71030000D02*
X115570000Y-71030000D01*
X115570000Y-71030000D02*
X115570000Y-73570000D01*
X115570000Y-73570000D02*
X176530000Y-73570000D01*
X179350000Y-73850000D02*
X177800000Y-73850000D01*
X176530000Y-73570000D02*
X176530000Y-71030000D01*
X177800000Y-70750000D02*
X179350000Y-70750000D01*
X179350000Y-70750000D02*
X179350000Y-73850000D01*
X176530000Y-32930000D02*
X115570000Y-32930000D01*
X115570000Y-32930000D02*
X115570000Y-35470000D01*
X115570000Y-35470000D02*
X176530000Y-35470000D01*
X179350000Y-35750000D02*
X177800000Y-35750000D01*
X176530000Y-35470000D02*
X176530000Y-32930000D01*
X177800000Y-32650000D02*
X179350000Y-32650000D01*
X179350000Y-32650000D02*
X179350000Y-35750000D01*
X128660000Y-46680000D02*
X132260000Y-46680000D01*
X128660000Y-44580000D02*
X132260000Y-44580000D01*
X130710000Y-45330000D02*
X130710000Y-45930000D01*
X130710000Y-45930000D02*
X130410000Y-45630000D01*
X130410000Y-45630000D02*
X130610000Y-45430000D01*
X130610000Y-45430000D02*
X130610000Y-45680000D01*
X130610000Y-45680000D02*
X130560000Y-45630000D01*
X130310000Y-45130000D02*
X130310000Y-46130000D01*
X130810000Y-45630000D02*
X131310000Y-45630000D01*
X130310000Y-45630000D02*
X130810000Y-45130000D01*
X130810000Y-45130000D02*
X130810000Y-46130000D01*
X130810000Y-46130000D02*
X130310000Y-45630000D01*
X128660000Y-51760000D02*
X132260000Y-51760000D01*
X128660000Y-49660000D02*
X132260000Y-49660000D01*
X130710000Y-50410000D02*
X130710000Y-51010000D01*
X130710000Y-51010000D02*
X130410000Y-50710000D01*
X130410000Y-50710000D02*
X130610000Y-50510000D01*
X130610000Y-50510000D02*
X130610000Y-50760000D01*
X130610000Y-50760000D02*
X130560000Y-50710000D01*
X130310000Y-50210000D02*
X130310000Y-51210000D01*
X130810000Y-50710000D02*
X131310000Y-50710000D01*
X130310000Y-50710000D02*
X130810000Y-50210000D01*
X130810000Y-50210000D02*
X130810000Y-51210000D01*
X130810000Y-51210000D02*
X130310000Y-50710000D01*
D13*
X177099620Y-42849760D02*
X176401120Y-42849760D01*
X178100380Y-42849760D02*
X178798880Y-42849760D01*
X177099620Y-44150240D02*
X176401120Y-44150240D01*
X178798880Y-44150240D02*
X178100380Y-44150240D01*
X176401120Y-44135000D02*
X176401120Y-42865000D01*
X178798880Y-42865000D02*
X178798880Y-44135000D01*
X172300380Y-41650240D02*
X172998880Y-41650240D01*
X171299620Y-41650240D02*
X170601120Y-41650240D01*
X172300380Y-40349760D02*
X172998880Y-40349760D01*
X170601120Y-40349760D02*
X171299620Y-40349760D01*
X172998880Y-40365000D02*
X172998880Y-41635000D01*
X170601120Y-41635000D02*
X170601120Y-40365000D01*
X177599760Y-46950380D02*
X177599760Y-47648880D01*
X177599760Y-45949620D02*
X177599760Y-45251120D01*
X178900240Y-46950380D02*
X178900240Y-47648880D01*
X178900240Y-45251120D02*
X178900240Y-45949620D01*
X178885000Y-47648880D02*
X177615000Y-47648880D01*
X177615000Y-45251120D02*
X178885000Y-45251120D01*
X168300380Y-52450240D02*
X168998880Y-52450240D01*
X167299620Y-52450240D02*
X166601120Y-52450240D01*
X168300380Y-51149760D02*
X168998880Y-51149760D01*
X166601120Y-51149760D02*
X167299620Y-51149760D01*
X168998880Y-51165000D02*
X168998880Y-52435000D01*
X166601120Y-52435000D02*
X166601120Y-51165000D01*
X173999620Y-51049760D02*
X173301120Y-51049760D01*
X175000380Y-51049760D02*
X175698880Y-51049760D01*
X173999620Y-52350240D02*
X173301120Y-52350240D01*
X175698880Y-52350240D02*
X175000380Y-52350240D01*
X173301120Y-52335000D02*
X173301120Y-51065000D01*
X175698880Y-51065000D02*
X175698880Y-52335000D01*
X137649760Y-44900380D02*
X137649760Y-45598880D01*
X137649760Y-43899620D02*
X137649760Y-43201120D01*
X138950240Y-44900380D02*
X138950240Y-45598880D01*
X138950240Y-43201120D02*
X138950240Y-43899620D01*
X138935000Y-45598880D02*
X137665000Y-45598880D01*
X137665000Y-43201120D02*
X138935000Y-43201120D01*
X140950240Y-43899620D02*
X140950240Y-43201120D01*
X140950240Y-44900380D02*
X140950240Y-45598880D01*
X139649760Y-43899620D02*
X139649760Y-43201120D01*
X139649760Y-45598880D02*
X139649760Y-44900380D01*
X139665000Y-43201120D02*
X140935000Y-43201120D01*
X140935000Y-45598880D02*
X139665000Y-45598880D01*
X146150240Y-48099620D02*
X146150240Y-47401120D01*
X146150240Y-49100380D02*
X146150240Y-49798880D01*
X144849760Y-48099620D02*
X144849760Y-47401120D01*
X144849760Y-49798880D02*
X144849760Y-49100380D01*
X144865000Y-47401120D02*
X146135000Y-47401120D01*
X146135000Y-49798880D02*
X144865000Y-49798880D01*
X117099620Y-40749760D02*
X116401120Y-40749760D01*
X118100380Y-40749760D02*
X118798880Y-40749760D01*
X117099620Y-42050240D02*
X116401120Y-42050240D01*
X118798880Y-42050240D02*
X118100380Y-42050240D01*
X116401120Y-42035000D02*
X116401120Y-40765000D01*
X118798880Y-40765000D02*
X118798880Y-42035000D01*
X139600380Y-57450240D02*
X140298880Y-57450240D01*
X138599620Y-57450240D02*
X137901120Y-57450240D01*
X139600380Y-56149760D02*
X140298880Y-56149760D01*
X137901120Y-56149760D02*
X138599620Y-56149760D01*
X140298880Y-56165000D02*
X140298880Y-57435000D01*
X137901120Y-57435000D02*
X137901120Y-56165000D01*
D14*
X115760000Y-37857000D02*
X115506000Y-37857000D01*
X115506000Y-37857000D02*
X115506000Y-40143000D01*
X115506000Y-40143000D02*
X115760000Y-40143000D01*
X115760000Y-37857000D02*
X115760000Y-40143000D01*
X115760000Y-40143000D02*
X117411000Y-40143000D01*
X119189000Y-37857000D02*
X120840000Y-37857000D01*
X120840000Y-37857000D02*
X120840000Y-40143000D01*
X120840000Y-40143000D02*
X119189000Y-40143000D01*
X117411000Y-37857000D02*
X115760000Y-37857000D01*
X140740000Y-60443000D02*
X140994000Y-60443000D01*
X140994000Y-60443000D02*
X140994000Y-58157000D01*
X140994000Y-58157000D02*
X140740000Y-58157000D01*
X140740000Y-60443000D02*
X140740000Y-58157000D01*
X140740000Y-58157000D02*
X139089000Y-58157000D01*
X137311000Y-60443000D02*
X135660000Y-60443000D01*
X135660000Y-60443000D02*
X135660000Y-58157000D01*
X135660000Y-58157000D02*
X137311000Y-58157000D01*
X139089000Y-60443000D02*
X140740000Y-60443000D01*
D13*
X136999620Y-50849760D02*
X136301120Y-50849760D01*
X138000380Y-50849760D02*
X138698880Y-50849760D01*
X136999620Y-52150240D02*
X136301120Y-52150240D01*
X138698880Y-52150240D02*
X138000380Y-52150240D01*
X136301120Y-52135000D02*
X136301120Y-50865000D01*
X138698880Y-50865000D02*
X138698880Y-52135000D01*
X138000380Y-47450240D02*
X138698880Y-47450240D01*
X136999620Y-47450240D02*
X136301120Y-47450240D01*
X138000380Y-46149760D02*
X138698880Y-46149760D01*
X136301120Y-46149760D02*
X136999620Y-46149760D01*
X138698880Y-46165000D02*
X138698880Y-47435000D01*
X136301120Y-47435000D02*
X136301120Y-46165000D01*
D12*
X132000760Y-64699000D02*
X131599440Y-64899660D01*
X131599440Y-64899660D02*
X131000000Y-65001260D01*
X131000000Y-65001260D02*
X130499620Y-64899660D01*
X130499620Y-64899660D02*
X129801120Y-64500880D01*
X129801120Y-64500880D02*
X129399800Y-63898900D01*
X129399800Y-63898900D02*
X129199140Y-63299460D01*
X129199140Y-63299460D02*
X129199140Y-56700540D01*
X129199140Y-56700540D02*
X129399800Y-55999500D01*
X129399800Y-55999500D02*
X129699520Y-55600720D01*
X129699520Y-55600720D02*
X130199900Y-55199400D01*
X130199900Y-55199400D02*
X130799340Y-54998740D01*
X130799340Y-54998740D02*
X131299720Y-54998740D01*
X131299720Y-54998740D02*
X131800100Y-55199400D01*
X131800100Y-55199400D02*
X132399540Y-55699780D01*
X132399540Y-55699780D02*
X132699260Y-56200160D01*
X132699260Y-56200160D02*
X132800860Y-56700540D01*
X132800860Y-56799600D02*
X132800860Y-63401060D01*
X132800860Y-63401060D02*
X132699260Y-63799840D01*
X132699260Y-63799840D02*
X132399540Y-64300220D01*
X132399540Y-64300220D02*
X131899160Y-64800600D01*
X133329180Y-56809760D02*
X133280920Y-56350020D01*
X133280920Y-56350020D02*
X133169160Y-55951240D01*
X133169160Y-55951240D02*
X132950720Y-55519440D01*
X132950720Y-55519440D02*
X132719580Y-55229880D01*
X132719580Y-55229880D02*
X132369060Y-54899680D01*
X132369060Y-54899680D02*
X131830580Y-54610120D01*
X131830580Y-54610120D02*
X131231140Y-54480580D01*
X131231140Y-54480580D02*
X130720600Y-54480580D01*
X130720600Y-54480580D02*
X130019560Y-54650760D01*
X130019560Y-54650760D02*
X129430280Y-55049540D01*
X129430280Y-55049540D02*
X129059440Y-55509280D01*
X129059440Y-55509280D02*
X128851160Y-55930920D01*
X128851160Y-55930920D02*
X128691140Y-56380500D01*
X128691140Y-56380500D02*
X128660660Y-56819920D01*
X128879100Y-64160520D02*
X129100080Y-64538980D01*
X129100080Y-64538980D02*
X129379480Y-64859020D01*
X129379480Y-64859020D02*
X129709680Y-65110480D01*
X129709680Y-65110480D02*
X130260860Y-65410200D01*
X130260860Y-65410200D02*
X130730760Y-65519420D01*
X130730760Y-65519420D02*
X131190500Y-65539740D01*
X131190500Y-65539740D02*
X131650240Y-65450840D01*
X131650240Y-65450840D02*
X132099820Y-65260340D01*
X132099820Y-65260340D02*
X132569720Y-64899660D01*
X132569720Y-64899660D02*
X132889760Y-64549140D01*
X132889760Y-64549140D02*
X133120900Y-64160520D01*
X133120900Y-64160520D02*
X133260600Y-63731260D01*
X133260600Y-63731260D02*
X133329180Y-63289300D01*
X128670820Y-56799600D02*
X128670820Y-63251200D01*
X128670820Y-63251200D02*
X128708920Y-63670300D01*
X128708920Y-63670300D02*
X128879100Y-64160520D01*
X133329180Y-56799600D02*
X133329180Y-63251200D01*
D14*
X136999620Y-48701500D02*
X136293500Y-48701500D01*
X136293500Y-48701500D02*
X136293500Y-50098500D01*
X136293500Y-50098500D02*
X136999620Y-50098500D01*
X138706500Y-48701500D02*
X138000380Y-48701500D01*
X138706500Y-48701500D02*
X138706500Y-50098500D01*
X138706500Y-50098500D02*
X138000380Y-50098500D01*
X136999620Y-90701500D02*
X136293500Y-90701500D01*
X136293500Y-90701500D02*
X136293500Y-92098500D01*
X136293500Y-92098500D02*
X136999620Y-92098500D01*
X138706500Y-90701500D02*
X138000380Y-90701500D01*
X138706500Y-90701500D02*
X138706500Y-92098500D01*
X138706500Y-92098500D02*
X138000380Y-92098500D01*
D12*
X132000760Y-106699000D02*
X131599440Y-106899660D01*
X131599440Y-106899660D02*
X131000000Y-107001260D01*
X131000000Y-107001260D02*
X130499620Y-106899660D01*
X130499620Y-106899660D02*
X129801120Y-106500880D01*
X129801120Y-106500880D02*
X129399800Y-105898900D01*
X129399800Y-105898900D02*
X129199140Y-105299460D01*
X129199140Y-105299460D02*
X129199140Y-98700540D01*
X129199140Y-98700540D02*
X129399800Y-97999500D01*
X129399800Y-97999500D02*
X129699520Y-97600720D01*
X129699520Y-97600720D02*
X130199900Y-97199400D01*
X130199900Y-97199400D02*
X130799340Y-96998740D01*
X130799340Y-96998740D02*
X131299720Y-96998740D01*
X131299720Y-96998740D02*
X131800100Y-97199400D01*
X131800100Y-97199400D02*
X132399540Y-97699780D01*
X132399540Y-97699780D02*
X132699260Y-98200160D01*
X132699260Y-98200160D02*
X132800860Y-98700540D01*
X132800860Y-98799600D02*
X132800860Y-105401060D01*
X132800860Y-105401060D02*
X132699260Y-105799840D01*
X132699260Y-105799840D02*
X132399540Y-106300220D01*
X132399540Y-106300220D02*
X131899160Y-106800600D01*
X133329180Y-98809760D02*
X133280920Y-98350020D01*
X133280920Y-98350020D02*
X133169160Y-97951240D01*
X133169160Y-97951240D02*
X132950720Y-97519440D01*
X132950720Y-97519440D02*
X132719580Y-97229880D01*
X132719580Y-97229880D02*
X132369060Y-96899680D01*
X132369060Y-96899680D02*
X131830580Y-96610120D01*
X131830580Y-96610120D02*
X131231140Y-96480580D01*
X131231140Y-96480580D02*
X130720600Y-96480580D01*
X130720600Y-96480580D02*
X130019560Y-96650760D01*
X130019560Y-96650760D02*
X129430280Y-97049540D01*
X129430280Y-97049540D02*
X129059440Y-97509280D01*
X129059440Y-97509280D02*
X128851160Y-97930920D01*
X128851160Y-97930920D02*
X128691140Y-98380500D01*
X128691140Y-98380500D02*
X128660660Y-98819920D01*
X128879100Y-106160520D02*
X129100080Y-106538980D01*
X129100080Y-106538980D02*
X129379480Y-106859020D01*
X129379480Y-106859020D02*
X129709680Y-107110480D01*
X129709680Y-107110480D02*
X130260860Y-107410200D01*
X130260860Y-107410200D02*
X130730760Y-107519420D01*
X130730760Y-107519420D02*
X131190500Y-107539740D01*
X131190500Y-107539740D02*
X131650240Y-107450840D01*
X131650240Y-107450840D02*
X132099820Y-107260340D01*
X132099820Y-107260340D02*
X132569720Y-106899660D01*
X132569720Y-106899660D02*
X132889760Y-106549140D01*
X132889760Y-106549140D02*
X133120900Y-106160520D01*
X133120900Y-106160520D02*
X133260600Y-105731260D01*
X133260600Y-105731260D02*
X133329180Y-105289300D01*
X128670820Y-98799600D02*
X128670820Y-105251200D01*
X128670820Y-105251200D02*
X128708920Y-105670300D01*
X128708920Y-105670300D02*
X128879100Y-106160520D01*
X133329180Y-98799600D02*
X133329180Y-105251200D01*
D13*
X138000380Y-89450240D02*
X138698880Y-89450240D01*
X136999620Y-89450240D02*
X136301120Y-89450240D01*
X138000380Y-88149760D02*
X138698880Y-88149760D01*
X136301120Y-88149760D02*
X136999620Y-88149760D01*
X138698880Y-88165000D02*
X138698880Y-89435000D01*
X136301120Y-89435000D02*
X136301120Y-88165000D01*
X136999620Y-92849760D02*
X136301120Y-92849760D01*
X138000380Y-92849760D02*
X138698880Y-92849760D01*
X136999620Y-94150240D02*
X136301120Y-94150240D01*
X138698880Y-94150240D02*
X138000380Y-94150240D01*
X136301120Y-94135000D02*
X136301120Y-92865000D01*
X138698880Y-92865000D02*
X138698880Y-94135000D01*
D14*
X140740000Y-102443000D02*
X140994000Y-102443000D01*
X140994000Y-102443000D02*
X140994000Y-100157000D01*
X140994000Y-100157000D02*
X140740000Y-100157000D01*
X140740000Y-102443000D02*
X140740000Y-100157000D01*
X140740000Y-100157000D02*
X139089000Y-100157000D01*
X137311000Y-102443000D02*
X135660000Y-102443000D01*
X135660000Y-102443000D02*
X135660000Y-100157000D01*
X135660000Y-100157000D02*
X137311000Y-100157000D01*
X139089000Y-102443000D02*
X140740000Y-102443000D01*
X115760000Y-79857000D02*
X115506000Y-79857000D01*
X115506000Y-79857000D02*
X115506000Y-82143000D01*
X115506000Y-82143000D02*
X115760000Y-82143000D01*
X115760000Y-79857000D02*
X115760000Y-82143000D01*
X115760000Y-82143000D02*
X117411000Y-82143000D01*
X119189000Y-79857000D02*
X120840000Y-79857000D01*
X120840000Y-79857000D02*
X120840000Y-82143000D01*
X120840000Y-82143000D02*
X119189000Y-82143000D01*
X117411000Y-79857000D02*
X115760000Y-79857000D01*
D13*
X139600380Y-99450240D02*
X140298880Y-99450240D01*
X138599620Y-99450240D02*
X137901120Y-99450240D01*
X139600380Y-98149760D02*
X140298880Y-98149760D01*
X137901120Y-98149760D02*
X138599620Y-98149760D01*
X140298880Y-98165000D02*
X140298880Y-99435000D01*
X137901120Y-99435000D02*
X137901120Y-98165000D01*
X117099620Y-82749760D02*
X116401120Y-82749760D01*
X118100380Y-82749760D02*
X118798880Y-82749760D01*
X117099620Y-84050240D02*
X116401120Y-84050240D01*
X118798880Y-84050240D02*
X118100380Y-84050240D01*
X116401120Y-84035000D02*
X116401120Y-82765000D01*
X118798880Y-82765000D02*
X118798880Y-84035000D01*
X146150240Y-90099620D02*
X146150240Y-89401120D01*
X146150240Y-91100380D02*
X146150240Y-91798880D01*
X144849760Y-90099620D02*
X144849760Y-89401120D01*
X144849760Y-91798880D02*
X144849760Y-91100380D01*
X144865000Y-89401120D02*
X146135000Y-89401120D01*
X146135000Y-91798880D02*
X144865000Y-91798880D01*
X140950240Y-85899620D02*
X140950240Y-85201120D01*
X140950240Y-86900380D02*
X140950240Y-87598880D01*
X139649760Y-85899620D02*
X139649760Y-85201120D01*
X139649760Y-87598880D02*
X139649760Y-86900380D01*
X139665000Y-85201120D02*
X140935000Y-85201120D01*
X140935000Y-87598880D02*
X139665000Y-87598880D01*
X137649760Y-86900380D02*
X137649760Y-87598880D01*
X137649760Y-85899620D02*
X137649760Y-85201120D01*
X138950240Y-86900380D02*
X138950240Y-87598880D01*
X138950240Y-85201120D02*
X138950240Y-85899620D01*
X138935000Y-87598880D02*
X137665000Y-87598880D01*
X137665000Y-85201120D02*
X138935000Y-85201120D01*
X173999620Y-93049760D02*
X173301120Y-93049760D01*
X175000380Y-93049760D02*
X175698880Y-93049760D01*
X173999620Y-94350240D02*
X173301120Y-94350240D01*
X175698880Y-94350240D02*
X175000380Y-94350240D01*
X173301120Y-94335000D02*
X173301120Y-93065000D01*
X175698880Y-93065000D02*
X175698880Y-94335000D01*
X168300380Y-94450240D02*
X168998880Y-94450240D01*
X167299620Y-94450240D02*
X166601120Y-94450240D01*
X168300380Y-93149760D02*
X168998880Y-93149760D01*
X166601120Y-93149760D02*
X167299620Y-93149760D01*
X168998880Y-93165000D02*
X168998880Y-94435000D01*
X166601120Y-94435000D02*
X166601120Y-93165000D01*
X177599760Y-88950380D02*
X177599760Y-89648880D01*
X177599760Y-87949620D02*
X177599760Y-87251120D01*
X178900240Y-88950380D02*
X178900240Y-89648880D01*
X178900240Y-87251120D02*
X178900240Y-87949620D01*
X178885000Y-89648880D02*
X177615000Y-89648880D01*
X177615000Y-87251120D02*
X178885000Y-87251120D01*
X172300380Y-83650240D02*
X172998880Y-83650240D01*
X171299620Y-83650240D02*
X170601120Y-83650240D01*
X172300380Y-82349760D02*
X172998880Y-82349760D01*
X170601120Y-82349760D02*
X171299620Y-82349760D01*
X172998880Y-82365000D02*
X172998880Y-83635000D01*
X170601120Y-83635000D02*
X170601120Y-82365000D01*
X177099620Y-84849760D02*
X176401120Y-84849760D01*
X178100380Y-84849760D02*
X178798880Y-84849760D01*
X177099620Y-86150240D02*
X176401120Y-86150240D01*
X178798880Y-86150240D02*
X178100380Y-86150240D01*
X176401120Y-86135000D02*
X176401120Y-84865000D01*
X178798880Y-84865000D02*
X178798880Y-86135000D01*
D12*
X128660000Y-93760000D02*
X132260000Y-93760000D01*
X128660000Y-91660000D02*
X132260000Y-91660000D01*
X130710000Y-92410000D02*
X130710000Y-93010000D01*
X130710000Y-93010000D02*
X130410000Y-92710000D01*
X130410000Y-92710000D02*
X130610000Y-92510000D01*
X130610000Y-92510000D02*
X130610000Y-92760000D01*
X130610000Y-92760000D02*
X130560000Y-92710000D01*
X130310000Y-92210000D02*
X130310000Y-93210000D01*
X130810000Y-92710000D02*
X131310000Y-92710000D01*
X130310000Y-92710000D02*
X130810000Y-92210000D01*
X130810000Y-92210000D02*
X130810000Y-93210000D01*
X130810000Y-93210000D02*
X130310000Y-92710000D01*
X128660000Y-88680000D02*
X132260000Y-88680000D01*
X128660000Y-86580000D02*
X132260000Y-86580000D01*
X130710000Y-87330000D02*
X130710000Y-87930000D01*
X130710000Y-87930000D02*
X130410000Y-87630000D01*
X130410000Y-87630000D02*
X130610000Y-87430000D01*
X130610000Y-87430000D02*
X130610000Y-87680000D01*
X130610000Y-87680000D02*
X130560000Y-87630000D01*
X130310000Y-87130000D02*
X130310000Y-88130000D01*
X130810000Y-87630000D02*
X131310000Y-87630000D01*
X130310000Y-87630000D02*
X130810000Y-87130000D01*
X130810000Y-87130000D02*
X130810000Y-88130000D01*
X130810000Y-88130000D02*
X130310000Y-87630000D01*
X176530000Y-74930000D02*
X115570000Y-74930000D01*
X115570000Y-74930000D02*
X115570000Y-77470000D01*
X115570000Y-77470000D02*
X176530000Y-77470000D01*
X179350000Y-77750000D02*
X177800000Y-77750000D01*
X176530000Y-77470000D02*
X176530000Y-74930000D01*
X177800000Y-74650000D02*
X179350000Y-74650000D01*
X179350000Y-74650000D02*
X179350000Y-77750000D01*
X176530000Y-113030000D02*
X115570000Y-113030000D01*
X115570000Y-113030000D02*
X115570000Y-115570000D01*
X115570000Y-115570000D02*
X176530000Y-115570000D01*
X179350000Y-115850000D02*
X177800000Y-115850000D01*
X176530000Y-115570000D02*
X176530000Y-113030000D01*
X177800000Y-112750000D02*
X179350000Y-112750000D01*
X179350000Y-112750000D02*
X179350000Y-115850000D01*
X139200000Y-97275000D02*
X138000000Y-97275000D01*
X138000000Y-95525000D02*
X139200000Y-95525000D01*
D14*
X126230380Y-93408500D02*
X126936500Y-93408500D01*
X126936500Y-93408500D02*
X126936500Y-92011500D01*
X126936500Y-92011500D02*
X126230380Y-92011500D01*
X124523500Y-93408500D02*
X125229620Y-93408500D01*
X124523500Y-93408500D02*
X124523500Y-92011500D01*
X124523500Y-92011500D02*
X125229620Y-92011500D01*
X123888500Y-101099620D02*
X123888500Y-100393500D01*
X123888500Y-100393500D02*
X122491500Y-100393500D01*
X122491500Y-100393500D02*
X122491500Y-101099620D01*
X123888500Y-102806500D02*
X123888500Y-102100380D01*
X123888500Y-102806500D02*
X122491500Y-102806500D01*
X122491500Y-102806500D02*
X122491500Y-102100380D01*
X134999620Y-85701500D02*
X134293500Y-85701500D01*
X134293500Y-85701500D02*
X134293500Y-87098500D01*
X134293500Y-87098500D02*
X134999620Y-87098500D01*
X136706500Y-85701500D02*
X136000380Y-85701500D01*
X136706500Y-85701500D02*
X136706500Y-87098500D01*
X136706500Y-87098500D02*
X136000380Y-87098500D01*
X125229620Y-86931500D02*
X124523500Y-86931500D01*
X124523500Y-86931500D02*
X124523500Y-88328500D01*
X124523500Y-88328500D02*
X125229620Y-88328500D01*
X126936500Y-86931500D02*
X126230380Y-86931500D01*
X126936500Y-86931500D02*
X126936500Y-88328500D01*
X126936500Y-88328500D02*
X126230380Y-88328500D01*
D12*
X121430000Y-105420000D02*
G75*
G03X121430000Y-105420000I-2540000J0D01*
G01*
X115890000Y-108420000D02*
X115890000Y-102420000D01*
X115890000Y-102420000D02*
X121890000Y-102420000D01*
X121890000Y-102420000D02*
X121890000Y-108420000D01*
X115890000Y-108420000D02*
X121890000Y-108420000D01*
X148325000Y-91325000D02*
X148325000Y-92400000D01*
X158675000Y-91325000D02*
X158675000Y-92400000D01*
X158675000Y-101675000D02*
X158675000Y-100600000D01*
X148325000Y-101675000D02*
X148325000Y-100600000D01*
X148325000Y-91325000D02*
X149400000Y-91325000D01*
X148325000Y-101675000D02*
X149400000Y-101675000D01*
X158675000Y-101675000D02*
X157600000Y-101675000D01*
X158675000Y-91325000D02*
X157600000Y-91325000D01*
X148325000Y-92400000D02*
X147300000Y-92400000D01*
X144505000Y-88405000D02*
X144505000Y-84595000D01*
X144505000Y-84595000D02*
X152760000Y-84595000D01*
X152760000Y-84595000D02*
X152760000Y-88405000D01*
X152760000Y-88405000D02*
X144505000Y-88405000D01*
X142600000Y-87770000D02*
X144505000Y-87770000D01*
X142600000Y-85230000D02*
X144505000Y-85230000D01*
X179705000Y-106680000D02*
X179705000Y-96520000D01*
X175260000Y-106680000D02*
X175260000Y-96520000D01*
X173355000Y-106680000D02*
X173355000Y-96520000D01*
X173355000Y-106680000D02*
X179705000Y-106680000D01*
X173355000Y-96520000D02*
X179705000Y-96520000D01*
D14*
X117609620Y-95821500D02*
X116903500Y-95821500D01*
X116903500Y-95821500D02*
X116903500Y-97218500D01*
X116903500Y-97218500D02*
X117609620Y-97218500D01*
X119316500Y-95821500D02*
X118610380Y-95821500D01*
X119316500Y-95821500D02*
X119316500Y-97218500D01*
X119316500Y-97218500D02*
X118610380Y-97218500D01*
D12*
X123337000Y-86790000D02*
X123337000Y-94417000D01*
X123337000Y-94417000D02*
X115329000Y-94417000D01*
X115329000Y-94417000D02*
X115329000Y-86790000D01*
X115329000Y-86790000D02*
X123270000Y-86790000D01*
D13*
X151899620Y-108549760D02*
X151201120Y-108549760D01*
X152900380Y-108549760D02*
X153598880Y-108549760D01*
X151899620Y-109850240D02*
X151201120Y-109850240D01*
X153598880Y-109850240D02*
X152900380Y-109850240D01*
X151201120Y-109835000D02*
X151201120Y-108565000D01*
X153598880Y-108565000D02*
X153598880Y-109835000D01*
X160100380Y-90650240D02*
X160798880Y-90650240D01*
X159099620Y-90650240D02*
X158401120Y-90650240D01*
X160100380Y-89349760D02*
X160798880Y-89349760D01*
X158401120Y-89349760D02*
X159099620Y-89349760D01*
X160798880Y-89365000D02*
X160798880Y-90635000D01*
X158401120Y-90635000D02*
X158401120Y-89365000D01*
D12*
X174375000Y-92075000D02*
X174375000Y-91600000D01*
X168825000Y-92075000D02*
X168825000Y-91500000D01*
X168825000Y-85525000D02*
X168825000Y-86100000D01*
X174375000Y-85525000D02*
X174375000Y-86100000D01*
X174375000Y-92075000D02*
X168825000Y-92075000D01*
X174375000Y-85525000D02*
X168825000Y-85525000D01*
X174375000Y-91600000D02*
X175650000Y-91600000D01*
X170038095Y-50552381D02*
X170038095Y-51361905D01*
X170085714Y-51457143D01*
X170133333Y-51504762D01*
X170228571Y-51552381D01*
X170419048Y-51552381D01*
X170514286Y-51504762D01*
X170561905Y-51457143D01*
X170609524Y-51361905D01*
X170609524Y-50552381D01*
X171038095Y-50647619D02*
X171085714Y-50600000D01*
X171180952Y-50552381D01*
X171419048Y-50552381D01*
X171514286Y-50600000D01*
X171561905Y-50647619D01*
X171609524Y-50742857D01*
X171609524Y-50838095D01*
X171561905Y-50980952D01*
X170990476Y-51552381D01*
X171609524Y-51552381D01*
X161957143Y-48642857D02*
X162004762Y-48690476D01*
X162052381Y-48833333D01*
X162052381Y-48928571D01*
X162004762Y-49071429D01*
X161909524Y-49166667D01*
X161814286Y-49214286D01*
X161623810Y-49261905D01*
X161480952Y-49261905D01*
X161290476Y-49214286D01*
X161195238Y-49166667D01*
X161100000Y-49071429D01*
X161052381Y-48928571D01*
X161052381Y-48833333D01*
X161100000Y-48690476D01*
X161147619Y-48642857D01*
X162052381Y-47690476D02*
X162052381Y-48261905D01*
X162052381Y-47976191D02*
X161052381Y-47976191D01*
X161195238Y-48071429D01*
X161290476Y-48166667D01*
X161338095Y-48261905D01*
X161052381Y-46833333D02*
X161052381Y-47023810D01*
X161100000Y-47119048D01*
X161147619Y-47166667D01*
X161290476Y-47261905D01*
X161480952Y-47309524D01*
X161861905Y-47309524D01*
X161957143Y-47261905D01*
X162004762Y-47214286D01*
X162052381Y-47119048D01*
X162052381Y-46928571D01*
X162004762Y-46833333D01*
X161957143Y-46785714D01*
X161861905Y-46738095D01*
X161623810Y-46738095D01*
X161528571Y-46785714D01*
X161480952Y-46833333D01*
X161433333Y-46928571D01*
X161433333Y-47119048D01*
X161480952Y-47214286D01*
X161528571Y-47261905D01*
X161623810Y-47309524D01*
D15*
X157719190Y-48859971D02*
X157695000Y-48838200D01*
X157670810Y-48794657D01*
X157670810Y-48685800D01*
X157695000Y-48642257D01*
X157719190Y-48620486D01*
X157767571Y-48598714D01*
X157815952Y-48598714D01*
X157888524Y-48620486D01*
X158178810Y-48881743D01*
X158178810Y-48598714D01*
X158130429Y-48402771D02*
X158154619Y-48380999D01*
X158178810Y-48402771D01*
X158154619Y-48424542D01*
X158130429Y-48402771D01*
X158178810Y-48402771D01*
X157719190Y-48206828D02*
X157695000Y-48185057D01*
X157670810Y-48141514D01*
X157670810Y-48032657D01*
X157695000Y-47989114D01*
X157719190Y-47967343D01*
X157767571Y-47945571D01*
X157815952Y-47945571D01*
X157888524Y-47967343D01*
X158178810Y-48228600D01*
X158178810Y-47945571D01*
X157840143Y-47553685D02*
X158178810Y-47553685D01*
X157840143Y-47749628D02*
X158106238Y-47749628D01*
X158154619Y-47727856D01*
X158178810Y-47684314D01*
X158178810Y-47618999D01*
X158154619Y-47575456D01*
X158130429Y-47553685D01*
X157912714Y-47183571D02*
X157912714Y-47335971D01*
X158178810Y-47335971D02*
X157670810Y-47335971D01*
X157670810Y-47118257D01*
D12*
X150757143Y-67842857D02*
X150804762Y-67890476D01*
X150852381Y-68033333D01*
X150852381Y-68128571D01*
X150804762Y-68271429D01*
X150709524Y-68366667D01*
X150614286Y-68414286D01*
X150423810Y-68461905D01*
X150280952Y-68461905D01*
X150090476Y-68414286D01*
X149995238Y-68366667D01*
X149900000Y-68271429D01*
X149852381Y-68128571D01*
X149852381Y-68033333D01*
X149900000Y-67890476D01*
X149947619Y-67842857D01*
X150852381Y-66890476D02*
X150852381Y-67461905D01*
X150852381Y-67176191D02*
X149852381Y-67176191D01*
X149995238Y-67271429D01*
X150090476Y-67366667D01*
X150138095Y-67461905D01*
X149852381Y-65985714D02*
X149852381Y-66461905D01*
X150328571Y-66509524D01*
X150280952Y-66461905D01*
X150233333Y-66366667D01*
X150233333Y-66128571D01*
X150280952Y-66033333D01*
X150328571Y-65985714D01*
X150423810Y-65938095D01*
X150661905Y-65938095D01*
X150757143Y-65985714D01*
X150804762Y-66033333D01*
X150852381Y-66128571D01*
X150852381Y-66366667D01*
X150804762Y-66461905D01*
X150757143Y-66509524D01*
D15*
X153821190Y-68059971D02*
X153797000Y-68038200D01*
X153772810Y-67994657D01*
X153772810Y-67885800D01*
X153797000Y-67842257D01*
X153821190Y-67820486D01*
X153869571Y-67798714D01*
X153917952Y-67798714D01*
X153990524Y-67820486D01*
X154280810Y-68081743D01*
X154280810Y-67798714D01*
X154232429Y-67602771D02*
X154256619Y-67580999D01*
X154280810Y-67602771D01*
X154256619Y-67624542D01*
X154232429Y-67602771D01*
X154280810Y-67602771D01*
X153821190Y-67406828D02*
X153797000Y-67385057D01*
X153772810Y-67341514D01*
X153772810Y-67232657D01*
X153797000Y-67189114D01*
X153821190Y-67167343D01*
X153869571Y-67145571D01*
X153917952Y-67145571D01*
X153990524Y-67167343D01*
X154280810Y-67428600D01*
X154280810Y-67145571D01*
X153942143Y-66753685D02*
X154280810Y-66753685D01*
X153942143Y-66949628D02*
X154208238Y-66949628D01*
X154256619Y-66927856D01*
X154280810Y-66884314D01*
X154280810Y-66818999D01*
X154256619Y-66775456D01*
X154232429Y-66753685D01*
X154014714Y-66383571D02*
X154014714Y-66535971D01*
X154280810Y-66535971D02*
X153772810Y-66535971D01*
X153772810Y-66318257D01*
D12*
X118066667Y-48904762D02*
X118209524Y-48952381D01*
X118447620Y-48952381D01*
X118542858Y-48904762D01*
X118590477Y-48857143D01*
X118638096Y-48761905D01*
X118638096Y-48666667D01*
X118590477Y-48571429D01*
X118542858Y-48523810D01*
X118447620Y-48476190D01*
X118257143Y-48428571D01*
X118161905Y-48380952D01*
X118114286Y-48333333D01*
X118066667Y-48238095D01*
X118066667Y-48142857D01*
X118114286Y-48047619D01*
X118161905Y-48000000D01*
X118257143Y-47952381D01*
X118495239Y-47952381D01*
X118638096Y-48000000D01*
X118971429Y-47952381D02*
X119209524Y-48952381D01*
X119400001Y-48238095D01*
X119590477Y-48952381D01*
X119828572Y-47952381D01*
X120161905Y-48047619D02*
X120209524Y-48000000D01*
X120304762Y-47952381D01*
X120542858Y-47952381D01*
X120638096Y-48000000D01*
X120685715Y-48047619D01*
X120733334Y-48142857D01*
X120733334Y-48238095D01*
X120685715Y-48380952D01*
X120114286Y-48952381D01*
X120733334Y-48952381D01*
X121152381Y-54666666D02*
X120676190Y-55000000D01*
X121152381Y-55238095D02*
X120152381Y-55238095D01*
X120152381Y-54857142D01*
X120200000Y-54761904D01*
X120247619Y-54714285D01*
X120342857Y-54666666D01*
X120485714Y-54666666D01*
X120580952Y-54714285D01*
X120628571Y-54761904D01*
X120676190Y-54857142D01*
X120676190Y-55238095D01*
X120152381Y-53761904D02*
X120152381Y-54238095D01*
X120628571Y-54285714D01*
X120580952Y-54238095D01*
X120533333Y-54142857D01*
X120533333Y-53904761D01*
X120580952Y-53809523D01*
X120628571Y-53761904D01*
X120723810Y-53714285D01*
X120961905Y-53714285D01*
X121057143Y-53761904D01*
X121104762Y-53809523D01*
X121152381Y-53904761D01*
X121152381Y-54142857D01*
X121104762Y-54238095D01*
X121057143Y-54285714D01*
D15*
X116180930Y-55096943D02*
X116156740Y-55075172D01*
X116132550Y-55031629D01*
X116132550Y-54922772D01*
X116156740Y-54879229D01*
X116180930Y-54857458D01*
X116229311Y-54835686D01*
X116277692Y-54835686D01*
X116350264Y-54857458D01*
X116640550Y-55118715D01*
X116640550Y-54835686D01*
X116180930Y-54661514D02*
X116156740Y-54639743D01*
X116132550Y-54596200D01*
X116132550Y-54487343D01*
X116156740Y-54443800D01*
X116180930Y-54422029D01*
X116229311Y-54400257D01*
X116277692Y-54400257D01*
X116350264Y-54422029D01*
X116640550Y-54683286D01*
X116640550Y-54400257D01*
X116640550Y-54204314D02*
X116132550Y-54204314D01*
X116640550Y-53943057D02*
X116350264Y-54139000D01*
X116132550Y-53943057D02*
X116422835Y-54204314D01*
D12*
X118536667Y-59052381D02*
X118536667Y-59766667D01*
X118489047Y-59909524D01*
X118393809Y-60004762D01*
X118250952Y-60052381D01*
X118155714Y-60052381D01*
X119441429Y-59385714D02*
X119441429Y-60052381D01*
X119203333Y-59004762D02*
X118965238Y-59719048D01*
X119584286Y-59719048D01*
X123026667Y-56228571D02*
X123169524Y-56276190D01*
X123217143Y-56323810D01*
X123264762Y-56419048D01*
X123264762Y-56561905D01*
X123217143Y-56657143D01*
X123169524Y-56704762D01*
X123074286Y-56752381D01*
X122693333Y-56752381D01*
X122693333Y-55752381D01*
X123026667Y-55752381D01*
X123121905Y-55800000D01*
X123169524Y-55847619D01*
X123217143Y-55942857D01*
X123217143Y-56038095D01*
X123169524Y-56133333D01*
X123121905Y-56180952D01*
X123026667Y-56228571D01*
X122693333Y-56228571D01*
X123883809Y-55752381D02*
X124074286Y-55752381D01*
X124169524Y-55800000D01*
X124264762Y-55895238D01*
X124312381Y-56085714D01*
X124312381Y-56419048D01*
X124264762Y-56609524D01*
X124169524Y-56704762D01*
X124074286Y-56752381D01*
X123883809Y-56752381D01*
X123788571Y-56704762D01*
X123693333Y-56609524D01*
X123645714Y-56419048D01*
X123645714Y-56085714D01*
X123693333Y-55895238D01*
X123788571Y-55800000D01*
X123883809Y-55752381D01*
X124931428Y-55752381D02*
X125121905Y-55752381D01*
X125217143Y-55800000D01*
X125312381Y-55895238D01*
X125360000Y-56085714D01*
X125360000Y-56419048D01*
X125312381Y-56609524D01*
X125217143Y-56704762D01*
X125121905Y-56752381D01*
X124931428Y-56752381D01*
X124836190Y-56704762D01*
X124740952Y-56609524D01*
X124693333Y-56419048D01*
X124693333Y-56085714D01*
X124740952Y-55895238D01*
X124836190Y-55800000D01*
X124931428Y-55752381D01*
X125645714Y-55752381D02*
X126217143Y-55752381D01*
X125931428Y-56752381D02*
X125931428Y-55752381D01*
X127074286Y-56752381D02*
X126502857Y-56752381D01*
X126788571Y-56752381D02*
X126788571Y-55752381D01*
X126693333Y-55895238D01*
X126598095Y-55990476D01*
X126502857Y-56038095D01*
X171982381Y-55933333D02*
X172696667Y-55933333D01*
X172839524Y-55980953D01*
X172934762Y-56076191D01*
X172982381Y-56219048D01*
X172982381Y-56314286D01*
X171982381Y-55552381D02*
X171982381Y-54933333D01*
X172363333Y-55266667D01*
X172363333Y-55123809D01*
X172410952Y-55028571D01*
X172458571Y-54980952D01*
X172553810Y-54933333D01*
X172791905Y-54933333D01*
X172887143Y-54980952D01*
X172934762Y-55028571D01*
X172982381Y-55123809D01*
X172982381Y-55409524D01*
X172934762Y-55504762D01*
X172887143Y-55552381D01*
X148092809Y-45365190D02*
X148092809Y-45841381D01*
X147759476Y-44841381D02*
X148092809Y-45365190D01*
X148426143Y-44841381D01*
X149283286Y-45841381D02*
X148711857Y-45841381D01*
X148997571Y-45841381D02*
X148997571Y-44841381D01*
X148902333Y-44984238D01*
X148807095Y-45079476D01*
X148711857Y-45127095D01*
X152738095Y-46752381D02*
X152738095Y-47561905D01*
X152785714Y-47657143D01*
X152833333Y-47704762D01*
X152928571Y-47752381D01*
X153119048Y-47752381D01*
X153214286Y-47704762D01*
X153261905Y-47657143D01*
X153309524Y-47561905D01*
X153309524Y-46752381D01*
X154309524Y-47752381D02*
X153738095Y-47752381D01*
X154023809Y-47752381D02*
X154023809Y-46752381D01*
X153928571Y-46895238D01*
X153833333Y-46990476D01*
X153738095Y-47038095D01*
X118532762Y-64753333D02*
X118580381Y-64610476D01*
X118580381Y-64372380D01*
X118532762Y-64277142D01*
X118485143Y-64229523D01*
X118389905Y-64181904D01*
X118294667Y-64181904D01*
X118199429Y-64229523D01*
X118151810Y-64277142D01*
X118104190Y-64372380D01*
X118056571Y-64562857D01*
X118008952Y-64658095D01*
X117961333Y-64705714D01*
X117866095Y-64753333D01*
X117770857Y-64753333D01*
X117675619Y-64705714D01*
X117628000Y-64658095D01*
X117580381Y-64562857D01*
X117580381Y-64324761D01*
X117628000Y-64181904D01*
X117580381Y-63848571D02*
X118580381Y-63610476D01*
X117866095Y-63419999D01*
X118580381Y-63229523D01*
X117580381Y-62991428D01*
X118580381Y-62086666D02*
X118580381Y-62658095D01*
X118580381Y-62372381D02*
X117580381Y-62372381D01*
X117723238Y-62467619D01*
X117818476Y-62562857D01*
X117866095Y-62658095D01*
X125633334Y-44152381D02*
X125300000Y-43676190D01*
X125061905Y-44152381D02*
X125061905Y-43152381D01*
X125442858Y-43152381D01*
X125538096Y-43200000D01*
X125585715Y-43247619D01*
X125633334Y-43342857D01*
X125633334Y-43485714D01*
X125585715Y-43580952D01*
X125538096Y-43628571D01*
X125442858Y-43676190D01*
X125061905Y-43676190D01*
X126490477Y-43485714D02*
X126490477Y-44152381D01*
X126252381Y-43104762D02*
X126014286Y-43819048D01*
X126633334Y-43819048D01*
D15*
X123921883Y-45978343D02*
X124260550Y-45978343D01*
X123728359Y-46087200D02*
X124091216Y-46196057D01*
X124091216Y-45913029D01*
X123752550Y-45782400D02*
X123752550Y-45477600D01*
X124260550Y-45673543D01*
X123752550Y-45216342D02*
X123752550Y-45172799D01*
X123776740Y-45129256D01*
X123800930Y-45107485D01*
X123849311Y-45085714D01*
X123946073Y-45063942D01*
X124067026Y-45063942D01*
X124163788Y-45085714D01*
X124212169Y-45107485D01*
X124236359Y-45129256D01*
X124260550Y-45172799D01*
X124260550Y-45216342D01*
X124236359Y-45259885D01*
X124212169Y-45281656D01*
X124163788Y-45303428D01*
X124067026Y-45325199D01*
X123946073Y-45325199D01*
X123849311Y-45303428D01*
X123800930Y-45281656D01*
X123776740Y-45259885D01*
X123752550Y-45216342D01*
D12*
X134733334Y-43252381D02*
X134400000Y-42776190D01*
X134161905Y-43252381D02*
X134161905Y-42252381D01*
X134542858Y-42252381D01*
X134638096Y-42300000D01*
X134685715Y-42347619D01*
X134733334Y-42442857D01*
X134733334Y-42585714D01*
X134685715Y-42680952D01*
X134638096Y-42728571D01*
X134542858Y-42776190D01*
X134161905Y-42776190D01*
X135066667Y-42252381D02*
X135685715Y-42252381D01*
X135352381Y-42633333D01*
X135495239Y-42633333D01*
X135590477Y-42680952D01*
X135638096Y-42728571D01*
X135685715Y-42823810D01*
X135685715Y-43061905D01*
X135638096Y-43157143D01*
X135590477Y-43204762D01*
X135495239Y-43252381D01*
X135209524Y-43252381D01*
X135114286Y-43204762D01*
X135066667Y-43157143D01*
D15*
X133570930Y-44976943D02*
X133546740Y-44955172D01*
X133522550Y-44911629D01*
X133522550Y-44802772D01*
X133546740Y-44759229D01*
X133570930Y-44737458D01*
X133619311Y-44715686D01*
X133667692Y-44715686D01*
X133740264Y-44737458D01*
X134030550Y-44998715D01*
X134030550Y-44715686D01*
X133570930Y-44541514D02*
X133546740Y-44519743D01*
X133522550Y-44476200D01*
X133522550Y-44367343D01*
X133546740Y-44323800D01*
X133570930Y-44302029D01*
X133619311Y-44280257D01*
X133667692Y-44280257D01*
X133740264Y-44302029D01*
X134030550Y-44563286D01*
X134030550Y-44280257D01*
X134030550Y-44084314D02*
X133522550Y-44084314D01*
X134030550Y-43823057D02*
X133740264Y-44019000D01*
X133522550Y-43823057D02*
X133812835Y-44084314D01*
D12*
X123133334Y-62852381D02*
X122800000Y-62376190D01*
X122561905Y-62852381D02*
X122561905Y-61852381D01*
X122942858Y-61852381D01*
X123038096Y-61900000D01*
X123085715Y-61947619D01*
X123133334Y-62042857D01*
X123133334Y-62185714D01*
X123085715Y-62280952D01*
X123038096Y-62328571D01*
X122942858Y-62376190D01*
X122561905Y-62376190D01*
X123514286Y-61947619D02*
X123561905Y-61900000D01*
X123657143Y-61852381D01*
X123895239Y-61852381D01*
X123990477Y-61900000D01*
X124038096Y-61947619D01*
X124085715Y-62042857D01*
X124085715Y-62138095D01*
X124038096Y-62280952D01*
X123466667Y-62852381D01*
X124085715Y-62852381D01*
D15*
X122613057Y-57670930D02*
X122634828Y-57646740D01*
X122678371Y-57622550D01*
X122787228Y-57622550D01*
X122830771Y-57646740D01*
X122852542Y-57670930D01*
X122874314Y-57719311D01*
X122874314Y-57767692D01*
X122852542Y-57840264D01*
X122591285Y-58130550D01*
X122874314Y-58130550D01*
X123048486Y-57670930D02*
X123070257Y-57646740D01*
X123113800Y-57622550D01*
X123222657Y-57622550D01*
X123266200Y-57646740D01*
X123287971Y-57670930D01*
X123309743Y-57719311D01*
X123309743Y-57767692D01*
X123287971Y-57840264D01*
X123026714Y-58130550D01*
X123309743Y-58130550D01*
X123505686Y-58130550D02*
X123505686Y-57622550D01*
X123766943Y-58130550D02*
X123571000Y-57840264D01*
X123766943Y-57622550D02*
X123505686Y-57912835D01*
D12*
X125833334Y-49252381D02*
X125500000Y-48776190D01*
X125261905Y-49252381D02*
X125261905Y-48252381D01*
X125642858Y-48252381D01*
X125738096Y-48300000D01*
X125785715Y-48347619D01*
X125833334Y-48442857D01*
X125833334Y-48585714D01*
X125785715Y-48680952D01*
X125738096Y-48728571D01*
X125642858Y-48776190D01*
X125261905Y-48776190D01*
X126785715Y-49252381D02*
X126214286Y-49252381D01*
X126500000Y-49252381D02*
X126500000Y-48252381D01*
X126404762Y-48395238D01*
X126309524Y-48490476D01*
X126214286Y-48538095D01*
D15*
X127320403Y-51058343D02*
X127659070Y-51058343D01*
X127126879Y-51167200D02*
X127489736Y-51276057D01*
X127489736Y-50993029D01*
X127151070Y-50862400D02*
X127151070Y-50557600D01*
X127659070Y-50753543D01*
X127151070Y-50296342D02*
X127151070Y-50252799D01*
X127175260Y-50209256D01*
X127199450Y-50187485D01*
X127247831Y-50165714D01*
X127344593Y-50143942D01*
X127465546Y-50143942D01*
X127562308Y-50165714D01*
X127610689Y-50187485D01*
X127634879Y-50209256D01*
X127659070Y-50252799D01*
X127659070Y-50296342D01*
X127634879Y-50339885D01*
X127610689Y-50361656D01*
X127562308Y-50383428D01*
X127465546Y-50405199D01*
X127344593Y-50405199D01*
X127247831Y-50383428D01*
X127199450Y-50361656D01*
X127175260Y-50339885D01*
X127151070Y-50296342D01*
D12*
X142133334Y-54652381D02*
X141657143Y-54652381D01*
X141657143Y-53652381D01*
X142990477Y-54652381D02*
X142419048Y-54652381D01*
X142704762Y-54652381D02*
X142704762Y-53652381D01*
X142609524Y-53795238D01*
X142514286Y-53890476D01*
X142419048Y-53938095D01*
X177466667Y-69352381D02*
X177466667Y-70066667D01*
X177419047Y-70209524D01*
X177323809Y-70304762D01*
X177180952Y-70352381D01*
X177085714Y-70352381D01*
X177895238Y-69447619D02*
X177942857Y-69400000D01*
X178038095Y-69352381D01*
X178276191Y-69352381D01*
X178371429Y-69400000D01*
X178419048Y-69447619D01*
X178466667Y-69542857D01*
X178466667Y-69638095D01*
X178419048Y-69780952D01*
X177847619Y-70352381D01*
X178466667Y-70352381D01*
X177266667Y-36252381D02*
X177266667Y-36966667D01*
X177219047Y-37109524D01*
X177123809Y-37204762D01*
X176980952Y-37252381D01*
X176885714Y-37252381D01*
X178266667Y-37252381D02*
X177695238Y-37252381D01*
X177980952Y-37252381D02*
X177980952Y-36252381D01*
X177885714Y-36395238D01*
X177790476Y-36490476D01*
X177695238Y-36538095D01*
X130071905Y-44082381D02*
X130071905Y-43082381D01*
X130310000Y-43082381D01*
X130452858Y-43130000D01*
X130548096Y-43225238D01*
X130595715Y-43320476D01*
X130643334Y-43510952D01*
X130643334Y-43653810D01*
X130595715Y-43844286D01*
X130548096Y-43939524D01*
X130452858Y-44034762D01*
X130310000Y-44082381D01*
X130071905Y-44082381D01*
X131024286Y-43177619D02*
X131071905Y-43130000D01*
X131167143Y-43082381D01*
X131405239Y-43082381D01*
X131500477Y-43130000D01*
X131548096Y-43177619D01*
X131595715Y-43272857D01*
X131595715Y-43368095D01*
X131548096Y-43510952D01*
X130976667Y-44082381D01*
X131595715Y-44082381D01*
X130071905Y-49162381D02*
X130071905Y-48162381D01*
X130310000Y-48162381D01*
X130452858Y-48210000D01*
X130548096Y-48305238D01*
X130595715Y-48400476D01*
X130643334Y-48590952D01*
X130643334Y-48733810D01*
X130595715Y-48924286D01*
X130548096Y-49019524D01*
X130452858Y-49114762D01*
X130310000Y-49162381D01*
X130071905Y-49162381D01*
X131595715Y-49162381D02*
X131024286Y-49162381D01*
X131310000Y-49162381D02*
X131310000Y-48162381D01*
X131214762Y-48305238D01*
X131119524Y-48400476D01*
X131024286Y-48448095D01*
X177057143Y-41857143D02*
X177009524Y-41904762D01*
X176866667Y-41952381D01*
X176771429Y-41952381D01*
X176628571Y-41904762D01*
X176533333Y-41809524D01*
X176485714Y-41714286D01*
X176438095Y-41523810D01*
X176438095Y-41380952D01*
X176485714Y-41190476D01*
X176533333Y-41095238D01*
X176628571Y-41000000D01*
X176771429Y-40952381D01*
X176866667Y-40952381D01*
X177009524Y-41000000D01*
X177057143Y-41047619D01*
X178009524Y-41952381D02*
X177438095Y-41952381D01*
X177723809Y-41952381D02*
X177723809Y-40952381D01*
X177628571Y-41095238D01*
X177533333Y-41190476D01*
X177438095Y-41238095D01*
X178866667Y-41285714D02*
X178866667Y-41952381D01*
X178628571Y-40904762D02*
X178390476Y-41619048D01*
X179009524Y-41619048D01*
D15*
X179480810Y-44207572D02*
X179480810Y-44468829D01*
X179480810Y-44338201D02*
X178972810Y-44338201D01*
X179045381Y-44381744D01*
X179093762Y-44425286D01*
X179117952Y-44468829D01*
X178972810Y-43924543D02*
X178972810Y-43881000D01*
X178997000Y-43837457D01*
X179021190Y-43815686D01*
X179069571Y-43793915D01*
X179166333Y-43772143D01*
X179287286Y-43772143D01*
X179384048Y-43793915D01*
X179432429Y-43815686D01*
X179456619Y-43837457D01*
X179480810Y-43881000D01*
X179480810Y-43924543D01*
X179456619Y-43968086D01*
X179432429Y-43989857D01*
X179384048Y-44011629D01*
X179287286Y-44033400D01*
X179166333Y-44033400D01*
X179069571Y-44011629D01*
X179021190Y-43989857D01*
X178997000Y-43968086D01*
X178972810Y-43924543D01*
X178972810Y-43489114D02*
X178972810Y-43445571D01*
X178997000Y-43402028D01*
X179021190Y-43380257D01*
X179069571Y-43358486D01*
X179166333Y-43336714D01*
X179287286Y-43336714D01*
X179384048Y-43358486D01*
X179432429Y-43380257D01*
X179456619Y-43402028D01*
X179480810Y-43445571D01*
X179480810Y-43489114D01*
X179456619Y-43532657D01*
X179432429Y-43554428D01*
X179384048Y-43576200D01*
X179287286Y-43597971D01*
X179166333Y-43597971D01*
X179069571Y-43576200D01*
X179021190Y-43554428D01*
X178997000Y-43532657D01*
X178972810Y-43489114D01*
X179142143Y-43140771D02*
X179480810Y-43140771D01*
X179190524Y-43140771D02*
X179166333Y-43118999D01*
X179142143Y-43075457D01*
X179142143Y-43010142D01*
X179166333Y-42966599D01*
X179214714Y-42944828D01*
X179480810Y-42944828D01*
X179214714Y-42574714D02*
X179214714Y-42727114D01*
X179480810Y-42727114D02*
X178972810Y-42727114D01*
X178972810Y-42509400D01*
D12*
X171417143Y-39297143D02*
X171369524Y-39344762D01*
X171226667Y-39392381D01*
X171131429Y-39392381D01*
X170988571Y-39344762D01*
X170893333Y-39249524D01*
X170845714Y-39154286D01*
X170798095Y-38963810D01*
X170798095Y-38820952D01*
X170845714Y-38630476D01*
X170893333Y-38535238D01*
X170988571Y-38440000D01*
X171131429Y-38392381D01*
X171226667Y-38392381D01*
X171369524Y-38440000D01*
X171417143Y-38487619D01*
X172369524Y-39392381D02*
X171798095Y-39392381D01*
X172083809Y-39392381D02*
X172083809Y-38392381D01*
X171988571Y-38535238D01*
X171893333Y-38630476D01*
X171798095Y-38678095D01*
X172702857Y-38392381D02*
X173321905Y-38392381D01*
X172988571Y-38773333D01*
X173131429Y-38773333D01*
X173226667Y-38820952D01*
X173274286Y-38868571D01*
X173321905Y-38963810D01*
X173321905Y-39201905D01*
X173274286Y-39297143D01*
X173226667Y-39344762D01*
X173131429Y-39392381D01*
X172845714Y-39392381D01*
X172750476Y-39344762D01*
X172702857Y-39297143D01*
D15*
X170378810Y-41707572D02*
X170378810Y-41968829D01*
X170378810Y-41838201D02*
X169870810Y-41838201D01*
X169943381Y-41881744D01*
X169991762Y-41925286D01*
X170015952Y-41968829D01*
X169870810Y-41424543D02*
X169870810Y-41381000D01*
X169895000Y-41337457D01*
X169919190Y-41315686D01*
X169967571Y-41293915D01*
X170064333Y-41272143D01*
X170185286Y-41272143D01*
X170282048Y-41293915D01*
X170330429Y-41315686D01*
X170354619Y-41337457D01*
X170378810Y-41381000D01*
X170378810Y-41424543D01*
X170354619Y-41468086D01*
X170330429Y-41489857D01*
X170282048Y-41511629D01*
X170185286Y-41533400D01*
X170064333Y-41533400D01*
X169967571Y-41511629D01*
X169919190Y-41489857D01*
X169895000Y-41468086D01*
X169870810Y-41424543D01*
X169870810Y-40989114D02*
X169870810Y-40945571D01*
X169895000Y-40902028D01*
X169919190Y-40880257D01*
X169967571Y-40858486D01*
X170064333Y-40836714D01*
X170185286Y-40836714D01*
X170282048Y-40858486D01*
X170330429Y-40880257D01*
X170354619Y-40902028D01*
X170378810Y-40945571D01*
X170378810Y-40989114D01*
X170354619Y-41032657D01*
X170330429Y-41054428D01*
X170282048Y-41076200D01*
X170185286Y-41097971D01*
X170064333Y-41097971D01*
X169967571Y-41076200D01*
X169919190Y-41054428D01*
X169895000Y-41032657D01*
X169870810Y-40989114D01*
X170040143Y-40640771D02*
X170378810Y-40640771D01*
X170088524Y-40640771D02*
X170064333Y-40618999D01*
X170040143Y-40575457D01*
X170040143Y-40510142D01*
X170064333Y-40466599D01*
X170112714Y-40444828D01*
X170378810Y-40444828D01*
X170112714Y-40074714D02*
X170112714Y-40227114D01*
X170378810Y-40227114D02*
X169870810Y-40227114D01*
X169870810Y-40009400D01*
D12*
X177607143Y-48807143D02*
X177559524Y-48854762D01*
X177416667Y-48902381D01*
X177321429Y-48902381D01*
X177178571Y-48854762D01*
X177083333Y-48759524D01*
X177035714Y-48664286D01*
X176988095Y-48473810D01*
X176988095Y-48330952D01*
X177035714Y-48140476D01*
X177083333Y-48045238D01*
X177178571Y-47950000D01*
X177321429Y-47902381D01*
X177416667Y-47902381D01*
X177559524Y-47950000D01*
X177607143Y-47997619D01*
X178559524Y-48902381D02*
X177988095Y-48902381D01*
X178273809Y-48902381D02*
X178273809Y-47902381D01*
X178178571Y-48045238D01*
X178083333Y-48140476D01*
X177988095Y-48188095D01*
X178940476Y-47997619D02*
X178988095Y-47950000D01*
X179083333Y-47902381D01*
X179321429Y-47902381D01*
X179416667Y-47950000D01*
X179464286Y-47997619D01*
X179511905Y-48092857D01*
X179511905Y-48188095D01*
X179464286Y-48330952D01*
X178892857Y-48902381D01*
X179511905Y-48902381D01*
D15*
X177542428Y-45028810D02*
X177281171Y-45028810D01*
X177411799Y-45028810D02*
X177411799Y-44520810D01*
X177368256Y-44593381D01*
X177324714Y-44641762D01*
X177281171Y-44665952D01*
X177825457Y-44520810D02*
X177869000Y-44520810D01*
X177912543Y-44545000D01*
X177934314Y-44569190D01*
X177956085Y-44617571D01*
X177977857Y-44714333D01*
X177977857Y-44835286D01*
X177956085Y-44932048D01*
X177934314Y-44980429D01*
X177912543Y-45004619D01*
X177869000Y-45028810D01*
X177825457Y-45028810D01*
X177781914Y-45004619D01*
X177760143Y-44980429D01*
X177738371Y-44932048D01*
X177716600Y-44835286D01*
X177716600Y-44714333D01*
X177738371Y-44617571D01*
X177760143Y-44569190D01*
X177781914Y-44545000D01*
X177825457Y-44520810D01*
X178260886Y-44520810D02*
X178304429Y-44520810D01*
X178347972Y-44545000D01*
X178369743Y-44569190D01*
X178391514Y-44617571D01*
X178413286Y-44714333D01*
X178413286Y-44835286D01*
X178391514Y-44932048D01*
X178369743Y-44980429D01*
X178347972Y-45004619D01*
X178304429Y-45028810D01*
X178260886Y-45028810D01*
X178217343Y-45004619D01*
X178195572Y-44980429D01*
X178173800Y-44932048D01*
X178152029Y-44835286D01*
X178152029Y-44714333D01*
X178173800Y-44617571D01*
X178195572Y-44569190D01*
X178217343Y-44545000D01*
X178260886Y-44520810D01*
X178609229Y-44690143D02*
X178609229Y-45028810D01*
X178609229Y-44738524D02*
X178631001Y-44714333D01*
X178674543Y-44690143D01*
X178739858Y-44690143D01*
X178783401Y-44714333D01*
X178805172Y-44762714D01*
X178805172Y-45028810D01*
X179175286Y-44762714D02*
X179022886Y-44762714D01*
X179022886Y-45028810D02*
X179022886Y-44520810D01*
X179240600Y-44520810D01*
D12*
X167257143Y-54257143D02*
X167209524Y-54304762D01*
X167066667Y-54352381D01*
X166971429Y-54352381D01*
X166828571Y-54304762D01*
X166733333Y-54209524D01*
X166685714Y-54114286D01*
X166638095Y-53923810D01*
X166638095Y-53780952D01*
X166685714Y-53590476D01*
X166733333Y-53495238D01*
X166828571Y-53400000D01*
X166971429Y-53352381D01*
X167066667Y-53352381D01*
X167209524Y-53400000D01*
X167257143Y-53447619D01*
X168209524Y-54352381D02*
X167638095Y-54352381D01*
X167923809Y-54352381D02*
X167923809Y-53352381D01*
X167828571Y-53495238D01*
X167733333Y-53590476D01*
X167638095Y-53638095D01*
X169161905Y-54352381D02*
X168590476Y-54352381D01*
X168876190Y-54352381D02*
X168876190Y-53352381D01*
X168780952Y-53495238D01*
X168685714Y-53590476D01*
X168590476Y-53638095D01*
D15*
X166378810Y-52507572D02*
X166378810Y-52768829D01*
X166378810Y-52638201D02*
X165870810Y-52638201D01*
X165943381Y-52681744D01*
X165991762Y-52725286D01*
X166015952Y-52768829D01*
X165870810Y-52224543D02*
X165870810Y-52181000D01*
X165895000Y-52137457D01*
X165919190Y-52115686D01*
X165967571Y-52093915D01*
X166064333Y-52072143D01*
X166185286Y-52072143D01*
X166282048Y-52093915D01*
X166330429Y-52115686D01*
X166354619Y-52137457D01*
X166378810Y-52181000D01*
X166378810Y-52224543D01*
X166354619Y-52268086D01*
X166330429Y-52289857D01*
X166282048Y-52311629D01*
X166185286Y-52333400D01*
X166064333Y-52333400D01*
X165967571Y-52311629D01*
X165919190Y-52289857D01*
X165895000Y-52268086D01*
X165870810Y-52224543D01*
X165870810Y-51789114D02*
X165870810Y-51745571D01*
X165895000Y-51702028D01*
X165919190Y-51680257D01*
X165967571Y-51658486D01*
X166064333Y-51636714D01*
X166185286Y-51636714D01*
X166282048Y-51658486D01*
X166330429Y-51680257D01*
X166354619Y-51702028D01*
X166378810Y-51745571D01*
X166378810Y-51789114D01*
X166354619Y-51832657D01*
X166330429Y-51854428D01*
X166282048Y-51876200D01*
X166185286Y-51897971D01*
X166064333Y-51897971D01*
X165967571Y-51876200D01*
X165919190Y-51854428D01*
X165895000Y-51832657D01*
X165870810Y-51789114D01*
X166040143Y-51440771D02*
X166378810Y-51440771D01*
X166088524Y-51440771D02*
X166064333Y-51418999D01*
X166040143Y-51375457D01*
X166040143Y-51310142D01*
X166064333Y-51266599D01*
X166112714Y-51244828D01*
X166378810Y-51244828D01*
X166112714Y-50874714D02*
X166112714Y-51027114D01*
X166378810Y-51027114D02*
X165870810Y-51027114D01*
X165870810Y-50809400D01*
D12*
X173857143Y-53857143D02*
X173809524Y-53904762D01*
X173666667Y-53952381D01*
X173571429Y-53952381D01*
X173428571Y-53904762D01*
X173333333Y-53809524D01*
X173285714Y-53714286D01*
X173238095Y-53523810D01*
X173238095Y-53380952D01*
X173285714Y-53190476D01*
X173333333Y-53095238D01*
X173428571Y-53000000D01*
X173571429Y-52952381D01*
X173666667Y-52952381D01*
X173809524Y-53000000D01*
X173857143Y-53047619D01*
X174809524Y-53952381D02*
X174238095Y-53952381D01*
X174523809Y-53952381D02*
X174523809Y-52952381D01*
X174428571Y-53095238D01*
X174333333Y-53190476D01*
X174238095Y-53238095D01*
X175428571Y-52952381D02*
X175523810Y-52952381D01*
X175619048Y-53000000D01*
X175666667Y-53047619D01*
X175714286Y-53142857D01*
X175761905Y-53333333D01*
X175761905Y-53571429D01*
X175714286Y-53761905D01*
X175666667Y-53857143D01*
X175619048Y-53904762D01*
X175523810Y-53952381D01*
X175428571Y-53952381D01*
X175333333Y-53904762D01*
X175285714Y-53857143D01*
X175238095Y-53761905D01*
X175190476Y-53571429D01*
X175190476Y-53333333D01*
X175238095Y-53142857D01*
X175285714Y-53047619D01*
X175333333Y-53000000D01*
X175428571Y-52952381D01*
D15*
X172819810Y-52317572D02*
X172819810Y-52578829D01*
X172819810Y-52448201D02*
X172311810Y-52448201D01*
X172384381Y-52491744D01*
X172432762Y-52535286D01*
X172456952Y-52578829D01*
X172311810Y-52034543D02*
X172311810Y-51991000D01*
X172336000Y-51947457D01*
X172360190Y-51925686D01*
X172408571Y-51903915D01*
X172505333Y-51882143D01*
X172626286Y-51882143D01*
X172723048Y-51903915D01*
X172771429Y-51925686D01*
X172795619Y-51947457D01*
X172819810Y-51991000D01*
X172819810Y-52034543D01*
X172795619Y-52078086D01*
X172771429Y-52099857D01*
X172723048Y-52121629D01*
X172626286Y-52143400D01*
X172505333Y-52143400D01*
X172408571Y-52121629D01*
X172360190Y-52099857D01*
X172336000Y-52078086D01*
X172311810Y-52034543D01*
X172311810Y-51599114D02*
X172311810Y-51555571D01*
X172336000Y-51512028D01*
X172360190Y-51490257D01*
X172408571Y-51468486D01*
X172505333Y-51446714D01*
X172626286Y-51446714D01*
X172723048Y-51468486D01*
X172771429Y-51490257D01*
X172795619Y-51512028D01*
X172819810Y-51555571D01*
X172819810Y-51599114D01*
X172795619Y-51642657D01*
X172771429Y-51664428D01*
X172723048Y-51686200D01*
X172626286Y-51707971D01*
X172505333Y-51707971D01*
X172408571Y-51686200D01*
X172360190Y-51664428D01*
X172336000Y-51642657D01*
X172311810Y-51599114D01*
X172481143Y-51250771D02*
X172819810Y-51250771D01*
X172529524Y-51250771D02*
X172505333Y-51228999D01*
X172481143Y-51185457D01*
X172481143Y-51120142D01*
X172505333Y-51076599D01*
X172553714Y-51054828D01*
X172819810Y-51054828D01*
X172553714Y-50684714D02*
X172553714Y-50837114D01*
X172819810Y-50837114D02*
X172311810Y-50837114D01*
X172311810Y-50619400D01*
D12*
X137923334Y-42417143D02*
X137875715Y-42464762D01*
X137732858Y-42512381D01*
X137637620Y-42512381D01*
X137494762Y-42464762D01*
X137399524Y-42369524D01*
X137351905Y-42274286D01*
X137304286Y-42083810D01*
X137304286Y-41940952D01*
X137351905Y-41750476D01*
X137399524Y-41655238D01*
X137494762Y-41560000D01*
X137637620Y-41512381D01*
X137732858Y-41512381D01*
X137875715Y-41560000D01*
X137923334Y-41607619D01*
X138399524Y-42512381D02*
X138590000Y-42512381D01*
X138685239Y-42464762D01*
X138732858Y-42417143D01*
X138828096Y-42274286D01*
X138875715Y-42083810D01*
X138875715Y-41702857D01*
X138828096Y-41607619D01*
X138780477Y-41560000D01*
X138685239Y-41512381D01*
X138494762Y-41512381D01*
X138399524Y-41560000D01*
X138351905Y-41607619D01*
X138304286Y-41702857D01*
X138304286Y-41940952D01*
X138351905Y-42036190D01*
X138399524Y-42083810D01*
X138494762Y-42131429D01*
X138685239Y-42131429D01*
X138780477Y-42083810D01*
X138828096Y-42036190D01*
X138875715Y-41940952D01*
D15*
X137600143Y-46289810D02*
X137338886Y-46289810D01*
X137469514Y-46289810D02*
X137469514Y-45781810D01*
X137425971Y-45854381D01*
X137382429Y-45902762D01*
X137338886Y-45926952D01*
X137883172Y-45781810D02*
X137926715Y-45781810D01*
X137970258Y-45806000D01*
X137992029Y-45830190D01*
X138013800Y-45878571D01*
X138035572Y-45975333D01*
X138035572Y-46096286D01*
X138013800Y-46193048D01*
X137992029Y-46241429D01*
X137970258Y-46265619D01*
X137926715Y-46289810D01*
X137883172Y-46289810D01*
X137839629Y-46265619D01*
X137817858Y-46241429D01*
X137796086Y-46193048D01*
X137774315Y-46096286D01*
X137774315Y-45975333D01*
X137796086Y-45878571D01*
X137817858Y-45830190D01*
X137839629Y-45806000D01*
X137883172Y-45781810D01*
X138231515Y-45951143D02*
X138231515Y-46459143D01*
X138231515Y-45975333D02*
X138275058Y-45951143D01*
X138362144Y-45951143D01*
X138405687Y-45975333D01*
X138427458Y-45999524D01*
X138449229Y-46047905D01*
X138449229Y-46193048D01*
X138427458Y-46241429D01*
X138405687Y-46265619D01*
X138362144Y-46289810D01*
X138275058Y-46289810D01*
X138231515Y-46265619D01*
X138797572Y-46023714D02*
X138645172Y-46023714D01*
X138645172Y-46289810D02*
X138645172Y-45781810D01*
X138862886Y-45781810D01*
D12*
X140133334Y-42757143D02*
X140085715Y-42804762D01*
X139942858Y-42852381D01*
X139847620Y-42852381D01*
X139704762Y-42804762D01*
X139609524Y-42709524D01*
X139561905Y-42614286D01*
X139514286Y-42423810D01*
X139514286Y-42280952D01*
X139561905Y-42090476D01*
X139609524Y-41995238D01*
X139704762Y-41900000D01*
X139847620Y-41852381D01*
X139942858Y-41852381D01*
X140085715Y-41900000D01*
X140133334Y-41947619D01*
X140704762Y-42280952D02*
X140609524Y-42233333D01*
X140561905Y-42185714D01*
X140514286Y-42090476D01*
X140514286Y-42042857D01*
X140561905Y-41947619D01*
X140609524Y-41900000D01*
X140704762Y-41852381D01*
X140895239Y-41852381D01*
X140990477Y-41900000D01*
X141038096Y-41947619D01*
X141085715Y-42042857D01*
X141085715Y-42090476D01*
X141038096Y-42185714D01*
X140990477Y-42233333D01*
X140895239Y-42280952D01*
X140704762Y-42280952D01*
X140609524Y-42328571D01*
X140561905Y-42376190D01*
X140514286Y-42471429D01*
X140514286Y-42661905D01*
X140561905Y-42757143D01*
X140609524Y-42804762D01*
X140704762Y-42852381D01*
X140895239Y-42852381D01*
X140990477Y-42804762D01*
X141038096Y-42757143D01*
X141085715Y-42661905D01*
X141085715Y-42471429D01*
X141038096Y-42376190D01*
X140990477Y-42328571D01*
X140895239Y-42280952D01*
D15*
X139810143Y-46280810D02*
X139548886Y-46280810D01*
X139679514Y-46280810D02*
X139679514Y-45772810D01*
X139635971Y-45845381D01*
X139592429Y-45893762D01*
X139548886Y-45917952D01*
X140093172Y-45772810D02*
X140136715Y-45772810D01*
X140180258Y-45797000D01*
X140202029Y-45821190D01*
X140223800Y-45869571D01*
X140245572Y-45966333D01*
X140245572Y-46087286D01*
X140223800Y-46184048D01*
X140202029Y-46232429D01*
X140180258Y-46256619D01*
X140136715Y-46280810D01*
X140093172Y-46280810D01*
X140049629Y-46256619D01*
X140027858Y-46232429D01*
X140006086Y-46184048D01*
X139984315Y-46087286D01*
X139984315Y-45966333D01*
X140006086Y-45869571D01*
X140027858Y-45821190D01*
X140049629Y-45797000D01*
X140093172Y-45772810D01*
X140441515Y-45942143D02*
X140441515Y-46450143D01*
X140441515Y-45966333D02*
X140485058Y-45942143D01*
X140572144Y-45942143D01*
X140615687Y-45966333D01*
X140637458Y-45990524D01*
X140659229Y-46038905D01*
X140659229Y-46184048D01*
X140637458Y-46232429D01*
X140615687Y-46256619D01*
X140572144Y-46280810D01*
X140485058Y-46280810D01*
X140441515Y-46256619D01*
X141007572Y-46014714D02*
X140855172Y-46014714D01*
X140855172Y-46280810D02*
X140855172Y-45772810D01*
X141072886Y-45772810D01*
D12*
X145133334Y-52057143D02*
X145085715Y-52104762D01*
X144942858Y-52152381D01*
X144847620Y-52152381D01*
X144704762Y-52104762D01*
X144609524Y-52009524D01*
X144561905Y-51914286D01*
X144514286Y-51723810D01*
X144514286Y-51580952D01*
X144561905Y-51390476D01*
X144609524Y-51295238D01*
X144704762Y-51200000D01*
X144847620Y-51152381D01*
X144942858Y-51152381D01*
X145085715Y-51200000D01*
X145133334Y-51247619D01*
X145466667Y-51152381D02*
X146133334Y-51152381D01*
X145704762Y-52152381D01*
D15*
X144792428Y-50480810D02*
X144531171Y-50480810D01*
X144661799Y-50480810D02*
X144661799Y-49972810D01*
X144618256Y-50045381D01*
X144574714Y-50093762D01*
X144531171Y-50117952D01*
X145075457Y-49972810D02*
X145119000Y-49972810D01*
X145162543Y-49997000D01*
X145184314Y-50021190D01*
X145206085Y-50069571D01*
X145227857Y-50166333D01*
X145227857Y-50287286D01*
X145206085Y-50384048D01*
X145184314Y-50432429D01*
X145162543Y-50456619D01*
X145119000Y-50480810D01*
X145075457Y-50480810D01*
X145031914Y-50456619D01*
X145010143Y-50432429D01*
X144988371Y-50384048D01*
X144966600Y-50287286D01*
X144966600Y-50166333D01*
X144988371Y-50069571D01*
X145010143Y-50021190D01*
X145031914Y-49997000D01*
X145075457Y-49972810D01*
X145510886Y-49972810D02*
X145554429Y-49972810D01*
X145597972Y-49997000D01*
X145619743Y-50021190D01*
X145641514Y-50069571D01*
X145663286Y-50166333D01*
X145663286Y-50287286D01*
X145641514Y-50384048D01*
X145619743Y-50432429D01*
X145597972Y-50456619D01*
X145554429Y-50480810D01*
X145510886Y-50480810D01*
X145467343Y-50456619D01*
X145445572Y-50432429D01*
X145423800Y-50384048D01*
X145402029Y-50287286D01*
X145402029Y-50166333D01*
X145423800Y-50069571D01*
X145445572Y-50021190D01*
X145467343Y-49997000D01*
X145510886Y-49972810D01*
X145859229Y-50142143D02*
X145859229Y-50480810D01*
X145859229Y-50190524D02*
X145881001Y-50166333D01*
X145924543Y-50142143D01*
X145989858Y-50142143D01*
X146033401Y-50166333D01*
X146055172Y-50214714D01*
X146055172Y-50480810D01*
X146425286Y-50214714D02*
X146272886Y-50214714D01*
X146272886Y-50480810D02*
X146272886Y-49972810D01*
X146490600Y-49972810D01*
D12*
X121333334Y-41657143D02*
X121285715Y-41704762D01*
X121142858Y-41752381D01*
X121047620Y-41752381D01*
X120904762Y-41704762D01*
X120809524Y-41609524D01*
X120761905Y-41514286D01*
X120714286Y-41323810D01*
X120714286Y-41180952D01*
X120761905Y-40990476D01*
X120809524Y-40895238D01*
X120904762Y-40800000D01*
X121047620Y-40752381D01*
X121142858Y-40752381D01*
X121285715Y-40800000D01*
X121333334Y-40847619D01*
X122190477Y-40752381D02*
X122000000Y-40752381D01*
X121904762Y-40800000D01*
X121857143Y-40847619D01*
X121761905Y-40990476D01*
X121714286Y-41180952D01*
X121714286Y-41561905D01*
X121761905Y-41657143D01*
X121809524Y-41704762D01*
X121904762Y-41752381D01*
X122095239Y-41752381D01*
X122190477Y-41704762D01*
X122238096Y-41657143D01*
X122285715Y-41561905D01*
X122285715Y-41323810D01*
X122238096Y-41228571D01*
X122190477Y-41180952D01*
X122095239Y-41133333D01*
X121904762Y-41133333D01*
X121809524Y-41180952D01*
X121761905Y-41228571D01*
X121714286Y-41323810D01*
D15*
X119480810Y-42107572D02*
X119480810Y-42368829D01*
X119480810Y-42238201D02*
X118972810Y-42238201D01*
X119045381Y-42281744D01*
X119093762Y-42325286D01*
X119117952Y-42368829D01*
X118972810Y-41824543D02*
X118972810Y-41781000D01*
X118997000Y-41737457D01*
X119021190Y-41715686D01*
X119069571Y-41693915D01*
X119166333Y-41672143D01*
X119287286Y-41672143D01*
X119384048Y-41693915D01*
X119432429Y-41715686D01*
X119456619Y-41737457D01*
X119480810Y-41781000D01*
X119480810Y-41824543D01*
X119456619Y-41868086D01*
X119432429Y-41889857D01*
X119384048Y-41911629D01*
X119287286Y-41933400D01*
X119166333Y-41933400D01*
X119069571Y-41911629D01*
X119021190Y-41889857D01*
X118997000Y-41868086D01*
X118972810Y-41824543D01*
X118972810Y-41389114D02*
X118972810Y-41345571D01*
X118997000Y-41302028D01*
X119021190Y-41280257D01*
X119069571Y-41258486D01*
X119166333Y-41236714D01*
X119287286Y-41236714D01*
X119384048Y-41258486D01*
X119432429Y-41280257D01*
X119456619Y-41302028D01*
X119480810Y-41345571D01*
X119480810Y-41389114D01*
X119456619Y-41432657D01*
X119432429Y-41454428D01*
X119384048Y-41476200D01*
X119287286Y-41497971D01*
X119166333Y-41497971D01*
X119069571Y-41476200D01*
X119021190Y-41454428D01*
X118997000Y-41432657D01*
X118972810Y-41389114D01*
X119142143Y-41040771D02*
X119480810Y-41040771D01*
X119190524Y-41040771D02*
X119166333Y-41018999D01*
X119142143Y-40975457D01*
X119142143Y-40910142D01*
X119166333Y-40866599D01*
X119214714Y-40844828D01*
X119480810Y-40844828D01*
X119214714Y-40474714D02*
X119214714Y-40627114D01*
X119480810Y-40627114D02*
X118972810Y-40627114D01*
X118972810Y-40409400D01*
D12*
X141633334Y-57057143D02*
X141585715Y-57104762D01*
X141442858Y-57152381D01*
X141347620Y-57152381D01*
X141204762Y-57104762D01*
X141109524Y-57009524D01*
X141061905Y-56914286D01*
X141014286Y-56723810D01*
X141014286Y-56580952D01*
X141061905Y-56390476D01*
X141109524Y-56295238D01*
X141204762Y-56200000D01*
X141347620Y-56152381D01*
X141442858Y-56152381D01*
X141585715Y-56200000D01*
X141633334Y-56247619D01*
X142538096Y-56152381D02*
X142061905Y-56152381D01*
X142014286Y-56628571D01*
X142061905Y-56580952D01*
X142157143Y-56533333D01*
X142395239Y-56533333D01*
X142490477Y-56580952D01*
X142538096Y-56628571D01*
X142585715Y-56723810D01*
X142585715Y-56961905D01*
X142538096Y-57057143D01*
X142490477Y-57104762D01*
X142395239Y-57152381D01*
X142157143Y-57152381D01*
X142061905Y-57104762D01*
X142014286Y-57057143D01*
D15*
X137678810Y-57507572D02*
X137678810Y-57768829D01*
X137678810Y-57638201D02*
X137170810Y-57638201D01*
X137243381Y-57681744D01*
X137291762Y-57725286D01*
X137315952Y-57768829D01*
X137170810Y-57224543D02*
X137170810Y-57181000D01*
X137195000Y-57137457D01*
X137219190Y-57115686D01*
X137267571Y-57093915D01*
X137364333Y-57072143D01*
X137485286Y-57072143D01*
X137582048Y-57093915D01*
X137630429Y-57115686D01*
X137654619Y-57137457D01*
X137678810Y-57181000D01*
X137678810Y-57224543D01*
X137654619Y-57268086D01*
X137630429Y-57289857D01*
X137582048Y-57311629D01*
X137485286Y-57333400D01*
X137364333Y-57333400D01*
X137267571Y-57311629D01*
X137219190Y-57289857D01*
X137195000Y-57268086D01*
X137170810Y-57224543D01*
X137170810Y-56789114D02*
X137170810Y-56745571D01*
X137195000Y-56702028D01*
X137219190Y-56680257D01*
X137267571Y-56658486D01*
X137364333Y-56636714D01*
X137485286Y-56636714D01*
X137582048Y-56658486D01*
X137630429Y-56680257D01*
X137654619Y-56702028D01*
X137678810Y-56745571D01*
X137678810Y-56789114D01*
X137654619Y-56832657D01*
X137630429Y-56854428D01*
X137582048Y-56876200D01*
X137485286Y-56897971D01*
X137364333Y-56897971D01*
X137267571Y-56876200D01*
X137219190Y-56854428D01*
X137195000Y-56832657D01*
X137170810Y-56789114D01*
X137340143Y-56440771D02*
X137678810Y-56440771D01*
X137388524Y-56440771D02*
X137364333Y-56418999D01*
X137340143Y-56375457D01*
X137340143Y-56310142D01*
X137364333Y-56266599D01*
X137412714Y-56244828D01*
X137678810Y-56244828D01*
X137412714Y-55874714D02*
X137412714Y-56027114D01*
X137678810Y-56027114D02*
X137170810Y-56027114D01*
X137170810Y-55809400D01*
D12*
X122233334Y-39357143D02*
X122185715Y-39404762D01*
X122042858Y-39452381D01*
X121947620Y-39452381D01*
X121804762Y-39404762D01*
X121709524Y-39309524D01*
X121661905Y-39214286D01*
X121614286Y-39023810D01*
X121614286Y-38880952D01*
X121661905Y-38690476D01*
X121709524Y-38595238D01*
X121804762Y-38500000D01*
X121947620Y-38452381D01*
X122042858Y-38452381D01*
X122185715Y-38500000D01*
X122233334Y-38547619D01*
X123090477Y-38785714D02*
X123090477Y-39452381D01*
X122852381Y-38404762D02*
X122614286Y-39119048D01*
X123233334Y-39119048D01*
X142333334Y-59457143D02*
X142285715Y-59504762D01*
X142142858Y-59552381D01*
X142047620Y-59552381D01*
X141904762Y-59504762D01*
X141809524Y-59409524D01*
X141761905Y-59314286D01*
X141714286Y-59123810D01*
X141714286Y-58980952D01*
X141761905Y-58790476D01*
X141809524Y-58695238D01*
X141904762Y-58600000D01*
X142047620Y-58552381D01*
X142142858Y-58552381D01*
X142285715Y-58600000D01*
X142333334Y-58647619D01*
X142666667Y-58552381D02*
X143285715Y-58552381D01*
X142952381Y-58933333D01*
X143095239Y-58933333D01*
X143190477Y-58980952D01*
X143238096Y-59028571D01*
X143285715Y-59123810D01*
X143285715Y-59361905D01*
X143238096Y-59457143D01*
X143190477Y-59504762D01*
X143095239Y-59552381D01*
X142809524Y-59552381D01*
X142714286Y-59504762D01*
X142666667Y-59457143D01*
X139673334Y-51987143D02*
X139625715Y-52034762D01*
X139482858Y-52082381D01*
X139387620Y-52082381D01*
X139244762Y-52034762D01*
X139149524Y-51939524D01*
X139101905Y-51844286D01*
X139054286Y-51653810D01*
X139054286Y-51510952D01*
X139101905Y-51320476D01*
X139149524Y-51225238D01*
X139244762Y-51130000D01*
X139387620Y-51082381D01*
X139482858Y-51082381D01*
X139625715Y-51130000D01*
X139673334Y-51177619D01*
X140054286Y-51177619D02*
X140101905Y-51130000D01*
X140197143Y-51082381D01*
X140435239Y-51082381D01*
X140530477Y-51130000D01*
X140578096Y-51177619D01*
X140625715Y-51272857D01*
X140625715Y-51368095D01*
X140578096Y-51510952D01*
X140006667Y-52082381D01*
X140625715Y-52082381D01*
D15*
X135610190Y-52381114D02*
X135586000Y-52359343D01*
X135561810Y-52315800D01*
X135561810Y-52206943D01*
X135586000Y-52163400D01*
X135610190Y-52141629D01*
X135658571Y-52119857D01*
X135706952Y-52119857D01*
X135779524Y-52141629D01*
X136069810Y-52402886D01*
X136069810Y-52119857D01*
X135610190Y-51945685D02*
X135586000Y-51923914D01*
X135561810Y-51880371D01*
X135561810Y-51771514D01*
X135586000Y-51727971D01*
X135610190Y-51706200D01*
X135658571Y-51684428D01*
X135706952Y-51684428D01*
X135779524Y-51706200D01*
X136069810Y-51967457D01*
X136069810Y-51684428D01*
X135731143Y-51488485D02*
X136239143Y-51488485D01*
X135755333Y-51488485D02*
X135731143Y-51444942D01*
X135731143Y-51357856D01*
X135755333Y-51314313D01*
X135779524Y-51292542D01*
X135827905Y-51270771D01*
X135973048Y-51270771D01*
X136021429Y-51292542D01*
X136045619Y-51314313D01*
X136069810Y-51357856D01*
X136069810Y-51444942D01*
X136045619Y-51488485D01*
X135803714Y-50922428D02*
X135803714Y-51074828D01*
X136069810Y-51074828D02*
X135561810Y-51074828D01*
X135561810Y-50857114D01*
D12*
X139833334Y-47557143D02*
X139785715Y-47604762D01*
X139642858Y-47652381D01*
X139547620Y-47652381D01*
X139404762Y-47604762D01*
X139309524Y-47509524D01*
X139261905Y-47414286D01*
X139214286Y-47223810D01*
X139214286Y-47080952D01*
X139261905Y-46890476D01*
X139309524Y-46795238D01*
X139404762Y-46700000D01*
X139547620Y-46652381D01*
X139642858Y-46652381D01*
X139785715Y-46700000D01*
X139833334Y-46747619D01*
X140785715Y-47652381D02*
X140214286Y-47652381D01*
X140500000Y-47652381D02*
X140500000Y-46652381D01*
X140404762Y-46795238D01*
X140309524Y-46890476D01*
X140214286Y-46938095D01*
D15*
X135619190Y-47551114D02*
X135595000Y-47529343D01*
X135570810Y-47485800D01*
X135570810Y-47376943D01*
X135595000Y-47333400D01*
X135619190Y-47311629D01*
X135667571Y-47289857D01*
X135715952Y-47289857D01*
X135788524Y-47311629D01*
X136078810Y-47572886D01*
X136078810Y-47289857D01*
X135619190Y-47115685D02*
X135595000Y-47093914D01*
X135570810Y-47050371D01*
X135570810Y-46941514D01*
X135595000Y-46897971D01*
X135619190Y-46876200D01*
X135667571Y-46854428D01*
X135715952Y-46854428D01*
X135788524Y-46876200D01*
X136078810Y-47137457D01*
X136078810Y-46854428D01*
X135740143Y-46658485D02*
X136248143Y-46658485D01*
X135764333Y-46658485D02*
X135740143Y-46614942D01*
X135740143Y-46527856D01*
X135764333Y-46484313D01*
X135788524Y-46462542D01*
X135836905Y-46440771D01*
X135982048Y-46440771D01*
X136030429Y-46462542D01*
X136054619Y-46484313D01*
X136078810Y-46527856D01*
X136078810Y-46614942D01*
X136054619Y-46658485D01*
X135812714Y-46092428D02*
X135812714Y-46244828D01*
X136078810Y-46244828D02*
X135570810Y-46244828D01*
X135570810Y-46027114D01*
D12*
X128928571Y-66680952D02*
X128833333Y-66633333D01*
X128785714Y-66585714D01*
X128738095Y-66490476D01*
X128738095Y-66442857D01*
X128785714Y-66347619D01*
X128833333Y-66300000D01*
X128928571Y-66252381D01*
X129119048Y-66252381D01*
X129214286Y-66300000D01*
X129261905Y-66347619D01*
X129309524Y-66442857D01*
X129309524Y-66490476D01*
X129261905Y-66585714D01*
X129214286Y-66633333D01*
X129119048Y-66680952D01*
X128928571Y-66680952D01*
X128833333Y-66728571D01*
X128785714Y-66776190D01*
X128738095Y-66871429D01*
X128738095Y-67061905D01*
X128785714Y-67157143D01*
X128833333Y-67204762D01*
X128928571Y-67252381D01*
X129119048Y-67252381D01*
X129214286Y-67204762D01*
X129261905Y-67157143D01*
X129309524Y-67061905D01*
X129309524Y-66871429D01*
X129261905Y-66776190D01*
X129214286Y-66728571D01*
X129119048Y-66680952D01*
X129738095Y-67252381D02*
X129738095Y-66252381D01*
X130071429Y-66966667D01*
X130404762Y-66252381D01*
X130404762Y-67252381D01*
X130880952Y-67252381D02*
X130880952Y-66252381D01*
X130880952Y-66728571D02*
X131452381Y-66728571D01*
X131452381Y-67252381D02*
X131452381Y-66252381D01*
X131833333Y-66585714D02*
X132357143Y-66585714D01*
X131833333Y-67252381D01*
X132357143Y-67252381D01*
X133261905Y-67252381D02*
X132690476Y-67252381D01*
X132976190Y-67252381D02*
X132976190Y-66252381D01*
X132880952Y-66395238D01*
X132785714Y-66490476D01*
X132690476Y-66538095D01*
X139838096Y-49852381D02*
X139266667Y-49852381D01*
X139552381Y-49852381D02*
X139552381Y-48852381D01*
X139457143Y-48995238D01*
X139361905Y-49090476D01*
X139266667Y-49138095D01*
X140266667Y-49852381D02*
X140266667Y-48852381D01*
X140600001Y-49566667D01*
X140933334Y-48852381D01*
X140933334Y-49852381D01*
X141933334Y-49852381D02*
X141361905Y-49852381D01*
X141647619Y-49852381D02*
X141647619Y-48852381D01*
X141552381Y-48995238D01*
X141457143Y-49090476D01*
X141361905Y-49138095D01*
D15*
X136030550Y-49530628D02*
X136030550Y-49791885D01*
X136030550Y-49661257D02*
X135522550Y-49661257D01*
X135595121Y-49704800D01*
X135643502Y-49748342D01*
X135667692Y-49791885D01*
X136030550Y-49334685D02*
X135522550Y-49334685D01*
X135885407Y-49182285D01*
X135522550Y-49029885D01*
X136030550Y-49029885D01*
D12*
X139838096Y-91852381D02*
X139266667Y-91852381D01*
X139552381Y-91852381D02*
X139552381Y-90852381D01*
X139457143Y-90995238D01*
X139361905Y-91090476D01*
X139266667Y-91138095D01*
X140266667Y-91852381D02*
X140266667Y-90852381D01*
X140600001Y-91566667D01*
X140933334Y-90852381D01*
X140933334Y-91852381D01*
X141933334Y-91852381D02*
X141361905Y-91852381D01*
X141647619Y-91852381D02*
X141647619Y-90852381D01*
X141552381Y-90995238D01*
X141457143Y-91090476D01*
X141361905Y-91138095D01*
D15*
X136030550Y-91530628D02*
X136030550Y-91791885D01*
X136030550Y-91661257D02*
X135522550Y-91661257D01*
X135595121Y-91704800D01*
X135643502Y-91748342D01*
X135667692Y-91791885D01*
X136030550Y-91334685D02*
X135522550Y-91334685D01*
X135885407Y-91182285D01*
X135522550Y-91029885D01*
X136030550Y-91029885D01*
D12*
X128928571Y-108680952D02*
X128833333Y-108633333D01*
X128785714Y-108585714D01*
X128738095Y-108490476D01*
X128738095Y-108442857D01*
X128785714Y-108347619D01*
X128833333Y-108300000D01*
X128928571Y-108252381D01*
X129119048Y-108252381D01*
X129214286Y-108300000D01*
X129261905Y-108347619D01*
X129309524Y-108442857D01*
X129309524Y-108490476D01*
X129261905Y-108585714D01*
X129214286Y-108633333D01*
X129119048Y-108680952D01*
X128928571Y-108680952D01*
X128833333Y-108728571D01*
X128785714Y-108776190D01*
X128738095Y-108871429D01*
X128738095Y-109061905D01*
X128785714Y-109157143D01*
X128833333Y-109204762D01*
X128928571Y-109252381D01*
X129119048Y-109252381D01*
X129214286Y-109204762D01*
X129261905Y-109157143D01*
X129309524Y-109061905D01*
X129309524Y-108871429D01*
X129261905Y-108776190D01*
X129214286Y-108728571D01*
X129119048Y-108680952D01*
X129738095Y-109252381D02*
X129738095Y-108252381D01*
X130071429Y-108966667D01*
X130404762Y-108252381D01*
X130404762Y-109252381D01*
X130880952Y-109252381D02*
X130880952Y-108252381D01*
X130880952Y-108728571D02*
X131452381Y-108728571D01*
X131452381Y-109252381D02*
X131452381Y-108252381D01*
X131833333Y-108585714D02*
X132357143Y-108585714D01*
X131833333Y-109252381D01*
X132357143Y-109252381D01*
X133261905Y-109252381D02*
X132690476Y-109252381D01*
X132976190Y-109252381D02*
X132976190Y-108252381D01*
X132880952Y-108395238D01*
X132785714Y-108490476D01*
X132690476Y-108538095D01*
X139833334Y-89557143D02*
X139785715Y-89604762D01*
X139642858Y-89652381D01*
X139547620Y-89652381D01*
X139404762Y-89604762D01*
X139309524Y-89509524D01*
X139261905Y-89414286D01*
X139214286Y-89223810D01*
X139214286Y-89080952D01*
X139261905Y-88890476D01*
X139309524Y-88795238D01*
X139404762Y-88700000D01*
X139547620Y-88652381D01*
X139642858Y-88652381D01*
X139785715Y-88700000D01*
X139833334Y-88747619D01*
X140785715Y-89652381D02*
X140214286Y-89652381D01*
X140500000Y-89652381D02*
X140500000Y-88652381D01*
X140404762Y-88795238D01*
X140309524Y-88890476D01*
X140214286Y-88938095D01*
D15*
X135619190Y-89551114D02*
X135595000Y-89529343D01*
X135570810Y-89485800D01*
X135570810Y-89376943D01*
X135595000Y-89333400D01*
X135619190Y-89311629D01*
X135667571Y-89289857D01*
X135715952Y-89289857D01*
X135788524Y-89311629D01*
X136078810Y-89572886D01*
X136078810Y-89289857D01*
X135619190Y-89115685D02*
X135595000Y-89093914D01*
X135570810Y-89050371D01*
X135570810Y-88941514D01*
X135595000Y-88897971D01*
X135619190Y-88876200D01*
X135667571Y-88854428D01*
X135715952Y-88854428D01*
X135788524Y-88876200D01*
X136078810Y-89137457D01*
X136078810Y-88854428D01*
X135740143Y-88658485D02*
X136248143Y-88658485D01*
X135764333Y-88658485D02*
X135740143Y-88614942D01*
X135740143Y-88527856D01*
X135764333Y-88484313D01*
X135788524Y-88462542D01*
X135836905Y-88440771D01*
X135982048Y-88440771D01*
X136030429Y-88462542D01*
X136054619Y-88484313D01*
X136078810Y-88527856D01*
X136078810Y-88614942D01*
X136054619Y-88658485D01*
X135812714Y-88092428D02*
X135812714Y-88244828D01*
X136078810Y-88244828D02*
X135570810Y-88244828D01*
X135570810Y-88027114D01*
D12*
X139673334Y-93987143D02*
X139625715Y-94034762D01*
X139482858Y-94082381D01*
X139387620Y-94082381D01*
X139244762Y-94034762D01*
X139149524Y-93939524D01*
X139101905Y-93844286D01*
X139054286Y-93653810D01*
X139054286Y-93510952D01*
X139101905Y-93320476D01*
X139149524Y-93225238D01*
X139244762Y-93130000D01*
X139387620Y-93082381D01*
X139482858Y-93082381D01*
X139625715Y-93130000D01*
X139673334Y-93177619D01*
X140054286Y-93177619D02*
X140101905Y-93130000D01*
X140197143Y-93082381D01*
X140435239Y-93082381D01*
X140530477Y-93130000D01*
X140578096Y-93177619D01*
X140625715Y-93272857D01*
X140625715Y-93368095D01*
X140578096Y-93510952D01*
X140006667Y-94082381D01*
X140625715Y-94082381D01*
D15*
X135610190Y-94381114D02*
X135586000Y-94359343D01*
X135561810Y-94315800D01*
X135561810Y-94206943D01*
X135586000Y-94163400D01*
X135610190Y-94141629D01*
X135658571Y-94119857D01*
X135706952Y-94119857D01*
X135779524Y-94141629D01*
X136069810Y-94402886D01*
X136069810Y-94119857D01*
X135610190Y-93945685D02*
X135586000Y-93923914D01*
X135561810Y-93880371D01*
X135561810Y-93771514D01*
X135586000Y-93727971D01*
X135610190Y-93706200D01*
X135658571Y-93684428D01*
X135706952Y-93684428D01*
X135779524Y-93706200D01*
X136069810Y-93967457D01*
X136069810Y-93684428D01*
X135731143Y-93488485D02*
X136239143Y-93488485D01*
X135755333Y-93488485D02*
X135731143Y-93444942D01*
X135731143Y-93357856D01*
X135755333Y-93314313D01*
X135779524Y-93292542D01*
X135827905Y-93270771D01*
X135973048Y-93270771D01*
X136021429Y-93292542D01*
X136045619Y-93314313D01*
X136069810Y-93357856D01*
X136069810Y-93444942D01*
X136045619Y-93488485D01*
X135803714Y-92922428D02*
X135803714Y-93074828D01*
X136069810Y-93074828D02*
X135561810Y-93074828D01*
X135561810Y-92857114D01*
D12*
X142333334Y-101457143D02*
X142285715Y-101504762D01*
X142142858Y-101552381D01*
X142047620Y-101552381D01*
X141904762Y-101504762D01*
X141809524Y-101409524D01*
X141761905Y-101314286D01*
X141714286Y-101123810D01*
X141714286Y-100980952D01*
X141761905Y-100790476D01*
X141809524Y-100695238D01*
X141904762Y-100600000D01*
X142047620Y-100552381D01*
X142142858Y-100552381D01*
X142285715Y-100600000D01*
X142333334Y-100647619D01*
X142666667Y-100552381D02*
X143285715Y-100552381D01*
X142952381Y-100933333D01*
X143095239Y-100933333D01*
X143190477Y-100980952D01*
X143238096Y-101028571D01*
X143285715Y-101123810D01*
X143285715Y-101361905D01*
X143238096Y-101457143D01*
X143190477Y-101504762D01*
X143095239Y-101552381D01*
X142809524Y-101552381D01*
X142714286Y-101504762D01*
X142666667Y-101457143D01*
X122233334Y-81357143D02*
X122185715Y-81404762D01*
X122042858Y-81452381D01*
X121947620Y-81452381D01*
X121804762Y-81404762D01*
X121709524Y-81309524D01*
X121661905Y-81214286D01*
X121614286Y-81023810D01*
X121614286Y-80880952D01*
X121661905Y-80690476D01*
X121709524Y-80595238D01*
X121804762Y-80500000D01*
X121947620Y-80452381D01*
X122042858Y-80452381D01*
X122185715Y-80500000D01*
X122233334Y-80547619D01*
X123090477Y-80785714D02*
X123090477Y-81452381D01*
X122852381Y-80404762D02*
X122614286Y-81119048D01*
X123233334Y-81119048D01*
X141633334Y-99057143D02*
X141585715Y-99104762D01*
X141442858Y-99152381D01*
X141347620Y-99152381D01*
X141204762Y-99104762D01*
X141109524Y-99009524D01*
X141061905Y-98914286D01*
X141014286Y-98723810D01*
X141014286Y-98580952D01*
X141061905Y-98390476D01*
X141109524Y-98295238D01*
X141204762Y-98200000D01*
X141347620Y-98152381D01*
X141442858Y-98152381D01*
X141585715Y-98200000D01*
X141633334Y-98247619D01*
X142538096Y-98152381D02*
X142061905Y-98152381D01*
X142014286Y-98628571D01*
X142061905Y-98580952D01*
X142157143Y-98533333D01*
X142395239Y-98533333D01*
X142490477Y-98580952D01*
X142538096Y-98628571D01*
X142585715Y-98723810D01*
X142585715Y-98961905D01*
X142538096Y-99057143D01*
X142490477Y-99104762D01*
X142395239Y-99152381D01*
X142157143Y-99152381D01*
X142061905Y-99104762D01*
X142014286Y-99057143D01*
D15*
X137678810Y-99507572D02*
X137678810Y-99768829D01*
X137678810Y-99638201D02*
X137170810Y-99638201D01*
X137243381Y-99681744D01*
X137291762Y-99725286D01*
X137315952Y-99768829D01*
X137170810Y-99224543D02*
X137170810Y-99181000D01*
X137195000Y-99137457D01*
X137219190Y-99115686D01*
X137267571Y-99093915D01*
X137364333Y-99072143D01*
X137485286Y-99072143D01*
X137582048Y-99093915D01*
X137630429Y-99115686D01*
X137654619Y-99137457D01*
X137678810Y-99181000D01*
X137678810Y-99224543D01*
X137654619Y-99268086D01*
X137630429Y-99289857D01*
X137582048Y-99311629D01*
X137485286Y-99333400D01*
X137364333Y-99333400D01*
X137267571Y-99311629D01*
X137219190Y-99289857D01*
X137195000Y-99268086D01*
X137170810Y-99224543D01*
X137170810Y-98789114D02*
X137170810Y-98745571D01*
X137195000Y-98702028D01*
X137219190Y-98680257D01*
X137267571Y-98658486D01*
X137364333Y-98636714D01*
X137485286Y-98636714D01*
X137582048Y-98658486D01*
X137630429Y-98680257D01*
X137654619Y-98702028D01*
X137678810Y-98745571D01*
X137678810Y-98789114D01*
X137654619Y-98832657D01*
X137630429Y-98854428D01*
X137582048Y-98876200D01*
X137485286Y-98897971D01*
X137364333Y-98897971D01*
X137267571Y-98876200D01*
X137219190Y-98854428D01*
X137195000Y-98832657D01*
X137170810Y-98789114D01*
X137340143Y-98440771D02*
X137678810Y-98440771D01*
X137388524Y-98440771D02*
X137364333Y-98418999D01*
X137340143Y-98375457D01*
X137340143Y-98310142D01*
X137364333Y-98266599D01*
X137412714Y-98244828D01*
X137678810Y-98244828D01*
X137412714Y-97874714D02*
X137412714Y-98027114D01*
X137678810Y-98027114D02*
X137170810Y-98027114D01*
X137170810Y-97809400D01*
D12*
X121333334Y-83657143D02*
X121285715Y-83704762D01*
X121142858Y-83752381D01*
X121047620Y-83752381D01*
X120904762Y-83704762D01*
X120809524Y-83609524D01*
X120761905Y-83514286D01*
X120714286Y-83323810D01*
X120714286Y-83180952D01*
X120761905Y-82990476D01*
X120809524Y-82895238D01*
X120904762Y-82800000D01*
X121047620Y-82752381D01*
X121142858Y-82752381D01*
X121285715Y-82800000D01*
X121333334Y-82847619D01*
X122190477Y-82752381D02*
X122000000Y-82752381D01*
X121904762Y-82800000D01*
X121857143Y-82847619D01*
X121761905Y-82990476D01*
X121714286Y-83180952D01*
X121714286Y-83561905D01*
X121761905Y-83657143D01*
X121809524Y-83704762D01*
X121904762Y-83752381D01*
X122095239Y-83752381D01*
X122190477Y-83704762D01*
X122238096Y-83657143D01*
X122285715Y-83561905D01*
X122285715Y-83323810D01*
X122238096Y-83228571D01*
X122190477Y-83180952D01*
X122095239Y-83133333D01*
X121904762Y-83133333D01*
X121809524Y-83180952D01*
X121761905Y-83228571D01*
X121714286Y-83323810D01*
D15*
X119480810Y-84107572D02*
X119480810Y-84368829D01*
X119480810Y-84238201D02*
X118972810Y-84238201D01*
X119045381Y-84281744D01*
X119093762Y-84325286D01*
X119117952Y-84368829D01*
X118972810Y-83824543D02*
X118972810Y-83781000D01*
X118997000Y-83737457D01*
X119021190Y-83715686D01*
X119069571Y-83693915D01*
X119166333Y-83672143D01*
X119287286Y-83672143D01*
X119384048Y-83693915D01*
X119432429Y-83715686D01*
X119456619Y-83737457D01*
X119480810Y-83781000D01*
X119480810Y-83824543D01*
X119456619Y-83868086D01*
X119432429Y-83889857D01*
X119384048Y-83911629D01*
X119287286Y-83933400D01*
X119166333Y-83933400D01*
X119069571Y-83911629D01*
X119021190Y-83889857D01*
X118997000Y-83868086D01*
X118972810Y-83824543D01*
X118972810Y-83389114D02*
X118972810Y-83345571D01*
X118997000Y-83302028D01*
X119021190Y-83280257D01*
X119069571Y-83258486D01*
X119166333Y-83236714D01*
X119287286Y-83236714D01*
X119384048Y-83258486D01*
X119432429Y-83280257D01*
X119456619Y-83302028D01*
X119480810Y-83345571D01*
X119480810Y-83389114D01*
X119456619Y-83432657D01*
X119432429Y-83454428D01*
X119384048Y-83476200D01*
X119287286Y-83497971D01*
X119166333Y-83497971D01*
X119069571Y-83476200D01*
X119021190Y-83454428D01*
X118997000Y-83432657D01*
X118972810Y-83389114D01*
X119142143Y-83040771D02*
X119480810Y-83040771D01*
X119190524Y-83040771D02*
X119166333Y-83018999D01*
X119142143Y-82975457D01*
X119142143Y-82910142D01*
X119166333Y-82866599D01*
X119214714Y-82844828D01*
X119480810Y-82844828D01*
X119214714Y-82474714D02*
X119214714Y-82627114D01*
X119480810Y-82627114D02*
X118972810Y-82627114D01*
X118972810Y-82409400D01*
D12*
X145133334Y-94057143D02*
X145085715Y-94104762D01*
X144942858Y-94152381D01*
X144847620Y-94152381D01*
X144704762Y-94104762D01*
X144609524Y-94009524D01*
X144561905Y-93914286D01*
X144514286Y-93723810D01*
X144514286Y-93580952D01*
X144561905Y-93390476D01*
X144609524Y-93295238D01*
X144704762Y-93200000D01*
X144847620Y-93152381D01*
X144942858Y-93152381D01*
X145085715Y-93200000D01*
X145133334Y-93247619D01*
X145466667Y-93152381D02*
X146133334Y-93152381D01*
X145704762Y-94152381D01*
D15*
X144792428Y-92480810D02*
X144531171Y-92480810D01*
X144661799Y-92480810D02*
X144661799Y-91972810D01*
X144618256Y-92045381D01*
X144574714Y-92093762D01*
X144531171Y-92117952D01*
X145075457Y-91972810D02*
X145119000Y-91972810D01*
X145162543Y-91997000D01*
X145184314Y-92021190D01*
X145206085Y-92069571D01*
X145227857Y-92166333D01*
X145227857Y-92287286D01*
X145206085Y-92384048D01*
X145184314Y-92432429D01*
X145162543Y-92456619D01*
X145119000Y-92480810D01*
X145075457Y-92480810D01*
X145031914Y-92456619D01*
X145010143Y-92432429D01*
X144988371Y-92384048D01*
X144966600Y-92287286D01*
X144966600Y-92166333D01*
X144988371Y-92069571D01*
X145010143Y-92021190D01*
X145031914Y-91997000D01*
X145075457Y-91972810D01*
X145510886Y-91972810D02*
X145554429Y-91972810D01*
X145597972Y-91997000D01*
X145619743Y-92021190D01*
X145641514Y-92069571D01*
X145663286Y-92166333D01*
X145663286Y-92287286D01*
X145641514Y-92384048D01*
X145619743Y-92432429D01*
X145597972Y-92456619D01*
X145554429Y-92480810D01*
X145510886Y-92480810D01*
X145467343Y-92456619D01*
X145445572Y-92432429D01*
X145423800Y-92384048D01*
X145402029Y-92287286D01*
X145402029Y-92166333D01*
X145423800Y-92069571D01*
X145445572Y-92021190D01*
X145467343Y-91997000D01*
X145510886Y-91972810D01*
X145859229Y-92142143D02*
X145859229Y-92480810D01*
X145859229Y-92190524D02*
X145881001Y-92166333D01*
X145924543Y-92142143D01*
X145989858Y-92142143D01*
X146033401Y-92166333D01*
X146055172Y-92214714D01*
X146055172Y-92480810D01*
X146425286Y-92214714D02*
X146272886Y-92214714D01*
X146272886Y-92480810D02*
X146272886Y-91972810D01*
X146490600Y-91972810D01*
D12*
X140133334Y-84757143D02*
X140085715Y-84804762D01*
X139942858Y-84852381D01*
X139847620Y-84852381D01*
X139704762Y-84804762D01*
X139609524Y-84709524D01*
X139561905Y-84614286D01*
X139514286Y-84423810D01*
X139514286Y-84280952D01*
X139561905Y-84090476D01*
X139609524Y-83995238D01*
X139704762Y-83900000D01*
X139847620Y-83852381D01*
X139942858Y-83852381D01*
X140085715Y-83900000D01*
X140133334Y-83947619D01*
X140704762Y-84280952D02*
X140609524Y-84233333D01*
X140561905Y-84185714D01*
X140514286Y-84090476D01*
X140514286Y-84042857D01*
X140561905Y-83947619D01*
X140609524Y-83900000D01*
X140704762Y-83852381D01*
X140895239Y-83852381D01*
X140990477Y-83900000D01*
X141038096Y-83947619D01*
X141085715Y-84042857D01*
X141085715Y-84090476D01*
X141038096Y-84185714D01*
X140990477Y-84233333D01*
X140895239Y-84280952D01*
X140704762Y-84280952D01*
X140609524Y-84328571D01*
X140561905Y-84376190D01*
X140514286Y-84471429D01*
X140514286Y-84661905D01*
X140561905Y-84757143D01*
X140609524Y-84804762D01*
X140704762Y-84852381D01*
X140895239Y-84852381D01*
X140990477Y-84804762D01*
X141038096Y-84757143D01*
X141085715Y-84661905D01*
X141085715Y-84471429D01*
X141038096Y-84376190D01*
X140990477Y-84328571D01*
X140895239Y-84280952D01*
D15*
X139810143Y-88280810D02*
X139548886Y-88280810D01*
X139679514Y-88280810D02*
X139679514Y-87772810D01*
X139635971Y-87845381D01*
X139592429Y-87893762D01*
X139548886Y-87917952D01*
X140093172Y-87772810D02*
X140136715Y-87772810D01*
X140180258Y-87797000D01*
X140202029Y-87821190D01*
X140223800Y-87869571D01*
X140245572Y-87966333D01*
X140245572Y-88087286D01*
X140223800Y-88184048D01*
X140202029Y-88232429D01*
X140180258Y-88256619D01*
X140136715Y-88280810D01*
X140093172Y-88280810D01*
X140049629Y-88256619D01*
X140027858Y-88232429D01*
X140006086Y-88184048D01*
X139984315Y-88087286D01*
X139984315Y-87966333D01*
X140006086Y-87869571D01*
X140027858Y-87821190D01*
X140049629Y-87797000D01*
X140093172Y-87772810D01*
X140441515Y-87942143D02*
X140441515Y-88450143D01*
X140441515Y-87966333D02*
X140485058Y-87942143D01*
X140572144Y-87942143D01*
X140615687Y-87966333D01*
X140637458Y-87990524D01*
X140659229Y-88038905D01*
X140659229Y-88184048D01*
X140637458Y-88232429D01*
X140615687Y-88256619D01*
X140572144Y-88280810D01*
X140485058Y-88280810D01*
X140441515Y-88256619D01*
X141007572Y-88014714D02*
X140855172Y-88014714D01*
X140855172Y-88280810D02*
X140855172Y-87772810D01*
X141072886Y-87772810D01*
D12*
X137923334Y-84417143D02*
X137875715Y-84464762D01*
X137732858Y-84512381D01*
X137637620Y-84512381D01*
X137494762Y-84464762D01*
X137399524Y-84369524D01*
X137351905Y-84274286D01*
X137304286Y-84083810D01*
X137304286Y-83940952D01*
X137351905Y-83750476D01*
X137399524Y-83655238D01*
X137494762Y-83560000D01*
X137637620Y-83512381D01*
X137732858Y-83512381D01*
X137875715Y-83560000D01*
X137923334Y-83607619D01*
X138399524Y-84512381D02*
X138590000Y-84512381D01*
X138685239Y-84464762D01*
X138732858Y-84417143D01*
X138828096Y-84274286D01*
X138875715Y-84083810D01*
X138875715Y-83702857D01*
X138828096Y-83607619D01*
X138780477Y-83560000D01*
X138685239Y-83512381D01*
X138494762Y-83512381D01*
X138399524Y-83560000D01*
X138351905Y-83607619D01*
X138304286Y-83702857D01*
X138304286Y-83940952D01*
X138351905Y-84036190D01*
X138399524Y-84083810D01*
X138494762Y-84131429D01*
X138685239Y-84131429D01*
X138780477Y-84083810D01*
X138828096Y-84036190D01*
X138875715Y-83940952D01*
D15*
X137600143Y-88289810D02*
X137338886Y-88289810D01*
X137469514Y-88289810D02*
X137469514Y-87781810D01*
X137425971Y-87854381D01*
X137382429Y-87902762D01*
X137338886Y-87926952D01*
X137883172Y-87781810D02*
X137926715Y-87781810D01*
X137970258Y-87806000D01*
X137992029Y-87830190D01*
X138013800Y-87878571D01*
X138035572Y-87975333D01*
X138035572Y-88096286D01*
X138013800Y-88193048D01*
X137992029Y-88241429D01*
X137970258Y-88265619D01*
X137926715Y-88289810D01*
X137883172Y-88289810D01*
X137839629Y-88265619D01*
X137817858Y-88241429D01*
X137796086Y-88193048D01*
X137774315Y-88096286D01*
X137774315Y-87975333D01*
X137796086Y-87878571D01*
X137817858Y-87830190D01*
X137839629Y-87806000D01*
X137883172Y-87781810D01*
X138231515Y-87951143D02*
X138231515Y-88459143D01*
X138231515Y-87975333D02*
X138275058Y-87951143D01*
X138362144Y-87951143D01*
X138405687Y-87975333D01*
X138427458Y-87999524D01*
X138449229Y-88047905D01*
X138449229Y-88193048D01*
X138427458Y-88241429D01*
X138405687Y-88265619D01*
X138362144Y-88289810D01*
X138275058Y-88289810D01*
X138231515Y-88265619D01*
X138797572Y-88023714D02*
X138645172Y-88023714D01*
X138645172Y-88289810D02*
X138645172Y-87781810D01*
X138862886Y-87781810D01*
D12*
X173857143Y-95857143D02*
X173809524Y-95904762D01*
X173666667Y-95952381D01*
X173571429Y-95952381D01*
X173428571Y-95904762D01*
X173333333Y-95809524D01*
X173285714Y-95714286D01*
X173238095Y-95523810D01*
X173238095Y-95380952D01*
X173285714Y-95190476D01*
X173333333Y-95095238D01*
X173428571Y-95000000D01*
X173571429Y-94952381D01*
X173666667Y-94952381D01*
X173809524Y-95000000D01*
X173857143Y-95047619D01*
X174809524Y-95952381D02*
X174238095Y-95952381D01*
X174523809Y-95952381D02*
X174523809Y-94952381D01*
X174428571Y-95095238D01*
X174333333Y-95190476D01*
X174238095Y-95238095D01*
X175428571Y-94952381D02*
X175523810Y-94952381D01*
X175619048Y-95000000D01*
X175666667Y-95047619D01*
X175714286Y-95142857D01*
X175761905Y-95333333D01*
X175761905Y-95571429D01*
X175714286Y-95761905D01*
X175666667Y-95857143D01*
X175619048Y-95904762D01*
X175523810Y-95952381D01*
X175428571Y-95952381D01*
X175333333Y-95904762D01*
X175285714Y-95857143D01*
X175238095Y-95761905D01*
X175190476Y-95571429D01*
X175190476Y-95333333D01*
X175238095Y-95142857D01*
X175285714Y-95047619D01*
X175333333Y-95000000D01*
X175428571Y-94952381D01*
D15*
X172819810Y-94317572D02*
X172819810Y-94578829D01*
X172819810Y-94448201D02*
X172311810Y-94448201D01*
X172384381Y-94491744D01*
X172432762Y-94535286D01*
X172456952Y-94578829D01*
X172311810Y-94034543D02*
X172311810Y-93991000D01*
X172336000Y-93947457D01*
X172360190Y-93925686D01*
X172408571Y-93903915D01*
X172505333Y-93882143D01*
X172626286Y-93882143D01*
X172723048Y-93903915D01*
X172771429Y-93925686D01*
X172795619Y-93947457D01*
X172819810Y-93991000D01*
X172819810Y-94034543D01*
X172795619Y-94078086D01*
X172771429Y-94099857D01*
X172723048Y-94121629D01*
X172626286Y-94143400D01*
X172505333Y-94143400D01*
X172408571Y-94121629D01*
X172360190Y-94099857D01*
X172336000Y-94078086D01*
X172311810Y-94034543D01*
X172311810Y-93599114D02*
X172311810Y-93555571D01*
X172336000Y-93512028D01*
X172360190Y-93490257D01*
X172408571Y-93468486D01*
X172505333Y-93446714D01*
X172626286Y-93446714D01*
X172723048Y-93468486D01*
X172771429Y-93490257D01*
X172795619Y-93512028D01*
X172819810Y-93555571D01*
X172819810Y-93599114D01*
X172795619Y-93642657D01*
X172771429Y-93664428D01*
X172723048Y-93686200D01*
X172626286Y-93707971D01*
X172505333Y-93707971D01*
X172408571Y-93686200D01*
X172360190Y-93664428D01*
X172336000Y-93642657D01*
X172311810Y-93599114D01*
X172481143Y-93250771D02*
X172819810Y-93250771D01*
X172529524Y-93250771D02*
X172505333Y-93228999D01*
X172481143Y-93185457D01*
X172481143Y-93120142D01*
X172505333Y-93076599D01*
X172553714Y-93054828D01*
X172819810Y-93054828D01*
X172553714Y-92684714D02*
X172553714Y-92837114D01*
X172819810Y-92837114D02*
X172311810Y-92837114D01*
X172311810Y-92619400D01*
D12*
X167257143Y-96257143D02*
X167209524Y-96304762D01*
X167066667Y-96352381D01*
X166971429Y-96352381D01*
X166828571Y-96304762D01*
X166733333Y-96209524D01*
X166685714Y-96114286D01*
X166638095Y-95923810D01*
X166638095Y-95780952D01*
X166685714Y-95590476D01*
X166733333Y-95495238D01*
X166828571Y-95400000D01*
X166971429Y-95352381D01*
X167066667Y-95352381D01*
X167209524Y-95400000D01*
X167257143Y-95447619D01*
X168209524Y-96352381D02*
X167638095Y-96352381D01*
X167923809Y-96352381D02*
X167923809Y-95352381D01*
X167828571Y-95495238D01*
X167733333Y-95590476D01*
X167638095Y-95638095D01*
X169161905Y-96352381D02*
X168590476Y-96352381D01*
X168876190Y-96352381D02*
X168876190Y-95352381D01*
X168780952Y-95495238D01*
X168685714Y-95590476D01*
X168590476Y-95638095D01*
D15*
X166378810Y-94507572D02*
X166378810Y-94768829D01*
X166378810Y-94638201D02*
X165870810Y-94638201D01*
X165943381Y-94681744D01*
X165991762Y-94725286D01*
X166015952Y-94768829D01*
X165870810Y-94224543D02*
X165870810Y-94181000D01*
X165895000Y-94137457D01*
X165919190Y-94115686D01*
X165967571Y-94093915D01*
X166064333Y-94072143D01*
X166185286Y-94072143D01*
X166282048Y-94093915D01*
X166330429Y-94115686D01*
X166354619Y-94137457D01*
X166378810Y-94181000D01*
X166378810Y-94224543D01*
X166354619Y-94268086D01*
X166330429Y-94289857D01*
X166282048Y-94311629D01*
X166185286Y-94333400D01*
X166064333Y-94333400D01*
X165967571Y-94311629D01*
X165919190Y-94289857D01*
X165895000Y-94268086D01*
X165870810Y-94224543D01*
X165870810Y-93789114D02*
X165870810Y-93745571D01*
X165895000Y-93702028D01*
X165919190Y-93680257D01*
X165967571Y-93658486D01*
X166064333Y-93636714D01*
X166185286Y-93636714D01*
X166282048Y-93658486D01*
X166330429Y-93680257D01*
X166354619Y-93702028D01*
X166378810Y-93745571D01*
X166378810Y-93789114D01*
X166354619Y-93832657D01*
X166330429Y-93854428D01*
X166282048Y-93876200D01*
X166185286Y-93897971D01*
X166064333Y-93897971D01*
X165967571Y-93876200D01*
X165919190Y-93854428D01*
X165895000Y-93832657D01*
X165870810Y-93789114D01*
X166040143Y-93440771D02*
X166378810Y-93440771D01*
X166088524Y-93440771D02*
X166064333Y-93418999D01*
X166040143Y-93375457D01*
X166040143Y-93310142D01*
X166064333Y-93266599D01*
X166112714Y-93244828D01*
X166378810Y-93244828D01*
X166112714Y-92874714D02*
X166112714Y-93027114D01*
X166378810Y-93027114D02*
X165870810Y-93027114D01*
X165870810Y-92809400D01*
D12*
X177607143Y-90807143D02*
X177559524Y-90854762D01*
X177416667Y-90902381D01*
X177321429Y-90902381D01*
X177178571Y-90854762D01*
X177083333Y-90759524D01*
X177035714Y-90664286D01*
X176988095Y-90473810D01*
X176988095Y-90330952D01*
X177035714Y-90140476D01*
X177083333Y-90045238D01*
X177178571Y-89950000D01*
X177321429Y-89902381D01*
X177416667Y-89902381D01*
X177559524Y-89950000D01*
X177607143Y-89997619D01*
X178559524Y-90902381D02*
X177988095Y-90902381D01*
X178273809Y-90902381D02*
X178273809Y-89902381D01*
X178178571Y-90045238D01*
X178083333Y-90140476D01*
X177988095Y-90188095D01*
X178940476Y-89997619D02*
X178988095Y-89950000D01*
X179083333Y-89902381D01*
X179321429Y-89902381D01*
X179416667Y-89950000D01*
X179464286Y-89997619D01*
X179511905Y-90092857D01*
X179511905Y-90188095D01*
X179464286Y-90330952D01*
X178892857Y-90902381D01*
X179511905Y-90902381D01*
D15*
X177542428Y-87028810D02*
X177281171Y-87028810D01*
X177411799Y-87028810D02*
X177411799Y-86520810D01*
X177368256Y-86593381D01*
X177324714Y-86641762D01*
X177281171Y-86665952D01*
X177825457Y-86520810D02*
X177869000Y-86520810D01*
X177912543Y-86545000D01*
X177934314Y-86569190D01*
X177956085Y-86617571D01*
X177977857Y-86714333D01*
X177977857Y-86835286D01*
X177956085Y-86932048D01*
X177934314Y-86980429D01*
X177912543Y-87004619D01*
X177869000Y-87028810D01*
X177825457Y-87028810D01*
X177781914Y-87004619D01*
X177760143Y-86980429D01*
X177738371Y-86932048D01*
X177716600Y-86835286D01*
X177716600Y-86714333D01*
X177738371Y-86617571D01*
X177760143Y-86569190D01*
X177781914Y-86545000D01*
X177825457Y-86520810D01*
X178260886Y-86520810D02*
X178304429Y-86520810D01*
X178347972Y-86545000D01*
X178369743Y-86569190D01*
X178391514Y-86617571D01*
X178413286Y-86714333D01*
X178413286Y-86835286D01*
X178391514Y-86932048D01*
X178369743Y-86980429D01*
X178347972Y-87004619D01*
X178304429Y-87028810D01*
X178260886Y-87028810D01*
X178217343Y-87004619D01*
X178195572Y-86980429D01*
X178173800Y-86932048D01*
X178152029Y-86835286D01*
X178152029Y-86714333D01*
X178173800Y-86617571D01*
X178195572Y-86569190D01*
X178217343Y-86545000D01*
X178260886Y-86520810D01*
X178609229Y-86690143D02*
X178609229Y-87028810D01*
X178609229Y-86738524D02*
X178631001Y-86714333D01*
X178674543Y-86690143D01*
X178739858Y-86690143D01*
X178783401Y-86714333D01*
X178805172Y-86762714D01*
X178805172Y-87028810D01*
X179175286Y-86762714D02*
X179022886Y-86762714D01*
X179022886Y-87028810D02*
X179022886Y-86520810D01*
X179240600Y-86520810D01*
D12*
X171417143Y-81297143D02*
X171369524Y-81344762D01*
X171226667Y-81392381D01*
X171131429Y-81392381D01*
X170988571Y-81344762D01*
X170893333Y-81249524D01*
X170845714Y-81154286D01*
X170798095Y-80963810D01*
X170798095Y-80820952D01*
X170845714Y-80630476D01*
X170893333Y-80535238D01*
X170988571Y-80440000D01*
X171131429Y-80392381D01*
X171226667Y-80392381D01*
X171369524Y-80440000D01*
X171417143Y-80487619D01*
X172369524Y-81392381D02*
X171798095Y-81392381D01*
X172083809Y-81392381D02*
X172083809Y-80392381D01*
X171988571Y-80535238D01*
X171893333Y-80630476D01*
X171798095Y-80678095D01*
X172702857Y-80392381D02*
X173321905Y-80392381D01*
X172988571Y-80773333D01*
X173131429Y-80773333D01*
X173226667Y-80820952D01*
X173274286Y-80868571D01*
X173321905Y-80963810D01*
X173321905Y-81201905D01*
X173274286Y-81297143D01*
X173226667Y-81344762D01*
X173131429Y-81392381D01*
X172845714Y-81392381D01*
X172750476Y-81344762D01*
X172702857Y-81297143D01*
D15*
X170378810Y-83707572D02*
X170378810Y-83968829D01*
X170378810Y-83838201D02*
X169870810Y-83838201D01*
X169943381Y-83881744D01*
X169991762Y-83925286D01*
X170015952Y-83968829D01*
X169870810Y-83424543D02*
X169870810Y-83381000D01*
X169895000Y-83337457D01*
X169919190Y-83315686D01*
X169967571Y-83293915D01*
X170064333Y-83272143D01*
X170185286Y-83272143D01*
X170282048Y-83293915D01*
X170330429Y-83315686D01*
X170354619Y-83337457D01*
X170378810Y-83381000D01*
X170378810Y-83424543D01*
X170354619Y-83468086D01*
X170330429Y-83489857D01*
X170282048Y-83511629D01*
X170185286Y-83533400D01*
X170064333Y-83533400D01*
X169967571Y-83511629D01*
X169919190Y-83489857D01*
X169895000Y-83468086D01*
X169870810Y-83424543D01*
X169870810Y-82989114D02*
X169870810Y-82945571D01*
X169895000Y-82902028D01*
X169919190Y-82880257D01*
X169967571Y-82858486D01*
X170064333Y-82836714D01*
X170185286Y-82836714D01*
X170282048Y-82858486D01*
X170330429Y-82880257D01*
X170354619Y-82902028D01*
X170378810Y-82945571D01*
X170378810Y-82989114D01*
X170354619Y-83032657D01*
X170330429Y-83054428D01*
X170282048Y-83076200D01*
X170185286Y-83097971D01*
X170064333Y-83097971D01*
X169967571Y-83076200D01*
X169919190Y-83054428D01*
X169895000Y-83032657D01*
X169870810Y-82989114D01*
X170040143Y-82640771D02*
X170378810Y-82640771D01*
X170088524Y-82640771D02*
X170064333Y-82618999D01*
X170040143Y-82575457D01*
X170040143Y-82510142D01*
X170064333Y-82466599D01*
X170112714Y-82444828D01*
X170378810Y-82444828D01*
X170112714Y-82074714D02*
X170112714Y-82227114D01*
X170378810Y-82227114D02*
X169870810Y-82227114D01*
X169870810Y-82009400D01*
D12*
X177057143Y-83857143D02*
X177009524Y-83904762D01*
X176866667Y-83952381D01*
X176771429Y-83952381D01*
X176628571Y-83904762D01*
X176533333Y-83809524D01*
X176485714Y-83714286D01*
X176438095Y-83523810D01*
X176438095Y-83380952D01*
X176485714Y-83190476D01*
X176533333Y-83095238D01*
X176628571Y-83000000D01*
X176771429Y-82952381D01*
X176866667Y-82952381D01*
X177009524Y-83000000D01*
X177057143Y-83047619D01*
X178009524Y-83952381D02*
X177438095Y-83952381D01*
X177723809Y-83952381D02*
X177723809Y-82952381D01*
X177628571Y-83095238D01*
X177533333Y-83190476D01*
X177438095Y-83238095D01*
X178866667Y-83285714D02*
X178866667Y-83952381D01*
X178628571Y-82904762D02*
X178390476Y-83619048D01*
X179009524Y-83619048D01*
D15*
X179480810Y-86207572D02*
X179480810Y-86468829D01*
X179480810Y-86338201D02*
X178972810Y-86338201D01*
X179045381Y-86381744D01*
X179093762Y-86425286D01*
X179117952Y-86468829D01*
X178972810Y-85924543D02*
X178972810Y-85881000D01*
X178997000Y-85837457D01*
X179021190Y-85815686D01*
X179069571Y-85793915D01*
X179166333Y-85772143D01*
X179287286Y-85772143D01*
X179384048Y-85793915D01*
X179432429Y-85815686D01*
X179456619Y-85837457D01*
X179480810Y-85881000D01*
X179480810Y-85924543D01*
X179456619Y-85968086D01*
X179432429Y-85989857D01*
X179384048Y-86011629D01*
X179287286Y-86033400D01*
X179166333Y-86033400D01*
X179069571Y-86011629D01*
X179021190Y-85989857D01*
X178997000Y-85968086D01*
X178972810Y-85924543D01*
X178972810Y-85489114D02*
X178972810Y-85445571D01*
X178997000Y-85402028D01*
X179021190Y-85380257D01*
X179069571Y-85358486D01*
X179166333Y-85336714D01*
X179287286Y-85336714D01*
X179384048Y-85358486D01*
X179432429Y-85380257D01*
X179456619Y-85402028D01*
X179480810Y-85445571D01*
X179480810Y-85489114D01*
X179456619Y-85532657D01*
X179432429Y-85554428D01*
X179384048Y-85576200D01*
X179287286Y-85597971D01*
X179166333Y-85597971D01*
X179069571Y-85576200D01*
X179021190Y-85554428D01*
X178997000Y-85532657D01*
X178972810Y-85489114D01*
X179142143Y-85140771D02*
X179480810Y-85140771D01*
X179190524Y-85140771D02*
X179166333Y-85118999D01*
X179142143Y-85075457D01*
X179142143Y-85010142D01*
X179166333Y-84966599D01*
X179214714Y-84944828D01*
X179480810Y-84944828D01*
X179214714Y-84574714D02*
X179214714Y-84727114D01*
X179480810Y-84727114D02*
X178972810Y-84727114D01*
X178972810Y-84509400D01*
D12*
X130071905Y-91162381D02*
X130071905Y-90162381D01*
X130310000Y-90162381D01*
X130452858Y-90210000D01*
X130548096Y-90305238D01*
X130595715Y-90400476D01*
X130643334Y-90590952D01*
X130643334Y-90733810D01*
X130595715Y-90924286D01*
X130548096Y-91019524D01*
X130452858Y-91114762D01*
X130310000Y-91162381D01*
X130071905Y-91162381D01*
X131595715Y-91162381D02*
X131024286Y-91162381D01*
X131310000Y-91162381D02*
X131310000Y-90162381D01*
X131214762Y-90305238D01*
X131119524Y-90400476D01*
X131024286Y-90448095D01*
X130071905Y-86082381D02*
X130071905Y-85082381D01*
X130310000Y-85082381D01*
X130452858Y-85130000D01*
X130548096Y-85225238D01*
X130595715Y-85320476D01*
X130643334Y-85510952D01*
X130643334Y-85653810D01*
X130595715Y-85844286D01*
X130548096Y-85939524D01*
X130452858Y-86034762D01*
X130310000Y-86082381D01*
X130071905Y-86082381D01*
X131024286Y-85177619D02*
X131071905Y-85130000D01*
X131167143Y-85082381D01*
X131405239Y-85082381D01*
X131500477Y-85130000D01*
X131548096Y-85177619D01*
X131595715Y-85272857D01*
X131595715Y-85368095D01*
X131548096Y-85510952D01*
X130976667Y-86082381D01*
X131595715Y-86082381D01*
X177766667Y-78152381D02*
X177766667Y-78866667D01*
X177719047Y-79009524D01*
X177623809Y-79104762D01*
X177480952Y-79152381D01*
X177385714Y-79152381D01*
X178766667Y-79152381D02*
X178195238Y-79152381D01*
X178480952Y-79152381D02*
X178480952Y-78152381D01*
X178385714Y-78295238D01*
X178290476Y-78390476D01*
X178195238Y-78438095D01*
X177366667Y-111352381D02*
X177366667Y-112066667D01*
X177319047Y-112209524D01*
X177223809Y-112304762D01*
X177080952Y-112352381D01*
X176985714Y-112352381D01*
X177795238Y-111447619D02*
X177842857Y-111400000D01*
X177938095Y-111352381D01*
X178176191Y-111352381D01*
X178271429Y-111400000D01*
X178319048Y-111447619D01*
X178366667Y-111542857D01*
X178366667Y-111638095D01*
X178319048Y-111780952D01*
X177747619Y-112352381D01*
X178366667Y-112352381D01*
X142133334Y-96652381D02*
X141657143Y-96652381D01*
X141657143Y-95652381D01*
X142990477Y-96652381D02*
X142419048Y-96652381D01*
X142704762Y-96652381D02*
X142704762Y-95652381D01*
X142609524Y-95795238D01*
X142514286Y-95890476D01*
X142419048Y-95938095D01*
X125833334Y-91252381D02*
X125500000Y-90776190D01*
X125261905Y-91252381D02*
X125261905Y-90252381D01*
X125642858Y-90252381D01*
X125738096Y-90300000D01*
X125785715Y-90347619D01*
X125833334Y-90442857D01*
X125833334Y-90585714D01*
X125785715Y-90680952D01*
X125738096Y-90728571D01*
X125642858Y-90776190D01*
X125261905Y-90776190D01*
X126785715Y-91252381D02*
X126214286Y-91252381D01*
X126500000Y-91252381D02*
X126500000Y-90252381D01*
X126404762Y-90395238D01*
X126309524Y-90490476D01*
X126214286Y-90538095D01*
D15*
X127320403Y-93058343D02*
X127659070Y-93058343D01*
X127126879Y-93167200D02*
X127489736Y-93276057D01*
X127489736Y-92993029D01*
X127151070Y-92862400D02*
X127151070Y-92557600D01*
X127659070Y-92753543D01*
X127151070Y-92296342D02*
X127151070Y-92252799D01*
X127175260Y-92209256D01*
X127199450Y-92187485D01*
X127247831Y-92165714D01*
X127344593Y-92143942D01*
X127465546Y-92143942D01*
X127562308Y-92165714D01*
X127610689Y-92187485D01*
X127634879Y-92209256D01*
X127659070Y-92252799D01*
X127659070Y-92296342D01*
X127634879Y-92339885D01*
X127610689Y-92361656D01*
X127562308Y-92383428D01*
X127465546Y-92405199D01*
X127344593Y-92405199D01*
X127247831Y-92383428D01*
X127199450Y-92361656D01*
X127175260Y-92339885D01*
X127151070Y-92296342D01*
D12*
X123133334Y-104852381D02*
X122800000Y-104376190D01*
X122561905Y-104852381D02*
X122561905Y-103852381D01*
X122942858Y-103852381D01*
X123038096Y-103900000D01*
X123085715Y-103947619D01*
X123133334Y-104042857D01*
X123133334Y-104185714D01*
X123085715Y-104280952D01*
X123038096Y-104328571D01*
X122942858Y-104376190D01*
X122561905Y-104376190D01*
X123514286Y-103947619D02*
X123561905Y-103900000D01*
X123657143Y-103852381D01*
X123895239Y-103852381D01*
X123990477Y-103900000D01*
X124038096Y-103947619D01*
X124085715Y-104042857D01*
X124085715Y-104138095D01*
X124038096Y-104280952D01*
X123466667Y-104852381D01*
X124085715Y-104852381D01*
D15*
X122613057Y-99670930D02*
X122634828Y-99646740D01*
X122678371Y-99622550D01*
X122787228Y-99622550D01*
X122830771Y-99646740D01*
X122852542Y-99670930D01*
X122874314Y-99719311D01*
X122874314Y-99767692D01*
X122852542Y-99840264D01*
X122591285Y-100130550D01*
X122874314Y-100130550D01*
X123048486Y-99670930D02*
X123070257Y-99646740D01*
X123113800Y-99622550D01*
X123222657Y-99622550D01*
X123266200Y-99646740D01*
X123287971Y-99670930D01*
X123309743Y-99719311D01*
X123309743Y-99767692D01*
X123287971Y-99840264D01*
X123026714Y-100130550D01*
X123309743Y-100130550D01*
X123505686Y-100130550D02*
X123505686Y-99622550D01*
X123766943Y-100130550D02*
X123571000Y-99840264D01*
X123766943Y-99622550D02*
X123505686Y-99912835D01*
D12*
X134733334Y-85252381D02*
X134400000Y-84776190D01*
X134161905Y-85252381D02*
X134161905Y-84252381D01*
X134542858Y-84252381D01*
X134638096Y-84300000D01*
X134685715Y-84347619D01*
X134733334Y-84442857D01*
X134733334Y-84585714D01*
X134685715Y-84680952D01*
X134638096Y-84728571D01*
X134542858Y-84776190D01*
X134161905Y-84776190D01*
X135066667Y-84252381D02*
X135685715Y-84252381D01*
X135352381Y-84633333D01*
X135495239Y-84633333D01*
X135590477Y-84680952D01*
X135638096Y-84728571D01*
X135685715Y-84823810D01*
X135685715Y-85061905D01*
X135638096Y-85157143D01*
X135590477Y-85204762D01*
X135495239Y-85252381D01*
X135209524Y-85252381D01*
X135114286Y-85204762D01*
X135066667Y-85157143D01*
D15*
X133570930Y-86976943D02*
X133546740Y-86955172D01*
X133522550Y-86911629D01*
X133522550Y-86802772D01*
X133546740Y-86759229D01*
X133570930Y-86737458D01*
X133619311Y-86715686D01*
X133667692Y-86715686D01*
X133740264Y-86737458D01*
X134030550Y-86998715D01*
X134030550Y-86715686D01*
X133570930Y-86541514D02*
X133546740Y-86519743D01*
X133522550Y-86476200D01*
X133522550Y-86367343D01*
X133546740Y-86323800D01*
X133570930Y-86302029D01*
X133619311Y-86280257D01*
X133667692Y-86280257D01*
X133740264Y-86302029D01*
X134030550Y-86563286D01*
X134030550Y-86280257D01*
X134030550Y-86084314D02*
X133522550Y-86084314D01*
X134030550Y-85823057D02*
X133740264Y-86019000D01*
X133522550Y-85823057D02*
X133812835Y-86084314D01*
D12*
X125633334Y-86152381D02*
X125300000Y-85676190D01*
X125061905Y-86152381D02*
X125061905Y-85152381D01*
X125442858Y-85152381D01*
X125538096Y-85200000D01*
X125585715Y-85247619D01*
X125633334Y-85342857D01*
X125633334Y-85485714D01*
X125585715Y-85580952D01*
X125538096Y-85628571D01*
X125442858Y-85676190D01*
X125061905Y-85676190D01*
X126490477Y-85485714D02*
X126490477Y-86152381D01*
X126252381Y-85104762D02*
X126014286Y-85819048D01*
X126633334Y-85819048D01*
D15*
X123921883Y-87978343D02*
X124260550Y-87978343D01*
X123728359Y-88087200D02*
X124091216Y-88196057D01*
X124091216Y-87913029D01*
X123752550Y-87782400D02*
X123752550Y-87477600D01*
X124260550Y-87673543D01*
X123752550Y-87216342D02*
X123752550Y-87172799D01*
X123776740Y-87129256D01*
X123800930Y-87107485D01*
X123849311Y-87085714D01*
X123946073Y-87063942D01*
X124067026Y-87063942D01*
X124163788Y-87085714D01*
X124212169Y-87107485D01*
X124236359Y-87129256D01*
X124260550Y-87172799D01*
X124260550Y-87216342D01*
X124236359Y-87259885D01*
X124212169Y-87281656D01*
X124163788Y-87303428D01*
X124067026Y-87325199D01*
X123946073Y-87325199D01*
X123849311Y-87303428D01*
X123800930Y-87281656D01*
X123776740Y-87259885D01*
X123752550Y-87216342D01*
D12*
X118532762Y-106753333D02*
X118580381Y-106610476D01*
X118580381Y-106372380D01*
X118532762Y-106277142D01*
X118485143Y-106229523D01*
X118389905Y-106181904D01*
X118294667Y-106181904D01*
X118199429Y-106229523D01*
X118151810Y-106277142D01*
X118104190Y-106372380D01*
X118056571Y-106562857D01*
X118008952Y-106658095D01*
X117961333Y-106705714D01*
X117866095Y-106753333D01*
X117770857Y-106753333D01*
X117675619Y-106705714D01*
X117628000Y-106658095D01*
X117580381Y-106562857D01*
X117580381Y-106324761D01*
X117628000Y-106181904D01*
X117580381Y-105848571D02*
X118580381Y-105610476D01*
X117866095Y-105419999D01*
X118580381Y-105229523D01*
X117580381Y-104991428D01*
X118580381Y-104086666D02*
X118580381Y-104658095D01*
X118580381Y-104372381D02*
X117580381Y-104372381D01*
X117723238Y-104467619D01*
X117818476Y-104562857D01*
X117866095Y-104658095D01*
X152738095Y-88752381D02*
X152738095Y-89561905D01*
X152785714Y-89657143D01*
X152833333Y-89704762D01*
X152928571Y-89752381D01*
X153119048Y-89752381D01*
X153214286Y-89704762D01*
X153261905Y-89657143D01*
X153309524Y-89561905D01*
X153309524Y-88752381D01*
X154309524Y-89752381D02*
X153738095Y-89752381D01*
X154023809Y-89752381D02*
X154023809Y-88752381D01*
X153928571Y-88895238D01*
X153833333Y-88990476D01*
X153738095Y-89038095D01*
X148092809Y-87365190D02*
X148092809Y-87841381D01*
X147759476Y-86841381D02*
X148092809Y-87365190D01*
X148426143Y-86841381D01*
X149283286Y-87841381D02*
X148711857Y-87841381D01*
X148997571Y-87841381D02*
X148997571Y-86841381D01*
X148902333Y-86984238D01*
X148807095Y-87079476D01*
X148711857Y-87127095D01*
X171982381Y-97933333D02*
X172696667Y-97933333D01*
X172839524Y-97980953D01*
X172934762Y-98076191D01*
X172982381Y-98219048D01*
X172982381Y-98314286D01*
X171982381Y-97552381D02*
X171982381Y-96933333D01*
X172363333Y-97266667D01*
X172363333Y-97123809D01*
X172410952Y-97028571D01*
X172458571Y-96980952D01*
X172553810Y-96933333D01*
X172791905Y-96933333D01*
X172887143Y-96980952D01*
X172934762Y-97028571D01*
X172982381Y-97123809D01*
X172982381Y-97409524D01*
X172934762Y-97504762D01*
X172887143Y-97552381D01*
X118536667Y-101052381D02*
X118536667Y-101766667D01*
X118489047Y-101909524D01*
X118393809Y-102004762D01*
X118250952Y-102052381D01*
X118155714Y-102052381D01*
X119441429Y-101385714D02*
X119441429Y-102052381D01*
X119203333Y-101004762D02*
X118965238Y-101719048D01*
X119584286Y-101719048D01*
X123026667Y-98228571D02*
X123169524Y-98276190D01*
X123217143Y-98323810D01*
X123264762Y-98419048D01*
X123264762Y-98561905D01*
X123217143Y-98657143D01*
X123169524Y-98704762D01*
X123074286Y-98752381D01*
X122693333Y-98752381D01*
X122693333Y-97752381D01*
X123026667Y-97752381D01*
X123121905Y-97800000D01*
X123169524Y-97847619D01*
X123217143Y-97942857D01*
X123217143Y-98038095D01*
X123169524Y-98133333D01*
X123121905Y-98180952D01*
X123026667Y-98228571D01*
X122693333Y-98228571D01*
X123883809Y-97752381D02*
X124074286Y-97752381D01*
X124169524Y-97800000D01*
X124264762Y-97895238D01*
X124312381Y-98085714D01*
X124312381Y-98419048D01*
X124264762Y-98609524D01*
X124169524Y-98704762D01*
X124074286Y-98752381D01*
X123883809Y-98752381D01*
X123788571Y-98704762D01*
X123693333Y-98609524D01*
X123645714Y-98419048D01*
X123645714Y-98085714D01*
X123693333Y-97895238D01*
X123788571Y-97800000D01*
X123883809Y-97752381D01*
X124931428Y-97752381D02*
X125121905Y-97752381D01*
X125217143Y-97800000D01*
X125312381Y-97895238D01*
X125360000Y-98085714D01*
X125360000Y-98419048D01*
X125312381Y-98609524D01*
X125217143Y-98704762D01*
X125121905Y-98752381D01*
X124931428Y-98752381D01*
X124836190Y-98704762D01*
X124740952Y-98609524D01*
X124693333Y-98419048D01*
X124693333Y-98085714D01*
X124740952Y-97895238D01*
X124836190Y-97800000D01*
X124931428Y-97752381D01*
X125645714Y-97752381D02*
X126217143Y-97752381D01*
X125931428Y-98752381D02*
X125931428Y-97752381D01*
X127074286Y-98752381D02*
X126502857Y-98752381D01*
X126788571Y-98752381D02*
X126788571Y-97752381D01*
X126693333Y-97895238D01*
X126598095Y-97990476D01*
X126502857Y-98038095D01*
X121152381Y-96666666D02*
X120676190Y-97000000D01*
X121152381Y-97238095D02*
X120152381Y-97238095D01*
X120152381Y-96857142D01*
X120200000Y-96761904D01*
X120247619Y-96714285D01*
X120342857Y-96666666D01*
X120485714Y-96666666D01*
X120580952Y-96714285D01*
X120628571Y-96761904D01*
X120676190Y-96857142D01*
X120676190Y-97238095D01*
X120152381Y-95761904D02*
X120152381Y-96238095D01*
X120628571Y-96285714D01*
X120580952Y-96238095D01*
X120533333Y-96142857D01*
X120533333Y-95904761D01*
X120580952Y-95809523D01*
X120628571Y-95761904D01*
X120723810Y-95714285D01*
X120961905Y-95714285D01*
X121057143Y-95761904D01*
X121104762Y-95809523D01*
X121152381Y-95904761D01*
X121152381Y-96142857D01*
X121104762Y-96238095D01*
X121057143Y-96285714D01*
D15*
X116180930Y-97096943D02*
X116156740Y-97075172D01*
X116132550Y-97031629D01*
X116132550Y-96922772D01*
X116156740Y-96879229D01*
X116180930Y-96857458D01*
X116229311Y-96835686D01*
X116277692Y-96835686D01*
X116350264Y-96857458D01*
X116640550Y-97118715D01*
X116640550Y-96835686D01*
X116180930Y-96661514D02*
X116156740Y-96639743D01*
X116132550Y-96596200D01*
X116132550Y-96487343D01*
X116156740Y-96443800D01*
X116180930Y-96422029D01*
X116229311Y-96400257D01*
X116277692Y-96400257D01*
X116350264Y-96422029D01*
X116640550Y-96683286D01*
X116640550Y-96400257D01*
X116640550Y-96204314D02*
X116132550Y-96204314D01*
X116640550Y-95943057D02*
X116350264Y-96139000D01*
X116132550Y-95943057D02*
X116422835Y-96204314D01*
D12*
X118066667Y-90904762D02*
X118209524Y-90952381D01*
X118447620Y-90952381D01*
X118542858Y-90904762D01*
X118590477Y-90857143D01*
X118638096Y-90761905D01*
X118638096Y-90666667D01*
X118590477Y-90571429D01*
X118542858Y-90523810D01*
X118447620Y-90476190D01*
X118257143Y-90428571D01*
X118161905Y-90380952D01*
X118114286Y-90333333D01*
X118066667Y-90238095D01*
X118066667Y-90142857D01*
X118114286Y-90047619D01*
X118161905Y-90000000D01*
X118257143Y-89952381D01*
X118495239Y-89952381D01*
X118638096Y-90000000D01*
X118971429Y-89952381D02*
X119209524Y-90952381D01*
X119400001Y-90238095D01*
X119590477Y-90952381D01*
X119828572Y-89952381D01*
X120161905Y-90047619D02*
X120209524Y-90000000D01*
X120304762Y-89952381D01*
X120542858Y-89952381D01*
X120638096Y-90000000D01*
X120685715Y-90047619D01*
X120733334Y-90142857D01*
X120733334Y-90238095D01*
X120685715Y-90380952D01*
X120114286Y-90952381D01*
X120733334Y-90952381D01*
X150757143Y-109842857D02*
X150804762Y-109890476D01*
X150852381Y-110033333D01*
X150852381Y-110128571D01*
X150804762Y-110271429D01*
X150709524Y-110366667D01*
X150614286Y-110414286D01*
X150423810Y-110461905D01*
X150280952Y-110461905D01*
X150090476Y-110414286D01*
X149995238Y-110366667D01*
X149900000Y-110271429D01*
X149852381Y-110128571D01*
X149852381Y-110033333D01*
X149900000Y-109890476D01*
X149947619Y-109842857D01*
X150852381Y-108890476D02*
X150852381Y-109461905D01*
X150852381Y-109176191D02*
X149852381Y-109176191D01*
X149995238Y-109271429D01*
X150090476Y-109366667D01*
X150138095Y-109461905D01*
X149852381Y-107985714D02*
X149852381Y-108461905D01*
X150328571Y-108509524D01*
X150280952Y-108461905D01*
X150233333Y-108366667D01*
X150233333Y-108128571D01*
X150280952Y-108033333D01*
X150328571Y-107985714D01*
X150423810Y-107938095D01*
X150661905Y-107938095D01*
X150757143Y-107985714D01*
X150804762Y-108033333D01*
X150852381Y-108128571D01*
X150852381Y-108366667D01*
X150804762Y-108461905D01*
X150757143Y-108509524D01*
D15*
X153821190Y-110059971D02*
X153797000Y-110038200D01*
X153772810Y-109994657D01*
X153772810Y-109885800D01*
X153797000Y-109842257D01*
X153821190Y-109820486D01*
X153869571Y-109798714D01*
X153917952Y-109798714D01*
X153990524Y-109820486D01*
X154280810Y-110081743D01*
X154280810Y-109798714D01*
X154232429Y-109602771D02*
X154256619Y-109580999D01*
X154280810Y-109602771D01*
X154256619Y-109624542D01*
X154232429Y-109602771D01*
X154280810Y-109602771D01*
X153821190Y-109406828D02*
X153797000Y-109385057D01*
X153772810Y-109341514D01*
X153772810Y-109232657D01*
X153797000Y-109189114D01*
X153821190Y-109167343D01*
X153869571Y-109145571D01*
X153917952Y-109145571D01*
X153990524Y-109167343D01*
X154280810Y-109428600D01*
X154280810Y-109145571D01*
X153942143Y-108753685D02*
X154280810Y-108753685D01*
X153942143Y-108949628D02*
X154208238Y-108949628D01*
X154256619Y-108927856D01*
X154280810Y-108884314D01*
X154280810Y-108818999D01*
X154256619Y-108775456D01*
X154232429Y-108753685D01*
X154014714Y-108383571D02*
X154014714Y-108535971D01*
X154280810Y-108535971D02*
X153772810Y-108535971D01*
X153772810Y-108318257D01*
D12*
X161957143Y-90642857D02*
X162004762Y-90690476D01*
X162052381Y-90833333D01*
X162052381Y-90928571D01*
X162004762Y-91071429D01*
X161909524Y-91166667D01*
X161814286Y-91214286D01*
X161623810Y-91261905D01*
X161480952Y-91261905D01*
X161290476Y-91214286D01*
X161195238Y-91166667D01*
X161100000Y-91071429D01*
X161052381Y-90928571D01*
X161052381Y-90833333D01*
X161100000Y-90690476D01*
X161147619Y-90642857D01*
X162052381Y-89690476D02*
X162052381Y-90261905D01*
X162052381Y-89976191D02*
X161052381Y-89976191D01*
X161195238Y-90071429D01*
X161290476Y-90166667D01*
X161338095Y-90261905D01*
X161052381Y-88833333D02*
X161052381Y-89023810D01*
X161100000Y-89119048D01*
X161147619Y-89166667D01*
X161290476Y-89261905D01*
X161480952Y-89309524D01*
X161861905Y-89309524D01*
X161957143Y-89261905D01*
X162004762Y-89214286D01*
X162052381Y-89119048D01*
X162052381Y-88928571D01*
X162004762Y-88833333D01*
X161957143Y-88785714D01*
X161861905Y-88738095D01*
X161623810Y-88738095D01*
X161528571Y-88785714D01*
X161480952Y-88833333D01*
X161433333Y-88928571D01*
X161433333Y-89119048D01*
X161480952Y-89214286D01*
X161528571Y-89261905D01*
X161623810Y-89309524D01*
D15*
X157719190Y-90859971D02*
X157695000Y-90838200D01*
X157670810Y-90794657D01*
X157670810Y-90685800D01*
X157695000Y-90642257D01*
X157719190Y-90620486D01*
X157767571Y-90598714D01*
X157815952Y-90598714D01*
X157888524Y-90620486D01*
X158178810Y-90881743D01*
X158178810Y-90598714D01*
X158130429Y-90402771D02*
X158154619Y-90380999D01*
X158178810Y-90402771D01*
X158154619Y-90424542D01*
X158130429Y-90402771D01*
X158178810Y-90402771D01*
X157719190Y-90206828D02*
X157695000Y-90185057D01*
X157670810Y-90141514D01*
X157670810Y-90032657D01*
X157695000Y-89989114D01*
X157719190Y-89967343D01*
X157767571Y-89945571D01*
X157815952Y-89945571D01*
X157888524Y-89967343D01*
X158178810Y-90228600D01*
X158178810Y-89945571D01*
X157840143Y-89553685D02*
X158178810Y-89553685D01*
X157840143Y-89749628D02*
X158106238Y-89749628D01*
X158154619Y-89727856D01*
X158178810Y-89684314D01*
X158178810Y-89618999D01*
X158154619Y-89575456D01*
X158130429Y-89553685D01*
X157912714Y-89183571D02*
X157912714Y-89335971D01*
X158178810Y-89335971D02*
X157670810Y-89335971D01*
X157670810Y-89118257D01*
D12*
X170038095Y-92452381D02*
X170038095Y-93261905D01*
X170085714Y-93357143D01*
X170133333Y-93404762D01*
X170228571Y-93452381D01*
X170419048Y-93452381D01*
X170514286Y-93404762D01*
X170561905Y-93357143D01*
X170609524Y-93261905D01*
X170609524Y-92452381D01*
X171038095Y-92547619D02*
X171085714Y-92500000D01*
X171180952Y-92452381D01*
X171419048Y-92452381D01*
X171514286Y-92500000D01*
X171561905Y-92547619D01*
X171609524Y-92642857D01*
X171609524Y-92738095D01*
X171561905Y-92880952D01*
X170990476Y-93452381D01*
X171609524Y-93452381D01*
M02*
