G04 #@! TF.FileFunction,Soldermask,Top*
%FSLAX46Y46*%
G04 Gerber Fmt 4.6, Leading zero omitted, Abs format (unit mm)*
G04 Created by KiCad (PCBNEW 4.0.7-e2-6376~58~ubuntu14.04.1) date Thu Jan 18 15:12:55 2018*
%MOMM*%
%LPD*%
G01*
G04 APERTURE LIST*
%ADD10C,0.100000*%
%ADD11R,0.635000X1.143000*%
%ADD12R,1.524000X1.824000*%
%ADD13O,1.524000X1.824000*%
%ADD14C,1.400000*%
%ADD15O,3.014980X1.506220*%
%ADD16C,1.270000*%
%ADD17R,1.399540X0.350520*%
%ADD18R,1.000000X0.250000*%
%ADD19R,0.250000X1.000000*%
%ADD20C,1.397000*%
%ADD21R,1.143000X0.635000*%
%ADD22R,1.500000X1.300000*%
%ADD23R,1.727200X2.032000*%
%ADD24O,1.727200X2.032000*%
%ADD25R,1.597660X1.800860*%
%ADD26R,1.524000X2.032000*%
%ADD27C,1.501140*%
G04 APERTURE END LIST*
D10*
D11*
X158838000Y-48000000D03*
X160362000Y-48000000D03*
X153162000Y-67200000D03*
X151638000Y-67200000D03*
D12*
X122000000Y-46000000D03*
D13*
X122000000Y-51080000D03*
X119460000Y-46000000D03*
X119460000Y-51080000D03*
X116920000Y-46000000D03*
X116920000Y-51080000D03*
D11*
X117348000Y-54520000D03*
X118872000Y-54520000D03*
D14*
X120870000Y-57060000D03*
X118870000Y-57060000D03*
X116870000Y-57060000D03*
D15*
X176530000Y-55790000D03*
X176530000Y-63410000D03*
X176530000Y-60870000D03*
X176530000Y-58330000D03*
D16*
X142600000Y-45770000D03*
X142600000Y-43230000D03*
D17*
X169114720Y-44544160D03*
X169114720Y-45194400D03*
X169114720Y-45844640D03*
X169114720Y-46494880D03*
X169114720Y-47145120D03*
X169114720Y-47795360D03*
X169114720Y-48445600D03*
X169114720Y-49095840D03*
X174865280Y-49095840D03*
X174865280Y-48445600D03*
X174865280Y-47795360D03*
X174865280Y-47145120D03*
X174865280Y-46494880D03*
X174865280Y-45844640D03*
X174865280Y-45194400D03*
X174865280Y-44544160D03*
D18*
X147800000Y-50750000D03*
X147800000Y-51250000D03*
X147800000Y-51750000D03*
X147800000Y-52250000D03*
X147800000Y-52750000D03*
X147800000Y-53250000D03*
X147800000Y-53750000D03*
X147800000Y-54250000D03*
X147800000Y-54750000D03*
X147800000Y-55250000D03*
X147800000Y-55750000D03*
X147800000Y-56250000D03*
X147800000Y-56750000D03*
X147800000Y-57250000D03*
X147800000Y-57750000D03*
X147800000Y-58250000D03*
D19*
X149750000Y-60200000D03*
X150250000Y-60200000D03*
X150750000Y-60200000D03*
X151250000Y-60200000D03*
X151750000Y-60200000D03*
X152250000Y-60200000D03*
X152750000Y-60200000D03*
X153250000Y-60200000D03*
X153750000Y-60200000D03*
X154250000Y-60200000D03*
X154750000Y-60200000D03*
X155250000Y-60200000D03*
X155750000Y-60200000D03*
X156250000Y-60200000D03*
X156750000Y-60200000D03*
X157250000Y-60200000D03*
D18*
X159200000Y-58250000D03*
X159200000Y-57750000D03*
X159200000Y-57250000D03*
X159200000Y-56750000D03*
X159200000Y-56250000D03*
X159200000Y-55750000D03*
X159200000Y-55250000D03*
X159200000Y-54750000D03*
X159200000Y-54250000D03*
X159200000Y-53750000D03*
X159200000Y-53250000D03*
X159200000Y-52750000D03*
X159200000Y-52250000D03*
X159200000Y-51750000D03*
X159200000Y-51250000D03*
X159200000Y-50750000D03*
D19*
X157250000Y-48800000D03*
X156750000Y-48800000D03*
X156250000Y-48800000D03*
X155750000Y-48800000D03*
X155250000Y-48800000D03*
X154750000Y-48800000D03*
X154250000Y-48800000D03*
X153750000Y-48800000D03*
X153250000Y-48800000D03*
X152750000Y-48800000D03*
X152250000Y-48800000D03*
X151750000Y-48800000D03*
X151250000Y-48800000D03*
X150750000Y-48800000D03*
X150250000Y-48800000D03*
X149750000Y-48800000D03*
D20*
X116690000Y-60420000D03*
X121090000Y-60420000D03*
X116690000Y-66420000D03*
X121090000Y-66420000D03*
D11*
X124968000Y-45630000D03*
X126492000Y-45630000D03*
X134738000Y-44400000D03*
X136262000Y-44400000D03*
D21*
X123190000Y-58838000D03*
X123190000Y-60362000D03*
D11*
X126492000Y-50710000D03*
X124968000Y-50710000D03*
D22*
X137250000Y-54400000D03*
X139950000Y-54400000D03*
D23*
X177800000Y-72300000D03*
D24*
X175260000Y-72300000D03*
X172720000Y-72300000D03*
X170180000Y-72300000D03*
X167640000Y-72300000D03*
X165100000Y-72300000D03*
X162560000Y-72300000D03*
X160020000Y-72300000D03*
X157480000Y-72300000D03*
X154940000Y-72300000D03*
X152400000Y-72300000D03*
X149860000Y-72300000D03*
X147320000Y-72300000D03*
X144780000Y-72300000D03*
X142240000Y-72300000D03*
X139700000Y-72300000D03*
X137160000Y-72300000D03*
X134620000Y-72300000D03*
X132080000Y-72300000D03*
X129540000Y-72300000D03*
X127000000Y-72300000D03*
X124460000Y-72300000D03*
X121920000Y-72300000D03*
X119380000Y-72300000D03*
X116840000Y-72300000D03*
D23*
X177800000Y-34200000D03*
D24*
X175260000Y-34200000D03*
X172720000Y-34200000D03*
X170180000Y-34200000D03*
X167640000Y-34200000D03*
X165100000Y-34200000D03*
X162560000Y-34200000D03*
X160020000Y-34200000D03*
X157480000Y-34200000D03*
X154940000Y-34200000D03*
X152400000Y-34200000D03*
X149860000Y-34200000D03*
X147320000Y-34200000D03*
X144780000Y-34200000D03*
X142240000Y-34200000D03*
X139700000Y-34200000D03*
X137160000Y-34200000D03*
X134620000Y-34200000D03*
X132080000Y-34200000D03*
X129540000Y-34200000D03*
X127000000Y-34200000D03*
X124460000Y-34200000D03*
X121920000Y-34200000D03*
X119380000Y-34200000D03*
X116840000Y-34200000D03*
D25*
X132229860Y-45630000D03*
X129390140Y-45630000D03*
X132229860Y-50710000D03*
X129390140Y-50710000D03*
D11*
X178362000Y-43500000D03*
X176838000Y-43500000D03*
X170988000Y-42950000D03*
X172512000Y-42950000D03*
D21*
X178250000Y-45688000D03*
X178250000Y-47212000D03*
D11*
X167038000Y-50800000D03*
X168562000Y-50800000D03*
X175662000Y-50800000D03*
X174138000Y-50800000D03*
D21*
X138300000Y-43638000D03*
X138300000Y-45162000D03*
X140300000Y-45162000D03*
X140300000Y-43638000D03*
X145500000Y-49362000D03*
X145500000Y-47838000D03*
D11*
X118362000Y-41400000D03*
X116838000Y-41400000D03*
X138338000Y-56800000D03*
X139862000Y-56800000D03*
D26*
X116649000Y-39000000D03*
X119951000Y-39000000D03*
X139851000Y-59300000D03*
X136549000Y-59300000D03*
D11*
X138262000Y-51500000D03*
X136738000Y-51500000D03*
X136738000Y-46800000D03*
X138262000Y-46800000D03*
D27*
X131000000Y-57559060D03*
X131000000Y-62440940D03*
D11*
X136738000Y-49400000D03*
X138262000Y-49400000D03*
X136738000Y-91400000D03*
X138262000Y-91400000D03*
D27*
X131000000Y-99559060D03*
X131000000Y-104440940D03*
D11*
X136738000Y-88800000D03*
X138262000Y-88800000D03*
X138262000Y-93500000D03*
X136738000Y-93500000D03*
D26*
X139851000Y-101300000D03*
X136549000Y-101300000D03*
X116649000Y-81000000D03*
X119951000Y-81000000D03*
D11*
X138338000Y-98800000D03*
X139862000Y-98800000D03*
X118362000Y-83400000D03*
X116838000Y-83400000D03*
D21*
X145500000Y-91362000D03*
X145500000Y-89838000D03*
X140300000Y-87162000D03*
X140300000Y-85638000D03*
X138300000Y-85638000D03*
X138300000Y-87162000D03*
D11*
X175662000Y-92800000D03*
X174138000Y-92800000D03*
X167038000Y-92800000D03*
X168562000Y-92800000D03*
D21*
X178250000Y-87688000D03*
X178250000Y-89212000D03*
D11*
X170988000Y-84950000D03*
X172512000Y-84950000D03*
X178362000Y-85500000D03*
X176838000Y-85500000D03*
D25*
X132229860Y-92710000D03*
X129390140Y-92710000D03*
X132229860Y-87630000D03*
X129390140Y-87630000D03*
D23*
X177800000Y-76200000D03*
D24*
X175260000Y-76200000D03*
X172720000Y-76200000D03*
X170180000Y-76200000D03*
X167640000Y-76200000D03*
X165100000Y-76200000D03*
X162560000Y-76200000D03*
X160020000Y-76200000D03*
X157480000Y-76200000D03*
X154940000Y-76200000D03*
X152400000Y-76200000D03*
X149860000Y-76200000D03*
X147320000Y-76200000D03*
X144780000Y-76200000D03*
X142240000Y-76200000D03*
X139700000Y-76200000D03*
X137160000Y-76200000D03*
X134620000Y-76200000D03*
X132080000Y-76200000D03*
X129540000Y-76200000D03*
X127000000Y-76200000D03*
X124460000Y-76200000D03*
X121920000Y-76200000D03*
X119380000Y-76200000D03*
X116840000Y-76200000D03*
D23*
X177800000Y-114300000D03*
D24*
X175260000Y-114300000D03*
X172720000Y-114300000D03*
X170180000Y-114300000D03*
X167640000Y-114300000D03*
X165100000Y-114300000D03*
X162560000Y-114300000D03*
X160020000Y-114300000D03*
X157480000Y-114300000D03*
X154940000Y-114300000D03*
X152400000Y-114300000D03*
X149860000Y-114300000D03*
X147320000Y-114300000D03*
X144780000Y-114300000D03*
X142240000Y-114300000D03*
X139700000Y-114300000D03*
X137160000Y-114300000D03*
X134620000Y-114300000D03*
X132080000Y-114300000D03*
X129540000Y-114300000D03*
X127000000Y-114300000D03*
X124460000Y-114300000D03*
X121920000Y-114300000D03*
X119380000Y-114300000D03*
X116840000Y-114300000D03*
D22*
X137250000Y-96400000D03*
X139950000Y-96400000D03*
D11*
X126492000Y-92710000D03*
X124968000Y-92710000D03*
D21*
X123190000Y-100838000D03*
X123190000Y-102362000D03*
D11*
X134738000Y-86400000D03*
X136262000Y-86400000D03*
X124968000Y-87630000D03*
X126492000Y-87630000D03*
D20*
X116690000Y-102420000D03*
X121090000Y-102420000D03*
X116690000Y-108420000D03*
X121090000Y-108420000D03*
D18*
X147800000Y-92750000D03*
X147800000Y-93250000D03*
X147800000Y-93750000D03*
X147800000Y-94250000D03*
X147800000Y-94750000D03*
X147800000Y-95250000D03*
X147800000Y-95750000D03*
X147800000Y-96250000D03*
X147800000Y-96750000D03*
X147800000Y-97250000D03*
X147800000Y-97750000D03*
X147800000Y-98250000D03*
X147800000Y-98750000D03*
X147800000Y-99250000D03*
X147800000Y-99750000D03*
X147800000Y-100250000D03*
D19*
X149750000Y-102200000D03*
X150250000Y-102200000D03*
X150750000Y-102200000D03*
X151250000Y-102200000D03*
X151750000Y-102200000D03*
X152250000Y-102200000D03*
X152750000Y-102200000D03*
X153250000Y-102200000D03*
X153750000Y-102200000D03*
X154250000Y-102200000D03*
X154750000Y-102200000D03*
X155250000Y-102200000D03*
X155750000Y-102200000D03*
X156250000Y-102200000D03*
X156750000Y-102200000D03*
X157250000Y-102200000D03*
D18*
X159200000Y-100250000D03*
X159200000Y-99750000D03*
X159200000Y-99250000D03*
X159200000Y-98750000D03*
X159200000Y-98250000D03*
X159200000Y-97750000D03*
X159200000Y-97250000D03*
X159200000Y-96750000D03*
X159200000Y-96250000D03*
X159200000Y-95750000D03*
X159200000Y-95250000D03*
X159200000Y-94750000D03*
X159200000Y-94250000D03*
X159200000Y-93750000D03*
X159200000Y-93250000D03*
X159200000Y-92750000D03*
D19*
X157250000Y-90800000D03*
X156750000Y-90800000D03*
X156250000Y-90800000D03*
X155750000Y-90800000D03*
X155250000Y-90800000D03*
X154750000Y-90800000D03*
X154250000Y-90800000D03*
X153750000Y-90800000D03*
X153250000Y-90800000D03*
X152750000Y-90800000D03*
X152250000Y-90800000D03*
X151750000Y-90800000D03*
X151250000Y-90800000D03*
X150750000Y-90800000D03*
X150250000Y-90800000D03*
X149750000Y-90800000D03*
D17*
X169114720Y-86544160D03*
X169114720Y-87194400D03*
X169114720Y-87844640D03*
X169114720Y-88494880D03*
X169114720Y-89145120D03*
X169114720Y-89795360D03*
X169114720Y-90445600D03*
X169114720Y-91095840D03*
X174865280Y-91095840D03*
X174865280Y-90445600D03*
X174865280Y-89795360D03*
X174865280Y-89145120D03*
X174865280Y-88494880D03*
X174865280Y-87844640D03*
X174865280Y-87194400D03*
X174865280Y-86544160D03*
D16*
X142600000Y-87770000D03*
X142600000Y-85230000D03*
D15*
X176530000Y-97790000D03*
X176530000Y-105410000D03*
X176530000Y-102870000D03*
X176530000Y-100330000D03*
D14*
X120870000Y-99060000D03*
X118870000Y-99060000D03*
X116870000Y-99060000D03*
D11*
X117348000Y-96520000D03*
X118872000Y-96520000D03*
D12*
X122000000Y-88000000D03*
D13*
X122000000Y-93080000D03*
X119460000Y-88000000D03*
X119460000Y-93080000D03*
X116920000Y-88000000D03*
X116920000Y-93080000D03*
D11*
X153162000Y-109200000D03*
X151638000Y-109200000D03*
X158838000Y-90000000D03*
X160362000Y-90000000D03*
M02*
