M48
;DRILL file {KiCad 4.0.7-e2-6376~58~ubuntu14.04.1} date Tue Dec 26 10:18:34 2017
;FORMAT={-:-/ absolute / metric / decimal}
FMAT,2
METRIC,TZ
T1C0.400
T2C0.762
T3C0.800
T4C0.800
T5C0.813
T6C1.000
T7C1.016
%
G90
G05
M71
T1
X120.4Y-108.6
X120.4Y-150.6
X121.6Y-119.
X121.6Y-161.
X128.1Y-106.9
X128.1Y-148.9
X130.3Y-107.3
X130.3Y-149.3
X132.2Y-102.6
X132.2Y-144.6
X133.1Y-101.3
X133.1Y-143.3
X134.1Y-106.5
X134.1Y-109.9
X134.1Y-148.5
X134.1Y-151.9
X135.2Y-91.7
X135.2Y-133.7
X135.4Y-110.3
X135.4Y-152.3
X139.Y-101.
X139.Y-143.
X139.2Y-102.8
X139.2Y-144.8
X140.Y-103.6
X140.Y-145.6
X141.3Y-103.6
X141.3Y-145.6
X143.4Y-108.9
X143.4Y-150.9
X144.6Y-109.4
X144.6Y-151.4
X144.9Y-110.2
X144.9Y-111.2
X144.9Y-152.2
X144.9Y-153.2
X145.1Y-116.9
X145.1Y-158.9
X145.2Y-121.4
X145.2Y-163.4
X145.6Y-100.9
X145.6Y-142.9
X147.7Y-102.
X147.7Y-144.
X148.1Y-107.5
X148.1Y-149.5
X149.8Y-94.8
X149.8Y-136.8
X150.Y-105.7
X150.Y-147.7
X150.8Y-105.2
X150.8Y-147.2
X151.5Y-116.3
X151.5Y-158.3
X151.7Y-104.4
X151.7Y-146.4
X151.8Y-117.8
X151.8Y-159.8
X152.1Y-105.8
X152.1Y-147.8
X152.7Y-116.4
X152.7Y-158.4
X153.8Y-113.2
X153.8Y-155.2
X154.2Y-99.6
X154.2Y-141.6
X154.6Y-113.2
X154.6Y-155.2
X154.9Y-100.3
X154.9Y-142.3
X155.3Y-106.8
X155.3Y-148.8
X155.6Y-101.
X155.6Y-143.
X155.8Y-105.3
X155.8Y-118.2
X155.8Y-147.3
X155.8Y-160.2
X156.8Y-107.5
X156.8Y-108.3
X156.8Y-109.2
X156.8Y-110.
X156.8Y-110.8
X156.8Y-111.7
X156.8Y-112.5
X156.8Y-113.6
X156.8Y-149.5
X156.8Y-150.3
X156.8Y-151.2
X156.8Y-152.
X156.8Y-152.8
X156.8Y-153.7
X156.8Y-154.5
X156.8Y-155.6
X157.8Y-94.8
X157.8Y-136.8
X158.2Y-115.2
X158.2Y-157.2
X158.6Y-98.6
X158.6Y-140.6
X159.4Y-103.7
X159.4Y-145.7
X162.6Y-121.
X162.6Y-122.2
X162.6Y-163.
X162.6Y-164.2
X163.Y-120.
X163.Y-162.
X163.4Y-92.7
X163.4Y-99.
X163.4Y-134.7
X163.4Y-141.
X163.7Y-106.7
X163.7Y-148.7
X164.5Y-108.6
X164.5Y-109.7
X164.5Y-110.9
X164.5Y-114.3
X164.5Y-115.4
X164.5Y-116.6
X164.5Y-150.6
X164.5Y-151.7
X164.5Y-152.9
X164.5Y-156.3
X164.5Y-157.4
X164.5Y-158.6
X164.6Y-112.1
X164.6Y-113.3
X164.6Y-154.1
X164.6Y-155.3
X167.Y-104.1
X167.Y-146.1
X167.4Y-116.6
X167.4Y-158.6
X170.7Y-108.6
X170.7Y-109.6
X170.7Y-110.8
X170.7Y-112.1
X170.7Y-113.3
X170.7Y-114.3
X170.7Y-115.4
X170.7Y-150.6
X170.7Y-151.6
X170.7Y-152.8
X170.7Y-154.1
X170.7Y-155.3
X170.7Y-156.3
X170.7Y-157.4
T2
X115.92Y-100.2
X115.92Y-105.28
X115.92Y-142.2
X115.92Y-147.28
X118.46Y-100.2
X118.46Y-105.28
X118.46Y-142.2
X118.46Y-147.28
X121.Y-100.2
X121.Y-105.28
X121.Y-142.2
X121.Y-147.28
T3
X115.69Y-114.62
X115.69Y-120.62
X115.69Y-156.62
X115.69Y-162.62
X115.87Y-111.26
X115.87Y-153.26
X117.87Y-111.26
X117.87Y-153.26
X119.87Y-111.26
X119.87Y-153.26
X120.09Y-114.62
X120.09Y-120.62
X120.09Y-156.62
X120.09Y-162.62
T4
X130.Y-111.759
X130.Y-116.641
X130.Y-153.759
X130.Y-158.641
T5
X141.6Y-97.43
X141.6Y-99.97
X141.6Y-139.43
X141.6Y-141.97
T6
X175.53Y-109.99
X175.53Y-112.53
X175.53Y-115.07
X175.53Y-117.61
X175.53Y-151.99
X175.53Y-154.53
X175.53Y-157.07
X175.53Y-159.61
T7
X115.84Y-88.4
X115.84Y-126.5
X115.84Y-130.4
X115.84Y-168.5
X118.38Y-88.4
X118.38Y-126.5
X118.38Y-130.4
X118.38Y-168.5
X120.92Y-88.4
X120.92Y-126.5
X120.92Y-130.4
X120.92Y-168.5
X123.46Y-88.4
X123.46Y-126.5
X123.46Y-130.4
X123.46Y-168.5
X126.Y-88.4
X126.Y-126.5
X126.Y-130.4
X126.Y-168.5
X128.54Y-88.4
X128.54Y-126.5
X128.54Y-130.4
X128.54Y-168.5
X131.08Y-88.4
X131.08Y-126.5
X131.08Y-130.4
X131.08Y-168.5
X133.62Y-88.4
X133.62Y-126.5
X133.62Y-130.4
X133.62Y-168.5
X136.16Y-88.4
X136.16Y-126.5
X136.16Y-130.4
X136.16Y-168.5
X138.7Y-88.4
X138.7Y-126.5
X138.7Y-130.4
X138.7Y-168.5
X141.24Y-88.4
X141.24Y-126.5
X141.24Y-130.4
X141.24Y-168.5
X143.78Y-88.4
X143.78Y-126.5
X143.78Y-130.4
X143.78Y-168.5
X146.32Y-88.4
X146.32Y-126.5
X146.32Y-130.4
X146.32Y-168.5
X148.86Y-88.4
X148.86Y-126.5
X148.86Y-130.4
X148.86Y-168.5
X151.4Y-88.4
X151.4Y-126.5
X151.4Y-130.4
X151.4Y-168.5
X153.94Y-88.4
X153.94Y-126.5
X153.94Y-130.4
X153.94Y-168.5
X156.48Y-88.4
X156.48Y-126.5
X156.48Y-130.4
X156.48Y-168.5
X159.02Y-88.4
X159.02Y-126.5
X159.02Y-130.4
X159.02Y-168.5
X161.56Y-88.4
X161.56Y-126.5
X161.56Y-130.4
X161.56Y-168.5
X164.1Y-88.4
X164.1Y-126.5
X164.1Y-130.4
X164.1Y-168.5
X166.64Y-88.4
X166.64Y-126.5
X166.64Y-130.4
X166.64Y-168.5
X169.18Y-88.4
X169.18Y-126.5
X169.18Y-130.4
X169.18Y-168.5
X171.72Y-88.4
X171.72Y-126.5
X171.72Y-130.4
X171.72Y-168.5
X174.26Y-88.4
X174.26Y-126.5
X174.26Y-130.4
X174.26Y-168.5
X176.8Y-88.4
X176.8Y-126.5
X176.8Y-130.4
X176.8Y-168.5
T0
M30
