G04 #@! TF.FileFunction,Legend,Top*
%FSLAX46Y46*%
G04 Gerber Fmt 4.6, Leading zero omitted, Abs format (unit mm)*
G04 Created by KiCad (PCBNEW 4.0.7-e2-6376~58~ubuntu14.04.1) date Tue Dec 26 10:18:39 2017*
%MOMM*%
%LPD*%
G01*
G04 APERTURE LIST*
%ADD10C,0.100000*%
%ADD11C,0.200000*%
%ADD12C,0.119380*%
%ADD13C,0.150000*%
%ADD14C,0.127000*%
%ADD15C,0.203200*%
%ADD16C,0.114300*%
%ADD17C,0.152400*%
G04 APERTURE END LIST*
D10*
D11*
X151595237Y-92254762D02*
X151738094Y-92302381D01*
X151976190Y-92302381D01*
X152071428Y-92254762D01*
X152119047Y-92207143D01*
X152166666Y-92111905D01*
X152166666Y-92016667D01*
X152119047Y-91921429D01*
X152071428Y-91873810D01*
X151976190Y-91826190D01*
X151785713Y-91778571D01*
X151690475Y-91730952D01*
X151642856Y-91683333D01*
X151595237Y-91588095D01*
X151595237Y-91492857D01*
X151642856Y-91397619D01*
X151690475Y-91350000D01*
X151785713Y-91302381D01*
X152023809Y-91302381D01*
X152166666Y-91350000D01*
X152452380Y-91302381D02*
X153023809Y-91302381D01*
X152738094Y-92302381D02*
X152738094Y-91302381D01*
X153357142Y-92302381D02*
X153357142Y-91302381D01*
X153690476Y-92016667D01*
X154023809Y-91302381D01*
X154023809Y-92302381D01*
X154404761Y-91302381D02*
X155023809Y-91302381D01*
X154690475Y-91683333D01*
X154833333Y-91683333D01*
X154928571Y-91730952D01*
X154976190Y-91778571D01*
X155023809Y-91873810D01*
X155023809Y-92111905D01*
X154976190Y-92207143D01*
X154928571Y-92254762D01*
X154833333Y-92302381D01*
X154547618Y-92302381D01*
X154452380Y-92254762D01*
X154404761Y-92207143D01*
X155404761Y-91397619D02*
X155452380Y-91350000D01*
X155547618Y-91302381D01*
X155785714Y-91302381D01*
X155880952Y-91350000D01*
X155928571Y-91397619D01*
X155976190Y-91492857D01*
X155976190Y-91588095D01*
X155928571Y-91730952D01*
X155357142Y-92302381D01*
X155976190Y-92302381D01*
X156738095Y-91778571D02*
X156404761Y-91778571D01*
X156404761Y-92302381D02*
X156404761Y-91302381D01*
X156880952Y-91302381D01*
X157976190Y-92254762D02*
X158119047Y-92302381D01*
X158357143Y-92302381D01*
X158452381Y-92254762D01*
X158500000Y-92207143D01*
X158547619Y-92111905D01*
X158547619Y-92016667D01*
X158500000Y-91921429D01*
X158452381Y-91873810D01*
X158357143Y-91826190D01*
X158166666Y-91778571D01*
X158071428Y-91730952D01*
X158023809Y-91683333D01*
X157976190Y-91588095D01*
X157976190Y-91492857D01*
X158023809Y-91397619D01*
X158071428Y-91350000D01*
X158166666Y-91302381D01*
X158404762Y-91302381D01*
X158547619Y-91350000D01*
X158833333Y-91302381D02*
X159404762Y-91302381D01*
X159119047Y-92302381D02*
X159119047Y-91302381D01*
X159690476Y-92016667D02*
X160166667Y-92016667D01*
X159595238Y-92302381D02*
X159928571Y-91302381D01*
X160261905Y-92302381D01*
X160595238Y-92302381D02*
X160595238Y-91302381D01*
X160928572Y-92016667D01*
X161261905Y-91302381D01*
X161261905Y-92302381D01*
X161738095Y-92302381D02*
X161738095Y-91302381D01*
X162119048Y-91302381D01*
X162214286Y-91350000D01*
X162261905Y-91397619D01*
X162309524Y-91492857D01*
X162309524Y-91635714D01*
X162261905Y-91730952D01*
X162214286Y-91778571D01*
X162119048Y-91826190D01*
X161738095Y-91826190D01*
X163833334Y-91778571D02*
X163976191Y-91826190D01*
X164023810Y-91873810D01*
X164071429Y-91969048D01*
X164071429Y-92111905D01*
X164023810Y-92207143D01*
X163976191Y-92254762D01*
X163880953Y-92302381D01*
X163500000Y-92302381D01*
X163500000Y-91302381D01*
X163833334Y-91302381D01*
X163928572Y-91350000D01*
X163976191Y-91397619D01*
X164023810Y-91492857D01*
X164023810Y-91588095D01*
X163976191Y-91683333D01*
X163928572Y-91730952D01*
X163833334Y-91778571D01*
X163500000Y-91778571D01*
X164642857Y-92302381D02*
X164547619Y-92254762D01*
X164500000Y-92207143D01*
X164452381Y-92111905D01*
X164452381Y-91826190D01*
X164500000Y-91730952D01*
X164547619Y-91683333D01*
X164642857Y-91635714D01*
X164785715Y-91635714D01*
X164880953Y-91683333D01*
X164928572Y-91730952D01*
X164976191Y-91826190D01*
X164976191Y-92111905D01*
X164928572Y-92207143D01*
X164880953Y-92254762D01*
X164785715Y-92302381D01*
X164642857Y-92302381D01*
X165833334Y-92302381D02*
X165833334Y-91778571D01*
X165785715Y-91683333D01*
X165690477Y-91635714D01*
X165500000Y-91635714D01*
X165404762Y-91683333D01*
X165833334Y-92254762D02*
X165738096Y-92302381D01*
X165500000Y-92302381D01*
X165404762Y-92254762D01*
X165357143Y-92159524D01*
X165357143Y-92064286D01*
X165404762Y-91969048D01*
X165500000Y-91921429D01*
X165738096Y-91921429D01*
X165833334Y-91873810D01*
X166309524Y-92302381D02*
X166309524Y-91635714D01*
X166309524Y-91826190D02*
X166357143Y-91730952D01*
X166404762Y-91683333D01*
X166500000Y-91635714D01*
X166595239Y-91635714D01*
X167357144Y-92302381D02*
X167357144Y-91302381D01*
X167357144Y-92254762D02*
X167261906Y-92302381D01*
X167071429Y-92302381D01*
X166976191Y-92254762D01*
X166928572Y-92207143D01*
X166880953Y-92111905D01*
X166880953Y-91826190D01*
X166928572Y-91730952D01*
X166976191Y-91683333D01*
X167071429Y-91635714D01*
X167261906Y-91635714D01*
X167357144Y-91683333D01*
X156142857Y-94002381D02*
X156142857Y-93002381D01*
X156714286Y-94002381D02*
X156285714Y-93430952D01*
X156714286Y-93002381D02*
X156142857Y-93573810D01*
X157857143Y-93954762D02*
X158000000Y-94002381D01*
X158238096Y-94002381D01*
X158333334Y-93954762D01*
X158380953Y-93907143D01*
X158428572Y-93811905D01*
X158428572Y-93716667D01*
X158380953Y-93621429D01*
X158333334Y-93573810D01*
X158238096Y-93526190D01*
X158047619Y-93478571D01*
X157952381Y-93430952D01*
X157904762Y-93383333D01*
X157857143Y-93288095D01*
X157857143Y-93192857D01*
X157904762Y-93097619D01*
X157952381Y-93050000D01*
X158047619Y-93002381D01*
X158285715Y-93002381D01*
X158428572Y-93050000D01*
X159285715Y-94002381D02*
X159285715Y-93478571D01*
X159238096Y-93383333D01*
X159142858Y-93335714D01*
X158952381Y-93335714D01*
X158857143Y-93383333D01*
X159285715Y-93954762D02*
X159190477Y-94002381D01*
X158952381Y-94002381D01*
X158857143Y-93954762D01*
X158809524Y-93859524D01*
X158809524Y-93764286D01*
X158857143Y-93669048D01*
X158952381Y-93621429D01*
X159190477Y-93621429D01*
X159285715Y-93573810D01*
X159761905Y-94002381D02*
X159761905Y-93335714D01*
X159761905Y-93526190D02*
X159809524Y-93430952D01*
X159857143Y-93383333D01*
X159952381Y-93335714D01*
X160047620Y-93335714D01*
X160380953Y-94002381D02*
X160380953Y-93002381D01*
X160476191Y-93621429D02*
X160761906Y-94002381D01*
X160761906Y-93335714D02*
X160380953Y-93716667D01*
X161190477Y-94002381D02*
X161190477Y-93335714D01*
X161190477Y-93002381D02*
X161142858Y-93050000D01*
X161190477Y-93097619D01*
X161238096Y-93050000D01*
X161190477Y-93002381D01*
X161190477Y-93097619D01*
X162047620Y-93954762D02*
X161952382Y-94002381D01*
X161761905Y-94002381D01*
X161666667Y-93954762D01*
X161619048Y-93859524D01*
X161619048Y-93478571D01*
X161666667Y-93383333D01*
X161761905Y-93335714D01*
X161952382Y-93335714D01*
X162047620Y-93383333D01*
X162095239Y-93478571D01*
X162095239Y-93573810D01*
X161619048Y-93669048D01*
X162476191Y-93954762D02*
X162571429Y-94002381D01*
X162761905Y-94002381D01*
X162857144Y-93954762D01*
X162904763Y-93859524D01*
X162904763Y-93811905D01*
X162857144Y-93716667D01*
X162761905Y-93669048D01*
X162619048Y-93669048D01*
X162523810Y-93621429D01*
X162476191Y-93526190D01*
X162476191Y-93478571D01*
X162523810Y-93383333D01*
X162619048Y-93335714D01*
X162761905Y-93335714D01*
X162857144Y-93383333D01*
X155071428Y-94702381D02*
X155166667Y-94702381D01*
X155261905Y-94750000D01*
X155309524Y-94797619D01*
X155357143Y-94892857D01*
X155404762Y-95083333D01*
X155404762Y-95321429D01*
X155357143Y-95511905D01*
X155309524Y-95607143D01*
X155261905Y-95654762D01*
X155166667Y-95702381D01*
X155071428Y-95702381D01*
X154976190Y-95654762D01*
X154928571Y-95607143D01*
X154880952Y-95511905D01*
X154833333Y-95321429D01*
X154833333Y-95083333D01*
X154880952Y-94892857D01*
X154928571Y-94797619D01*
X154976190Y-94750000D01*
X155071428Y-94702381D01*
X155880952Y-95702381D02*
X156071428Y-95702381D01*
X156166667Y-95654762D01*
X156214286Y-95607143D01*
X156309524Y-95464286D01*
X156357143Y-95273810D01*
X156357143Y-94892857D01*
X156309524Y-94797619D01*
X156261905Y-94750000D01*
X156166667Y-94702381D01*
X155976190Y-94702381D01*
X155880952Y-94750000D01*
X155833333Y-94797619D01*
X155785714Y-94892857D01*
X155785714Y-95130952D01*
X155833333Y-95226190D01*
X155880952Y-95273810D01*
X155976190Y-95321429D01*
X156166667Y-95321429D01*
X156261905Y-95273810D01*
X156309524Y-95226190D01*
X156357143Y-95130952D01*
X157500000Y-94654762D02*
X156642857Y-95940476D01*
X158357143Y-95702381D02*
X157785714Y-95702381D01*
X158071428Y-95702381D02*
X158071428Y-94702381D01*
X157976190Y-94845238D01*
X157880952Y-94940476D01*
X157785714Y-94988095D01*
X158738095Y-94797619D02*
X158785714Y-94750000D01*
X158880952Y-94702381D01*
X159119048Y-94702381D01*
X159214286Y-94750000D01*
X159261905Y-94797619D01*
X159309524Y-94892857D01*
X159309524Y-94988095D01*
X159261905Y-95130952D01*
X158690476Y-95702381D01*
X159309524Y-95702381D01*
X160452381Y-94654762D02*
X159595238Y-95940476D01*
X160738095Y-94797619D02*
X160785714Y-94750000D01*
X160880952Y-94702381D01*
X161119048Y-94702381D01*
X161214286Y-94750000D01*
X161261905Y-94797619D01*
X161309524Y-94892857D01*
X161309524Y-94988095D01*
X161261905Y-95130952D01*
X160690476Y-95702381D01*
X161309524Y-95702381D01*
X161928571Y-94702381D02*
X162023810Y-94702381D01*
X162119048Y-94750000D01*
X162166667Y-94797619D01*
X162214286Y-94892857D01*
X162261905Y-95083333D01*
X162261905Y-95321429D01*
X162214286Y-95511905D01*
X162166667Y-95607143D01*
X162119048Y-95654762D01*
X162023810Y-95702381D01*
X161928571Y-95702381D01*
X161833333Y-95654762D01*
X161785714Y-95607143D01*
X161738095Y-95511905D01*
X161690476Y-95321429D01*
X161690476Y-95083333D01*
X161738095Y-94892857D01*
X161785714Y-94797619D01*
X161833333Y-94750000D01*
X161928571Y-94702381D01*
X163214286Y-95702381D02*
X162642857Y-95702381D01*
X162928571Y-95702381D02*
X162928571Y-94702381D01*
X162833333Y-94845238D01*
X162738095Y-94940476D01*
X162642857Y-94988095D01*
X163547619Y-94702381D02*
X164214286Y-94702381D01*
X163785714Y-95702381D01*
X155309524Y-96402381D02*
X155642857Y-97402381D01*
X155976191Y-96402381D01*
X156690477Y-97354762D02*
X156595239Y-97402381D01*
X156404762Y-97402381D01*
X156309524Y-97354762D01*
X156261905Y-97259524D01*
X156261905Y-96878571D01*
X156309524Y-96783333D01*
X156404762Y-96735714D01*
X156595239Y-96735714D01*
X156690477Y-96783333D01*
X156738096Y-96878571D01*
X156738096Y-96973810D01*
X156261905Y-97069048D01*
X157166667Y-97402381D02*
X157166667Y-96735714D01*
X157166667Y-96926190D02*
X157214286Y-96830952D01*
X157261905Y-96783333D01*
X157357143Y-96735714D01*
X157452382Y-96735714D01*
X157738096Y-97354762D02*
X157833334Y-97402381D01*
X158023810Y-97402381D01*
X158119049Y-97354762D01*
X158166668Y-97259524D01*
X158166668Y-97211905D01*
X158119049Y-97116667D01*
X158023810Y-97069048D01*
X157880953Y-97069048D01*
X157785715Y-97021429D01*
X157738096Y-96926190D01*
X157738096Y-96878571D01*
X157785715Y-96783333D01*
X157880953Y-96735714D01*
X158023810Y-96735714D01*
X158119049Y-96783333D01*
X158595239Y-97402381D02*
X158595239Y-96735714D01*
X158595239Y-96402381D02*
X158547620Y-96450000D01*
X158595239Y-96497619D01*
X158642858Y-96450000D01*
X158595239Y-96402381D01*
X158595239Y-96497619D01*
X159214286Y-97402381D02*
X159119048Y-97354762D01*
X159071429Y-97307143D01*
X159023810Y-97211905D01*
X159023810Y-96926190D01*
X159071429Y-96830952D01*
X159119048Y-96783333D01*
X159214286Y-96735714D01*
X159357144Y-96735714D01*
X159452382Y-96783333D01*
X159500001Y-96830952D01*
X159547620Y-96926190D01*
X159547620Y-97211905D01*
X159500001Y-97307143D01*
X159452382Y-97354762D01*
X159357144Y-97402381D01*
X159214286Y-97402381D01*
X159976191Y-96735714D02*
X159976191Y-97402381D01*
X159976191Y-96830952D02*
X160023810Y-96783333D01*
X160119048Y-96735714D01*
X160261906Y-96735714D01*
X160357144Y-96783333D01*
X160404763Y-96878571D01*
X160404763Y-97402381D01*
X161833334Y-96402381D02*
X161928573Y-96402381D01*
X162023811Y-96450000D01*
X162071430Y-96497619D01*
X162119049Y-96592857D01*
X162166668Y-96783333D01*
X162166668Y-97021429D01*
X162119049Y-97211905D01*
X162071430Y-97307143D01*
X162023811Y-97354762D01*
X161928573Y-97402381D01*
X161833334Y-97402381D01*
X161738096Y-97354762D01*
X161690477Y-97307143D01*
X161642858Y-97211905D01*
X161595239Y-97021429D01*
X161595239Y-96783333D01*
X161642858Y-96592857D01*
X161690477Y-96497619D01*
X161738096Y-96450000D01*
X161833334Y-96402381D01*
X162595239Y-97307143D02*
X162642858Y-97354762D01*
X162595239Y-97402381D01*
X162547620Y-97354762D01*
X162595239Y-97307143D01*
X162595239Y-97402381D01*
X163261905Y-96402381D02*
X163357144Y-96402381D01*
X163452382Y-96450000D01*
X163500001Y-96497619D01*
X163547620Y-96592857D01*
X163595239Y-96783333D01*
X163595239Y-97021429D01*
X163547620Y-97211905D01*
X163500001Y-97307143D01*
X163452382Y-97354762D01*
X163357144Y-97402381D01*
X163261905Y-97402381D01*
X163166667Y-97354762D01*
X163119048Y-97307143D01*
X163071429Y-97211905D01*
X163023810Y-97021429D01*
X163023810Y-96783333D01*
X163071429Y-96592857D01*
X163119048Y-96497619D01*
X163166667Y-96450000D01*
X163261905Y-96402381D01*
X151595237Y-134254762D02*
X151738094Y-134302381D01*
X151976190Y-134302381D01*
X152071428Y-134254762D01*
X152119047Y-134207143D01*
X152166666Y-134111905D01*
X152166666Y-134016667D01*
X152119047Y-133921429D01*
X152071428Y-133873810D01*
X151976190Y-133826190D01*
X151785713Y-133778571D01*
X151690475Y-133730952D01*
X151642856Y-133683333D01*
X151595237Y-133588095D01*
X151595237Y-133492857D01*
X151642856Y-133397619D01*
X151690475Y-133350000D01*
X151785713Y-133302381D01*
X152023809Y-133302381D01*
X152166666Y-133350000D01*
X152452380Y-133302381D02*
X153023809Y-133302381D01*
X152738094Y-134302381D02*
X152738094Y-133302381D01*
X153357142Y-134302381D02*
X153357142Y-133302381D01*
X153690476Y-134016667D01*
X154023809Y-133302381D01*
X154023809Y-134302381D01*
X154404761Y-133302381D02*
X155023809Y-133302381D01*
X154690475Y-133683333D01*
X154833333Y-133683333D01*
X154928571Y-133730952D01*
X154976190Y-133778571D01*
X155023809Y-133873810D01*
X155023809Y-134111905D01*
X154976190Y-134207143D01*
X154928571Y-134254762D01*
X154833333Y-134302381D01*
X154547618Y-134302381D01*
X154452380Y-134254762D01*
X154404761Y-134207143D01*
X155404761Y-133397619D02*
X155452380Y-133350000D01*
X155547618Y-133302381D01*
X155785714Y-133302381D01*
X155880952Y-133350000D01*
X155928571Y-133397619D01*
X155976190Y-133492857D01*
X155976190Y-133588095D01*
X155928571Y-133730952D01*
X155357142Y-134302381D01*
X155976190Y-134302381D01*
X156738095Y-133778571D02*
X156404761Y-133778571D01*
X156404761Y-134302381D02*
X156404761Y-133302381D01*
X156880952Y-133302381D01*
X157976190Y-134254762D02*
X158119047Y-134302381D01*
X158357143Y-134302381D01*
X158452381Y-134254762D01*
X158500000Y-134207143D01*
X158547619Y-134111905D01*
X158547619Y-134016667D01*
X158500000Y-133921429D01*
X158452381Y-133873810D01*
X158357143Y-133826190D01*
X158166666Y-133778571D01*
X158071428Y-133730952D01*
X158023809Y-133683333D01*
X157976190Y-133588095D01*
X157976190Y-133492857D01*
X158023809Y-133397619D01*
X158071428Y-133350000D01*
X158166666Y-133302381D01*
X158404762Y-133302381D01*
X158547619Y-133350000D01*
X158833333Y-133302381D02*
X159404762Y-133302381D01*
X159119047Y-134302381D02*
X159119047Y-133302381D01*
X159690476Y-134016667D02*
X160166667Y-134016667D01*
X159595238Y-134302381D02*
X159928571Y-133302381D01*
X160261905Y-134302381D01*
X160595238Y-134302381D02*
X160595238Y-133302381D01*
X160928572Y-134016667D01*
X161261905Y-133302381D01*
X161261905Y-134302381D01*
X161738095Y-134302381D02*
X161738095Y-133302381D01*
X162119048Y-133302381D01*
X162214286Y-133350000D01*
X162261905Y-133397619D01*
X162309524Y-133492857D01*
X162309524Y-133635714D01*
X162261905Y-133730952D01*
X162214286Y-133778571D01*
X162119048Y-133826190D01*
X161738095Y-133826190D01*
X163833334Y-133778571D02*
X163976191Y-133826190D01*
X164023810Y-133873810D01*
X164071429Y-133969048D01*
X164071429Y-134111905D01*
X164023810Y-134207143D01*
X163976191Y-134254762D01*
X163880953Y-134302381D01*
X163500000Y-134302381D01*
X163500000Y-133302381D01*
X163833334Y-133302381D01*
X163928572Y-133350000D01*
X163976191Y-133397619D01*
X164023810Y-133492857D01*
X164023810Y-133588095D01*
X163976191Y-133683333D01*
X163928572Y-133730952D01*
X163833334Y-133778571D01*
X163500000Y-133778571D01*
X164642857Y-134302381D02*
X164547619Y-134254762D01*
X164500000Y-134207143D01*
X164452381Y-134111905D01*
X164452381Y-133826190D01*
X164500000Y-133730952D01*
X164547619Y-133683333D01*
X164642857Y-133635714D01*
X164785715Y-133635714D01*
X164880953Y-133683333D01*
X164928572Y-133730952D01*
X164976191Y-133826190D01*
X164976191Y-134111905D01*
X164928572Y-134207143D01*
X164880953Y-134254762D01*
X164785715Y-134302381D01*
X164642857Y-134302381D01*
X165833334Y-134302381D02*
X165833334Y-133778571D01*
X165785715Y-133683333D01*
X165690477Y-133635714D01*
X165500000Y-133635714D01*
X165404762Y-133683333D01*
X165833334Y-134254762D02*
X165738096Y-134302381D01*
X165500000Y-134302381D01*
X165404762Y-134254762D01*
X165357143Y-134159524D01*
X165357143Y-134064286D01*
X165404762Y-133969048D01*
X165500000Y-133921429D01*
X165738096Y-133921429D01*
X165833334Y-133873810D01*
X166309524Y-134302381D02*
X166309524Y-133635714D01*
X166309524Y-133826190D02*
X166357143Y-133730952D01*
X166404762Y-133683333D01*
X166500000Y-133635714D01*
X166595239Y-133635714D01*
X167357144Y-134302381D02*
X167357144Y-133302381D01*
X167357144Y-134254762D02*
X167261906Y-134302381D01*
X167071429Y-134302381D01*
X166976191Y-134254762D01*
X166928572Y-134207143D01*
X166880953Y-134111905D01*
X166880953Y-133826190D01*
X166928572Y-133730952D01*
X166976191Y-133683333D01*
X167071429Y-133635714D01*
X167261906Y-133635714D01*
X167357144Y-133683333D01*
X156142857Y-136002381D02*
X156142857Y-135002381D01*
X156714286Y-136002381D02*
X156285714Y-135430952D01*
X156714286Y-135002381D02*
X156142857Y-135573810D01*
X157857143Y-135954762D02*
X158000000Y-136002381D01*
X158238096Y-136002381D01*
X158333334Y-135954762D01*
X158380953Y-135907143D01*
X158428572Y-135811905D01*
X158428572Y-135716667D01*
X158380953Y-135621429D01*
X158333334Y-135573810D01*
X158238096Y-135526190D01*
X158047619Y-135478571D01*
X157952381Y-135430952D01*
X157904762Y-135383333D01*
X157857143Y-135288095D01*
X157857143Y-135192857D01*
X157904762Y-135097619D01*
X157952381Y-135050000D01*
X158047619Y-135002381D01*
X158285715Y-135002381D01*
X158428572Y-135050000D01*
X159285715Y-136002381D02*
X159285715Y-135478571D01*
X159238096Y-135383333D01*
X159142858Y-135335714D01*
X158952381Y-135335714D01*
X158857143Y-135383333D01*
X159285715Y-135954762D02*
X159190477Y-136002381D01*
X158952381Y-136002381D01*
X158857143Y-135954762D01*
X158809524Y-135859524D01*
X158809524Y-135764286D01*
X158857143Y-135669048D01*
X158952381Y-135621429D01*
X159190477Y-135621429D01*
X159285715Y-135573810D01*
X159761905Y-136002381D02*
X159761905Y-135335714D01*
X159761905Y-135526190D02*
X159809524Y-135430952D01*
X159857143Y-135383333D01*
X159952381Y-135335714D01*
X160047620Y-135335714D01*
X160380953Y-136002381D02*
X160380953Y-135002381D01*
X160476191Y-135621429D02*
X160761906Y-136002381D01*
X160761906Y-135335714D02*
X160380953Y-135716667D01*
X161190477Y-136002381D02*
X161190477Y-135335714D01*
X161190477Y-135002381D02*
X161142858Y-135050000D01*
X161190477Y-135097619D01*
X161238096Y-135050000D01*
X161190477Y-135002381D01*
X161190477Y-135097619D01*
X162047620Y-135954762D02*
X161952382Y-136002381D01*
X161761905Y-136002381D01*
X161666667Y-135954762D01*
X161619048Y-135859524D01*
X161619048Y-135478571D01*
X161666667Y-135383333D01*
X161761905Y-135335714D01*
X161952382Y-135335714D01*
X162047620Y-135383333D01*
X162095239Y-135478571D01*
X162095239Y-135573810D01*
X161619048Y-135669048D01*
X162476191Y-135954762D02*
X162571429Y-136002381D01*
X162761905Y-136002381D01*
X162857144Y-135954762D01*
X162904763Y-135859524D01*
X162904763Y-135811905D01*
X162857144Y-135716667D01*
X162761905Y-135669048D01*
X162619048Y-135669048D01*
X162523810Y-135621429D01*
X162476191Y-135526190D01*
X162476191Y-135478571D01*
X162523810Y-135383333D01*
X162619048Y-135335714D01*
X162761905Y-135335714D01*
X162857144Y-135383333D01*
X155071428Y-136702381D02*
X155166667Y-136702381D01*
X155261905Y-136750000D01*
X155309524Y-136797619D01*
X155357143Y-136892857D01*
X155404762Y-137083333D01*
X155404762Y-137321429D01*
X155357143Y-137511905D01*
X155309524Y-137607143D01*
X155261905Y-137654762D01*
X155166667Y-137702381D01*
X155071428Y-137702381D01*
X154976190Y-137654762D01*
X154928571Y-137607143D01*
X154880952Y-137511905D01*
X154833333Y-137321429D01*
X154833333Y-137083333D01*
X154880952Y-136892857D01*
X154928571Y-136797619D01*
X154976190Y-136750000D01*
X155071428Y-136702381D01*
X155880952Y-137702381D02*
X156071428Y-137702381D01*
X156166667Y-137654762D01*
X156214286Y-137607143D01*
X156309524Y-137464286D01*
X156357143Y-137273810D01*
X156357143Y-136892857D01*
X156309524Y-136797619D01*
X156261905Y-136750000D01*
X156166667Y-136702381D01*
X155976190Y-136702381D01*
X155880952Y-136750000D01*
X155833333Y-136797619D01*
X155785714Y-136892857D01*
X155785714Y-137130952D01*
X155833333Y-137226190D01*
X155880952Y-137273810D01*
X155976190Y-137321429D01*
X156166667Y-137321429D01*
X156261905Y-137273810D01*
X156309524Y-137226190D01*
X156357143Y-137130952D01*
X157500000Y-136654762D02*
X156642857Y-137940476D01*
X158357143Y-137702381D02*
X157785714Y-137702381D01*
X158071428Y-137702381D02*
X158071428Y-136702381D01*
X157976190Y-136845238D01*
X157880952Y-136940476D01*
X157785714Y-136988095D01*
X158738095Y-136797619D02*
X158785714Y-136750000D01*
X158880952Y-136702381D01*
X159119048Y-136702381D01*
X159214286Y-136750000D01*
X159261905Y-136797619D01*
X159309524Y-136892857D01*
X159309524Y-136988095D01*
X159261905Y-137130952D01*
X158690476Y-137702381D01*
X159309524Y-137702381D01*
X160452381Y-136654762D02*
X159595238Y-137940476D01*
X160738095Y-136797619D02*
X160785714Y-136750000D01*
X160880952Y-136702381D01*
X161119048Y-136702381D01*
X161214286Y-136750000D01*
X161261905Y-136797619D01*
X161309524Y-136892857D01*
X161309524Y-136988095D01*
X161261905Y-137130952D01*
X160690476Y-137702381D01*
X161309524Y-137702381D01*
X161928571Y-136702381D02*
X162023810Y-136702381D01*
X162119048Y-136750000D01*
X162166667Y-136797619D01*
X162214286Y-136892857D01*
X162261905Y-137083333D01*
X162261905Y-137321429D01*
X162214286Y-137511905D01*
X162166667Y-137607143D01*
X162119048Y-137654762D01*
X162023810Y-137702381D01*
X161928571Y-137702381D01*
X161833333Y-137654762D01*
X161785714Y-137607143D01*
X161738095Y-137511905D01*
X161690476Y-137321429D01*
X161690476Y-137083333D01*
X161738095Y-136892857D01*
X161785714Y-136797619D01*
X161833333Y-136750000D01*
X161928571Y-136702381D01*
X163214286Y-137702381D02*
X162642857Y-137702381D01*
X162928571Y-137702381D02*
X162928571Y-136702381D01*
X162833333Y-136845238D01*
X162738095Y-136940476D01*
X162642857Y-136988095D01*
X163547619Y-136702381D02*
X164214286Y-136702381D01*
X163785714Y-137702381D01*
X155309524Y-138402381D02*
X155642857Y-139402381D01*
X155976191Y-138402381D01*
X156690477Y-139354762D02*
X156595239Y-139402381D01*
X156404762Y-139402381D01*
X156309524Y-139354762D01*
X156261905Y-139259524D01*
X156261905Y-138878571D01*
X156309524Y-138783333D01*
X156404762Y-138735714D01*
X156595239Y-138735714D01*
X156690477Y-138783333D01*
X156738096Y-138878571D01*
X156738096Y-138973810D01*
X156261905Y-139069048D01*
X157166667Y-139402381D02*
X157166667Y-138735714D01*
X157166667Y-138926190D02*
X157214286Y-138830952D01*
X157261905Y-138783333D01*
X157357143Y-138735714D01*
X157452382Y-138735714D01*
X157738096Y-139354762D02*
X157833334Y-139402381D01*
X158023810Y-139402381D01*
X158119049Y-139354762D01*
X158166668Y-139259524D01*
X158166668Y-139211905D01*
X158119049Y-139116667D01*
X158023810Y-139069048D01*
X157880953Y-139069048D01*
X157785715Y-139021429D01*
X157738096Y-138926190D01*
X157738096Y-138878571D01*
X157785715Y-138783333D01*
X157880953Y-138735714D01*
X158023810Y-138735714D01*
X158119049Y-138783333D01*
X158595239Y-139402381D02*
X158595239Y-138735714D01*
X158595239Y-138402381D02*
X158547620Y-138450000D01*
X158595239Y-138497619D01*
X158642858Y-138450000D01*
X158595239Y-138402381D01*
X158595239Y-138497619D01*
X159214286Y-139402381D02*
X159119048Y-139354762D01*
X159071429Y-139307143D01*
X159023810Y-139211905D01*
X159023810Y-138926190D01*
X159071429Y-138830952D01*
X159119048Y-138783333D01*
X159214286Y-138735714D01*
X159357144Y-138735714D01*
X159452382Y-138783333D01*
X159500001Y-138830952D01*
X159547620Y-138926190D01*
X159547620Y-139211905D01*
X159500001Y-139307143D01*
X159452382Y-139354762D01*
X159357144Y-139402381D01*
X159214286Y-139402381D01*
X159976191Y-138735714D02*
X159976191Y-139402381D01*
X159976191Y-138830952D02*
X160023810Y-138783333D01*
X160119048Y-138735714D01*
X160261906Y-138735714D01*
X160357144Y-138783333D01*
X160404763Y-138878571D01*
X160404763Y-139402381D01*
X161833334Y-138402381D02*
X161928573Y-138402381D01*
X162023811Y-138450000D01*
X162071430Y-138497619D01*
X162119049Y-138592857D01*
X162166668Y-138783333D01*
X162166668Y-139021429D01*
X162119049Y-139211905D01*
X162071430Y-139307143D01*
X162023811Y-139354762D01*
X161928573Y-139402381D01*
X161833334Y-139402381D01*
X161738096Y-139354762D01*
X161690477Y-139307143D01*
X161642858Y-139211905D01*
X161595239Y-139021429D01*
X161595239Y-138783333D01*
X161642858Y-138592857D01*
X161690477Y-138497619D01*
X161738096Y-138450000D01*
X161833334Y-138402381D01*
X162595239Y-139307143D02*
X162642858Y-139354762D01*
X162595239Y-139402381D01*
X162547620Y-139354762D01*
X162595239Y-139307143D01*
X162595239Y-139402381D01*
X163261905Y-138402381D02*
X163357144Y-138402381D01*
X163452382Y-138450000D01*
X163500001Y-138497619D01*
X163547620Y-138592857D01*
X163595239Y-138783333D01*
X163595239Y-139021429D01*
X163547620Y-139211905D01*
X163500001Y-139307143D01*
X163452382Y-139354762D01*
X163357144Y-139402381D01*
X163261905Y-139402381D01*
X163166667Y-139354762D01*
X163119048Y-139307143D01*
X163071429Y-139211905D01*
X163023810Y-139021429D01*
X163023810Y-138783333D01*
X163071429Y-138592857D01*
X163119048Y-138497619D01*
X163166667Y-138450000D01*
X163261905Y-138402381D01*
D12*
X159100380Y-102850240D02*
X159798880Y-102850240D01*
X158099620Y-102850240D02*
X157401120Y-102850240D01*
X159100380Y-101549760D02*
X159798880Y-101549760D01*
X157401120Y-101549760D02*
X158099620Y-101549760D01*
X159798880Y-101565000D02*
X159798880Y-102835000D01*
X157401120Y-102835000D02*
X157401120Y-101565000D01*
X150899620Y-120749760D02*
X150201120Y-120749760D01*
X151900380Y-120749760D02*
X152598880Y-120749760D01*
X150899620Y-122050240D02*
X150201120Y-122050240D01*
X152598880Y-122050240D02*
X151900380Y-122050240D01*
X150201120Y-122035000D02*
X150201120Y-120765000D01*
X152598880Y-120765000D02*
X152598880Y-122035000D01*
D13*
X122337000Y-98990000D02*
X122337000Y-106617000D01*
X122337000Y-106617000D02*
X114329000Y-106617000D01*
X114329000Y-106617000D02*
X114329000Y-98990000D01*
X114329000Y-98990000D02*
X122270000Y-98990000D01*
D14*
X116609620Y-108021500D02*
X115903500Y-108021500D01*
X115903500Y-108021500D02*
X115903500Y-109418500D01*
X115903500Y-109418500D02*
X116609620Y-109418500D01*
X118316500Y-108021500D02*
X117610380Y-108021500D01*
X118316500Y-108021500D02*
X118316500Y-109418500D01*
X118316500Y-109418500D02*
X117610380Y-109418500D01*
D13*
X178705000Y-118880000D02*
X178705000Y-108720000D01*
X174260000Y-118880000D02*
X174260000Y-108720000D01*
X172355000Y-118880000D02*
X172355000Y-108720000D01*
X172355000Y-118880000D02*
X178705000Y-118880000D01*
X172355000Y-108720000D02*
X178705000Y-108720000D01*
X143505000Y-100605000D02*
X143505000Y-96795000D01*
X143505000Y-96795000D02*
X151760000Y-96795000D01*
X151760000Y-96795000D02*
X151760000Y-100605000D01*
X151760000Y-100605000D02*
X143505000Y-100605000D01*
X141600000Y-99970000D02*
X143505000Y-99970000D01*
X141600000Y-97430000D02*
X143505000Y-97430000D01*
D15*
X175435000Y-103306000D02*
G75*
G03X175435000Y-103306000I-254000J0D01*
G01*
X168790360Y-103519360D02*
X173189640Y-103519360D01*
X173189640Y-103519360D02*
X173189640Y-98520640D01*
X173189640Y-98520640D02*
X168790360Y-98520640D01*
X168790360Y-98520640D02*
X168790360Y-103519360D01*
D13*
X147325000Y-103525000D02*
X147325000Y-104600000D01*
X157675000Y-103525000D02*
X157675000Y-104600000D01*
X157675000Y-113875000D02*
X157675000Y-112800000D01*
X147325000Y-113875000D02*
X147325000Y-112800000D01*
X147325000Y-103525000D02*
X148400000Y-103525000D01*
X147325000Y-113875000D02*
X148400000Y-113875000D01*
X157675000Y-113875000D02*
X156600000Y-113875000D01*
X157675000Y-103525000D02*
X156600000Y-103525000D01*
X147325000Y-104600000D02*
X146300000Y-104600000D01*
X120430000Y-117620000D02*
G75*
G03X120430000Y-117620000I-2540000J0D01*
G01*
X114890000Y-120620000D02*
X114890000Y-114620000D01*
X114890000Y-114620000D02*
X120890000Y-114620000D01*
X120890000Y-114620000D02*
X120890000Y-120620000D01*
X114890000Y-120620000D02*
X120890000Y-120620000D01*
D14*
X124229620Y-99131500D02*
X123523500Y-99131500D01*
X123523500Y-99131500D02*
X123523500Y-100528500D01*
X123523500Y-100528500D02*
X124229620Y-100528500D01*
X125936500Y-99131500D02*
X125230380Y-99131500D01*
X125936500Y-99131500D02*
X125936500Y-100528500D01*
X125936500Y-100528500D02*
X125230380Y-100528500D01*
X133999620Y-97901500D02*
X133293500Y-97901500D01*
X133293500Y-97901500D02*
X133293500Y-99298500D01*
X133293500Y-99298500D02*
X133999620Y-99298500D01*
X135706500Y-97901500D02*
X135000380Y-97901500D01*
X135706500Y-97901500D02*
X135706500Y-99298500D01*
X135706500Y-99298500D02*
X135000380Y-99298500D01*
X122888500Y-113299620D02*
X122888500Y-112593500D01*
X122888500Y-112593500D02*
X121491500Y-112593500D01*
X121491500Y-112593500D02*
X121491500Y-113299620D01*
X122888500Y-115006500D02*
X122888500Y-114300380D01*
X122888500Y-115006500D02*
X121491500Y-115006500D01*
X121491500Y-115006500D02*
X121491500Y-114300380D01*
X125230380Y-105608500D02*
X125936500Y-105608500D01*
X125936500Y-105608500D02*
X125936500Y-104211500D01*
X125936500Y-104211500D02*
X125230380Y-104211500D01*
X123523500Y-105608500D02*
X124229620Y-105608500D01*
X123523500Y-105608500D02*
X123523500Y-104211500D01*
X123523500Y-104211500D02*
X124229620Y-104211500D01*
D13*
X138200000Y-109475000D02*
X137000000Y-109475000D01*
X137000000Y-107725000D02*
X138200000Y-107725000D01*
X175530000Y-125230000D02*
X114570000Y-125230000D01*
X114570000Y-125230000D02*
X114570000Y-127770000D01*
X114570000Y-127770000D02*
X175530000Y-127770000D01*
X178350000Y-128050000D02*
X176800000Y-128050000D01*
X175530000Y-127770000D02*
X175530000Y-125230000D01*
X176800000Y-124950000D02*
X178350000Y-124950000D01*
X178350000Y-124950000D02*
X178350000Y-128050000D01*
X175530000Y-87130000D02*
X114570000Y-87130000D01*
X114570000Y-87130000D02*
X114570000Y-89670000D01*
X114570000Y-89670000D02*
X175530000Y-89670000D01*
X178350000Y-89950000D02*
X176800000Y-89950000D01*
X175530000Y-89670000D02*
X175530000Y-87130000D01*
X176800000Y-86850000D02*
X178350000Y-86850000D01*
X178350000Y-86850000D02*
X178350000Y-89950000D01*
X127660000Y-100880000D02*
X131260000Y-100880000D01*
X127660000Y-98780000D02*
X131260000Y-98780000D01*
X129710000Y-99530000D02*
X129710000Y-100130000D01*
X129710000Y-100130000D02*
X129410000Y-99830000D01*
X129410000Y-99830000D02*
X129610000Y-99630000D01*
X129610000Y-99630000D02*
X129610000Y-99880000D01*
X129610000Y-99880000D02*
X129560000Y-99830000D01*
X129310000Y-99330000D02*
X129310000Y-100330000D01*
X129810000Y-99830000D02*
X130310000Y-99830000D01*
X129310000Y-99830000D02*
X129810000Y-99330000D01*
X129810000Y-99330000D02*
X129810000Y-100330000D01*
X129810000Y-100330000D02*
X129310000Y-99830000D01*
X127660000Y-105960000D02*
X131260000Y-105960000D01*
X127660000Y-103860000D02*
X131260000Y-103860000D01*
X129710000Y-104610000D02*
X129710000Y-105210000D01*
X129710000Y-105210000D02*
X129410000Y-104910000D01*
X129410000Y-104910000D02*
X129610000Y-104710000D01*
X129610000Y-104710000D02*
X129610000Y-104960000D01*
X129610000Y-104960000D02*
X129560000Y-104910000D01*
X129310000Y-104410000D02*
X129310000Y-105410000D01*
X129810000Y-104910000D02*
X130310000Y-104910000D01*
X129310000Y-104910000D02*
X129810000Y-104410000D01*
X129810000Y-104410000D02*
X129810000Y-105410000D01*
X129810000Y-105410000D02*
X129310000Y-104910000D01*
D12*
X176099620Y-97049760D02*
X175401120Y-97049760D01*
X177100380Y-97049760D02*
X177798880Y-97049760D01*
X176099620Y-98350240D02*
X175401120Y-98350240D01*
X177798880Y-98350240D02*
X177100380Y-98350240D01*
X175401120Y-98335000D02*
X175401120Y-97065000D01*
X177798880Y-97065000D02*
X177798880Y-98335000D01*
X171250380Y-97800240D02*
X171948880Y-97800240D01*
X170249620Y-97800240D02*
X169551120Y-97800240D01*
X171250380Y-96499760D02*
X171948880Y-96499760D01*
X169551120Y-96499760D02*
X170249620Y-96499760D01*
X171948880Y-96515000D02*
X171948880Y-97785000D01*
X169551120Y-97785000D02*
X169551120Y-96515000D01*
X176599760Y-101150380D02*
X176599760Y-101848880D01*
X176599760Y-100149620D02*
X176599760Y-99451120D01*
X177900240Y-101150380D02*
X177900240Y-101848880D01*
X177900240Y-99451120D02*
X177900240Y-100149620D01*
X177885000Y-101848880D02*
X176615000Y-101848880D01*
X176615000Y-99451120D02*
X177885000Y-99451120D01*
X167300380Y-105650240D02*
X167998880Y-105650240D01*
X166299620Y-105650240D02*
X165601120Y-105650240D01*
X167300380Y-104349760D02*
X167998880Y-104349760D01*
X165601120Y-104349760D02*
X166299620Y-104349760D01*
X167998880Y-104365000D02*
X167998880Y-105635000D01*
X165601120Y-105635000D02*
X165601120Y-104365000D01*
X173399620Y-104349760D02*
X172701120Y-104349760D01*
X174400380Y-104349760D02*
X175098880Y-104349760D01*
X173399620Y-105650240D02*
X172701120Y-105650240D01*
X175098880Y-105650240D02*
X174400380Y-105650240D01*
X172701120Y-105635000D02*
X172701120Y-104365000D01*
X175098880Y-104365000D02*
X175098880Y-105635000D01*
X136649760Y-99100380D02*
X136649760Y-99798880D01*
X136649760Y-98099620D02*
X136649760Y-97401120D01*
X137950240Y-99100380D02*
X137950240Y-99798880D01*
X137950240Y-97401120D02*
X137950240Y-98099620D01*
X137935000Y-99798880D02*
X136665000Y-99798880D01*
X136665000Y-97401120D02*
X137935000Y-97401120D01*
X139950240Y-98099620D02*
X139950240Y-97401120D01*
X139950240Y-99100380D02*
X139950240Y-99798880D01*
X138649760Y-98099620D02*
X138649760Y-97401120D01*
X138649760Y-99798880D02*
X138649760Y-99100380D01*
X138665000Y-97401120D02*
X139935000Y-97401120D01*
X139935000Y-99798880D02*
X138665000Y-99798880D01*
X145150240Y-102299620D02*
X145150240Y-101601120D01*
X145150240Y-103300380D02*
X145150240Y-103998880D01*
X143849760Y-102299620D02*
X143849760Y-101601120D01*
X143849760Y-103998880D02*
X143849760Y-103300380D01*
X143865000Y-101601120D02*
X145135000Y-101601120D01*
X145135000Y-103998880D02*
X143865000Y-103998880D01*
X116099620Y-94949760D02*
X115401120Y-94949760D01*
X117100380Y-94949760D02*
X117798880Y-94949760D01*
X116099620Y-96250240D02*
X115401120Y-96250240D01*
X117798880Y-96250240D02*
X117100380Y-96250240D01*
X115401120Y-96235000D02*
X115401120Y-94965000D01*
X117798880Y-94965000D02*
X117798880Y-96235000D01*
X138600380Y-111650240D02*
X139298880Y-111650240D01*
X137599620Y-111650240D02*
X136901120Y-111650240D01*
X138600380Y-110349760D02*
X139298880Y-110349760D01*
X136901120Y-110349760D02*
X137599620Y-110349760D01*
X139298880Y-110365000D02*
X139298880Y-111635000D01*
X136901120Y-111635000D02*
X136901120Y-110365000D01*
D14*
X114760000Y-92057000D02*
X114506000Y-92057000D01*
X114506000Y-92057000D02*
X114506000Y-94343000D01*
X114506000Y-94343000D02*
X114760000Y-94343000D01*
X114760000Y-92057000D02*
X114760000Y-94343000D01*
X114760000Y-94343000D02*
X116411000Y-94343000D01*
X118189000Y-92057000D02*
X119840000Y-92057000D01*
X119840000Y-92057000D02*
X119840000Y-94343000D01*
X119840000Y-94343000D02*
X118189000Y-94343000D01*
X116411000Y-92057000D02*
X114760000Y-92057000D01*
X139740000Y-114643000D02*
X139994000Y-114643000D01*
X139994000Y-114643000D02*
X139994000Y-112357000D01*
X139994000Y-112357000D02*
X139740000Y-112357000D01*
X139740000Y-114643000D02*
X139740000Y-112357000D01*
X139740000Y-112357000D02*
X138089000Y-112357000D01*
X136311000Y-114643000D02*
X134660000Y-114643000D01*
X134660000Y-114643000D02*
X134660000Y-112357000D01*
X134660000Y-112357000D02*
X136311000Y-112357000D01*
X138089000Y-114643000D02*
X139740000Y-114643000D01*
D12*
X135999620Y-105049760D02*
X135301120Y-105049760D01*
X137000380Y-105049760D02*
X137698880Y-105049760D01*
X135999620Y-106350240D02*
X135301120Y-106350240D01*
X137698880Y-106350240D02*
X137000380Y-106350240D01*
X135301120Y-106335000D02*
X135301120Y-105065000D01*
X137698880Y-105065000D02*
X137698880Y-106335000D01*
X137000380Y-101650240D02*
X137698880Y-101650240D01*
X135999620Y-101650240D02*
X135301120Y-101650240D01*
X137000380Y-100349760D02*
X137698880Y-100349760D01*
X135301120Y-100349760D02*
X135999620Y-100349760D01*
X137698880Y-100365000D02*
X137698880Y-101635000D01*
X135301120Y-101635000D02*
X135301120Y-100365000D01*
D13*
X131000760Y-118899000D02*
X130599440Y-119099660D01*
X130599440Y-119099660D02*
X130000000Y-119201260D01*
X130000000Y-119201260D02*
X129499620Y-119099660D01*
X129499620Y-119099660D02*
X128801120Y-118700880D01*
X128801120Y-118700880D02*
X128399800Y-118098900D01*
X128399800Y-118098900D02*
X128199140Y-117499460D01*
X128199140Y-117499460D02*
X128199140Y-110900540D01*
X128199140Y-110900540D02*
X128399800Y-110199500D01*
X128399800Y-110199500D02*
X128699520Y-109800720D01*
X128699520Y-109800720D02*
X129199900Y-109399400D01*
X129199900Y-109399400D02*
X129799340Y-109198740D01*
X129799340Y-109198740D02*
X130299720Y-109198740D01*
X130299720Y-109198740D02*
X130800100Y-109399400D01*
X130800100Y-109399400D02*
X131399540Y-109899780D01*
X131399540Y-109899780D02*
X131699260Y-110400160D01*
X131699260Y-110400160D02*
X131800860Y-110900540D01*
X131800860Y-110999600D02*
X131800860Y-117601060D01*
X131800860Y-117601060D02*
X131699260Y-117999840D01*
X131699260Y-117999840D02*
X131399540Y-118500220D01*
X131399540Y-118500220D02*
X130899160Y-119000600D01*
X132329180Y-111009760D02*
X132280920Y-110550020D01*
X132280920Y-110550020D02*
X132169160Y-110151240D01*
X132169160Y-110151240D02*
X131950720Y-109719440D01*
X131950720Y-109719440D02*
X131719580Y-109429880D01*
X131719580Y-109429880D02*
X131369060Y-109099680D01*
X131369060Y-109099680D02*
X130830580Y-108810120D01*
X130830580Y-108810120D02*
X130231140Y-108680580D01*
X130231140Y-108680580D02*
X129720600Y-108680580D01*
X129720600Y-108680580D02*
X129019560Y-108850760D01*
X129019560Y-108850760D02*
X128430280Y-109249540D01*
X128430280Y-109249540D02*
X128059440Y-109709280D01*
X128059440Y-109709280D02*
X127851160Y-110130920D01*
X127851160Y-110130920D02*
X127691140Y-110580500D01*
X127691140Y-110580500D02*
X127660660Y-111019920D01*
X127879100Y-118360520D02*
X128100080Y-118738980D01*
X128100080Y-118738980D02*
X128379480Y-119059020D01*
X128379480Y-119059020D02*
X128709680Y-119310480D01*
X128709680Y-119310480D02*
X129260860Y-119610200D01*
X129260860Y-119610200D02*
X129730760Y-119719420D01*
X129730760Y-119719420D02*
X130190500Y-119739740D01*
X130190500Y-119739740D02*
X130650240Y-119650840D01*
X130650240Y-119650840D02*
X131099820Y-119460340D01*
X131099820Y-119460340D02*
X131569720Y-119099660D01*
X131569720Y-119099660D02*
X131889760Y-118749140D01*
X131889760Y-118749140D02*
X132120900Y-118360520D01*
X132120900Y-118360520D02*
X132260600Y-117931260D01*
X132260600Y-117931260D02*
X132329180Y-117489300D01*
X127670820Y-110999600D02*
X127670820Y-117451200D01*
X127670820Y-117451200D02*
X127708920Y-117870300D01*
X127708920Y-117870300D02*
X127879100Y-118360520D01*
X132329180Y-110999600D02*
X132329180Y-117451200D01*
D14*
X135999620Y-102901500D02*
X135293500Y-102901500D01*
X135293500Y-102901500D02*
X135293500Y-104298500D01*
X135293500Y-104298500D02*
X135999620Y-104298500D01*
X137706500Y-102901500D02*
X137000380Y-102901500D01*
X137706500Y-102901500D02*
X137706500Y-104298500D01*
X137706500Y-104298500D02*
X137000380Y-104298500D01*
X135999620Y-144901500D02*
X135293500Y-144901500D01*
X135293500Y-144901500D02*
X135293500Y-146298500D01*
X135293500Y-146298500D02*
X135999620Y-146298500D01*
X137706500Y-144901500D02*
X137000380Y-144901500D01*
X137706500Y-144901500D02*
X137706500Y-146298500D01*
X137706500Y-146298500D02*
X137000380Y-146298500D01*
D13*
X131000760Y-160899000D02*
X130599440Y-161099660D01*
X130599440Y-161099660D02*
X130000000Y-161201260D01*
X130000000Y-161201260D02*
X129499620Y-161099660D01*
X129499620Y-161099660D02*
X128801120Y-160700880D01*
X128801120Y-160700880D02*
X128399800Y-160098900D01*
X128399800Y-160098900D02*
X128199140Y-159499460D01*
X128199140Y-159499460D02*
X128199140Y-152900540D01*
X128199140Y-152900540D02*
X128399800Y-152199500D01*
X128399800Y-152199500D02*
X128699520Y-151800720D01*
X128699520Y-151800720D02*
X129199900Y-151399400D01*
X129199900Y-151399400D02*
X129799340Y-151198740D01*
X129799340Y-151198740D02*
X130299720Y-151198740D01*
X130299720Y-151198740D02*
X130800100Y-151399400D01*
X130800100Y-151399400D02*
X131399540Y-151899780D01*
X131399540Y-151899780D02*
X131699260Y-152400160D01*
X131699260Y-152400160D02*
X131800860Y-152900540D01*
X131800860Y-152999600D02*
X131800860Y-159601060D01*
X131800860Y-159601060D02*
X131699260Y-159999840D01*
X131699260Y-159999840D02*
X131399540Y-160500220D01*
X131399540Y-160500220D02*
X130899160Y-161000600D01*
X132329180Y-153009760D02*
X132280920Y-152550020D01*
X132280920Y-152550020D02*
X132169160Y-152151240D01*
X132169160Y-152151240D02*
X131950720Y-151719440D01*
X131950720Y-151719440D02*
X131719580Y-151429880D01*
X131719580Y-151429880D02*
X131369060Y-151099680D01*
X131369060Y-151099680D02*
X130830580Y-150810120D01*
X130830580Y-150810120D02*
X130231140Y-150680580D01*
X130231140Y-150680580D02*
X129720600Y-150680580D01*
X129720600Y-150680580D02*
X129019560Y-150850760D01*
X129019560Y-150850760D02*
X128430280Y-151249540D01*
X128430280Y-151249540D02*
X128059440Y-151709280D01*
X128059440Y-151709280D02*
X127851160Y-152130920D01*
X127851160Y-152130920D02*
X127691140Y-152580500D01*
X127691140Y-152580500D02*
X127660660Y-153019920D01*
X127879100Y-160360520D02*
X128100080Y-160738980D01*
X128100080Y-160738980D02*
X128379480Y-161059020D01*
X128379480Y-161059020D02*
X128709680Y-161310480D01*
X128709680Y-161310480D02*
X129260860Y-161610200D01*
X129260860Y-161610200D02*
X129730760Y-161719420D01*
X129730760Y-161719420D02*
X130190500Y-161739740D01*
X130190500Y-161739740D02*
X130650240Y-161650840D01*
X130650240Y-161650840D02*
X131099820Y-161460340D01*
X131099820Y-161460340D02*
X131569720Y-161099660D01*
X131569720Y-161099660D02*
X131889760Y-160749140D01*
X131889760Y-160749140D02*
X132120900Y-160360520D01*
X132120900Y-160360520D02*
X132260600Y-159931260D01*
X132260600Y-159931260D02*
X132329180Y-159489300D01*
X127670820Y-152999600D02*
X127670820Y-159451200D01*
X127670820Y-159451200D02*
X127708920Y-159870300D01*
X127708920Y-159870300D02*
X127879100Y-160360520D01*
X132329180Y-152999600D02*
X132329180Y-159451200D01*
D12*
X137000380Y-143650240D02*
X137698880Y-143650240D01*
X135999620Y-143650240D02*
X135301120Y-143650240D01*
X137000380Y-142349760D02*
X137698880Y-142349760D01*
X135301120Y-142349760D02*
X135999620Y-142349760D01*
X137698880Y-142365000D02*
X137698880Y-143635000D01*
X135301120Y-143635000D02*
X135301120Y-142365000D01*
X135999620Y-147049760D02*
X135301120Y-147049760D01*
X137000380Y-147049760D02*
X137698880Y-147049760D01*
X135999620Y-148350240D02*
X135301120Y-148350240D01*
X137698880Y-148350240D02*
X137000380Y-148350240D01*
X135301120Y-148335000D02*
X135301120Y-147065000D01*
X137698880Y-147065000D02*
X137698880Y-148335000D01*
D14*
X139740000Y-156643000D02*
X139994000Y-156643000D01*
X139994000Y-156643000D02*
X139994000Y-154357000D01*
X139994000Y-154357000D02*
X139740000Y-154357000D01*
X139740000Y-156643000D02*
X139740000Y-154357000D01*
X139740000Y-154357000D02*
X138089000Y-154357000D01*
X136311000Y-156643000D02*
X134660000Y-156643000D01*
X134660000Y-156643000D02*
X134660000Y-154357000D01*
X134660000Y-154357000D02*
X136311000Y-154357000D01*
X138089000Y-156643000D02*
X139740000Y-156643000D01*
X114760000Y-134057000D02*
X114506000Y-134057000D01*
X114506000Y-134057000D02*
X114506000Y-136343000D01*
X114506000Y-136343000D02*
X114760000Y-136343000D01*
X114760000Y-134057000D02*
X114760000Y-136343000D01*
X114760000Y-136343000D02*
X116411000Y-136343000D01*
X118189000Y-134057000D02*
X119840000Y-134057000D01*
X119840000Y-134057000D02*
X119840000Y-136343000D01*
X119840000Y-136343000D02*
X118189000Y-136343000D01*
X116411000Y-134057000D02*
X114760000Y-134057000D01*
D12*
X138600380Y-153650240D02*
X139298880Y-153650240D01*
X137599620Y-153650240D02*
X136901120Y-153650240D01*
X138600380Y-152349760D02*
X139298880Y-152349760D01*
X136901120Y-152349760D02*
X137599620Y-152349760D01*
X139298880Y-152365000D02*
X139298880Y-153635000D01*
X136901120Y-153635000D02*
X136901120Y-152365000D01*
X116099620Y-136949760D02*
X115401120Y-136949760D01*
X117100380Y-136949760D02*
X117798880Y-136949760D01*
X116099620Y-138250240D02*
X115401120Y-138250240D01*
X117798880Y-138250240D02*
X117100380Y-138250240D01*
X115401120Y-138235000D02*
X115401120Y-136965000D01*
X117798880Y-136965000D02*
X117798880Y-138235000D01*
X145150240Y-144299620D02*
X145150240Y-143601120D01*
X145150240Y-145300380D02*
X145150240Y-145998880D01*
X143849760Y-144299620D02*
X143849760Y-143601120D01*
X143849760Y-145998880D02*
X143849760Y-145300380D01*
X143865000Y-143601120D02*
X145135000Y-143601120D01*
X145135000Y-145998880D02*
X143865000Y-145998880D01*
X139950240Y-140099620D02*
X139950240Y-139401120D01*
X139950240Y-141100380D02*
X139950240Y-141798880D01*
X138649760Y-140099620D02*
X138649760Y-139401120D01*
X138649760Y-141798880D02*
X138649760Y-141100380D01*
X138665000Y-139401120D02*
X139935000Y-139401120D01*
X139935000Y-141798880D02*
X138665000Y-141798880D01*
X136649760Y-141100380D02*
X136649760Y-141798880D01*
X136649760Y-140099620D02*
X136649760Y-139401120D01*
X137950240Y-141100380D02*
X137950240Y-141798880D01*
X137950240Y-139401120D02*
X137950240Y-140099620D01*
X137935000Y-141798880D02*
X136665000Y-141798880D01*
X136665000Y-139401120D02*
X137935000Y-139401120D01*
X173399620Y-146349760D02*
X172701120Y-146349760D01*
X174400380Y-146349760D02*
X175098880Y-146349760D01*
X173399620Y-147650240D02*
X172701120Y-147650240D01*
X175098880Y-147650240D02*
X174400380Y-147650240D01*
X172701120Y-147635000D02*
X172701120Y-146365000D01*
X175098880Y-146365000D02*
X175098880Y-147635000D01*
X167300380Y-147650240D02*
X167998880Y-147650240D01*
X166299620Y-147650240D02*
X165601120Y-147650240D01*
X167300380Y-146349760D02*
X167998880Y-146349760D01*
X165601120Y-146349760D02*
X166299620Y-146349760D01*
X167998880Y-146365000D02*
X167998880Y-147635000D01*
X165601120Y-147635000D02*
X165601120Y-146365000D01*
X176599760Y-143150380D02*
X176599760Y-143848880D01*
X176599760Y-142149620D02*
X176599760Y-141451120D01*
X177900240Y-143150380D02*
X177900240Y-143848880D01*
X177900240Y-141451120D02*
X177900240Y-142149620D01*
X177885000Y-143848880D02*
X176615000Y-143848880D01*
X176615000Y-141451120D02*
X177885000Y-141451120D01*
X171250380Y-139800240D02*
X171948880Y-139800240D01*
X170249620Y-139800240D02*
X169551120Y-139800240D01*
X171250380Y-138499760D02*
X171948880Y-138499760D01*
X169551120Y-138499760D02*
X170249620Y-138499760D01*
X171948880Y-138515000D02*
X171948880Y-139785000D01*
X169551120Y-139785000D02*
X169551120Y-138515000D01*
X176099620Y-139049760D02*
X175401120Y-139049760D01*
X177100380Y-139049760D02*
X177798880Y-139049760D01*
X176099620Y-140350240D02*
X175401120Y-140350240D01*
X177798880Y-140350240D02*
X177100380Y-140350240D01*
X175401120Y-140335000D02*
X175401120Y-139065000D01*
X177798880Y-139065000D02*
X177798880Y-140335000D01*
D13*
X127660000Y-147960000D02*
X131260000Y-147960000D01*
X127660000Y-145860000D02*
X131260000Y-145860000D01*
X129710000Y-146610000D02*
X129710000Y-147210000D01*
X129710000Y-147210000D02*
X129410000Y-146910000D01*
X129410000Y-146910000D02*
X129610000Y-146710000D01*
X129610000Y-146710000D02*
X129610000Y-146960000D01*
X129610000Y-146960000D02*
X129560000Y-146910000D01*
X129310000Y-146410000D02*
X129310000Y-147410000D01*
X129810000Y-146910000D02*
X130310000Y-146910000D01*
X129310000Y-146910000D02*
X129810000Y-146410000D01*
X129810000Y-146410000D02*
X129810000Y-147410000D01*
X129810000Y-147410000D02*
X129310000Y-146910000D01*
X127660000Y-142880000D02*
X131260000Y-142880000D01*
X127660000Y-140780000D02*
X131260000Y-140780000D01*
X129710000Y-141530000D02*
X129710000Y-142130000D01*
X129710000Y-142130000D02*
X129410000Y-141830000D01*
X129410000Y-141830000D02*
X129610000Y-141630000D01*
X129610000Y-141630000D02*
X129610000Y-141880000D01*
X129610000Y-141880000D02*
X129560000Y-141830000D01*
X129310000Y-141330000D02*
X129310000Y-142330000D01*
X129810000Y-141830000D02*
X130310000Y-141830000D01*
X129310000Y-141830000D02*
X129810000Y-141330000D01*
X129810000Y-141330000D02*
X129810000Y-142330000D01*
X129810000Y-142330000D02*
X129310000Y-141830000D01*
X175530000Y-129130000D02*
X114570000Y-129130000D01*
X114570000Y-129130000D02*
X114570000Y-131670000D01*
X114570000Y-131670000D02*
X175530000Y-131670000D01*
X178350000Y-131950000D02*
X176800000Y-131950000D01*
X175530000Y-131670000D02*
X175530000Y-129130000D01*
X176800000Y-128850000D02*
X178350000Y-128850000D01*
X178350000Y-128850000D02*
X178350000Y-131950000D01*
X175530000Y-167230000D02*
X114570000Y-167230000D01*
X114570000Y-167230000D02*
X114570000Y-169770000D01*
X114570000Y-169770000D02*
X175530000Y-169770000D01*
X178350000Y-170050000D02*
X176800000Y-170050000D01*
X175530000Y-169770000D02*
X175530000Y-167230000D01*
X176800000Y-166950000D02*
X178350000Y-166950000D01*
X178350000Y-166950000D02*
X178350000Y-170050000D01*
X138200000Y-151475000D02*
X137000000Y-151475000D01*
X137000000Y-149725000D02*
X138200000Y-149725000D01*
D14*
X125230380Y-147608500D02*
X125936500Y-147608500D01*
X125936500Y-147608500D02*
X125936500Y-146211500D01*
X125936500Y-146211500D02*
X125230380Y-146211500D01*
X123523500Y-147608500D02*
X124229620Y-147608500D01*
X123523500Y-147608500D02*
X123523500Y-146211500D01*
X123523500Y-146211500D02*
X124229620Y-146211500D01*
X122888500Y-155299620D02*
X122888500Y-154593500D01*
X122888500Y-154593500D02*
X121491500Y-154593500D01*
X121491500Y-154593500D02*
X121491500Y-155299620D01*
X122888500Y-157006500D02*
X122888500Y-156300380D01*
X122888500Y-157006500D02*
X121491500Y-157006500D01*
X121491500Y-157006500D02*
X121491500Y-156300380D01*
X133999620Y-139901500D02*
X133293500Y-139901500D01*
X133293500Y-139901500D02*
X133293500Y-141298500D01*
X133293500Y-141298500D02*
X133999620Y-141298500D01*
X135706500Y-139901500D02*
X135000380Y-139901500D01*
X135706500Y-139901500D02*
X135706500Y-141298500D01*
X135706500Y-141298500D02*
X135000380Y-141298500D01*
X124229620Y-141131500D02*
X123523500Y-141131500D01*
X123523500Y-141131500D02*
X123523500Y-142528500D01*
X123523500Y-142528500D02*
X124229620Y-142528500D01*
X125936500Y-141131500D02*
X125230380Y-141131500D01*
X125936500Y-141131500D02*
X125936500Y-142528500D01*
X125936500Y-142528500D02*
X125230380Y-142528500D01*
D13*
X120430000Y-159620000D02*
G75*
G03X120430000Y-159620000I-2540000J0D01*
G01*
X114890000Y-162620000D02*
X114890000Y-156620000D01*
X114890000Y-156620000D02*
X120890000Y-156620000D01*
X120890000Y-156620000D02*
X120890000Y-162620000D01*
X114890000Y-162620000D02*
X120890000Y-162620000D01*
X147325000Y-145525000D02*
X147325000Y-146600000D01*
X157675000Y-145525000D02*
X157675000Y-146600000D01*
X157675000Y-155875000D02*
X157675000Y-154800000D01*
X147325000Y-155875000D02*
X147325000Y-154800000D01*
X147325000Y-145525000D02*
X148400000Y-145525000D01*
X147325000Y-155875000D02*
X148400000Y-155875000D01*
X157675000Y-155875000D02*
X156600000Y-155875000D01*
X157675000Y-145525000D02*
X156600000Y-145525000D01*
X147325000Y-146600000D02*
X146300000Y-146600000D01*
D15*
X175435000Y-145306000D02*
G75*
G03X175435000Y-145306000I-254000J0D01*
G01*
X168790360Y-145519360D02*
X173189640Y-145519360D01*
X173189640Y-145519360D02*
X173189640Y-140520640D01*
X173189640Y-140520640D02*
X168790360Y-140520640D01*
X168790360Y-140520640D02*
X168790360Y-145519360D01*
D13*
X143505000Y-142605000D02*
X143505000Y-138795000D01*
X143505000Y-138795000D02*
X151760000Y-138795000D01*
X151760000Y-138795000D02*
X151760000Y-142605000D01*
X151760000Y-142605000D02*
X143505000Y-142605000D01*
X141600000Y-141970000D02*
X143505000Y-141970000D01*
X141600000Y-139430000D02*
X143505000Y-139430000D01*
X178705000Y-160880000D02*
X178705000Y-150720000D01*
X174260000Y-160880000D02*
X174260000Y-150720000D01*
X172355000Y-160880000D02*
X172355000Y-150720000D01*
X172355000Y-160880000D02*
X178705000Y-160880000D01*
X172355000Y-150720000D02*
X178705000Y-150720000D01*
D14*
X116609620Y-150021500D02*
X115903500Y-150021500D01*
X115903500Y-150021500D02*
X115903500Y-151418500D01*
X115903500Y-151418500D02*
X116609620Y-151418500D01*
X118316500Y-150021500D02*
X117610380Y-150021500D01*
X118316500Y-150021500D02*
X118316500Y-151418500D01*
X118316500Y-151418500D02*
X117610380Y-151418500D01*
D13*
X122337000Y-140990000D02*
X122337000Y-148617000D01*
X122337000Y-148617000D02*
X114329000Y-148617000D01*
X114329000Y-148617000D02*
X114329000Y-140990000D01*
X114329000Y-140990000D02*
X122270000Y-140990000D01*
D12*
X150899620Y-162749760D02*
X150201120Y-162749760D01*
X151900380Y-162749760D02*
X152598880Y-162749760D01*
X150899620Y-164050240D02*
X150201120Y-164050240D01*
X152598880Y-164050240D02*
X151900380Y-164050240D01*
X150201120Y-164035000D02*
X150201120Y-162765000D01*
X152598880Y-162765000D02*
X152598880Y-164035000D01*
X159100380Y-144850240D02*
X159798880Y-144850240D01*
X158099620Y-144850240D02*
X157401120Y-144850240D01*
X159100380Y-143549760D02*
X159798880Y-143549760D01*
X157401120Y-143549760D02*
X158099620Y-143549760D01*
X159798880Y-143565000D02*
X159798880Y-144835000D01*
X157401120Y-144835000D02*
X157401120Y-143565000D01*
D13*
X160957143Y-102842857D02*
X161004762Y-102890476D01*
X161052381Y-103033333D01*
X161052381Y-103128571D01*
X161004762Y-103271429D01*
X160909524Y-103366667D01*
X160814286Y-103414286D01*
X160623810Y-103461905D01*
X160480952Y-103461905D01*
X160290476Y-103414286D01*
X160195238Y-103366667D01*
X160100000Y-103271429D01*
X160052381Y-103128571D01*
X160052381Y-103033333D01*
X160100000Y-102890476D01*
X160147619Y-102842857D01*
X161052381Y-101890476D02*
X161052381Y-102461905D01*
X161052381Y-102176191D02*
X160052381Y-102176191D01*
X160195238Y-102271429D01*
X160290476Y-102366667D01*
X160338095Y-102461905D01*
X160052381Y-101033333D02*
X160052381Y-101223810D01*
X160100000Y-101319048D01*
X160147619Y-101366667D01*
X160290476Y-101461905D01*
X160480952Y-101509524D01*
X160861905Y-101509524D01*
X160957143Y-101461905D01*
X161004762Y-101414286D01*
X161052381Y-101319048D01*
X161052381Y-101128571D01*
X161004762Y-101033333D01*
X160957143Y-100985714D01*
X160861905Y-100938095D01*
X160623810Y-100938095D01*
X160528571Y-100985714D01*
X160480952Y-101033333D01*
X160433333Y-101128571D01*
X160433333Y-101319048D01*
X160480952Y-101414286D01*
X160528571Y-101461905D01*
X160623810Y-101509524D01*
D16*
X156719190Y-103059971D02*
X156695000Y-103038200D01*
X156670810Y-102994657D01*
X156670810Y-102885800D01*
X156695000Y-102842257D01*
X156719190Y-102820486D01*
X156767571Y-102798714D01*
X156815952Y-102798714D01*
X156888524Y-102820486D01*
X157178810Y-103081743D01*
X157178810Y-102798714D01*
X157130429Y-102602771D02*
X157154619Y-102580999D01*
X157178810Y-102602771D01*
X157154619Y-102624542D01*
X157130429Y-102602771D01*
X157178810Y-102602771D01*
X156719190Y-102406828D02*
X156695000Y-102385057D01*
X156670810Y-102341514D01*
X156670810Y-102232657D01*
X156695000Y-102189114D01*
X156719190Y-102167343D01*
X156767571Y-102145571D01*
X156815952Y-102145571D01*
X156888524Y-102167343D01*
X157178810Y-102428600D01*
X157178810Y-102145571D01*
X156840143Y-101753685D02*
X157178810Y-101753685D01*
X156840143Y-101949628D02*
X157106238Y-101949628D01*
X157154619Y-101927856D01*
X157178810Y-101884314D01*
X157178810Y-101818999D01*
X157154619Y-101775456D01*
X157130429Y-101753685D01*
X156912714Y-101383571D02*
X156912714Y-101535971D01*
X157178810Y-101535971D02*
X156670810Y-101535971D01*
X156670810Y-101318257D01*
D13*
X149757143Y-122042857D02*
X149804762Y-122090476D01*
X149852381Y-122233333D01*
X149852381Y-122328571D01*
X149804762Y-122471429D01*
X149709524Y-122566667D01*
X149614286Y-122614286D01*
X149423810Y-122661905D01*
X149280952Y-122661905D01*
X149090476Y-122614286D01*
X148995238Y-122566667D01*
X148900000Y-122471429D01*
X148852381Y-122328571D01*
X148852381Y-122233333D01*
X148900000Y-122090476D01*
X148947619Y-122042857D01*
X149852381Y-121090476D02*
X149852381Y-121661905D01*
X149852381Y-121376191D02*
X148852381Y-121376191D01*
X148995238Y-121471429D01*
X149090476Y-121566667D01*
X149138095Y-121661905D01*
X148852381Y-120185714D02*
X148852381Y-120661905D01*
X149328571Y-120709524D01*
X149280952Y-120661905D01*
X149233333Y-120566667D01*
X149233333Y-120328571D01*
X149280952Y-120233333D01*
X149328571Y-120185714D01*
X149423810Y-120138095D01*
X149661905Y-120138095D01*
X149757143Y-120185714D01*
X149804762Y-120233333D01*
X149852381Y-120328571D01*
X149852381Y-120566667D01*
X149804762Y-120661905D01*
X149757143Y-120709524D01*
D16*
X152821190Y-122259971D02*
X152797000Y-122238200D01*
X152772810Y-122194657D01*
X152772810Y-122085800D01*
X152797000Y-122042257D01*
X152821190Y-122020486D01*
X152869571Y-121998714D01*
X152917952Y-121998714D01*
X152990524Y-122020486D01*
X153280810Y-122281743D01*
X153280810Y-121998714D01*
X153232429Y-121802771D02*
X153256619Y-121780999D01*
X153280810Y-121802771D01*
X153256619Y-121824542D01*
X153232429Y-121802771D01*
X153280810Y-121802771D01*
X152821190Y-121606828D02*
X152797000Y-121585057D01*
X152772810Y-121541514D01*
X152772810Y-121432657D01*
X152797000Y-121389114D01*
X152821190Y-121367343D01*
X152869571Y-121345571D01*
X152917952Y-121345571D01*
X152990524Y-121367343D01*
X153280810Y-121628600D01*
X153280810Y-121345571D01*
X152942143Y-120953685D02*
X153280810Y-120953685D01*
X152942143Y-121149628D02*
X153208238Y-121149628D01*
X153256619Y-121127856D01*
X153280810Y-121084314D01*
X153280810Y-121018999D01*
X153256619Y-120975456D01*
X153232429Y-120953685D01*
X153014714Y-120583571D02*
X153014714Y-120735971D01*
X153280810Y-120735971D02*
X152772810Y-120735971D01*
X152772810Y-120518257D01*
D13*
X117066667Y-103104762D02*
X117209524Y-103152381D01*
X117447620Y-103152381D01*
X117542858Y-103104762D01*
X117590477Y-103057143D01*
X117638096Y-102961905D01*
X117638096Y-102866667D01*
X117590477Y-102771429D01*
X117542858Y-102723810D01*
X117447620Y-102676190D01*
X117257143Y-102628571D01*
X117161905Y-102580952D01*
X117114286Y-102533333D01*
X117066667Y-102438095D01*
X117066667Y-102342857D01*
X117114286Y-102247619D01*
X117161905Y-102200000D01*
X117257143Y-102152381D01*
X117495239Y-102152381D01*
X117638096Y-102200000D01*
X117971429Y-102152381D02*
X118209524Y-103152381D01*
X118400001Y-102438095D01*
X118590477Y-103152381D01*
X118828572Y-102152381D01*
X119161905Y-102247619D02*
X119209524Y-102200000D01*
X119304762Y-102152381D01*
X119542858Y-102152381D01*
X119638096Y-102200000D01*
X119685715Y-102247619D01*
X119733334Y-102342857D01*
X119733334Y-102438095D01*
X119685715Y-102580952D01*
X119114286Y-103152381D01*
X119733334Y-103152381D01*
X120152381Y-108866666D02*
X119676190Y-109200000D01*
X120152381Y-109438095D02*
X119152381Y-109438095D01*
X119152381Y-109057142D01*
X119200000Y-108961904D01*
X119247619Y-108914285D01*
X119342857Y-108866666D01*
X119485714Y-108866666D01*
X119580952Y-108914285D01*
X119628571Y-108961904D01*
X119676190Y-109057142D01*
X119676190Y-109438095D01*
X119152381Y-107961904D02*
X119152381Y-108438095D01*
X119628571Y-108485714D01*
X119580952Y-108438095D01*
X119533333Y-108342857D01*
X119533333Y-108104761D01*
X119580952Y-108009523D01*
X119628571Y-107961904D01*
X119723810Y-107914285D01*
X119961905Y-107914285D01*
X120057143Y-107961904D01*
X120104762Y-108009523D01*
X120152381Y-108104761D01*
X120152381Y-108342857D01*
X120104762Y-108438095D01*
X120057143Y-108485714D01*
D16*
X115180930Y-109296943D02*
X115156740Y-109275172D01*
X115132550Y-109231629D01*
X115132550Y-109122772D01*
X115156740Y-109079229D01*
X115180930Y-109057458D01*
X115229311Y-109035686D01*
X115277692Y-109035686D01*
X115350264Y-109057458D01*
X115640550Y-109318715D01*
X115640550Y-109035686D01*
X115180930Y-108861514D02*
X115156740Y-108839743D01*
X115132550Y-108796200D01*
X115132550Y-108687343D01*
X115156740Y-108643800D01*
X115180930Y-108622029D01*
X115229311Y-108600257D01*
X115277692Y-108600257D01*
X115350264Y-108622029D01*
X115640550Y-108883286D01*
X115640550Y-108600257D01*
X115640550Y-108404314D02*
X115132550Y-108404314D01*
X115640550Y-108143057D02*
X115350264Y-108339000D01*
X115132550Y-108143057D02*
X115422835Y-108404314D01*
D13*
X117536667Y-113252381D02*
X117536667Y-113966667D01*
X117489047Y-114109524D01*
X117393809Y-114204762D01*
X117250952Y-114252381D01*
X117155714Y-114252381D01*
X118441429Y-113585714D02*
X118441429Y-114252381D01*
X118203333Y-113204762D02*
X117965238Y-113919048D01*
X118584286Y-113919048D01*
X122026667Y-110428571D02*
X122169524Y-110476190D01*
X122217143Y-110523810D01*
X122264762Y-110619048D01*
X122264762Y-110761905D01*
X122217143Y-110857143D01*
X122169524Y-110904762D01*
X122074286Y-110952381D01*
X121693333Y-110952381D01*
X121693333Y-109952381D01*
X122026667Y-109952381D01*
X122121905Y-110000000D01*
X122169524Y-110047619D01*
X122217143Y-110142857D01*
X122217143Y-110238095D01*
X122169524Y-110333333D01*
X122121905Y-110380952D01*
X122026667Y-110428571D01*
X121693333Y-110428571D01*
X122883809Y-109952381D02*
X123074286Y-109952381D01*
X123169524Y-110000000D01*
X123264762Y-110095238D01*
X123312381Y-110285714D01*
X123312381Y-110619048D01*
X123264762Y-110809524D01*
X123169524Y-110904762D01*
X123074286Y-110952381D01*
X122883809Y-110952381D01*
X122788571Y-110904762D01*
X122693333Y-110809524D01*
X122645714Y-110619048D01*
X122645714Y-110285714D01*
X122693333Y-110095238D01*
X122788571Y-110000000D01*
X122883809Y-109952381D01*
X123931428Y-109952381D02*
X124121905Y-109952381D01*
X124217143Y-110000000D01*
X124312381Y-110095238D01*
X124360000Y-110285714D01*
X124360000Y-110619048D01*
X124312381Y-110809524D01*
X124217143Y-110904762D01*
X124121905Y-110952381D01*
X123931428Y-110952381D01*
X123836190Y-110904762D01*
X123740952Y-110809524D01*
X123693333Y-110619048D01*
X123693333Y-110285714D01*
X123740952Y-110095238D01*
X123836190Y-110000000D01*
X123931428Y-109952381D01*
X124645714Y-109952381D02*
X125217143Y-109952381D01*
X124931428Y-110952381D02*
X124931428Y-109952381D01*
X126074286Y-110952381D02*
X125502857Y-110952381D01*
X125788571Y-110952381D02*
X125788571Y-109952381D01*
X125693333Y-110095238D01*
X125598095Y-110190476D01*
X125502857Y-110238095D01*
X170982381Y-110133333D02*
X171696667Y-110133333D01*
X171839524Y-110180953D01*
X171934762Y-110276191D01*
X171982381Y-110419048D01*
X171982381Y-110514286D01*
X170982381Y-109752381D02*
X170982381Y-109133333D01*
X171363333Y-109466667D01*
X171363333Y-109323809D01*
X171410952Y-109228571D01*
X171458571Y-109180952D01*
X171553810Y-109133333D01*
X171791905Y-109133333D01*
X171887143Y-109180952D01*
X171934762Y-109228571D01*
X171982381Y-109323809D01*
X171982381Y-109609524D01*
X171934762Y-109704762D01*
X171887143Y-109752381D01*
X147092809Y-99565190D02*
X147092809Y-100041381D01*
X146759476Y-99041381D02*
X147092809Y-99565190D01*
X147426143Y-99041381D01*
X148283286Y-100041381D02*
X147711857Y-100041381D01*
X147997571Y-100041381D02*
X147997571Y-99041381D01*
X147902333Y-99184238D01*
X147807095Y-99279476D01*
X147711857Y-99327095D01*
D17*
X170409429Y-96792714D02*
X170409429Y-97409571D01*
X170445714Y-97482143D01*
X170482000Y-97518429D01*
X170554571Y-97554714D01*
X170699714Y-97554714D01*
X170772286Y-97518429D01*
X170808571Y-97482143D01*
X170844857Y-97409571D01*
X170844857Y-96792714D01*
X171171429Y-96865286D02*
X171207715Y-96829000D01*
X171280286Y-96792714D01*
X171461715Y-96792714D01*
X171534286Y-96829000D01*
X171570572Y-96865286D01*
X171606857Y-96937857D01*
X171606857Y-97010429D01*
X171570572Y-97119286D01*
X171135143Y-97554714D01*
X171606857Y-97554714D01*
D13*
X151738095Y-100952381D02*
X151738095Y-101761905D01*
X151785714Y-101857143D01*
X151833333Y-101904762D01*
X151928571Y-101952381D01*
X152119048Y-101952381D01*
X152214286Y-101904762D01*
X152261905Y-101857143D01*
X152309524Y-101761905D01*
X152309524Y-100952381D01*
X153309524Y-101952381D02*
X152738095Y-101952381D01*
X153023809Y-101952381D02*
X153023809Y-100952381D01*
X152928571Y-101095238D01*
X152833333Y-101190476D01*
X152738095Y-101238095D01*
X117532762Y-118953333D02*
X117580381Y-118810476D01*
X117580381Y-118572380D01*
X117532762Y-118477142D01*
X117485143Y-118429523D01*
X117389905Y-118381904D01*
X117294667Y-118381904D01*
X117199429Y-118429523D01*
X117151810Y-118477142D01*
X117104190Y-118572380D01*
X117056571Y-118762857D01*
X117008952Y-118858095D01*
X116961333Y-118905714D01*
X116866095Y-118953333D01*
X116770857Y-118953333D01*
X116675619Y-118905714D01*
X116628000Y-118858095D01*
X116580381Y-118762857D01*
X116580381Y-118524761D01*
X116628000Y-118381904D01*
X116580381Y-118048571D02*
X117580381Y-117810476D01*
X116866095Y-117619999D01*
X117580381Y-117429523D01*
X116580381Y-117191428D01*
X117580381Y-116286666D02*
X117580381Y-116858095D01*
X117580381Y-116572381D02*
X116580381Y-116572381D01*
X116723238Y-116667619D01*
X116818476Y-116762857D01*
X116866095Y-116858095D01*
X124633334Y-98352381D02*
X124300000Y-97876190D01*
X124061905Y-98352381D02*
X124061905Y-97352381D01*
X124442858Y-97352381D01*
X124538096Y-97400000D01*
X124585715Y-97447619D01*
X124633334Y-97542857D01*
X124633334Y-97685714D01*
X124585715Y-97780952D01*
X124538096Y-97828571D01*
X124442858Y-97876190D01*
X124061905Y-97876190D01*
X125490477Y-97685714D02*
X125490477Y-98352381D01*
X125252381Y-97304762D02*
X125014286Y-98019048D01*
X125633334Y-98019048D01*
D16*
X122921883Y-100178343D02*
X123260550Y-100178343D01*
X122728359Y-100287200D02*
X123091216Y-100396057D01*
X123091216Y-100113029D01*
X122752550Y-99982400D02*
X122752550Y-99677600D01*
X123260550Y-99873543D01*
X122752550Y-99416342D02*
X122752550Y-99372799D01*
X122776740Y-99329256D01*
X122800930Y-99307485D01*
X122849311Y-99285714D01*
X122946073Y-99263942D01*
X123067026Y-99263942D01*
X123163788Y-99285714D01*
X123212169Y-99307485D01*
X123236359Y-99329256D01*
X123260550Y-99372799D01*
X123260550Y-99416342D01*
X123236359Y-99459885D01*
X123212169Y-99481656D01*
X123163788Y-99503428D01*
X123067026Y-99525199D01*
X122946073Y-99525199D01*
X122849311Y-99503428D01*
X122800930Y-99481656D01*
X122776740Y-99459885D01*
X122752550Y-99416342D01*
D13*
X133733334Y-97452381D02*
X133400000Y-96976190D01*
X133161905Y-97452381D02*
X133161905Y-96452381D01*
X133542858Y-96452381D01*
X133638096Y-96500000D01*
X133685715Y-96547619D01*
X133733334Y-96642857D01*
X133733334Y-96785714D01*
X133685715Y-96880952D01*
X133638096Y-96928571D01*
X133542858Y-96976190D01*
X133161905Y-96976190D01*
X134066667Y-96452381D02*
X134685715Y-96452381D01*
X134352381Y-96833333D01*
X134495239Y-96833333D01*
X134590477Y-96880952D01*
X134638096Y-96928571D01*
X134685715Y-97023810D01*
X134685715Y-97261905D01*
X134638096Y-97357143D01*
X134590477Y-97404762D01*
X134495239Y-97452381D01*
X134209524Y-97452381D01*
X134114286Y-97404762D01*
X134066667Y-97357143D01*
D16*
X132570930Y-99176943D02*
X132546740Y-99155172D01*
X132522550Y-99111629D01*
X132522550Y-99002772D01*
X132546740Y-98959229D01*
X132570930Y-98937458D01*
X132619311Y-98915686D01*
X132667692Y-98915686D01*
X132740264Y-98937458D01*
X133030550Y-99198715D01*
X133030550Y-98915686D01*
X132570930Y-98741514D02*
X132546740Y-98719743D01*
X132522550Y-98676200D01*
X132522550Y-98567343D01*
X132546740Y-98523800D01*
X132570930Y-98502029D01*
X132619311Y-98480257D01*
X132667692Y-98480257D01*
X132740264Y-98502029D01*
X133030550Y-98763286D01*
X133030550Y-98480257D01*
X133030550Y-98284314D02*
X132522550Y-98284314D01*
X133030550Y-98023057D02*
X132740264Y-98219000D01*
X132522550Y-98023057D02*
X132812835Y-98284314D01*
D13*
X122133334Y-117052381D02*
X121800000Y-116576190D01*
X121561905Y-117052381D02*
X121561905Y-116052381D01*
X121942858Y-116052381D01*
X122038096Y-116100000D01*
X122085715Y-116147619D01*
X122133334Y-116242857D01*
X122133334Y-116385714D01*
X122085715Y-116480952D01*
X122038096Y-116528571D01*
X121942858Y-116576190D01*
X121561905Y-116576190D01*
X122514286Y-116147619D02*
X122561905Y-116100000D01*
X122657143Y-116052381D01*
X122895239Y-116052381D01*
X122990477Y-116100000D01*
X123038096Y-116147619D01*
X123085715Y-116242857D01*
X123085715Y-116338095D01*
X123038096Y-116480952D01*
X122466667Y-117052381D01*
X123085715Y-117052381D01*
D16*
X121613057Y-111870930D02*
X121634828Y-111846740D01*
X121678371Y-111822550D01*
X121787228Y-111822550D01*
X121830771Y-111846740D01*
X121852542Y-111870930D01*
X121874314Y-111919311D01*
X121874314Y-111967692D01*
X121852542Y-112040264D01*
X121591285Y-112330550D01*
X121874314Y-112330550D01*
X122048486Y-111870930D02*
X122070257Y-111846740D01*
X122113800Y-111822550D01*
X122222657Y-111822550D01*
X122266200Y-111846740D01*
X122287971Y-111870930D01*
X122309743Y-111919311D01*
X122309743Y-111967692D01*
X122287971Y-112040264D01*
X122026714Y-112330550D01*
X122309743Y-112330550D01*
X122505686Y-112330550D02*
X122505686Y-111822550D01*
X122766943Y-112330550D02*
X122571000Y-112040264D01*
X122766943Y-111822550D02*
X122505686Y-112112835D01*
D13*
X124833334Y-103452381D02*
X124500000Y-102976190D01*
X124261905Y-103452381D02*
X124261905Y-102452381D01*
X124642858Y-102452381D01*
X124738096Y-102500000D01*
X124785715Y-102547619D01*
X124833334Y-102642857D01*
X124833334Y-102785714D01*
X124785715Y-102880952D01*
X124738096Y-102928571D01*
X124642858Y-102976190D01*
X124261905Y-102976190D01*
X125785715Y-103452381D02*
X125214286Y-103452381D01*
X125500000Y-103452381D02*
X125500000Y-102452381D01*
X125404762Y-102595238D01*
X125309524Y-102690476D01*
X125214286Y-102738095D01*
D16*
X126320403Y-105258343D02*
X126659070Y-105258343D01*
X126126879Y-105367200D02*
X126489736Y-105476057D01*
X126489736Y-105193029D01*
X126151070Y-105062400D02*
X126151070Y-104757600D01*
X126659070Y-104953543D01*
X126151070Y-104496342D02*
X126151070Y-104452799D01*
X126175260Y-104409256D01*
X126199450Y-104387485D01*
X126247831Y-104365714D01*
X126344593Y-104343942D01*
X126465546Y-104343942D01*
X126562308Y-104365714D01*
X126610689Y-104387485D01*
X126634879Y-104409256D01*
X126659070Y-104452799D01*
X126659070Y-104496342D01*
X126634879Y-104539885D01*
X126610689Y-104561656D01*
X126562308Y-104583428D01*
X126465546Y-104605199D01*
X126344593Y-104605199D01*
X126247831Y-104583428D01*
X126199450Y-104561656D01*
X126175260Y-104539885D01*
X126151070Y-104496342D01*
D13*
X141133334Y-108852381D02*
X140657143Y-108852381D01*
X140657143Y-107852381D01*
X141990477Y-108852381D02*
X141419048Y-108852381D01*
X141704762Y-108852381D02*
X141704762Y-107852381D01*
X141609524Y-107995238D01*
X141514286Y-108090476D01*
X141419048Y-108138095D01*
X181352381Y-126833333D02*
X182066667Y-126833333D01*
X182209524Y-126880953D01*
X182304762Y-126976191D01*
X182352381Y-127119048D01*
X182352381Y-127214286D01*
X181447619Y-126404762D02*
X181400000Y-126357143D01*
X181352381Y-126261905D01*
X181352381Y-126023809D01*
X181400000Y-125928571D01*
X181447619Y-125880952D01*
X181542857Y-125833333D01*
X181638095Y-125833333D01*
X181780952Y-125880952D01*
X182352381Y-126452381D01*
X182352381Y-125833333D01*
X181352381Y-88733333D02*
X182066667Y-88733333D01*
X182209524Y-88780953D01*
X182304762Y-88876191D01*
X182352381Y-89019048D01*
X182352381Y-89114286D01*
X182352381Y-87733333D02*
X182352381Y-88304762D01*
X182352381Y-88019048D02*
X181352381Y-88019048D01*
X181495238Y-88114286D01*
X181590476Y-88209524D01*
X181638095Y-88304762D01*
X129071905Y-98282381D02*
X129071905Y-97282381D01*
X129310000Y-97282381D01*
X129452858Y-97330000D01*
X129548096Y-97425238D01*
X129595715Y-97520476D01*
X129643334Y-97710952D01*
X129643334Y-97853810D01*
X129595715Y-98044286D01*
X129548096Y-98139524D01*
X129452858Y-98234762D01*
X129310000Y-98282381D01*
X129071905Y-98282381D01*
X130024286Y-97377619D02*
X130071905Y-97330000D01*
X130167143Y-97282381D01*
X130405239Y-97282381D01*
X130500477Y-97330000D01*
X130548096Y-97377619D01*
X130595715Y-97472857D01*
X130595715Y-97568095D01*
X130548096Y-97710952D01*
X129976667Y-98282381D01*
X130595715Y-98282381D01*
X129071905Y-103362381D02*
X129071905Y-102362381D01*
X129310000Y-102362381D01*
X129452858Y-102410000D01*
X129548096Y-102505238D01*
X129595715Y-102600476D01*
X129643334Y-102790952D01*
X129643334Y-102933810D01*
X129595715Y-103124286D01*
X129548096Y-103219524D01*
X129452858Y-103314762D01*
X129310000Y-103362381D01*
X129071905Y-103362381D01*
X130595715Y-103362381D02*
X130024286Y-103362381D01*
X130310000Y-103362381D02*
X130310000Y-102362381D01*
X130214762Y-102505238D01*
X130119524Y-102600476D01*
X130024286Y-102648095D01*
X176057143Y-96057143D02*
X176009524Y-96104762D01*
X175866667Y-96152381D01*
X175771429Y-96152381D01*
X175628571Y-96104762D01*
X175533333Y-96009524D01*
X175485714Y-95914286D01*
X175438095Y-95723810D01*
X175438095Y-95580952D01*
X175485714Y-95390476D01*
X175533333Y-95295238D01*
X175628571Y-95200000D01*
X175771429Y-95152381D01*
X175866667Y-95152381D01*
X176009524Y-95200000D01*
X176057143Y-95247619D01*
X177009524Y-96152381D02*
X176438095Y-96152381D01*
X176723809Y-96152381D02*
X176723809Y-95152381D01*
X176628571Y-95295238D01*
X176533333Y-95390476D01*
X176438095Y-95438095D01*
X177866667Y-95485714D02*
X177866667Y-96152381D01*
X177628571Y-95104762D02*
X177390476Y-95819048D01*
X178009524Y-95819048D01*
D16*
X178480810Y-98407572D02*
X178480810Y-98668829D01*
X178480810Y-98538201D02*
X177972810Y-98538201D01*
X178045381Y-98581744D01*
X178093762Y-98625286D01*
X178117952Y-98668829D01*
X177972810Y-98124543D02*
X177972810Y-98081000D01*
X177997000Y-98037457D01*
X178021190Y-98015686D01*
X178069571Y-97993915D01*
X178166333Y-97972143D01*
X178287286Y-97972143D01*
X178384048Y-97993915D01*
X178432429Y-98015686D01*
X178456619Y-98037457D01*
X178480810Y-98081000D01*
X178480810Y-98124543D01*
X178456619Y-98168086D01*
X178432429Y-98189857D01*
X178384048Y-98211629D01*
X178287286Y-98233400D01*
X178166333Y-98233400D01*
X178069571Y-98211629D01*
X178021190Y-98189857D01*
X177997000Y-98168086D01*
X177972810Y-98124543D01*
X177972810Y-97689114D02*
X177972810Y-97645571D01*
X177997000Y-97602028D01*
X178021190Y-97580257D01*
X178069571Y-97558486D01*
X178166333Y-97536714D01*
X178287286Y-97536714D01*
X178384048Y-97558486D01*
X178432429Y-97580257D01*
X178456619Y-97602028D01*
X178480810Y-97645571D01*
X178480810Y-97689114D01*
X178456619Y-97732657D01*
X178432429Y-97754428D01*
X178384048Y-97776200D01*
X178287286Y-97797971D01*
X178166333Y-97797971D01*
X178069571Y-97776200D01*
X178021190Y-97754428D01*
X177997000Y-97732657D01*
X177972810Y-97689114D01*
X178142143Y-97340771D02*
X178480810Y-97340771D01*
X178190524Y-97340771D02*
X178166333Y-97318999D01*
X178142143Y-97275457D01*
X178142143Y-97210142D01*
X178166333Y-97166599D01*
X178214714Y-97144828D01*
X178480810Y-97144828D01*
X178214714Y-96774714D02*
X178214714Y-96927114D01*
X178480810Y-96927114D02*
X177972810Y-96927114D01*
X177972810Y-96709400D01*
D13*
X170367143Y-95447143D02*
X170319524Y-95494762D01*
X170176667Y-95542381D01*
X170081429Y-95542381D01*
X169938571Y-95494762D01*
X169843333Y-95399524D01*
X169795714Y-95304286D01*
X169748095Y-95113810D01*
X169748095Y-94970952D01*
X169795714Y-94780476D01*
X169843333Y-94685238D01*
X169938571Y-94590000D01*
X170081429Y-94542381D01*
X170176667Y-94542381D01*
X170319524Y-94590000D01*
X170367143Y-94637619D01*
X171319524Y-95542381D02*
X170748095Y-95542381D01*
X171033809Y-95542381D02*
X171033809Y-94542381D01*
X170938571Y-94685238D01*
X170843333Y-94780476D01*
X170748095Y-94828095D01*
X171652857Y-94542381D02*
X172271905Y-94542381D01*
X171938571Y-94923333D01*
X172081429Y-94923333D01*
X172176667Y-94970952D01*
X172224286Y-95018571D01*
X172271905Y-95113810D01*
X172271905Y-95351905D01*
X172224286Y-95447143D01*
X172176667Y-95494762D01*
X172081429Y-95542381D01*
X171795714Y-95542381D01*
X171700476Y-95494762D01*
X171652857Y-95447143D01*
D16*
X169328810Y-97857572D02*
X169328810Y-98118829D01*
X169328810Y-97988201D02*
X168820810Y-97988201D01*
X168893381Y-98031744D01*
X168941762Y-98075286D01*
X168965952Y-98118829D01*
X168820810Y-97574543D02*
X168820810Y-97531000D01*
X168845000Y-97487457D01*
X168869190Y-97465686D01*
X168917571Y-97443915D01*
X169014333Y-97422143D01*
X169135286Y-97422143D01*
X169232048Y-97443915D01*
X169280429Y-97465686D01*
X169304619Y-97487457D01*
X169328810Y-97531000D01*
X169328810Y-97574543D01*
X169304619Y-97618086D01*
X169280429Y-97639857D01*
X169232048Y-97661629D01*
X169135286Y-97683400D01*
X169014333Y-97683400D01*
X168917571Y-97661629D01*
X168869190Y-97639857D01*
X168845000Y-97618086D01*
X168820810Y-97574543D01*
X168820810Y-97139114D02*
X168820810Y-97095571D01*
X168845000Y-97052028D01*
X168869190Y-97030257D01*
X168917571Y-97008486D01*
X169014333Y-96986714D01*
X169135286Y-96986714D01*
X169232048Y-97008486D01*
X169280429Y-97030257D01*
X169304619Y-97052028D01*
X169328810Y-97095571D01*
X169328810Y-97139114D01*
X169304619Y-97182657D01*
X169280429Y-97204428D01*
X169232048Y-97226200D01*
X169135286Y-97247971D01*
X169014333Y-97247971D01*
X168917571Y-97226200D01*
X168869190Y-97204428D01*
X168845000Y-97182657D01*
X168820810Y-97139114D01*
X168990143Y-96790771D02*
X169328810Y-96790771D01*
X169038524Y-96790771D02*
X169014333Y-96768999D01*
X168990143Y-96725457D01*
X168990143Y-96660142D01*
X169014333Y-96616599D01*
X169062714Y-96594828D01*
X169328810Y-96594828D01*
X169062714Y-96224714D02*
X169062714Y-96377114D01*
X169328810Y-96377114D02*
X168820810Y-96377114D01*
X168820810Y-96159400D01*
D13*
X176607143Y-103007143D02*
X176559524Y-103054762D01*
X176416667Y-103102381D01*
X176321429Y-103102381D01*
X176178571Y-103054762D01*
X176083333Y-102959524D01*
X176035714Y-102864286D01*
X175988095Y-102673810D01*
X175988095Y-102530952D01*
X176035714Y-102340476D01*
X176083333Y-102245238D01*
X176178571Y-102150000D01*
X176321429Y-102102381D01*
X176416667Y-102102381D01*
X176559524Y-102150000D01*
X176607143Y-102197619D01*
X177559524Y-103102381D02*
X176988095Y-103102381D01*
X177273809Y-103102381D02*
X177273809Y-102102381D01*
X177178571Y-102245238D01*
X177083333Y-102340476D01*
X176988095Y-102388095D01*
X177940476Y-102197619D02*
X177988095Y-102150000D01*
X178083333Y-102102381D01*
X178321429Y-102102381D01*
X178416667Y-102150000D01*
X178464286Y-102197619D01*
X178511905Y-102292857D01*
X178511905Y-102388095D01*
X178464286Y-102530952D01*
X177892857Y-103102381D01*
X178511905Y-103102381D01*
D16*
X176542428Y-99228810D02*
X176281171Y-99228810D01*
X176411799Y-99228810D02*
X176411799Y-98720810D01*
X176368256Y-98793381D01*
X176324714Y-98841762D01*
X176281171Y-98865952D01*
X176825457Y-98720810D02*
X176869000Y-98720810D01*
X176912543Y-98745000D01*
X176934314Y-98769190D01*
X176956085Y-98817571D01*
X176977857Y-98914333D01*
X176977857Y-99035286D01*
X176956085Y-99132048D01*
X176934314Y-99180429D01*
X176912543Y-99204619D01*
X176869000Y-99228810D01*
X176825457Y-99228810D01*
X176781914Y-99204619D01*
X176760143Y-99180429D01*
X176738371Y-99132048D01*
X176716600Y-99035286D01*
X176716600Y-98914333D01*
X176738371Y-98817571D01*
X176760143Y-98769190D01*
X176781914Y-98745000D01*
X176825457Y-98720810D01*
X177260886Y-98720810D02*
X177304429Y-98720810D01*
X177347972Y-98745000D01*
X177369743Y-98769190D01*
X177391514Y-98817571D01*
X177413286Y-98914333D01*
X177413286Y-99035286D01*
X177391514Y-99132048D01*
X177369743Y-99180429D01*
X177347972Y-99204619D01*
X177304429Y-99228810D01*
X177260886Y-99228810D01*
X177217343Y-99204619D01*
X177195572Y-99180429D01*
X177173800Y-99132048D01*
X177152029Y-99035286D01*
X177152029Y-98914333D01*
X177173800Y-98817571D01*
X177195572Y-98769190D01*
X177217343Y-98745000D01*
X177260886Y-98720810D01*
X177609229Y-98890143D02*
X177609229Y-99228810D01*
X177609229Y-98938524D02*
X177631001Y-98914333D01*
X177674543Y-98890143D01*
X177739858Y-98890143D01*
X177783401Y-98914333D01*
X177805172Y-98962714D01*
X177805172Y-99228810D01*
X178175286Y-98962714D02*
X178022886Y-98962714D01*
X178022886Y-99228810D02*
X178022886Y-98720810D01*
X178240600Y-98720810D01*
D13*
X166257143Y-107457143D02*
X166209524Y-107504762D01*
X166066667Y-107552381D01*
X165971429Y-107552381D01*
X165828571Y-107504762D01*
X165733333Y-107409524D01*
X165685714Y-107314286D01*
X165638095Y-107123810D01*
X165638095Y-106980952D01*
X165685714Y-106790476D01*
X165733333Y-106695238D01*
X165828571Y-106600000D01*
X165971429Y-106552381D01*
X166066667Y-106552381D01*
X166209524Y-106600000D01*
X166257143Y-106647619D01*
X167209524Y-107552381D02*
X166638095Y-107552381D01*
X166923809Y-107552381D02*
X166923809Y-106552381D01*
X166828571Y-106695238D01*
X166733333Y-106790476D01*
X166638095Y-106838095D01*
X168161905Y-107552381D02*
X167590476Y-107552381D01*
X167876190Y-107552381D02*
X167876190Y-106552381D01*
X167780952Y-106695238D01*
X167685714Y-106790476D01*
X167590476Y-106838095D01*
D16*
X165378810Y-105707572D02*
X165378810Y-105968829D01*
X165378810Y-105838201D02*
X164870810Y-105838201D01*
X164943381Y-105881744D01*
X164991762Y-105925286D01*
X165015952Y-105968829D01*
X164870810Y-105424543D02*
X164870810Y-105381000D01*
X164895000Y-105337457D01*
X164919190Y-105315686D01*
X164967571Y-105293915D01*
X165064333Y-105272143D01*
X165185286Y-105272143D01*
X165282048Y-105293915D01*
X165330429Y-105315686D01*
X165354619Y-105337457D01*
X165378810Y-105381000D01*
X165378810Y-105424543D01*
X165354619Y-105468086D01*
X165330429Y-105489857D01*
X165282048Y-105511629D01*
X165185286Y-105533400D01*
X165064333Y-105533400D01*
X164967571Y-105511629D01*
X164919190Y-105489857D01*
X164895000Y-105468086D01*
X164870810Y-105424543D01*
X164870810Y-104989114D02*
X164870810Y-104945571D01*
X164895000Y-104902028D01*
X164919190Y-104880257D01*
X164967571Y-104858486D01*
X165064333Y-104836714D01*
X165185286Y-104836714D01*
X165282048Y-104858486D01*
X165330429Y-104880257D01*
X165354619Y-104902028D01*
X165378810Y-104945571D01*
X165378810Y-104989114D01*
X165354619Y-105032657D01*
X165330429Y-105054428D01*
X165282048Y-105076200D01*
X165185286Y-105097971D01*
X165064333Y-105097971D01*
X164967571Y-105076200D01*
X164919190Y-105054428D01*
X164895000Y-105032657D01*
X164870810Y-104989114D01*
X165040143Y-104640771D02*
X165378810Y-104640771D01*
X165088524Y-104640771D02*
X165064333Y-104618999D01*
X165040143Y-104575457D01*
X165040143Y-104510142D01*
X165064333Y-104466599D01*
X165112714Y-104444828D01*
X165378810Y-104444828D01*
X165112714Y-104074714D02*
X165112714Y-104227114D01*
X165378810Y-104227114D02*
X164870810Y-104227114D01*
X164870810Y-104009400D01*
D13*
X173257143Y-107157143D02*
X173209524Y-107204762D01*
X173066667Y-107252381D01*
X172971429Y-107252381D01*
X172828571Y-107204762D01*
X172733333Y-107109524D01*
X172685714Y-107014286D01*
X172638095Y-106823810D01*
X172638095Y-106680952D01*
X172685714Y-106490476D01*
X172733333Y-106395238D01*
X172828571Y-106300000D01*
X172971429Y-106252381D01*
X173066667Y-106252381D01*
X173209524Y-106300000D01*
X173257143Y-106347619D01*
X174209524Y-107252381D02*
X173638095Y-107252381D01*
X173923809Y-107252381D02*
X173923809Y-106252381D01*
X173828571Y-106395238D01*
X173733333Y-106490476D01*
X173638095Y-106538095D01*
X174828571Y-106252381D02*
X174923810Y-106252381D01*
X175019048Y-106300000D01*
X175066667Y-106347619D01*
X175114286Y-106442857D01*
X175161905Y-106633333D01*
X175161905Y-106871429D01*
X175114286Y-107061905D01*
X175066667Y-107157143D01*
X175019048Y-107204762D01*
X174923810Y-107252381D01*
X174828571Y-107252381D01*
X174733333Y-107204762D01*
X174685714Y-107157143D01*
X174638095Y-107061905D01*
X174590476Y-106871429D01*
X174590476Y-106633333D01*
X174638095Y-106442857D01*
X174685714Y-106347619D01*
X174733333Y-106300000D01*
X174828571Y-106252381D01*
D16*
X172219810Y-105617572D02*
X172219810Y-105878829D01*
X172219810Y-105748201D02*
X171711810Y-105748201D01*
X171784381Y-105791744D01*
X171832762Y-105835286D01*
X171856952Y-105878829D01*
X171711810Y-105334543D02*
X171711810Y-105291000D01*
X171736000Y-105247457D01*
X171760190Y-105225686D01*
X171808571Y-105203915D01*
X171905333Y-105182143D01*
X172026286Y-105182143D01*
X172123048Y-105203915D01*
X172171429Y-105225686D01*
X172195619Y-105247457D01*
X172219810Y-105291000D01*
X172219810Y-105334543D01*
X172195619Y-105378086D01*
X172171429Y-105399857D01*
X172123048Y-105421629D01*
X172026286Y-105443400D01*
X171905333Y-105443400D01*
X171808571Y-105421629D01*
X171760190Y-105399857D01*
X171736000Y-105378086D01*
X171711810Y-105334543D01*
X171711810Y-104899114D02*
X171711810Y-104855571D01*
X171736000Y-104812028D01*
X171760190Y-104790257D01*
X171808571Y-104768486D01*
X171905333Y-104746714D01*
X172026286Y-104746714D01*
X172123048Y-104768486D01*
X172171429Y-104790257D01*
X172195619Y-104812028D01*
X172219810Y-104855571D01*
X172219810Y-104899114D01*
X172195619Y-104942657D01*
X172171429Y-104964428D01*
X172123048Y-104986200D01*
X172026286Y-105007971D01*
X171905333Y-105007971D01*
X171808571Y-104986200D01*
X171760190Y-104964428D01*
X171736000Y-104942657D01*
X171711810Y-104899114D01*
X171881143Y-104550771D02*
X172219810Y-104550771D01*
X171929524Y-104550771D02*
X171905333Y-104528999D01*
X171881143Y-104485457D01*
X171881143Y-104420142D01*
X171905333Y-104376599D01*
X171953714Y-104354828D01*
X172219810Y-104354828D01*
X171953714Y-103984714D02*
X171953714Y-104137114D01*
X172219810Y-104137114D02*
X171711810Y-104137114D01*
X171711810Y-103919400D01*
D13*
X136923334Y-96617143D02*
X136875715Y-96664762D01*
X136732858Y-96712381D01*
X136637620Y-96712381D01*
X136494762Y-96664762D01*
X136399524Y-96569524D01*
X136351905Y-96474286D01*
X136304286Y-96283810D01*
X136304286Y-96140952D01*
X136351905Y-95950476D01*
X136399524Y-95855238D01*
X136494762Y-95760000D01*
X136637620Y-95712381D01*
X136732858Y-95712381D01*
X136875715Y-95760000D01*
X136923334Y-95807619D01*
X137399524Y-96712381D02*
X137590000Y-96712381D01*
X137685239Y-96664762D01*
X137732858Y-96617143D01*
X137828096Y-96474286D01*
X137875715Y-96283810D01*
X137875715Y-95902857D01*
X137828096Y-95807619D01*
X137780477Y-95760000D01*
X137685239Y-95712381D01*
X137494762Y-95712381D01*
X137399524Y-95760000D01*
X137351905Y-95807619D01*
X137304286Y-95902857D01*
X137304286Y-96140952D01*
X137351905Y-96236190D01*
X137399524Y-96283810D01*
X137494762Y-96331429D01*
X137685239Y-96331429D01*
X137780477Y-96283810D01*
X137828096Y-96236190D01*
X137875715Y-96140952D01*
D16*
X136600143Y-100489810D02*
X136338886Y-100489810D01*
X136469514Y-100489810D02*
X136469514Y-99981810D01*
X136425971Y-100054381D01*
X136382429Y-100102762D01*
X136338886Y-100126952D01*
X136883172Y-99981810D02*
X136926715Y-99981810D01*
X136970258Y-100006000D01*
X136992029Y-100030190D01*
X137013800Y-100078571D01*
X137035572Y-100175333D01*
X137035572Y-100296286D01*
X137013800Y-100393048D01*
X136992029Y-100441429D01*
X136970258Y-100465619D01*
X136926715Y-100489810D01*
X136883172Y-100489810D01*
X136839629Y-100465619D01*
X136817858Y-100441429D01*
X136796086Y-100393048D01*
X136774315Y-100296286D01*
X136774315Y-100175333D01*
X136796086Y-100078571D01*
X136817858Y-100030190D01*
X136839629Y-100006000D01*
X136883172Y-99981810D01*
X137231515Y-100151143D02*
X137231515Y-100659143D01*
X137231515Y-100175333D02*
X137275058Y-100151143D01*
X137362144Y-100151143D01*
X137405687Y-100175333D01*
X137427458Y-100199524D01*
X137449229Y-100247905D01*
X137449229Y-100393048D01*
X137427458Y-100441429D01*
X137405687Y-100465619D01*
X137362144Y-100489810D01*
X137275058Y-100489810D01*
X137231515Y-100465619D01*
X137797572Y-100223714D02*
X137645172Y-100223714D01*
X137645172Y-100489810D02*
X137645172Y-99981810D01*
X137862886Y-99981810D01*
D13*
X139133334Y-96957143D02*
X139085715Y-97004762D01*
X138942858Y-97052381D01*
X138847620Y-97052381D01*
X138704762Y-97004762D01*
X138609524Y-96909524D01*
X138561905Y-96814286D01*
X138514286Y-96623810D01*
X138514286Y-96480952D01*
X138561905Y-96290476D01*
X138609524Y-96195238D01*
X138704762Y-96100000D01*
X138847620Y-96052381D01*
X138942858Y-96052381D01*
X139085715Y-96100000D01*
X139133334Y-96147619D01*
X139704762Y-96480952D02*
X139609524Y-96433333D01*
X139561905Y-96385714D01*
X139514286Y-96290476D01*
X139514286Y-96242857D01*
X139561905Y-96147619D01*
X139609524Y-96100000D01*
X139704762Y-96052381D01*
X139895239Y-96052381D01*
X139990477Y-96100000D01*
X140038096Y-96147619D01*
X140085715Y-96242857D01*
X140085715Y-96290476D01*
X140038096Y-96385714D01*
X139990477Y-96433333D01*
X139895239Y-96480952D01*
X139704762Y-96480952D01*
X139609524Y-96528571D01*
X139561905Y-96576190D01*
X139514286Y-96671429D01*
X139514286Y-96861905D01*
X139561905Y-96957143D01*
X139609524Y-97004762D01*
X139704762Y-97052381D01*
X139895239Y-97052381D01*
X139990477Y-97004762D01*
X140038096Y-96957143D01*
X140085715Y-96861905D01*
X140085715Y-96671429D01*
X140038096Y-96576190D01*
X139990477Y-96528571D01*
X139895239Y-96480952D01*
D16*
X138810143Y-100480810D02*
X138548886Y-100480810D01*
X138679514Y-100480810D02*
X138679514Y-99972810D01*
X138635971Y-100045381D01*
X138592429Y-100093762D01*
X138548886Y-100117952D01*
X139093172Y-99972810D02*
X139136715Y-99972810D01*
X139180258Y-99997000D01*
X139202029Y-100021190D01*
X139223800Y-100069571D01*
X139245572Y-100166333D01*
X139245572Y-100287286D01*
X139223800Y-100384048D01*
X139202029Y-100432429D01*
X139180258Y-100456619D01*
X139136715Y-100480810D01*
X139093172Y-100480810D01*
X139049629Y-100456619D01*
X139027858Y-100432429D01*
X139006086Y-100384048D01*
X138984315Y-100287286D01*
X138984315Y-100166333D01*
X139006086Y-100069571D01*
X139027858Y-100021190D01*
X139049629Y-99997000D01*
X139093172Y-99972810D01*
X139441515Y-100142143D02*
X139441515Y-100650143D01*
X139441515Y-100166333D02*
X139485058Y-100142143D01*
X139572144Y-100142143D01*
X139615687Y-100166333D01*
X139637458Y-100190524D01*
X139659229Y-100238905D01*
X139659229Y-100384048D01*
X139637458Y-100432429D01*
X139615687Y-100456619D01*
X139572144Y-100480810D01*
X139485058Y-100480810D01*
X139441515Y-100456619D01*
X140007572Y-100214714D02*
X139855172Y-100214714D01*
X139855172Y-100480810D02*
X139855172Y-99972810D01*
X140072886Y-99972810D01*
D13*
X144133334Y-106257143D02*
X144085715Y-106304762D01*
X143942858Y-106352381D01*
X143847620Y-106352381D01*
X143704762Y-106304762D01*
X143609524Y-106209524D01*
X143561905Y-106114286D01*
X143514286Y-105923810D01*
X143514286Y-105780952D01*
X143561905Y-105590476D01*
X143609524Y-105495238D01*
X143704762Y-105400000D01*
X143847620Y-105352381D01*
X143942858Y-105352381D01*
X144085715Y-105400000D01*
X144133334Y-105447619D01*
X144466667Y-105352381D02*
X145133334Y-105352381D01*
X144704762Y-106352381D01*
D16*
X143792428Y-104680810D02*
X143531171Y-104680810D01*
X143661799Y-104680810D02*
X143661799Y-104172810D01*
X143618256Y-104245381D01*
X143574714Y-104293762D01*
X143531171Y-104317952D01*
X144075457Y-104172810D02*
X144119000Y-104172810D01*
X144162543Y-104197000D01*
X144184314Y-104221190D01*
X144206085Y-104269571D01*
X144227857Y-104366333D01*
X144227857Y-104487286D01*
X144206085Y-104584048D01*
X144184314Y-104632429D01*
X144162543Y-104656619D01*
X144119000Y-104680810D01*
X144075457Y-104680810D01*
X144031914Y-104656619D01*
X144010143Y-104632429D01*
X143988371Y-104584048D01*
X143966600Y-104487286D01*
X143966600Y-104366333D01*
X143988371Y-104269571D01*
X144010143Y-104221190D01*
X144031914Y-104197000D01*
X144075457Y-104172810D01*
X144510886Y-104172810D02*
X144554429Y-104172810D01*
X144597972Y-104197000D01*
X144619743Y-104221190D01*
X144641514Y-104269571D01*
X144663286Y-104366333D01*
X144663286Y-104487286D01*
X144641514Y-104584048D01*
X144619743Y-104632429D01*
X144597972Y-104656619D01*
X144554429Y-104680810D01*
X144510886Y-104680810D01*
X144467343Y-104656619D01*
X144445572Y-104632429D01*
X144423800Y-104584048D01*
X144402029Y-104487286D01*
X144402029Y-104366333D01*
X144423800Y-104269571D01*
X144445572Y-104221190D01*
X144467343Y-104197000D01*
X144510886Y-104172810D01*
X144859229Y-104342143D02*
X144859229Y-104680810D01*
X144859229Y-104390524D02*
X144881001Y-104366333D01*
X144924543Y-104342143D01*
X144989858Y-104342143D01*
X145033401Y-104366333D01*
X145055172Y-104414714D01*
X145055172Y-104680810D01*
X145425286Y-104414714D02*
X145272886Y-104414714D01*
X145272886Y-104680810D02*
X145272886Y-104172810D01*
X145490600Y-104172810D01*
D13*
X120333334Y-95857143D02*
X120285715Y-95904762D01*
X120142858Y-95952381D01*
X120047620Y-95952381D01*
X119904762Y-95904762D01*
X119809524Y-95809524D01*
X119761905Y-95714286D01*
X119714286Y-95523810D01*
X119714286Y-95380952D01*
X119761905Y-95190476D01*
X119809524Y-95095238D01*
X119904762Y-95000000D01*
X120047620Y-94952381D01*
X120142858Y-94952381D01*
X120285715Y-95000000D01*
X120333334Y-95047619D01*
X121190477Y-94952381D02*
X121000000Y-94952381D01*
X120904762Y-95000000D01*
X120857143Y-95047619D01*
X120761905Y-95190476D01*
X120714286Y-95380952D01*
X120714286Y-95761905D01*
X120761905Y-95857143D01*
X120809524Y-95904762D01*
X120904762Y-95952381D01*
X121095239Y-95952381D01*
X121190477Y-95904762D01*
X121238096Y-95857143D01*
X121285715Y-95761905D01*
X121285715Y-95523810D01*
X121238096Y-95428571D01*
X121190477Y-95380952D01*
X121095239Y-95333333D01*
X120904762Y-95333333D01*
X120809524Y-95380952D01*
X120761905Y-95428571D01*
X120714286Y-95523810D01*
D16*
X118480810Y-96307572D02*
X118480810Y-96568829D01*
X118480810Y-96438201D02*
X117972810Y-96438201D01*
X118045381Y-96481744D01*
X118093762Y-96525286D01*
X118117952Y-96568829D01*
X117972810Y-96024543D02*
X117972810Y-95981000D01*
X117997000Y-95937457D01*
X118021190Y-95915686D01*
X118069571Y-95893915D01*
X118166333Y-95872143D01*
X118287286Y-95872143D01*
X118384048Y-95893915D01*
X118432429Y-95915686D01*
X118456619Y-95937457D01*
X118480810Y-95981000D01*
X118480810Y-96024543D01*
X118456619Y-96068086D01*
X118432429Y-96089857D01*
X118384048Y-96111629D01*
X118287286Y-96133400D01*
X118166333Y-96133400D01*
X118069571Y-96111629D01*
X118021190Y-96089857D01*
X117997000Y-96068086D01*
X117972810Y-96024543D01*
X117972810Y-95589114D02*
X117972810Y-95545571D01*
X117997000Y-95502028D01*
X118021190Y-95480257D01*
X118069571Y-95458486D01*
X118166333Y-95436714D01*
X118287286Y-95436714D01*
X118384048Y-95458486D01*
X118432429Y-95480257D01*
X118456619Y-95502028D01*
X118480810Y-95545571D01*
X118480810Y-95589114D01*
X118456619Y-95632657D01*
X118432429Y-95654428D01*
X118384048Y-95676200D01*
X118287286Y-95697971D01*
X118166333Y-95697971D01*
X118069571Y-95676200D01*
X118021190Y-95654428D01*
X117997000Y-95632657D01*
X117972810Y-95589114D01*
X118142143Y-95240771D02*
X118480810Y-95240771D01*
X118190524Y-95240771D02*
X118166333Y-95218999D01*
X118142143Y-95175457D01*
X118142143Y-95110142D01*
X118166333Y-95066599D01*
X118214714Y-95044828D01*
X118480810Y-95044828D01*
X118214714Y-94674714D02*
X118214714Y-94827114D01*
X118480810Y-94827114D02*
X117972810Y-94827114D01*
X117972810Y-94609400D01*
D13*
X140633334Y-111257143D02*
X140585715Y-111304762D01*
X140442858Y-111352381D01*
X140347620Y-111352381D01*
X140204762Y-111304762D01*
X140109524Y-111209524D01*
X140061905Y-111114286D01*
X140014286Y-110923810D01*
X140014286Y-110780952D01*
X140061905Y-110590476D01*
X140109524Y-110495238D01*
X140204762Y-110400000D01*
X140347620Y-110352381D01*
X140442858Y-110352381D01*
X140585715Y-110400000D01*
X140633334Y-110447619D01*
X141538096Y-110352381D02*
X141061905Y-110352381D01*
X141014286Y-110828571D01*
X141061905Y-110780952D01*
X141157143Y-110733333D01*
X141395239Y-110733333D01*
X141490477Y-110780952D01*
X141538096Y-110828571D01*
X141585715Y-110923810D01*
X141585715Y-111161905D01*
X141538096Y-111257143D01*
X141490477Y-111304762D01*
X141395239Y-111352381D01*
X141157143Y-111352381D01*
X141061905Y-111304762D01*
X141014286Y-111257143D01*
D16*
X136678810Y-111707572D02*
X136678810Y-111968829D01*
X136678810Y-111838201D02*
X136170810Y-111838201D01*
X136243381Y-111881744D01*
X136291762Y-111925286D01*
X136315952Y-111968829D01*
X136170810Y-111424543D02*
X136170810Y-111381000D01*
X136195000Y-111337457D01*
X136219190Y-111315686D01*
X136267571Y-111293915D01*
X136364333Y-111272143D01*
X136485286Y-111272143D01*
X136582048Y-111293915D01*
X136630429Y-111315686D01*
X136654619Y-111337457D01*
X136678810Y-111381000D01*
X136678810Y-111424543D01*
X136654619Y-111468086D01*
X136630429Y-111489857D01*
X136582048Y-111511629D01*
X136485286Y-111533400D01*
X136364333Y-111533400D01*
X136267571Y-111511629D01*
X136219190Y-111489857D01*
X136195000Y-111468086D01*
X136170810Y-111424543D01*
X136170810Y-110989114D02*
X136170810Y-110945571D01*
X136195000Y-110902028D01*
X136219190Y-110880257D01*
X136267571Y-110858486D01*
X136364333Y-110836714D01*
X136485286Y-110836714D01*
X136582048Y-110858486D01*
X136630429Y-110880257D01*
X136654619Y-110902028D01*
X136678810Y-110945571D01*
X136678810Y-110989114D01*
X136654619Y-111032657D01*
X136630429Y-111054428D01*
X136582048Y-111076200D01*
X136485286Y-111097971D01*
X136364333Y-111097971D01*
X136267571Y-111076200D01*
X136219190Y-111054428D01*
X136195000Y-111032657D01*
X136170810Y-110989114D01*
X136340143Y-110640771D02*
X136678810Y-110640771D01*
X136388524Y-110640771D02*
X136364333Y-110618999D01*
X136340143Y-110575457D01*
X136340143Y-110510142D01*
X136364333Y-110466599D01*
X136412714Y-110444828D01*
X136678810Y-110444828D01*
X136412714Y-110074714D02*
X136412714Y-110227114D01*
X136678810Y-110227114D02*
X136170810Y-110227114D01*
X136170810Y-110009400D01*
D13*
X121233334Y-93557143D02*
X121185715Y-93604762D01*
X121042858Y-93652381D01*
X120947620Y-93652381D01*
X120804762Y-93604762D01*
X120709524Y-93509524D01*
X120661905Y-93414286D01*
X120614286Y-93223810D01*
X120614286Y-93080952D01*
X120661905Y-92890476D01*
X120709524Y-92795238D01*
X120804762Y-92700000D01*
X120947620Y-92652381D01*
X121042858Y-92652381D01*
X121185715Y-92700000D01*
X121233334Y-92747619D01*
X122090477Y-92985714D02*
X122090477Y-93652381D01*
X121852381Y-92604762D02*
X121614286Y-93319048D01*
X122233334Y-93319048D01*
X141333334Y-113657143D02*
X141285715Y-113704762D01*
X141142858Y-113752381D01*
X141047620Y-113752381D01*
X140904762Y-113704762D01*
X140809524Y-113609524D01*
X140761905Y-113514286D01*
X140714286Y-113323810D01*
X140714286Y-113180952D01*
X140761905Y-112990476D01*
X140809524Y-112895238D01*
X140904762Y-112800000D01*
X141047620Y-112752381D01*
X141142858Y-112752381D01*
X141285715Y-112800000D01*
X141333334Y-112847619D01*
X141666667Y-112752381D02*
X142285715Y-112752381D01*
X141952381Y-113133333D01*
X142095239Y-113133333D01*
X142190477Y-113180952D01*
X142238096Y-113228571D01*
X142285715Y-113323810D01*
X142285715Y-113561905D01*
X142238096Y-113657143D01*
X142190477Y-113704762D01*
X142095239Y-113752381D01*
X141809524Y-113752381D01*
X141714286Y-113704762D01*
X141666667Y-113657143D01*
X138673334Y-106187143D02*
X138625715Y-106234762D01*
X138482858Y-106282381D01*
X138387620Y-106282381D01*
X138244762Y-106234762D01*
X138149524Y-106139524D01*
X138101905Y-106044286D01*
X138054286Y-105853810D01*
X138054286Y-105710952D01*
X138101905Y-105520476D01*
X138149524Y-105425238D01*
X138244762Y-105330000D01*
X138387620Y-105282381D01*
X138482858Y-105282381D01*
X138625715Y-105330000D01*
X138673334Y-105377619D01*
X139054286Y-105377619D02*
X139101905Y-105330000D01*
X139197143Y-105282381D01*
X139435239Y-105282381D01*
X139530477Y-105330000D01*
X139578096Y-105377619D01*
X139625715Y-105472857D01*
X139625715Y-105568095D01*
X139578096Y-105710952D01*
X139006667Y-106282381D01*
X139625715Y-106282381D01*
D16*
X134610190Y-106581114D02*
X134586000Y-106559343D01*
X134561810Y-106515800D01*
X134561810Y-106406943D01*
X134586000Y-106363400D01*
X134610190Y-106341629D01*
X134658571Y-106319857D01*
X134706952Y-106319857D01*
X134779524Y-106341629D01*
X135069810Y-106602886D01*
X135069810Y-106319857D01*
X134610190Y-106145685D02*
X134586000Y-106123914D01*
X134561810Y-106080371D01*
X134561810Y-105971514D01*
X134586000Y-105927971D01*
X134610190Y-105906200D01*
X134658571Y-105884428D01*
X134706952Y-105884428D01*
X134779524Y-105906200D01*
X135069810Y-106167457D01*
X135069810Y-105884428D01*
X134731143Y-105688485D02*
X135239143Y-105688485D01*
X134755333Y-105688485D02*
X134731143Y-105644942D01*
X134731143Y-105557856D01*
X134755333Y-105514313D01*
X134779524Y-105492542D01*
X134827905Y-105470771D01*
X134973048Y-105470771D01*
X135021429Y-105492542D01*
X135045619Y-105514313D01*
X135069810Y-105557856D01*
X135069810Y-105644942D01*
X135045619Y-105688485D01*
X134803714Y-105122428D02*
X134803714Y-105274828D01*
X135069810Y-105274828D02*
X134561810Y-105274828D01*
X134561810Y-105057114D01*
D13*
X138833334Y-101757143D02*
X138785715Y-101804762D01*
X138642858Y-101852381D01*
X138547620Y-101852381D01*
X138404762Y-101804762D01*
X138309524Y-101709524D01*
X138261905Y-101614286D01*
X138214286Y-101423810D01*
X138214286Y-101280952D01*
X138261905Y-101090476D01*
X138309524Y-100995238D01*
X138404762Y-100900000D01*
X138547620Y-100852381D01*
X138642858Y-100852381D01*
X138785715Y-100900000D01*
X138833334Y-100947619D01*
X139785715Y-101852381D02*
X139214286Y-101852381D01*
X139500000Y-101852381D02*
X139500000Y-100852381D01*
X139404762Y-100995238D01*
X139309524Y-101090476D01*
X139214286Y-101138095D01*
D16*
X134619190Y-101751114D02*
X134595000Y-101729343D01*
X134570810Y-101685800D01*
X134570810Y-101576943D01*
X134595000Y-101533400D01*
X134619190Y-101511629D01*
X134667571Y-101489857D01*
X134715952Y-101489857D01*
X134788524Y-101511629D01*
X135078810Y-101772886D01*
X135078810Y-101489857D01*
X134619190Y-101315685D02*
X134595000Y-101293914D01*
X134570810Y-101250371D01*
X134570810Y-101141514D01*
X134595000Y-101097971D01*
X134619190Y-101076200D01*
X134667571Y-101054428D01*
X134715952Y-101054428D01*
X134788524Y-101076200D01*
X135078810Y-101337457D01*
X135078810Y-101054428D01*
X134740143Y-100858485D02*
X135248143Y-100858485D01*
X134764333Y-100858485D02*
X134740143Y-100814942D01*
X134740143Y-100727856D01*
X134764333Y-100684313D01*
X134788524Y-100662542D01*
X134836905Y-100640771D01*
X134982048Y-100640771D01*
X135030429Y-100662542D01*
X135054619Y-100684313D01*
X135078810Y-100727856D01*
X135078810Y-100814942D01*
X135054619Y-100858485D01*
X134812714Y-100292428D02*
X134812714Y-100444828D01*
X135078810Y-100444828D02*
X134570810Y-100444828D01*
X134570810Y-100227114D01*
D13*
X127928571Y-120880952D02*
X127833333Y-120833333D01*
X127785714Y-120785714D01*
X127738095Y-120690476D01*
X127738095Y-120642857D01*
X127785714Y-120547619D01*
X127833333Y-120500000D01*
X127928571Y-120452381D01*
X128119048Y-120452381D01*
X128214286Y-120500000D01*
X128261905Y-120547619D01*
X128309524Y-120642857D01*
X128309524Y-120690476D01*
X128261905Y-120785714D01*
X128214286Y-120833333D01*
X128119048Y-120880952D01*
X127928571Y-120880952D01*
X127833333Y-120928571D01*
X127785714Y-120976190D01*
X127738095Y-121071429D01*
X127738095Y-121261905D01*
X127785714Y-121357143D01*
X127833333Y-121404762D01*
X127928571Y-121452381D01*
X128119048Y-121452381D01*
X128214286Y-121404762D01*
X128261905Y-121357143D01*
X128309524Y-121261905D01*
X128309524Y-121071429D01*
X128261905Y-120976190D01*
X128214286Y-120928571D01*
X128119048Y-120880952D01*
X128738095Y-121452381D02*
X128738095Y-120452381D01*
X129071429Y-121166667D01*
X129404762Y-120452381D01*
X129404762Y-121452381D01*
X129880952Y-121452381D02*
X129880952Y-120452381D01*
X129880952Y-120928571D02*
X130452381Y-120928571D01*
X130452381Y-121452381D02*
X130452381Y-120452381D01*
X130833333Y-120785714D02*
X131357143Y-120785714D01*
X130833333Y-121452381D01*
X131357143Y-121452381D01*
X132261905Y-121452381D02*
X131690476Y-121452381D01*
X131976190Y-121452381D02*
X131976190Y-120452381D01*
X131880952Y-120595238D01*
X131785714Y-120690476D01*
X131690476Y-120738095D01*
X138838096Y-104052381D02*
X138266667Y-104052381D01*
X138552381Y-104052381D02*
X138552381Y-103052381D01*
X138457143Y-103195238D01*
X138361905Y-103290476D01*
X138266667Y-103338095D01*
X139266667Y-104052381D02*
X139266667Y-103052381D01*
X139600001Y-103766667D01*
X139933334Y-103052381D01*
X139933334Y-104052381D01*
X140933334Y-104052381D02*
X140361905Y-104052381D01*
X140647619Y-104052381D02*
X140647619Y-103052381D01*
X140552381Y-103195238D01*
X140457143Y-103290476D01*
X140361905Y-103338095D01*
D16*
X135030550Y-103730628D02*
X135030550Y-103991885D01*
X135030550Y-103861257D02*
X134522550Y-103861257D01*
X134595121Y-103904800D01*
X134643502Y-103948342D01*
X134667692Y-103991885D01*
X135030550Y-103534685D02*
X134522550Y-103534685D01*
X134885407Y-103382285D01*
X134522550Y-103229885D01*
X135030550Y-103229885D01*
D13*
X138838096Y-146052381D02*
X138266667Y-146052381D01*
X138552381Y-146052381D02*
X138552381Y-145052381D01*
X138457143Y-145195238D01*
X138361905Y-145290476D01*
X138266667Y-145338095D01*
X139266667Y-146052381D02*
X139266667Y-145052381D01*
X139600001Y-145766667D01*
X139933334Y-145052381D01*
X139933334Y-146052381D01*
X140933334Y-146052381D02*
X140361905Y-146052381D01*
X140647619Y-146052381D02*
X140647619Y-145052381D01*
X140552381Y-145195238D01*
X140457143Y-145290476D01*
X140361905Y-145338095D01*
D16*
X135030550Y-145730628D02*
X135030550Y-145991885D01*
X135030550Y-145861257D02*
X134522550Y-145861257D01*
X134595121Y-145904800D01*
X134643502Y-145948342D01*
X134667692Y-145991885D01*
X135030550Y-145534685D02*
X134522550Y-145534685D01*
X134885407Y-145382285D01*
X134522550Y-145229885D01*
X135030550Y-145229885D01*
D13*
X127928571Y-162880952D02*
X127833333Y-162833333D01*
X127785714Y-162785714D01*
X127738095Y-162690476D01*
X127738095Y-162642857D01*
X127785714Y-162547619D01*
X127833333Y-162500000D01*
X127928571Y-162452381D01*
X128119048Y-162452381D01*
X128214286Y-162500000D01*
X128261905Y-162547619D01*
X128309524Y-162642857D01*
X128309524Y-162690476D01*
X128261905Y-162785714D01*
X128214286Y-162833333D01*
X128119048Y-162880952D01*
X127928571Y-162880952D01*
X127833333Y-162928571D01*
X127785714Y-162976190D01*
X127738095Y-163071429D01*
X127738095Y-163261905D01*
X127785714Y-163357143D01*
X127833333Y-163404762D01*
X127928571Y-163452381D01*
X128119048Y-163452381D01*
X128214286Y-163404762D01*
X128261905Y-163357143D01*
X128309524Y-163261905D01*
X128309524Y-163071429D01*
X128261905Y-162976190D01*
X128214286Y-162928571D01*
X128119048Y-162880952D01*
X128738095Y-163452381D02*
X128738095Y-162452381D01*
X129071429Y-163166667D01*
X129404762Y-162452381D01*
X129404762Y-163452381D01*
X129880952Y-163452381D02*
X129880952Y-162452381D01*
X129880952Y-162928571D02*
X130452381Y-162928571D01*
X130452381Y-163452381D02*
X130452381Y-162452381D01*
X130833333Y-162785714D02*
X131357143Y-162785714D01*
X130833333Y-163452381D01*
X131357143Y-163452381D01*
X132261905Y-163452381D02*
X131690476Y-163452381D01*
X131976190Y-163452381D02*
X131976190Y-162452381D01*
X131880952Y-162595238D01*
X131785714Y-162690476D01*
X131690476Y-162738095D01*
X138833334Y-143757143D02*
X138785715Y-143804762D01*
X138642858Y-143852381D01*
X138547620Y-143852381D01*
X138404762Y-143804762D01*
X138309524Y-143709524D01*
X138261905Y-143614286D01*
X138214286Y-143423810D01*
X138214286Y-143280952D01*
X138261905Y-143090476D01*
X138309524Y-142995238D01*
X138404762Y-142900000D01*
X138547620Y-142852381D01*
X138642858Y-142852381D01*
X138785715Y-142900000D01*
X138833334Y-142947619D01*
X139785715Y-143852381D02*
X139214286Y-143852381D01*
X139500000Y-143852381D02*
X139500000Y-142852381D01*
X139404762Y-142995238D01*
X139309524Y-143090476D01*
X139214286Y-143138095D01*
D16*
X134619190Y-143751114D02*
X134595000Y-143729343D01*
X134570810Y-143685800D01*
X134570810Y-143576943D01*
X134595000Y-143533400D01*
X134619190Y-143511629D01*
X134667571Y-143489857D01*
X134715952Y-143489857D01*
X134788524Y-143511629D01*
X135078810Y-143772886D01*
X135078810Y-143489857D01*
X134619190Y-143315685D02*
X134595000Y-143293914D01*
X134570810Y-143250371D01*
X134570810Y-143141514D01*
X134595000Y-143097971D01*
X134619190Y-143076200D01*
X134667571Y-143054428D01*
X134715952Y-143054428D01*
X134788524Y-143076200D01*
X135078810Y-143337457D01*
X135078810Y-143054428D01*
X134740143Y-142858485D02*
X135248143Y-142858485D01*
X134764333Y-142858485D02*
X134740143Y-142814942D01*
X134740143Y-142727856D01*
X134764333Y-142684313D01*
X134788524Y-142662542D01*
X134836905Y-142640771D01*
X134982048Y-142640771D01*
X135030429Y-142662542D01*
X135054619Y-142684313D01*
X135078810Y-142727856D01*
X135078810Y-142814942D01*
X135054619Y-142858485D01*
X134812714Y-142292428D02*
X134812714Y-142444828D01*
X135078810Y-142444828D02*
X134570810Y-142444828D01*
X134570810Y-142227114D01*
D13*
X138673334Y-148187143D02*
X138625715Y-148234762D01*
X138482858Y-148282381D01*
X138387620Y-148282381D01*
X138244762Y-148234762D01*
X138149524Y-148139524D01*
X138101905Y-148044286D01*
X138054286Y-147853810D01*
X138054286Y-147710952D01*
X138101905Y-147520476D01*
X138149524Y-147425238D01*
X138244762Y-147330000D01*
X138387620Y-147282381D01*
X138482858Y-147282381D01*
X138625715Y-147330000D01*
X138673334Y-147377619D01*
X139054286Y-147377619D02*
X139101905Y-147330000D01*
X139197143Y-147282381D01*
X139435239Y-147282381D01*
X139530477Y-147330000D01*
X139578096Y-147377619D01*
X139625715Y-147472857D01*
X139625715Y-147568095D01*
X139578096Y-147710952D01*
X139006667Y-148282381D01*
X139625715Y-148282381D01*
D16*
X134610190Y-148581114D02*
X134586000Y-148559343D01*
X134561810Y-148515800D01*
X134561810Y-148406943D01*
X134586000Y-148363400D01*
X134610190Y-148341629D01*
X134658571Y-148319857D01*
X134706952Y-148319857D01*
X134779524Y-148341629D01*
X135069810Y-148602886D01*
X135069810Y-148319857D01*
X134610190Y-148145685D02*
X134586000Y-148123914D01*
X134561810Y-148080371D01*
X134561810Y-147971514D01*
X134586000Y-147927971D01*
X134610190Y-147906200D01*
X134658571Y-147884428D01*
X134706952Y-147884428D01*
X134779524Y-147906200D01*
X135069810Y-148167457D01*
X135069810Y-147884428D01*
X134731143Y-147688485D02*
X135239143Y-147688485D01*
X134755333Y-147688485D02*
X134731143Y-147644942D01*
X134731143Y-147557856D01*
X134755333Y-147514313D01*
X134779524Y-147492542D01*
X134827905Y-147470771D01*
X134973048Y-147470771D01*
X135021429Y-147492542D01*
X135045619Y-147514313D01*
X135069810Y-147557856D01*
X135069810Y-147644942D01*
X135045619Y-147688485D01*
X134803714Y-147122428D02*
X134803714Y-147274828D01*
X135069810Y-147274828D02*
X134561810Y-147274828D01*
X134561810Y-147057114D01*
D13*
X141333334Y-155657143D02*
X141285715Y-155704762D01*
X141142858Y-155752381D01*
X141047620Y-155752381D01*
X140904762Y-155704762D01*
X140809524Y-155609524D01*
X140761905Y-155514286D01*
X140714286Y-155323810D01*
X140714286Y-155180952D01*
X140761905Y-154990476D01*
X140809524Y-154895238D01*
X140904762Y-154800000D01*
X141047620Y-154752381D01*
X141142858Y-154752381D01*
X141285715Y-154800000D01*
X141333334Y-154847619D01*
X141666667Y-154752381D02*
X142285715Y-154752381D01*
X141952381Y-155133333D01*
X142095239Y-155133333D01*
X142190477Y-155180952D01*
X142238096Y-155228571D01*
X142285715Y-155323810D01*
X142285715Y-155561905D01*
X142238096Y-155657143D01*
X142190477Y-155704762D01*
X142095239Y-155752381D01*
X141809524Y-155752381D01*
X141714286Y-155704762D01*
X141666667Y-155657143D01*
X121233334Y-135557143D02*
X121185715Y-135604762D01*
X121042858Y-135652381D01*
X120947620Y-135652381D01*
X120804762Y-135604762D01*
X120709524Y-135509524D01*
X120661905Y-135414286D01*
X120614286Y-135223810D01*
X120614286Y-135080952D01*
X120661905Y-134890476D01*
X120709524Y-134795238D01*
X120804762Y-134700000D01*
X120947620Y-134652381D01*
X121042858Y-134652381D01*
X121185715Y-134700000D01*
X121233334Y-134747619D01*
X122090477Y-134985714D02*
X122090477Y-135652381D01*
X121852381Y-134604762D02*
X121614286Y-135319048D01*
X122233334Y-135319048D01*
X140633334Y-153257143D02*
X140585715Y-153304762D01*
X140442858Y-153352381D01*
X140347620Y-153352381D01*
X140204762Y-153304762D01*
X140109524Y-153209524D01*
X140061905Y-153114286D01*
X140014286Y-152923810D01*
X140014286Y-152780952D01*
X140061905Y-152590476D01*
X140109524Y-152495238D01*
X140204762Y-152400000D01*
X140347620Y-152352381D01*
X140442858Y-152352381D01*
X140585715Y-152400000D01*
X140633334Y-152447619D01*
X141538096Y-152352381D02*
X141061905Y-152352381D01*
X141014286Y-152828571D01*
X141061905Y-152780952D01*
X141157143Y-152733333D01*
X141395239Y-152733333D01*
X141490477Y-152780952D01*
X141538096Y-152828571D01*
X141585715Y-152923810D01*
X141585715Y-153161905D01*
X141538096Y-153257143D01*
X141490477Y-153304762D01*
X141395239Y-153352381D01*
X141157143Y-153352381D01*
X141061905Y-153304762D01*
X141014286Y-153257143D01*
D16*
X136678810Y-153707572D02*
X136678810Y-153968829D01*
X136678810Y-153838201D02*
X136170810Y-153838201D01*
X136243381Y-153881744D01*
X136291762Y-153925286D01*
X136315952Y-153968829D01*
X136170810Y-153424543D02*
X136170810Y-153381000D01*
X136195000Y-153337457D01*
X136219190Y-153315686D01*
X136267571Y-153293915D01*
X136364333Y-153272143D01*
X136485286Y-153272143D01*
X136582048Y-153293915D01*
X136630429Y-153315686D01*
X136654619Y-153337457D01*
X136678810Y-153381000D01*
X136678810Y-153424543D01*
X136654619Y-153468086D01*
X136630429Y-153489857D01*
X136582048Y-153511629D01*
X136485286Y-153533400D01*
X136364333Y-153533400D01*
X136267571Y-153511629D01*
X136219190Y-153489857D01*
X136195000Y-153468086D01*
X136170810Y-153424543D01*
X136170810Y-152989114D02*
X136170810Y-152945571D01*
X136195000Y-152902028D01*
X136219190Y-152880257D01*
X136267571Y-152858486D01*
X136364333Y-152836714D01*
X136485286Y-152836714D01*
X136582048Y-152858486D01*
X136630429Y-152880257D01*
X136654619Y-152902028D01*
X136678810Y-152945571D01*
X136678810Y-152989114D01*
X136654619Y-153032657D01*
X136630429Y-153054428D01*
X136582048Y-153076200D01*
X136485286Y-153097971D01*
X136364333Y-153097971D01*
X136267571Y-153076200D01*
X136219190Y-153054428D01*
X136195000Y-153032657D01*
X136170810Y-152989114D01*
X136340143Y-152640771D02*
X136678810Y-152640771D01*
X136388524Y-152640771D02*
X136364333Y-152618999D01*
X136340143Y-152575457D01*
X136340143Y-152510142D01*
X136364333Y-152466599D01*
X136412714Y-152444828D01*
X136678810Y-152444828D01*
X136412714Y-152074714D02*
X136412714Y-152227114D01*
X136678810Y-152227114D02*
X136170810Y-152227114D01*
X136170810Y-152009400D01*
D13*
X120333334Y-137857143D02*
X120285715Y-137904762D01*
X120142858Y-137952381D01*
X120047620Y-137952381D01*
X119904762Y-137904762D01*
X119809524Y-137809524D01*
X119761905Y-137714286D01*
X119714286Y-137523810D01*
X119714286Y-137380952D01*
X119761905Y-137190476D01*
X119809524Y-137095238D01*
X119904762Y-137000000D01*
X120047620Y-136952381D01*
X120142858Y-136952381D01*
X120285715Y-137000000D01*
X120333334Y-137047619D01*
X121190477Y-136952381D02*
X121000000Y-136952381D01*
X120904762Y-137000000D01*
X120857143Y-137047619D01*
X120761905Y-137190476D01*
X120714286Y-137380952D01*
X120714286Y-137761905D01*
X120761905Y-137857143D01*
X120809524Y-137904762D01*
X120904762Y-137952381D01*
X121095239Y-137952381D01*
X121190477Y-137904762D01*
X121238096Y-137857143D01*
X121285715Y-137761905D01*
X121285715Y-137523810D01*
X121238096Y-137428571D01*
X121190477Y-137380952D01*
X121095239Y-137333333D01*
X120904762Y-137333333D01*
X120809524Y-137380952D01*
X120761905Y-137428571D01*
X120714286Y-137523810D01*
D16*
X118480810Y-138307572D02*
X118480810Y-138568829D01*
X118480810Y-138438201D02*
X117972810Y-138438201D01*
X118045381Y-138481744D01*
X118093762Y-138525286D01*
X118117952Y-138568829D01*
X117972810Y-138024543D02*
X117972810Y-137981000D01*
X117997000Y-137937457D01*
X118021190Y-137915686D01*
X118069571Y-137893915D01*
X118166333Y-137872143D01*
X118287286Y-137872143D01*
X118384048Y-137893915D01*
X118432429Y-137915686D01*
X118456619Y-137937457D01*
X118480810Y-137981000D01*
X118480810Y-138024543D01*
X118456619Y-138068086D01*
X118432429Y-138089857D01*
X118384048Y-138111629D01*
X118287286Y-138133400D01*
X118166333Y-138133400D01*
X118069571Y-138111629D01*
X118021190Y-138089857D01*
X117997000Y-138068086D01*
X117972810Y-138024543D01*
X117972810Y-137589114D02*
X117972810Y-137545571D01*
X117997000Y-137502028D01*
X118021190Y-137480257D01*
X118069571Y-137458486D01*
X118166333Y-137436714D01*
X118287286Y-137436714D01*
X118384048Y-137458486D01*
X118432429Y-137480257D01*
X118456619Y-137502028D01*
X118480810Y-137545571D01*
X118480810Y-137589114D01*
X118456619Y-137632657D01*
X118432429Y-137654428D01*
X118384048Y-137676200D01*
X118287286Y-137697971D01*
X118166333Y-137697971D01*
X118069571Y-137676200D01*
X118021190Y-137654428D01*
X117997000Y-137632657D01*
X117972810Y-137589114D01*
X118142143Y-137240771D02*
X118480810Y-137240771D01*
X118190524Y-137240771D02*
X118166333Y-137218999D01*
X118142143Y-137175457D01*
X118142143Y-137110142D01*
X118166333Y-137066599D01*
X118214714Y-137044828D01*
X118480810Y-137044828D01*
X118214714Y-136674714D02*
X118214714Y-136827114D01*
X118480810Y-136827114D02*
X117972810Y-136827114D01*
X117972810Y-136609400D01*
D13*
X144133334Y-148257143D02*
X144085715Y-148304762D01*
X143942858Y-148352381D01*
X143847620Y-148352381D01*
X143704762Y-148304762D01*
X143609524Y-148209524D01*
X143561905Y-148114286D01*
X143514286Y-147923810D01*
X143514286Y-147780952D01*
X143561905Y-147590476D01*
X143609524Y-147495238D01*
X143704762Y-147400000D01*
X143847620Y-147352381D01*
X143942858Y-147352381D01*
X144085715Y-147400000D01*
X144133334Y-147447619D01*
X144466667Y-147352381D02*
X145133334Y-147352381D01*
X144704762Y-148352381D01*
D16*
X143792428Y-146680810D02*
X143531171Y-146680810D01*
X143661799Y-146680810D02*
X143661799Y-146172810D01*
X143618256Y-146245381D01*
X143574714Y-146293762D01*
X143531171Y-146317952D01*
X144075457Y-146172810D02*
X144119000Y-146172810D01*
X144162543Y-146197000D01*
X144184314Y-146221190D01*
X144206085Y-146269571D01*
X144227857Y-146366333D01*
X144227857Y-146487286D01*
X144206085Y-146584048D01*
X144184314Y-146632429D01*
X144162543Y-146656619D01*
X144119000Y-146680810D01*
X144075457Y-146680810D01*
X144031914Y-146656619D01*
X144010143Y-146632429D01*
X143988371Y-146584048D01*
X143966600Y-146487286D01*
X143966600Y-146366333D01*
X143988371Y-146269571D01*
X144010143Y-146221190D01*
X144031914Y-146197000D01*
X144075457Y-146172810D01*
X144510886Y-146172810D02*
X144554429Y-146172810D01*
X144597972Y-146197000D01*
X144619743Y-146221190D01*
X144641514Y-146269571D01*
X144663286Y-146366333D01*
X144663286Y-146487286D01*
X144641514Y-146584048D01*
X144619743Y-146632429D01*
X144597972Y-146656619D01*
X144554429Y-146680810D01*
X144510886Y-146680810D01*
X144467343Y-146656619D01*
X144445572Y-146632429D01*
X144423800Y-146584048D01*
X144402029Y-146487286D01*
X144402029Y-146366333D01*
X144423800Y-146269571D01*
X144445572Y-146221190D01*
X144467343Y-146197000D01*
X144510886Y-146172810D01*
X144859229Y-146342143D02*
X144859229Y-146680810D01*
X144859229Y-146390524D02*
X144881001Y-146366333D01*
X144924543Y-146342143D01*
X144989858Y-146342143D01*
X145033401Y-146366333D01*
X145055172Y-146414714D01*
X145055172Y-146680810D01*
X145425286Y-146414714D02*
X145272886Y-146414714D01*
X145272886Y-146680810D02*
X145272886Y-146172810D01*
X145490600Y-146172810D01*
D13*
X139133334Y-138957143D02*
X139085715Y-139004762D01*
X138942858Y-139052381D01*
X138847620Y-139052381D01*
X138704762Y-139004762D01*
X138609524Y-138909524D01*
X138561905Y-138814286D01*
X138514286Y-138623810D01*
X138514286Y-138480952D01*
X138561905Y-138290476D01*
X138609524Y-138195238D01*
X138704762Y-138100000D01*
X138847620Y-138052381D01*
X138942858Y-138052381D01*
X139085715Y-138100000D01*
X139133334Y-138147619D01*
X139704762Y-138480952D02*
X139609524Y-138433333D01*
X139561905Y-138385714D01*
X139514286Y-138290476D01*
X139514286Y-138242857D01*
X139561905Y-138147619D01*
X139609524Y-138100000D01*
X139704762Y-138052381D01*
X139895239Y-138052381D01*
X139990477Y-138100000D01*
X140038096Y-138147619D01*
X140085715Y-138242857D01*
X140085715Y-138290476D01*
X140038096Y-138385714D01*
X139990477Y-138433333D01*
X139895239Y-138480952D01*
X139704762Y-138480952D01*
X139609524Y-138528571D01*
X139561905Y-138576190D01*
X139514286Y-138671429D01*
X139514286Y-138861905D01*
X139561905Y-138957143D01*
X139609524Y-139004762D01*
X139704762Y-139052381D01*
X139895239Y-139052381D01*
X139990477Y-139004762D01*
X140038096Y-138957143D01*
X140085715Y-138861905D01*
X140085715Y-138671429D01*
X140038096Y-138576190D01*
X139990477Y-138528571D01*
X139895239Y-138480952D01*
D16*
X138810143Y-142480810D02*
X138548886Y-142480810D01*
X138679514Y-142480810D02*
X138679514Y-141972810D01*
X138635971Y-142045381D01*
X138592429Y-142093762D01*
X138548886Y-142117952D01*
X139093172Y-141972810D02*
X139136715Y-141972810D01*
X139180258Y-141997000D01*
X139202029Y-142021190D01*
X139223800Y-142069571D01*
X139245572Y-142166333D01*
X139245572Y-142287286D01*
X139223800Y-142384048D01*
X139202029Y-142432429D01*
X139180258Y-142456619D01*
X139136715Y-142480810D01*
X139093172Y-142480810D01*
X139049629Y-142456619D01*
X139027858Y-142432429D01*
X139006086Y-142384048D01*
X138984315Y-142287286D01*
X138984315Y-142166333D01*
X139006086Y-142069571D01*
X139027858Y-142021190D01*
X139049629Y-141997000D01*
X139093172Y-141972810D01*
X139441515Y-142142143D02*
X139441515Y-142650143D01*
X139441515Y-142166333D02*
X139485058Y-142142143D01*
X139572144Y-142142143D01*
X139615687Y-142166333D01*
X139637458Y-142190524D01*
X139659229Y-142238905D01*
X139659229Y-142384048D01*
X139637458Y-142432429D01*
X139615687Y-142456619D01*
X139572144Y-142480810D01*
X139485058Y-142480810D01*
X139441515Y-142456619D01*
X140007572Y-142214714D02*
X139855172Y-142214714D01*
X139855172Y-142480810D02*
X139855172Y-141972810D01*
X140072886Y-141972810D01*
D13*
X136923334Y-138617143D02*
X136875715Y-138664762D01*
X136732858Y-138712381D01*
X136637620Y-138712381D01*
X136494762Y-138664762D01*
X136399524Y-138569524D01*
X136351905Y-138474286D01*
X136304286Y-138283810D01*
X136304286Y-138140952D01*
X136351905Y-137950476D01*
X136399524Y-137855238D01*
X136494762Y-137760000D01*
X136637620Y-137712381D01*
X136732858Y-137712381D01*
X136875715Y-137760000D01*
X136923334Y-137807619D01*
X137399524Y-138712381D02*
X137590000Y-138712381D01*
X137685239Y-138664762D01*
X137732858Y-138617143D01*
X137828096Y-138474286D01*
X137875715Y-138283810D01*
X137875715Y-137902857D01*
X137828096Y-137807619D01*
X137780477Y-137760000D01*
X137685239Y-137712381D01*
X137494762Y-137712381D01*
X137399524Y-137760000D01*
X137351905Y-137807619D01*
X137304286Y-137902857D01*
X137304286Y-138140952D01*
X137351905Y-138236190D01*
X137399524Y-138283810D01*
X137494762Y-138331429D01*
X137685239Y-138331429D01*
X137780477Y-138283810D01*
X137828096Y-138236190D01*
X137875715Y-138140952D01*
D16*
X136600143Y-142489810D02*
X136338886Y-142489810D01*
X136469514Y-142489810D02*
X136469514Y-141981810D01*
X136425971Y-142054381D01*
X136382429Y-142102762D01*
X136338886Y-142126952D01*
X136883172Y-141981810D02*
X136926715Y-141981810D01*
X136970258Y-142006000D01*
X136992029Y-142030190D01*
X137013800Y-142078571D01*
X137035572Y-142175333D01*
X137035572Y-142296286D01*
X137013800Y-142393048D01*
X136992029Y-142441429D01*
X136970258Y-142465619D01*
X136926715Y-142489810D01*
X136883172Y-142489810D01*
X136839629Y-142465619D01*
X136817858Y-142441429D01*
X136796086Y-142393048D01*
X136774315Y-142296286D01*
X136774315Y-142175333D01*
X136796086Y-142078571D01*
X136817858Y-142030190D01*
X136839629Y-142006000D01*
X136883172Y-141981810D01*
X137231515Y-142151143D02*
X137231515Y-142659143D01*
X137231515Y-142175333D02*
X137275058Y-142151143D01*
X137362144Y-142151143D01*
X137405687Y-142175333D01*
X137427458Y-142199524D01*
X137449229Y-142247905D01*
X137449229Y-142393048D01*
X137427458Y-142441429D01*
X137405687Y-142465619D01*
X137362144Y-142489810D01*
X137275058Y-142489810D01*
X137231515Y-142465619D01*
X137797572Y-142223714D02*
X137645172Y-142223714D01*
X137645172Y-142489810D02*
X137645172Y-141981810D01*
X137862886Y-141981810D01*
D13*
X173257143Y-149157143D02*
X173209524Y-149204762D01*
X173066667Y-149252381D01*
X172971429Y-149252381D01*
X172828571Y-149204762D01*
X172733333Y-149109524D01*
X172685714Y-149014286D01*
X172638095Y-148823810D01*
X172638095Y-148680952D01*
X172685714Y-148490476D01*
X172733333Y-148395238D01*
X172828571Y-148300000D01*
X172971429Y-148252381D01*
X173066667Y-148252381D01*
X173209524Y-148300000D01*
X173257143Y-148347619D01*
X174209524Y-149252381D02*
X173638095Y-149252381D01*
X173923809Y-149252381D02*
X173923809Y-148252381D01*
X173828571Y-148395238D01*
X173733333Y-148490476D01*
X173638095Y-148538095D01*
X174828571Y-148252381D02*
X174923810Y-148252381D01*
X175019048Y-148300000D01*
X175066667Y-148347619D01*
X175114286Y-148442857D01*
X175161905Y-148633333D01*
X175161905Y-148871429D01*
X175114286Y-149061905D01*
X175066667Y-149157143D01*
X175019048Y-149204762D01*
X174923810Y-149252381D01*
X174828571Y-149252381D01*
X174733333Y-149204762D01*
X174685714Y-149157143D01*
X174638095Y-149061905D01*
X174590476Y-148871429D01*
X174590476Y-148633333D01*
X174638095Y-148442857D01*
X174685714Y-148347619D01*
X174733333Y-148300000D01*
X174828571Y-148252381D01*
D16*
X172219810Y-147617572D02*
X172219810Y-147878829D01*
X172219810Y-147748201D02*
X171711810Y-147748201D01*
X171784381Y-147791744D01*
X171832762Y-147835286D01*
X171856952Y-147878829D01*
X171711810Y-147334543D02*
X171711810Y-147291000D01*
X171736000Y-147247457D01*
X171760190Y-147225686D01*
X171808571Y-147203915D01*
X171905333Y-147182143D01*
X172026286Y-147182143D01*
X172123048Y-147203915D01*
X172171429Y-147225686D01*
X172195619Y-147247457D01*
X172219810Y-147291000D01*
X172219810Y-147334543D01*
X172195619Y-147378086D01*
X172171429Y-147399857D01*
X172123048Y-147421629D01*
X172026286Y-147443400D01*
X171905333Y-147443400D01*
X171808571Y-147421629D01*
X171760190Y-147399857D01*
X171736000Y-147378086D01*
X171711810Y-147334543D01*
X171711810Y-146899114D02*
X171711810Y-146855571D01*
X171736000Y-146812028D01*
X171760190Y-146790257D01*
X171808571Y-146768486D01*
X171905333Y-146746714D01*
X172026286Y-146746714D01*
X172123048Y-146768486D01*
X172171429Y-146790257D01*
X172195619Y-146812028D01*
X172219810Y-146855571D01*
X172219810Y-146899114D01*
X172195619Y-146942657D01*
X172171429Y-146964428D01*
X172123048Y-146986200D01*
X172026286Y-147007971D01*
X171905333Y-147007971D01*
X171808571Y-146986200D01*
X171760190Y-146964428D01*
X171736000Y-146942657D01*
X171711810Y-146899114D01*
X171881143Y-146550771D02*
X172219810Y-146550771D01*
X171929524Y-146550771D02*
X171905333Y-146528999D01*
X171881143Y-146485457D01*
X171881143Y-146420142D01*
X171905333Y-146376599D01*
X171953714Y-146354828D01*
X172219810Y-146354828D01*
X171953714Y-145984714D02*
X171953714Y-146137114D01*
X172219810Y-146137114D02*
X171711810Y-146137114D01*
X171711810Y-145919400D01*
D13*
X166257143Y-149457143D02*
X166209524Y-149504762D01*
X166066667Y-149552381D01*
X165971429Y-149552381D01*
X165828571Y-149504762D01*
X165733333Y-149409524D01*
X165685714Y-149314286D01*
X165638095Y-149123810D01*
X165638095Y-148980952D01*
X165685714Y-148790476D01*
X165733333Y-148695238D01*
X165828571Y-148600000D01*
X165971429Y-148552381D01*
X166066667Y-148552381D01*
X166209524Y-148600000D01*
X166257143Y-148647619D01*
X167209524Y-149552381D02*
X166638095Y-149552381D01*
X166923809Y-149552381D02*
X166923809Y-148552381D01*
X166828571Y-148695238D01*
X166733333Y-148790476D01*
X166638095Y-148838095D01*
X168161905Y-149552381D02*
X167590476Y-149552381D01*
X167876190Y-149552381D02*
X167876190Y-148552381D01*
X167780952Y-148695238D01*
X167685714Y-148790476D01*
X167590476Y-148838095D01*
D16*
X165378810Y-147707572D02*
X165378810Y-147968829D01*
X165378810Y-147838201D02*
X164870810Y-147838201D01*
X164943381Y-147881744D01*
X164991762Y-147925286D01*
X165015952Y-147968829D01*
X164870810Y-147424543D02*
X164870810Y-147381000D01*
X164895000Y-147337457D01*
X164919190Y-147315686D01*
X164967571Y-147293915D01*
X165064333Y-147272143D01*
X165185286Y-147272143D01*
X165282048Y-147293915D01*
X165330429Y-147315686D01*
X165354619Y-147337457D01*
X165378810Y-147381000D01*
X165378810Y-147424543D01*
X165354619Y-147468086D01*
X165330429Y-147489857D01*
X165282048Y-147511629D01*
X165185286Y-147533400D01*
X165064333Y-147533400D01*
X164967571Y-147511629D01*
X164919190Y-147489857D01*
X164895000Y-147468086D01*
X164870810Y-147424543D01*
X164870810Y-146989114D02*
X164870810Y-146945571D01*
X164895000Y-146902028D01*
X164919190Y-146880257D01*
X164967571Y-146858486D01*
X165064333Y-146836714D01*
X165185286Y-146836714D01*
X165282048Y-146858486D01*
X165330429Y-146880257D01*
X165354619Y-146902028D01*
X165378810Y-146945571D01*
X165378810Y-146989114D01*
X165354619Y-147032657D01*
X165330429Y-147054428D01*
X165282048Y-147076200D01*
X165185286Y-147097971D01*
X165064333Y-147097971D01*
X164967571Y-147076200D01*
X164919190Y-147054428D01*
X164895000Y-147032657D01*
X164870810Y-146989114D01*
X165040143Y-146640771D02*
X165378810Y-146640771D01*
X165088524Y-146640771D02*
X165064333Y-146618999D01*
X165040143Y-146575457D01*
X165040143Y-146510142D01*
X165064333Y-146466599D01*
X165112714Y-146444828D01*
X165378810Y-146444828D01*
X165112714Y-146074714D02*
X165112714Y-146227114D01*
X165378810Y-146227114D02*
X164870810Y-146227114D01*
X164870810Y-146009400D01*
D13*
X176607143Y-145007143D02*
X176559524Y-145054762D01*
X176416667Y-145102381D01*
X176321429Y-145102381D01*
X176178571Y-145054762D01*
X176083333Y-144959524D01*
X176035714Y-144864286D01*
X175988095Y-144673810D01*
X175988095Y-144530952D01*
X176035714Y-144340476D01*
X176083333Y-144245238D01*
X176178571Y-144150000D01*
X176321429Y-144102381D01*
X176416667Y-144102381D01*
X176559524Y-144150000D01*
X176607143Y-144197619D01*
X177559524Y-145102381D02*
X176988095Y-145102381D01*
X177273809Y-145102381D02*
X177273809Y-144102381D01*
X177178571Y-144245238D01*
X177083333Y-144340476D01*
X176988095Y-144388095D01*
X177940476Y-144197619D02*
X177988095Y-144150000D01*
X178083333Y-144102381D01*
X178321429Y-144102381D01*
X178416667Y-144150000D01*
X178464286Y-144197619D01*
X178511905Y-144292857D01*
X178511905Y-144388095D01*
X178464286Y-144530952D01*
X177892857Y-145102381D01*
X178511905Y-145102381D01*
D16*
X176542428Y-141228810D02*
X176281171Y-141228810D01*
X176411799Y-141228810D02*
X176411799Y-140720810D01*
X176368256Y-140793381D01*
X176324714Y-140841762D01*
X176281171Y-140865952D01*
X176825457Y-140720810D02*
X176869000Y-140720810D01*
X176912543Y-140745000D01*
X176934314Y-140769190D01*
X176956085Y-140817571D01*
X176977857Y-140914333D01*
X176977857Y-141035286D01*
X176956085Y-141132048D01*
X176934314Y-141180429D01*
X176912543Y-141204619D01*
X176869000Y-141228810D01*
X176825457Y-141228810D01*
X176781914Y-141204619D01*
X176760143Y-141180429D01*
X176738371Y-141132048D01*
X176716600Y-141035286D01*
X176716600Y-140914333D01*
X176738371Y-140817571D01*
X176760143Y-140769190D01*
X176781914Y-140745000D01*
X176825457Y-140720810D01*
X177260886Y-140720810D02*
X177304429Y-140720810D01*
X177347972Y-140745000D01*
X177369743Y-140769190D01*
X177391514Y-140817571D01*
X177413286Y-140914333D01*
X177413286Y-141035286D01*
X177391514Y-141132048D01*
X177369743Y-141180429D01*
X177347972Y-141204619D01*
X177304429Y-141228810D01*
X177260886Y-141228810D01*
X177217343Y-141204619D01*
X177195572Y-141180429D01*
X177173800Y-141132048D01*
X177152029Y-141035286D01*
X177152029Y-140914333D01*
X177173800Y-140817571D01*
X177195572Y-140769190D01*
X177217343Y-140745000D01*
X177260886Y-140720810D01*
X177609229Y-140890143D02*
X177609229Y-141228810D01*
X177609229Y-140938524D02*
X177631001Y-140914333D01*
X177674543Y-140890143D01*
X177739858Y-140890143D01*
X177783401Y-140914333D01*
X177805172Y-140962714D01*
X177805172Y-141228810D01*
X178175286Y-140962714D02*
X178022886Y-140962714D01*
X178022886Y-141228810D02*
X178022886Y-140720810D01*
X178240600Y-140720810D01*
D13*
X170367143Y-137447143D02*
X170319524Y-137494762D01*
X170176667Y-137542381D01*
X170081429Y-137542381D01*
X169938571Y-137494762D01*
X169843333Y-137399524D01*
X169795714Y-137304286D01*
X169748095Y-137113810D01*
X169748095Y-136970952D01*
X169795714Y-136780476D01*
X169843333Y-136685238D01*
X169938571Y-136590000D01*
X170081429Y-136542381D01*
X170176667Y-136542381D01*
X170319524Y-136590000D01*
X170367143Y-136637619D01*
X171319524Y-137542381D02*
X170748095Y-137542381D01*
X171033809Y-137542381D02*
X171033809Y-136542381D01*
X170938571Y-136685238D01*
X170843333Y-136780476D01*
X170748095Y-136828095D01*
X171652857Y-136542381D02*
X172271905Y-136542381D01*
X171938571Y-136923333D01*
X172081429Y-136923333D01*
X172176667Y-136970952D01*
X172224286Y-137018571D01*
X172271905Y-137113810D01*
X172271905Y-137351905D01*
X172224286Y-137447143D01*
X172176667Y-137494762D01*
X172081429Y-137542381D01*
X171795714Y-137542381D01*
X171700476Y-137494762D01*
X171652857Y-137447143D01*
D16*
X169328810Y-139857572D02*
X169328810Y-140118829D01*
X169328810Y-139988201D02*
X168820810Y-139988201D01*
X168893381Y-140031744D01*
X168941762Y-140075286D01*
X168965952Y-140118829D01*
X168820810Y-139574543D02*
X168820810Y-139531000D01*
X168845000Y-139487457D01*
X168869190Y-139465686D01*
X168917571Y-139443915D01*
X169014333Y-139422143D01*
X169135286Y-139422143D01*
X169232048Y-139443915D01*
X169280429Y-139465686D01*
X169304619Y-139487457D01*
X169328810Y-139531000D01*
X169328810Y-139574543D01*
X169304619Y-139618086D01*
X169280429Y-139639857D01*
X169232048Y-139661629D01*
X169135286Y-139683400D01*
X169014333Y-139683400D01*
X168917571Y-139661629D01*
X168869190Y-139639857D01*
X168845000Y-139618086D01*
X168820810Y-139574543D01*
X168820810Y-139139114D02*
X168820810Y-139095571D01*
X168845000Y-139052028D01*
X168869190Y-139030257D01*
X168917571Y-139008486D01*
X169014333Y-138986714D01*
X169135286Y-138986714D01*
X169232048Y-139008486D01*
X169280429Y-139030257D01*
X169304619Y-139052028D01*
X169328810Y-139095571D01*
X169328810Y-139139114D01*
X169304619Y-139182657D01*
X169280429Y-139204428D01*
X169232048Y-139226200D01*
X169135286Y-139247971D01*
X169014333Y-139247971D01*
X168917571Y-139226200D01*
X168869190Y-139204428D01*
X168845000Y-139182657D01*
X168820810Y-139139114D01*
X168990143Y-138790771D02*
X169328810Y-138790771D01*
X169038524Y-138790771D02*
X169014333Y-138768999D01*
X168990143Y-138725457D01*
X168990143Y-138660142D01*
X169014333Y-138616599D01*
X169062714Y-138594828D01*
X169328810Y-138594828D01*
X169062714Y-138224714D02*
X169062714Y-138377114D01*
X169328810Y-138377114D02*
X168820810Y-138377114D01*
X168820810Y-138159400D01*
D13*
X176057143Y-138057143D02*
X176009524Y-138104762D01*
X175866667Y-138152381D01*
X175771429Y-138152381D01*
X175628571Y-138104762D01*
X175533333Y-138009524D01*
X175485714Y-137914286D01*
X175438095Y-137723810D01*
X175438095Y-137580952D01*
X175485714Y-137390476D01*
X175533333Y-137295238D01*
X175628571Y-137200000D01*
X175771429Y-137152381D01*
X175866667Y-137152381D01*
X176009524Y-137200000D01*
X176057143Y-137247619D01*
X177009524Y-138152381D02*
X176438095Y-138152381D01*
X176723809Y-138152381D02*
X176723809Y-137152381D01*
X176628571Y-137295238D01*
X176533333Y-137390476D01*
X176438095Y-137438095D01*
X177866667Y-137485714D02*
X177866667Y-138152381D01*
X177628571Y-137104762D02*
X177390476Y-137819048D01*
X178009524Y-137819048D01*
D16*
X178480810Y-140407572D02*
X178480810Y-140668829D01*
X178480810Y-140538201D02*
X177972810Y-140538201D01*
X178045381Y-140581744D01*
X178093762Y-140625286D01*
X178117952Y-140668829D01*
X177972810Y-140124543D02*
X177972810Y-140081000D01*
X177997000Y-140037457D01*
X178021190Y-140015686D01*
X178069571Y-139993915D01*
X178166333Y-139972143D01*
X178287286Y-139972143D01*
X178384048Y-139993915D01*
X178432429Y-140015686D01*
X178456619Y-140037457D01*
X178480810Y-140081000D01*
X178480810Y-140124543D01*
X178456619Y-140168086D01*
X178432429Y-140189857D01*
X178384048Y-140211629D01*
X178287286Y-140233400D01*
X178166333Y-140233400D01*
X178069571Y-140211629D01*
X178021190Y-140189857D01*
X177997000Y-140168086D01*
X177972810Y-140124543D01*
X177972810Y-139689114D02*
X177972810Y-139645571D01*
X177997000Y-139602028D01*
X178021190Y-139580257D01*
X178069571Y-139558486D01*
X178166333Y-139536714D01*
X178287286Y-139536714D01*
X178384048Y-139558486D01*
X178432429Y-139580257D01*
X178456619Y-139602028D01*
X178480810Y-139645571D01*
X178480810Y-139689114D01*
X178456619Y-139732657D01*
X178432429Y-139754428D01*
X178384048Y-139776200D01*
X178287286Y-139797971D01*
X178166333Y-139797971D01*
X178069571Y-139776200D01*
X178021190Y-139754428D01*
X177997000Y-139732657D01*
X177972810Y-139689114D01*
X178142143Y-139340771D02*
X178480810Y-139340771D01*
X178190524Y-139340771D02*
X178166333Y-139318999D01*
X178142143Y-139275457D01*
X178142143Y-139210142D01*
X178166333Y-139166599D01*
X178214714Y-139144828D01*
X178480810Y-139144828D01*
X178214714Y-138774714D02*
X178214714Y-138927114D01*
X178480810Y-138927114D02*
X177972810Y-138927114D01*
X177972810Y-138709400D01*
D13*
X129071905Y-145362381D02*
X129071905Y-144362381D01*
X129310000Y-144362381D01*
X129452858Y-144410000D01*
X129548096Y-144505238D01*
X129595715Y-144600476D01*
X129643334Y-144790952D01*
X129643334Y-144933810D01*
X129595715Y-145124286D01*
X129548096Y-145219524D01*
X129452858Y-145314762D01*
X129310000Y-145362381D01*
X129071905Y-145362381D01*
X130595715Y-145362381D02*
X130024286Y-145362381D01*
X130310000Y-145362381D02*
X130310000Y-144362381D01*
X130214762Y-144505238D01*
X130119524Y-144600476D01*
X130024286Y-144648095D01*
X129071905Y-140282381D02*
X129071905Y-139282381D01*
X129310000Y-139282381D01*
X129452858Y-139330000D01*
X129548096Y-139425238D01*
X129595715Y-139520476D01*
X129643334Y-139710952D01*
X129643334Y-139853810D01*
X129595715Y-140044286D01*
X129548096Y-140139524D01*
X129452858Y-140234762D01*
X129310000Y-140282381D01*
X129071905Y-140282381D01*
X130024286Y-139377619D02*
X130071905Y-139330000D01*
X130167143Y-139282381D01*
X130405239Y-139282381D01*
X130500477Y-139330000D01*
X130548096Y-139377619D01*
X130595715Y-139472857D01*
X130595715Y-139568095D01*
X130548096Y-139710952D01*
X129976667Y-140282381D01*
X130595715Y-140282381D01*
X181352381Y-130733333D02*
X182066667Y-130733333D01*
X182209524Y-130780953D01*
X182304762Y-130876191D01*
X182352381Y-131019048D01*
X182352381Y-131114286D01*
X182352381Y-129733333D02*
X182352381Y-130304762D01*
X182352381Y-130019048D02*
X181352381Y-130019048D01*
X181495238Y-130114286D01*
X181590476Y-130209524D01*
X181638095Y-130304762D01*
X181352381Y-168833333D02*
X182066667Y-168833333D01*
X182209524Y-168880953D01*
X182304762Y-168976191D01*
X182352381Y-169119048D01*
X182352381Y-169214286D01*
X181447619Y-168404762D02*
X181400000Y-168357143D01*
X181352381Y-168261905D01*
X181352381Y-168023809D01*
X181400000Y-167928571D01*
X181447619Y-167880952D01*
X181542857Y-167833333D01*
X181638095Y-167833333D01*
X181780952Y-167880952D01*
X182352381Y-168452381D01*
X182352381Y-167833333D01*
X141133334Y-150852381D02*
X140657143Y-150852381D01*
X140657143Y-149852381D01*
X141990477Y-150852381D02*
X141419048Y-150852381D01*
X141704762Y-150852381D02*
X141704762Y-149852381D01*
X141609524Y-149995238D01*
X141514286Y-150090476D01*
X141419048Y-150138095D01*
X124833334Y-145452381D02*
X124500000Y-144976190D01*
X124261905Y-145452381D02*
X124261905Y-144452381D01*
X124642858Y-144452381D01*
X124738096Y-144500000D01*
X124785715Y-144547619D01*
X124833334Y-144642857D01*
X124833334Y-144785714D01*
X124785715Y-144880952D01*
X124738096Y-144928571D01*
X124642858Y-144976190D01*
X124261905Y-144976190D01*
X125785715Y-145452381D02*
X125214286Y-145452381D01*
X125500000Y-145452381D02*
X125500000Y-144452381D01*
X125404762Y-144595238D01*
X125309524Y-144690476D01*
X125214286Y-144738095D01*
D16*
X126320403Y-147258343D02*
X126659070Y-147258343D01*
X126126879Y-147367200D02*
X126489736Y-147476057D01*
X126489736Y-147193029D01*
X126151070Y-147062400D02*
X126151070Y-146757600D01*
X126659070Y-146953543D01*
X126151070Y-146496342D02*
X126151070Y-146452799D01*
X126175260Y-146409256D01*
X126199450Y-146387485D01*
X126247831Y-146365714D01*
X126344593Y-146343942D01*
X126465546Y-146343942D01*
X126562308Y-146365714D01*
X126610689Y-146387485D01*
X126634879Y-146409256D01*
X126659070Y-146452799D01*
X126659070Y-146496342D01*
X126634879Y-146539885D01*
X126610689Y-146561656D01*
X126562308Y-146583428D01*
X126465546Y-146605199D01*
X126344593Y-146605199D01*
X126247831Y-146583428D01*
X126199450Y-146561656D01*
X126175260Y-146539885D01*
X126151070Y-146496342D01*
D13*
X122133334Y-159052381D02*
X121800000Y-158576190D01*
X121561905Y-159052381D02*
X121561905Y-158052381D01*
X121942858Y-158052381D01*
X122038096Y-158100000D01*
X122085715Y-158147619D01*
X122133334Y-158242857D01*
X122133334Y-158385714D01*
X122085715Y-158480952D01*
X122038096Y-158528571D01*
X121942858Y-158576190D01*
X121561905Y-158576190D01*
X122514286Y-158147619D02*
X122561905Y-158100000D01*
X122657143Y-158052381D01*
X122895239Y-158052381D01*
X122990477Y-158100000D01*
X123038096Y-158147619D01*
X123085715Y-158242857D01*
X123085715Y-158338095D01*
X123038096Y-158480952D01*
X122466667Y-159052381D01*
X123085715Y-159052381D01*
D16*
X121613057Y-153870930D02*
X121634828Y-153846740D01*
X121678371Y-153822550D01*
X121787228Y-153822550D01*
X121830771Y-153846740D01*
X121852542Y-153870930D01*
X121874314Y-153919311D01*
X121874314Y-153967692D01*
X121852542Y-154040264D01*
X121591285Y-154330550D01*
X121874314Y-154330550D01*
X122048486Y-153870930D02*
X122070257Y-153846740D01*
X122113800Y-153822550D01*
X122222657Y-153822550D01*
X122266200Y-153846740D01*
X122287971Y-153870930D01*
X122309743Y-153919311D01*
X122309743Y-153967692D01*
X122287971Y-154040264D01*
X122026714Y-154330550D01*
X122309743Y-154330550D01*
X122505686Y-154330550D02*
X122505686Y-153822550D01*
X122766943Y-154330550D02*
X122571000Y-154040264D01*
X122766943Y-153822550D02*
X122505686Y-154112835D01*
D13*
X133733334Y-139452381D02*
X133400000Y-138976190D01*
X133161905Y-139452381D02*
X133161905Y-138452381D01*
X133542858Y-138452381D01*
X133638096Y-138500000D01*
X133685715Y-138547619D01*
X133733334Y-138642857D01*
X133733334Y-138785714D01*
X133685715Y-138880952D01*
X133638096Y-138928571D01*
X133542858Y-138976190D01*
X133161905Y-138976190D01*
X134066667Y-138452381D02*
X134685715Y-138452381D01*
X134352381Y-138833333D01*
X134495239Y-138833333D01*
X134590477Y-138880952D01*
X134638096Y-138928571D01*
X134685715Y-139023810D01*
X134685715Y-139261905D01*
X134638096Y-139357143D01*
X134590477Y-139404762D01*
X134495239Y-139452381D01*
X134209524Y-139452381D01*
X134114286Y-139404762D01*
X134066667Y-139357143D01*
D16*
X132570930Y-141176943D02*
X132546740Y-141155172D01*
X132522550Y-141111629D01*
X132522550Y-141002772D01*
X132546740Y-140959229D01*
X132570930Y-140937458D01*
X132619311Y-140915686D01*
X132667692Y-140915686D01*
X132740264Y-140937458D01*
X133030550Y-141198715D01*
X133030550Y-140915686D01*
X132570930Y-140741514D02*
X132546740Y-140719743D01*
X132522550Y-140676200D01*
X132522550Y-140567343D01*
X132546740Y-140523800D01*
X132570930Y-140502029D01*
X132619311Y-140480257D01*
X132667692Y-140480257D01*
X132740264Y-140502029D01*
X133030550Y-140763286D01*
X133030550Y-140480257D01*
X133030550Y-140284314D02*
X132522550Y-140284314D01*
X133030550Y-140023057D02*
X132740264Y-140219000D01*
X132522550Y-140023057D02*
X132812835Y-140284314D01*
D13*
X124633334Y-140352381D02*
X124300000Y-139876190D01*
X124061905Y-140352381D02*
X124061905Y-139352381D01*
X124442858Y-139352381D01*
X124538096Y-139400000D01*
X124585715Y-139447619D01*
X124633334Y-139542857D01*
X124633334Y-139685714D01*
X124585715Y-139780952D01*
X124538096Y-139828571D01*
X124442858Y-139876190D01*
X124061905Y-139876190D01*
X125490477Y-139685714D02*
X125490477Y-140352381D01*
X125252381Y-139304762D02*
X125014286Y-140019048D01*
X125633334Y-140019048D01*
D16*
X122921883Y-142178343D02*
X123260550Y-142178343D01*
X122728359Y-142287200D02*
X123091216Y-142396057D01*
X123091216Y-142113029D01*
X122752550Y-141982400D02*
X122752550Y-141677600D01*
X123260550Y-141873543D01*
X122752550Y-141416342D02*
X122752550Y-141372799D01*
X122776740Y-141329256D01*
X122800930Y-141307485D01*
X122849311Y-141285714D01*
X122946073Y-141263942D01*
X123067026Y-141263942D01*
X123163788Y-141285714D01*
X123212169Y-141307485D01*
X123236359Y-141329256D01*
X123260550Y-141372799D01*
X123260550Y-141416342D01*
X123236359Y-141459885D01*
X123212169Y-141481656D01*
X123163788Y-141503428D01*
X123067026Y-141525199D01*
X122946073Y-141525199D01*
X122849311Y-141503428D01*
X122800930Y-141481656D01*
X122776740Y-141459885D01*
X122752550Y-141416342D01*
D13*
X117532762Y-160953333D02*
X117580381Y-160810476D01*
X117580381Y-160572380D01*
X117532762Y-160477142D01*
X117485143Y-160429523D01*
X117389905Y-160381904D01*
X117294667Y-160381904D01*
X117199429Y-160429523D01*
X117151810Y-160477142D01*
X117104190Y-160572380D01*
X117056571Y-160762857D01*
X117008952Y-160858095D01*
X116961333Y-160905714D01*
X116866095Y-160953333D01*
X116770857Y-160953333D01*
X116675619Y-160905714D01*
X116628000Y-160858095D01*
X116580381Y-160762857D01*
X116580381Y-160524761D01*
X116628000Y-160381904D01*
X116580381Y-160048571D02*
X117580381Y-159810476D01*
X116866095Y-159619999D01*
X117580381Y-159429523D01*
X116580381Y-159191428D01*
X117580381Y-158286666D02*
X117580381Y-158858095D01*
X117580381Y-158572381D02*
X116580381Y-158572381D01*
X116723238Y-158667619D01*
X116818476Y-158762857D01*
X116866095Y-158858095D01*
X151738095Y-142952381D02*
X151738095Y-143761905D01*
X151785714Y-143857143D01*
X151833333Y-143904762D01*
X151928571Y-143952381D01*
X152119048Y-143952381D01*
X152214286Y-143904762D01*
X152261905Y-143857143D01*
X152309524Y-143761905D01*
X152309524Y-142952381D01*
X153309524Y-143952381D02*
X152738095Y-143952381D01*
X153023809Y-143952381D02*
X153023809Y-142952381D01*
X152928571Y-143095238D01*
X152833333Y-143190476D01*
X152738095Y-143238095D01*
D17*
X170409429Y-138792714D02*
X170409429Y-139409571D01*
X170445714Y-139482143D01*
X170482000Y-139518429D01*
X170554571Y-139554714D01*
X170699714Y-139554714D01*
X170772286Y-139518429D01*
X170808571Y-139482143D01*
X170844857Y-139409571D01*
X170844857Y-138792714D01*
X171171429Y-138865286D02*
X171207715Y-138829000D01*
X171280286Y-138792714D01*
X171461715Y-138792714D01*
X171534286Y-138829000D01*
X171570572Y-138865286D01*
X171606857Y-138937857D01*
X171606857Y-139010429D01*
X171570572Y-139119286D01*
X171135143Y-139554714D01*
X171606857Y-139554714D01*
D13*
X147092809Y-141565190D02*
X147092809Y-142041381D01*
X146759476Y-141041381D02*
X147092809Y-141565190D01*
X147426143Y-141041381D01*
X148283286Y-142041381D02*
X147711857Y-142041381D01*
X147997571Y-142041381D02*
X147997571Y-141041381D01*
X147902333Y-141184238D01*
X147807095Y-141279476D01*
X147711857Y-141327095D01*
X170982381Y-152133333D02*
X171696667Y-152133333D01*
X171839524Y-152180953D01*
X171934762Y-152276191D01*
X171982381Y-152419048D01*
X171982381Y-152514286D01*
X170982381Y-151752381D02*
X170982381Y-151133333D01*
X171363333Y-151466667D01*
X171363333Y-151323809D01*
X171410952Y-151228571D01*
X171458571Y-151180952D01*
X171553810Y-151133333D01*
X171791905Y-151133333D01*
X171887143Y-151180952D01*
X171934762Y-151228571D01*
X171982381Y-151323809D01*
X171982381Y-151609524D01*
X171934762Y-151704762D01*
X171887143Y-151752381D01*
X117536667Y-155252381D02*
X117536667Y-155966667D01*
X117489047Y-156109524D01*
X117393809Y-156204762D01*
X117250952Y-156252381D01*
X117155714Y-156252381D01*
X118441429Y-155585714D02*
X118441429Y-156252381D01*
X118203333Y-155204762D02*
X117965238Y-155919048D01*
X118584286Y-155919048D01*
X122026667Y-152428571D02*
X122169524Y-152476190D01*
X122217143Y-152523810D01*
X122264762Y-152619048D01*
X122264762Y-152761905D01*
X122217143Y-152857143D01*
X122169524Y-152904762D01*
X122074286Y-152952381D01*
X121693333Y-152952381D01*
X121693333Y-151952381D01*
X122026667Y-151952381D01*
X122121905Y-152000000D01*
X122169524Y-152047619D01*
X122217143Y-152142857D01*
X122217143Y-152238095D01*
X122169524Y-152333333D01*
X122121905Y-152380952D01*
X122026667Y-152428571D01*
X121693333Y-152428571D01*
X122883809Y-151952381D02*
X123074286Y-151952381D01*
X123169524Y-152000000D01*
X123264762Y-152095238D01*
X123312381Y-152285714D01*
X123312381Y-152619048D01*
X123264762Y-152809524D01*
X123169524Y-152904762D01*
X123074286Y-152952381D01*
X122883809Y-152952381D01*
X122788571Y-152904762D01*
X122693333Y-152809524D01*
X122645714Y-152619048D01*
X122645714Y-152285714D01*
X122693333Y-152095238D01*
X122788571Y-152000000D01*
X122883809Y-151952381D01*
X123931428Y-151952381D02*
X124121905Y-151952381D01*
X124217143Y-152000000D01*
X124312381Y-152095238D01*
X124360000Y-152285714D01*
X124360000Y-152619048D01*
X124312381Y-152809524D01*
X124217143Y-152904762D01*
X124121905Y-152952381D01*
X123931428Y-152952381D01*
X123836190Y-152904762D01*
X123740952Y-152809524D01*
X123693333Y-152619048D01*
X123693333Y-152285714D01*
X123740952Y-152095238D01*
X123836190Y-152000000D01*
X123931428Y-151952381D01*
X124645714Y-151952381D02*
X125217143Y-151952381D01*
X124931428Y-152952381D02*
X124931428Y-151952381D01*
X126074286Y-152952381D02*
X125502857Y-152952381D01*
X125788571Y-152952381D02*
X125788571Y-151952381D01*
X125693333Y-152095238D01*
X125598095Y-152190476D01*
X125502857Y-152238095D01*
X120152381Y-150866666D02*
X119676190Y-151200000D01*
X120152381Y-151438095D02*
X119152381Y-151438095D01*
X119152381Y-151057142D01*
X119200000Y-150961904D01*
X119247619Y-150914285D01*
X119342857Y-150866666D01*
X119485714Y-150866666D01*
X119580952Y-150914285D01*
X119628571Y-150961904D01*
X119676190Y-151057142D01*
X119676190Y-151438095D01*
X119152381Y-149961904D02*
X119152381Y-150438095D01*
X119628571Y-150485714D01*
X119580952Y-150438095D01*
X119533333Y-150342857D01*
X119533333Y-150104761D01*
X119580952Y-150009523D01*
X119628571Y-149961904D01*
X119723810Y-149914285D01*
X119961905Y-149914285D01*
X120057143Y-149961904D01*
X120104762Y-150009523D01*
X120152381Y-150104761D01*
X120152381Y-150342857D01*
X120104762Y-150438095D01*
X120057143Y-150485714D01*
D16*
X115180930Y-151296943D02*
X115156740Y-151275172D01*
X115132550Y-151231629D01*
X115132550Y-151122772D01*
X115156740Y-151079229D01*
X115180930Y-151057458D01*
X115229311Y-151035686D01*
X115277692Y-151035686D01*
X115350264Y-151057458D01*
X115640550Y-151318715D01*
X115640550Y-151035686D01*
X115180930Y-150861514D02*
X115156740Y-150839743D01*
X115132550Y-150796200D01*
X115132550Y-150687343D01*
X115156740Y-150643800D01*
X115180930Y-150622029D01*
X115229311Y-150600257D01*
X115277692Y-150600257D01*
X115350264Y-150622029D01*
X115640550Y-150883286D01*
X115640550Y-150600257D01*
X115640550Y-150404314D02*
X115132550Y-150404314D01*
X115640550Y-150143057D02*
X115350264Y-150339000D01*
X115132550Y-150143057D02*
X115422835Y-150404314D01*
D13*
X117066667Y-145104762D02*
X117209524Y-145152381D01*
X117447620Y-145152381D01*
X117542858Y-145104762D01*
X117590477Y-145057143D01*
X117638096Y-144961905D01*
X117638096Y-144866667D01*
X117590477Y-144771429D01*
X117542858Y-144723810D01*
X117447620Y-144676190D01*
X117257143Y-144628571D01*
X117161905Y-144580952D01*
X117114286Y-144533333D01*
X117066667Y-144438095D01*
X117066667Y-144342857D01*
X117114286Y-144247619D01*
X117161905Y-144200000D01*
X117257143Y-144152381D01*
X117495239Y-144152381D01*
X117638096Y-144200000D01*
X117971429Y-144152381D02*
X118209524Y-145152381D01*
X118400001Y-144438095D01*
X118590477Y-145152381D01*
X118828572Y-144152381D01*
X119161905Y-144247619D02*
X119209524Y-144200000D01*
X119304762Y-144152381D01*
X119542858Y-144152381D01*
X119638096Y-144200000D01*
X119685715Y-144247619D01*
X119733334Y-144342857D01*
X119733334Y-144438095D01*
X119685715Y-144580952D01*
X119114286Y-145152381D01*
X119733334Y-145152381D01*
X149757143Y-164042857D02*
X149804762Y-164090476D01*
X149852381Y-164233333D01*
X149852381Y-164328571D01*
X149804762Y-164471429D01*
X149709524Y-164566667D01*
X149614286Y-164614286D01*
X149423810Y-164661905D01*
X149280952Y-164661905D01*
X149090476Y-164614286D01*
X148995238Y-164566667D01*
X148900000Y-164471429D01*
X148852381Y-164328571D01*
X148852381Y-164233333D01*
X148900000Y-164090476D01*
X148947619Y-164042857D01*
X149852381Y-163090476D02*
X149852381Y-163661905D01*
X149852381Y-163376191D02*
X148852381Y-163376191D01*
X148995238Y-163471429D01*
X149090476Y-163566667D01*
X149138095Y-163661905D01*
X148852381Y-162185714D02*
X148852381Y-162661905D01*
X149328571Y-162709524D01*
X149280952Y-162661905D01*
X149233333Y-162566667D01*
X149233333Y-162328571D01*
X149280952Y-162233333D01*
X149328571Y-162185714D01*
X149423810Y-162138095D01*
X149661905Y-162138095D01*
X149757143Y-162185714D01*
X149804762Y-162233333D01*
X149852381Y-162328571D01*
X149852381Y-162566667D01*
X149804762Y-162661905D01*
X149757143Y-162709524D01*
D16*
X152821190Y-164259971D02*
X152797000Y-164238200D01*
X152772810Y-164194657D01*
X152772810Y-164085800D01*
X152797000Y-164042257D01*
X152821190Y-164020486D01*
X152869571Y-163998714D01*
X152917952Y-163998714D01*
X152990524Y-164020486D01*
X153280810Y-164281743D01*
X153280810Y-163998714D01*
X153232429Y-163802771D02*
X153256619Y-163780999D01*
X153280810Y-163802771D01*
X153256619Y-163824542D01*
X153232429Y-163802771D01*
X153280810Y-163802771D01*
X152821190Y-163606828D02*
X152797000Y-163585057D01*
X152772810Y-163541514D01*
X152772810Y-163432657D01*
X152797000Y-163389114D01*
X152821190Y-163367343D01*
X152869571Y-163345571D01*
X152917952Y-163345571D01*
X152990524Y-163367343D01*
X153280810Y-163628600D01*
X153280810Y-163345571D01*
X152942143Y-162953685D02*
X153280810Y-162953685D01*
X152942143Y-163149628D02*
X153208238Y-163149628D01*
X153256619Y-163127856D01*
X153280810Y-163084314D01*
X153280810Y-163018999D01*
X153256619Y-162975456D01*
X153232429Y-162953685D01*
X153014714Y-162583571D02*
X153014714Y-162735971D01*
X153280810Y-162735971D02*
X152772810Y-162735971D01*
X152772810Y-162518257D01*
D13*
X160957143Y-144842857D02*
X161004762Y-144890476D01*
X161052381Y-145033333D01*
X161052381Y-145128571D01*
X161004762Y-145271429D01*
X160909524Y-145366667D01*
X160814286Y-145414286D01*
X160623810Y-145461905D01*
X160480952Y-145461905D01*
X160290476Y-145414286D01*
X160195238Y-145366667D01*
X160100000Y-145271429D01*
X160052381Y-145128571D01*
X160052381Y-145033333D01*
X160100000Y-144890476D01*
X160147619Y-144842857D01*
X161052381Y-143890476D02*
X161052381Y-144461905D01*
X161052381Y-144176191D02*
X160052381Y-144176191D01*
X160195238Y-144271429D01*
X160290476Y-144366667D01*
X160338095Y-144461905D01*
X160052381Y-143033333D02*
X160052381Y-143223810D01*
X160100000Y-143319048D01*
X160147619Y-143366667D01*
X160290476Y-143461905D01*
X160480952Y-143509524D01*
X160861905Y-143509524D01*
X160957143Y-143461905D01*
X161004762Y-143414286D01*
X161052381Y-143319048D01*
X161052381Y-143128571D01*
X161004762Y-143033333D01*
X160957143Y-142985714D01*
X160861905Y-142938095D01*
X160623810Y-142938095D01*
X160528571Y-142985714D01*
X160480952Y-143033333D01*
X160433333Y-143128571D01*
X160433333Y-143319048D01*
X160480952Y-143414286D01*
X160528571Y-143461905D01*
X160623810Y-143509524D01*
D16*
X156719190Y-145059971D02*
X156695000Y-145038200D01*
X156670810Y-144994657D01*
X156670810Y-144885800D01*
X156695000Y-144842257D01*
X156719190Y-144820486D01*
X156767571Y-144798714D01*
X156815952Y-144798714D01*
X156888524Y-144820486D01*
X157178810Y-145081743D01*
X157178810Y-144798714D01*
X157130429Y-144602771D02*
X157154619Y-144580999D01*
X157178810Y-144602771D01*
X157154619Y-144624542D01*
X157130429Y-144602771D01*
X157178810Y-144602771D01*
X156719190Y-144406828D02*
X156695000Y-144385057D01*
X156670810Y-144341514D01*
X156670810Y-144232657D01*
X156695000Y-144189114D01*
X156719190Y-144167343D01*
X156767571Y-144145571D01*
X156815952Y-144145571D01*
X156888524Y-144167343D01*
X157178810Y-144428600D01*
X157178810Y-144145571D01*
X156840143Y-143753685D02*
X157178810Y-143753685D01*
X156840143Y-143949628D02*
X157106238Y-143949628D01*
X157154619Y-143927856D01*
X157178810Y-143884314D01*
X157178810Y-143818999D01*
X157154619Y-143775456D01*
X157130429Y-143753685D01*
X156912714Y-143383571D02*
X156912714Y-143535971D01*
X157178810Y-143535971D02*
X156670810Y-143535971D01*
X156670810Y-143318257D01*
M02*
