G04 #@! TF.FileFunction,Soldermask,Bot*
%FSLAX46Y46*%
G04 Gerber Fmt 4.6, Leading zero omitted, Abs format (unit mm)*
G04 Created by KiCad (PCBNEW 4.0.7-e2-6376~58~ubuntu14.04.1) date Tue Dec 26 10:18:39 2017*
%MOMM*%
%LPD*%
G01*
G04 APERTURE LIST*
%ADD10C,0.100000*%
%ADD11R,1.524000X1.824000*%
%ADD12O,1.524000X1.824000*%
%ADD13C,1.400000*%
%ADD14O,3.014980X1.506220*%
%ADD15C,1.270000*%
%ADD16C,1.397000*%
%ADD17R,1.727200X2.032000*%
%ADD18O,1.727200X2.032000*%
%ADD19C,1.501140*%
G04 APERTURE END LIST*
D10*
D11*
X121000000Y-100200000D03*
D12*
X121000000Y-105280000D03*
X118460000Y-100200000D03*
X118460000Y-105280000D03*
X115920000Y-100200000D03*
X115920000Y-105280000D03*
D13*
X119870000Y-111260000D03*
X117870000Y-111260000D03*
X115870000Y-111260000D03*
D14*
X175530000Y-109990000D03*
X175530000Y-117610000D03*
X175530000Y-115070000D03*
X175530000Y-112530000D03*
D15*
X141600000Y-99970000D03*
X141600000Y-97430000D03*
D16*
X115690000Y-114620000D03*
X120090000Y-114620000D03*
X115690000Y-120620000D03*
X120090000Y-120620000D03*
D17*
X176800000Y-126500000D03*
D18*
X174260000Y-126500000D03*
X171720000Y-126500000D03*
X169180000Y-126500000D03*
X166640000Y-126500000D03*
X164100000Y-126500000D03*
X161560000Y-126500000D03*
X159020000Y-126500000D03*
X156480000Y-126500000D03*
X153940000Y-126500000D03*
X151400000Y-126500000D03*
X148860000Y-126500000D03*
X146320000Y-126500000D03*
X143780000Y-126500000D03*
X141240000Y-126500000D03*
X138700000Y-126500000D03*
X136160000Y-126500000D03*
X133620000Y-126500000D03*
X131080000Y-126500000D03*
X128540000Y-126500000D03*
X126000000Y-126500000D03*
X123460000Y-126500000D03*
X120920000Y-126500000D03*
X118380000Y-126500000D03*
X115840000Y-126500000D03*
D17*
X176800000Y-88400000D03*
D18*
X174260000Y-88400000D03*
X171720000Y-88400000D03*
X169180000Y-88400000D03*
X166640000Y-88400000D03*
X164100000Y-88400000D03*
X161560000Y-88400000D03*
X159020000Y-88400000D03*
X156480000Y-88400000D03*
X153940000Y-88400000D03*
X151400000Y-88400000D03*
X148860000Y-88400000D03*
X146320000Y-88400000D03*
X143780000Y-88400000D03*
X141240000Y-88400000D03*
X138700000Y-88400000D03*
X136160000Y-88400000D03*
X133620000Y-88400000D03*
X131080000Y-88400000D03*
X128540000Y-88400000D03*
X126000000Y-88400000D03*
X123460000Y-88400000D03*
X120920000Y-88400000D03*
X118380000Y-88400000D03*
X115840000Y-88400000D03*
D19*
X130000000Y-111759060D03*
X130000000Y-116640940D03*
X130000000Y-153759060D03*
X130000000Y-158640940D03*
D17*
X176800000Y-130400000D03*
D18*
X174260000Y-130400000D03*
X171720000Y-130400000D03*
X169180000Y-130400000D03*
X166640000Y-130400000D03*
X164100000Y-130400000D03*
X161560000Y-130400000D03*
X159020000Y-130400000D03*
X156480000Y-130400000D03*
X153940000Y-130400000D03*
X151400000Y-130400000D03*
X148860000Y-130400000D03*
X146320000Y-130400000D03*
X143780000Y-130400000D03*
X141240000Y-130400000D03*
X138700000Y-130400000D03*
X136160000Y-130400000D03*
X133620000Y-130400000D03*
X131080000Y-130400000D03*
X128540000Y-130400000D03*
X126000000Y-130400000D03*
X123460000Y-130400000D03*
X120920000Y-130400000D03*
X118380000Y-130400000D03*
X115840000Y-130400000D03*
D17*
X176800000Y-168500000D03*
D18*
X174260000Y-168500000D03*
X171720000Y-168500000D03*
X169180000Y-168500000D03*
X166640000Y-168500000D03*
X164100000Y-168500000D03*
X161560000Y-168500000D03*
X159020000Y-168500000D03*
X156480000Y-168500000D03*
X153940000Y-168500000D03*
X151400000Y-168500000D03*
X148860000Y-168500000D03*
X146320000Y-168500000D03*
X143780000Y-168500000D03*
X141240000Y-168500000D03*
X138700000Y-168500000D03*
X136160000Y-168500000D03*
X133620000Y-168500000D03*
X131080000Y-168500000D03*
X128540000Y-168500000D03*
X126000000Y-168500000D03*
X123460000Y-168500000D03*
X120920000Y-168500000D03*
X118380000Y-168500000D03*
X115840000Y-168500000D03*
D16*
X115690000Y-156620000D03*
X120090000Y-156620000D03*
X115690000Y-162620000D03*
X120090000Y-162620000D03*
D15*
X141600000Y-141970000D03*
X141600000Y-139430000D03*
D14*
X175530000Y-151990000D03*
X175530000Y-159610000D03*
X175530000Y-157070000D03*
X175530000Y-154530000D03*
D13*
X119870000Y-153260000D03*
X117870000Y-153260000D03*
X115870000Y-153260000D03*
D11*
X121000000Y-142200000D03*
D12*
X121000000Y-147280000D03*
X118460000Y-142200000D03*
X118460000Y-147280000D03*
X115920000Y-142200000D03*
X115920000Y-147280000D03*
M02*
