G04 #@! TF.FileFunction,Copper,L2,Bot,Signal*
%FSLAX46Y46*%
G04 Gerber Fmt 4.6, Leading zero omitted, Abs format (unit mm)*
G04 Created by KiCad (PCBNEW 4.0.7-e2-6376~58~ubuntu14.04.1) date Tue Dec 26 10:18:39 2017*
%MOMM*%
%LPD*%
G01*
G04 APERTURE LIST*
%ADD10C,0.100000*%
%ADD11R,1.524000X1.824000*%
%ADD12O,1.524000X1.824000*%
%ADD13C,1.400000*%
%ADD14O,3.014980X1.506220*%
%ADD15C,1.270000*%
%ADD16C,1.397000*%
%ADD17R,1.727200X2.032000*%
%ADD18O,1.727200X2.032000*%
%ADD19C,1.501140*%
%ADD20C,0.600000*%
%ADD21C,0.250000*%
%ADD22C,0.500000*%
%ADD23C,0.254000*%
G04 APERTURE END LIST*
D10*
D11*
X121000000Y-100200000D03*
D12*
X121000000Y-105280000D03*
X118460000Y-100200000D03*
X118460000Y-105280000D03*
X115920000Y-100200000D03*
X115920000Y-105280000D03*
D13*
X119870000Y-111260000D03*
X117870000Y-111260000D03*
X115870000Y-111260000D03*
D14*
X175530000Y-109990000D03*
X175530000Y-117610000D03*
X175530000Y-115070000D03*
X175530000Y-112530000D03*
D15*
X141600000Y-99970000D03*
X141600000Y-97430000D03*
D16*
X115690000Y-114620000D03*
X120090000Y-114620000D03*
X115690000Y-120620000D03*
X120090000Y-120620000D03*
D17*
X176800000Y-126500000D03*
D18*
X174260000Y-126500000D03*
X171720000Y-126500000D03*
X169180000Y-126500000D03*
X166640000Y-126500000D03*
X164100000Y-126500000D03*
X161560000Y-126500000D03*
X159020000Y-126500000D03*
X156480000Y-126500000D03*
X153940000Y-126500000D03*
X151400000Y-126500000D03*
X148860000Y-126500000D03*
X146320000Y-126500000D03*
X143780000Y-126500000D03*
X141240000Y-126500000D03*
X138700000Y-126500000D03*
X136160000Y-126500000D03*
X133620000Y-126500000D03*
X131080000Y-126500000D03*
X128540000Y-126500000D03*
X126000000Y-126500000D03*
X123460000Y-126500000D03*
X120920000Y-126500000D03*
X118380000Y-126500000D03*
X115840000Y-126500000D03*
D17*
X176800000Y-88400000D03*
D18*
X174260000Y-88400000D03*
X171720000Y-88400000D03*
X169180000Y-88400000D03*
X166640000Y-88400000D03*
X164100000Y-88400000D03*
X161560000Y-88400000D03*
X159020000Y-88400000D03*
X156480000Y-88400000D03*
X153940000Y-88400000D03*
X151400000Y-88400000D03*
X148860000Y-88400000D03*
X146320000Y-88400000D03*
X143780000Y-88400000D03*
X141240000Y-88400000D03*
X138700000Y-88400000D03*
X136160000Y-88400000D03*
X133620000Y-88400000D03*
X131080000Y-88400000D03*
X128540000Y-88400000D03*
X126000000Y-88400000D03*
X123460000Y-88400000D03*
X120920000Y-88400000D03*
X118380000Y-88400000D03*
X115840000Y-88400000D03*
D19*
X130000000Y-111759060D03*
X130000000Y-116640940D03*
X130000000Y-153759060D03*
X130000000Y-158640940D03*
D17*
X176800000Y-130400000D03*
D18*
X174260000Y-130400000D03*
X171720000Y-130400000D03*
X169180000Y-130400000D03*
X166640000Y-130400000D03*
X164100000Y-130400000D03*
X161560000Y-130400000D03*
X159020000Y-130400000D03*
X156480000Y-130400000D03*
X153940000Y-130400000D03*
X151400000Y-130400000D03*
X148860000Y-130400000D03*
X146320000Y-130400000D03*
X143780000Y-130400000D03*
X141240000Y-130400000D03*
X138700000Y-130400000D03*
X136160000Y-130400000D03*
X133620000Y-130400000D03*
X131080000Y-130400000D03*
X128540000Y-130400000D03*
X126000000Y-130400000D03*
X123460000Y-130400000D03*
X120920000Y-130400000D03*
X118380000Y-130400000D03*
X115840000Y-130400000D03*
D17*
X176800000Y-168500000D03*
D18*
X174260000Y-168500000D03*
X171720000Y-168500000D03*
X169180000Y-168500000D03*
X166640000Y-168500000D03*
X164100000Y-168500000D03*
X161560000Y-168500000D03*
X159020000Y-168500000D03*
X156480000Y-168500000D03*
X153940000Y-168500000D03*
X151400000Y-168500000D03*
X148860000Y-168500000D03*
X146320000Y-168500000D03*
X143780000Y-168500000D03*
X141240000Y-168500000D03*
X138700000Y-168500000D03*
X136160000Y-168500000D03*
X133620000Y-168500000D03*
X131080000Y-168500000D03*
X128540000Y-168500000D03*
X126000000Y-168500000D03*
X123460000Y-168500000D03*
X120920000Y-168500000D03*
X118380000Y-168500000D03*
X115840000Y-168500000D03*
D16*
X115690000Y-156620000D03*
X120090000Y-156620000D03*
X115690000Y-162620000D03*
X120090000Y-162620000D03*
D15*
X141600000Y-141970000D03*
X141600000Y-139430000D03*
D14*
X175530000Y-151990000D03*
X175530000Y-159610000D03*
X175530000Y-157070000D03*
X175530000Y-154530000D03*
D13*
X119870000Y-153260000D03*
X117870000Y-153260000D03*
X115870000Y-153260000D03*
D11*
X121000000Y-142200000D03*
D12*
X121000000Y-147280000D03*
X118460000Y-142200000D03*
X118460000Y-147280000D03*
X115920000Y-142200000D03*
X115920000Y-147280000D03*
D20*
X134100000Y-106500000D03*
X128100000Y-106900000D03*
X135400000Y-110300000D03*
X133100000Y-101300000D03*
X139000000Y-101000000D03*
X152100000Y-105800000D03*
X148100000Y-107500000D03*
X147700000Y-102000000D03*
X145600000Y-100900000D03*
X157800000Y-94800000D03*
X149800000Y-94800000D03*
X135200000Y-91700000D03*
X163700000Y-106700000D03*
X159400000Y-103700000D03*
X145200000Y-121400000D03*
X145100000Y-116900000D03*
X145100000Y-158900000D03*
X145200000Y-163400000D03*
X159400000Y-145700000D03*
X163700000Y-148700000D03*
X135200000Y-133700000D03*
X149800000Y-136800000D03*
X157800000Y-136800000D03*
X145600000Y-142900000D03*
X147700000Y-144000000D03*
X148100000Y-149500000D03*
X152100000Y-147800000D03*
X139000000Y-143000000D03*
X133100000Y-143300000D03*
X135400000Y-152300000D03*
X128100000Y-148900000D03*
X134100000Y-148500000D03*
X130300000Y-107300000D03*
X134100000Y-109900000D03*
X139200000Y-102800000D03*
X132200000Y-102600000D03*
X158200000Y-115200000D03*
X163000000Y-120000000D03*
X167000000Y-104100000D03*
X158600000Y-98600000D03*
X155800000Y-118200000D03*
X151800000Y-117800000D03*
X151800000Y-159800000D03*
X155800000Y-160200000D03*
X158600000Y-140600000D03*
X167000000Y-146100000D03*
X163000000Y-162000000D03*
X158200000Y-157200000D03*
X132200000Y-144600000D03*
X139200000Y-144800000D03*
X134100000Y-151900000D03*
X130300000Y-149300000D03*
X140000000Y-103600000D03*
X140000000Y-145600000D03*
X141300000Y-103600000D03*
X141300000Y-145600000D03*
X170700000Y-108600000D03*
X164500000Y-108600000D03*
X156800000Y-107500000D03*
X156800000Y-149500000D03*
X164500000Y-150600000D03*
X170700000Y-150600000D03*
X156800000Y-108300000D03*
X170700000Y-109600000D03*
X164500000Y-109700000D03*
X164500000Y-151700000D03*
X170700000Y-151600000D03*
X156800000Y-150300000D03*
X156800000Y-109200000D03*
X164500000Y-110900000D03*
X170700000Y-110800000D03*
X170700000Y-152800000D03*
X164500000Y-152900000D03*
X156800000Y-151200000D03*
X170700000Y-112100000D03*
X164600000Y-112100000D03*
X156800000Y-110000000D03*
X156800000Y-152000000D03*
X164600000Y-154100000D03*
X170700000Y-154100000D03*
X156800000Y-110800000D03*
X164600000Y-113300000D03*
X170700000Y-113300000D03*
X170700000Y-155300000D03*
X164600000Y-155300000D03*
X156800000Y-152800000D03*
X156800000Y-111700000D03*
X164500000Y-114300000D03*
X170700000Y-114300000D03*
X170700000Y-156300000D03*
X164500000Y-156300000D03*
X156800000Y-153700000D03*
X170700000Y-115400000D03*
X164500000Y-115400000D03*
X156800000Y-112500000D03*
X156800000Y-154500000D03*
X164500000Y-157400000D03*
X170700000Y-157400000D03*
X167400000Y-116600000D03*
X164500000Y-116600000D03*
X156800000Y-113600000D03*
X156800000Y-155600000D03*
X164500000Y-158600000D03*
X167400000Y-158600000D03*
X163400000Y-99000000D03*
X163400000Y-92700000D03*
X163400000Y-134700000D03*
X163400000Y-141000000D03*
X154600000Y-113200000D03*
X154600000Y-155200000D03*
X153800000Y-113200000D03*
X153800000Y-155200000D03*
X120400000Y-108600000D03*
X121600000Y-119000000D03*
X121600000Y-161000000D03*
X120400000Y-150600000D03*
X155800000Y-105300000D03*
X162600000Y-121000000D03*
X162600000Y-163000000D03*
X155800000Y-147300000D03*
X155300000Y-106800000D03*
X162600000Y-122200000D03*
X162600000Y-164200000D03*
X155300000Y-148800000D03*
X154200000Y-99600000D03*
X154200000Y-141600000D03*
X154900000Y-100300000D03*
X154900000Y-142300000D03*
X155600000Y-101000000D03*
X155600000Y-143000000D03*
X152700000Y-116400000D03*
X152700000Y-158400000D03*
X151500000Y-116300000D03*
X151500000Y-158300000D03*
X144900000Y-111200000D03*
X144900000Y-153200000D03*
X144900000Y-110200000D03*
X144900000Y-152200000D03*
X144600000Y-109400000D03*
X144600000Y-151400000D03*
X143400000Y-108900000D03*
X143400000Y-150900000D03*
X150000000Y-105700000D03*
X150000000Y-147700000D03*
X150800000Y-105200000D03*
X150800000Y-147200000D03*
X151700000Y-104400000D03*
X151700000Y-146400000D03*
D21*
X119870000Y-111260000D02*
X119870000Y-111290000D01*
X115690000Y-114620000D02*
X115690000Y-120620000D01*
X134100000Y-106500000D02*
X134000000Y-106600000D01*
X134000000Y-106600000D02*
X128400000Y-106600000D01*
X128400000Y-106600000D02*
X128100000Y-106900000D01*
X134100000Y-109000000D02*
X135400000Y-110300000D01*
X134100000Y-106500000D02*
X134100000Y-109000000D01*
X133100000Y-101300000D02*
X133400000Y-101000000D01*
X133400000Y-101000000D02*
X139000000Y-101000000D01*
X152100000Y-105800000D02*
X150400000Y-107500000D01*
X150400000Y-107500000D02*
X148100000Y-107500000D01*
X146700000Y-102000000D02*
X147700000Y-102000000D01*
X145600000Y-100900000D02*
X146700000Y-102000000D01*
X177800000Y-112260000D02*
X175530000Y-109990000D01*
X177800000Y-119700000D02*
X177800000Y-112260000D01*
X176800000Y-120700000D02*
X177800000Y-119700000D01*
X176800000Y-126500000D02*
X176800000Y-120700000D01*
X117630000Y-112660000D02*
X118470000Y-112660000D01*
X118470000Y-112660000D02*
X119870000Y-111260000D01*
X115690000Y-114600000D02*
X117630000Y-112660000D01*
X115690000Y-114620000D02*
X115690000Y-114600000D01*
D22*
X157800000Y-94800000D02*
X149800000Y-94800000D01*
X135200000Y-91700000D02*
X139200000Y-95700000D01*
X139200000Y-95700000D02*
X142400000Y-95700000D01*
X142400000Y-95700000D02*
X145600000Y-98900000D01*
X145600000Y-98900000D02*
X145600000Y-100900000D01*
D21*
X162400000Y-106700000D02*
X163700000Y-106700000D01*
X159400000Y-103700000D02*
X162400000Y-106700000D01*
D22*
X145200000Y-121400000D02*
X145100000Y-121300000D01*
X145100000Y-121300000D02*
X145100000Y-116900000D01*
X145100000Y-163300000D02*
X145100000Y-158900000D01*
X145200000Y-163400000D02*
X145100000Y-163300000D01*
D21*
X159400000Y-145700000D02*
X162400000Y-148700000D01*
X162400000Y-148700000D02*
X163700000Y-148700000D01*
D22*
X145600000Y-140900000D02*
X145600000Y-142900000D01*
X142400000Y-137700000D02*
X145600000Y-140900000D01*
X139200000Y-137700000D02*
X142400000Y-137700000D01*
X135200000Y-133700000D02*
X139200000Y-137700000D01*
X157800000Y-136800000D02*
X149800000Y-136800000D01*
D21*
X115690000Y-156620000D02*
X115690000Y-156600000D01*
X115690000Y-156600000D02*
X117630000Y-154660000D01*
X118470000Y-154660000D02*
X119870000Y-153260000D01*
X117630000Y-154660000D02*
X118470000Y-154660000D01*
X176800000Y-168500000D02*
X176800000Y-162700000D01*
X176800000Y-162700000D02*
X177800000Y-161700000D01*
X177800000Y-161700000D02*
X177800000Y-154260000D01*
X177800000Y-154260000D02*
X175530000Y-151990000D01*
X145600000Y-142900000D02*
X146700000Y-144000000D01*
X146700000Y-144000000D02*
X147700000Y-144000000D01*
X150400000Y-149500000D02*
X148100000Y-149500000D01*
X152100000Y-147800000D02*
X150400000Y-149500000D01*
X133400000Y-143000000D02*
X139000000Y-143000000D01*
X133100000Y-143300000D02*
X133400000Y-143000000D01*
X134100000Y-148500000D02*
X134100000Y-151000000D01*
X134100000Y-151000000D02*
X135400000Y-152300000D01*
X128400000Y-148600000D02*
X128100000Y-148900000D01*
X134000000Y-148600000D02*
X128400000Y-148600000D01*
X134100000Y-148500000D02*
X134000000Y-148600000D01*
X115690000Y-156620000D02*
X115690000Y-162620000D01*
X119870000Y-153260000D02*
X119870000Y-153290000D01*
X130300000Y-107300000D02*
X133900000Y-109900000D01*
X133900000Y-109900000D02*
X134100000Y-109900000D01*
D22*
X138500000Y-102100000D02*
X139200000Y-102800000D01*
X132700000Y-102100000D02*
X138500000Y-102100000D01*
X132200000Y-102600000D02*
X132700000Y-102100000D01*
D21*
X158200000Y-115200000D02*
X163000000Y-120000000D01*
X163000000Y-120000000D02*
X163000000Y-120000000D01*
D22*
X167000000Y-104100000D02*
X161500000Y-98600000D01*
X161500000Y-98600000D02*
X158600000Y-98600000D01*
X155400000Y-117800000D02*
X155800000Y-118200000D01*
X151800000Y-117800000D02*
X155400000Y-117800000D01*
X151800000Y-159800000D02*
X155400000Y-159800000D01*
X155400000Y-159800000D02*
X155800000Y-160200000D01*
X161500000Y-140600000D02*
X158600000Y-140600000D01*
X167000000Y-146100000D02*
X161500000Y-140600000D01*
D21*
X163000000Y-162000000D02*
X163000000Y-162000000D01*
X158200000Y-157200000D02*
X163000000Y-162000000D01*
D22*
X132200000Y-144600000D02*
X132700000Y-144100000D01*
X132700000Y-144100000D02*
X138500000Y-144100000D01*
X138500000Y-144100000D02*
X139200000Y-144800000D01*
D21*
X133900000Y-151900000D02*
X134100000Y-151900000D01*
X130300000Y-149300000D02*
X133900000Y-151900000D01*
X141130000Y-99970000D02*
X141600000Y-99970000D01*
X140000000Y-103600000D02*
X140000000Y-101100000D01*
X140000000Y-101100000D02*
X141130000Y-99970000D01*
X140000000Y-143100000D02*
X141130000Y-141970000D01*
X140000000Y-145600000D02*
X140000000Y-143100000D01*
X141130000Y-141970000D02*
X141600000Y-141970000D01*
X141300000Y-103600000D02*
X141300000Y-101700000D01*
X141300000Y-101700000D02*
X141500000Y-101500000D01*
X141500000Y-101500000D02*
X142200000Y-101500000D01*
X142200000Y-101500000D02*
X143000000Y-100700000D01*
X143000000Y-100700000D02*
X143000000Y-98830000D01*
X143000000Y-98830000D02*
X141600000Y-97430000D01*
X143000000Y-140830000D02*
X141600000Y-139430000D01*
X143000000Y-142700000D02*
X143000000Y-140830000D01*
X142200000Y-143500000D02*
X143000000Y-142700000D01*
X141500000Y-143500000D02*
X142200000Y-143500000D01*
X141300000Y-143700000D02*
X141500000Y-143500000D01*
X141300000Y-145600000D02*
X141300000Y-143700000D01*
X176800000Y-88360000D02*
X176800000Y-101585000D01*
X170700000Y-108600000D02*
X176800000Y-101585000D01*
X164300000Y-108600000D02*
X164500000Y-108600000D01*
X163200000Y-107500000D02*
X164300000Y-108600000D01*
X156800000Y-107500000D02*
X163200000Y-107500000D01*
X156800000Y-149500000D02*
X163200000Y-149500000D01*
X163200000Y-149500000D02*
X164300000Y-150600000D01*
X164300000Y-150600000D02*
X164500000Y-150600000D01*
X170700000Y-150600000D02*
X176800000Y-143585000D01*
X176800000Y-130360000D02*
X176800000Y-143585000D01*
X156800000Y-108300000D02*
X156800000Y-108300000D01*
X170050000Y-108950000D02*
X170700000Y-109600000D01*
X174270367Y-103529633D02*
X174259931Y-88300000D01*
X170050000Y-107750000D02*
X174270367Y-103529633D01*
X163300000Y-108300000D02*
X164500000Y-109700000D01*
X156800000Y-108300000D02*
X163300000Y-108300000D01*
X170050000Y-107750000D02*
X170050000Y-108950000D01*
X170050000Y-149750000D02*
X170050000Y-150950000D01*
X156800000Y-150300000D02*
X163300000Y-150300000D01*
X163300000Y-150300000D02*
X164500000Y-151700000D01*
X170050000Y-149750000D02*
X174270367Y-145529633D01*
X174270367Y-145529633D02*
X174259931Y-130300000D01*
X170050000Y-150950000D02*
X170700000Y-151600000D01*
X156800000Y-150300000D02*
X156800000Y-150300000D01*
X156800000Y-109200000D02*
X156900000Y-109100000D01*
X156900000Y-109100000D02*
X163000000Y-109100000D01*
X163000000Y-109100000D02*
X164500000Y-110900000D01*
X169500000Y-109600000D02*
X170700000Y-110800000D01*
X173800000Y-90480000D02*
X171720000Y-88400000D01*
X173800000Y-103200000D02*
X173800000Y-90480000D01*
X169500000Y-107500000D02*
X173800000Y-103200000D01*
X169500000Y-107500000D02*
X169500000Y-109600000D01*
X169500000Y-149500000D02*
X169500000Y-151600000D01*
X169500000Y-149500000D02*
X173800000Y-145200000D01*
X173800000Y-145200000D02*
X173800000Y-132480000D01*
X173800000Y-132480000D02*
X171720000Y-130400000D01*
X169500000Y-151600000D02*
X170700000Y-152800000D01*
X163000000Y-151100000D02*
X164500000Y-152900000D01*
X156900000Y-151100000D02*
X163000000Y-151100000D01*
X156800000Y-151200000D02*
X156900000Y-151100000D01*
X170700000Y-112100000D02*
X170600000Y-112000000D01*
X162600000Y-109900000D02*
X164600000Y-112100000D01*
X156900000Y-109900000D02*
X162600000Y-109900000D01*
X156800000Y-110000000D02*
X156900000Y-109900000D01*
X169000000Y-110100000D02*
X170700000Y-111800000D01*
X170700000Y-111800000D02*
X170700000Y-112100000D01*
X169000000Y-107100000D02*
X169050000Y-107050000D01*
X169050000Y-107050000D02*
X173100000Y-103000000D01*
X173100000Y-103000000D02*
X173100000Y-92320000D01*
X169180000Y-88400000D02*
X173100000Y-92320000D01*
X169000000Y-107100000D02*
X169000000Y-110100000D01*
X169000000Y-149100000D02*
X169000000Y-152100000D01*
X169180000Y-130400000D02*
X173100000Y-134320000D01*
X173100000Y-145000000D02*
X173100000Y-134320000D01*
X169050000Y-149050000D02*
X173100000Y-145000000D01*
X169000000Y-149100000D02*
X169050000Y-149050000D01*
X170700000Y-153800000D02*
X170700000Y-154100000D01*
X169000000Y-152100000D02*
X170700000Y-153800000D01*
X156800000Y-152000000D02*
X156900000Y-151900000D01*
X156900000Y-151900000D02*
X162600000Y-151900000D01*
X162600000Y-151900000D02*
X164600000Y-154100000D01*
X170700000Y-154100000D02*
X170600000Y-154000000D01*
X156800000Y-110800000D02*
X156900000Y-110700000D01*
X156900000Y-110700000D02*
X162200000Y-110700000D01*
X162200000Y-110700000D02*
X164600000Y-113300000D01*
X170700000Y-113300000D02*
X170600000Y-113200000D01*
X168500000Y-111100000D02*
X170700000Y-113300000D01*
X168500000Y-106600000D02*
X172300000Y-102800000D01*
X172300000Y-102800000D02*
X172300000Y-94060000D01*
X166640000Y-88400000D02*
X172300000Y-94060000D01*
X168500000Y-106600000D02*
X168500000Y-111100000D01*
X168500000Y-148600000D02*
X168500000Y-153100000D01*
X166640000Y-130400000D02*
X172300000Y-136060000D01*
X172300000Y-144800000D02*
X172300000Y-136060000D01*
X168500000Y-148600000D02*
X172300000Y-144800000D01*
X168500000Y-153100000D02*
X170700000Y-155300000D01*
X170700000Y-155300000D02*
X170600000Y-155200000D01*
X162200000Y-152700000D02*
X164600000Y-155300000D01*
X156900000Y-152700000D02*
X162200000Y-152700000D01*
X156800000Y-152800000D02*
X156900000Y-152700000D01*
X156800000Y-111700000D02*
X162200000Y-111700000D01*
X162200000Y-111700000D02*
X163400000Y-112900000D01*
X163400000Y-112900000D02*
X163400000Y-113200000D01*
X163400000Y-113200000D02*
X164500000Y-114300000D01*
X170700000Y-114300000D02*
X168000000Y-111600000D01*
X168000000Y-111600000D02*
X168000000Y-106200000D01*
X168000000Y-106200000D02*
X171600000Y-102600000D01*
X171600000Y-102600000D02*
X171600000Y-95900000D01*
X171600000Y-95900000D02*
X164050000Y-88350000D01*
X171600000Y-137900000D02*
X164050000Y-130350000D01*
X171600000Y-144600000D02*
X171600000Y-137900000D01*
X168000000Y-148200000D02*
X171600000Y-144600000D01*
X168000000Y-153600000D02*
X168000000Y-148200000D01*
X170700000Y-156300000D02*
X168000000Y-153600000D01*
X163400000Y-155200000D02*
X164500000Y-156300000D01*
X163400000Y-154900000D02*
X163400000Y-155200000D01*
X162200000Y-153700000D02*
X163400000Y-154900000D01*
X156800000Y-153700000D02*
X162200000Y-153700000D01*
X164460000Y-91300000D02*
X161560000Y-88400000D01*
X171100000Y-96900000D02*
X165500000Y-91300000D01*
X171100000Y-102000000D02*
X171100000Y-96900000D01*
X167500000Y-105600000D02*
X171100000Y-102000000D01*
X167500000Y-112200000D02*
X167500000Y-105600000D01*
X170700000Y-115400000D02*
X167500000Y-112200000D01*
X163600000Y-114500000D02*
X164500000Y-115400000D01*
X163600000Y-114200000D02*
X163600000Y-114500000D01*
X161900000Y-112500000D02*
X163600000Y-114200000D01*
X156800000Y-112500000D02*
X161900000Y-112500000D01*
X165500000Y-91300000D02*
X164460000Y-91300000D01*
X165500000Y-133300000D02*
X164460000Y-133300000D01*
X156800000Y-154500000D02*
X161900000Y-154500000D01*
X161900000Y-154500000D02*
X163600000Y-156200000D01*
X163600000Y-156200000D02*
X163600000Y-156500000D01*
X163600000Y-156500000D02*
X164500000Y-157400000D01*
X170700000Y-157400000D02*
X167500000Y-154200000D01*
X167500000Y-154200000D02*
X167500000Y-147600000D01*
X167500000Y-147600000D02*
X171100000Y-144000000D01*
X171100000Y-144000000D02*
X171100000Y-138900000D01*
X171100000Y-138900000D02*
X165500000Y-133300000D01*
X164460000Y-133300000D02*
X161560000Y-130400000D01*
X162420000Y-91800000D02*
X159020000Y-88400000D01*
X165100000Y-91800000D02*
X163100000Y-91800000D01*
X170400000Y-97100000D02*
X165100000Y-91800000D01*
X170400000Y-101800000D02*
X170400000Y-97100000D01*
X166900000Y-105300000D02*
X170400000Y-101800000D01*
X166900000Y-116100000D02*
X166900000Y-105300000D01*
X167400000Y-116600000D02*
X166900000Y-116100000D01*
X161400000Y-113500000D02*
X164500000Y-116600000D01*
X156900000Y-113500000D02*
X161400000Y-113500000D01*
X156800000Y-113600000D02*
X156900000Y-113500000D01*
X163100000Y-91800000D02*
X162420000Y-91800000D01*
X163100000Y-133800000D02*
X162420000Y-133800000D01*
X156800000Y-155600000D02*
X156900000Y-155500000D01*
X156900000Y-155500000D02*
X161400000Y-155500000D01*
X161400000Y-155500000D02*
X164500000Y-158600000D01*
X167400000Y-158600000D02*
X166900000Y-158100000D01*
X166900000Y-158100000D02*
X166900000Y-147300000D01*
X166900000Y-147300000D02*
X170400000Y-143800000D01*
X170400000Y-143800000D02*
X170400000Y-139100000D01*
X170400000Y-139100000D02*
X165100000Y-133800000D01*
X165100000Y-133800000D02*
X163100000Y-133800000D01*
X162420000Y-133800000D02*
X159020000Y-130400000D01*
X163400000Y-99000000D02*
X163400000Y-92700000D01*
X163400000Y-141000000D02*
X163400000Y-134700000D01*
X154600000Y-113200000D02*
X154600000Y-105500000D01*
X154600000Y-105500000D02*
X141300000Y-92200000D01*
X141300000Y-92200000D02*
X139700000Y-92200000D01*
X139700000Y-92200000D02*
X136100000Y-88600000D01*
X139700000Y-134200000D02*
X136100000Y-130600000D01*
X141300000Y-134200000D02*
X139700000Y-134200000D01*
X154600000Y-147500000D02*
X141300000Y-134200000D01*
X154600000Y-155200000D02*
X154600000Y-147500000D01*
X153800000Y-113200000D02*
X153900000Y-113100000D01*
X153900000Y-113100000D02*
X153900000Y-105600000D01*
X153900000Y-105600000D02*
X141200000Y-92900000D01*
X141200000Y-92900000D02*
X138000000Y-92900000D01*
X138000000Y-92900000D02*
X133600000Y-88500000D01*
X138000000Y-134900000D02*
X133600000Y-130500000D01*
X141200000Y-134900000D02*
X138000000Y-134900000D01*
X153900000Y-147600000D02*
X141200000Y-134900000D01*
X153900000Y-155100000D02*
X153900000Y-147600000D01*
X153800000Y-155200000D02*
X153900000Y-155100000D01*
X120400000Y-108600000D02*
X131080000Y-97920000D01*
X131080000Y-97920000D02*
X131080000Y-88330000D01*
X121135000Y-109335000D02*
X120400000Y-108600000D01*
X119500000Y-113575000D02*
X121135000Y-111940000D01*
X117925000Y-113575000D02*
X119500000Y-113575000D01*
X117100000Y-114400000D02*
X117925000Y-113575000D01*
X117100000Y-117600000D02*
X117100000Y-114400000D01*
X118500000Y-119000000D02*
X117100000Y-117600000D01*
X121600000Y-119000000D02*
X118500000Y-119000000D01*
X121135000Y-111940000D02*
X121135000Y-109335000D01*
X121135000Y-153940000D02*
X121135000Y-151335000D01*
X121600000Y-161000000D02*
X118500000Y-161000000D01*
X118500000Y-161000000D02*
X117100000Y-159600000D01*
X117100000Y-159600000D02*
X117100000Y-156400000D01*
X117100000Y-156400000D02*
X117925000Y-155575000D01*
X117925000Y-155575000D02*
X119500000Y-155575000D01*
X119500000Y-155575000D02*
X121135000Y-153940000D01*
X121135000Y-151335000D02*
X120400000Y-150600000D01*
X131080000Y-139920000D02*
X131080000Y-130330000D01*
X120400000Y-150600000D02*
X131080000Y-139920000D01*
X155800000Y-105300000D02*
X156000000Y-105500000D01*
X156000000Y-105500000D02*
X156000000Y-114400000D01*
X156000000Y-114400000D02*
X162600000Y-121000000D01*
X156000000Y-156400000D02*
X162600000Y-163000000D01*
X156000000Y-147500000D02*
X156000000Y-156400000D01*
X155800000Y-147300000D02*
X156000000Y-147500000D01*
X155300000Y-106800000D02*
X155300000Y-106800000D01*
X155300000Y-106800000D02*
X155300000Y-114900000D01*
X155300000Y-114900000D02*
X162600000Y-122200000D01*
X155300000Y-156900000D02*
X162600000Y-164200000D01*
X155300000Y-148800000D02*
X155300000Y-156900000D01*
X155300000Y-148800000D02*
X155300000Y-148800000D01*
X169180000Y-124380000D02*
X169000000Y-124200000D01*
X166300000Y-121500000D02*
X169000000Y-124200000D01*
X166300000Y-106300000D02*
X166300000Y-121500000D01*
X159600000Y-99600000D02*
X166300000Y-106300000D01*
X155000000Y-99600000D02*
X159600000Y-99600000D01*
X154200000Y-99600000D02*
X155000000Y-99600000D01*
X169180000Y-126500000D02*
X169180000Y-124380000D01*
X169180000Y-168500000D02*
X169180000Y-166380000D01*
X154200000Y-141600000D02*
X155000000Y-141600000D01*
X155000000Y-141600000D02*
X159600000Y-141600000D01*
X159600000Y-141600000D02*
X166300000Y-148300000D01*
X166300000Y-148300000D02*
X166300000Y-163500000D01*
X166300000Y-163500000D02*
X169000000Y-166200000D01*
X169180000Y-166380000D02*
X169000000Y-166200000D01*
X165960000Y-125820000D02*
X166640000Y-126500000D01*
X165800000Y-125660000D02*
X166640000Y-126500000D01*
X154900000Y-100300000D02*
X155700000Y-100300000D01*
X155700000Y-100300000D02*
X159600000Y-100300000D01*
X159600000Y-100300000D02*
X165800000Y-106500000D01*
X165800000Y-106500000D02*
X165800000Y-124800000D01*
X165800000Y-124800000D02*
X165800000Y-125660000D01*
X165800000Y-166800000D02*
X165800000Y-167660000D01*
X165800000Y-148500000D02*
X165800000Y-166800000D01*
X159600000Y-142300000D02*
X165800000Y-148500000D01*
X155700000Y-142300000D02*
X159600000Y-142300000D01*
X154900000Y-142300000D02*
X155700000Y-142300000D01*
X165800000Y-167660000D02*
X166640000Y-168500000D01*
X165960000Y-167820000D02*
X166640000Y-168500000D01*
X155600000Y-101000000D02*
X155700000Y-100900000D01*
X155700000Y-100900000D02*
X159400000Y-101000000D01*
X159400000Y-101000000D02*
X165300000Y-106900000D01*
X165300000Y-106900000D02*
X165300000Y-123300000D01*
X165300000Y-123300000D02*
X164100000Y-124500000D01*
X164100000Y-124500000D02*
X164100000Y-126500000D01*
X164100000Y-166500000D02*
X164100000Y-168500000D01*
X165300000Y-165300000D02*
X164100000Y-166500000D01*
X165300000Y-148900000D02*
X165300000Y-165300000D01*
X159400000Y-143000000D02*
X165300000Y-148900000D01*
X155700000Y-142900000D02*
X159400000Y-143000000D01*
X155600000Y-143000000D02*
X155700000Y-142900000D01*
X152600000Y-116400000D02*
X152100000Y-116900000D01*
X152100000Y-116900000D02*
X151700000Y-116900000D01*
X151700000Y-116900000D02*
X149400000Y-119200000D01*
X149400000Y-119200000D02*
X149400000Y-124500000D01*
X149400000Y-124500000D02*
X151400000Y-126500000D01*
X152700000Y-116400000D02*
X152600000Y-116400000D01*
X152700000Y-158400000D02*
X152600000Y-158400000D01*
X149400000Y-166500000D02*
X151400000Y-168500000D01*
X149400000Y-161200000D02*
X149400000Y-166500000D01*
X151700000Y-158900000D02*
X149400000Y-161200000D01*
X152100000Y-158900000D02*
X151700000Y-158900000D01*
X152600000Y-158400000D02*
X152100000Y-158900000D01*
X151500000Y-116300000D02*
X148860000Y-118940000D01*
X148860000Y-118940000D02*
X148860000Y-126500000D01*
X148860000Y-160940000D02*
X148860000Y-168500000D01*
X151500000Y-158300000D02*
X148860000Y-160940000D01*
X144000000Y-111200000D02*
X141400000Y-113800000D01*
X141400000Y-113800000D02*
X141400000Y-115700000D01*
X141400000Y-115700000D02*
X140500000Y-116600000D01*
X140500000Y-116600000D02*
X140500000Y-123900000D01*
X140500000Y-123900000D02*
X141000000Y-124400000D01*
X141000000Y-124400000D02*
X144220000Y-124400000D01*
X144220000Y-124400000D02*
X146320000Y-126500000D01*
X144900000Y-111200000D02*
X144000000Y-111200000D01*
X144900000Y-153200000D02*
X144000000Y-153200000D01*
X144220000Y-166400000D02*
X146320000Y-168500000D01*
X141000000Y-166400000D02*
X144220000Y-166400000D01*
X140500000Y-165900000D02*
X141000000Y-166400000D01*
X140500000Y-158600000D02*
X140500000Y-165900000D01*
X141400000Y-157700000D02*
X140500000Y-158600000D01*
X141400000Y-155800000D02*
X141400000Y-157700000D01*
X144000000Y-153200000D02*
X141400000Y-155800000D01*
X144100000Y-110200000D02*
X140900000Y-113400000D01*
X140900000Y-113400000D02*
X140900000Y-115400000D01*
X140900000Y-115400000D02*
X139900000Y-116400000D01*
X139900000Y-116400000D02*
X139900000Y-124200000D01*
X139900000Y-124200000D02*
X140600000Y-124900000D01*
X140600000Y-124900000D02*
X142180000Y-124900000D01*
X142180000Y-124900000D02*
X143780000Y-126500000D01*
X144900000Y-110200000D02*
X144100000Y-110200000D01*
X144900000Y-152200000D02*
X144100000Y-152200000D01*
X142180000Y-166900000D02*
X143780000Y-168500000D01*
X140600000Y-166900000D02*
X142180000Y-166900000D01*
X139900000Y-166200000D02*
X140600000Y-166900000D01*
X139900000Y-158400000D02*
X139900000Y-166200000D01*
X140900000Y-157400000D02*
X139900000Y-158400000D01*
X140900000Y-155400000D02*
X140900000Y-157400000D01*
X144100000Y-152200000D02*
X140900000Y-155400000D01*
X144000000Y-109400000D02*
X140400000Y-113000000D01*
X140400000Y-113000000D02*
X140400000Y-115000000D01*
X140400000Y-115000000D02*
X139300000Y-116100000D01*
X139300000Y-116100000D02*
X139300000Y-124560000D01*
X139300000Y-124560000D02*
X141240000Y-126500000D01*
X144600000Y-109400000D02*
X144000000Y-109400000D01*
X144600000Y-151400000D02*
X144000000Y-151400000D01*
X139300000Y-166560000D02*
X141240000Y-168500000D01*
X139300000Y-158100000D02*
X139300000Y-166560000D01*
X140400000Y-157000000D02*
X139300000Y-158100000D01*
X140400000Y-155000000D02*
X140400000Y-157000000D01*
X144000000Y-151400000D02*
X140400000Y-155000000D01*
X143400000Y-108900000D02*
X138700000Y-113600000D01*
X138700000Y-113600000D02*
X138700000Y-126500000D01*
X138700000Y-155600000D02*
X138700000Y-168500000D01*
X143400000Y-150900000D02*
X138700000Y-155600000D01*
X150000000Y-105700000D02*
X149800000Y-105500000D01*
X149800000Y-105500000D02*
X128400000Y-105500000D01*
X128400000Y-105500000D02*
X126500000Y-107400000D01*
X126500000Y-107400000D02*
X126500000Y-118000000D01*
X126500000Y-118000000D02*
X120920000Y-123580000D01*
X120920000Y-123580000D02*
X120920000Y-126500000D01*
X120920000Y-165580000D02*
X120920000Y-168500000D01*
X126500000Y-160000000D02*
X120920000Y-165580000D01*
X126500000Y-149400000D02*
X126500000Y-160000000D01*
X128400000Y-147500000D02*
X126500000Y-149400000D01*
X149800000Y-147500000D02*
X128400000Y-147500000D01*
X150000000Y-147700000D02*
X149800000Y-147500000D01*
X150800000Y-105200000D02*
X150600000Y-105000000D01*
X150600000Y-105000000D02*
X128100000Y-105000000D01*
X128100000Y-105000000D02*
X126000000Y-107100000D01*
X126000000Y-107100000D02*
X126000000Y-117400000D01*
X126000000Y-117400000D02*
X118380000Y-125020000D01*
X118380000Y-125020000D02*
X118380000Y-126500000D01*
X118380000Y-167020000D02*
X118380000Y-168500000D01*
X126000000Y-159400000D02*
X118380000Y-167020000D01*
X126000000Y-149100000D02*
X126000000Y-159400000D01*
X128100000Y-147000000D02*
X126000000Y-149100000D01*
X150600000Y-147000000D02*
X128100000Y-147000000D01*
X150800000Y-147200000D02*
X150600000Y-147000000D01*
X151800000Y-104400000D02*
X127900000Y-104400000D01*
X127900000Y-104400000D02*
X125500000Y-106800000D01*
X125500000Y-106800000D02*
X125500000Y-116840000D01*
X125500000Y-116840000D02*
X115840000Y-126500000D01*
X125500000Y-158840000D02*
X115840000Y-168500000D01*
X125500000Y-148800000D02*
X125500000Y-158840000D01*
X127900000Y-146400000D02*
X125500000Y-148800000D01*
X151800000Y-146400000D02*
X127900000Y-146400000D01*
D23*
G36*
X178315000Y-169715000D02*
X178268490Y-169715000D01*
X178298600Y-169642309D01*
X178298600Y-168785750D01*
X178139850Y-168627000D01*
X176927000Y-168627000D01*
X176927000Y-168647000D01*
X176673000Y-168647000D01*
X176673000Y-168627000D01*
X176653000Y-168627000D01*
X176653000Y-168373000D01*
X176673000Y-168373000D01*
X176673000Y-167007750D01*
X176927000Y-167007750D01*
X176927000Y-168373000D01*
X178139850Y-168373000D01*
X178298600Y-168214250D01*
X178298600Y-167357691D01*
X178201927Y-167124302D01*
X178023299Y-166945673D01*
X177789910Y-166849000D01*
X177085750Y-166849000D01*
X176927000Y-167007750D01*
X176673000Y-167007750D01*
X176514250Y-166849000D01*
X175810090Y-166849000D01*
X175576701Y-166945673D01*
X175398073Y-167124302D01*
X175334500Y-167277780D01*
X175319670Y-167255585D01*
X174833489Y-166930729D01*
X174260000Y-166816655D01*
X173686511Y-166930729D01*
X173200330Y-167255585D01*
X172990000Y-167570366D01*
X172779670Y-167255585D01*
X172293489Y-166930729D01*
X171720000Y-166816655D01*
X171146511Y-166930729D01*
X170660330Y-167255585D01*
X170450000Y-167570366D01*
X170239670Y-167255585D01*
X169940000Y-167055352D01*
X169940000Y-166380000D01*
X169882148Y-166089161D01*
X169882148Y-166089160D01*
X169717401Y-165842599D01*
X167060000Y-163185198D01*
X167060000Y-159471223D01*
X167213201Y-159534838D01*
X167585167Y-159535162D01*
X167928943Y-159393117D01*
X168192192Y-159130327D01*
X168334838Y-158786799D01*
X168335162Y-158414833D01*
X168193117Y-158071057D01*
X167930327Y-157807808D01*
X167660000Y-157695558D01*
X167660000Y-155434802D01*
X169764878Y-157539680D01*
X169764838Y-157585167D01*
X169906883Y-157928943D01*
X170169673Y-158192192D01*
X170513201Y-158334838D01*
X170885167Y-158335162D01*
X171228943Y-158193117D01*
X171492192Y-157930327D01*
X171634838Y-157586799D01*
X171635162Y-157214833D01*
X171493117Y-156871057D01*
X171472290Y-156850194D01*
X171492192Y-156830327D01*
X171634838Y-156486799D01*
X171635162Y-156114833D01*
X171504931Y-155799649D01*
X171634838Y-155486799D01*
X171635162Y-155114833D01*
X171493117Y-154771057D01*
X171422290Y-154700107D01*
X171492192Y-154630327D01*
X171533851Y-154530000D01*
X173345536Y-154530000D01*
X173451200Y-155061207D01*
X173752104Y-155511542D01*
X174183812Y-155800000D01*
X173752104Y-156088458D01*
X173451200Y-156538793D01*
X173345536Y-157070000D01*
X173451200Y-157601207D01*
X173752104Y-158051542D01*
X174183812Y-158340000D01*
X173752104Y-158628458D01*
X173451200Y-159078793D01*
X173345536Y-159610000D01*
X173451200Y-160141207D01*
X173752104Y-160591542D01*
X174202439Y-160892446D01*
X174733646Y-160998110D01*
X176326354Y-160998110D01*
X176857561Y-160892446D01*
X177307896Y-160591542D01*
X177608800Y-160141207D01*
X177714464Y-159610000D01*
X177608800Y-159078793D01*
X177307896Y-158628458D01*
X176876188Y-158340000D01*
X177307896Y-158051542D01*
X177608800Y-157601207D01*
X177714464Y-157070000D01*
X177608800Y-156538793D01*
X177307896Y-156088458D01*
X176876188Y-155800000D01*
X177307896Y-155511542D01*
X177608800Y-155061207D01*
X177714464Y-154530000D01*
X177608800Y-153998793D01*
X177307896Y-153548458D01*
X176857561Y-153247554D01*
X176854694Y-153246984D01*
X176932919Y-153223846D01*
X177355724Y-152881740D01*
X177615427Y-152403875D01*
X177629783Y-152331674D01*
X177507162Y-152117000D01*
X175657000Y-152117000D01*
X175657000Y-152137000D01*
X175403000Y-152137000D01*
X175403000Y-152117000D01*
X173552838Y-152117000D01*
X173430217Y-152331674D01*
X173444573Y-152403875D01*
X173704276Y-152881740D01*
X174127081Y-153223846D01*
X174205306Y-153246984D01*
X174202439Y-153247554D01*
X173752104Y-153548458D01*
X173451200Y-153998793D01*
X173345536Y-154530000D01*
X171533851Y-154530000D01*
X171634838Y-154286799D01*
X171635162Y-153914833D01*
X171493117Y-153571057D01*
X171372290Y-153450019D01*
X171492192Y-153330327D01*
X171634838Y-152986799D01*
X171635162Y-152614833D01*
X171493117Y-152271057D01*
X171422290Y-152200107D01*
X171492192Y-152130327D01*
X171634838Y-151786799D01*
X171634958Y-151648326D01*
X173430217Y-151648326D01*
X173552838Y-151863000D01*
X175403000Y-151863000D01*
X175403000Y-150601890D01*
X175657000Y-150601890D01*
X175657000Y-151863000D01*
X177507162Y-151863000D01*
X177629783Y-151648326D01*
X177615427Y-151576125D01*
X177355724Y-151098260D01*
X176932919Y-150756154D01*
X176411380Y-150601890D01*
X175657000Y-150601890D01*
X175403000Y-150601890D01*
X174648620Y-150601890D01*
X174127081Y-150756154D01*
X173704276Y-151098260D01*
X173444573Y-151576125D01*
X173430217Y-151648326D01*
X171634958Y-151648326D01*
X171635162Y-151414833D01*
X171504931Y-151099649D01*
X171634838Y-150786799D01*
X171634928Y-150683053D01*
X177373500Y-144083696D01*
X177434204Y-143977524D01*
X177502148Y-143875839D01*
X177507379Y-143849542D01*
X177520687Y-143826266D01*
X177536140Y-143704951D01*
X177560000Y-143585000D01*
X177560000Y-132063440D01*
X177663600Y-132063440D01*
X177898917Y-132019162D01*
X178115041Y-131880090D01*
X178260031Y-131667890D01*
X178311040Y-131416000D01*
X178311040Y-129384000D01*
X178266762Y-129148683D01*
X178225783Y-129085000D01*
X178315000Y-129085000D01*
X178315000Y-169715000D01*
X178315000Y-169715000D01*
G37*
X178315000Y-169715000D02*
X178268490Y-169715000D01*
X178298600Y-169642309D01*
X178298600Y-168785750D01*
X178139850Y-168627000D01*
X176927000Y-168627000D01*
X176927000Y-168647000D01*
X176673000Y-168647000D01*
X176673000Y-168627000D01*
X176653000Y-168627000D01*
X176653000Y-168373000D01*
X176673000Y-168373000D01*
X176673000Y-167007750D01*
X176927000Y-167007750D01*
X176927000Y-168373000D01*
X178139850Y-168373000D01*
X178298600Y-168214250D01*
X178298600Y-167357691D01*
X178201927Y-167124302D01*
X178023299Y-166945673D01*
X177789910Y-166849000D01*
X177085750Y-166849000D01*
X176927000Y-167007750D01*
X176673000Y-167007750D01*
X176514250Y-166849000D01*
X175810090Y-166849000D01*
X175576701Y-166945673D01*
X175398073Y-167124302D01*
X175334500Y-167277780D01*
X175319670Y-167255585D01*
X174833489Y-166930729D01*
X174260000Y-166816655D01*
X173686511Y-166930729D01*
X173200330Y-167255585D01*
X172990000Y-167570366D01*
X172779670Y-167255585D01*
X172293489Y-166930729D01*
X171720000Y-166816655D01*
X171146511Y-166930729D01*
X170660330Y-167255585D01*
X170450000Y-167570366D01*
X170239670Y-167255585D01*
X169940000Y-167055352D01*
X169940000Y-166380000D01*
X169882148Y-166089161D01*
X169882148Y-166089160D01*
X169717401Y-165842599D01*
X167060000Y-163185198D01*
X167060000Y-159471223D01*
X167213201Y-159534838D01*
X167585167Y-159535162D01*
X167928943Y-159393117D01*
X168192192Y-159130327D01*
X168334838Y-158786799D01*
X168335162Y-158414833D01*
X168193117Y-158071057D01*
X167930327Y-157807808D01*
X167660000Y-157695558D01*
X167660000Y-155434802D01*
X169764878Y-157539680D01*
X169764838Y-157585167D01*
X169906883Y-157928943D01*
X170169673Y-158192192D01*
X170513201Y-158334838D01*
X170885167Y-158335162D01*
X171228943Y-158193117D01*
X171492192Y-157930327D01*
X171634838Y-157586799D01*
X171635162Y-157214833D01*
X171493117Y-156871057D01*
X171472290Y-156850194D01*
X171492192Y-156830327D01*
X171634838Y-156486799D01*
X171635162Y-156114833D01*
X171504931Y-155799649D01*
X171634838Y-155486799D01*
X171635162Y-155114833D01*
X171493117Y-154771057D01*
X171422290Y-154700107D01*
X171492192Y-154630327D01*
X171533851Y-154530000D01*
X173345536Y-154530000D01*
X173451200Y-155061207D01*
X173752104Y-155511542D01*
X174183812Y-155800000D01*
X173752104Y-156088458D01*
X173451200Y-156538793D01*
X173345536Y-157070000D01*
X173451200Y-157601207D01*
X173752104Y-158051542D01*
X174183812Y-158340000D01*
X173752104Y-158628458D01*
X173451200Y-159078793D01*
X173345536Y-159610000D01*
X173451200Y-160141207D01*
X173752104Y-160591542D01*
X174202439Y-160892446D01*
X174733646Y-160998110D01*
X176326354Y-160998110D01*
X176857561Y-160892446D01*
X177307896Y-160591542D01*
X177608800Y-160141207D01*
X177714464Y-159610000D01*
X177608800Y-159078793D01*
X177307896Y-158628458D01*
X176876188Y-158340000D01*
X177307896Y-158051542D01*
X177608800Y-157601207D01*
X177714464Y-157070000D01*
X177608800Y-156538793D01*
X177307896Y-156088458D01*
X176876188Y-155800000D01*
X177307896Y-155511542D01*
X177608800Y-155061207D01*
X177714464Y-154530000D01*
X177608800Y-153998793D01*
X177307896Y-153548458D01*
X176857561Y-153247554D01*
X176854694Y-153246984D01*
X176932919Y-153223846D01*
X177355724Y-152881740D01*
X177615427Y-152403875D01*
X177629783Y-152331674D01*
X177507162Y-152117000D01*
X175657000Y-152117000D01*
X175657000Y-152137000D01*
X175403000Y-152137000D01*
X175403000Y-152117000D01*
X173552838Y-152117000D01*
X173430217Y-152331674D01*
X173444573Y-152403875D01*
X173704276Y-152881740D01*
X174127081Y-153223846D01*
X174205306Y-153246984D01*
X174202439Y-153247554D01*
X173752104Y-153548458D01*
X173451200Y-153998793D01*
X173345536Y-154530000D01*
X171533851Y-154530000D01*
X171634838Y-154286799D01*
X171635162Y-153914833D01*
X171493117Y-153571057D01*
X171372290Y-153450019D01*
X171492192Y-153330327D01*
X171634838Y-152986799D01*
X171635162Y-152614833D01*
X171493117Y-152271057D01*
X171422290Y-152200107D01*
X171492192Y-152130327D01*
X171634838Y-151786799D01*
X171634958Y-151648326D01*
X173430217Y-151648326D01*
X173552838Y-151863000D01*
X175403000Y-151863000D01*
X175403000Y-150601890D01*
X175657000Y-150601890D01*
X175657000Y-151863000D01*
X177507162Y-151863000D01*
X177629783Y-151648326D01*
X177615427Y-151576125D01*
X177355724Y-151098260D01*
X176932919Y-150756154D01*
X176411380Y-150601890D01*
X175657000Y-150601890D01*
X175403000Y-150601890D01*
X174648620Y-150601890D01*
X174127081Y-150756154D01*
X173704276Y-151098260D01*
X173444573Y-151576125D01*
X173430217Y-151648326D01*
X171634958Y-151648326D01*
X171635162Y-151414833D01*
X171504931Y-151099649D01*
X171634838Y-150786799D01*
X171634928Y-150683053D01*
X177373500Y-144083696D01*
X177434204Y-143977524D01*
X177502148Y-143875839D01*
X177507379Y-143849542D01*
X177520687Y-143826266D01*
X177536140Y-143704951D01*
X177560000Y-143585000D01*
X177560000Y-132063440D01*
X177663600Y-132063440D01*
X177898917Y-132019162D01*
X178115041Y-131880090D01*
X178260031Y-131667890D01*
X178311040Y-131416000D01*
X178311040Y-129384000D01*
X178266762Y-129148683D01*
X178225783Y-129085000D01*
X178315000Y-129085000D01*
X178315000Y-169715000D01*
G36*
X153140000Y-147914802D02*
X153140000Y-154537711D01*
X153007808Y-154669673D01*
X152865162Y-155013201D01*
X152864838Y-155385167D01*
X153006883Y-155728943D01*
X153269673Y-155992192D01*
X153613201Y-156134838D01*
X153985167Y-156135162D01*
X154200104Y-156046352D01*
X154413201Y-156134838D01*
X154540000Y-156134948D01*
X154540000Y-156900000D01*
X154597852Y-157190839D01*
X154762599Y-157437401D01*
X161664878Y-164339680D01*
X161664838Y-164385167D01*
X161806883Y-164728943D01*
X162069673Y-164992192D01*
X162413201Y-165134838D01*
X162785167Y-165135162D01*
X163128943Y-164993117D01*
X163392192Y-164730327D01*
X163534838Y-164386799D01*
X163535162Y-164014833D01*
X163393117Y-163671057D01*
X163322290Y-163600107D01*
X163392192Y-163530327D01*
X163534838Y-163186799D01*
X163535162Y-162814833D01*
X163526591Y-162794089D01*
X163528943Y-162793117D01*
X163792192Y-162530327D01*
X163934838Y-162186799D01*
X163935162Y-161814833D01*
X163793117Y-161471057D01*
X163530327Y-161207808D01*
X163186799Y-161065162D01*
X163139923Y-161065121D01*
X159135122Y-157060320D01*
X159135162Y-157014833D01*
X158993117Y-156671057D01*
X158730327Y-156407808D01*
X158386799Y-156265162D01*
X158014833Y-156264838D01*
X157671057Y-156406883D01*
X157407808Y-156669673D01*
X157389226Y-156714424D01*
X157144238Y-156469436D01*
X157328943Y-156393117D01*
X157462293Y-156260000D01*
X161085198Y-156260000D01*
X163564878Y-158739680D01*
X163564838Y-158785167D01*
X163706883Y-159128943D01*
X163969673Y-159392192D01*
X164313201Y-159534838D01*
X164540000Y-159535036D01*
X164540000Y-164985198D01*
X163562599Y-165962599D01*
X163397852Y-166209161D01*
X163340000Y-166500000D01*
X163340000Y-167055352D01*
X163040330Y-167255585D01*
X162830000Y-167570366D01*
X162619670Y-167255585D01*
X162133489Y-166930729D01*
X161560000Y-166816655D01*
X160986511Y-166930729D01*
X160500330Y-167255585D01*
X160290000Y-167570366D01*
X160079670Y-167255585D01*
X159593489Y-166930729D01*
X159020000Y-166816655D01*
X158446511Y-166930729D01*
X157960330Y-167255585D01*
X157750000Y-167570366D01*
X157539670Y-167255585D01*
X157053489Y-166930729D01*
X156480000Y-166816655D01*
X155906511Y-166930729D01*
X155420330Y-167255585D01*
X155210000Y-167570366D01*
X154999670Y-167255585D01*
X154513489Y-166930729D01*
X153940000Y-166816655D01*
X153366511Y-166930729D01*
X152880330Y-167255585D01*
X152670000Y-167570366D01*
X152459670Y-167255585D01*
X151973489Y-166930729D01*
X151400000Y-166816655D01*
X150892421Y-166917619D01*
X150160000Y-166185198D01*
X150160000Y-161514802D01*
X151176223Y-160498579D01*
X151269673Y-160592192D01*
X151613201Y-160734838D01*
X151985167Y-160735162D01*
X152106569Y-160685000D01*
X154988726Y-160685000D01*
X155006883Y-160728943D01*
X155269673Y-160992192D01*
X155613201Y-161134838D01*
X155985167Y-161135162D01*
X156328943Y-160993117D01*
X156592192Y-160730327D01*
X156734838Y-160386799D01*
X156735162Y-160014833D01*
X156593117Y-159671057D01*
X156330327Y-159407808D01*
X156209014Y-159357434D01*
X156025790Y-159174210D01*
X155958043Y-159128943D01*
X155738675Y-158982367D01*
X155682484Y-158971190D01*
X155400000Y-158914999D01*
X155399995Y-158915000D01*
X153498556Y-158915000D01*
X153634838Y-158586799D01*
X153635162Y-158214833D01*
X153493117Y-157871057D01*
X153230327Y-157607808D01*
X152886799Y-157465162D01*
X152514833Y-157464838D01*
X152171057Y-157606883D01*
X152150107Y-157627797D01*
X152030327Y-157507808D01*
X151686799Y-157365162D01*
X151314833Y-157364838D01*
X150971057Y-157506883D01*
X150707808Y-157769673D01*
X150565162Y-158113201D01*
X150565121Y-158160077D01*
X148322599Y-160402599D01*
X148157852Y-160649161D01*
X148100000Y-160940000D01*
X148100000Y-167055352D01*
X147800330Y-167255585D01*
X147590000Y-167570366D01*
X147379670Y-167255585D01*
X146893489Y-166930729D01*
X146320000Y-166816655D01*
X145812421Y-166917619D01*
X144757401Y-165862599D01*
X144510839Y-165697852D01*
X144220000Y-165640000D01*
X141314802Y-165640000D01*
X141260000Y-165585198D01*
X141260000Y-158914802D01*
X141937401Y-158237401D01*
X142102148Y-157990840D01*
X142160000Y-157700000D01*
X142160000Y-156114802D01*
X144314802Y-153960000D01*
X144337537Y-153960000D01*
X144369673Y-153992192D01*
X144713201Y-154134838D01*
X145085167Y-154135162D01*
X145428943Y-153993117D01*
X145692192Y-153730327D01*
X145834838Y-153386799D01*
X145835162Y-153014833D01*
X145704931Y-152699649D01*
X145834838Y-152386799D01*
X145835162Y-152014833D01*
X145693117Y-151671057D01*
X145534903Y-151512566D01*
X145535162Y-151214833D01*
X145393117Y-150871057D01*
X145130327Y-150607808D01*
X144786799Y-150465162D01*
X144414833Y-150464838D01*
X144258548Y-150529413D01*
X144193117Y-150371057D01*
X143930327Y-150107808D01*
X143586799Y-149965162D01*
X143214833Y-149964838D01*
X142871057Y-150106883D01*
X142607808Y-150369673D01*
X142465162Y-150713201D01*
X142465121Y-150760077D01*
X138162599Y-155062599D01*
X137997852Y-155309161D01*
X137940000Y-155600000D01*
X137940000Y-167055352D01*
X137640330Y-167255585D01*
X137430000Y-167570366D01*
X137219670Y-167255585D01*
X136733489Y-166930729D01*
X136160000Y-166816655D01*
X135586511Y-166930729D01*
X135100330Y-167255585D01*
X134890000Y-167570366D01*
X134679670Y-167255585D01*
X134193489Y-166930729D01*
X133620000Y-166816655D01*
X133046511Y-166930729D01*
X132560330Y-167255585D01*
X132350000Y-167570366D01*
X132139670Y-167255585D01*
X131653489Y-166930729D01*
X131080000Y-166816655D01*
X130506511Y-166930729D01*
X130020330Y-167255585D01*
X129810000Y-167570366D01*
X129599670Y-167255585D01*
X129113489Y-166930729D01*
X128540000Y-166816655D01*
X127966511Y-166930729D01*
X127480330Y-167255585D01*
X127270000Y-167570366D01*
X127059670Y-167255585D01*
X126573489Y-166930729D01*
X126000000Y-166816655D01*
X125426511Y-166930729D01*
X124940330Y-167255585D01*
X124730000Y-167570366D01*
X124519670Y-167255585D01*
X124033489Y-166930729D01*
X123460000Y-166816655D01*
X122886511Y-166930729D01*
X122400330Y-167255585D01*
X122190000Y-167570366D01*
X121979670Y-167255585D01*
X121680000Y-167055352D01*
X121680000Y-165894802D01*
X127037401Y-160537401D01*
X127202148Y-160290839D01*
X127260000Y-160000000D01*
X127260000Y-158915338D01*
X128614190Y-158915338D01*
X128824686Y-159424777D01*
X129214113Y-159814884D01*
X129723184Y-160026269D01*
X130274398Y-160026750D01*
X130783837Y-159816254D01*
X131173944Y-159426827D01*
X131385329Y-158917756D01*
X131385810Y-158366542D01*
X131175314Y-157857103D01*
X130785887Y-157466996D01*
X130276816Y-157255611D01*
X129725602Y-157255130D01*
X129216163Y-157465626D01*
X128826056Y-157855053D01*
X128614671Y-158364124D01*
X128614190Y-158915338D01*
X127260000Y-158915338D01*
X127260000Y-154033458D01*
X128614190Y-154033458D01*
X128824686Y-154542897D01*
X129214113Y-154933004D01*
X129723184Y-155144389D01*
X130274398Y-155144870D01*
X130783837Y-154934374D01*
X131173944Y-154544947D01*
X131385329Y-154035876D01*
X131385810Y-153484662D01*
X131175314Y-152975223D01*
X130785887Y-152585116D01*
X130276816Y-152373731D01*
X129725602Y-152373250D01*
X129216163Y-152583746D01*
X128826056Y-152973173D01*
X128614671Y-153482244D01*
X128614190Y-154033458D01*
X127260000Y-154033458D01*
X127260000Y-149714802D01*
X127489635Y-149485167D01*
X129364838Y-149485167D01*
X129506883Y-149828943D01*
X129769673Y-150092192D01*
X130113201Y-150234838D01*
X130296556Y-150234998D01*
X133295210Y-152400693D01*
X133306883Y-152428943D01*
X133569673Y-152692192D01*
X133913201Y-152834838D01*
X134285167Y-152835162D01*
X134628943Y-152693117D01*
X134892192Y-152430327D01*
X135034838Y-152086799D01*
X135035162Y-151714833D01*
X134893117Y-151371057D01*
X134630327Y-151107808D01*
X134286799Y-150965162D01*
X133914833Y-150964838D01*
X133907444Y-150967891D01*
X131189859Y-149005190D01*
X131093117Y-148771057D01*
X130830327Y-148507808D01*
X130486799Y-148365162D01*
X130114833Y-148364838D01*
X129771057Y-148506883D01*
X129507808Y-148769673D01*
X129365162Y-149113201D01*
X129364838Y-149485167D01*
X127489635Y-149485167D01*
X128714802Y-148260000D01*
X149237886Y-148260000D01*
X149469673Y-148492192D01*
X149813201Y-148634838D01*
X150185167Y-148635162D01*
X150528943Y-148493117D01*
X150792192Y-148230327D01*
X150831764Y-148135028D01*
X150985167Y-148135162D01*
X151328943Y-147993117D01*
X151592192Y-147730327D01*
X151734838Y-147386799D01*
X151734883Y-147335031D01*
X151885167Y-147335162D01*
X152228943Y-147193117D01*
X152323712Y-147098514D01*
X153140000Y-147914802D01*
X153140000Y-147914802D01*
G37*
X153140000Y-147914802D02*
X153140000Y-154537711D01*
X153007808Y-154669673D01*
X152865162Y-155013201D01*
X152864838Y-155385167D01*
X153006883Y-155728943D01*
X153269673Y-155992192D01*
X153613201Y-156134838D01*
X153985167Y-156135162D01*
X154200104Y-156046352D01*
X154413201Y-156134838D01*
X154540000Y-156134948D01*
X154540000Y-156900000D01*
X154597852Y-157190839D01*
X154762599Y-157437401D01*
X161664878Y-164339680D01*
X161664838Y-164385167D01*
X161806883Y-164728943D01*
X162069673Y-164992192D01*
X162413201Y-165134838D01*
X162785167Y-165135162D01*
X163128943Y-164993117D01*
X163392192Y-164730327D01*
X163534838Y-164386799D01*
X163535162Y-164014833D01*
X163393117Y-163671057D01*
X163322290Y-163600107D01*
X163392192Y-163530327D01*
X163534838Y-163186799D01*
X163535162Y-162814833D01*
X163526591Y-162794089D01*
X163528943Y-162793117D01*
X163792192Y-162530327D01*
X163934838Y-162186799D01*
X163935162Y-161814833D01*
X163793117Y-161471057D01*
X163530327Y-161207808D01*
X163186799Y-161065162D01*
X163139923Y-161065121D01*
X159135122Y-157060320D01*
X159135162Y-157014833D01*
X158993117Y-156671057D01*
X158730327Y-156407808D01*
X158386799Y-156265162D01*
X158014833Y-156264838D01*
X157671057Y-156406883D01*
X157407808Y-156669673D01*
X157389226Y-156714424D01*
X157144238Y-156469436D01*
X157328943Y-156393117D01*
X157462293Y-156260000D01*
X161085198Y-156260000D01*
X163564878Y-158739680D01*
X163564838Y-158785167D01*
X163706883Y-159128943D01*
X163969673Y-159392192D01*
X164313201Y-159534838D01*
X164540000Y-159535036D01*
X164540000Y-164985198D01*
X163562599Y-165962599D01*
X163397852Y-166209161D01*
X163340000Y-166500000D01*
X163340000Y-167055352D01*
X163040330Y-167255585D01*
X162830000Y-167570366D01*
X162619670Y-167255585D01*
X162133489Y-166930729D01*
X161560000Y-166816655D01*
X160986511Y-166930729D01*
X160500330Y-167255585D01*
X160290000Y-167570366D01*
X160079670Y-167255585D01*
X159593489Y-166930729D01*
X159020000Y-166816655D01*
X158446511Y-166930729D01*
X157960330Y-167255585D01*
X157750000Y-167570366D01*
X157539670Y-167255585D01*
X157053489Y-166930729D01*
X156480000Y-166816655D01*
X155906511Y-166930729D01*
X155420330Y-167255585D01*
X155210000Y-167570366D01*
X154999670Y-167255585D01*
X154513489Y-166930729D01*
X153940000Y-166816655D01*
X153366511Y-166930729D01*
X152880330Y-167255585D01*
X152670000Y-167570366D01*
X152459670Y-167255585D01*
X151973489Y-166930729D01*
X151400000Y-166816655D01*
X150892421Y-166917619D01*
X150160000Y-166185198D01*
X150160000Y-161514802D01*
X151176223Y-160498579D01*
X151269673Y-160592192D01*
X151613201Y-160734838D01*
X151985167Y-160735162D01*
X152106569Y-160685000D01*
X154988726Y-160685000D01*
X155006883Y-160728943D01*
X155269673Y-160992192D01*
X155613201Y-161134838D01*
X155985167Y-161135162D01*
X156328943Y-160993117D01*
X156592192Y-160730327D01*
X156734838Y-160386799D01*
X156735162Y-160014833D01*
X156593117Y-159671057D01*
X156330327Y-159407808D01*
X156209014Y-159357434D01*
X156025790Y-159174210D01*
X155958043Y-159128943D01*
X155738675Y-158982367D01*
X155682484Y-158971190D01*
X155400000Y-158914999D01*
X155399995Y-158915000D01*
X153498556Y-158915000D01*
X153634838Y-158586799D01*
X153635162Y-158214833D01*
X153493117Y-157871057D01*
X153230327Y-157607808D01*
X152886799Y-157465162D01*
X152514833Y-157464838D01*
X152171057Y-157606883D01*
X152150107Y-157627797D01*
X152030327Y-157507808D01*
X151686799Y-157365162D01*
X151314833Y-157364838D01*
X150971057Y-157506883D01*
X150707808Y-157769673D01*
X150565162Y-158113201D01*
X150565121Y-158160077D01*
X148322599Y-160402599D01*
X148157852Y-160649161D01*
X148100000Y-160940000D01*
X148100000Y-167055352D01*
X147800330Y-167255585D01*
X147590000Y-167570366D01*
X147379670Y-167255585D01*
X146893489Y-166930729D01*
X146320000Y-166816655D01*
X145812421Y-166917619D01*
X144757401Y-165862599D01*
X144510839Y-165697852D01*
X144220000Y-165640000D01*
X141314802Y-165640000D01*
X141260000Y-165585198D01*
X141260000Y-158914802D01*
X141937401Y-158237401D01*
X142102148Y-157990840D01*
X142160000Y-157700000D01*
X142160000Y-156114802D01*
X144314802Y-153960000D01*
X144337537Y-153960000D01*
X144369673Y-153992192D01*
X144713201Y-154134838D01*
X145085167Y-154135162D01*
X145428943Y-153993117D01*
X145692192Y-153730327D01*
X145834838Y-153386799D01*
X145835162Y-153014833D01*
X145704931Y-152699649D01*
X145834838Y-152386799D01*
X145835162Y-152014833D01*
X145693117Y-151671057D01*
X145534903Y-151512566D01*
X145535162Y-151214833D01*
X145393117Y-150871057D01*
X145130327Y-150607808D01*
X144786799Y-150465162D01*
X144414833Y-150464838D01*
X144258548Y-150529413D01*
X144193117Y-150371057D01*
X143930327Y-150107808D01*
X143586799Y-149965162D01*
X143214833Y-149964838D01*
X142871057Y-150106883D01*
X142607808Y-150369673D01*
X142465162Y-150713201D01*
X142465121Y-150760077D01*
X138162599Y-155062599D01*
X137997852Y-155309161D01*
X137940000Y-155600000D01*
X137940000Y-167055352D01*
X137640330Y-167255585D01*
X137430000Y-167570366D01*
X137219670Y-167255585D01*
X136733489Y-166930729D01*
X136160000Y-166816655D01*
X135586511Y-166930729D01*
X135100330Y-167255585D01*
X134890000Y-167570366D01*
X134679670Y-167255585D01*
X134193489Y-166930729D01*
X133620000Y-166816655D01*
X133046511Y-166930729D01*
X132560330Y-167255585D01*
X132350000Y-167570366D01*
X132139670Y-167255585D01*
X131653489Y-166930729D01*
X131080000Y-166816655D01*
X130506511Y-166930729D01*
X130020330Y-167255585D01*
X129810000Y-167570366D01*
X129599670Y-167255585D01*
X129113489Y-166930729D01*
X128540000Y-166816655D01*
X127966511Y-166930729D01*
X127480330Y-167255585D01*
X127270000Y-167570366D01*
X127059670Y-167255585D01*
X126573489Y-166930729D01*
X126000000Y-166816655D01*
X125426511Y-166930729D01*
X124940330Y-167255585D01*
X124730000Y-167570366D01*
X124519670Y-167255585D01*
X124033489Y-166930729D01*
X123460000Y-166816655D01*
X122886511Y-166930729D01*
X122400330Y-167255585D01*
X122190000Y-167570366D01*
X121979670Y-167255585D01*
X121680000Y-167055352D01*
X121680000Y-165894802D01*
X127037401Y-160537401D01*
X127202148Y-160290839D01*
X127260000Y-160000000D01*
X127260000Y-158915338D01*
X128614190Y-158915338D01*
X128824686Y-159424777D01*
X129214113Y-159814884D01*
X129723184Y-160026269D01*
X130274398Y-160026750D01*
X130783837Y-159816254D01*
X131173944Y-159426827D01*
X131385329Y-158917756D01*
X131385810Y-158366542D01*
X131175314Y-157857103D01*
X130785887Y-157466996D01*
X130276816Y-157255611D01*
X129725602Y-157255130D01*
X129216163Y-157465626D01*
X128826056Y-157855053D01*
X128614671Y-158364124D01*
X128614190Y-158915338D01*
X127260000Y-158915338D01*
X127260000Y-154033458D01*
X128614190Y-154033458D01*
X128824686Y-154542897D01*
X129214113Y-154933004D01*
X129723184Y-155144389D01*
X130274398Y-155144870D01*
X130783837Y-154934374D01*
X131173944Y-154544947D01*
X131385329Y-154035876D01*
X131385810Y-153484662D01*
X131175314Y-152975223D01*
X130785887Y-152585116D01*
X130276816Y-152373731D01*
X129725602Y-152373250D01*
X129216163Y-152583746D01*
X128826056Y-152973173D01*
X128614671Y-153482244D01*
X128614190Y-154033458D01*
X127260000Y-154033458D01*
X127260000Y-149714802D01*
X127489635Y-149485167D01*
X129364838Y-149485167D01*
X129506883Y-149828943D01*
X129769673Y-150092192D01*
X130113201Y-150234838D01*
X130296556Y-150234998D01*
X133295210Y-152400693D01*
X133306883Y-152428943D01*
X133569673Y-152692192D01*
X133913201Y-152834838D01*
X134285167Y-152835162D01*
X134628943Y-152693117D01*
X134892192Y-152430327D01*
X135034838Y-152086799D01*
X135035162Y-151714833D01*
X134893117Y-151371057D01*
X134630327Y-151107808D01*
X134286799Y-150965162D01*
X133914833Y-150964838D01*
X133907444Y-150967891D01*
X131189859Y-149005190D01*
X131093117Y-148771057D01*
X130830327Y-148507808D01*
X130486799Y-148365162D01*
X130114833Y-148364838D01*
X129771057Y-148506883D01*
X129507808Y-148769673D01*
X129365162Y-149113201D01*
X129364838Y-149485167D01*
X127489635Y-149485167D01*
X128714802Y-148260000D01*
X149237886Y-148260000D01*
X149469673Y-148492192D01*
X149813201Y-148634838D01*
X150185167Y-148635162D01*
X150528943Y-148493117D01*
X150792192Y-148230327D01*
X150831764Y-148135028D01*
X150985167Y-148135162D01*
X151328943Y-147993117D01*
X151592192Y-147730327D01*
X151734838Y-147386799D01*
X151734883Y-147335031D01*
X151885167Y-147335162D01*
X152228943Y-147193117D01*
X152323712Y-147098514D01*
X153140000Y-147914802D01*
G36*
X130020330Y-131644415D02*
X130320000Y-131844648D01*
X130320000Y-139605198D01*
X122350463Y-147574735D01*
X122239293Y-147407000D01*
X121127000Y-147407000D01*
X121127000Y-148661720D01*
X121214098Y-148711100D01*
X120260320Y-149664878D01*
X120214833Y-149664838D01*
X119871057Y-149806883D01*
X119607808Y-150069673D01*
X119465162Y-150413201D01*
X119464838Y-150785167D01*
X119606883Y-151128943D01*
X119869673Y-151392192D01*
X120213201Y-151534838D01*
X120260077Y-151534879D01*
X120375000Y-151649802D01*
X120375000Y-152022474D01*
X120062878Y-151912581D01*
X119532560Y-151941336D01*
X119176169Y-152088958D01*
X119114331Y-152324725D01*
X119870000Y-153080395D01*
X119884142Y-153066252D01*
X120063748Y-153245858D01*
X120049605Y-153260000D01*
X120063748Y-153274143D01*
X119884142Y-153453748D01*
X119870000Y-153439605D01*
X119114331Y-154195275D01*
X119176169Y-154431042D01*
X119466822Y-154533376D01*
X119185198Y-154815000D01*
X117925000Y-154815000D01*
X117634160Y-154872852D01*
X117387599Y-155037599D01*
X116562599Y-155862599D01*
X116432906Y-156056699D01*
X115869605Y-156620000D01*
X115883748Y-156634143D01*
X115704143Y-156813748D01*
X115690000Y-156799605D01*
X114935417Y-157554188D01*
X114997071Y-157789800D01*
X115497480Y-157965927D01*
X116027199Y-157937148D01*
X116340000Y-157807582D01*
X116340000Y-159600000D01*
X116397852Y-159890839D01*
X116562599Y-160137401D01*
X117962599Y-161537401D01*
X118209161Y-161702148D01*
X118500000Y-161760000D01*
X119064001Y-161760000D01*
X118960173Y-161863647D01*
X118756732Y-162353587D01*
X118756269Y-162884086D01*
X118958854Y-163374380D01*
X119333647Y-163749827D01*
X119462052Y-163803146D01*
X116347579Y-166917619D01*
X115840000Y-166816655D01*
X115266511Y-166930729D01*
X114780330Y-167255585D01*
X114685000Y-167398256D01*
X114685000Y-163554188D01*
X114935417Y-163554188D01*
X114997071Y-163789800D01*
X115497480Y-163965927D01*
X116027199Y-163937148D01*
X116382929Y-163789800D01*
X116444583Y-163554188D01*
X115690000Y-162799605D01*
X114935417Y-163554188D01*
X114685000Y-163554188D01*
X114685000Y-163356053D01*
X114755812Y-163374583D01*
X115510395Y-162620000D01*
X115869605Y-162620000D01*
X116624188Y-163374583D01*
X116859800Y-163312929D01*
X117035927Y-162812520D01*
X117007148Y-162282801D01*
X116859800Y-161927071D01*
X116624188Y-161865417D01*
X115869605Y-162620000D01*
X115510395Y-162620000D01*
X114755812Y-161865417D01*
X114685000Y-161883947D01*
X114685000Y-161685812D01*
X114935417Y-161685812D01*
X115690000Y-162440395D01*
X116444583Y-161685812D01*
X116382929Y-161450200D01*
X115882520Y-161274073D01*
X115352801Y-161302852D01*
X114997071Y-161450200D01*
X114935417Y-161685812D01*
X114685000Y-161685812D01*
X114685000Y-157356053D01*
X114755812Y-157374583D01*
X115510395Y-156620000D01*
X114755812Y-155865417D01*
X114685000Y-155883947D01*
X114685000Y-155685812D01*
X114935417Y-155685812D01*
X115690000Y-156440395D01*
X116444583Y-155685812D01*
X116382929Y-155450200D01*
X115882520Y-155274073D01*
X115352801Y-155302852D01*
X114997071Y-155450200D01*
X114935417Y-155685812D01*
X114685000Y-155685812D01*
X114685000Y-153887971D01*
X114737582Y-154015229D01*
X115112796Y-154391098D01*
X115603287Y-154594768D01*
X116134383Y-154595231D01*
X116625229Y-154392418D01*
X116870098Y-154147976D01*
X117112796Y-154391098D01*
X117603287Y-154594768D01*
X118134383Y-154595231D01*
X118625229Y-154392418D01*
X119001098Y-154017204D01*
X119049319Y-153901075D01*
X119690395Y-153260000D01*
X119049773Y-152619379D01*
X119002418Y-152504771D01*
X118627204Y-152128902D01*
X118136713Y-151925232D01*
X117605617Y-151924769D01*
X117114771Y-152127582D01*
X116869902Y-152372024D01*
X116627204Y-152128902D01*
X116136713Y-151925232D01*
X115605617Y-151924769D01*
X115114771Y-152127582D01*
X114738902Y-152502796D01*
X114685000Y-152632606D01*
X114685000Y-148078218D01*
X114932172Y-148448136D01*
X115385391Y-148750968D01*
X115920000Y-148857308D01*
X116454609Y-148750968D01*
X116907828Y-148448136D01*
X117190000Y-148025837D01*
X117472172Y-148448136D01*
X117925391Y-148750968D01*
X118460000Y-148857308D01*
X118994609Y-148750968D01*
X119447828Y-148448136D01*
X119746831Y-148000648D01*
X119795955Y-148140865D01*
X120159644Y-148547522D01*
X120651269Y-148784046D01*
X120656930Y-148784220D01*
X120873000Y-148661720D01*
X120873000Y-147407000D01*
X120853000Y-147407000D01*
X120853000Y-147153000D01*
X120873000Y-147153000D01*
X120873000Y-145898280D01*
X121127000Y-145898280D01*
X121127000Y-147153000D01*
X122239293Y-147153000D01*
X122384429Y-146934015D01*
X122204045Y-146419135D01*
X121840356Y-146012478D01*
X121348731Y-145775954D01*
X121343070Y-145775780D01*
X121127000Y-145898280D01*
X120873000Y-145898280D01*
X120656930Y-145775780D01*
X120651269Y-145775954D01*
X120159644Y-146012478D01*
X119795955Y-146419135D01*
X119746831Y-146559352D01*
X119447828Y-146111864D01*
X118994609Y-145809032D01*
X118460000Y-145702692D01*
X117925391Y-145809032D01*
X117472172Y-146111864D01*
X117190000Y-146534163D01*
X116907828Y-146111864D01*
X116454609Y-145809032D01*
X115920000Y-145702692D01*
X115385391Y-145809032D01*
X114932172Y-146111864D01*
X114685000Y-146481782D01*
X114685000Y-142998218D01*
X114932172Y-143368136D01*
X115385391Y-143670968D01*
X115920000Y-143777308D01*
X116454609Y-143670968D01*
X116907828Y-143368136D01*
X117190000Y-142945837D01*
X117472172Y-143368136D01*
X117925391Y-143670968D01*
X118460000Y-143777308D01*
X118994609Y-143670968D01*
X119447828Y-143368136D01*
X119603000Y-143135905D01*
X119603000Y-143238310D01*
X119699673Y-143471699D01*
X119878302Y-143650327D01*
X120111691Y-143747000D01*
X120714250Y-143747000D01*
X120873000Y-143588250D01*
X120873000Y-142327000D01*
X121127000Y-142327000D01*
X121127000Y-143588250D01*
X121285750Y-143747000D01*
X121888309Y-143747000D01*
X122121698Y-143650327D01*
X122300327Y-143471699D01*
X122397000Y-143238310D01*
X122397000Y-142485750D01*
X122238250Y-142327000D01*
X121127000Y-142327000D01*
X120873000Y-142327000D01*
X120853000Y-142327000D01*
X120853000Y-142073000D01*
X120873000Y-142073000D01*
X120873000Y-140811750D01*
X121127000Y-140811750D01*
X121127000Y-142073000D01*
X122238250Y-142073000D01*
X122397000Y-141914250D01*
X122397000Y-141161690D01*
X122300327Y-140928301D01*
X122121698Y-140749673D01*
X121888309Y-140653000D01*
X121285750Y-140653000D01*
X121127000Y-140811750D01*
X120873000Y-140811750D01*
X120714250Y-140653000D01*
X120111691Y-140653000D01*
X119878302Y-140749673D01*
X119699673Y-140928301D01*
X119603000Y-141161690D01*
X119603000Y-141264095D01*
X119447828Y-141031864D01*
X118994609Y-140729032D01*
X118460000Y-140622692D01*
X117925391Y-140729032D01*
X117472172Y-141031864D01*
X117190000Y-141454163D01*
X116907828Y-141031864D01*
X116454609Y-140729032D01*
X115920000Y-140622692D01*
X115385391Y-140729032D01*
X114932172Y-141031864D01*
X114685000Y-141401782D01*
X114685000Y-131501744D01*
X114780330Y-131644415D01*
X115266511Y-131969271D01*
X115840000Y-132083345D01*
X116413489Y-131969271D01*
X116899670Y-131644415D01*
X117110000Y-131329634D01*
X117320330Y-131644415D01*
X117806511Y-131969271D01*
X118380000Y-132083345D01*
X118953489Y-131969271D01*
X119439670Y-131644415D01*
X119650000Y-131329634D01*
X119860330Y-131644415D01*
X120346511Y-131969271D01*
X120920000Y-132083345D01*
X121493489Y-131969271D01*
X121979670Y-131644415D01*
X122190000Y-131329634D01*
X122400330Y-131644415D01*
X122886511Y-131969271D01*
X123460000Y-132083345D01*
X124033489Y-131969271D01*
X124519670Y-131644415D01*
X124730000Y-131329634D01*
X124940330Y-131644415D01*
X125426511Y-131969271D01*
X126000000Y-132083345D01*
X126573489Y-131969271D01*
X127059670Y-131644415D01*
X127270000Y-131329634D01*
X127480330Y-131644415D01*
X127966511Y-131969271D01*
X128540000Y-132083345D01*
X129113489Y-131969271D01*
X129599670Y-131644415D01*
X129810000Y-131329634D01*
X130020330Y-131644415D01*
X130020330Y-131644415D01*
G37*
X130020330Y-131644415D02*
X130320000Y-131844648D01*
X130320000Y-139605198D01*
X122350463Y-147574735D01*
X122239293Y-147407000D01*
X121127000Y-147407000D01*
X121127000Y-148661720D01*
X121214098Y-148711100D01*
X120260320Y-149664878D01*
X120214833Y-149664838D01*
X119871057Y-149806883D01*
X119607808Y-150069673D01*
X119465162Y-150413201D01*
X119464838Y-150785167D01*
X119606883Y-151128943D01*
X119869673Y-151392192D01*
X120213201Y-151534838D01*
X120260077Y-151534879D01*
X120375000Y-151649802D01*
X120375000Y-152022474D01*
X120062878Y-151912581D01*
X119532560Y-151941336D01*
X119176169Y-152088958D01*
X119114331Y-152324725D01*
X119870000Y-153080395D01*
X119884142Y-153066252D01*
X120063748Y-153245858D01*
X120049605Y-153260000D01*
X120063748Y-153274143D01*
X119884142Y-153453748D01*
X119870000Y-153439605D01*
X119114331Y-154195275D01*
X119176169Y-154431042D01*
X119466822Y-154533376D01*
X119185198Y-154815000D01*
X117925000Y-154815000D01*
X117634160Y-154872852D01*
X117387599Y-155037599D01*
X116562599Y-155862599D01*
X116432906Y-156056699D01*
X115869605Y-156620000D01*
X115883748Y-156634143D01*
X115704143Y-156813748D01*
X115690000Y-156799605D01*
X114935417Y-157554188D01*
X114997071Y-157789800D01*
X115497480Y-157965927D01*
X116027199Y-157937148D01*
X116340000Y-157807582D01*
X116340000Y-159600000D01*
X116397852Y-159890839D01*
X116562599Y-160137401D01*
X117962599Y-161537401D01*
X118209161Y-161702148D01*
X118500000Y-161760000D01*
X119064001Y-161760000D01*
X118960173Y-161863647D01*
X118756732Y-162353587D01*
X118756269Y-162884086D01*
X118958854Y-163374380D01*
X119333647Y-163749827D01*
X119462052Y-163803146D01*
X116347579Y-166917619D01*
X115840000Y-166816655D01*
X115266511Y-166930729D01*
X114780330Y-167255585D01*
X114685000Y-167398256D01*
X114685000Y-163554188D01*
X114935417Y-163554188D01*
X114997071Y-163789800D01*
X115497480Y-163965927D01*
X116027199Y-163937148D01*
X116382929Y-163789800D01*
X116444583Y-163554188D01*
X115690000Y-162799605D01*
X114935417Y-163554188D01*
X114685000Y-163554188D01*
X114685000Y-163356053D01*
X114755812Y-163374583D01*
X115510395Y-162620000D01*
X115869605Y-162620000D01*
X116624188Y-163374583D01*
X116859800Y-163312929D01*
X117035927Y-162812520D01*
X117007148Y-162282801D01*
X116859800Y-161927071D01*
X116624188Y-161865417D01*
X115869605Y-162620000D01*
X115510395Y-162620000D01*
X114755812Y-161865417D01*
X114685000Y-161883947D01*
X114685000Y-161685812D01*
X114935417Y-161685812D01*
X115690000Y-162440395D01*
X116444583Y-161685812D01*
X116382929Y-161450200D01*
X115882520Y-161274073D01*
X115352801Y-161302852D01*
X114997071Y-161450200D01*
X114935417Y-161685812D01*
X114685000Y-161685812D01*
X114685000Y-157356053D01*
X114755812Y-157374583D01*
X115510395Y-156620000D01*
X114755812Y-155865417D01*
X114685000Y-155883947D01*
X114685000Y-155685812D01*
X114935417Y-155685812D01*
X115690000Y-156440395D01*
X116444583Y-155685812D01*
X116382929Y-155450200D01*
X115882520Y-155274073D01*
X115352801Y-155302852D01*
X114997071Y-155450200D01*
X114935417Y-155685812D01*
X114685000Y-155685812D01*
X114685000Y-153887971D01*
X114737582Y-154015229D01*
X115112796Y-154391098D01*
X115603287Y-154594768D01*
X116134383Y-154595231D01*
X116625229Y-154392418D01*
X116870098Y-154147976D01*
X117112796Y-154391098D01*
X117603287Y-154594768D01*
X118134383Y-154595231D01*
X118625229Y-154392418D01*
X119001098Y-154017204D01*
X119049319Y-153901075D01*
X119690395Y-153260000D01*
X119049773Y-152619379D01*
X119002418Y-152504771D01*
X118627204Y-152128902D01*
X118136713Y-151925232D01*
X117605617Y-151924769D01*
X117114771Y-152127582D01*
X116869902Y-152372024D01*
X116627204Y-152128902D01*
X116136713Y-151925232D01*
X115605617Y-151924769D01*
X115114771Y-152127582D01*
X114738902Y-152502796D01*
X114685000Y-152632606D01*
X114685000Y-148078218D01*
X114932172Y-148448136D01*
X115385391Y-148750968D01*
X115920000Y-148857308D01*
X116454609Y-148750968D01*
X116907828Y-148448136D01*
X117190000Y-148025837D01*
X117472172Y-148448136D01*
X117925391Y-148750968D01*
X118460000Y-148857308D01*
X118994609Y-148750968D01*
X119447828Y-148448136D01*
X119746831Y-148000648D01*
X119795955Y-148140865D01*
X120159644Y-148547522D01*
X120651269Y-148784046D01*
X120656930Y-148784220D01*
X120873000Y-148661720D01*
X120873000Y-147407000D01*
X120853000Y-147407000D01*
X120853000Y-147153000D01*
X120873000Y-147153000D01*
X120873000Y-145898280D01*
X121127000Y-145898280D01*
X121127000Y-147153000D01*
X122239293Y-147153000D01*
X122384429Y-146934015D01*
X122204045Y-146419135D01*
X121840356Y-146012478D01*
X121348731Y-145775954D01*
X121343070Y-145775780D01*
X121127000Y-145898280D01*
X120873000Y-145898280D01*
X120656930Y-145775780D01*
X120651269Y-145775954D01*
X120159644Y-146012478D01*
X119795955Y-146419135D01*
X119746831Y-146559352D01*
X119447828Y-146111864D01*
X118994609Y-145809032D01*
X118460000Y-145702692D01*
X117925391Y-145809032D01*
X117472172Y-146111864D01*
X117190000Y-146534163D01*
X116907828Y-146111864D01*
X116454609Y-145809032D01*
X115920000Y-145702692D01*
X115385391Y-145809032D01*
X114932172Y-146111864D01*
X114685000Y-146481782D01*
X114685000Y-142998218D01*
X114932172Y-143368136D01*
X115385391Y-143670968D01*
X115920000Y-143777308D01*
X116454609Y-143670968D01*
X116907828Y-143368136D01*
X117190000Y-142945837D01*
X117472172Y-143368136D01*
X117925391Y-143670968D01*
X118460000Y-143777308D01*
X118994609Y-143670968D01*
X119447828Y-143368136D01*
X119603000Y-143135905D01*
X119603000Y-143238310D01*
X119699673Y-143471699D01*
X119878302Y-143650327D01*
X120111691Y-143747000D01*
X120714250Y-143747000D01*
X120873000Y-143588250D01*
X120873000Y-142327000D01*
X121127000Y-142327000D01*
X121127000Y-143588250D01*
X121285750Y-143747000D01*
X121888309Y-143747000D01*
X122121698Y-143650327D01*
X122300327Y-143471699D01*
X122397000Y-143238310D01*
X122397000Y-142485750D01*
X122238250Y-142327000D01*
X121127000Y-142327000D01*
X120873000Y-142327000D01*
X120853000Y-142327000D01*
X120853000Y-142073000D01*
X120873000Y-142073000D01*
X120873000Y-140811750D01*
X121127000Y-140811750D01*
X121127000Y-142073000D01*
X122238250Y-142073000D01*
X122397000Y-141914250D01*
X122397000Y-141161690D01*
X122300327Y-140928301D01*
X122121698Y-140749673D01*
X121888309Y-140653000D01*
X121285750Y-140653000D01*
X121127000Y-140811750D01*
X120873000Y-140811750D01*
X120714250Y-140653000D01*
X120111691Y-140653000D01*
X119878302Y-140749673D01*
X119699673Y-140928301D01*
X119603000Y-141161690D01*
X119603000Y-141264095D01*
X119447828Y-141031864D01*
X118994609Y-140729032D01*
X118460000Y-140622692D01*
X117925391Y-140729032D01*
X117472172Y-141031864D01*
X117190000Y-141454163D01*
X116907828Y-141031864D01*
X116454609Y-140729032D01*
X115920000Y-140622692D01*
X115385391Y-140729032D01*
X114932172Y-141031864D01*
X114685000Y-141401782D01*
X114685000Y-131501744D01*
X114780330Y-131644415D01*
X115266511Y-131969271D01*
X115840000Y-132083345D01*
X116413489Y-131969271D01*
X116899670Y-131644415D01*
X117110000Y-131329634D01*
X117320330Y-131644415D01*
X117806511Y-131969271D01*
X118380000Y-132083345D01*
X118953489Y-131969271D01*
X119439670Y-131644415D01*
X119650000Y-131329634D01*
X119860330Y-131644415D01*
X120346511Y-131969271D01*
X120920000Y-132083345D01*
X121493489Y-131969271D01*
X121979670Y-131644415D01*
X122190000Y-131329634D01*
X122400330Y-131644415D01*
X122886511Y-131969271D01*
X123460000Y-132083345D01*
X124033489Y-131969271D01*
X124519670Y-131644415D01*
X124730000Y-131329634D01*
X124940330Y-131644415D01*
X125426511Y-131969271D01*
X126000000Y-132083345D01*
X126573489Y-131969271D01*
X127059670Y-131644415D01*
X127270000Y-131329634D01*
X127480330Y-131644415D01*
X127966511Y-131969271D01*
X128540000Y-132083345D01*
X129113489Y-131969271D01*
X129599670Y-131644415D01*
X129810000Y-131329634D01*
X130020330Y-131644415D01*
G36*
X132560330Y-131644415D02*
X133046511Y-131969271D01*
X133620000Y-132083345D01*
X134027489Y-132002291D01*
X137462599Y-135437401D01*
X137709161Y-135602148D01*
X138000000Y-135660000D01*
X140885198Y-135660000D01*
X150865198Y-145640000D01*
X142234966Y-145640000D01*
X142235162Y-145414833D01*
X142093117Y-145071057D01*
X142060000Y-145037882D01*
X142060000Y-144260000D01*
X142200000Y-144260000D01*
X142490839Y-144202148D01*
X142737401Y-144037401D01*
X143537401Y-143237401D01*
X143702148Y-142990839D01*
X143760000Y-142700000D01*
X143760000Y-140830000D01*
X143702148Y-140539161D01*
X143537401Y-140292599D01*
X142869830Y-139625028D01*
X142870220Y-139178490D01*
X142677282Y-138711542D01*
X142320337Y-138353974D01*
X141853727Y-138160221D01*
X141348490Y-138159780D01*
X140881542Y-138352718D01*
X140523974Y-138709663D01*
X140330221Y-139176273D01*
X140329780Y-139681510D01*
X140522718Y-140148458D01*
X140879663Y-140506026D01*
X141346273Y-140699779D01*
X141348488Y-140699781D01*
X140881542Y-140892718D01*
X140523974Y-141249663D01*
X140345343Y-141679855D01*
X139462599Y-142562599D01*
X139297852Y-142809161D01*
X139240000Y-143100000D01*
X139240000Y-143588420D01*
X139125790Y-143474210D01*
X139048678Y-143422686D01*
X138838675Y-143282367D01*
X138782484Y-143271190D01*
X138500000Y-143214999D01*
X138499995Y-143215000D01*
X132700005Y-143215000D01*
X132700000Y-143214999D01*
X132417516Y-143271190D01*
X132361325Y-143282367D01*
X132074210Y-143474210D01*
X132074208Y-143474213D01*
X131791165Y-143757256D01*
X131671057Y-143806883D01*
X131407808Y-144069673D01*
X131265162Y-144413201D01*
X131264838Y-144785167D01*
X131406883Y-145128943D01*
X131669673Y-145392192D01*
X132013201Y-145534838D01*
X132385167Y-145535162D01*
X132728943Y-145393117D01*
X132992192Y-145130327D01*
X133042566Y-145009014D01*
X133066580Y-144985000D01*
X138133420Y-144985000D01*
X138357255Y-145208835D01*
X138406883Y-145328943D01*
X138669673Y-145592192D01*
X138784807Y-145640000D01*
X127900000Y-145640000D01*
X127609161Y-145697852D01*
X127362599Y-145862599D01*
X124962599Y-148262599D01*
X124797852Y-148509161D01*
X124740000Y-148800000D01*
X124740000Y-158525198D01*
X122510369Y-160754829D01*
X122393117Y-160471057D01*
X122130327Y-160207808D01*
X121786799Y-160065162D01*
X121414833Y-160064838D01*
X121071057Y-160206883D01*
X121037882Y-160240000D01*
X118814802Y-160240000D01*
X117860000Y-159285198D01*
X117860000Y-156714802D01*
X118239802Y-156335000D01*
X118764450Y-156335000D01*
X118756732Y-156353587D01*
X118756269Y-156884086D01*
X118958854Y-157374380D01*
X119333647Y-157749827D01*
X119823587Y-157953268D01*
X120354086Y-157953731D01*
X120844380Y-157751146D01*
X121219827Y-157376353D01*
X121423268Y-156886413D01*
X121423731Y-156355914D01*
X121221146Y-155865620D01*
X120846353Y-155490173D01*
X120714415Y-155435387D01*
X121672401Y-154477401D01*
X121837148Y-154230840D01*
X121895000Y-153940000D01*
X121895000Y-151335000D01*
X121837148Y-151044161D01*
X121672401Y-150797599D01*
X121474802Y-150600000D01*
X131617401Y-140457401D01*
X131782148Y-140210839D01*
X131840000Y-139920000D01*
X131840000Y-131844648D01*
X132139670Y-131644415D01*
X132350000Y-131329634D01*
X132560330Y-131644415D01*
X132560330Y-131644415D01*
G37*
X132560330Y-131644415D02*
X133046511Y-131969271D01*
X133620000Y-132083345D01*
X134027489Y-132002291D01*
X137462599Y-135437401D01*
X137709161Y-135602148D01*
X138000000Y-135660000D01*
X140885198Y-135660000D01*
X150865198Y-145640000D01*
X142234966Y-145640000D01*
X142235162Y-145414833D01*
X142093117Y-145071057D01*
X142060000Y-145037882D01*
X142060000Y-144260000D01*
X142200000Y-144260000D01*
X142490839Y-144202148D01*
X142737401Y-144037401D01*
X143537401Y-143237401D01*
X143702148Y-142990839D01*
X143760000Y-142700000D01*
X143760000Y-140830000D01*
X143702148Y-140539161D01*
X143537401Y-140292599D01*
X142869830Y-139625028D01*
X142870220Y-139178490D01*
X142677282Y-138711542D01*
X142320337Y-138353974D01*
X141853727Y-138160221D01*
X141348490Y-138159780D01*
X140881542Y-138352718D01*
X140523974Y-138709663D01*
X140330221Y-139176273D01*
X140329780Y-139681510D01*
X140522718Y-140148458D01*
X140879663Y-140506026D01*
X141346273Y-140699779D01*
X141348488Y-140699781D01*
X140881542Y-140892718D01*
X140523974Y-141249663D01*
X140345343Y-141679855D01*
X139462599Y-142562599D01*
X139297852Y-142809161D01*
X139240000Y-143100000D01*
X139240000Y-143588420D01*
X139125790Y-143474210D01*
X139048678Y-143422686D01*
X138838675Y-143282367D01*
X138782484Y-143271190D01*
X138500000Y-143214999D01*
X138499995Y-143215000D01*
X132700005Y-143215000D01*
X132700000Y-143214999D01*
X132417516Y-143271190D01*
X132361325Y-143282367D01*
X132074210Y-143474210D01*
X132074208Y-143474213D01*
X131791165Y-143757256D01*
X131671057Y-143806883D01*
X131407808Y-144069673D01*
X131265162Y-144413201D01*
X131264838Y-144785167D01*
X131406883Y-145128943D01*
X131669673Y-145392192D01*
X132013201Y-145534838D01*
X132385167Y-145535162D01*
X132728943Y-145393117D01*
X132992192Y-145130327D01*
X133042566Y-145009014D01*
X133066580Y-144985000D01*
X138133420Y-144985000D01*
X138357255Y-145208835D01*
X138406883Y-145328943D01*
X138669673Y-145592192D01*
X138784807Y-145640000D01*
X127900000Y-145640000D01*
X127609161Y-145697852D01*
X127362599Y-145862599D01*
X124962599Y-148262599D01*
X124797852Y-148509161D01*
X124740000Y-148800000D01*
X124740000Y-158525198D01*
X122510369Y-160754829D01*
X122393117Y-160471057D01*
X122130327Y-160207808D01*
X121786799Y-160065162D01*
X121414833Y-160064838D01*
X121071057Y-160206883D01*
X121037882Y-160240000D01*
X118814802Y-160240000D01*
X117860000Y-159285198D01*
X117860000Y-156714802D01*
X118239802Y-156335000D01*
X118764450Y-156335000D01*
X118756732Y-156353587D01*
X118756269Y-156884086D01*
X118958854Y-157374380D01*
X119333647Y-157749827D01*
X119823587Y-157953268D01*
X120354086Y-157953731D01*
X120844380Y-157751146D01*
X121219827Y-157376353D01*
X121423268Y-156886413D01*
X121423731Y-156355914D01*
X121221146Y-155865620D01*
X120846353Y-155490173D01*
X120714415Y-155435387D01*
X121672401Y-154477401D01*
X121837148Y-154230840D01*
X121895000Y-153940000D01*
X121895000Y-151335000D01*
X121837148Y-151044161D01*
X121672401Y-150797599D01*
X121474802Y-150600000D01*
X131617401Y-140457401D01*
X131782148Y-140210839D01*
X131840000Y-139920000D01*
X131840000Y-131844648D01*
X132139670Y-131644415D01*
X132350000Y-131329634D01*
X132560330Y-131644415D01*
G36*
X157960330Y-131644415D02*
X158446511Y-131969271D01*
X159020000Y-132083345D01*
X159527579Y-131982381D01*
X161882599Y-134337401D01*
X162129161Y-134502148D01*
X162420000Y-134560000D01*
X162465121Y-134560000D01*
X162464838Y-134885167D01*
X162606883Y-135228943D01*
X162640000Y-135262118D01*
X162640000Y-140437537D01*
X162614536Y-140462956D01*
X162125790Y-139974210D01*
X162115600Y-139967401D01*
X161838675Y-139782367D01*
X161782484Y-139771190D01*
X161500000Y-139714999D01*
X161499995Y-139715000D01*
X158906822Y-139715000D01*
X158786799Y-139665162D01*
X158414833Y-139664838D01*
X158071057Y-139806883D01*
X157807808Y-140069673D01*
X157665162Y-140413201D01*
X157664838Y-140785167D01*
X157687494Y-140840000D01*
X154762463Y-140840000D01*
X154730327Y-140807808D01*
X154386799Y-140665162D01*
X154014833Y-140664838D01*
X153671057Y-140806883D01*
X153407808Y-141069673D01*
X153265162Y-141413201D01*
X153264838Y-141785167D01*
X153406883Y-142128943D01*
X153669673Y-142392192D01*
X153979596Y-142520884D01*
X154106883Y-142828943D01*
X154369673Y-143092192D01*
X154679596Y-143220884D01*
X154806883Y-143528943D01*
X155069673Y-143792192D01*
X155413201Y-143934838D01*
X155785167Y-143935162D01*
X156128943Y-143793117D01*
X156247199Y-143675067D01*
X159076739Y-143751541D01*
X164540000Y-149214802D01*
X164540000Y-149665034D01*
X164439749Y-149664947D01*
X163737401Y-148962599D01*
X163490839Y-148797852D01*
X163200000Y-148740000D01*
X157362463Y-148740000D01*
X157330327Y-148707808D01*
X156986799Y-148565162D01*
X156760000Y-148564964D01*
X156760000Y-147500000D01*
X156734936Y-147373997D01*
X156735162Y-147114833D01*
X156593117Y-146771057D01*
X156330327Y-146507808D01*
X155986799Y-146365162D01*
X155614833Y-146364838D01*
X155271057Y-146506883D01*
X155007808Y-146769673D01*
X154989226Y-146814424D01*
X141837401Y-133662599D01*
X141590839Y-133497852D01*
X141300000Y-133440000D01*
X140014802Y-133440000D01*
X138647755Y-132072953D01*
X138700000Y-132083345D01*
X139273489Y-131969271D01*
X139759670Y-131644415D01*
X139970000Y-131329634D01*
X140180330Y-131644415D01*
X140666511Y-131969271D01*
X141240000Y-132083345D01*
X141813489Y-131969271D01*
X142299670Y-131644415D01*
X142510000Y-131329634D01*
X142720330Y-131644415D01*
X143206511Y-131969271D01*
X143780000Y-132083345D01*
X144353489Y-131969271D01*
X144839670Y-131644415D01*
X145050000Y-131329634D01*
X145260330Y-131644415D01*
X145746511Y-131969271D01*
X146320000Y-132083345D01*
X146893489Y-131969271D01*
X147379670Y-131644415D01*
X147590000Y-131329634D01*
X147800330Y-131644415D01*
X148286511Y-131969271D01*
X148860000Y-132083345D01*
X149433489Y-131969271D01*
X149919670Y-131644415D01*
X150130000Y-131329634D01*
X150340330Y-131644415D01*
X150826511Y-131969271D01*
X151400000Y-132083345D01*
X151973489Y-131969271D01*
X152459670Y-131644415D01*
X152670000Y-131329634D01*
X152880330Y-131644415D01*
X153366511Y-131969271D01*
X153940000Y-132083345D01*
X154513489Y-131969271D01*
X154999670Y-131644415D01*
X155210000Y-131329634D01*
X155420330Y-131644415D01*
X155906511Y-131969271D01*
X156480000Y-132083345D01*
X157053489Y-131969271D01*
X157539670Y-131644415D01*
X157750000Y-131329634D01*
X157960330Y-131644415D01*
X157960330Y-131644415D01*
G37*
X157960330Y-131644415D02*
X158446511Y-131969271D01*
X159020000Y-132083345D01*
X159527579Y-131982381D01*
X161882599Y-134337401D01*
X162129161Y-134502148D01*
X162420000Y-134560000D01*
X162465121Y-134560000D01*
X162464838Y-134885167D01*
X162606883Y-135228943D01*
X162640000Y-135262118D01*
X162640000Y-140437537D01*
X162614536Y-140462956D01*
X162125790Y-139974210D01*
X162115600Y-139967401D01*
X161838675Y-139782367D01*
X161782484Y-139771190D01*
X161500000Y-139714999D01*
X161499995Y-139715000D01*
X158906822Y-139715000D01*
X158786799Y-139665162D01*
X158414833Y-139664838D01*
X158071057Y-139806883D01*
X157807808Y-140069673D01*
X157665162Y-140413201D01*
X157664838Y-140785167D01*
X157687494Y-140840000D01*
X154762463Y-140840000D01*
X154730327Y-140807808D01*
X154386799Y-140665162D01*
X154014833Y-140664838D01*
X153671057Y-140806883D01*
X153407808Y-141069673D01*
X153265162Y-141413201D01*
X153264838Y-141785167D01*
X153406883Y-142128943D01*
X153669673Y-142392192D01*
X153979596Y-142520884D01*
X154106883Y-142828943D01*
X154369673Y-143092192D01*
X154679596Y-143220884D01*
X154806883Y-143528943D01*
X155069673Y-143792192D01*
X155413201Y-143934838D01*
X155785167Y-143935162D01*
X156128943Y-143793117D01*
X156247199Y-143675067D01*
X159076739Y-143751541D01*
X164540000Y-149214802D01*
X164540000Y-149665034D01*
X164439749Y-149664947D01*
X163737401Y-148962599D01*
X163490839Y-148797852D01*
X163200000Y-148740000D01*
X157362463Y-148740000D01*
X157330327Y-148707808D01*
X156986799Y-148565162D01*
X156760000Y-148564964D01*
X156760000Y-147500000D01*
X156734936Y-147373997D01*
X156735162Y-147114833D01*
X156593117Y-146771057D01*
X156330327Y-146507808D01*
X155986799Y-146365162D01*
X155614833Y-146364838D01*
X155271057Y-146506883D01*
X155007808Y-146769673D01*
X154989226Y-146814424D01*
X141837401Y-133662599D01*
X141590839Y-133497852D01*
X141300000Y-133440000D01*
X140014802Y-133440000D01*
X138647755Y-132072953D01*
X138700000Y-132083345D01*
X139273489Y-131969271D01*
X139759670Y-131644415D01*
X139970000Y-131329634D01*
X140180330Y-131644415D01*
X140666511Y-131969271D01*
X141240000Y-132083345D01*
X141813489Y-131969271D01*
X142299670Y-131644415D01*
X142510000Y-131329634D01*
X142720330Y-131644415D01*
X143206511Y-131969271D01*
X143780000Y-132083345D01*
X144353489Y-131969271D01*
X144839670Y-131644415D01*
X145050000Y-131329634D01*
X145260330Y-131644415D01*
X145746511Y-131969271D01*
X146320000Y-132083345D01*
X146893489Y-131969271D01*
X147379670Y-131644415D01*
X147590000Y-131329634D01*
X147800330Y-131644415D01*
X148286511Y-131969271D01*
X148860000Y-132083345D01*
X149433489Y-131969271D01*
X149919670Y-131644415D01*
X150130000Y-131329634D01*
X150340330Y-131644415D01*
X150826511Y-131969271D01*
X151400000Y-132083345D01*
X151973489Y-131969271D01*
X152459670Y-131644415D01*
X152670000Y-131329634D01*
X152880330Y-131644415D01*
X153366511Y-131969271D01*
X153940000Y-132083345D01*
X154513489Y-131969271D01*
X154999670Y-131644415D01*
X155210000Y-131329634D01*
X155420330Y-131644415D01*
X155906511Y-131969271D01*
X156480000Y-132083345D01*
X157053489Y-131969271D01*
X157539670Y-131644415D01*
X157750000Y-131329634D01*
X157960330Y-131644415D01*
G36*
X178315000Y-127715000D02*
X178268490Y-127715000D01*
X178298600Y-127642309D01*
X178298600Y-126785750D01*
X178139850Y-126627000D01*
X176927000Y-126627000D01*
X176927000Y-126647000D01*
X176673000Y-126647000D01*
X176673000Y-126627000D01*
X176653000Y-126627000D01*
X176653000Y-126373000D01*
X176673000Y-126373000D01*
X176673000Y-125007750D01*
X176927000Y-125007750D01*
X176927000Y-126373000D01*
X178139850Y-126373000D01*
X178298600Y-126214250D01*
X178298600Y-125357691D01*
X178201927Y-125124302D01*
X178023299Y-124945673D01*
X177789910Y-124849000D01*
X177085750Y-124849000D01*
X176927000Y-125007750D01*
X176673000Y-125007750D01*
X176514250Y-124849000D01*
X175810090Y-124849000D01*
X175576701Y-124945673D01*
X175398073Y-125124302D01*
X175334500Y-125277780D01*
X175319670Y-125255585D01*
X174833489Y-124930729D01*
X174260000Y-124816655D01*
X173686511Y-124930729D01*
X173200330Y-125255585D01*
X172990000Y-125570366D01*
X172779670Y-125255585D01*
X172293489Y-124930729D01*
X171720000Y-124816655D01*
X171146511Y-124930729D01*
X170660330Y-125255585D01*
X170450000Y-125570366D01*
X170239670Y-125255585D01*
X169940000Y-125055352D01*
X169940000Y-124380000D01*
X169882148Y-124089161D01*
X169882148Y-124089160D01*
X169717401Y-123842599D01*
X167060000Y-121185198D01*
X167060000Y-117471223D01*
X167213201Y-117534838D01*
X167585167Y-117535162D01*
X167928943Y-117393117D01*
X168192192Y-117130327D01*
X168334838Y-116786799D01*
X168335162Y-116414833D01*
X168193117Y-116071057D01*
X167930327Y-115807808D01*
X167660000Y-115695558D01*
X167660000Y-113434802D01*
X169764878Y-115539680D01*
X169764838Y-115585167D01*
X169906883Y-115928943D01*
X170169673Y-116192192D01*
X170513201Y-116334838D01*
X170885167Y-116335162D01*
X171228943Y-116193117D01*
X171492192Y-115930327D01*
X171634838Y-115586799D01*
X171635162Y-115214833D01*
X171493117Y-114871057D01*
X171472290Y-114850194D01*
X171492192Y-114830327D01*
X171634838Y-114486799D01*
X171635162Y-114114833D01*
X171504931Y-113799649D01*
X171634838Y-113486799D01*
X171635162Y-113114833D01*
X171493117Y-112771057D01*
X171422290Y-112700107D01*
X171492192Y-112630327D01*
X171533851Y-112530000D01*
X173345536Y-112530000D01*
X173451200Y-113061207D01*
X173752104Y-113511542D01*
X174183812Y-113800000D01*
X173752104Y-114088458D01*
X173451200Y-114538793D01*
X173345536Y-115070000D01*
X173451200Y-115601207D01*
X173752104Y-116051542D01*
X174183812Y-116340000D01*
X173752104Y-116628458D01*
X173451200Y-117078793D01*
X173345536Y-117610000D01*
X173451200Y-118141207D01*
X173752104Y-118591542D01*
X174202439Y-118892446D01*
X174733646Y-118998110D01*
X176326354Y-118998110D01*
X176857561Y-118892446D01*
X177307896Y-118591542D01*
X177608800Y-118141207D01*
X177714464Y-117610000D01*
X177608800Y-117078793D01*
X177307896Y-116628458D01*
X176876188Y-116340000D01*
X177307896Y-116051542D01*
X177608800Y-115601207D01*
X177714464Y-115070000D01*
X177608800Y-114538793D01*
X177307896Y-114088458D01*
X176876188Y-113800000D01*
X177307896Y-113511542D01*
X177608800Y-113061207D01*
X177714464Y-112530000D01*
X177608800Y-111998793D01*
X177307896Y-111548458D01*
X176857561Y-111247554D01*
X176854694Y-111246984D01*
X176932919Y-111223846D01*
X177355724Y-110881740D01*
X177615427Y-110403875D01*
X177629783Y-110331674D01*
X177507162Y-110117000D01*
X175657000Y-110117000D01*
X175657000Y-110137000D01*
X175403000Y-110137000D01*
X175403000Y-110117000D01*
X173552838Y-110117000D01*
X173430217Y-110331674D01*
X173444573Y-110403875D01*
X173704276Y-110881740D01*
X174127081Y-111223846D01*
X174205306Y-111246984D01*
X174202439Y-111247554D01*
X173752104Y-111548458D01*
X173451200Y-111998793D01*
X173345536Y-112530000D01*
X171533851Y-112530000D01*
X171634838Y-112286799D01*
X171635162Y-111914833D01*
X171493117Y-111571057D01*
X171372290Y-111450019D01*
X171492192Y-111330327D01*
X171634838Y-110986799D01*
X171635162Y-110614833D01*
X171493117Y-110271057D01*
X171422290Y-110200107D01*
X171492192Y-110130327D01*
X171634838Y-109786799D01*
X171634958Y-109648326D01*
X173430217Y-109648326D01*
X173552838Y-109863000D01*
X175403000Y-109863000D01*
X175403000Y-108601890D01*
X175657000Y-108601890D01*
X175657000Y-109863000D01*
X177507162Y-109863000D01*
X177629783Y-109648326D01*
X177615427Y-109576125D01*
X177355724Y-109098260D01*
X176932919Y-108756154D01*
X176411380Y-108601890D01*
X175657000Y-108601890D01*
X175403000Y-108601890D01*
X174648620Y-108601890D01*
X174127081Y-108756154D01*
X173704276Y-109098260D01*
X173444573Y-109576125D01*
X173430217Y-109648326D01*
X171634958Y-109648326D01*
X171635162Y-109414833D01*
X171504931Y-109099649D01*
X171634838Y-108786799D01*
X171634928Y-108683053D01*
X177373500Y-102083696D01*
X177434204Y-101977524D01*
X177502148Y-101875839D01*
X177507379Y-101849542D01*
X177520687Y-101826266D01*
X177536140Y-101704951D01*
X177560000Y-101585000D01*
X177560000Y-90063440D01*
X177663600Y-90063440D01*
X177898917Y-90019162D01*
X178115041Y-89880090D01*
X178260031Y-89667890D01*
X178311040Y-89416000D01*
X178311040Y-87384000D01*
X178266762Y-87148683D01*
X178225783Y-87085000D01*
X178315000Y-87085000D01*
X178315000Y-127715000D01*
X178315000Y-127715000D01*
G37*
X178315000Y-127715000D02*
X178268490Y-127715000D01*
X178298600Y-127642309D01*
X178298600Y-126785750D01*
X178139850Y-126627000D01*
X176927000Y-126627000D01*
X176927000Y-126647000D01*
X176673000Y-126647000D01*
X176673000Y-126627000D01*
X176653000Y-126627000D01*
X176653000Y-126373000D01*
X176673000Y-126373000D01*
X176673000Y-125007750D01*
X176927000Y-125007750D01*
X176927000Y-126373000D01*
X178139850Y-126373000D01*
X178298600Y-126214250D01*
X178298600Y-125357691D01*
X178201927Y-125124302D01*
X178023299Y-124945673D01*
X177789910Y-124849000D01*
X177085750Y-124849000D01*
X176927000Y-125007750D01*
X176673000Y-125007750D01*
X176514250Y-124849000D01*
X175810090Y-124849000D01*
X175576701Y-124945673D01*
X175398073Y-125124302D01*
X175334500Y-125277780D01*
X175319670Y-125255585D01*
X174833489Y-124930729D01*
X174260000Y-124816655D01*
X173686511Y-124930729D01*
X173200330Y-125255585D01*
X172990000Y-125570366D01*
X172779670Y-125255585D01*
X172293489Y-124930729D01*
X171720000Y-124816655D01*
X171146511Y-124930729D01*
X170660330Y-125255585D01*
X170450000Y-125570366D01*
X170239670Y-125255585D01*
X169940000Y-125055352D01*
X169940000Y-124380000D01*
X169882148Y-124089161D01*
X169882148Y-124089160D01*
X169717401Y-123842599D01*
X167060000Y-121185198D01*
X167060000Y-117471223D01*
X167213201Y-117534838D01*
X167585167Y-117535162D01*
X167928943Y-117393117D01*
X168192192Y-117130327D01*
X168334838Y-116786799D01*
X168335162Y-116414833D01*
X168193117Y-116071057D01*
X167930327Y-115807808D01*
X167660000Y-115695558D01*
X167660000Y-113434802D01*
X169764878Y-115539680D01*
X169764838Y-115585167D01*
X169906883Y-115928943D01*
X170169673Y-116192192D01*
X170513201Y-116334838D01*
X170885167Y-116335162D01*
X171228943Y-116193117D01*
X171492192Y-115930327D01*
X171634838Y-115586799D01*
X171635162Y-115214833D01*
X171493117Y-114871057D01*
X171472290Y-114850194D01*
X171492192Y-114830327D01*
X171634838Y-114486799D01*
X171635162Y-114114833D01*
X171504931Y-113799649D01*
X171634838Y-113486799D01*
X171635162Y-113114833D01*
X171493117Y-112771057D01*
X171422290Y-112700107D01*
X171492192Y-112630327D01*
X171533851Y-112530000D01*
X173345536Y-112530000D01*
X173451200Y-113061207D01*
X173752104Y-113511542D01*
X174183812Y-113800000D01*
X173752104Y-114088458D01*
X173451200Y-114538793D01*
X173345536Y-115070000D01*
X173451200Y-115601207D01*
X173752104Y-116051542D01*
X174183812Y-116340000D01*
X173752104Y-116628458D01*
X173451200Y-117078793D01*
X173345536Y-117610000D01*
X173451200Y-118141207D01*
X173752104Y-118591542D01*
X174202439Y-118892446D01*
X174733646Y-118998110D01*
X176326354Y-118998110D01*
X176857561Y-118892446D01*
X177307896Y-118591542D01*
X177608800Y-118141207D01*
X177714464Y-117610000D01*
X177608800Y-117078793D01*
X177307896Y-116628458D01*
X176876188Y-116340000D01*
X177307896Y-116051542D01*
X177608800Y-115601207D01*
X177714464Y-115070000D01*
X177608800Y-114538793D01*
X177307896Y-114088458D01*
X176876188Y-113800000D01*
X177307896Y-113511542D01*
X177608800Y-113061207D01*
X177714464Y-112530000D01*
X177608800Y-111998793D01*
X177307896Y-111548458D01*
X176857561Y-111247554D01*
X176854694Y-111246984D01*
X176932919Y-111223846D01*
X177355724Y-110881740D01*
X177615427Y-110403875D01*
X177629783Y-110331674D01*
X177507162Y-110117000D01*
X175657000Y-110117000D01*
X175657000Y-110137000D01*
X175403000Y-110137000D01*
X175403000Y-110117000D01*
X173552838Y-110117000D01*
X173430217Y-110331674D01*
X173444573Y-110403875D01*
X173704276Y-110881740D01*
X174127081Y-111223846D01*
X174205306Y-111246984D01*
X174202439Y-111247554D01*
X173752104Y-111548458D01*
X173451200Y-111998793D01*
X173345536Y-112530000D01*
X171533851Y-112530000D01*
X171634838Y-112286799D01*
X171635162Y-111914833D01*
X171493117Y-111571057D01*
X171372290Y-111450019D01*
X171492192Y-111330327D01*
X171634838Y-110986799D01*
X171635162Y-110614833D01*
X171493117Y-110271057D01*
X171422290Y-110200107D01*
X171492192Y-110130327D01*
X171634838Y-109786799D01*
X171634958Y-109648326D01*
X173430217Y-109648326D01*
X173552838Y-109863000D01*
X175403000Y-109863000D01*
X175403000Y-108601890D01*
X175657000Y-108601890D01*
X175657000Y-109863000D01*
X177507162Y-109863000D01*
X177629783Y-109648326D01*
X177615427Y-109576125D01*
X177355724Y-109098260D01*
X176932919Y-108756154D01*
X176411380Y-108601890D01*
X175657000Y-108601890D01*
X175403000Y-108601890D01*
X174648620Y-108601890D01*
X174127081Y-108756154D01*
X173704276Y-109098260D01*
X173444573Y-109576125D01*
X173430217Y-109648326D01*
X171634958Y-109648326D01*
X171635162Y-109414833D01*
X171504931Y-109099649D01*
X171634838Y-108786799D01*
X171634928Y-108683053D01*
X177373500Y-102083696D01*
X177434204Y-101977524D01*
X177502148Y-101875839D01*
X177507379Y-101849542D01*
X177520687Y-101826266D01*
X177536140Y-101704951D01*
X177560000Y-101585000D01*
X177560000Y-90063440D01*
X177663600Y-90063440D01*
X177898917Y-90019162D01*
X178115041Y-89880090D01*
X178260031Y-89667890D01*
X178311040Y-89416000D01*
X178311040Y-87384000D01*
X178266762Y-87148683D01*
X178225783Y-87085000D01*
X178315000Y-87085000D01*
X178315000Y-127715000D01*
G36*
X153140000Y-105914802D02*
X153140000Y-112537711D01*
X153007808Y-112669673D01*
X152865162Y-113013201D01*
X152864838Y-113385167D01*
X153006883Y-113728943D01*
X153269673Y-113992192D01*
X153613201Y-114134838D01*
X153985167Y-114135162D01*
X154200104Y-114046352D01*
X154413201Y-114134838D01*
X154540000Y-114134948D01*
X154540000Y-114900000D01*
X154597852Y-115190839D01*
X154762599Y-115437401D01*
X161664878Y-122339680D01*
X161664838Y-122385167D01*
X161806883Y-122728943D01*
X162069673Y-122992192D01*
X162413201Y-123134838D01*
X162785167Y-123135162D01*
X163128943Y-122993117D01*
X163392192Y-122730327D01*
X163534838Y-122386799D01*
X163535162Y-122014833D01*
X163393117Y-121671057D01*
X163322290Y-121600107D01*
X163392192Y-121530327D01*
X163534838Y-121186799D01*
X163535162Y-120814833D01*
X163526591Y-120794089D01*
X163528943Y-120793117D01*
X163792192Y-120530327D01*
X163934838Y-120186799D01*
X163935162Y-119814833D01*
X163793117Y-119471057D01*
X163530327Y-119207808D01*
X163186799Y-119065162D01*
X163139923Y-119065121D01*
X159135122Y-115060320D01*
X159135162Y-115014833D01*
X158993117Y-114671057D01*
X158730327Y-114407808D01*
X158386799Y-114265162D01*
X158014833Y-114264838D01*
X157671057Y-114406883D01*
X157407808Y-114669673D01*
X157389226Y-114714424D01*
X157144238Y-114469436D01*
X157328943Y-114393117D01*
X157462293Y-114260000D01*
X161085198Y-114260000D01*
X163564878Y-116739680D01*
X163564838Y-116785167D01*
X163706883Y-117128943D01*
X163969673Y-117392192D01*
X164313201Y-117534838D01*
X164540000Y-117535036D01*
X164540000Y-122985198D01*
X163562599Y-123962599D01*
X163397852Y-124209161D01*
X163340000Y-124500000D01*
X163340000Y-125055352D01*
X163040330Y-125255585D01*
X162830000Y-125570366D01*
X162619670Y-125255585D01*
X162133489Y-124930729D01*
X161560000Y-124816655D01*
X160986511Y-124930729D01*
X160500330Y-125255585D01*
X160290000Y-125570366D01*
X160079670Y-125255585D01*
X159593489Y-124930729D01*
X159020000Y-124816655D01*
X158446511Y-124930729D01*
X157960330Y-125255585D01*
X157750000Y-125570366D01*
X157539670Y-125255585D01*
X157053489Y-124930729D01*
X156480000Y-124816655D01*
X155906511Y-124930729D01*
X155420330Y-125255585D01*
X155210000Y-125570366D01*
X154999670Y-125255585D01*
X154513489Y-124930729D01*
X153940000Y-124816655D01*
X153366511Y-124930729D01*
X152880330Y-125255585D01*
X152670000Y-125570366D01*
X152459670Y-125255585D01*
X151973489Y-124930729D01*
X151400000Y-124816655D01*
X150892421Y-124917619D01*
X150160000Y-124185198D01*
X150160000Y-119514802D01*
X151176223Y-118498579D01*
X151269673Y-118592192D01*
X151613201Y-118734838D01*
X151985167Y-118735162D01*
X152106569Y-118685000D01*
X154988726Y-118685000D01*
X155006883Y-118728943D01*
X155269673Y-118992192D01*
X155613201Y-119134838D01*
X155985167Y-119135162D01*
X156328943Y-118993117D01*
X156592192Y-118730327D01*
X156734838Y-118386799D01*
X156735162Y-118014833D01*
X156593117Y-117671057D01*
X156330327Y-117407808D01*
X156209014Y-117357434D01*
X156025790Y-117174210D01*
X155958043Y-117128943D01*
X155738675Y-116982367D01*
X155682484Y-116971190D01*
X155400000Y-116914999D01*
X155399995Y-116915000D01*
X153498556Y-116915000D01*
X153634838Y-116586799D01*
X153635162Y-116214833D01*
X153493117Y-115871057D01*
X153230327Y-115607808D01*
X152886799Y-115465162D01*
X152514833Y-115464838D01*
X152171057Y-115606883D01*
X152150107Y-115627797D01*
X152030327Y-115507808D01*
X151686799Y-115365162D01*
X151314833Y-115364838D01*
X150971057Y-115506883D01*
X150707808Y-115769673D01*
X150565162Y-116113201D01*
X150565121Y-116160077D01*
X148322599Y-118402599D01*
X148157852Y-118649161D01*
X148100000Y-118940000D01*
X148100000Y-125055352D01*
X147800330Y-125255585D01*
X147590000Y-125570366D01*
X147379670Y-125255585D01*
X146893489Y-124930729D01*
X146320000Y-124816655D01*
X145812421Y-124917619D01*
X144757401Y-123862599D01*
X144510839Y-123697852D01*
X144220000Y-123640000D01*
X141314802Y-123640000D01*
X141260000Y-123585198D01*
X141260000Y-116914802D01*
X141937401Y-116237401D01*
X142102148Y-115990840D01*
X142160000Y-115700000D01*
X142160000Y-114114802D01*
X144314802Y-111960000D01*
X144337537Y-111960000D01*
X144369673Y-111992192D01*
X144713201Y-112134838D01*
X145085167Y-112135162D01*
X145428943Y-111993117D01*
X145692192Y-111730327D01*
X145834838Y-111386799D01*
X145835162Y-111014833D01*
X145704931Y-110699649D01*
X145834838Y-110386799D01*
X145835162Y-110014833D01*
X145693117Y-109671057D01*
X145534903Y-109512566D01*
X145535162Y-109214833D01*
X145393117Y-108871057D01*
X145130327Y-108607808D01*
X144786799Y-108465162D01*
X144414833Y-108464838D01*
X144258548Y-108529413D01*
X144193117Y-108371057D01*
X143930327Y-108107808D01*
X143586799Y-107965162D01*
X143214833Y-107964838D01*
X142871057Y-108106883D01*
X142607808Y-108369673D01*
X142465162Y-108713201D01*
X142465121Y-108760077D01*
X138162599Y-113062599D01*
X137997852Y-113309161D01*
X137940000Y-113600000D01*
X137940000Y-125055352D01*
X137640330Y-125255585D01*
X137430000Y-125570366D01*
X137219670Y-125255585D01*
X136733489Y-124930729D01*
X136160000Y-124816655D01*
X135586511Y-124930729D01*
X135100330Y-125255585D01*
X134890000Y-125570366D01*
X134679670Y-125255585D01*
X134193489Y-124930729D01*
X133620000Y-124816655D01*
X133046511Y-124930729D01*
X132560330Y-125255585D01*
X132350000Y-125570366D01*
X132139670Y-125255585D01*
X131653489Y-124930729D01*
X131080000Y-124816655D01*
X130506511Y-124930729D01*
X130020330Y-125255585D01*
X129810000Y-125570366D01*
X129599670Y-125255585D01*
X129113489Y-124930729D01*
X128540000Y-124816655D01*
X127966511Y-124930729D01*
X127480330Y-125255585D01*
X127270000Y-125570366D01*
X127059670Y-125255585D01*
X126573489Y-124930729D01*
X126000000Y-124816655D01*
X125426511Y-124930729D01*
X124940330Y-125255585D01*
X124730000Y-125570366D01*
X124519670Y-125255585D01*
X124033489Y-124930729D01*
X123460000Y-124816655D01*
X122886511Y-124930729D01*
X122400330Y-125255585D01*
X122190000Y-125570366D01*
X121979670Y-125255585D01*
X121680000Y-125055352D01*
X121680000Y-123894802D01*
X127037401Y-118537401D01*
X127202148Y-118290839D01*
X127260000Y-118000000D01*
X127260000Y-116915338D01*
X128614190Y-116915338D01*
X128824686Y-117424777D01*
X129214113Y-117814884D01*
X129723184Y-118026269D01*
X130274398Y-118026750D01*
X130783837Y-117816254D01*
X131173944Y-117426827D01*
X131385329Y-116917756D01*
X131385810Y-116366542D01*
X131175314Y-115857103D01*
X130785887Y-115466996D01*
X130276816Y-115255611D01*
X129725602Y-115255130D01*
X129216163Y-115465626D01*
X128826056Y-115855053D01*
X128614671Y-116364124D01*
X128614190Y-116915338D01*
X127260000Y-116915338D01*
X127260000Y-112033458D01*
X128614190Y-112033458D01*
X128824686Y-112542897D01*
X129214113Y-112933004D01*
X129723184Y-113144389D01*
X130274398Y-113144870D01*
X130783837Y-112934374D01*
X131173944Y-112544947D01*
X131385329Y-112035876D01*
X131385810Y-111484662D01*
X131175314Y-110975223D01*
X130785887Y-110585116D01*
X130276816Y-110373731D01*
X129725602Y-110373250D01*
X129216163Y-110583746D01*
X128826056Y-110973173D01*
X128614671Y-111482244D01*
X128614190Y-112033458D01*
X127260000Y-112033458D01*
X127260000Y-107714802D01*
X127489635Y-107485167D01*
X129364838Y-107485167D01*
X129506883Y-107828943D01*
X129769673Y-108092192D01*
X130113201Y-108234838D01*
X130296556Y-108234998D01*
X133295210Y-110400693D01*
X133306883Y-110428943D01*
X133569673Y-110692192D01*
X133913201Y-110834838D01*
X134285167Y-110835162D01*
X134628943Y-110693117D01*
X134892192Y-110430327D01*
X135034838Y-110086799D01*
X135035162Y-109714833D01*
X134893117Y-109371057D01*
X134630327Y-109107808D01*
X134286799Y-108965162D01*
X133914833Y-108964838D01*
X133907444Y-108967891D01*
X131189859Y-107005190D01*
X131093117Y-106771057D01*
X130830327Y-106507808D01*
X130486799Y-106365162D01*
X130114833Y-106364838D01*
X129771057Y-106506883D01*
X129507808Y-106769673D01*
X129365162Y-107113201D01*
X129364838Y-107485167D01*
X127489635Y-107485167D01*
X128714802Y-106260000D01*
X149237886Y-106260000D01*
X149469673Y-106492192D01*
X149813201Y-106634838D01*
X150185167Y-106635162D01*
X150528943Y-106493117D01*
X150792192Y-106230327D01*
X150831764Y-106135028D01*
X150985167Y-106135162D01*
X151328943Y-105993117D01*
X151592192Y-105730327D01*
X151734838Y-105386799D01*
X151734883Y-105335031D01*
X151885167Y-105335162D01*
X152228943Y-105193117D01*
X152323712Y-105098514D01*
X153140000Y-105914802D01*
X153140000Y-105914802D01*
G37*
X153140000Y-105914802D02*
X153140000Y-112537711D01*
X153007808Y-112669673D01*
X152865162Y-113013201D01*
X152864838Y-113385167D01*
X153006883Y-113728943D01*
X153269673Y-113992192D01*
X153613201Y-114134838D01*
X153985167Y-114135162D01*
X154200104Y-114046352D01*
X154413201Y-114134838D01*
X154540000Y-114134948D01*
X154540000Y-114900000D01*
X154597852Y-115190839D01*
X154762599Y-115437401D01*
X161664878Y-122339680D01*
X161664838Y-122385167D01*
X161806883Y-122728943D01*
X162069673Y-122992192D01*
X162413201Y-123134838D01*
X162785167Y-123135162D01*
X163128943Y-122993117D01*
X163392192Y-122730327D01*
X163534838Y-122386799D01*
X163535162Y-122014833D01*
X163393117Y-121671057D01*
X163322290Y-121600107D01*
X163392192Y-121530327D01*
X163534838Y-121186799D01*
X163535162Y-120814833D01*
X163526591Y-120794089D01*
X163528943Y-120793117D01*
X163792192Y-120530327D01*
X163934838Y-120186799D01*
X163935162Y-119814833D01*
X163793117Y-119471057D01*
X163530327Y-119207808D01*
X163186799Y-119065162D01*
X163139923Y-119065121D01*
X159135122Y-115060320D01*
X159135162Y-115014833D01*
X158993117Y-114671057D01*
X158730327Y-114407808D01*
X158386799Y-114265162D01*
X158014833Y-114264838D01*
X157671057Y-114406883D01*
X157407808Y-114669673D01*
X157389226Y-114714424D01*
X157144238Y-114469436D01*
X157328943Y-114393117D01*
X157462293Y-114260000D01*
X161085198Y-114260000D01*
X163564878Y-116739680D01*
X163564838Y-116785167D01*
X163706883Y-117128943D01*
X163969673Y-117392192D01*
X164313201Y-117534838D01*
X164540000Y-117535036D01*
X164540000Y-122985198D01*
X163562599Y-123962599D01*
X163397852Y-124209161D01*
X163340000Y-124500000D01*
X163340000Y-125055352D01*
X163040330Y-125255585D01*
X162830000Y-125570366D01*
X162619670Y-125255585D01*
X162133489Y-124930729D01*
X161560000Y-124816655D01*
X160986511Y-124930729D01*
X160500330Y-125255585D01*
X160290000Y-125570366D01*
X160079670Y-125255585D01*
X159593489Y-124930729D01*
X159020000Y-124816655D01*
X158446511Y-124930729D01*
X157960330Y-125255585D01*
X157750000Y-125570366D01*
X157539670Y-125255585D01*
X157053489Y-124930729D01*
X156480000Y-124816655D01*
X155906511Y-124930729D01*
X155420330Y-125255585D01*
X155210000Y-125570366D01*
X154999670Y-125255585D01*
X154513489Y-124930729D01*
X153940000Y-124816655D01*
X153366511Y-124930729D01*
X152880330Y-125255585D01*
X152670000Y-125570366D01*
X152459670Y-125255585D01*
X151973489Y-124930729D01*
X151400000Y-124816655D01*
X150892421Y-124917619D01*
X150160000Y-124185198D01*
X150160000Y-119514802D01*
X151176223Y-118498579D01*
X151269673Y-118592192D01*
X151613201Y-118734838D01*
X151985167Y-118735162D01*
X152106569Y-118685000D01*
X154988726Y-118685000D01*
X155006883Y-118728943D01*
X155269673Y-118992192D01*
X155613201Y-119134838D01*
X155985167Y-119135162D01*
X156328943Y-118993117D01*
X156592192Y-118730327D01*
X156734838Y-118386799D01*
X156735162Y-118014833D01*
X156593117Y-117671057D01*
X156330327Y-117407808D01*
X156209014Y-117357434D01*
X156025790Y-117174210D01*
X155958043Y-117128943D01*
X155738675Y-116982367D01*
X155682484Y-116971190D01*
X155400000Y-116914999D01*
X155399995Y-116915000D01*
X153498556Y-116915000D01*
X153634838Y-116586799D01*
X153635162Y-116214833D01*
X153493117Y-115871057D01*
X153230327Y-115607808D01*
X152886799Y-115465162D01*
X152514833Y-115464838D01*
X152171057Y-115606883D01*
X152150107Y-115627797D01*
X152030327Y-115507808D01*
X151686799Y-115365162D01*
X151314833Y-115364838D01*
X150971057Y-115506883D01*
X150707808Y-115769673D01*
X150565162Y-116113201D01*
X150565121Y-116160077D01*
X148322599Y-118402599D01*
X148157852Y-118649161D01*
X148100000Y-118940000D01*
X148100000Y-125055352D01*
X147800330Y-125255585D01*
X147590000Y-125570366D01*
X147379670Y-125255585D01*
X146893489Y-124930729D01*
X146320000Y-124816655D01*
X145812421Y-124917619D01*
X144757401Y-123862599D01*
X144510839Y-123697852D01*
X144220000Y-123640000D01*
X141314802Y-123640000D01*
X141260000Y-123585198D01*
X141260000Y-116914802D01*
X141937401Y-116237401D01*
X142102148Y-115990840D01*
X142160000Y-115700000D01*
X142160000Y-114114802D01*
X144314802Y-111960000D01*
X144337537Y-111960000D01*
X144369673Y-111992192D01*
X144713201Y-112134838D01*
X145085167Y-112135162D01*
X145428943Y-111993117D01*
X145692192Y-111730327D01*
X145834838Y-111386799D01*
X145835162Y-111014833D01*
X145704931Y-110699649D01*
X145834838Y-110386799D01*
X145835162Y-110014833D01*
X145693117Y-109671057D01*
X145534903Y-109512566D01*
X145535162Y-109214833D01*
X145393117Y-108871057D01*
X145130327Y-108607808D01*
X144786799Y-108465162D01*
X144414833Y-108464838D01*
X144258548Y-108529413D01*
X144193117Y-108371057D01*
X143930327Y-108107808D01*
X143586799Y-107965162D01*
X143214833Y-107964838D01*
X142871057Y-108106883D01*
X142607808Y-108369673D01*
X142465162Y-108713201D01*
X142465121Y-108760077D01*
X138162599Y-113062599D01*
X137997852Y-113309161D01*
X137940000Y-113600000D01*
X137940000Y-125055352D01*
X137640330Y-125255585D01*
X137430000Y-125570366D01*
X137219670Y-125255585D01*
X136733489Y-124930729D01*
X136160000Y-124816655D01*
X135586511Y-124930729D01*
X135100330Y-125255585D01*
X134890000Y-125570366D01*
X134679670Y-125255585D01*
X134193489Y-124930729D01*
X133620000Y-124816655D01*
X133046511Y-124930729D01*
X132560330Y-125255585D01*
X132350000Y-125570366D01*
X132139670Y-125255585D01*
X131653489Y-124930729D01*
X131080000Y-124816655D01*
X130506511Y-124930729D01*
X130020330Y-125255585D01*
X129810000Y-125570366D01*
X129599670Y-125255585D01*
X129113489Y-124930729D01*
X128540000Y-124816655D01*
X127966511Y-124930729D01*
X127480330Y-125255585D01*
X127270000Y-125570366D01*
X127059670Y-125255585D01*
X126573489Y-124930729D01*
X126000000Y-124816655D01*
X125426511Y-124930729D01*
X124940330Y-125255585D01*
X124730000Y-125570366D01*
X124519670Y-125255585D01*
X124033489Y-124930729D01*
X123460000Y-124816655D01*
X122886511Y-124930729D01*
X122400330Y-125255585D01*
X122190000Y-125570366D01*
X121979670Y-125255585D01*
X121680000Y-125055352D01*
X121680000Y-123894802D01*
X127037401Y-118537401D01*
X127202148Y-118290839D01*
X127260000Y-118000000D01*
X127260000Y-116915338D01*
X128614190Y-116915338D01*
X128824686Y-117424777D01*
X129214113Y-117814884D01*
X129723184Y-118026269D01*
X130274398Y-118026750D01*
X130783837Y-117816254D01*
X131173944Y-117426827D01*
X131385329Y-116917756D01*
X131385810Y-116366542D01*
X131175314Y-115857103D01*
X130785887Y-115466996D01*
X130276816Y-115255611D01*
X129725602Y-115255130D01*
X129216163Y-115465626D01*
X128826056Y-115855053D01*
X128614671Y-116364124D01*
X128614190Y-116915338D01*
X127260000Y-116915338D01*
X127260000Y-112033458D01*
X128614190Y-112033458D01*
X128824686Y-112542897D01*
X129214113Y-112933004D01*
X129723184Y-113144389D01*
X130274398Y-113144870D01*
X130783837Y-112934374D01*
X131173944Y-112544947D01*
X131385329Y-112035876D01*
X131385810Y-111484662D01*
X131175314Y-110975223D01*
X130785887Y-110585116D01*
X130276816Y-110373731D01*
X129725602Y-110373250D01*
X129216163Y-110583746D01*
X128826056Y-110973173D01*
X128614671Y-111482244D01*
X128614190Y-112033458D01*
X127260000Y-112033458D01*
X127260000Y-107714802D01*
X127489635Y-107485167D01*
X129364838Y-107485167D01*
X129506883Y-107828943D01*
X129769673Y-108092192D01*
X130113201Y-108234838D01*
X130296556Y-108234998D01*
X133295210Y-110400693D01*
X133306883Y-110428943D01*
X133569673Y-110692192D01*
X133913201Y-110834838D01*
X134285167Y-110835162D01*
X134628943Y-110693117D01*
X134892192Y-110430327D01*
X135034838Y-110086799D01*
X135035162Y-109714833D01*
X134893117Y-109371057D01*
X134630327Y-109107808D01*
X134286799Y-108965162D01*
X133914833Y-108964838D01*
X133907444Y-108967891D01*
X131189859Y-107005190D01*
X131093117Y-106771057D01*
X130830327Y-106507808D01*
X130486799Y-106365162D01*
X130114833Y-106364838D01*
X129771057Y-106506883D01*
X129507808Y-106769673D01*
X129365162Y-107113201D01*
X129364838Y-107485167D01*
X127489635Y-107485167D01*
X128714802Y-106260000D01*
X149237886Y-106260000D01*
X149469673Y-106492192D01*
X149813201Y-106634838D01*
X150185167Y-106635162D01*
X150528943Y-106493117D01*
X150792192Y-106230327D01*
X150831764Y-106135028D01*
X150985167Y-106135162D01*
X151328943Y-105993117D01*
X151592192Y-105730327D01*
X151734838Y-105386799D01*
X151734883Y-105335031D01*
X151885167Y-105335162D01*
X152228943Y-105193117D01*
X152323712Y-105098514D01*
X153140000Y-105914802D01*
G36*
X130020330Y-89644415D02*
X130320000Y-89844648D01*
X130320000Y-97605198D01*
X122350463Y-105574735D01*
X122239293Y-105407000D01*
X121127000Y-105407000D01*
X121127000Y-106661720D01*
X121214098Y-106711100D01*
X120260320Y-107664878D01*
X120214833Y-107664838D01*
X119871057Y-107806883D01*
X119607808Y-108069673D01*
X119465162Y-108413201D01*
X119464838Y-108785167D01*
X119606883Y-109128943D01*
X119869673Y-109392192D01*
X120213201Y-109534838D01*
X120260077Y-109534879D01*
X120375000Y-109649802D01*
X120375000Y-110022474D01*
X120062878Y-109912581D01*
X119532560Y-109941336D01*
X119176169Y-110088958D01*
X119114331Y-110324725D01*
X119870000Y-111080395D01*
X119884142Y-111066252D01*
X120063748Y-111245858D01*
X120049605Y-111260000D01*
X120063748Y-111274143D01*
X119884142Y-111453748D01*
X119870000Y-111439605D01*
X119114331Y-112195275D01*
X119176169Y-112431042D01*
X119466822Y-112533376D01*
X119185198Y-112815000D01*
X117925000Y-112815000D01*
X117634160Y-112872852D01*
X117387599Y-113037599D01*
X116562599Y-113862599D01*
X116432906Y-114056699D01*
X115869605Y-114620000D01*
X115883748Y-114634143D01*
X115704143Y-114813748D01*
X115690000Y-114799605D01*
X114935417Y-115554188D01*
X114997071Y-115789800D01*
X115497480Y-115965927D01*
X116027199Y-115937148D01*
X116340000Y-115807582D01*
X116340000Y-117600000D01*
X116397852Y-117890839D01*
X116562599Y-118137401D01*
X117962599Y-119537401D01*
X118209161Y-119702148D01*
X118500000Y-119760000D01*
X119064001Y-119760000D01*
X118960173Y-119863647D01*
X118756732Y-120353587D01*
X118756269Y-120884086D01*
X118958854Y-121374380D01*
X119333647Y-121749827D01*
X119462052Y-121803146D01*
X116347579Y-124917619D01*
X115840000Y-124816655D01*
X115266511Y-124930729D01*
X114780330Y-125255585D01*
X114685000Y-125398256D01*
X114685000Y-121554188D01*
X114935417Y-121554188D01*
X114997071Y-121789800D01*
X115497480Y-121965927D01*
X116027199Y-121937148D01*
X116382929Y-121789800D01*
X116444583Y-121554188D01*
X115690000Y-120799605D01*
X114935417Y-121554188D01*
X114685000Y-121554188D01*
X114685000Y-121356053D01*
X114755812Y-121374583D01*
X115510395Y-120620000D01*
X115869605Y-120620000D01*
X116624188Y-121374583D01*
X116859800Y-121312929D01*
X117035927Y-120812520D01*
X117007148Y-120282801D01*
X116859800Y-119927071D01*
X116624188Y-119865417D01*
X115869605Y-120620000D01*
X115510395Y-120620000D01*
X114755812Y-119865417D01*
X114685000Y-119883947D01*
X114685000Y-119685812D01*
X114935417Y-119685812D01*
X115690000Y-120440395D01*
X116444583Y-119685812D01*
X116382929Y-119450200D01*
X115882520Y-119274073D01*
X115352801Y-119302852D01*
X114997071Y-119450200D01*
X114935417Y-119685812D01*
X114685000Y-119685812D01*
X114685000Y-115356053D01*
X114755812Y-115374583D01*
X115510395Y-114620000D01*
X114755812Y-113865417D01*
X114685000Y-113883947D01*
X114685000Y-113685812D01*
X114935417Y-113685812D01*
X115690000Y-114440395D01*
X116444583Y-113685812D01*
X116382929Y-113450200D01*
X115882520Y-113274073D01*
X115352801Y-113302852D01*
X114997071Y-113450200D01*
X114935417Y-113685812D01*
X114685000Y-113685812D01*
X114685000Y-111887971D01*
X114737582Y-112015229D01*
X115112796Y-112391098D01*
X115603287Y-112594768D01*
X116134383Y-112595231D01*
X116625229Y-112392418D01*
X116870098Y-112147976D01*
X117112796Y-112391098D01*
X117603287Y-112594768D01*
X118134383Y-112595231D01*
X118625229Y-112392418D01*
X119001098Y-112017204D01*
X119049319Y-111901075D01*
X119690395Y-111260000D01*
X119049773Y-110619379D01*
X119002418Y-110504771D01*
X118627204Y-110128902D01*
X118136713Y-109925232D01*
X117605617Y-109924769D01*
X117114771Y-110127582D01*
X116869902Y-110372024D01*
X116627204Y-110128902D01*
X116136713Y-109925232D01*
X115605617Y-109924769D01*
X115114771Y-110127582D01*
X114738902Y-110502796D01*
X114685000Y-110632606D01*
X114685000Y-106078218D01*
X114932172Y-106448136D01*
X115385391Y-106750968D01*
X115920000Y-106857308D01*
X116454609Y-106750968D01*
X116907828Y-106448136D01*
X117190000Y-106025837D01*
X117472172Y-106448136D01*
X117925391Y-106750968D01*
X118460000Y-106857308D01*
X118994609Y-106750968D01*
X119447828Y-106448136D01*
X119746831Y-106000648D01*
X119795955Y-106140865D01*
X120159644Y-106547522D01*
X120651269Y-106784046D01*
X120656930Y-106784220D01*
X120873000Y-106661720D01*
X120873000Y-105407000D01*
X120853000Y-105407000D01*
X120853000Y-105153000D01*
X120873000Y-105153000D01*
X120873000Y-103898280D01*
X121127000Y-103898280D01*
X121127000Y-105153000D01*
X122239293Y-105153000D01*
X122384429Y-104934015D01*
X122204045Y-104419135D01*
X121840356Y-104012478D01*
X121348731Y-103775954D01*
X121343070Y-103775780D01*
X121127000Y-103898280D01*
X120873000Y-103898280D01*
X120656930Y-103775780D01*
X120651269Y-103775954D01*
X120159644Y-104012478D01*
X119795955Y-104419135D01*
X119746831Y-104559352D01*
X119447828Y-104111864D01*
X118994609Y-103809032D01*
X118460000Y-103702692D01*
X117925391Y-103809032D01*
X117472172Y-104111864D01*
X117190000Y-104534163D01*
X116907828Y-104111864D01*
X116454609Y-103809032D01*
X115920000Y-103702692D01*
X115385391Y-103809032D01*
X114932172Y-104111864D01*
X114685000Y-104481782D01*
X114685000Y-100998218D01*
X114932172Y-101368136D01*
X115385391Y-101670968D01*
X115920000Y-101777308D01*
X116454609Y-101670968D01*
X116907828Y-101368136D01*
X117190000Y-100945837D01*
X117472172Y-101368136D01*
X117925391Y-101670968D01*
X118460000Y-101777308D01*
X118994609Y-101670968D01*
X119447828Y-101368136D01*
X119603000Y-101135905D01*
X119603000Y-101238310D01*
X119699673Y-101471699D01*
X119878302Y-101650327D01*
X120111691Y-101747000D01*
X120714250Y-101747000D01*
X120873000Y-101588250D01*
X120873000Y-100327000D01*
X121127000Y-100327000D01*
X121127000Y-101588250D01*
X121285750Y-101747000D01*
X121888309Y-101747000D01*
X122121698Y-101650327D01*
X122300327Y-101471699D01*
X122397000Y-101238310D01*
X122397000Y-100485750D01*
X122238250Y-100327000D01*
X121127000Y-100327000D01*
X120873000Y-100327000D01*
X120853000Y-100327000D01*
X120853000Y-100073000D01*
X120873000Y-100073000D01*
X120873000Y-98811750D01*
X121127000Y-98811750D01*
X121127000Y-100073000D01*
X122238250Y-100073000D01*
X122397000Y-99914250D01*
X122397000Y-99161690D01*
X122300327Y-98928301D01*
X122121698Y-98749673D01*
X121888309Y-98653000D01*
X121285750Y-98653000D01*
X121127000Y-98811750D01*
X120873000Y-98811750D01*
X120714250Y-98653000D01*
X120111691Y-98653000D01*
X119878302Y-98749673D01*
X119699673Y-98928301D01*
X119603000Y-99161690D01*
X119603000Y-99264095D01*
X119447828Y-99031864D01*
X118994609Y-98729032D01*
X118460000Y-98622692D01*
X117925391Y-98729032D01*
X117472172Y-99031864D01*
X117190000Y-99454163D01*
X116907828Y-99031864D01*
X116454609Y-98729032D01*
X115920000Y-98622692D01*
X115385391Y-98729032D01*
X114932172Y-99031864D01*
X114685000Y-99401782D01*
X114685000Y-89501744D01*
X114780330Y-89644415D01*
X115266511Y-89969271D01*
X115840000Y-90083345D01*
X116413489Y-89969271D01*
X116899670Y-89644415D01*
X117110000Y-89329634D01*
X117320330Y-89644415D01*
X117806511Y-89969271D01*
X118380000Y-90083345D01*
X118953489Y-89969271D01*
X119439670Y-89644415D01*
X119650000Y-89329634D01*
X119860330Y-89644415D01*
X120346511Y-89969271D01*
X120920000Y-90083345D01*
X121493489Y-89969271D01*
X121979670Y-89644415D01*
X122190000Y-89329634D01*
X122400330Y-89644415D01*
X122886511Y-89969271D01*
X123460000Y-90083345D01*
X124033489Y-89969271D01*
X124519670Y-89644415D01*
X124730000Y-89329634D01*
X124940330Y-89644415D01*
X125426511Y-89969271D01*
X126000000Y-90083345D01*
X126573489Y-89969271D01*
X127059670Y-89644415D01*
X127270000Y-89329634D01*
X127480330Y-89644415D01*
X127966511Y-89969271D01*
X128540000Y-90083345D01*
X129113489Y-89969271D01*
X129599670Y-89644415D01*
X129810000Y-89329634D01*
X130020330Y-89644415D01*
X130020330Y-89644415D01*
G37*
X130020330Y-89644415D02*
X130320000Y-89844648D01*
X130320000Y-97605198D01*
X122350463Y-105574735D01*
X122239293Y-105407000D01*
X121127000Y-105407000D01*
X121127000Y-106661720D01*
X121214098Y-106711100D01*
X120260320Y-107664878D01*
X120214833Y-107664838D01*
X119871057Y-107806883D01*
X119607808Y-108069673D01*
X119465162Y-108413201D01*
X119464838Y-108785167D01*
X119606883Y-109128943D01*
X119869673Y-109392192D01*
X120213201Y-109534838D01*
X120260077Y-109534879D01*
X120375000Y-109649802D01*
X120375000Y-110022474D01*
X120062878Y-109912581D01*
X119532560Y-109941336D01*
X119176169Y-110088958D01*
X119114331Y-110324725D01*
X119870000Y-111080395D01*
X119884142Y-111066252D01*
X120063748Y-111245858D01*
X120049605Y-111260000D01*
X120063748Y-111274143D01*
X119884142Y-111453748D01*
X119870000Y-111439605D01*
X119114331Y-112195275D01*
X119176169Y-112431042D01*
X119466822Y-112533376D01*
X119185198Y-112815000D01*
X117925000Y-112815000D01*
X117634160Y-112872852D01*
X117387599Y-113037599D01*
X116562599Y-113862599D01*
X116432906Y-114056699D01*
X115869605Y-114620000D01*
X115883748Y-114634143D01*
X115704143Y-114813748D01*
X115690000Y-114799605D01*
X114935417Y-115554188D01*
X114997071Y-115789800D01*
X115497480Y-115965927D01*
X116027199Y-115937148D01*
X116340000Y-115807582D01*
X116340000Y-117600000D01*
X116397852Y-117890839D01*
X116562599Y-118137401D01*
X117962599Y-119537401D01*
X118209161Y-119702148D01*
X118500000Y-119760000D01*
X119064001Y-119760000D01*
X118960173Y-119863647D01*
X118756732Y-120353587D01*
X118756269Y-120884086D01*
X118958854Y-121374380D01*
X119333647Y-121749827D01*
X119462052Y-121803146D01*
X116347579Y-124917619D01*
X115840000Y-124816655D01*
X115266511Y-124930729D01*
X114780330Y-125255585D01*
X114685000Y-125398256D01*
X114685000Y-121554188D01*
X114935417Y-121554188D01*
X114997071Y-121789800D01*
X115497480Y-121965927D01*
X116027199Y-121937148D01*
X116382929Y-121789800D01*
X116444583Y-121554188D01*
X115690000Y-120799605D01*
X114935417Y-121554188D01*
X114685000Y-121554188D01*
X114685000Y-121356053D01*
X114755812Y-121374583D01*
X115510395Y-120620000D01*
X115869605Y-120620000D01*
X116624188Y-121374583D01*
X116859800Y-121312929D01*
X117035927Y-120812520D01*
X117007148Y-120282801D01*
X116859800Y-119927071D01*
X116624188Y-119865417D01*
X115869605Y-120620000D01*
X115510395Y-120620000D01*
X114755812Y-119865417D01*
X114685000Y-119883947D01*
X114685000Y-119685812D01*
X114935417Y-119685812D01*
X115690000Y-120440395D01*
X116444583Y-119685812D01*
X116382929Y-119450200D01*
X115882520Y-119274073D01*
X115352801Y-119302852D01*
X114997071Y-119450200D01*
X114935417Y-119685812D01*
X114685000Y-119685812D01*
X114685000Y-115356053D01*
X114755812Y-115374583D01*
X115510395Y-114620000D01*
X114755812Y-113865417D01*
X114685000Y-113883947D01*
X114685000Y-113685812D01*
X114935417Y-113685812D01*
X115690000Y-114440395D01*
X116444583Y-113685812D01*
X116382929Y-113450200D01*
X115882520Y-113274073D01*
X115352801Y-113302852D01*
X114997071Y-113450200D01*
X114935417Y-113685812D01*
X114685000Y-113685812D01*
X114685000Y-111887971D01*
X114737582Y-112015229D01*
X115112796Y-112391098D01*
X115603287Y-112594768D01*
X116134383Y-112595231D01*
X116625229Y-112392418D01*
X116870098Y-112147976D01*
X117112796Y-112391098D01*
X117603287Y-112594768D01*
X118134383Y-112595231D01*
X118625229Y-112392418D01*
X119001098Y-112017204D01*
X119049319Y-111901075D01*
X119690395Y-111260000D01*
X119049773Y-110619379D01*
X119002418Y-110504771D01*
X118627204Y-110128902D01*
X118136713Y-109925232D01*
X117605617Y-109924769D01*
X117114771Y-110127582D01*
X116869902Y-110372024D01*
X116627204Y-110128902D01*
X116136713Y-109925232D01*
X115605617Y-109924769D01*
X115114771Y-110127582D01*
X114738902Y-110502796D01*
X114685000Y-110632606D01*
X114685000Y-106078218D01*
X114932172Y-106448136D01*
X115385391Y-106750968D01*
X115920000Y-106857308D01*
X116454609Y-106750968D01*
X116907828Y-106448136D01*
X117190000Y-106025837D01*
X117472172Y-106448136D01*
X117925391Y-106750968D01*
X118460000Y-106857308D01*
X118994609Y-106750968D01*
X119447828Y-106448136D01*
X119746831Y-106000648D01*
X119795955Y-106140865D01*
X120159644Y-106547522D01*
X120651269Y-106784046D01*
X120656930Y-106784220D01*
X120873000Y-106661720D01*
X120873000Y-105407000D01*
X120853000Y-105407000D01*
X120853000Y-105153000D01*
X120873000Y-105153000D01*
X120873000Y-103898280D01*
X121127000Y-103898280D01*
X121127000Y-105153000D01*
X122239293Y-105153000D01*
X122384429Y-104934015D01*
X122204045Y-104419135D01*
X121840356Y-104012478D01*
X121348731Y-103775954D01*
X121343070Y-103775780D01*
X121127000Y-103898280D01*
X120873000Y-103898280D01*
X120656930Y-103775780D01*
X120651269Y-103775954D01*
X120159644Y-104012478D01*
X119795955Y-104419135D01*
X119746831Y-104559352D01*
X119447828Y-104111864D01*
X118994609Y-103809032D01*
X118460000Y-103702692D01*
X117925391Y-103809032D01*
X117472172Y-104111864D01*
X117190000Y-104534163D01*
X116907828Y-104111864D01*
X116454609Y-103809032D01*
X115920000Y-103702692D01*
X115385391Y-103809032D01*
X114932172Y-104111864D01*
X114685000Y-104481782D01*
X114685000Y-100998218D01*
X114932172Y-101368136D01*
X115385391Y-101670968D01*
X115920000Y-101777308D01*
X116454609Y-101670968D01*
X116907828Y-101368136D01*
X117190000Y-100945837D01*
X117472172Y-101368136D01*
X117925391Y-101670968D01*
X118460000Y-101777308D01*
X118994609Y-101670968D01*
X119447828Y-101368136D01*
X119603000Y-101135905D01*
X119603000Y-101238310D01*
X119699673Y-101471699D01*
X119878302Y-101650327D01*
X120111691Y-101747000D01*
X120714250Y-101747000D01*
X120873000Y-101588250D01*
X120873000Y-100327000D01*
X121127000Y-100327000D01*
X121127000Y-101588250D01*
X121285750Y-101747000D01*
X121888309Y-101747000D01*
X122121698Y-101650327D01*
X122300327Y-101471699D01*
X122397000Y-101238310D01*
X122397000Y-100485750D01*
X122238250Y-100327000D01*
X121127000Y-100327000D01*
X120873000Y-100327000D01*
X120853000Y-100327000D01*
X120853000Y-100073000D01*
X120873000Y-100073000D01*
X120873000Y-98811750D01*
X121127000Y-98811750D01*
X121127000Y-100073000D01*
X122238250Y-100073000D01*
X122397000Y-99914250D01*
X122397000Y-99161690D01*
X122300327Y-98928301D01*
X122121698Y-98749673D01*
X121888309Y-98653000D01*
X121285750Y-98653000D01*
X121127000Y-98811750D01*
X120873000Y-98811750D01*
X120714250Y-98653000D01*
X120111691Y-98653000D01*
X119878302Y-98749673D01*
X119699673Y-98928301D01*
X119603000Y-99161690D01*
X119603000Y-99264095D01*
X119447828Y-99031864D01*
X118994609Y-98729032D01*
X118460000Y-98622692D01*
X117925391Y-98729032D01*
X117472172Y-99031864D01*
X117190000Y-99454163D01*
X116907828Y-99031864D01*
X116454609Y-98729032D01*
X115920000Y-98622692D01*
X115385391Y-98729032D01*
X114932172Y-99031864D01*
X114685000Y-99401782D01*
X114685000Y-89501744D01*
X114780330Y-89644415D01*
X115266511Y-89969271D01*
X115840000Y-90083345D01*
X116413489Y-89969271D01*
X116899670Y-89644415D01*
X117110000Y-89329634D01*
X117320330Y-89644415D01*
X117806511Y-89969271D01*
X118380000Y-90083345D01*
X118953489Y-89969271D01*
X119439670Y-89644415D01*
X119650000Y-89329634D01*
X119860330Y-89644415D01*
X120346511Y-89969271D01*
X120920000Y-90083345D01*
X121493489Y-89969271D01*
X121979670Y-89644415D01*
X122190000Y-89329634D01*
X122400330Y-89644415D01*
X122886511Y-89969271D01*
X123460000Y-90083345D01*
X124033489Y-89969271D01*
X124519670Y-89644415D01*
X124730000Y-89329634D01*
X124940330Y-89644415D01*
X125426511Y-89969271D01*
X126000000Y-90083345D01*
X126573489Y-89969271D01*
X127059670Y-89644415D01*
X127270000Y-89329634D01*
X127480330Y-89644415D01*
X127966511Y-89969271D01*
X128540000Y-90083345D01*
X129113489Y-89969271D01*
X129599670Y-89644415D01*
X129810000Y-89329634D01*
X130020330Y-89644415D01*
G36*
X132560330Y-89644415D02*
X133046511Y-89969271D01*
X133620000Y-90083345D01*
X134027489Y-90002291D01*
X137462599Y-93437401D01*
X137709161Y-93602148D01*
X138000000Y-93660000D01*
X140885198Y-93660000D01*
X150865198Y-103640000D01*
X142234966Y-103640000D01*
X142235162Y-103414833D01*
X142093117Y-103071057D01*
X142060000Y-103037882D01*
X142060000Y-102260000D01*
X142200000Y-102260000D01*
X142490839Y-102202148D01*
X142737401Y-102037401D01*
X143537401Y-101237401D01*
X143702148Y-100990839D01*
X143760000Y-100700000D01*
X143760000Y-98830000D01*
X143702148Y-98539161D01*
X143537401Y-98292599D01*
X142869830Y-97625028D01*
X142870220Y-97178490D01*
X142677282Y-96711542D01*
X142320337Y-96353974D01*
X141853727Y-96160221D01*
X141348490Y-96159780D01*
X140881542Y-96352718D01*
X140523974Y-96709663D01*
X140330221Y-97176273D01*
X140329780Y-97681510D01*
X140522718Y-98148458D01*
X140879663Y-98506026D01*
X141346273Y-98699779D01*
X141348488Y-98699781D01*
X140881542Y-98892718D01*
X140523974Y-99249663D01*
X140345343Y-99679855D01*
X139462599Y-100562599D01*
X139297852Y-100809161D01*
X139240000Y-101100000D01*
X139240000Y-101588420D01*
X139125790Y-101474210D01*
X139048678Y-101422686D01*
X138838675Y-101282367D01*
X138782484Y-101271190D01*
X138500000Y-101214999D01*
X138499995Y-101215000D01*
X132700005Y-101215000D01*
X132700000Y-101214999D01*
X132417516Y-101271190D01*
X132361325Y-101282367D01*
X132074210Y-101474210D01*
X132074208Y-101474213D01*
X131791165Y-101757256D01*
X131671057Y-101806883D01*
X131407808Y-102069673D01*
X131265162Y-102413201D01*
X131264838Y-102785167D01*
X131406883Y-103128943D01*
X131669673Y-103392192D01*
X132013201Y-103534838D01*
X132385167Y-103535162D01*
X132728943Y-103393117D01*
X132992192Y-103130327D01*
X133042566Y-103009014D01*
X133066580Y-102985000D01*
X138133420Y-102985000D01*
X138357255Y-103208835D01*
X138406883Y-103328943D01*
X138669673Y-103592192D01*
X138784807Y-103640000D01*
X127900000Y-103640000D01*
X127609161Y-103697852D01*
X127362599Y-103862599D01*
X124962599Y-106262599D01*
X124797852Y-106509161D01*
X124740000Y-106800000D01*
X124740000Y-116525198D01*
X122510369Y-118754829D01*
X122393117Y-118471057D01*
X122130327Y-118207808D01*
X121786799Y-118065162D01*
X121414833Y-118064838D01*
X121071057Y-118206883D01*
X121037882Y-118240000D01*
X118814802Y-118240000D01*
X117860000Y-117285198D01*
X117860000Y-114714802D01*
X118239802Y-114335000D01*
X118764450Y-114335000D01*
X118756732Y-114353587D01*
X118756269Y-114884086D01*
X118958854Y-115374380D01*
X119333647Y-115749827D01*
X119823587Y-115953268D01*
X120354086Y-115953731D01*
X120844380Y-115751146D01*
X121219827Y-115376353D01*
X121423268Y-114886413D01*
X121423731Y-114355914D01*
X121221146Y-113865620D01*
X120846353Y-113490173D01*
X120714415Y-113435387D01*
X121672401Y-112477401D01*
X121837148Y-112230840D01*
X121895000Y-111940000D01*
X121895000Y-109335000D01*
X121837148Y-109044161D01*
X121672401Y-108797599D01*
X121474802Y-108600000D01*
X131617401Y-98457401D01*
X131782148Y-98210839D01*
X131840000Y-97920000D01*
X131840000Y-89844648D01*
X132139670Y-89644415D01*
X132350000Y-89329634D01*
X132560330Y-89644415D01*
X132560330Y-89644415D01*
G37*
X132560330Y-89644415D02*
X133046511Y-89969271D01*
X133620000Y-90083345D01*
X134027489Y-90002291D01*
X137462599Y-93437401D01*
X137709161Y-93602148D01*
X138000000Y-93660000D01*
X140885198Y-93660000D01*
X150865198Y-103640000D01*
X142234966Y-103640000D01*
X142235162Y-103414833D01*
X142093117Y-103071057D01*
X142060000Y-103037882D01*
X142060000Y-102260000D01*
X142200000Y-102260000D01*
X142490839Y-102202148D01*
X142737401Y-102037401D01*
X143537401Y-101237401D01*
X143702148Y-100990839D01*
X143760000Y-100700000D01*
X143760000Y-98830000D01*
X143702148Y-98539161D01*
X143537401Y-98292599D01*
X142869830Y-97625028D01*
X142870220Y-97178490D01*
X142677282Y-96711542D01*
X142320337Y-96353974D01*
X141853727Y-96160221D01*
X141348490Y-96159780D01*
X140881542Y-96352718D01*
X140523974Y-96709663D01*
X140330221Y-97176273D01*
X140329780Y-97681510D01*
X140522718Y-98148458D01*
X140879663Y-98506026D01*
X141346273Y-98699779D01*
X141348488Y-98699781D01*
X140881542Y-98892718D01*
X140523974Y-99249663D01*
X140345343Y-99679855D01*
X139462599Y-100562599D01*
X139297852Y-100809161D01*
X139240000Y-101100000D01*
X139240000Y-101588420D01*
X139125790Y-101474210D01*
X139048678Y-101422686D01*
X138838675Y-101282367D01*
X138782484Y-101271190D01*
X138500000Y-101214999D01*
X138499995Y-101215000D01*
X132700005Y-101215000D01*
X132700000Y-101214999D01*
X132417516Y-101271190D01*
X132361325Y-101282367D01*
X132074210Y-101474210D01*
X132074208Y-101474213D01*
X131791165Y-101757256D01*
X131671057Y-101806883D01*
X131407808Y-102069673D01*
X131265162Y-102413201D01*
X131264838Y-102785167D01*
X131406883Y-103128943D01*
X131669673Y-103392192D01*
X132013201Y-103534838D01*
X132385167Y-103535162D01*
X132728943Y-103393117D01*
X132992192Y-103130327D01*
X133042566Y-103009014D01*
X133066580Y-102985000D01*
X138133420Y-102985000D01*
X138357255Y-103208835D01*
X138406883Y-103328943D01*
X138669673Y-103592192D01*
X138784807Y-103640000D01*
X127900000Y-103640000D01*
X127609161Y-103697852D01*
X127362599Y-103862599D01*
X124962599Y-106262599D01*
X124797852Y-106509161D01*
X124740000Y-106800000D01*
X124740000Y-116525198D01*
X122510369Y-118754829D01*
X122393117Y-118471057D01*
X122130327Y-118207808D01*
X121786799Y-118065162D01*
X121414833Y-118064838D01*
X121071057Y-118206883D01*
X121037882Y-118240000D01*
X118814802Y-118240000D01*
X117860000Y-117285198D01*
X117860000Y-114714802D01*
X118239802Y-114335000D01*
X118764450Y-114335000D01*
X118756732Y-114353587D01*
X118756269Y-114884086D01*
X118958854Y-115374380D01*
X119333647Y-115749827D01*
X119823587Y-115953268D01*
X120354086Y-115953731D01*
X120844380Y-115751146D01*
X121219827Y-115376353D01*
X121423268Y-114886413D01*
X121423731Y-114355914D01*
X121221146Y-113865620D01*
X120846353Y-113490173D01*
X120714415Y-113435387D01*
X121672401Y-112477401D01*
X121837148Y-112230840D01*
X121895000Y-111940000D01*
X121895000Y-109335000D01*
X121837148Y-109044161D01*
X121672401Y-108797599D01*
X121474802Y-108600000D01*
X131617401Y-98457401D01*
X131782148Y-98210839D01*
X131840000Y-97920000D01*
X131840000Y-89844648D01*
X132139670Y-89644415D01*
X132350000Y-89329634D01*
X132560330Y-89644415D01*
G36*
X157960330Y-89644415D02*
X158446511Y-89969271D01*
X159020000Y-90083345D01*
X159527579Y-89982381D01*
X161882599Y-92337401D01*
X162129161Y-92502148D01*
X162420000Y-92560000D01*
X162465121Y-92560000D01*
X162464838Y-92885167D01*
X162606883Y-93228943D01*
X162640000Y-93262118D01*
X162640000Y-98437537D01*
X162614536Y-98462956D01*
X162125790Y-97974210D01*
X162115600Y-97967401D01*
X161838675Y-97782367D01*
X161782484Y-97771190D01*
X161500000Y-97714999D01*
X161499995Y-97715000D01*
X158906822Y-97715000D01*
X158786799Y-97665162D01*
X158414833Y-97664838D01*
X158071057Y-97806883D01*
X157807808Y-98069673D01*
X157665162Y-98413201D01*
X157664838Y-98785167D01*
X157687494Y-98840000D01*
X154762463Y-98840000D01*
X154730327Y-98807808D01*
X154386799Y-98665162D01*
X154014833Y-98664838D01*
X153671057Y-98806883D01*
X153407808Y-99069673D01*
X153265162Y-99413201D01*
X153264838Y-99785167D01*
X153406883Y-100128943D01*
X153669673Y-100392192D01*
X153979596Y-100520884D01*
X154106883Y-100828943D01*
X154369673Y-101092192D01*
X154679596Y-101220884D01*
X154806883Y-101528943D01*
X155069673Y-101792192D01*
X155413201Y-101934838D01*
X155785167Y-101935162D01*
X156128943Y-101793117D01*
X156247199Y-101675067D01*
X159076739Y-101751541D01*
X164540000Y-107214802D01*
X164540000Y-107665034D01*
X164439749Y-107664947D01*
X163737401Y-106962599D01*
X163490839Y-106797852D01*
X163200000Y-106740000D01*
X157362463Y-106740000D01*
X157330327Y-106707808D01*
X156986799Y-106565162D01*
X156760000Y-106564964D01*
X156760000Y-105500000D01*
X156734936Y-105373997D01*
X156735162Y-105114833D01*
X156593117Y-104771057D01*
X156330327Y-104507808D01*
X155986799Y-104365162D01*
X155614833Y-104364838D01*
X155271057Y-104506883D01*
X155007808Y-104769673D01*
X154989226Y-104814424D01*
X141837401Y-91662599D01*
X141590839Y-91497852D01*
X141300000Y-91440000D01*
X140014802Y-91440000D01*
X138647755Y-90072953D01*
X138700000Y-90083345D01*
X139273489Y-89969271D01*
X139759670Y-89644415D01*
X139970000Y-89329634D01*
X140180330Y-89644415D01*
X140666511Y-89969271D01*
X141240000Y-90083345D01*
X141813489Y-89969271D01*
X142299670Y-89644415D01*
X142510000Y-89329634D01*
X142720330Y-89644415D01*
X143206511Y-89969271D01*
X143780000Y-90083345D01*
X144353489Y-89969271D01*
X144839670Y-89644415D01*
X145050000Y-89329634D01*
X145260330Y-89644415D01*
X145746511Y-89969271D01*
X146320000Y-90083345D01*
X146893489Y-89969271D01*
X147379670Y-89644415D01*
X147590000Y-89329634D01*
X147800330Y-89644415D01*
X148286511Y-89969271D01*
X148860000Y-90083345D01*
X149433489Y-89969271D01*
X149919670Y-89644415D01*
X150130000Y-89329634D01*
X150340330Y-89644415D01*
X150826511Y-89969271D01*
X151400000Y-90083345D01*
X151973489Y-89969271D01*
X152459670Y-89644415D01*
X152670000Y-89329634D01*
X152880330Y-89644415D01*
X153366511Y-89969271D01*
X153940000Y-90083345D01*
X154513489Y-89969271D01*
X154999670Y-89644415D01*
X155210000Y-89329634D01*
X155420330Y-89644415D01*
X155906511Y-89969271D01*
X156480000Y-90083345D01*
X157053489Y-89969271D01*
X157539670Y-89644415D01*
X157750000Y-89329634D01*
X157960330Y-89644415D01*
X157960330Y-89644415D01*
G37*
X157960330Y-89644415D02*
X158446511Y-89969271D01*
X159020000Y-90083345D01*
X159527579Y-89982381D01*
X161882599Y-92337401D01*
X162129161Y-92502148D01*
X162420000Y-92560000D01*
X162465121Y-92560000D01*
X162464838Y-92885167D01*
X162606883Y-93228943D01*
X162640000Y-93262118D01*
X162640000Y-98437537D01*
X162614536Y-98462956D01*
X162125790Y-97974210D01*
X162115600Y-97967401D01*
X161838675Y-97782367D01*
X161782484Y-97771190D01*
X161500000Y-97714999D01*
X161499995Y-97715000D01*
X158906822Y-97715000D01*
X158786799Y-97665162D01*
X158414833Y-97664838D01*
X158071057Y-97806883D01*
X157807808Y-98069673D01*
X157665162Y-98413201D01*
X157664838Y-98785167D01*
X157687494Y-98840000D01*
X154762463Y-98840000D01*
X154730327Y-98807808D01*
X154386799Y-98665162D01*
X154014833Y-98664838D01*
X153671057Y-98806883D01*
X153407808Y-99069673D01*
X153265162Y-99413201D01*
X153264838Y-99785167D01*
X153406883Y-100128943D01*
X153669673Y-100392192D01*
X153979596Y-100520884D01*
X154106883Y-100828943D01*
X154369673Y-101092192D01*
X154679596Y-101220884D01*
X154806883Y-101528943D01*
X155069673Y-101792192D01*
X155413201Y-101934838D01*
X155785167Y-101935162D01*
X156128943Y-101793117D01*
X156247199Y-101675067D01*
X159076739Y-101751541D01*
X164540000Y-107214802D01*
X164540000Y-107665034D01*
X164439749Y-107664947D01*
X163737401Y-106962599D01*
X163490839Y-106797852D01*
X163200000Y-106740000D01*
X157362463Y-106740000D01*
X157330327Y-106707808D01*
X156986799Y-106565162D01*
X156760000Y-106564964D01*
X156760000Y-105500000D01*
X156734936Y-105373997D01*
X156735162Y-105114833D01*
X156593117Y-104771057D01*
X156330327Y-104507808D01*
X155986799Y-104365162D01*
X155614833Y-104364838D01*
X155271057Y-104506883D01*
X155007808Y-104769673D01*
X154989226Y-104814424D01*
X141837401Y-91662599D01*
X141590839Y-91497852D01*
X141300000Y-91440000D01*
X140014802Y-91440000D01*
X138647755Y-90072953D01*
X138700000Y-90083345D01*
X139273489Y-89969271D01*
X139759670Y-89644415D01*
X139970000Y-89329634D01*
X140180330Y-89644415D01*
X140666511Y-89969271D01*
X141240000Y-90083345D01*
X141813489Y-89969271D01*
X142299670Y-89644415D01*
X142510000Y-89329634D01*
X142720330Y-89644415D01*
X143206511Y-89969271D01*
X143780000Y-90083345D01*
X144353489Y-89969271D01*
X144839670Y-89644415D01*
X145050000Y-89329634D01*
X145260330Y-89644415D01*
X145746511Y-89969271D01*
X146320000Y-90083345D01*
X146893489Y-89969271D01*
X147379670Y-89644415D01*
X147590000Y-89329634D01*
X147800330Y-89644415D01*
X148286511Y-89969271D01*
X148860000Y-90083345D01*
X149433489Y-89969271D01*
X149919670Y-89644415D01*
X150130000Y-89329634D01*
X150340330Y-89644415D01*
X150826511Y-89969271D01*
X151400000Y-90083345D01*
X151973489Y-89969271D01*
X152459670Y-89644415D01*
X152670000Y-89329634D01*
X152880330Y-89644415D01*
X153366511Y-89969271D01*
X153940000Y-90083345D01*
X154513489Y-89969271D01*
X154999670Y-89644415D01*
X155210000Y-89329634D01*
X155420330Y-89644415D01*
X155906511Y-89969271D01*
X156480000Y-90083345D01*
X157053489Y-89969271D01*
X157539670Y-89644415D01*
X157750000Y-89329634D01*
X157960330Y-89644415D01*
M02*
