G04 #@! TF.FileFunction,Copper,L1,Top,Signal*
%FSLAX46Y46*%
G04 Gerber Fmt 4.6, Leading zero omitted, Abs format (unit mm)*
G04 Created by KiCad (PCBNEW 4.0.7-e2-6376~58~ubuntu14.04.1) date Sat Dec  9 10:48:14 2017*
%MOMM*%
%LPD*%
G01*
G04 APERTURE LIST*
%ADD10C,0.100000*%
%ADD11R,0.635000X1.143000*%
%ADD12C,1.501140*%
%ADD13R,1.524000X2.032000*%
%ADD14R,1.143000X0.635000*%
%ADD15R,1.597660X1.800860*%
%ADD16R,1.727200X2.032000*%
%ADD17O,1.727200X2.032000*%
%ADD18R,1.500000X1.300000*%
%ADD19C,1.397000*%
%ADD20R,1.000000X0.250000*%
%ADD21R,0.250000X1.000000*%
%ADD22R,1.399540X0.350520*%
%ADD23C,1.270000*%
%ADD24O,3.014980X1.506220*%
%ADD25C,1.400000*%
%ADD26R,1.524000X1.824000*%
%ADD27O,1.524000X1.824000*%
%ADD28C,0.600000*%
%ADD29C,0.250000*%
%ADD30C,0.500000*%
%ADD31C,0.254000*%
G04 APERTURE END LIST*
D10*
D11*
X136738000Y-91400000D03*
X138262000Y-91400000D03*
D12*
X131000000Y-99559060D03*
X131000000Y-104440940D03*
D11*
X136738000Y-88800000D03*
X138262000Y-88800000D03*
X138262000Y-93500000D03*
X136738000Y-93500000D03*
D13*
X139851000Y-101300000D03*
X136549000Y-101300000D03*
X116649000Y-81000000D03*
X119951000Y-81000000D03*
D11*
X138338000Y-98800000D03*
X139862000Y-98800000D03*
X118362000Y-83400000D03*
X116838000Y-83400000D03*
D14*
X145500000Y-91362000D03*
X145500000Y-89838000D03*
X140300000Y-87162000D03*
X140300000Y-85638000D03*
X138300000Y-85638000D03*
X138300000Y-87162000D03*
D11*
X175662000Y-92800000D03*
X174138000Y-92800000D03*
X167038000Y-92800000D03*
X168562000Y-92800000D03*
D14*
X178250000Y-87688000D03*
X178250000Y-89212000D03*
D11*
X170988000Y-84950000D03*
X172512000Y-84950000D03*
X178362000Y-85500000D03*
X176838000Y-85500000D03*
D15*
X132229860Y-92710000D03*
X129390140Y-92710000D03*
X132229860Y-87630000D03*
X129390140Y-87630000D03*
D16*
X177800000Y-76200000D03*
D17*
X175260000Y-76200000D03*
X172720000Y-76200000D03*
X170180000Y-76200000D03*
X167640000Y-76200000D03*
X165100000Y-76200000D03*
X162560000Y-76200000D03*
X160020000Y-76200000D03*
X157480000Y-76200000D03*
X154940000Y-76200000D03*
X152400000Y-76200000D03*
X149860000Y-76200000D03*
X147320000Y-76200000D03*
X144780000Y-76200000D03*
X142240000Y-76200000D03*
X139700000Y-76200000D03*
X137160000Y-76200000D03*
X134620000Y-76200000D03*
X132080000Y-76200000D03*
X129540000Y-76200000D03*
X127000000Y-76200000D03*
X124460000Y-76200000D03*
X121920000Y-76200000D03*
X119380000Y-76200000D03*
X116840000Y-76200000D03*
D16*
X177800000Y-114300000D03*
D17*
X175260000Y-114300000D03*
X172720000Y-114300000D03*
X170180000Y-114300000D03*
X167640000Y-114300000D03*
X165100000Y-114300000D03*
X162560000Y-114300000D03*
X160020000Y-114300000D03*
X157480000Y-114300000D03*
X154940000Y-114300000D03*
X152400000Y-114300000D03*
X149860000Y-114300000D03*
X147320000Y-114300000D03*
X144780000Y-114300000D03*
X142240000Y-114300000D03*
X139700000Y-114300000D03*
X137160000Y-114300000D03*
X134620000Y-114300000D03*
X132080000Y-114300000D03*
X129540000Y-114300000D03*
X127000000Y-114300000D03*
X124460000Y-114300000D03*
X121920000Y-114300000D03*
X119380000Y-114300000D03*
X116840000Y-114300000D03*
D18*
X137250000Y-96400000D03*
X139950000Y-96400000D03*
D11*
X126492000Y-92710000D03*
X124968000Y-92710000D03*
D14*
X123190000Y-100838000D03*
X123190000Y-102362000D03*
D11*
X134738000Y-86400000D03*
X136262000Y-86400000D03*
X124968000Y-87630000D03*
X126492000Y-87630000D03*
D19*
X115910000Y-102410000D03*
X120310000Y-102410000D03*
X115910000Y-108410000D03*
X120310000Y-108410000D03*
D20*
X147800000Y-92750000D03*
X147800000Y-93250000D03*
X147800000Y-93750000D03*
X147800000Y-94250000D03*
X147800000Y-94750000D03*
X147800000Y-95250000D03*
X147800000Y-95750000D03*
X147800000Y-96250000D03*
X147800000Y-96750000D03*
X147800000Y-97250000D03*
X147800000Y-97750000D03*
X147800000Y-98250000D03*
X147800000Y-98750000D03*
X147800000Y-99250000D03*
X147800000Y-99750000D03*
X147800000Y-100250000D03*
D21*
X149750000Y-102200000D03*
X150250000Y-102200000D03*
X150750000Y-102200000D03*
X151250000Y-102200000D03*
X151750000Y-102200000D03*
X152250000Y-102200000D03*
X152750000Y-102200000D03*
X153250000Y-102200000D03*
X153750000Y-102200000D03*
X154250000Y-102200000D03*
X154750000Y-102200000D03*
X155250000Y-102200000D03*
X155750000Y-102200000D03*
X156250000Y-102200000D03*
X156750000Y-102200000D03*
X157250000Y-102200000D03*
D20*
X159200000Y-100250000D03*
X159200000Y-99750000D03*
X159200000Y-99250000D03*
X159200000Y-98750000D03*
X159200000Y-98250000D03*
X159200000Y-97750000D03*
X159200000Y-97250000D03*
X159200000Y-96750000D03*
X159200000Y-96250000D03*
X159200000Y-95750000D03*
X159200000Y-95250000D03*
X159200000Y-94750000D03*
X159200000Y-94250000D03*
X159200000Y-93750000D03*
X159200000Y-93250000D03*
X159200000Y-92750000D03*
D21*
X157250000Y-90800000D03*
X156750000Y-90800000D03*
X156250000Y-90800000D03*
X155750000Y-90800000D03*
X155250000Y-90800000D03*
X154750000Y-90800000D03*
X154250000Y-90800000D03*
X153750000Y-90800000D03*
X153250000Y-90800000D03*
X152750000Y-90800000D03*
X152250000Y-90800000D03*
X151750000Y-90800000D03*
X151250000Y-90800000D03*
X150750000Y-90800000D03*
X150250000Y-90800000D03*
X149750000Y-90800000D03*
D22*
X169114720Y-86544160D03*
X169114720Y-87194400D03*
X169114720Y-87844640D03*
X169114720Y-88494880D03*
X169114720Y-89145120D03*
X169114720Y-89795360D03*
X169114720Y-90445600D03*
X169114720Y-91095840D03*
X174865280Y-91095840D03*
X174865280Y-90445600D03*
X174865280Y-89795360D03*
X174865280Y-89145120D03*
X174865280Y-88494880D03*
X174865280Y-87844640D03*
X174865280Y-87194400D03*
X174865280Y-86544160D03*
D23*
X142600000Y-87770000D03*
X142600000Y-85230000D03*
D24*
X176530000Y-97790000D03*
X176530000Y-105410000D03*
X176530000Y-102870000D03*
X176530000Y-100330000D03*
D25*
X120110000Y-99060000D03*
X118110000Y-99060000D03*
X116110000Y-99060000D03*
D11*
X117348000Y-96520000D03*
X118872000Y-96520000D03*
D26*
X122000000Y-88000000D03*
D27*
X122000000Y-93080000D03*
X119460000Y-88000000D03*
X119460000Y-93080000D03*
X116920000Y-88000000D03*
X116920000Y-93080000D03*
D28*
X158800000Y-82600000D03*
X150800000Y-82600000D03*
X136200000Y-79500000D03*
X150500000Y-100800000D03*
X153400000Y-100800000D03*
X164700000Y-94500000D03*
X160400000Y-91500000D03*
X146600000Y-88700000D03*
X148700000Y-89800000D03*
X149100000Y-95300000D03*
X153100000Y-93600000D03*
X140000000Y-88800000D03*
X134100000Y-89100000D03*
X136400000Y-98100000D03*
X129100000Y-94700000D03*
X135100000Y-94300000D03*
X153400000Y-105600000D03*
X156800000Y-106000000D03*
X168000000Y-91900000D03*
X159600000Y-86400000D03*
X164000000Y-107800000D03*
X159200000Y-103000000D03*
X133200000Y-90400000D03*
X140200000Y-90600000D03*
X135100000Y-97700000D03*
X131300000Y-95100000D03*
X141000000Y-91400000D03*
X142300000Y-91400000D03*
X157800000Y-95300000D03*
X165500000Y-96400000D03*
X171700000Y-96400000D03*
X165500000Y-97500000D03*
X171700000Y-97400000D03*
X157800000Y-96100000D03*
X171700000Y-98600000D03*
X165500000Y-98700000D03*
X157800000Y-97000000D03*
X157800000Y-97800000D03*
X165600000Y-99900000D03*
X171700000Y-99900000D03*
X171700000Y-101100000D03*
X165600000Y-101100000D03*
X157800000Y-98600000D03*
X171700000Y-102100000D03*
X165500000Y-102100000D03*
X157800000Y-99500000D03*
X157800000Y-100300000D03*
X165500000Y-103200000D03*
X171700000Y-103200000D03*
X157800000Y-101400000D03*
X165500000Y-104400000D03*
X168400000Y-104400000D03*
X164400000Y-80500000D03*
X164400000Y-86800000D03*
X155600000Y-101000000D03*
X154800000Y-101000000D03*
X122600000Y-106800000D03*
X121400000Y-96400000D03*
X163600000Y-108800000D03*
X156800000Y-93100000D03*
X163600000Y-110000000D03*
X156300000Y-94600000D03*
X155700000Y-87700000D03*
X156400000Y-88400000D03*
X157100000Y-88900000D03*
X153700000Y-104200000D03*
X152500000Y-104100000D03*
X145900000Y-99000000D03*
X145900000Y-98000000D03*
X145600000Y-97200000D03*
X144400000Y-96700000D03*
X151000000Y-93500000D03*
X151800000Y-93000000D03*
X152700000Y-92200000D03*
D29*
X147800000Y-94750000D02*
X143250000Y-94750000D01*
X137438000Y-90300000D02*
X136738000Y-91000000D01*
X138800000Y-90300000D02*
X137438000Y-90300000D01*
X143250000Y-94750000D02*
X138800000Y-90300000D01*
X136738000Y-88500000D02*
X136738000Y-91000000D01*
X136738000Y-91000000D02*
X135900000Y-91838000D01*
X135900000Y-91838000D02*
X135900000Y-92300000D01*
X135900000Y-92300000D02*
X131000000Y-97200000D01*
X131000000Y-97200000D02*
X131000000Y-99559060D01*
X138262000Y-93500000D02*
X141200000Y-93500000D01*
X142950000Y-95250000D02*
X147800000Y-95250000D01*
X141200000Y-93500000D02*
X142950000Y-95250000D01*
X138262000Y-93500000D02*
X138262000Y-94138000D01*
X133400000Y-102040940D02*
X131000000Y-104440940D01*
X133400000Y-97200000D02*
X133400000Y-102040940D01*
X135900000Y-94700000D02*
X133400000Y-97200000D01*
X137700000Y-94700000D02*
X135900000Y-94700000D01*
X138262000Y-94138000D02*
X137700000Y-94700000D01*
X138262000Y-91000000D02*
X138262000Y-93500000D01*
D30*
X140300000Y-85638000D02*
X140162000Y-85638000D01*
X140162000Y-85638000D02*
X138638000Y-87162000D01*
X138638000Y-87162000D02*
X138300000Y-87162000D01*
X160400000Y-91500000D02*
X160400000Y-84200000D01*
X160400000Y-84200000D02*
X158800000Y-82600000D01*
X150800000Y-82600000D02*
X149600000Y-82600000D01*
X149600000Y-82600000D02*
X146500000Y-79500000D01*
X146500000Y-79500000D02*
X136200000Y-79500000D01*
D29*
X156750000Y-102200000D02*
X156750000Y-101250000D01*
X150250000Y-101050000D02*
X150250000Y-102200000D01*
X150500000Y-100800000D02*
X150250000Y-101050000D01*
X153400000Y-100600000D02*
X153400000Y-100800000D01*
X154200000Y-99800000D02*
X153400000Y-100600000D01*
X155300000Y-99800000D02*
X154200000Y-99800000D01*
X156750000Y-101250000D02*
X155300000Y-99800000D01*
X170988000Y-84950000D02*
X170988000Y-88688000D01*
X170988000Y-88688000D02*
X171000000Y-88700000D01*
X169114720Y-88494880D02*
X170700000Y-88494880D01*
X176500000Y-94000000D02*
X176500000Y-91095840D01*
X176400000Y-94100000D02*
X176500000Y-94000000D01*
X172200000Y-94100000D02*
X176400000Y-94100000D01*
X171000000Y-92900000D02*
X172200000Y-94100000D01*
X171000000Y-88700000D02*
X171000000Y-92900000D01*
X170700000Y-88494880D02*
X171000000Y-88700000D01*
X178250000Y-89212000D02*
X178250000Y-96070000D01*
X178250000Y-96070000D02*
X176530000Y-97790000D01*
X178250000Y-89212000D02*
X178250000Y-89250000D01*
X178250000Y-89250000D02*
X176404160Y-91095840D01*
X176404160Y-91095840D02*
X174865280Y-91095840D01*
X159200000Y-93250000D02*
X159913602Y-93250000D01*
X166400000Y-92800000D02*
X167038000Y-92800000D01*
X164700000Y-94500000D02*
X166400000Y-92800000D01*
X160400000Y-92763602D02*
X160400000Y-91500000D01*
X159913602Y-93250000D02*
X160400000Y-92763602D01*
X169114720Y-88494880D02*
X168105120Y-88494880D01*
X167800000Y-88800000D02*
X167800000Y-90000000D01*
X168105120Y-88494880D02*
X167800000Y-88800000D01*
X169114720Y-89795360D02*
X168004640Y-89795360D01*
X167038000Y-91662000D02*
X167038000Y-92800000D01*
X167800000Y-90000000D02*
X167800000Y-90900000D01*
X167800000Y-90900000D02*
X167038000Y-91662000D01*
X168004640Y-89795360D02*
X167800000Y-90000000D01*
X145500000Y-89838000D02*
X145500000Y-89800000D01*
X145500000Y-89800000D02*
X146600000Y-88700000D01*
X150250000Y-89950000D02*
X150250000Y-90800000D01*
X150000000Y-89700000D02*
X150250000Y-89950000D01*
X148800000Y-89700000D02*
X150000000Y-89700000D01*
X148700000Y-89800000D02*
X148800000Y-89700000D01*
X159200000Y-93250000D02*
X158250000Y-93250000D01*
X154100000Y-93600000D02*
X153100000Y-93600000D01*
X154300000Y-93800000D02*
X154100000Y-93600000D01*
X157700000Y-93800000D02*
X154300000Y-93800000D01*
X158250000Y-93250000D02*
X157700000Y-93800000D01*
X150250000Y-90800000D02*
X150250000Y-93950000D01*
X148500002Y-98299998D02*
X147800000Y-98299998D01*
X149000000Y-97800000D02*
X148500002Y-98299998D01*
X149000000Y-95400000D02*
X149000000Y-97800000D01*
X149100000Y-95300000D02*
X149000000Y-95400000D01*
X152949998Y-93600000D02*
X153100000Y-93600000D01*
X152400000Y-94149998D02*
X152949998Y-93600000D01*
X150449998Y-94149998D02*
X152400000Y-94149998D01*
X150250000Y-93950000D02*
X150449998Y-94149998D01*
X147800000Y-98299998D02*
X147800000Y-98250000D01*
X150250000Y-102200000D02*
X150250000Y-103113602D01*
X138949000Y-103700000D02*
X136549000Y-101300000D01*
X149663602Y-103700000D02*
X138949000Y-103700000D01*
X150250000Y-103113602D02*
X149663602Y-103700000D01*
X138300000Y-87162000D02*
X138300000Y-88762000D01*
X138300000Y-88762000D02*
X138262000Y-88800000D01*
X140000000Y-88800000D02*
X144462000Y-88800000D01*
X144462000Y-88800000D02*
X145500000Y-89838000D01*
X138300000Y-87162000D02*
X138776000Y-87162000D01*
X138776000Y-87162000D02*
X140300000Y-85638000D01*
X124968000Y-87630000D02*
X124968000Y-88668000D01*
X140000000Y-88800000D02*
X138362000Y-87162000D01*
X125400000Y-89100000D02*
X134100000Y-89100000D01*
X124968000Y-88668000D02*
X125400000Y-89100000D01*
X138362000Y-87162000D02*
X138300000Y-87162000D01*
X137100000Y-98800000D02*
X138338000Y-98800000D01*
X136400000Y-98100000D02*
X137100000Y-98800000D01*
X136549000Y-101300000D02*
X136549000Y-100589000D01*
X136549000Y-100589000D02*
X138338000Y-98800000D01*
X136738000Y-93500000D02*
X135900000Y-93500000D01*
X124968000Y-93868000D02*
X124968000Y-92710000D01*
X125800000Y-94700000D02*
X124968000Y-93868000D01*
X129100000Y-94700000D02*
X125800000Y-94700000D01*
X135900000Y-93500000D02*
X135100000Y-94300000D01*
X122000000Y-93080000D02*
X122000000Y-94400000D01*
X123300000Y-95870000D02*
X120110000Y-99060000D01*
X123300000Y-95700000D02*
X123300000Y-95870000D01*
X122000000Y-94400000D02*
X123300000Y-95700000D01*
X122000000Y-93080000D02*
X124598000Y-93080000D01*
X124598000Y-93080000D02*
X124968000Y-92710000D01*
X122000000Y-88000000D02*
X124598000Y-88000000D01*
X124598000Y-88000000D02*
X124968000Y-87630000D01*
X122000000Y-93080000D02*
X122000000Y-88000000D01*
X118362000Y-83400000D02*
X118362000Y-86638000D01*
X119880000Y-95200000D02*
X122000000Y-93080000D01*
X119400000Y-95200000D02*
X119880000Y-95200000D01*
X118200000Y-94000000D02*
X119400000Y-95200000D01*
X118200000Y-86800000D02*
X118200000Y-94000000D01*
X118362000Y-86638000D02*
X118200000Y-86800000D01*
X119951000Y-81000000D02*
X119951000Y-81811000D01*
X119951000Y-81811000D02*
X118362000Y-83400000D01*
X139950000Y-96400000D02*
X139950000Y-98712000D01*
X139950000Y-98712000D02*
X139862000Y-98800000D01*
X147800000Y-98750000D02*
X147150000Y-98750000D01*
X146200000Y-99700000D02*
X139950000Y-99700000D01*
X147150000Y-98750000D02*
X146200000Y-99700000D01*
X139912000Y-98750000D02*
X139862000Y-98800000D01*
X139950000Y-96400000D02*
X139950000Y-99700000D01*
X139950000Y-99700000D02*
X139950000Y-101201000D01*
X139950000Y-101201000D02*
X139851000Y-101300000D01*
D30*
X150750000Y-105600000D02*
X153400000Y-105600000D01*
X156800000Y-106000000D02*
X159200000Y-103500000D01*
X159200000Y-103500000D02*
X159200000Y-103000000D01*
X146512000Y-91462000D02*
X147538000Y-91462000D01*
X147538000Y-91462000D02*
X148200000Y-90800000D01*
D29*
X147800000Y-92750000D02*
X147800000Y-91200000D01*
X147800000Y-91200000D02*
X148200000Y-90800000D01*
X148200000Y-90800000D02*
X149750000Y-90800000D01*
D30*
X150750000Y-105500000D02*
X150750000Y-103650000D01*
D29*
X150750000Y-102200000D02*
X150750000Y-103650000D01*
X150750000Y-105500000D02*
X150750000Y-105600000D01*
D30*
X116649000Y-81000000D02*
X116649000Y-83211000D01*
D29*
X116649000Y-83211000D02*
X116838000Y-83400000D01*
D30*
X116840000Y-76130000D02*
X116840000Y-80809000D01*
D29*
X116840000Y-80809000D02*
X116649000Y-81000000D01*
D30*
X116838000Y-83400000D02*
X116838000Y-87918000D01*
D29*
X116838000Y-87918000D02*
X116920000Y-88000000D01*
D30*
X159600000Y-86400000D02*
X159624894Y-92299895D01*
X168562000Y-92462000D02*
X168000000Y-91900000D01*
D29*
X159624894Y-92299895D02*
X159200000Y-92750000D01*
X157250000Y-102200000D02*
X158400000Y-102200000D01*
X158400000Y-102200000D02*
X159200000Y-103000000D01*
X174240000Y-107700000D02*
X176530000Y-105410000D01*
X164100000Y-107700000D02*
X174240000Y-107700000D01*
X164000000Y-107800000D02*
X164100000Y-107700000D01*
X168562000Y-92800000D02*
X168562000Y-92462000D01*
X169114720Y-91095840D02*
X169114720Y-90445600D01*
D30*
X168562000Y-92800000D02*
X169300000Y-92800000D01*
X173700000Y-102580000D02*
X176530000Y-105410000D01*
X173700000Y-97200000D02*
X173700000Y-102580000D01*
X169300000Y-92800000D02*
X173700000Y-97200000D01*
X150750000Y-105600000D02*
X150750000Y-105650000D01*
X135700000Y-106200000D02*
X135100000Y-105600000D01*
X150200000Y-106200000D02*
X135700000Y-106200000D01*
X135100000Y-105600000D02*
X135100000Y-97700000D01*
X150750000Y-105650000D02*
X150200000Y-106200000D01*
X132229860Y-92710000D02*
X132229860Y-91370140D01*
X132229860Y-91370140D02*
X133200000Y-90400000D01*
X140200000Y-90600000D02*
X140300000Y-90500000D01*
X140300000Y-90500000D02*
X143300000Y-90500000D01*
X143300000Y-90500000D02*
X144162000Y-91362000D01*
X144162000Y-91362000D02*
X145500000Y-91362000D01*
X132229860Y-92710000D02*
X132200000Y-94200000D01*
X132200000Y-94200000D02*
X131300000Y-95100000D01*
X136400000Y-96400000D02*
X137250000Y-96400000D01*
X135100000Y-97700000D02*
X136400000Y-96400000D01*
D29*
X168562000Y-92800000D02*
X168562000Y-91648560D01*
X168562000Y-91648560D02*
X169114720Y-91095840D01*
D30*
X145300000Y-91462000D02*
X146512000Y-91462000D01*
X123190000Y-100838000D02*
X124062000Y-100838000D01*
X129800000Y-95100000D02*
X131300000Y-95100000D01*
X124062000Y-100838000D02*
X129800000Y-95100000D01*
D29*
X116110000Y-99060000D02*
X116110000Y-99110000D01*
D30*
X116110000Y-99110000D02*
X117838000Y-100838000D01*
X117838000Y-100838000D02*
X123190000Y-100838000D01*
X116110000Y-99060000D02*
X116110000Y-93890000D01*
X116110000Y-93890000D02*
X116920000Y-93080000D01*
X116920000Y-88000000D02*
X116920000Y-93080000D01*
D29*
X147800000Y-94250000D02*
X143850000Y-94250000D01*
X143850000Y-94250000D02*
X141000000Y-91400000D01*
X140300000Y-87162000D02*
X141992000Y-87162000D01*
X141992000Y-87162000D02*
X142600000Y-87770000D01*
X147800000Y-93750000D02*
X144650000Y-93750000D01*
X144650000Y-93750000D02*
X142300000Y-91400000D01*
X138300000Y-85638000D02*
X138300000Y-85400000D01*
X138300000Y-85400000D02*
X139000000Y-84700000D01*
X139000000Y-84700000D02*
X142070000Y-84700000D01*
X142070000Y-84700000D02*
X142600000Y-85230000D01*
X175662000Y-92800000D02*
X175662000Y-92362000D01*
X175662000Y-92362000D02*
X175000000Y-91700000D01*
X175000000Y-91700000D02*
X174000000Y-91700000D01*
X174000000Y-91700000D02*
X173700000Y-91400000D01*
X173700000Y-91400000D02*
X173700000Y-90800000D01*
X173700000Y-90800000D02*
X174054400Y-90445600D01*
X174054400Y-90445600D02*
X174865280Y-90445600D01*
X174865280Y-89145120D02*
X173654880Y-89145120D01*
X173000000Y-91662000D02*
X174138000Y-92800000D01*
X173000000Y-89800000D02*
X173000000Y-91662000D01*
X173654880Y-89145120D02*
X173000000Y-89800000D01*
X178250000Y-87688000D02*
X177912000Y-87688000D01*
X177912000Y-87688000D02*
X176550000Y-89050000D01*
X176550000Y-89050000D02*
X176550000Y-89550000D01*
X176550000Y-89550000D02*
X176304640Y-89795360D01*
X176304640Y-89795360D02*
X174865280Y-89795360D01*
X174865280Y-87194400D02*
X173094400Y-87194400D01*
X173094400Y-87194400D02*
X172550000Y-86650000D01*
X172550000Y-86650000D02*
X172550000Y-84912000D01*
X172550000Y-84912000D02*
X172512000Y-84950000D01*
X174865280Y-88494880D02*
X176305120Y-88494880D01*
X177000000Y-87400000D02*
X178362000Y-86038000D01*
X177000000Y-87800000D02*
X177000000Y-87400000D01*
X176305120Y-88494880D02*
X177000000Y-87800000D01*
X178362000Y-86038000D02*
X178362000Y-85500000D01*
X176788000Y-85450000D02*
X176788000Y-86712000D01*
X176788000Y-86712000D02*
X176450000Y-87050000D01*
X176450000Y-87050000D02*
X176450000Y-87650000D01*
X176450000Y-87650000D02*
X176255360Y-87844640D01*
X176255360Y-87844640D02*
X174865280Y-87844640D01*
X129390140Y-92710000D02*
X126492000Y-92710000D01*
X132229860Y-87630000D02*
X133508000Y-87630000D01*
X133508000Y-87630000D02*
X134738000Y-86400000D01*
X119460000Y-88000000D02*
X119460000Y-87140000D01*
X119460000Y-87140000D02*
X120700000Y-85900000D01*
X130499860Y-85900000D02*
X132229860Y-87630000D01*
X120700000Y-85900000D02*
X130499860Y-85900000D01*
X119460000Y-88000000D02*
X119460000Y-93080000D01*
X126492000Y-87630000D02*
X129390140Y-87630000D01*
X150700000Y-95100000D02*
X155750002Y-95100000D01*
X148550000Y-99250000D02*
X149800000Y-98000000D01*
X149800000Y-98000000D02*
X149800000Y-96000000D01*
X149800000Y-96000000D02*
X150700000Y-95100000D01*
X165500000Y-96400000D02*
X171700000Y-96400000D01*
X148550000Y-99250000D02*
X147800000Y-99250000D01*
X155950002Y-95300000D02*
X157800000Y-95300000D01*
X155750002Y-95100000D02*
X155950002Y-95300000D01*
X165500000Y-97500000D02*
X165600000Y-97400000D01*
X165600000Y-97400000D02*
X171700000Y-97400000D01*
X151000000Y-95600000D02*
X155600000Y-95600000D01*
X148850000Y-99750000D02*
X150300000Y-98300000D01*
X150300000Y-98300000D02*
X150300000Y-96300000D01*
X150300000Y-96300000D02*
X151000000Y-95600000D01*
X147800000Y-99750000D02*
X148850000Y-99750000D01*
X157700000Y-96000000D02*
X157800000Y-96100000D01*
X156000000Y-96000000D02*
X157700000Y-96000000D01*
X155600000Y-95600000D02*
X156000000Y-96000000D01*
X165500000Y-98700000D02*
X171800000Y-98700000D01*
X171800000Y-98700000D02*
X171700000Y-98600000D01*
X165500000Y-98700000D02*
X165500000Y-98700000D01*
X157400000Y-96600000D02*
X157800000Y-97000000D01*
X155800000Y-96600000D02*
X157400000Y-96600000D01*
X155300000Y-96100000D02*
X155800000Y-96600000D01*
X151300000Y-96100000D02*
X155300000Y-96100000D01*
X150800000Y-98600000D02*
X150800000Y-96600000D01*
X147800000Y-100250000D02*
X149150000Y-100250000D01*
X149150000Y-100250000D02*
X150800000Y-98600000D01*
X150800000Y-96600000D02*
X151300000Y-96100000D01*
X155500000Y-97100000D02*
X156900000Y-97100000D01*
X156900000Y-97100000D02*
X157600000Y-97800000D01*
X157600000Y-97800000D02*
X157800000Y-97800000D01*
X151650000Y-96650000D02*
X155050000Y-96650000D01*
X165600000Y-99900000D02*
X171700000Y-99900000D01*
X151300000Y-97000000D02*
X151650000Y-96650000D01*
X151300000Y-98900000D02*
X151300000Y-97000000D01*
X149750000Y-100450000D02*
X151300000Y-98900000D01*
X149750000Y-102200000D02*
X149750000Y-100450000D01*
X155050000Y-96650000D02*
X155500000Y-97100000D01*
X155300000Y-97600000D02*
X156400000Y-97600000D01*
X154900000Y-97200000D02*
X155300000Y-97600000D01*
X151250000Y-102200000D02*
X151250000Y-99750000D01*
X165600000Y-101100000D02*
X171700000Y-101100000D01*
X151800000Y-99200000D02*
X151800000Y-97200000D01*
X151250000Y-99750000D02*
X151800000Y-99200000D01*
X151800000Y-97200000D02*
X154900000Y-97200000D01*
X157400000Y-98600000D02*
X157800000Y-98600000D01*
X156400000Y-97600000D02*
X157400000Y-98600000D01*
X151750000Y-102200000D02*
X151750000Y-99950000D01*
X171800000Y-102100000D02*
X171700000Y-102100000D01*
X165500000Y-102100000D02*
X171800000Y-102100000D01*
X157400000Y-99500000D02*
X157800000Y-99500000D01*
X156000000Y-98100000D02*
X157400000Y-99500000D01*
X154900000Y-98100000D02*
X156000000Y-98100000D01*
X154500000Y-97700000D02*
X154900000Y-98100000D01*
X152500000Y-97700000D02*
X154500000Y-97700000D01*
X152300000Y-97900000D02*
X152500000Y-97700000D01*
X152300000Y-99400000D02*
X152300000Y-97900000D01*
X151750000Y-99950000D02*
X152300000Y-99400000D01*
X152250000Y-100150000D02*
X152800000Y-99600000D01*
X152800000Y-99600000D02*
X152800000Y-98700000D01*
X152800000Y-98700000D02*
X153300000Y-98200000D01*
X153300000Y-98200000D02*
X154200000Y-98200000D01*
X154200000Y-98200000D02*
X154600000Y-98600000D01*
X154600000Y-98600000D02*
X155700000Y-98600000D01*
X155700000Y-98600000D02*
X157400000Y-100300000D01*
X157400000Y-100300000D02*
X157800000Y-100300000D01*
X165500000Y-103200000D02*
X171700000Y-103200000D01*
X152250000Y-102200000D02*
X152250000Y-100150000D01*
X152750000Y-102200000D02*
X152750000Y-100350000D01*
X152750000Y-100350000D02*
X154000000Y-99100000D01*
X154000000Y-99100000D02*
X155500000Y-99100000D01*
X155500000Y-99100000D02*
X157800000Y-101400000D01*
X165500000Y-104400000D02*
X168400000Y-104400000D01*
X164400000Y-80400000D02*
X161900000Y-77800000D01*
X164400000Y-86800000D02*
X164400000Y-93600000D01*
X161900000Y-77800000D02*
X159080000Y-77800000D01*
X157460000Y-76180000D02*
X159080000Y-77800000D01*
X161750000Y-96250000D02*
X159200000Y-96250000D01*
X164300000Y-93700000D02*
X161750000Y-96250000D01*
X164400000Y-93600000D02*
X164300000Y-93700000D01*
X158300000Y-78300000D02*
X157040000Y-78300000D01*
X157040000Y-78300000D02*
X154940000Y-76200000D01*
X161350000Y-95750000D02*
X159200000Y-95750000D01*
X163700000Y-93400000D02*
X161350000Y-95750000D01*
X163700000Y-83000000D02*
X163700000Y-93400000D01*
X163700000Y-83000000D02*
X163700000Y-83000000D01*
X164000000Y-83000000D02*
X163700000Y-83000000D01*
X167800000Y-86800000D02*
X164000000Y-83000000D01*
X167800000Y-87400000D02*
X167800000Y-86800000D01*
X168244640Y-87844640D02*
X167800000Y-87400000D01*
X169114720Y-87844640D02*
X168244640Y-87844640D01*
X169114720Y-87844640D02*
X170155360Y-87844640D01*
X161000000Y-78300000D02*
X158300000Y-78300000D01*
X158300000Y-78300000D02*
X158200000Y-78300000D01*
X168300000Y-85600000D02*
X161000000Y-78300000D01*
X169800000Y-85600000D02*
X168300000Y-85600000D01*
X170200000Y-86000000D02*
X169800000Y-85600000D01*
X170200000Y-87800000D02*
X170200000Y-86000000D01*
X170155360Y-87844640D02*
X170200000Y-87800000D01*
X169070080Y-87800000D02*
X169114720Y-87844640D01*
X163000000Y-93100000D02*
X163000000Y-81000000D01*
X160850000Y-95250000D02*
X163000000Y-93100000D01*
X159200000Y-95250000D02*
X160850000Y-95250000D01*
X163000000Y-81000000D02*
X161100000Y-79100000D01*
X169114720Y-86544160D02*
X168544160Y-86544160D01*
X168544160Y-86544160D02*
X163000000Y-81000000D01*
X155300000Y-79100000D02*
X152400000Y-76200000D01*
X161100000Y-79100000D02*
X155300000Y-79100000D01*
X159200000Y-94750000D02*
X160650000Y-94750000D01*
X153260000Y-79600000D02*
X149810000Y-76150000D01*
X160800000Y-79600000D02*
X153260000Y-79600000D01*
X162300000Y-81100000D02*
X160800000Y-79600000D01*
X162300000Y-93100000D02*
X162300000Y-81100000D01*
X160650000Y-94750000D02*
X162300000Y-93100000D01*
X159200000Y-94250000D02*
X160350000Y-94250000D01*
X151220000Y-80100000D02*
X147320000Y-76200000D01*
X160600000Y-80100000D02*
X151220000Y-80100000D01*
X161700000Y-81200000D02*
X160600000Y-80100000D01*
X161700000Y-92900000D02*
X161700000Y-81200000D01*
X160350000Y-94250000D02*
X161700000Y-92900000D01*
X147700000Y-77900000D02*
X146480000Y-77900000D01*
X160050000Y-93750000D02*
X161200000Y-92600000D01*
X161200000Y-92600000D02*
X161200000Y-81400000D01*
X161200000Y-81400000D02*
X160500000Y-80700000D01*
X160500000Y-80700000D02*
X150500000Y-80700000D01*
X150500000Y-80700000D02*
X147700000Y-77900000D01*
X159200000Y-93750000D02*
X160050000Y-93750000D01*
X146480000Y-77900000D02*
X144780000Y-76200000D01*
X147400000Y-78400000D02*
X144200000Y-78400000D01*
X144200000Y-78400000D02*
X142100000Y-76300000D01*
X150249998Y-81249998D02*
X147400000Y-78400000D01*
X154249998Y-81249998D02*
X150249998Y-81249998D01*
X158900000Y-85900000D02*
X154249998Y-81249998D01*
X158900000Y-88800000D02*
X158900000Y-85900000D01*
X157250000Y-90800000D02*
X157250000Y-90450000D01*
X157250000Y-90450000D02*
X158900000Y-88800000D01*
X156750000Y-90800000D02*
X156750000Y-90150000D01*
X142300000Y-78900000D02*
X139700000Y-76300000D01*
X147200000Y-78900000D02*
X142300000Y-78900000D01*
X150100000Y-81800000D02*
X147200000Y-78900000D01*
X153800000Y-81800000D02*
X150100000Y-81800000D01*
X158400000Y-86400000D02*
X153800000Y-81800000D01*
X158400000Y-88500000D02*
X158400000Y-86400000D01*
X156750000Y-90150000D02*
X158400000Y-88500000D01*
X155100000Y-100300000D02*
X155600000Y-100800000D01*
X155600000Y-100800000D02*
X155600000Y-101000000D01*
X154500000Y-100300000D02*
X155100000Y-100300000D01*
X154250000Y-101350000D02*
X154100000Y-101200000D01*
X154100000Y-101200000D02*
X154100000Y-100700000D01*
X154100000Y-100700000D02*
X154500000Y-100300000D01*
X154250000Y-102200000D02*
X154250000Y-101350000D01*
X154750000Y-102200000D02*
X154750000Y-101050000D01*
X154750000Y-101050000D02*
X154800000Y-101000000D01*
X155250000Y-102200000D02*
X155250000Y-104950000D01*
X153400000Y-106800000D02*
X122600000Y-106800000D01*
X155250000Y-104950000D02*
X153400000Y-106800000D01*
X118872000Y-96520000D02*
X121280000Y-96520000D01*
X121280000Y-96520000D02*
X121400000Y-96400000D01*
X154250000Y-90800000D02*
X154250000Y-89050000D01*
X129540000Y-80540000D02*
X129540000Y-76130000D01*
X130800000Y-81800000D02*
X129540000Y-80540000D01*
X146949998Y-81749998D02*
X130849998Y-81749998D01*
X154250000Y-89050000D02*
X146949998Y-81749998D01*
X127500000Y-82300000D02*
X146800000Y-82300000D01*
X127000000Y-76130000D02*
X127000000Y-81800000D01*
X153750000Y-89250000D02*
X153750000Y-90800000D01*
X146800000Y-82300000D02*
X153750000Y-89250000D01*
X127000000Y-81800000D02*
X127500000Y-82300000D01*
X153250000Y-90800000D02*
X153250000Y-89850000D01*
X124460000Y-80560000D02*
X124460000Y-76130000D01*
X126700000Y-82800000D02*
X124460000Y-80560000D01*
X146200000Y-82800000D02*
X126700000Y-82800000D01*
X153250000Y-89850000D02*
X146200000Y-82800000D01*
X126100000Y-83300000D02*
X145900000Y-83300000D01*
X121920000Y-76130000D02*
X121920000Y-79120000D01*
X152750000Y-90150000D02*
X152750000Y-90800000D01*
X145900000Y-83300000D02*
X152750000Y-90150000D01*
X121920000Y-79120000D02*
X126100000Y-83300000D01*
X130100000Y-95900000D02*
X130000000Y-95900000D01*
X130000000Y-95900000D02*
X123538000Y-102362000D01*
X123538000Y-102362000D02*
X123190000Y-102362000D01*
X119380000Y-77780000D02*
X125400000Y-83800000D01*
X125400000Y-83800000D02*
X133600000Y-83800000D01*
X133600000Y-83800000D02*
X135400000Y-85600000D01*
X135400000Y-85600000D02*
X135400000Y-92100000D01*
X135400000Y-92100000D02*
X131600000Y-95900000D01*
X131600000Y-95900000D02*
X130100000Y-95900000D01*
X130100000Y-95900000D02*
X130052000Y-95900000D01*
X119380000Y-76230000D02*
X119380000Y-77780000D01*
X147800000Y-95750000D02*
X142650000Y-95750000D01*
X126828000Y-106000000D02*
X123190000Y-102362000D01*
X131400000Y-106000000D02*
X126828000Y-106000000D01*
X134000000Y-103400000D02*
X131400000Y-106000000D01*
X134000000Y-97300000D02*
X134000000Y-103400000D01*
X136149998Y-95150002D02*
X134000000Y-97300000D01*
X142050002Y-95150002D02*
X136149998Y-95150002D01*
X142650000Y-95750000D02*
X142050002Y-95150002D01*
X120310000Y-108410000D02*
X120310000Y-102410000D01*
X120310000Y-102410000D02*
X120358000Y-102362000D01*
X120358000Y-102362000D02*
X123190000Y-102362000D01*
X154750000Y-90800000D02*
X154750000Y-91450000D01*
X164300000Y-109300000D02*
X170260000Y-109300000D01*
X163600000Y-108800000D02*
X164300000Y-109300000D01*
X170260000Y-109300000D02*
X175260000Y-114300000D01*
X156400000Y-93100000D02*
X156800000Y-93100000D01*
X154750000Y-91450000D02*
X156400000Y-93100000D01*
X147800000Y-93250000D02*
X148450000Y-93250000D01*
X172720000Y-112920000D02*
X172720000Y-114300000D01*
X169800000Y-110000000D02*
X172720000Y-112920000D01*
X163700000Y-110100000D02*
X169800000Y-110000000D01*
X163600000Y-110000000D02*
X163700000Y-110100000D01*
X149800000Y-94600000D02*
X156300000Y-94600000D01*
X148450000Y-93250000D02*
X149800000Y-94600000D01*
X155250000Y-88150000D02*
X155700000Y-87700000D01*
X155250000Y-88150000D02*
X155250000Y-90800000D01*
X155750000Y-90800000D02*
X155750000Y-89050000D01*
X155750000Y-89050000D02*
X156400000Y-88400000D01*
X156250000Y-90800000D02*
X156250000Y-89750000D01*
X156250000Y-89750000D02*
X157100000Y-88900000D01*
X159200000Y-96750000D02*
X162850000Y-96750000D01*
X162560000Y-107840000D02*
X162560000Y-114300000D01*
X164800000Y-105600000D02*
X162560000Y-107840000D01*
X164800000Y-98700000D02*
X164800000Y-105600000D01*
X162850000Y-96750000D02*
X164800000Y-98700000D01*
X159200000Y-97250000D02*
X162550000Y-97250000D01*
X160020000Y-109380000D02*
X160020000Y-114300000D01*
X164200000Y-105200000D02*
X160020000Y-109380000D01*
X164200000Y-98900000D02*
X164200000Y-105200000D01*
X162550000Y-97250000D02*
X164200000Y-98900000D01*
X159200000Y-97750000D02*
X162250000Y-97750000D01*
X157480000Y-111020000D02*
X157480000Y-114300000D01*
X163700000Y-104800000D02*
X157480000Y-111020000D01*
X163700000Y-99200000D02*
X163700000Y-104800000D01*
X162250000Y-97750000D02*
X163700000Y-99200000D01*
X159200000Y-98250000D02*
X161850000Y-98250000D01*
X154900000Y-112600000D02*
X154900000Y-114260000D01*
X163100000Y-104400000D02*
X154900000Y-112600000D01*
X163100000Y-99500000D02*
X163100000Y-104400000D01*
X161850000Y-98250000D02*
X163100000Y-99500000D01*
X154900000Y-114260000D02*
X154940000Y-114300000D01*
X153750000Y-104150000D02*
X153700000Y-104200000D01*
X153750000Y-102200000D02*
X153750000Y-104150000D01*
X153250000Y-102200000D02*
X153250000Y-103350000D01*
X153250000Y-103350000D02*
X152500000Y-104100000D01*
X147150000Y-97750000D02*
X145900000Y-99000000D01*
X147800000Y-97750000D02*
X147150000Y-97750000D01*
X146650000Y-97250000D02*
X145900000Y-98000000D01*
X147800000Y-97250000D02*
X146650000Y-97250000D01*
X146050000Y-96750000D02*
X145600000Y-97200000D01*
X147800000Y-96750000D02*
X146050000Y-96750000D01*
X147800000Y-96250000D02*
X144850000Y-96250000D01*
X144850000Y-96250000D02*
X144400000Y-96700000D01*
X138640541Y-112400000D02*
X137100000Y-114300000D01*
X154100000Y-112400000D02*
X138640541Y-112400000D01*
X162600000Y-103900000D02*
X154100000Y-112400000D01*
X162600000Y-99900000D02*
X162600000Y-103900000D01*
X161450000Y-98750000D02*
X162600000Y-99900000D01*
X159200000Y-98750000D02*
X161450000Y-98750000D01*
X159200000Y-99250000D02*
X161050000Y-99250000D01*
X134620000Y-112680000D02*
X134620000Y-114300000D01*
X135500000Y-111800000D02*
X134620000Y-112680000D01*
X153900000Y-111800000D02*
X135500000Y-111800000D01*
X162000000Y-103700000D02*
X153900000Y-111800000D01*
X162000000Y-100200000D02*
X162000000Y-103700000D01*
X161050000Y-99250000D02*
X162000000Y-100200000D01*
X159200000Y-99750000D02*
X160899998Y-99750000D01*
X132080000Y-112420000D02*
X132080000Y-114300000D01*
X133300000Y-111200000D02*
X132080000Y-112420000D01*
X153800000Y-111200000D02*
X133300000Y-111200000D01*
X161500000Y-103500000D02*
X153800000Y-111200000D01*
X161500000Y-100350002D02*
X161500000Y-103500000D01*
X160899998Y-99750000D02*
X161500000Y-100350002D01*
X159200000Y-100250000D02*
X160450000Y-100250000D01*
X129540000Y-112560000D02*
X129540000Y-114300000D01*
X131500000Y-110600000D02*
X129540000Y-112560000D01*
X153700000Y-110600000D02*
X131500000Y-110600000D01*
X160900000Y-103400000D02*
X153700000Y-110600000D01*
X160900000Y-100700000D02*
X160900000Y-103400000D01*
X160450000Y-100250000D02*
X160900000Y-100700000D01*
X156250000Y-102200000D02*
X156250000Y-105550000D01*
X127000000Y-112400000D02*
X127000000Y-114300000D01*
X129400000Y-110000000D02*
X127000000Y-112400000D01*
X151800000Y-110000000D02*
X129400000Y-110000000D01*
X156250000Y-105550000D02*
X151800000Y-110000000D01*
X155750000Y-102200000D02*
X155750000Y-105250000D01*
X124460000Y-112440000D02*
X124460000Y-114300000D01*
X127500000Y-109400000D02*
X124460000Y-112440000D01*
X151600000Y-109400000D02*
X127500000Y-109400000D01*
X155750000Y-105250000D02*
X151600000Y-109400000D01*
X150750000Y-90800000D02*
X150750000Y-93250000D01*
X150750000Y-93250000D02*
X151000000Y-93500000D01*
X151250000Y-90800000D02*
X151250000Y-92450000D01*
X151250000Y-92450000D02*
X151800000Y-93000000D01*
X152250000Y-90800000D02*
X152250000Y-91750000D01*
X152250000Y-91750000D02*
X152700000Y-92200000D01*
X174865280Y-86544160D02*
X174865280Y-85634720D01*
X179500000Y-99900000D02*
X176530000Y-102870000D01*
X179500000Y-84900000D02*
X179500000Y-99900000D01*
X178700000Y-84100000D02*
X179500000Y-84900000D01*
X176400000Y-84100000D02*
X178700000Y-84100000D01*
X174865280Y-85634720D02*
X176400000Y-84100000D01*
X151750000Y-90800000D02*
X151750000Y-90150000D01*
X137262000Y-87400000D02*
X136262000Y-86400000D01*
X137400000Y-87538000D02*
X137262000Y-87400000D01*
X137400000Y-89400000D02*
X137400000Y-87538000D01*
X137800000Y-89800000D02*
X137400000Y-89400000D01*
X143800000Y-89800000D02*
X137800000Y-89800000D01*
X144600000Y-90600000D02*
X143800000Y-89800000D01*
X146300000Y-90600000D02*
X144600000Y-90600000D01*
X147900000Y-89000000D02*
X146300000Y-90600000D01*
X150600000Y-89000000D02*
X147900000Y-89000000D01*
X151750000Y-90150000D02*
X150600000Y-89000000D01*
X168569600Y-89145120D02*
X170100000Y-89145120D01*
X174300000Y-99200000D02*
X175430000Y-100330000D01*
X174300000Y-96900000D02*
X174300000Y-99200000D01*
X170400000Y-93000000D02*
X174300000Y-96900000D01*
X170400000Y-89390240D02*
X170400000Y-93000000D01*
X170100000Y-89145120D02*
X170400000Y-89390240D01*
X175430000Y-100330000D02*
X176530000Y-100330000D01*
X117348000Y-96520000D02*
X117348000Y-98298000D01*
X117348000Y-98298000D02*
X118110000Y-99060000D01*
D31*
G36*
X179315000Y-115315000D02*
X179298600Y-115315000D01*
X179298600Y-114585750D01*
X179139850Y-114427000D01*
X177927000Y-114427000D01*
X177927000Y-114447000D01*
X177673000Y-114447000D01*
X177673000Y-114427000D01*
X177653000Y-114427000D01*
X177653000Y-114173000D01*
X177673000Y-114173000D01*
X177673000Y-112807750D01*
X177927000Y-112807750D01*
X177927000Y-114173000D01*
X179139850Y-114173000D01*
X179298600Y-114014250D01*
X179298600Y-113157691D01*
X179201927Y-112924302D01*
X179023299Y-112745673D01*
X178789910Y-112649000D01*
X178085750Y-112649000D01*
X177927000Y-112807750D01*
X177673000Y-112807750D01*
X177514250Y-112649000D01*
X176810090Y-112649000D01*
X176576701Y-112745673D01*
X176398073Y-112924302D01*
X176334500Y-113077780D01*
X176319670Y-113055585D01*
X175833489Y-112730729D01*
X175260000Y-112616655D01*
X174752421Y-112717619D01*
X170797401Y-108762599D01*
X170550839Y-108597852D01*
X170260000Y-108540000D01*
X164582153Y-108540000D01*
X164662293Y-108460000D01*
X174240000Y-108460000D01*
X174530839Y-108402148D01*
X174777401Y-108237401D01*
X176216692Y-106798110D01*
X177326354Y-106798110D01*
X177857561Y-106692446D01*
X178307896Y-106391542D01*
X178608800Y-105941207D01*
X178714464Y-105410000D01*
X178608800Y-104878793D01*
X178307896Y-104428458D01*
X177876188Y-104140000D01*
X178307896Y-103851542D01*
X178608800Y-103401207D01*
X178714464Y-102870000D01*
X178608800Y-102338793D01*
X178419427Y-102055375D01*
X179315000Y-101159802D01*
X179315000Y-115315000D01*
X179315000Y-115315000D01*
G37*
X179315000Y-115315000D02*
X179298600Y-115315000D01*
X179298600Y-114585750D01*
X179139850Y-114427000D01*
X177927000Y-114427000D01*
X177927000Y-114447000D01*
X177673000Y-114447000D01*
X177673000Y-114427000D01*
X177653000Y-114427000D01*
X177653000Y-114173000D01*
X177673000Y-114173000D01*
X177673000Y-112807750D01*
X177927000Y-112807750D01*
X177927000Y-114173000D01*
X179139850Y-114173000D01*
X179298600Y-114014250D01*
X179298600Y-113157691D01*
X179201927Y-112924302D01*
X179023299Y-112745673D01*
X178789910Y-112649000D01*
X178085750Y-112649000D01*
X177927000Y-112807750D01*
X177673000Y-112807750D01*
X177514250Y-112649000D01*
X176810090Y-112649000D01*
X176576701Y-112745673D01*
X176398073Y-112924302D01*
X176334500Y-113077780D01*
X176319670Y-113055585D01*
X175833489Y-112730729D01*
X175260000Y-112616655D01*
X174752421Y-112717619D01*
X170797401Y-108762599D01*
X170550839Y-108597852D01*
X170260000Y-108540000D01*
X164582153Y-108540000D01*
X164662293Y-108460000D01*
X174240000Y-108460000D01*
X174530839Y-108402148D01*
X174777401Y-108237401D01*
X176216692Y-106798110D01*
X177326354Y-106798110D01*
X177857561Y-106692446D01*
X178307896Y-106391542D01*
X178608800Y-105941207D01*
X178714464Y-105410000D01*
X178608800Y-104878793D01*
X178307896Y-104428458D01*
X177876188Y-104140000D01*
X178307896Y-103851542D01*
X178608800Y-103401207D01*
X178714464Y-102870000D01*
X178608800Y-102338793D01*
X178419427Y-102055375D01*
X179315000Y-101159802D01*
X179315000Y-115315000D01*
G36*
X115843287Y-100394768D02*
X116143450Y-100395030D01*
X117212208Y-101463787D01*
X117212210Y-101463790D01*
X117499325Y-101655633D01*
X117555516Y-101666810D01*
X117838000Y-101723001D01*
X117838005Y-101723000D01*
X119151375Y-101723000D01*
X118976732Y-102143587D01*
X118976269Y-102674086D01*
X119178854Y-103164380D01*
X119550000Y-103536174D01*
X119550000Y-107284464D01*
X119180173Y-107653647D01*
X118976732Y-108143587D01*
X118976269Y-108674086D01*
X119178854Y-109164380D01*
X119553647Y-109539827D01*
X120043587Y-109743268D01*
X120574086Y-109743731D01*
X121064380Y-109541146D01*
X121439827Y-109166353D01*
X121643268Y-108676413D01*
X121643731Y-108145914D01*
X121441146Y-107655620D01*
X121070000Y-107283826D01*
X121070000Y-103535536D01*
X121439827Y-103166353D01*
X121458244Y-103122000D01*
X122148657Y-103122000D01*
X122154410Y-103130941D01*
X122366610Y-103275931D01*
X122618500Y-103326940D01*
X123080138Y-103326940D01*
X125793198Y-106040000D01*
X123162463Y-106040000D01*
X123130327Y-106007808D01*
X122786799Y-105865162D01*
X122414833Y-105864838D01*
X122071057Y-106006883D01*
X121807808Y-106269673D01*
X121665162Y-106613201D01*
X121664838Y-106985167D01*
X121806883Y-107328943D01*
X122069673Y-107592192D01*
X122413201Y-107734838D01*
X122785167Y-107735162D01*
X123128943Y-107593117D01*
X123162118Y-107560000D01*
X152365198Y-107560000D01*
X151285198Y-108640000D01*
X127500000Y-108640000D01*
X127209160Y-108697852D01*
X126962599Y-108862599D01*
X123922599Y-111902599D01*
X123757852Y-112149161D01*
X123700000Y-112440000D01*
X123700000Y-112855352D01*
X123400330Y-113055585D01*
X123190000Y-113370366D01*
X122979670Y-113055585D01*
X122493489Y-112730729D01*
X121920000Y-112616655D01*
X121346511Y-112730729D01*
X120860330Y-113055585D01*
X120650000Y-113370366D01*
X120439670Y-113055585D01*
X119953489Y-112730729D01*
X119380000Y-112616655D01*
X118806511Y-112730729D01*
X118320330Y-113055585D01*
X118110000Y-113370366D01*
X117899670Y-113055585D01*
X117413489Y-112730729D01*
X116840000Y-112616655D01*
X116266511Y-112730729D01*
X115780330Y-113055585D01*
X115685000Y-113198256D01*
X115685000Y-109744495D01*
X115717480Y-109755927D01*
X116247199Y-109727148D01*
X116602929Y-109579800D01*
X116664583Y-109344188D01*
X115910000Y-108589605D01*
X115895858Y-108603748D01*
X115716253Y-108424143D01*
X115730395Y-108410000D01*
X116089605Y-108410000D01*
X116844188Y-109164583D01*
X117079800Y-109102929D01*
X117255927Y-108602520D01*
X117227148Y-108072801D01*
X117079800Y-107717071D01*
X116844188Y-107655417D01*
X116089605Y-108410000D01*
X115730395Y-108410000D01*
X115716253Y-108395858D01*
X115895858Y-108216253D01*
X115910000Y-108230395D01*
X116664583Y-107475812D01*
X116602929Y-107240200D01*
X116102520Y-107064073D01*
X115685000Y-107086756D01*
X115685000Y-103744495D01*
X115717480Y-103755927D01*
X116247199Y-103727148D01*
X116602929Y-103579800D01*
X116664583Y-103344188D01*
X115910000Y-102589605D01*
X115895858Y-102603748D01*
X115716253Y-102424143D01*
X115730395Y-102410000D01*
X116089605Y-102410000D01*
X116844188Y-103164583D01*
X117079800Y-103102929D01*
X117255927Y-102602520D01*
X117227148Y-102072801D01*
X117079800Y-101717071D01*
X116844188Y-101655417D01*
X116089605Y-102410000D01*
X115730395Y-102410000D01*
X115716253Y-102395858D01*
X115895858Y-102216253D01*
X115910000Y-102230395D01*
X116664583Y-101475812D01*
X116602929Y-101240200D01*
X116102520Y-101064073D01*
X115685000Y-101086756D01*
X115685000Y-100329041D01*
X115843287Y-100394768D01*
X115843287Y-100394768D01*
G37*
X115843287Y-100394768D02*
X116143450Y-100395030D01*
X117212208Y-101463787D01*
X117212210Y-101463790D01*
X117499325Y-101655633D01*
X117555516Y-101666810D01*
X117838000Y-101723001D01*
X117838005Y-101723000D01*
X119151375Y-101723000D01*
X118976732Y-102143587D01*
X118976269Y-102674086D01*
X119178854Y-103164380D01*
X119550000Y-103536174D01*
X119550000Y-107284464D01*
X119180173Y-107653647D01*
X118976732Y-108143587D01*
X118976269Y-108674086D01*
X119178854Y-109164380D01*
X119553647Y-109539827D01*
X120043587Y-109743268D01*
X120574086Y-109743731D01*
X121064380Y-109541146D01*
X121439827Y-109166353D01*
X121643268Y-108676413D01*
X121643731Y-108145914D01*
X121441146Y-107655620D01*
X121070000Y-107283826D01*
X121070000Y-103535536D01*
X121439827Y-103166353D01*
X121458244Y-103122000D01*
X122148657Y-103122000D01*
X122154410Y-103130941D01*
X122366610Y-103275931D01*
X122618500Y-103326940D01*
X123080138Y-103326940D01*
X125793198Y-106040000D01*
X123162463Y-106040000D01*
X123130327Y-106007808D01*
X122786799Y-105865162D01*
X122414833Y-105864838D01*
X122071057Y-106006883D01*
X121807808Y-106269673D01*
X121665162Y-106613201D01*
X121664838Y-106985167D01*
X121806883Y-107328943D01*
X122069673Y-107592192D01*
X122413201Y-107734838D01*
X122785167Y-107735162D01*
X123128943Y-107593117D01*
X123162118Y-107560000D01*
X152365198Y-107560000D01*
X151285198Y-108640000D01*
X127500000Y-108640000D01*
X127209160Y-108697852D01*
X126962599Y-108862599D01*
X123922599Y-111902599D01*
X123757852Y-112149161D01*
X123700000Y-112440000D01*
X123700000Y-112855352D01*
X123400330Y-113055585D01*
X123190000Y-113370366D01*
X122979670Y-113055585D01*
X122493489Y-112730729D01*
X121920000Y-112616655D01*
X121346511Y-112730729D01*
X120860330Y-113055585D01*
X120650000Y-113370366D01*
X120439670Y-113055585D01*
X119953489Y-112730729D01*
X119380000Y-112616655D01*
X118806511Y-112730729D01*
X118320330Y-113055585D01*
X118110000Y-113370366D01*
X117899670Y-113055585D01*
X117413489Y-112730729D01*
X116840000Y-112616655D01*
X116266511Y-112730729D01*
X115780330Y-113055585D01*
X115685000Y-113198256D01*
X115685000Y-109744495D01*
X115717480Y-109755927D01*
X116247199Y-109727148D01*
X116602929Y-109579800D01*
X116664583Y-109344188D01*
X115910000Y-108589605D01*
X115895858Y-108603748D01*
X115716253Y-108424143D01*
X115730395Y-108410000D01*
X116089605Y-108410000D01*
X116844188Y-109164583D01*
X117079800Y-109102929D01*
X117255927Y-108602520D01*
X117227148Y-108072801D01*
X117079800Y-107717071D01*
X116844188Y-107655417D01*
X116089605Y-108410000D01*
X115730395Y-108410000D01*
X115716253Y-108395858D01*
X115895858Y-108216253D01*
X115910000Y-108230395D01*
X116664583Y-107475812D01*
X116602929Y-107240200D01*
X116102520Y-107064073D01*
X115685000Y-107086756D01*
X115685000Y-103744495D01*
X115717480Y-103755927D01*
X116247199Y-103727148D01*
X116602929Y-103579800D01*
X116664583Y-103344188D01*
X115910000Y-102589605D01*
X115895858Y-102603748D01*
X115716253Y-102424143D01*
X115730395Y-102410000D01*
X116089605Y-102410000D01*
X116844188Y-103164583D01*
X117079800Y-103102929D01*
X117255927Y-102602520D01*
X117227148Y-102072801D01*
X117079800Y-101717071D01*
X116844188Y-101655417D01*
X116089605Y-102410000D01*
X115730395Y-102410000D01*
X115716253Y-102395858D01*
X115895858Y-102216253D01*
X115910000Y-102230395D01*
X116664583Y-101475812D01*
X116602929Y-101240200D01*
X116102520Y-101064073D01*
X115685000Y-101086756D01*
X115685000Y-100329041D01*
X115843287Y-100394768D01*
G36*
X138735910Y-97501441D02*
X138948110Y-97646431D01*
X139190000Y-97695415D01*
X139190000Y-97702030D01*
X139093059Y-97764410D01*
X139091588Y-97766563D01*
X139015198Y-97690173D01*
X138781809Y-97593500D01*
X138623750Y-97593500D01*
X138465000Y-97752250D01*
X138465000Y-98673000D01*
X138485000Y-98673000D01*
X138485000Y-98927000D01*
X138465000Y-98927000D01*
X138465000Y-99847750D01*
X138556213Y-99938963D01*
X138492569Y-100032110D01*
X138441560Y-100284000D01*
X138441560Y-102316000D01*
X138485838Y-102551317D01*
X138624910Y-102767441D01*
X138837110Y-102912431D01*
X139089000Y-102963440D01*
X140613000Y-102963440D01*
X140848317Y-102919162D01*
X141064441Y-102780090D01*
X141209431Y-102567890D01*
X141260440Y-102316000D01*
X141260440Y-100460000D01*
X146200000Y-100460000D01*
X146490839Y-100402148D01*
X146652560Y-100294090D01*
X146652560Y-100375000D01*
X146696838Y-100610317D01*
X146835910Y-100826441D01*
X147048110Y-100971431D01*
X147300000Y-101022440D01*
X148300000Y-101022440D01*
X148366113Y-101010000D01*
X148990000Y-101010000D01*
X148990000Y-101638569D01*
X148977560Y-101700000D01*
X148977560Y-102700000D01*
X149021838Y-102935317D01*
X149160910Y-103151441D01*
X149373110Y-103296431D01*
X149625000Y-103347440D01*
X149875000Y-103347440D01*
X149927135Y-103337630D01*
X149865000Y-103650000D01*
X149865000Y-105283421D01*
X149833420Y-105315000D01*
X136066579Y-105315000D01*
X135985000Y-105233420D01*
X135985000Y-102951000D01*
X136263250Y-102951000D01*
X136422000Y-102792250D01*
X136422000Y-101427000D01*
X136676000Y-101427000D01*
X136676000Y-102792250D01*
X136834750Y-102951000D01*
X137437309Y-102951000D01*
X137670698Y-102854327D01*
X137849327Y-102675699D01*
X137946000Y-102442310D01*
X137946000Y-101585750D01*
X137787250Y-101427000D01*
X136676000Y-101427000D01*
X136422000Y-101427000D01*
X136402000Y-101427000D01*
X136402000Y-101173000D01*
X136422000Y-101173000D01*
X136422000Y-99807750D01*
X136676000Y-99807750D01*
X136676000Y-101173000D01*
X137787250Y-101173000D01*
X137946000Y-101014250D01*
X137946000Y-100157690D01*
X137881135Y-100001092D01*
X137894191Y-100006500D01*
X138052250Y-100006500D01*
X138211000Y-99847750D01*
X138211000Y-98927000D01*
X137544250Y-98927000D01*
X137385500Y-99085750D01*
X137385500Y-99497810D01*
X137450365Y-99654408D01*
X137437309Y-99649000D01*
X136834750Y-99649000D01*
X136676000Y-99807750D01*
X136422000Y-99807750D01*
X136263250Y-99649000D01*
X135985000Y-99649000D01*
X135985000Y-98066580D01*
X136378703Y-97672877D01*
X136500000Y-97697440D01*
X137653535Y-97697440D01*
X137482173Y-97868801D01*
X137385500Y-98102190D01*
X137385500Y-98514250D01*
X137544250Y-98673000D01*
X138211000Y-98673000D01*
X138211000Y-97752250D01*
X138131455Y-97672705D01*
X138235317Y-97653162D01*
X138451441Y-97514090D01*
X138596431Y-97301890D01*
X138599081Y-97288803D01*
X138735910Y-97501441D01*
X138735910Y-97501441D01*
G37*
X138735910Y-97501441D02*
X138948110Y-97646431D01*
X139190000Y-97695415D01*
X139190000Y-97702030D01*
X139093059Y-97764410D01*
X139091588Y-97766563D01*
X139015198Y-97690173D01*
X138781809Y-97593500D01*
X138623750Y-97593500D01*
X138465000Y-97752250D01*
X138465000Y-98673000D01*
X138485000Y-98673000D01*
X138485000Y-98927000D01*
X138465000Y-98927000D01*
X138465000Y-99847750D01*
X138556213Y-99938963D01*
X138492569Y-100032110D01*
X138441560Y-100284000D01*
X138441560Y-102316000D01*
X138485838Y-102551317D01*
X138624910Y-102767441D01*
X138837110Y-102912431D01*
X139089000Y-102963440D01*
X140613000Y-102963440D01*
X140848317Y-102919162D01*
X141064441Y-102780090D01*
X141209431Y-102567890D01*
X141260440Y-102316000D01*
X141260440Y-100460000D01*
X146200000Y-100460000D01*
X146490839Y-100402148D01*
X146652560Y-100294090D01*
X146652560Y-100375000D01*
X146696838Y-100610317D01*
X146835910Y-100826441D01*
X147048110Y-100971431D01*
X147300000Y-101022440D01*
X148300000Y-101022440D01*
X148366113Y-101010000D01*
X148990000Y-101010000D01*
X148990000Y-101638569D01*
X148977560Y-101700000D01*
X148977560Y-102700000D01*
X149021838Y-102935317D01*
X149160910Y-103151441D01*
X149373110Y-103296431D01*
X149625000Y-103347440D01*
X149875000Y-103347440D01*
X149927135Y-103337630D01*
X149865000Y-103650000D01*
X149865000Y-105283421D01*
X149833420Y-105315000D01*
X136066579Y-105315000D01*
X135985000Y-105233420D01*
X135985000Y-102951000D01*
X136263250Y-102951000D01*
X136422000Y-102792250D01*
X136422000Y-101427000D01*
X136676000Y-101427000D01*
X136676000Y-102792250D01*
X136834750Y-102951000D01*
X137437309Y-102951000D01*
X137670698Y-102854327D01*
X137849327Y-102675699D01*
X137946000Y-102442310D01*
X137946000Y-101585750D01*
X137787250Y-101427000D01*
X136676000Y-101427000D01*
X136422000Y-101427000D01*
X136402000Y-101427000D01*
X136402000Y-101173000D01*
X136422000Y-101173000D01*
X136422000Y-99807750D01*
X136676000Y-99807750D01*
X136676000Y-101173000D01*
X137787250Y-101173000D01*
X137946000Y-101014250D01*
X137946000Y-100157690D01*
X137881135Y-100001092D01*
X137894191Y-100006500D01*
X138052250Y-100006500D01*
X138211000Y-99847750D01*
X138211000Y-98927000D01*
X137544250Y-98927000D01*
X137385500Y-99085750D01*
X137385500Y-99497810D01*
X137450365Y-99654408D01*
X137437309Y-99649000D01*
X136834750Y-99649000D01*
X136676000Y-99807750D01*
X136422000Y-99807750D01*
X136263250Y-99649000D01*
X135985000Y-99649000D01*
X135985000Y-98066580D01*
X136378703Y-97672877D01*
X136500000Y-97697440D01*
X137653535Y-97697440D01*
X137482173Y-97868801D01*
X137385500Y-98102190D01*
X137385500Y-98514250D01*
X137544250Y-98673000D01*
X138211000Y-98673000D01*
X138211000Y-97752250D01*
X138131455Y-97672705D01*
X138235317Y-97653162D01*
X138451441Y-97514090D01*
X138596431Y-97301890D01*
X138599081Y-97288803D01*
X138735910Y-97501441D01*
G36*
X135944250Y-93373000D02*
X136611000Y-93373000D01*
X136611000Y-93353000D01*
X136865000Y-93353000D01*
X136865000Y-93373000D01*
X136885000Y-93373000D01*
X136885000Y-93627000D01*
X136865000Y-93627000D01*
X136865000Y-93647000D01*
X136611000Y-93647000D01*
X136611000Y-93627000D01*
X135944250Y-93627000D01*
X135785500Y-93785750D01*
X135785500Y-93962776D01*
X135609161Y-93997852D01*
X135362599Y-94162599D01*
X132862599Y-96662599D01*
X132697852Y-96909161D01*
X132640000Y-97200000D01*
X132640000Y-101726138D01*
X131300636Y-103065502D01*
X131276816Y-103055611D01*
X130725602Y-103055130D01*
X130216163Y-103265626D01*
X129826056Y-103655053D01*
X129614671Y-104164124D01*
X129614190Y-104715338D01*
X129824686Y-105224777D01*
X129839882Y-105240000D01*
X127142802Y-105240000D01*
X124438802Y-102536000D01*
X130314802Y-96660000D01*
X130465198Y-96660000D01*
X130462599Y-96662599D01*
X130297852Y-96909161D01*
X130240000Y-97200000D01*
X130240000Y-98373897D01*
X130216163Y-98383746D01*
X129826056Y-98773173D01*
X129614671Y-99282244D01*
X129614190Y-99833458D01*
X129824686Y-100342897D01*
X130214113Y-100733004D01*
X130723184Y-100944389D01*
X131274398Y-100944870D01*
X131783837Y-100734374D01*
X132173944Y-100344947D01*
X132385329Y-99835876D01*
X132385810Y-99284662D01*
X132175314Y-98775223D01*
X131785887Y-98385116D01*
X131760000Y-98374367D01*
X131760000Y-97514802D01*
X135923026Y-93351776D01*
X135944250Y-93373000D01*
X135944250Y-93373000D01*
G37*
X135944250Y-93373000D02*
X136611000Y-93373000D01*
X136611000Y-93353000D01*
X136865000Y-93353000D01*
X136865000Y-93373000D01*
X136885000Y-93373000D01*
X136885000Y-93627000D01*
X136865000Y-93627000D01*
X136865000Y-93647000D01*
X136611000Y-93647000D01*
X136611000Y-93627000D01*
X135944250Y-93627000D01*
X135785500Y-93785750D01*
X135785500Y-93962776D01*
X135609161Y-93997852D01*
X135362599Y-94162599D01*
X132862599Y-96662599D01*
X132697852Y-96909161D01*
X132640000Y-97200000D01*
X132640000Y-101726138D01*
X131300636Y-103065502D01*
X131276816Y-103055611D01*
X130725602Y-103055130D01*
X130216163Y-103265626D01*
X129826056Y-103655053D01*
X129614671Y-104164124D01*
X129614190Y-104715338D01*
X129824686Y-105224777D01*
X129839882Y-105240000D01*
X127142802Y-105240000D01*
X124438802Y-102536000D01*
X130314802Y-96660000D01*
X130465198Y-96660000D01*
X130462599Y-96662599D01*
X130297852Y-96909161D01*
X130240000Y-97200000D01*
X130240000Y-98373897D01*
X130216163Y-98383746D01*
X129826056Y-98773173D01*
X129614671Y-99282244D01*
X129614190Y-99833458D01*
X129824686Y-100342897D01*
X130214113Y-100733004D01*
X130723184Y-100944389D01*
X131274398Y-100944870D01*
X131783837Y-100734374D01*
X132173944Y-100344947D01*
X132385329Y-99835876D01*
X132385810Y-99284662D01*
X132175314Y-98775223D01*
X131785887Y-98385116D01*
X131760000Y-98374367D01*
X131760000Y-97514802D01*
X135923026Y-93351776D01*
X135944250Y-93373000D01*
G36*
X124112173Y-86698801D02*
X124015500Y-86932190D01*
X124015500Y-87344250D01*
X124174250Y-87503000D01*
X124841000Y-87503000D01*
X124841000Y-87483000D01*
X125095000Y-87483000D01*
X125095000Y-87503000D01*
X125115000Y-87503000D01*
X125115000Y-87757000D01*
X125095000Y-87757000D01*
X125095000Y-88677750D01*
X125253750Y-88836500D01*
X125411809Y-88836500D01*
X125645198Y-88739827D01*
X125723286Y-88661739D01*
X125922610Y-88797931D01*
X126174500Y-88848940D01*
X126809500Y-88848940D01*
X127044817Y-88804662D01*
X127260941Y-88665590D01*
X127405931Y-88453390D01*
X127418768Y-88390000D01*
X127943870Y-88390000D01*
X127943870Y-88530430D01*
X127988148Y-88765747D01*
X128127220Y-88981871D01*
X128339420Y-89126861D01*
X128591310Y-89177870D01*
X130188970Y-89177870D01*
X130424287Y-89133592D01*
X130640411Y-88994520D01*
X130785401Y-88782320D01*
X130809030Y-88665634D01*
X130827868Y-88765747D01*
X130966940Y-88981871D01*
X131179140Y-89126861D01*
X131431030Y-89177870D01*
X133028690Y-89177870D01*
X133264007Y-89133592D01*
X133480131Y-88994520D01*
X133625121Y-88782320D01*
X133676130Y-88530430D01*
X133676130Y-88356557D01*
X133798839Y-88332148D01*
X134045401Y-88167401D01*
X134593862Y-87618940D01*
X134640000Y-87618940D01*
X134640000Y-91785198D01*
X133676130Y-92749068D01*
X133676130Y-91809570D01*
X133631852Y-91574253D01*
X133493042Y-91358537D01*
X133608835Y-91242745D01*
X133728943Y-91193117D01*
X133992192Y-90930327D01*
X134134838Y-90586799D01*
X134135162Y-90214833D01*
X133993117Y-89871057D01*
X133730327Y-89607808D01*
X133386799Y-89465162D01*
X133014833Y-89464838D01*
X132671057Y-89606883D01*
X132407808Y-89869673D01*
X132357434Y-89990987D01*
X131604070Y-90744350D01*
X131412227Y-91031465D01*
X131406551Y-91060000D01*
X131384494Y-91170886D01*
X131195713Y-91206408D01*
X130979589Y-91345480D01*
X130834599Y-91557680D01*
X130810970Y-91674366D01*
X130792132Y-91574253D01*
X130653060Y-91358129D01*
X130440860Y-91213139D01*
X130188970Y-91162130D01*
X128591310Y-91162130D01*
X128355993Y-91206408D01*
X128139869Y-91345480D01*
X127994879Y-91557680D01*
X127943870Y-91809570D01*
X127943870Y-91950000D01*
X127421471Y-91950000D01*
X127412662Y-91903183D01*
X127273590Y-91687059D01*
X127061390Y-91542069D01*
X126809500Y-91491060D01*
X126174500Y-91491060D01*
X125939183Y-91535338D01*
X125723059Y-91674410D01*
X125721588Y-91676563D01*
X125645198Y-91600173D01*
X125411809Y-91503500D01*
X125253750Y-91503500D01*
X125095000Y-91662250D01*
X125095000Y-92583000D01*
X125115000Y-92583000D01*
X125115000Y-92837000D01*
X125095000Y-92837000D01*
X125095000Y-93757750D01*
X125253750Y-93916500D01*
X125411809Y-93916500D01*
X125645198Y-93819827D01*
X125723286Y-93741739D01*
X125922610Y-93877931D01*
X126174500Y-93928940D01*
X126809500Y-93928940D01*
X127044817Y-93884662D01*
X127260941Y-93745590D01*
X127405931Y-93533390D01*
X127418768Y-93470000D01*
X127943870Y-93470000D01*
X127943870Y-93610430D01*
X127988148Y-93845747D01*
X128127220Y-94061871D01*
X128339420Y-94206861D01*
X128591310Y-94257870D01*
X129584479Y-94257870D01*
X129461325Y-94282367D01*
X129174210Y-94474210D01*
X129174208Y-94474213D01*
X123773026Y-99875394D01*
X123761500Y-99873060D01*
X122618500Y-99873060D01*
X122383183Y-99917338D01*
X122327763Y-99953000D01*
X121138444Y-99953000D01*
X121160526Y-99930918D01*
X121045277Y-99815669D01*
X121281042Y-99753831D01*
X121457419Y-99252878D01*
X121428664Y-98722560D01*
X121281042Y-98366169D01*
X121045275Y-98304331D01*
X120289605Y-99060000D01*
X120303748Y-99074142D01*
X120124142Y-99253748D01*
X120110000Y-99239605D01*
X120095858Y-99253748D01*
X119916252Y-99074142D01*
X119930395Y-99060000D01*
X119289773Y-98419379D01*
X119242418Y-98304771D01*
X119062686Y-98124725D01*
X119354331Y-98124725D01*
X120110000Y-98880395D01*
X120865669Y-98124725D01*
X120803831Y-97888958D01*
X120302878Y-97712581D01*
X119772560Y-97741336D01*
X119416169Y-97888958D01*
X119354331Y-98124725D01*
X119062686Y-98124725D01*
X118867204Y-97928902D01*
X118376713Y-97725232D01*
X118108000Y-97724998D01*
X118108000Y-97561343D01*
X118112811Y-97558247D01*
X118302610Y-97687931D01*
X118554500Y-97738940D01*
X119189500Y-97738940D01*
X119424817Y-97694662D01*
X119640941Y-97555590D01*
X119785931Y-97343390D01*
X119798768Y-97280000D01*
X121081137Y-97280000D01*
X121213201Y-97334838D01*
X121585167Y-97335162D01*
X121928943Y-97193117D01*
X122192192Y-96930327D01*
X122334838Y-96586799D01*
X122335162Y-96214833D01*
X122193117Y-95871057D01*
X121930327Y-95607808D01*
X121586799Y-95465162D01*
X121214833Y-95464838D01*
X120871057Y-95606883D01*
X120717673Y-95760000D01*
X119801471Y-95760000D01*
X119792662Y-95713183D01*
X119653590Y-95497059D01*
X119441390Y-95352069D01*
X119189500Y-95301060D01*
X118554500Y-95301060D01*
X118319183Y-95345338D01*
X118107189Y-95481753D01*
X117917390Y-95352069D01*
X117665500Y-95301060D01*
X117030500Y-95301060D01*
X116995000Y-95307740D01*
X116995000Y-94642390D01*
X117454609Y-94550968D01*
X117907828Y-94248136D01*
X118190000Y-93825837D01*
X118472172Y-94248136D01*
X118925391Y-94550968D01*
X119460000Y-94657308D01*
X119994609Y-94550968D01*
X120447828Y-94248136D01*
X120746831Y-93800648D01*
X120795955Y-93940865D01*
X121159644Y-94347522D01*
X121651269Y-94584046D01*
X121656930Y-94584220D01*
X121873000Y-94461720D01*
X121873000Y-93207000D01*
X122127000Y-93207000D01*
X122127000Y-94461720D01*
X122343070Y-94584220D01*
X122348731Y-94584046D01*
X122840356Y-94347522D01*
X123204045Y-93940865D01*
X123384429Y-93425985D01*
X123239293Y-93207000D01*
X122127000Y-93207000D01*
X121873000Y-93207000D01*
X121853000Y-93207000D01*
X121853000Y-92995750D01*
X124015500Y-92995750D01*
X124015500Y-93407810D01*
X124112173Y-93641199D01*
X124290802Y-93819827D01*
X124524191Y-93916500D01*
X124682250Y-93916500D01*
X124841000Y-93757750D01*
X124841000Y-92837000D01*
X124174250Y-92837000D01*
X124015500Y-92995750D01*
X121853000Y-92995750D01*
X121853000Y-92953000D01*
X121873000Y-92953000D01*
X121873000Y-91698280D01*
X122127000Y-91698280D01*
X122127000Y-92953000D01*
X123239293Y-92953000D01*
X123384429Y-92734015D01*
X123204045Y-92219135D01*
X123018967Y-92012190D01*
X124015500Y-92012190D01*
X124015500Y-92424250D01*
X124174250Y-92583000D01*
X124841000Y-92583000D01*
X124841000Y-91662250D01*
X124682250Y-91503500D01*
X124524191Y-91503500D01*
X124290802Y-91600173D01*
X124112173Y-91778801D01*
X124015500Y-92012190D01*
X123018967Y-92012190D01*
X122840356Y-91812478D01*
X122348731Y-91575954D01*
X122343070Y-91575780D01*
X122127000Y-91698280D01*
X121873000Y-91698280D01*
X121656930Y-91575780D01*
X121651269Y-91575954D01*
X121159644Y-91812478D01*
X120795955Y-92219135D01*
X120746831Y-92359352D01*
X120447828Y-91911864D01*
X120220000Y-91759634D01*
X120220000Y-89320366D01*
X120447828Y-89168136D01*
X120603000Y-88935905D01*
X120603000Y-89038310D01*
X120699673Y-89271699D01*
X120878302Y-89450327D01*
X121111691Y-89547000D01*
X121714250Y-89547000D01*
X121873000Y-89388250D01*
X121873000Y-88127000D01*
X122127000Y-88127000D01*
X122127000Y-89388250D01*
X122285750Y-89547000D01*
X122888309Y-89547000D01*
X123121698Y-89450327D01*
X123300327Y-89271699D01*
X123397000Y-89038310D01*
X123397000Y-88285750D01*
X123238250Y-88127000D01*
X122127000Y-88127000D01*
X121873000Y-88127000D01*
X121853000Y-88127000D01*
X121853000Y-87915750D01*
X124015500Y-87915750D01*
X124015500Y-88327810D01*
X124112173Y-88561199D01*
X124290802Y-88739827D01*
X124524191Y-88836500D01*
X124682250Y-88836500D01*
X124841000Y-88677750D01*
X124841000Y-87757000D01*
X124174250Y-87757000D01*
X124015500Y-87915750D01*
X121853000Y-87915750D01*
X121853000Y-87873000D01*
X121873000Y-87873000D01*
X121873000Y-87853000D01*
X122127000Y-87853000D01*
X122127000Y-87873000D01*
X123238250Y-87873000D01*
X123397000Y-87714250D01*
X123397000Y-86961690D01*
X123300327Y-86728301D01*
X123232026Y-86660000D01*
X124150974Y-86660000D01*
X124112173Y-86698801D01*
X124112173Y-86698801D01*
G37*
X124112173Y-86698801D02*
X124015500Y-86932190D01*
X124015500Y-87344250D01*
X124174250Y-87503000D01*
X124841000Y-87503000D01*
X124841000Y-87483000D01*
X125095000Y-87483000D01*
X125095000Y-87503000D01*
X125115000Y-87503000D01*
X125115000Y-87757000D01*
X125095000Y-87757000D01*
X125095000Y-88677750D01*
X125253750Y-88836500D01*
X125411809Y-88836500D01*
X125645198Y-88739827D01*
X125723286Y-88661739D01*
X125922610Y-88797931D01*
X126174500Y-88848940D01*
X126809500Y-88848940D01*
X127044817Y-88804662D01*
X127260941Y-88665590D01*
X127405931Y-88453390D01*
X127418768Y-88390000D01*
X127943870Y-88390000D01*
X127943870Y-88530430D01*
X127988148Y-88765747D01*
X128127220Y-88981871D01*
X128339420Y-89126861D01*
X128591310Y-89177870D01*
X130188970Y-89177870D01*
X130424287Y-89133592D01*
X130640411Y-88994520D01*
X130785401Y-88782320D01*
X130809030Y-88665634D01*
X130827868Y-88765747D01*
X130966940Y-88981871D01*
X131179140Y-89126861D01*
X131431030Y-89177870D01*
X133028690Y-89177870D01*
X133264007Y-89133592D01*
X133480131Y-88994520D01*
X133625121Y-88782320D01*
X133676130Y-88530430D01*
X133676130Y-88356557D01*
X133798839Y-88332148D01*
X134045401Y-88167401D01*
X134593862Y-87618940D01*
X134640000Y-87618940D01*
X134640000Y-91785198D01*
X133676130Y-92749068D01*
X133676130Y-91809570D01*
X133631852Y-91574253D01*
X133493042Y-91358537D01*
X133608835Y-91242745D01*
X133728943Y-91193117D01*
X133992192Y-90930327D01*
X134134838Y-90586799D01*
X134135162Y-90214833D01*
X133993117Y-89871057D01*
X133730327Y-89607808D01*
X133386799Y-89465162D01*
X133014833Y-89464838D01*
X132671057Y-89606883D01*
X132407808Y-89869673D01*
X132357434Y-89990987D01*
X131604070Y-90744350D01*
X131412227Y-91031465D01*
X131406551Y-91060000D01*
X131384494Y-91170886D01*
X131195713Y-91206408D01*
X130979589Y-91345480D01*
X130834599Y-91557680D01*
X130810970Y-91674366D01*
X130792132Y-91574253D01*
X130653060Y-91358129D01*
X130440860Y-91213139D01*
X130188970Y-91162130D01*
X128591310Y-91162130D01*
X128355993Y-91206408D01*
X128139869Y-91345480D01*
X127994879Y-91557680D01*
X127943870Y-91809570D01*
X127943870Y-91950000D01*
X127421471Y-91950000D01*
X127412662Y-91903183D01*
X127273590Y-91687059D01*
X127061390Y-91542069D01*
X126809500Y-91491060D01*
X126174500Y-91491060D01*
X125939183Y-91535338D01*
X125723059Y-91674410D01*
X125721588Y-91676563D01*
X125645198Y-91600173D01*
X125411809Y-91503500D01*
X125253750Y-91503500D01*
X125095000Y-91662250D01*
X125095000Y-92583000D01*
X125115000Y-92583000D01*
X125115000Y-92837000D01*
X125095000Y-92837000D01*
X125095000Y-93757750D01*
X125253750Y-93916500D01*
X125411809Y-93916500D01*
X125645198Y-93819827D01*
X125723286Y-93741739D01*
X125922610Y-93877931D01*
X126174500Y-93928940D01*
X126809500Y-93928940D01*
X127044817Y-93884662D01*
X127260941Y-93745590D01*
X127405931Y-93533390D01*
X127418768Y-93470000D01*
X127943870Y-93470000D01*
X127943870Y-93610430D01*
X127988148Y-93845747D01*
X128127220Y-94061871D01*
X128339420Y-94206861D01*
X128591310Y-94257870D01*
X129584479Y-94257870D01*
X129461325Y-94282367D01*
X129174210Y-94474210D01*
X129174208Y-94474213D01*
X123773026Y-99875394D01*
X123761500Y-99873060D01*
X122618500Y-99873060D01*
X122383183Y-99917338D01*
X122327763Y-99953000D01*
X121138444Y-99953000D01*
X121160526Y-99930918D01*
X121045277Y-99815669D01*
X121281042Y-99753831D01*
X121457419Y-99252878D01*
X121428664Y-98722560D01*
X121281042Y-98366169D01*
X121045275Y-98304331D01*
X120289605Y-99060000D01*
X120303748Y-99074142D01*
X120124142Y-99253748D01*
X120110000Y-99239605D01*
X120095858Y-99253748D01*
X119916252Y-99074142D01*
X119930395Y-99060000D01*
X119289773Y-98419379D01*
X119242418Y-98304771D01*
X119062686Y-98124725D01*
X119354331Y-98124725D01*
X120110000Y-98880395D01*
X120865669Y-98124725D01*
X120803831Y-97888958D01*
X120302878Y-97712581D01*
X119772560Y-97741336D01*
X119416169Y-97888958D01*
X119354331Y-98124725D01*
X119062686Y-98124725D01*
X118867204Y-97928902D01*
X118376713Y-97725232D01*
X118108000Y-97724998D01*
X118108000Y-97561343D01*
X118112811Y-97558247D01*
X118302610Y-97687931D01*
X118554500Y-97738940D01*
X119189500Y-97738940D01*
X119424817Y-97694662D01*
X119640941Y-97555590D01*
X119785931Y-97343390D01*
X119798768Y-97280000D01*
X121081137Y-97280000D01*
X121213201Y-97334838D01*
X121585167Y-97335162D01*
X121928943Y-97193117D01*
X122192192Y-96930327D01*
X122334838Y-96586799D01*
X122335162Y-96214833D01*
X122193117Y-95871057D01*
X121930327Y-95607808D01*
X121586799Y-95465162D01*
X121214833Y-95464838D01*
X120871057Y-95606883D01*
X120717673Y-95760000D01*
X119801471Y-95760000D01*
X119792662Y-95713183D01*
X119653590Y-95497059D01*
X119441390Y-95352069D01*
X119189500Y-95301060D01*
X118554500Y-95301060D01*
X118319183Y-95345338D01*
X118107189Y-95481753D01*
X117917390Y-95352069D01*
X117665500Y-95301060D01*
X117030500Y-95301060D01*
X116995000Y-95307740D01*
X116995000Y-94642390D01*
X117454609Y-94550968D01*
X117907828Y-94248136D01*
X118190000Y-93825837D01*
X118472172Y-94248136D01*
X118925391Y-94550968D01*
X119460000Y-94657308D01*
X119994609Y-94550968D01*
X120447828Y-94248136D01*
X120746831Y-93800648D01*
X120795955Y-93940865D01*
X121159644Y-94347522D01*
X121651269Y-94584046D01*
X121656930Y-94584220D01*
X121873000Y-94461720D01*
X121873000Y-93207000D01*
X122127000Y-93207000D01*
X122127000Y-94461720D01*
X122343070Y-94584220D01*
X122348731Y-94584046D01*
X122840356Y-94347522D01*
X123204045Y-93940865D01*
X123384429Y-93425985D01*
X123239293Y-93207000D01*
X122127000Y-93207000D01*
X121873000Y-93207000D01*
X121853000Y-93207000D01*
X121853000Y-92995750D01*
X124015500Y-92995750D01*
X124015500Y-93407810D01*
X124112173Y-93641199D01*
X124290802Y-93819827D01*
X124524191Y-93916500D01*
X124682250Y-93916500D01*
X124841000Y-93757750D01*
X124841000Y-92837000D01*
X124174250Y-92837000D01*
X124015500Y-92995750D01*
X121853000Y-92995750D01*
X121853000Y-92953000D01*
X121873000Y-92953000D01*
X121873000Y-91698280D01*
X122127000Y-91698280D01*
X122127000Y-92953000D01*
X123239293Y-92953000D01*
X123384429Y-92734015D01*
X123204045Y-92219135D01*
X123018967Y-92012190D01*
X124015500Y-92012190D01*
X124015500Y-92424250D01*
X124174250Y-92583000D01*
X124841000Y-92583000D01*
X124841000Y-91662250D01*
X124682250Y-91503500D01*
X124524191Y-91503500D01*
X124290802Y-91600173D01*
X124112173Y-91778801D01*
X124015500Y-92012190D01*
X123018967Y-92012190D01*
X122840356Y-91812478D01*
X122348731Y-91575954D01*
X122343070Y-91575780D01*
X122127000Y-91698280D01*
X121873000Y-91698280D01*
X121656930Y-91575780D01*
X121651269Y-91575954D01*
X121159644Y-91812478D01*
X120795955Y-92219135D01*
X120746831Y-92359352D01*
X120447828Y-91911864D01*
X120220000Y-91759634D01*
X120220000Y-89320366D01*
X120447828Y-89168136D01*
X120603000Y-88935905D01*
X120603000Y-89038310D01*
X120699673Y-89271699D01*
X120878302Y-89450327D01*
X121111691Y-89547000D01*
X121714250Y-89547000D01*
X121873000Y-89388250D01*
X121873000Y-88127000D01*
X122127000Y-88127000D01*
X122127000Y-89388250D01*
X122285750Y-89547000D01*
X122888309Y-89547000D01*
X123121698Y-89450327D01*
X123300327Y-89271699D01*
X123397000Y-89038310D01*
X123397000Y-88285750D01*
X123238250Y-88127000D01*
X122127000Y-88127000D01*
X121873000Y-88127000D01*
X121853000Y-88127000D01*
X121853000Y-87915750D01*
X124015500Y-87915750D01*
X124015500Y-88327810D01*
X124112173Y-88561199D01*
X124290802Y-88739827D01*
X124524191Y-88836500D01*
X124682250Y-88836500D01*
X124841000Y-88677750D01*
X124841000Y-87757000D01*
X124174250Y-87757000D01*
X124015500Y-87915750D01*
X121853000Y-87915750D01*
X121853000Y-87873000D01*
X121873000Y-87873000D01*
X121873000Y-87853000D01*
X122127000Y-87853000D01*
X122127000Y-87873000D01*
X123238250Y-87873000D01*
X123397000Y-87714250D01*
X123397000Y-86961690D01*
X123300327Y-86728301D01*
X123232026Y-86660000D01*
X124150974Y-86660000D01*
X124112173Y-86698801D01*
G36*
X179315000Y-83640198D02*
X179237401Y-83562599D01*
X178990839Y-83397852D01*
X178700000Y-83340000D01*
X176400000Y-83340000D01*
X176109161Y-83397852D01*
X175862599Y-83562599D01*
X174327879Y-85097319D01*
X174163132Y-85343881D01*
X174105280Y-85634720D01*
X174105280Y-85732793D01*
X173930193Y-85765738D01*
X173714069Y-85904810D01*
X173569079Y-86117010D01*
X173518070Y-86368900D01*
X173518070Y-86434400D01*
X173409202Y-86434400D01*
X173310000Y-86335198D01*
X173310000Y-85943061D01*
X173425931Y-85773390D01*
X173476940Y-85521500D01*
X173476940Y-84378500D01*
X173432662Y-84143183D01*
X173293590Y-83927059D01*
X173081390Y-83782069D01*
X172829500Y-83731060D01*
X172194500Y-83731060D01*
X171959183Y-83775338D01*
X171743059Y-83914410D01*
X171741588Y-83916563D01*
X171665198Y-83840173D01*
X171431809Y-83743500D01*
X171273750Y-83743500D01*
X171115000Y-83902250D01*
X171115000Y-84823000D01*
X171135000Y-84823000D01*
X171135000Y-85077000D01*
X171115000Y-85077000D01*
X171115000Y-85997750D01*
X171273750Y-86156500D01*
X171431809Y-86156500D01*
X171665198Y-86059827D01*
X171743286Y-85981739D01*
X171790000Y-86013657D01*
X171790000Y-86650000D01*
X171847852Y-86940839D01*
X172012599Y-87187401D01*
X172556999Y-87731801D01*
X172803561Y-87896548D01*
X173094400Y-87954400D01*
X173518070Y-87954400D01*
X173518070Y-88019900D01*
X173547303Y-88175262D01*
X173518070Y-88319620D01*
X173518070Y-88412333D01*
X173364040Y-88442972D01*
X173117479Y-88607719D01*
X172462599Y-89262599D01*
X172297852Y-89509161D01*
X172240000Y-89800000D01*
X172240000Y-91662000D01*
X172297852Y-91952839D01*
X172462599Y-92199401D01*
X173173060Y-92909862D01*
X173173060Y-93371500D01*
X173217338Y-93606817D01*
X173356410Y-93822941D01*
X173568610Y-93967931D01*
X173820500Y-94018940D01*
X174455500Y-94018940D01*
X174690817Y-93974662D01*
X174902811Y-93838247D01*
X175092610Y-93967931D01*
X175344500Y-94018940D01*
X175979500Y-94018940D01*
X176214817Y-93974662D01*
X176430941Y-93835590D01*
X176575931Y-93623390D01*
X176626940Y-93371500D01*
X176626940Y-92228500D01*
X176582662Y-91993183D01*
X176443590Y-91777059D01*
X176231390Y-91632069D01*
X176112798Y-91608054D01*
X176200050Y-91397410D01*
X176200050Y-91342220D01*
X176041300Y-91183470D01*
X175863387Y-91183470D01*
X176016491Y-91084950D01*
X176128520Y-90920990D01*
X176200050Y-90849460D01*
X176200050Y-90794270D01*
X176184820Y-90757501D01*
X176212490Y-90620860D01*
X176212490Y-90555360D01*
X176304640Y-90555360D01*
X176595479Y-90497508D01*
X176842041Y-90332761D01*
X177087401Y-90087401D01*
X177187927Y-89936953D01*
X177318801Y-90067827D01*
X177552190Y-90164500D01*
X177964250Y-90164500D01*
X178123000Y-90005750D01*
X178123000Y-89339000D01*
X178103000Y-89339000D01*
X178103000Y-89085000D01*
X178123000Y-89085000D01*
X178123000Y-89065000D01*
X178377000Y-89065000D01*
X178377000Y-89085000D01*
X178397000Y-89085000D01*
X178397000Y-89339000D01*
X178377000Y-89339000D01*
X178377000Y-90005750D01*
X178535750Y-90164500D01*
X178740000Y-90164500D01*
X178740000Y-99585198D01*
X178575797Y-99749401D01*
X178307896Y-99348458D01*
X177857561Y-99047554D01*
X177854694Y-99046984D01*
X177932919Y-99023846D01*
X178355724Y-98681740D01*
X178615427Y-98203875D01*
X178629783Y-98131674D01*
X178507162Y-97917000D01*
X176657000Y-97917000D01*
X176657000Y-97937000D01*
X176403000Y-97937000D01*
X176403000Y-97917000D01*
X176383000Y-97917000D01*
X176383000Y-97663000D01*
X176403000Y-97663000D01*
X176403000Y-96401890D01*
X176657000Y-96401890D01*
X176657000Y-97663000D01*
X178507162Y-97663000D01*
X178629783Y-97448326D01*
X178615427Y-97376125D01*
X178355724Y-96898260D01*
X177932919Y-96556154D01*
X177411380Y-96401890D01*
X176657000Y-96401890D01*
X176403000Y-96401890D01*
X175648620Y-96401890D01*
X175127081Y-96556154D01*
X175010386Y-96650576D01*
X175002148Y-96609161D01*
X174837401Y-96362599D01*
X171160000Y-92685198D01*
X171160000Y-89390240D01*
X171152485Y-89352459D01*
X171156178Y-89314112D01*
X171123771Y-89208107D01*
X171102148Y-89099401D01*
X171080747Y-89067372D01*
X171069484Y-89030530D01*
X170998978Y-88944996D01*
X170937401Y-88852839D01*
X170905372Y-88831438D01*
X170880868Y-88801711D01*
X170580867Y-88556591D01*
X170497706Y-88512372D01*
X170692761Y-88382041D01*
X170737401Y-88337402D01*
X170869300Y-88140000D01*
X170902148Y-88090839D01*
X170960000Y-87800000D01*
X170960000Y-86000000D01*
X170909707Y-85747161D01*
X170902148Y-85709160D01*
X170861000Y-85647578D01*
X170861000Y-85077000D01*
X170841000Y-85077000D01*
X170841000Y-84823000D01*
X170861000Y-84823000D01*
X170861000Y-83902250D01*
X170702250Y-83743500D01*
X170544191Y-83743500D01*
X170310802Y-83840173D01*
X170132173Y-84018801D01*
X170035500Y-84252190D01*
X170035500Y-84664250D01*
X170194248Y-84822998D01*
X170035500Y-84822998D01*
X170035500Y-84886844D01*
X169800000Y-84840000D01*
X168614802Y-84840000D01*
X164998492Y-81223690D01*
X165192192Y-81030327D01*
X165334838Y-80686799D01*
X165335162Y-80314833D01*
X165193117Y-79971057D01*
X164930327Y-79707808D01*
X164694679Y-79609958D01*
X162958296Y-77804119D01*
X163133489Y-77769271D01*
X163619670Y-77444415D01*
X163830000Y-77129634D01*
X164040330Y-77444415D01*
X164526511Y-77769271D01*
X165100000Y-77883345D01*
X165673489Y-77769271D01*
X166159670Y-77444415D01*
X166370000Y-77129634D01*
X166580330Y-77444415D01*
X167066511Y-77769271D01*
X167640000Y-77883345D01*
X168213489Y-77769271D01*
X168699670Y-77444415D01*
X168910000Y-77129634D01*
X169120330Y-77444415D01*
X169606511Y-77769271D01*
X170180000Y-77883345D01*
X170753489Y-77769271D01*
X171239670Y-77444415D01*
X171450000Y-77129634D01*
X171660330Y-77444415D01*
X172146511Y-77769271D01*
X172720000Y-77883345D01*
X173293489Y-77769271D01*
X173779670Y-77444415D01*
X173990000Y-77129634D01*
X174200330Y-77444415D01*
X174686511Y-77769271D01*
X175260000Y-77883345D01*
X175833489Y-77769271D01*
X176319670Y-77444415D01*
X176329243Y-77430087D01*
X176333238Y-77451317D01*
X176472310Y-77667441D01*
X176684510Y-77812431D01*
X176936400Y-77863440D01*
X178663600Y-77863440D01*
X178898917Y-77819162D01*
X179115041Y-77680090D01*
X179260031Y-77467890D01*
X179311040Y-77216000D01*
X179311040Y-75185000D01*
X179315000Y-75185000D01*
X179315000Y-83640198D01*
X179315000Y-83640198D01*
G37*
X179315000Y-83640198D02*
X179237401Y-83562599D01*
X178990839Y-83397852D01*
X178700000Y-83340000D01*
X176400000Y-83340000D01*
X176109161Y-83397852D01*
X175862599Y-83562599D01*
X174327879Y-85097319D01*
X174163132Y-85343881D01*
X174105280Y-85634720D01*
X174105280Y-85732793D01*
X173930193Y-85765738D01*
X173714069Y-85904810D01*
X173569079Y-86117010D01*
X173518070Y-86368900D01*
X173518070Y-86434400D01*
X173409202Y-86434400D01*
X173310000Y-86335198D01*
X173310000Y-85943061D01*
X173425931Y-85773390D01*
X173476940Y-85521500D01*
X173476940Y-84378500D01*
X173432662Y-84143183D01*
X173293590Y-83927059D01*
X173081390Y-83782069D01*
X172829500Y-83731060D01*
X172194500Y-83731060D01*
X171959183Y-83775338D01*
X171743059Y-83914410D01*
X171741588Y-83916563D01*
X171665198Y-83840173D01*
X171431809Y-83743500D01*
X171273750Y-83743500D01*
X171115000Y-83902250D01*
X171115000Y-84823000D01*
X171135000Y-84823000D01*
X171135000Y-85077000D01*
X171115000Y-85077000D01*
X171115000Y-85997750D01*
X171273750Y-86156500D01*
X171431809Y-86156500D01*
X171665198Y-86059827D01*
X171743286Y-85981739D01*
X171790000Y-86013657D01*
X171790000Y-86650000D01*
X171847852Y-86940839D01*
X172012599Y-87187401D01*
X172556999Y-87731801D01*
X172803561Y-87896548D01*
X173094400Y-87954400D01*
X173518070Y-87954400D01*
X173518070Y-88019900D01*
X173547303Y-88175262D01*
X173518070Y-88319620D01*
X173518070Y-88412333D01*
X173364040Y-88442972D01*
X173117479Y-88607719D01*
X172462599Y-89262599D01*
X172297852Y-89509161D01*
X172240000Y-89800000D01*
X172240000Y-91662000D01*
X172297852Y-91952839D01*
X172462599Y-92199401D01*
X173173060Y-92909862D01*
X173173060Y-93371500D01*
X173217338Y-93606817D01*
X173356410Y-93822941D01*
X173568610Y-93967931D01*
X173820500Y-94018940D01*
X174455500Y-94018940D01*
X174690817Y-93974662D01*
X174902811Y-93838247D01*
X175092610Y-93967931D01*
X175344500Y-94018940D01*
X175979500Y-94018940D01*
X176214817Y-93974662D01*
X176430941Y-93835590D01*
X176575931Y-93623390D01*
X176626940Y-93371500D01*
X176626940Y-92228500D01*
X176582662Y-91993183D01*
X176443590Y-91777059D01*
X176231390Y-91632069D01*
X176112798Y-91608054D01*
X176200050Y-91397410D01*
X176200050Y-91342220D01*
X176041300Y-91183470D01*
X175863387Y-91183470D01*
X176016491Y-91084950D01*
X176128520Y-90920990D01*
X176200050Y-90849460D01*
X176200050Y-90794270D01*
X176184820Y-90757501D01*
X176212490Y-90620860D01*
X176212490Y-90555360D01*
X176304640Y-90555360D01*
X176595479Y-90497508D01*
X176842041Y-90332761D01*
X177087401Y-90087401D01*
X177187927Y-89936953D01*
X177318801Y-90067827D01*
X177552190Y-90164500D01*
X177964250Y-90164500D01*
X178123000Y-90005750D01*
X178123000Y-89339000D01*
X178103000Y-89339000D01*
X178103000Y-89085000D01*
X178123000Y-89085000D01*
X178123000Y-89065000D01*
X178377000Y-89065000D01*
X178377000Y-89085000D01*
X178397000Y-89085000D01*
X178397000Y-89339000D01*
X178377000Y-89339000D01*
X178377000Y-90005750D01*
X178535750Y-90164500D01*
X178740000Y-90164500D01*
X178740000Y-99585198D01*
X178575797Y-99749401D01*
X178307896Y-99348458D01*
X177857561Y-99047554D01*
X177854694Y-99046984D01*
X177932919Y-99023846D01*
X178355724Y-98681740D01*
X178615427Y-98203875D01*
X178629783Y-98131674D01*
X178507162Y-97917000D01*
X176657000Y-97917000D01*
X176657000Y-97937000D01*
X176403000Y-97937000D01*
X176403000Y-97917000D01*
X176383000Y-97917000D01*
X176383000Y-97663000D01*
X176403000Y-97663000D01*
X176403000Y-96401890D01*
X176657000Y-96401890D01*
X176657000Y-97663000D01*
X178507162Y-97663000D01*
X178629783Y-97448326D01*
X178615427Y-97376125D01*
X178355724Y-96898260D01*
X177932919Y-96556154D01*
X177411380Y-96401890D01*
X176657000Y-96401890D01*
X176403000Y-96401890D01*
X175648620Y-96401890D01*
X175127081Y-96556154D01*
X175010386Y-96650576D01*
X175002148Y-96609161D01*
X174837401Y-96362599D01*
X171160000Y-92685198D01*
X171160000Y-89390240D01*
X171152485Y-89352459D01*
X171156178Y-89314112D01*
X171123771Y-89208107D01*
X171102148Y-89099401D01*
X171080747Y-89067372D01*
X171069484Y-89030530D01*
X170998978Y-88944996D01*
X170937401Y-88852839D01*
X170905372Y-88831438D01*
X170880868Y-88801711D01*
X170580867Y-88556591D01*
X170497706Y-88512372D01*
X170692761Y-88382041D01*
X170737401Y-88337402D01*
X170869300Y-88140000D01*
X170902148Y-88090839D01*
X170960000Y-87800000D01*
X170960000Y-86000000D01*
X170909707Y-85747161D01*
X170902148Y-85709160D01*
X170861000Y-85647578D01*
X170861000Y-85077000D01*
X170841000Y-85077000D01*
X170841000Y-84823000D01*
X170861000Y-84823000D01*
X170861000Y-83902250D01*
X170702250Y-83743500D01*
X170544191Y-83743500D01*
X170310802Y-83840173D01*
X170132173Y-84018801D01*
X170035500Y-84252190D01*
X170035500Y-84664250D01*
X170194248Y-84822998D01*
X170035500Y-84822998D01*
X170035500Y-84886844D01*
X169800000Y-84840000D01*
X168614802Y-84840000D01*
X164998492Y-81223690D01*
X165192192Y-81030327D01*
X165334838Y-80686799D01*
X165335162Y-80314833D01*
X165193117Y-79971057D01*
X164930327Y-79707808D01*
X164694679Y-79609958D01*
X162958296Y-77804119D01*
X163133489Y-77769271D01*
X163619670Y-77444415D01*
X163830000Y-77129634D01*
X164040330Y-77444415D01*
X164526511Y-77769271D01*
X165100000Y-77883345D01*
X165673489Y-77769271D01*
X166159670Y-77444415D01*
X166370000Y-77129634D01*
X166580330Y-77444415D01*
X167066511Y-77769271D01*
X167640000Y-77883345D01*
X168213489Y-77769271D01*
X168699670Y-77444415D01*
X168910000Y-77129634D01*
X169120330Y-77444415D01*
X169606511Y-77769271D01*
X170180000Y-77883345D01*
X170753489Y-77769271D01*
X171239670Y-77444415D01*
X171450000Y-77129634D01*
X171660330Y-77444415D01*
X172146511Y-77769271D01*
X172720000Y-77883345D01*
X173293489Y-77769271D01*
X173779670Y-77444415D01*
X173990000Y-77129634D01*
X174200330Y-77444415D01*
X174686511Y-77769271D01*
X175260000Y-77883345D01*
X175833489Y-77769271D01*
X176319670Y-77444415D01*
X176329243Y-77430087D01*
X176333238Y-77451317D01*
X176472310Y-77667441D01*
X176684510Y-77812431D01*
X176936400Y-77863440D01*
X178663600Y-77863440D01*
X178898917Y-77819162D01*
X179115041Y-77680090D01*
X179260031Y-77467890D01*
X179311040Y-77216000D01*
X179311040Y-75185000D01*
X179315000Y-75185000D01*
X179315000Y-83640198D01*
G36*
X149262599Y-95137401D02*
X149457541Y-95267657D01*
X149262599Y-95462599D01*
X149097852Y-95709161D01*
X149040000Y-96000000D01*
X149040000Y-97685198D01*
X148947440Y-97777758D01*
X148947440Y-97625000D01*
X148923056Y-97495411D01*
X148947440Y-97375000D01*
X148947440Y-97125000D01*
X148923056Y-96995411D01*
X148947440Y-96875000D01*
X148947440Y-96625000D01*
X148923056Y-96495411D01*
X148947440Y-96375000D01*
X148947440Y-96125000D01*
X148923056Y-95995411D01*
X148947440Y-95875000D01*
X148947440Y-95625000D01*
X148923056Y-95495411D01*
X148947440Y-95375000D01*
X148947440Y-95125000D01*
X148923056Y-94995411D01*
X148947440Y-94875000D01*
X148947440Y-94822242D01*
X149262599Y-95137401D01*
X149262599Y-95137401D01*
G37*
X149262599Y-95137401D02*
X149457541Y-95267657D01*
X149262599Y-95462599D01*
X149097852Y-95709161D01*
X149040000Y-96000000D01*
X149040000Y-97685198D01*
X148947440Y-97777758D01*
X148947440Y-97625000D01*
X148923056Y-97495411D01*
X148947440Y-97375000D01*
X148947440Y-97125000D01*
X148923056Y-96995411D01*
X148947440Y-96875000D01*
X148947440Y-96625000D01*
X148923056Y-96495411D01*
X148947440Y-96375000D01*
X148947440Y-96125000D01*
X148923056Y-95995411D01*
X148947440Y-95875000D01*
X148947440Y-95625000D01*
X148923056Y-95495411D01*
X148947440Y-95375000D01*
X148947440Y-95125000D01*
X148923056Y-94995411D01*
X148947440Y-94875000D01*
X148947440Y-94822242D01*
X149262599Y-95137401D01*
G36*
X167040000Y-87114802D02*
X167040000Y-87400000D01*
X167097852Y-87690839D01*
X167262599Y-87937401D01*
X167707239Y-88382041D01*
X167941224Y-88538385D01*
X167851480Y-88669730D01*
X167779950Y-88741260D01*
X167779950Y-88796450D01*
X167795180Y-88833219D01*
X167767510Y-88969860D01*
X167767510Y-89320380D01*
X167793833Y-89460274D01*
X167779950Y-89493790D01*
X167779950Y-89548980D01*
X167857129Y-89626159D01*
X167950860Y-89771821D01*
X167982945Y-89793743D01*
X167963509Y-89806250D01*
X167851480Y-89970210D01*
X167779950Y-90041740D01*
X167779950Y-90096930D01*
X167795180Y-90133699D01*
X167767510Y-90270340D01*
X167767510Y-90620860D01*
X167796743Y-90776222D01*
X167767510Y-90920580D01*
X167767510Y-90984391D01*
X167471057Y-91106883D01*
X167207808Y-91369673D01*
X167065162Y-91713201D01*
X167064838Y-92085167D01*
X167165000Y-92327578D01*
X167165000Y-92673000D01*
X167185000Y-92673000D01*
X167185000Y-92927000D01*
X167165000Y-92927000D01*
X167165000Y-93847750D01*
X167323750Y-94006500D01*
X167481809Y-94006500D01*
X167715198Y-93909827D01*
X167793286Y-93831739D01*
X167992610Y-93967931D01*
X168244500Y-94018940D01*
X168879500Y-94018940D01*
X169114817Y-93974662D01*
X169180692Y-93932272D01*
X170888421Y-95640000D01*
X166062463Y-95640000D01*
X166030327Y-95607808D01*
X165686799Y-95465162D01*
X165314833Y-95464838D01*
X164971057Y-95606883D01*
X164707808Y-95869673D01*
X164565162Y-96213201D01*
X164564838Y-96585167D01*
X164706883Y-96928943D01*
X164727710Y-96949806D01*
X164707808Y-96969673D01*
X164565162Y-97313201D01*
X164565095Y-97390293D01*
X163387401Y-96212599D01*
X163140839Y-96047852D01*
X163045846Y-96028956D01*
X164937401Y-94137401D01*
X165102148Y-93890840D01*
X165160000Y-93600000D01*
X165160000Y-93085750D01*
X166085500Y-93085750D01*
X166085500Y-93497810D01*
X166182173Y-93731199D01*
X166360802Y-93909827D01*
X166594191Y-94006500D01*
X166752250Y-94006500D01*
X166911000Y-93847750D01*
X166911000Y-92927000D01*
X166244250Y-92927000D01*
X166085500Y-93085750D01*
X165160000Y-93085750D01*
X165160000Y-92102190D01*
X166085500Y-92102190D01*
X166085500Y-92514250D01*
X166244250Y-92673000D01*
X166911000Y-92673000D01*
X166911000Y-91752250D01*
X166752250Y-91593500D01*
X166594191Y-91593500D01*
X166360802Y-91690173D01*
X166182173Y-91868801D01*
X166085500Y-92102190D01*
X165160000Y-92102190D01*
X165160000Y-87362463D01*
X165192192Y-87330327D01*
X165334838Y-86986799D01*
X165335162Y-86614833D01*
X165193117Y-86271057D01*
X164930327Y-86007808D01*
X164586799Y-85865162D01*
X164460000Y-85865052D01*
X164460000Y-84534802D01*
X167040000Y-87114802D01*
X167040000Y-87114802D01*
G37*
X167040000Y-87114802D02*
X167040000Y-87400000D01*
X167097852Y-87690839D01*
X167262599Y-87937401D01*
X167707239Y-88382041D01*
X167941224Y-88538385D01*
X167851480Y-88669730D01*
X167779950Y-88741260D01*
X167779950Y-88796450D01*
X167795180Y-88833219D01*
X167767510Y-88969860D01*
X167767510Y-89320380D01*
X167793833Y-89460274D01*
X167779950Y-89493790D01*
X167779950Y-89548980D01*
X167857129Y-89626159D01*
X167950860Y-89771821D01*
X167982945Y-89793743D01*
X167963509Y-89806250D01*
X167851480Y-89970210D01*
X167779950Y-90041740D01*
X167779950Y-90096930D01*
X167795180Y-90133699D01*
X167767510Y-90270340D01*
X167767510Y-90620860D01*
X167796743Y-90776222D01*
X167767510Y-90920580D01*
X167767510Y-90984391D01*
X167471057Y-91106883D01*
X167207808Y-91369673D01*
X167065162Y-91713201D01*
X167064838Y-92085167D01*
X167165000Y-92327578D01*
X167165000Y-92673000D01*
X167185000Y-92673000D01*
X167185000Y-92927000D01*
X167165000Y-92927000D01*
X167165000Y-93847750D01*
X167323750Y-94006500D01*
X167481809Y-94006500D01*
X167715198Y-93909827D01*
X167793286Y-93831739D01*
X167992610Y-93967931D01*
X168244500Y-94018940D01*
X168879500Y-94018940D01*
X169114817Y-93974662D01*
X169180692Y-93932272D01*
X170888421Y-95640000D01*
X166062463Y-95640000D01*
X166030327Y-95607808D01*
X165686799Y-95465162D01*
X165314833Y-95464838D01*
X164971057Y-95606883D01*
X164707808Y-95869673D01*
X164565162Y-96213201D01*
X164564838Y-96585167D01*
X164706883Y-96928943D01*
X164727710Y-96949806D01*
X164707808Y-96969673D01*
X164565162Y-97313201D01*
X164565095Y-97390293D01*
X163387401Y-96212599D01*
X163140839Y-96047852D01*
X163045846Y-96028956D01*
X164937401Y-94137401D01*
X165102148Y-93890840D01*
X165160000Y-93600000D01*
X165160000Y-93085750D01*
X166085500Y-93085750D01*
X166085500Y-93497810D01*
X166182173Y-93731199D01*
X166360802Y-93909827D01*
X166594191Y-94006500D01*
X166752250Y-94006500D01*
X166911000Y-93847750D01*
X166911000Y-92927000D01*
X166244250Y-92927000D01*
X166085500Y-93085750D01*
X165160000Y-93085750D01*
X165160000Y-92102190D01*
X166085500Y-92102190D01*
X166085500Y-92514250D01*
X166244250Y-92673000D01*
X166911000Y-92673000D01*
X166911000Y-91752250D01*
X166752250Y-91593500D01*
X166594191Y-91593500D01*
X166360802Y-91690173D01*
X166182173Y-91868801D01*
X166085500Y-92102190D01*
X165160000Y-92102190D01*
X165160000Y-87362463D01*
X165192192Y-87330327D01*
X165334838Y-86986799D01*
X165335162Y-86614833D01*
X165193117Y-86271057D01*
X164930327Y-86007808D01*
X164586799Y-85865162D01*
X164460000Y-85865052D01*
X164460000Y-84534802D01*
X167040000Y-87114802D01*
G36*
X158738526Y-91977560D02*
X158700000Y-91977560D01*
X158464683Y-92021838D01*
X158248559Y-92160910D01*
X158103569Y-92373110D01*
X158052560Y-92625000D01*
X158052560Y-92875000D01*
X158072450Y-92980705D01*
X158065000Y-92998690D01*
X158065000Y-93028750D01*
X158085312Y-93049062D01*
X158096838Y-93110317D01*
X158187190Y-93250727D01*
X158103569Y-93373110D01*
X158088442Y-93447808D01*
X158065000Y-93471250D01*
X158065000Y-93501310D01*
X158073468Y-93521753D01*
X158052560Y-93625000D01*
X158052560Y-93875000D01*
X158076944Y-94004589D01*
X158052560Y-94125000D01*
X158052560Y-94375000D01*
X158056126Y-94393949D01*
X157986799Y-94365162D01*
X157614833Y-94364838D01*
X157271057Y-94506883D01*
X157237882Y-94540000D01*
X157235053Y-94540000D01*
X157235162Y-94414833D01*
X157093117Y-94071057D01*
X157036225Y-94014065D01*
X157328943Y-93893117D01*
X157592192Y-93630327D01*
X157734838Y-93286799D01*
X157735162Y-92914833D01*
X157593117Y-92571057D01*
X157330327Y-92307808D01*
X156986799Y-92165162D01*
X156614833Y-92164838D01*
X156561625Y-92186823D01*
X156322242Y-91947440D01*
X156375000Y-91947440D01*
X156504589Y-91923056D01*
X156625000Y-91947440D01*
X156875000Y-91947440D01*
X157004589Y-91923056D01*
X157125000Y-91947440D01*
X157375000Y-91947440D01*
X157610317Y-91903162D01*
X157826441Y-91764090D01*
X157971431Y-91551890D01*
X158022440Y-91300000D01*
X158022440Y-90752362D01*
X158730370Y-90044432D01*
X158738526Y-91977560D01*
X158738526Y-91977560D01*
G37*
X158738526Y-91977560D02*
X158700000Y-91977560D01*
X158464683Y-92021838D01*
X158248559Y-92160910D01*
X158103569Y-92373110D01*
X158052560Y-92625000D01*
X158052560Y-92875000D01*
X158072450Y-92980705D01*
X158065000Y-92998690D01*
X158065000Y-93028750D01*
X158085312Y-93049062D01*
X158096838Y-93110317D01*
X158187190Y-93250727D01*
X158103569Y-93373110D01*
X158088442Y-93447808D01*
X158065000Y-93471250D01*
X158065000Y-93501310D01*
X158073468Y-93521753D01*
X158052560Y-93625000D01*
X158052560Y-93875000D01*
X158076944Y-94004589D01*
X158052560Y-94125000D01*
X158052560Y-94375000D01*
X158056126Y-94393949D01*
X157986799Y-94365162D01*
X157614833Y-94364838D01*
X157271057Y-94506883D01*
X157237882Y-94540000D01*
X157235053Y-94540000D01*
X157235162Y-94414833D01*
X157093117Y-94071057D01*
X157036225Y-94014065D01*
X157328943Y-93893117D01*
X157592192Y-93630327D01*
X157734838Y-93286799D01*
X157735162Y-92914833D01*
X157593117Y-92571057D01*
X157330327Y-92307808D01*
X156986799Y-92165162D01*
X156614833Y-92164838D01*
X156561625Y-92186823D01*
X156322242Y-91947440D01*
X156375000Y-91947440D01*
X156504589Y-91923056D01*
X156625000Y-91947440D01*
X156875000Y-91947440D01*
X157004589Y-91923056D01*
X157125000Y-91947440D01*
X157375000Y-91947440D01*
X157610317Y-91903162D01*
X157826441Y-91764090D01*
X157971431Y-91551890D01*
X158022440Y-91300000D01*
X158022440Y-90752362D01*
X158730370Y-90044432D01*
X158738526Y-91977560D01*
G36*
X154125000Y-91947440D02*
X154185898Y-91947440D01*
X154212599Y-91987401D01*
X155862599Y-93637401D01*
X155984350Y-93718752D01*
X155771057Y-93806883D01*
X155737882Y-93840000D01*
X152215477Y-93840000D01*
X152328943Y-93793117D01*
X152592192Y-93530327D01*
X152734838Y-93186799D01*
X152734883Y-93135031D01*
X152885167Y-93135162D01*
X153228943Y-92993117D01*
X153492192Y-92730327D01*
X153634838Y-92386799D01*
X153635162Y-92014833D01*
X153605701Y-91943532D01*
X153625000Y-91947440D01*
X153875000Y-91947440D01*
X154004589Y-91923056D01*
X154125000Y-91947440D01*
X154125000Y-91947440D01*
G37*
X154125000Y-91947440D02*
X154185898Y-91947440D01*
X154212599Y-91987401D01*
X155862599Y-93637401D01*
X155984350Y-93718752D01*
X155771057Y-93806883D01*
X155737882Y-93840000D01*
X152215477Y-93840000D01*
X152328943Y-93793117D01*
X152592192Y-93530327D01*
X152734838Y-93186799D01*
X152734883Y-93135031D01*
X152885167Y-93135162D01*
X153228943Y-92993117D01*
X153492192Y-92730327D01*
X153634838Y-92386799D01*
X153635162Y-92014833D01*
X153605701Y-91943532D01*
X153625000Y-91947440D01*
X153875000Y-91947440D01*
X154004589Y-91923056D01*
X154125000Y-91947440D01*
G36*
X149173559Y-89835910D02*
X149034110Y-90040000D01*
X148624928Y-90040000D01*
X148538674Y-89982367D01*
X148200000Y-89915000D01*
X148024990Y-89949812D01*
X148214802Y-89760000D01*
X149291526Y-89760000D01*
X149173559Y-89835910D01*
X149173559Y-89835910D01*
G37*
X149173559Y-89835910D02*
X149034110Y-90040000D01*
X148624928Y-90040000D01*
X148538674Y-89982367D01*
X148200000Y-89915000D01*
X148024990Y-89949812D01*
X148214802Y-89760000D01*
X149291526Y-89760000D01*
X149173559Y-89835910D01*
G36*
X149765198Y-88240000D02*
X147900000Y-88240000D01*
X147609161Y-88297852D01*
X147362599Y-88462599D01*
X146625810Y-89199388D01*
X146609827Y-89160802D01*
X146431199Y-88982173D01*
X146197810Y-88885500D01*
X145785750Y-88885500D01*
X145627000Y-89044250D01*
X145627000Y-89711000D01*
X145647000Y-89711000D01*
X145647000Y-89840000D01*
X145353000Y-89840000D01*
X145353000Y-89711000D01*
X145373000Y-89711000D01*
X145373000Y-89044250D01*
X145214250Y-88885500D01*
X144802190Y-88885500D01*
X144568801Y-88982173D01*
X144390173Y-89160802D01*
X144344901Y-89270099D01*
X144337401Y-89262599D01*
X144090839Y-89097852D01*
X143800000Y-89040000D01*
X142852042Y-89040000D01*
X143318458Y-88847282D01*
X143676026Y-88490337D01*
X143869779Y-88023727D01*
X143870220Y-87518490D01*
X143677282Y-87051542D01*
X143320337Y-86693974D01*
X142853727Y-86500221D01*
X142851512Y-86500219D01*
X143318458Y-86307282D01*
X143676026Y-85950337D01*
X143869779Y-85483727D01*
X143870220Y-84978490D01*
X143677282Y-84511542D01*
X143320337Y-84153974D01*
X143094022Y-84060000D01*
X145585198Y-84060000D01*
X149765198Y-88240000D01*
X149765198Y-88240000D01*
G37*
X149765198Y-88240000D02*
X147900000Y-88240000D01*
X147609161Y-88297852D01*
X147362599Y-88462599D01*
X146625810Y-89199388D01*
X146609827Y-89160802D01*
X146431199Y-88982173D01*
X146197810Y-88885500D01*
X145785750Y-88885500D01*
X145627000Y-89044250D01*
X145627000Y-89711000D01*
X145647000Y-89711000D01*
X145647000Y-89840000D01*
X145353000Y-89840000D01*
X145353000Y-89711000D01*
X145373000Y-89711000D01*
X145373000Y-89044250D01*
X145214250Y-88885500D01*
X144802190Y-88885500D01*
X144568801Y-88982173D01*
X144390173Y-89160802D01*
X144344901Y-89270099D01*
X144337401Y-89262599D01*
X144090839Y-89097852D01*
X143800000Y-89040000D01*
X142852042Y-89040000D01*
X143318458Y-88847282D01*
X143676026Y-88490337D01*
X143869779Y-88023727D01*
X143870220Y-87518490D01*
X143677282Y-87051542D01*
X143320337Y-86693974D01*
X142853727Y-86500221D01*
X142851512Y-86500219D01*
X143318458Y-86307282D01*
X143676026Y-85950337D01*
X143869779Y-85483727D01*
X143870220Y-84978490D01*
X143677282Y-84511542D01*
X143320337Y-84153974D01*
X143094022Y-84060000D01*
X145585198Y-84060000D01*
X149765198Y-88240000D01*
G36*
X138427000Y-87035000D02*
X138447000Y-87035000D01*
X138447000Y-87289000D01*
X138427000Y-87289000D01*
X138427000Y-87714250D01*
X138389000Y-87752250D01*
X138389000Y-88673000D01*
X139055750Y-88673000D01*
X139214500Y-88514250D01*
X139214500Y-88102190D01*
X139187119Y-88036086D01*
X139231199Y-88017827D01*
X139296297Y-87952729D01*
X139476610Y-88075931D01*
X139728500Y-88126940D01*
X140871500Y-88126940D01*
X141106817Y-88082662D01*
X141322941Y-87943590D01*
X141329857Y-87933468D01*
X141329780Y-88021510D01*
X141522718Y-88488458D01*
X141879663Y-88846026D01*
X142346273Y-89039779D01*
X142599464Y-89040000D01*
X139168750Y-89040000D01*
X139055750Y-88927000D01*
X138389000Y-88927000D01*
X138389000Y-88947000D01*
X138160000Y-88947000D01*
X138160000Y-87968750D01*
X138173000Y-87955750D01*
X138173000Y-87289000D01*
X138153000Y-87289000D01*
X138153000Y-87035000D01*
X138173000Y-87035000D01*
X138173000Y-87015000D01*
X138427000Y-87015000D01*
X138427000Y-87035000D01*
X138427000Y-87035000D01*
G37*
X138427000Y-87035000D02*
X138447000Y-87035000D01*
X138447000Y-87289000D01*
X138427000Y-87289000D01*
X138427000Y-87714250D01*
X138389000Y-87752250D01*
X138389000Y-88673000D01*
X139055750Y-88673000D01*
X139214500Y-88514250D01*
X139214500Y-88102190D01*
X139187119Y-88036086D01*
X139231199Y-88017827D01*
X139296297Y-87952729D01*
X139476610Y-88075931D01*
X139728500Y-88126940D01*
X140871500Y-88126940D01*
X141106817Y-88082662D01*
X141322941Y-87943590D01*
X141329857Y-87933468D01*
X141329780Y-88021510D01*
X141522718Y-88488458D01*
X141879663Y-88846026D01*
X142346273Y-89039779D01*
X142599464Y-89040000D01*
X139168750Y-89040000D01*
X139055750Y-88927000D01*
X138389000Y-88927000D01*
X138389000Y-88947000D01*
X138160000Y-88947000D01*
X138160000Y-87968750D01*
X138173000Y-87955750D01*
X138173000Y-87289000D01*
X138153000Y-87289000D01*
X138153000Y-87035000D01*
X138173000Y-87035000D01*
X138173000Y-87015000D01*
X138427000Y-87015000D01*
X138427000Y-87035000D01*
G36*
X138640330Y-77444415D02*
X139126511Y-77769271D01*
X139700000Y-77883345D01*
X140124170Y-77798972D01*
X141762599Y-79437401D01*
X142009160Y-79602148D01*
X142300000Y-79660000D01*
X146885198Y-79660000D01*
X149562599Y-82337401D01*
X149809160Y-82502148D01*
X150100000Y-82560000D01*
X153485198Y-82560000D01*
X157640000Y-86714802D01*
X157640000Y-88117498D01*
X157630327Y-88107808D01*
X157286799Y-87965162D01*
X157231981Y-87965114D01*
X157193117Y-87871057D01*
X156930327Y-87607808D01*
X156620404Y-87479116D01*
X156493117Y-87171057D01*
X156230327Y-86907808D01*
X155886799Y-86765162D01*
X155514833Y-86764838D01*
X155171057Y-86906883D01*
X154907808Y-87169673D01*
X154765162Y-87513201D01*
X154765121Y-87560077D01*
X154712599Y-87612599D01*
X154547852Y-87859161D01*
X154490000Y-88150000D01*
X154490000Y-88215198D01*
X147487399Y-81212597D01*
X147240837Y-81047850D01*
X146949998Y-80989998D01*
X131064800Y-80989998D01*
X130300000Y-80225198D01*
X130300000Y-77644648D01*
X130599670Y-77444415D01*
X130810000Y-77129634D01*
X131020330Y-77444415D01*
X131506511Y-77769271D01*
X132080000Y-77883345D01*
X132653489Y-77769271D01*
X133139670Y-77444415D01*
X133350000Y-77129634D01*
X133560330Y-77444415D01*
X134046511Y-77769271D01*
X134620000Y-77883345D01*
X135193489Y-77769271D01*
X135679670Y-77444415D01*
X135890000Y-77129634D01*
X136100330Y-77444415D01*
X136586511Y-77769271D01*
X137160000Y-77883345D01*
X137733489Y-77769271D01*
X138219670Y-77444415D01*
X138430000Y-77129634D01*
X138640330Y-77444415D01*
X138640330Y-77444415D01*
G37*
X138640330Y-77444415D02*
X139126511Y-77769271D01*
X139700000Y-77883345D01*
X140124170Y-77798972D01*
X141762599Y-79437401D01*
X142009160Y-79602148D01*
X142300000Y-79660000D01*
X146885198Y-79660000D01*
X149562599Y-82337401D01*
X149809160Y-82502148D01*
X150100000Y-82560000D01*
X153485198Y-82560000D01*
X157640000Y-86714802D01*
X157640000Y-88117498D01*
X157630327Y-88107808D01*
X157286799Y-87965162D01*
X157231981Y-87965114D01*
X157193117Y-87871057D01*
X156930327Y-87607808D01*
X156620404Y-87479116D01*
X156493117Y-87171057D01*
X156230327Y-86907808D01*
X155886799Y-86765162D01*
X155514833Y-86764838D01*
X155171057Y-86906883D01*
X154907808Y-87169673D01*
X154765162Y-87513201D01*
X154765121Y-87560077D01*
X154712599Y-87612599D01*
X154547852Y-87859161D01*
X154490000Y-88150000D01*
X154490000Y-88215198D01*
X147487399Y-81212597D01*
X147240837Y-81047850D01*
X146949998Y-80989998D01*
X131064800Y-80989998D01*
X130300000Y-80225198D01*
X130300000Y-77644648D01*
X130599670Y-77444415D01*
X130810000Y-77129634D01*
X131020330Y-77444415D01*
X131506511Y-77769271D01*
X132080000Y-77883345D01*
X132653489Y-77769271D01*
X133139670Y-77444415D01*
X133350000Y-77129634D01*
X133560330Y-77444415D01*
X134046511Y-77769271D01*
X134620000Y-77883345D01*
X135193489Y-77769271D01*
X135679670Y-77444415D01*
X135890000Y-77129634D01*
X136100330Y-77444415D01*
X136586511Y-77769271D01*
X137160000Y-77883345D01*
X137733489Y-77769271D01*
X138219670Y-77444415D01*
X138430000Y-77129634D01*
X138640330Y-77444415D01*
G36*
X118320330Y-77444415D02*
X118620000Y-77644648D01*
X118620000Y-77780000D01*
X118677852Y-78070839D01*
X118842599Y-78317401D01*
X119874198Y-79349000D01*
X119823998Y-79349000D01*
X119823998Y-79507748D01*
X119665250Y-79349000D01*
X119062691Y-79349000D01*
X118829302Y-79445673D01*
X118650673Y-79624301D01*
X118554000Y-79857690D01*
X118554000Y-80714250D01*
X118712750Y-80873000D01*
X119824000Y-80873000D01*
X119824000Y-80853000D01*
X120078000Y-80853000D01*
X120078000Y-80873000D01*
X121189250Y-80873000D01*
X121293724Y-80768526D01*
X124862599Y-84337401D01*
X125109161Y-84502148D01*
X125400000Y-84560000D01*
X133285198Y-84560000D01*
X134042409Y-85317211D01*
X133969059Y-85364410D01*
X133824069Y-85576610D01*
X133773060Y-85828500D01*
X133773060Y-86290138D01*
X133607222Y-86455976D01*
X133492780Y-86278129D01*
X133280580Y-86133139D01*
X133028690Y-86082130D01*
X131756792Y-86082130D01*
X131037261Y-85362599D01*
X130790699Y-85197852D01*
X130499860Y-85140000D01*
X120700000Y-85140000D01*
X120409161Y-85197852D01*
X120162599Y-85362599D01*
X119013740Y-86511458D01*
X118925391Y-86529032D01*
X118472172Y-86831864D01*
X118190000Y-87254163D01*
X117907828Y-86831864D01*
X117723000Y-86708366D01*
X117723000Y-84525649D01*
X117918191Y-84606500D01*
X118076250Y-84606500D01*
X118235000Y-84447750D01*
X118235000Y-83527000D01*
X118489000Y-83527000D01*
X118489000Y-84447750D01*
X118647750Y-84606500D01*
X118805809Y-84606500D01*
X119039198Y-84509827D01*
X119217827Y-84331199D01*
X119314500Y-84097810D01*
X119314500Y-83685750D01*
X119155750Y-83527000D01*
X118489000Y-83527000D01*
X118235000Y-83527000D01*
X118215000Y-83527000D01*
X118215000Y-83273000D01*
X118235000Y-83273000D01*
X118235000Y-82352250D01*
X118489000Y-82352250D01*
X118489000Y-83273000D01*
X119155750Y-83273000D01*
X119314500Y-83114250D01*
X119314500Y-82702190D01*
X119293296Y-82651000D01*
X119665250Y-82651000D01*
X119824000Y-82492250D01*
X119824000Y-81127000D01*
X120078000Y-81127000D01*
X120078000Y-82492250D01*
X120236750Y-82651000D01*
X120839309Y-82651000D01*
X121072698Y-82554327D01*
X121251327Y-82375699D01*
X121348000Y-82142310D01*
X121348000Y-81285750D01*
X121189250Y-81127000D01*
X120078000Y-81127000D01*
X119824000Y-81127000D01*
X118712750Y-81127000D01*
X118554000Y-81285750D01*
X118554000Y-82142310D01*
X118596452Y-82244798D01*
X118489000Y-82352250D01*
X118235000Y-82352250D01*
X118076250Y-82193500D01*
X118022495Y-82193500D01*
X118058440Y-82016000D01*
X118058440Y-79984000D01*
X118014162Y-79748683D01*
X117875090Y-79532559D01*
X117725000Y-79430007D01*
X117725000Y-77561126D01*
X117899670Y-77444415D01*
X118110000Y-77129634D01*
X118320330Y-77444415D01*
X118320330Y-77444415D01*
G37*
X118320330Y-77444415D02*
X118620000Y-77644648D01*
X118620000Y-77780000D01*
X118677852Y-78070839D01*
X118842599Y-78317401D01*
X119874198Y-79349000D01*
X119823998Y-79349000D01*
X119823998Y-79507748D01*
X119665250Y-79349000D01*
X119062691Y-79349000D01*
X118829302Y-79445673D01*
X118650673Y-79624301D01*
X118554000Y-79857690D01*
X118554000Y-80714250D01*
X118712750Y-80873000D01*
X119824000Y-80873000D01*
X119824000Y-80853000D01*
X120078000Y-80853000D01*
X120078000Y-80873000D01*
X121189250Y-80873000D01*
X121293724Y-80768526D01*
X124862599Y-84337401D01*
X125109161Y-84502148D01*
X125400000Y-84560000D01*
X133285198Y-84560000D01*
X134042409Y-85317211D01*
X133969059Y-85364410D01*
X133824069Y-85576610D01*
X133773060Y-85828500D01*
X133773060Y-86290138D01*
X133607222Y-86455976D01*
X133492780Y-86278129D01*
X133280580Y-86133139D01*
X133028690Y-86082130D01*
X131756792Y-86082130D01*
X131037261Y-85362599D01*
X130790699Y-85197852D01*
X130499860Y-85140000D01*
X120700000Y-85140000D01*
X120409161Y-85197852D01*
X120162599Y-85362599D01*
X119013740Y-86511458D01*
X118925391Y-86529032D01*
X118472172Y-86831864D01*
X118190000Y-87254163D01*
X117907828Y-86831864D01*
X117723000Y-86708366D01*
X117723000Y-84525649D01*
X117918191Y-84606500D01*
X118076250Y-84606500D01*
X118235000Y-84447750D01*
X118235000Y-83527000D01*
X118489000Y-83527000D01*
X118489000Y-84447750D01*
X118647750Y-84606500D01*
X118805809Y-84606500D01*
X119039198Y-84509827D01*
X119217827Y-84331199D01*
X119314500Y-84097810D01*
X119314500Y-83685750D01*
X119155750Y-83527000D01*
X118489000Y-83527000D01*
X118235000Y-83527000D01*
X118215000Y-83527000D01*
X118215000Y-83273000D01*
X118235000Y-83273000D01*
X118235000Y-82352250D01*
X118489000Y-82352250D01*
X118489000Y-83273000D01*
X119155750Y-83273000D01*
X119314500Y-83114250D01*
X119314500Y-82702190D01*
X119293296Y-82651000D01*
X119665250Y-82651000D01*
X119824000Y-82492250D01*
X119824000Y-81127000D01*
X120078000Y-81127000D01*
X120078000Y-82492250D01*
X120236750Y-82651000D01*
X120839309Y-82651000D01*
X121072698Y-82554327D01*
X121251327Y-82375699D01*
X121348000Y-82142310D01*
X121348000Y-81285750D01*
X121189250Y-81127000D01*
X120078000Y-81127000D01*
X119824000Y-81127000D01*
X118712750Y-81127000D01*
X118554000Y-81285750D01*
X118554000Y-82142310D01*
X118596452Y-82244798D01*
X118489000Y-82352250D01*
X118235000Y-82352250D01*
X118076250Y-82193500D01*
X118022495Y-82193500D01*
X118058440Y-82016000D01*
X118058440Y-79984000D01*
X118014162Y-79748683D01*
X117875090Y-79532559D01*
X117725000Y-79430007D01*
X117725000Y-77561126D01*
X117899670Y-77444415D01*
X118110000Y-77129634D01*
X118320330Y-77444415D01*
G36*
X160440000Y-81714803D02*
X160440000Y-85984523D01*
X160393117Y-85871057D01*
X160130327Y-85607808D01*
X159786799Y-85465162D01*
X159505768Y-85464917D01*
X159437401Y-85362599D01*
X155534802Y-81460000D01*
X160185198Y-81460000D01*
X160440000Y-81714803D01*
X160440000Y-81714803D01*
G37*
X160440000Y-81714803D02*
X160440000Y-85984523D01*
X160393117Y-85871057D01*
X160130327Y-85607808D01*
X159786799Y-85465162D01*
X159505768Y-85464917D01*
X159437401Y-85362599D01*
X155534802Y-81460000D01*
X160185198Y-81460000D01*
X160440000Y-81714803D01*
G36*
X140427000Y-85511000D02*
X140447000Y-85511000D01*
X140447000Y-85765000D01*
X140427000Y-85765000D01*
X140427000Y-85785000D01*
X140173000Y-85785000D01*
X140173000Y-85765000D01*
X140153000Y-85765000D01*
X140153000Y-85511000D01*
X140173000Y-85511000D01*
X140173000Y-85491000D01*
X140427000Y-85491000D01*
X140427000Y-85511000D01*
X140427000Y-85511000D01*
G37*
X140427000Y-85511000D02*
X140447000Y-85511000D01*
X140447000Y-85765000D01*
X140427000Y-85765000D01*
X140427000Y-85785000D01*
X140173000Y-85785000D01*
X140173000Y-85765000D01*
X140153000Y-85765000D01*
X140153000Y-85511000D01*
X140173000Y-85511000D01*
X140173000Y-85491000D01*
X140427000Y-85491000D01*
X140427000Y-85511000D01*
M02*
