M48
;DRILL file {KiCad 4.0.7-e2-6376~58~ubuntu14.04.1} date Wed Mar 28 12:10:52 2018
;FORMAT={-:-/ absolute / metric / decimal}
FMAT,2
METRIC,TZ
T1C0.200
T2C0.400
T3C0.762
T4C0.800
T5C0.800
T6C0.813
T7C1.000
T8C1.016
%
G90
G05
M71
T1
X122.8Y-83.7
X125.5Y-102.4
X135.5Y-109.6
X136.9Y-104.8
X165.7Y-88.
X166.5Y-81.9
X170.8Y-86.6
X178.9Y-80.1
T2
X121.4Y-96.4
X122.6Y-106.8
X129.1Y-94.7
X131.3Y-95.1
X133.Y-89.1
X133.2Y-90.4
X135.1Y-94.3
X135.1Y-97.7
X136.2Y-79.5
X136.4Y-98.1
X140.Y-88.8
X140.2Y-90.6
X141.Y-91.4
X142.3Y-91.4
X144.4Y-96.7
X145.6Y-97.2
X145.9Y-98.
X145.9Y-99.
X146.1Y-104.7
X146.2Y-109.2
X146.6Y-88.7
X148.7Y-89.8
X149.1Y-95.3
X150.8Y-82.6
X151.Y-93.5
X151.8Y-93.
X152.5Y-104.1
X152.7Y-92.2
X152.8Y-105.6
X153.1Y-93.6
X153.7Y-104.2
X154.8Y-101.
X155.2Y-87.4
X155.6Y-101.
X155.9Y-88.1
X156.3Y-94.6
X156.6Y-88.8
X156.8Y-93.1
X156.8Y-106.
X157.8Y-95.3
X157.8Y-96.1
X157.8Y-97.
X157.8Y-97.8
X157.8Y-98.6
X157.8Y-99.5
X157.8Y-100.3
X157.8Y-101.4
X158.7Y-84.2
X158.8Y-82.6
X159.2Y-103.
X160.4Y-91.5
X163.6Y-108.8
X163.6Y-110.
X164.Y-107.8
X164.4Y-80.5
X164.4Y-84.5
X164.7Y-94.5
X165.5Y-96.4
X165.5Y-97.5
X165.5Y-98.7
X165.5Y-102.1
X165.5Y-103.2
X165.5Y-104.4
X165.6Y-99.9
X165.6Y-101.1
X168.Y-91.9
X168.4Y-104.4
X171.7Y-96.4
X171.7Y-97.4
X171.7Y-98.6
X171.7Y-99.9
X171.7Y-101.1
X171.7Y-102.1
X171.7Y-103.2
T3
X116.92Y-88.
X116.92Y-93.08
X119.46Y-88.
X119.46Y-93.08
X122.Y-88.
X122.Y-93.08
T4
X116.69Y-102.42
X116.69Y-108.42
X116.87Y-99.06
X118.87Y-99.06
X120.87Y-99.06
X121.09Y-102.42
X121.09Y-108.42
T5
X131.Y-99.559
X131.Y-104.441
T6
X142.6Y-85.23
X142.6Y-87.77
T7
X176.53Y-97.79
X176.53Y-100.33
X176.53Y-102.87
X176.53Y-105.41
T8
X116.84Y-76.2
X116.84Y-114.3
X119.38Y-76.2
X119.38Y-114.3
X121.92Y-76.2
X121.92Y-114.3
X124.46Y-76.2
X124.46Y-114.3
X127.Y-76.2
X127.Y-114.3
X129.54Y-76.2
X129.54Y-114.3
X132.08Y-76.2
X132.08Y-114.3
X134.62Y-76.2
X134.62Y-114.3
X137.16Y-76.2
X137.16Y-114.3
X139.7Y-76.2
X139.7Y-114.3
X142.24Y-76.2
X142.24Y-114.3
X144.78Y-76.2
X144.78Y-114.3
X147.32Y-76.2
X147.32Y-114.3
X149.86Y-76.2
X149.86Y-114.3
X152.4Y-76.2
X152.4Y-114.3
X154.94Y-76.2
X154.94Y-114.3
X157.48Y-76.2
X157.48Y-114.3
X160.02Y-76.2
X160.02Y-114.3
X162.56Y-76.2
X162.56Y-114.3
X165.1Y-76.2
X165.1Y-114.3
X167.64Y-76.2
X167.64Y-114.3
X170.18Y-76.2
X170.18Y-114.3
X172.72Y-76.2
X172.72Y-114.3
X175.26Y-76.2
X175.26Y-114.3
X177.8Y-76.2
X177.8Y-114.3
T0
M30
