G04 #@! TF.FileFunction,Copper,L2,Bot,Signal*
%FSLAX46Y46*%
G04 Gerber Fmt 4.6, Leading zero omitted, Abs format (unit mm)*
G04 Created by KiCad (PCBNEW 4.0.7-e2-6376~58~ubuntu14.04.1) date Sat Dec  9 10:48:14 2017*
%MOMM*%
%LPD*%
G01*
G04 APERTURE LIST*
%ADD10C,0.100000*%
%ADD11C,1.501140*%
%ADD12R,1.727200X2.032000*%
%ADD13O,1.727200X2.032000*%
%ADD14C,1.397000*%
%ADD15C,1.270000*%
%ADD16O,3.014980X1.506220*%
%ADD17C,1.400000*%
%ADD18R,1.524000X1.824000*%
%ADD19O,1.524000X1.824000*%
%ADD20C,0.600000*%
%ADD21C,0.500000*%
%ADD22C,0.250000*%
%ADD23C,0.254000*%
G04 APERTURE END LIST*
D10*
D11*
X131000000Y-99559060D03*
X131000000Y-104440940D03*
D12*
X177800000Y-76200000D03*
D13*
X175260000Y-76200000D03*
X172720000Y-76200000D03*
X170180000Y-76200000D03*
X167640000Y-76200000D03*
X165100000Y-76200000D03*
X162560000Y-76200000D03*
X160020000Y-76200000D03*
X157480000Y-76200000D03*
X154940000Y-76200000D03*
X152400000Y-76200000D03*
X149860000Y-76200000D03*
X147320000Y-76200000D03*
X144780000Y-76200000D03*
X142240000Y-76200000D03*
X139700000Y-76200000D03*
X137160000Y-76200000D03*
X134620000Y-76200000D03*
X132080000Y-76200000D03*
X129540000Y-76200000D03*
X127000000Y-76200000D03*
X124460000Y-76200000D03*
X121920000Y-76200000D03*
X119380000Y-76200000D03*
X116840000Y-76200000D03*
D12*
X177800000Y-114300000D03*
D13*
X175260000Y-114300000D03*
X172720000Y-114300000D03*
X170180000Y-114300000D03*
X167640000Y-114300000D03*
X165100000Y-114300000D03*
X162560000Y-114300000D03*
X160020000Y-114300000D03*
X157480000Y-114300000D03*
X154940000Y-114300000D03*
X152400000Y-114300000D03*
X149860000Y-114300000D03*
X147320000Y-114300000D03*
X144780000Y-114300000D03*
X142240000Y-114300000D03*
X139700000Y-114300000D03*
X137160000Y-114300000D03*
X134620000Y-114300000D03*
X132080000Y-114300000D03*
X129540000Y-114300000D03*
X127000000Y-114300000D03*
X124460000Y-114300000D03*
X121920000Y-114300000D03*
X119380000Y-114300000D03*
X116840000Y-114300000D03*
D14*
X115910000Y-102410000D03*
X120310000Y-102410000D03*
X115910000Y-108410000D03*
X120310000Y-108410000D03*
D15*
X142600000Y-87770000D03*
X142600000Y-85230000D03*
D16*
X176530000Y-97790000D03*
X176530000Y-105410000D03*
X176530000Y-102870000D03*
X176530000Y-100330000D03*
D17*
X120110000Y-99060000D03*
X118110000Y-99060000D03*
X116110000Y-99060000D03*
D18*
X122000000Y-88000000D03*
D19*
X122000000Y-93080000D03*
X119460000Y-88000000D03*
X119460000Y-93080000D03*
X116920000Y-88000000D03*
X116920000Y-93080000D03*
D20*
X158800000Y-82600000D03*
X150800000Y-82600000D03*
X136200000Y-79500000D03*
X150500000Y-100800000D03*
X153400000Y-100800000D03*
X164700000Y-94500000D03*
X160400000Y-91500000D03*
X146600000Y-88700000D03*
X148700000Y-89800000D03*
X149100000Y-95300000D03*
X153100000Y-93600000D03*
X140000000Y-88800000D03*
X134100000Y-89100000D03*
X136400000Y-98100000D03*
X129100000Y-94700000D03*
X135100000Y-94300000D03*
X153400000Y-105600000D03*
X156800000Y-106000000D03*
X168000000Y-91900000D03*
X159600000Y-86400000D03*
X164000000Y-107800000D03*
X159200000Y-103000000D03*
X133200000Y-90400000D03*
X140200000Y-90600000D03*
X135100000Y-97700000D03*
X131300000Y-95100000D03*
X141000000Y-91400000D03*
X142300000Y-91400000D03*
X157800000Y-95300000D03*
X165500000Y-96400000D03*
X171700000Y-96400000D03*
X165500000Y-97500000D03*
X171700000Y-97400000D03*
X157800000Y-96100000D03*
X171700000Y-98600000D03*
X165500000Y-98700000D03*
X157800000Y-97000000D03*
X157800000Y-97800000D03*
X165600000Y-99900000D03*
X171700000Y-99900000D03*
X171700000Y-101100000D03*
X165600000Y-101100000D03*
X157800000Y-98600000D03*
X171700000Y-102100000D03*
X165500000Y-102100000D03*
X157800000Y-99500000D03*
X157800000Y-100300000D03*
X165500000Y-103200000D03*
X171700000Y-103200000D03*
X157800000Y-101400000D03*
X165500000Y-104400000D03*
X168400000Y-104400000D03*
X164400000Y-80500000D03*
X164400000Y-86800000D03*
X155600000Y-101000000D03*
X154800000Y-101000000D03*
X122600000Y-106800000D03*
X121400000Y-96400000D03*
X163600000Y-108800000D03*
X156800000Y-93100000D03*
X163600000Y-110000000D03*
X156300000Y-94600000D03*
X155700000Y-87700000D03*
X156400000Y-88400000D03*
X157100000Y-88900000D03*
X153700000Y-104200000D03*
X152500000Y-104100000D03*
X145900000Y-99000000D03*
X145900000Y-98000000D03*
X145600000Y-97200000D03*
X144400000Y-96700000D03*
X151000000Y-93500000D03*
X151800000Y-93000000D03*
X152700000Y-92200000D03*
D21*
X158800000Y-82600000D02*
X150800000Y-82600000D01*
X136200000Y-79500000D02*
X140200000Y-83500000D01*
X140200000Y-83500000D02*
X143400000Y-83500000D01*
X143400000Y-83500000D02*
X146600000Y-86700000D01*
X146600000Y-86700000D02*
X146600000Y-88700000D01*
D22*
X153400000Y-100800000D02*
X150500000Y-100800000D01*
X177800000Y-114300000D02*
X177800000Y-108500000D01*
X177800000Y-108500000D02*
X178800000Y-107500000D01*
X178800000Y-107500000D02*
X178800000Y-100060000D01*
X178800000Y-100060000D02*
X176530000Y-97790000D01*
X163400000Y-94500000D02*
X164700000Y-94500000D01*
X160400000Y-91500000D02*
X163400000Y-94500000D01*
X147700000Y-89800000D02*
X148700000Y-89800000D01*
X146600000Y-88700000D02*
X147700000Y-89800000D01*
X151400000Y-95300000D02*
X149100000Y-95300000D01*
X153100000Y-93600000D02*
X151400000Y-95300000D01*
X134400000Y-88800000D02*
X140000000Y-88800000D01*
X134100000Y-89100000D02*
X134400000Y-88800000D01*
X135100000Y-94300000D02*
X135100000Y-96800000D01*
X135100000Y-96800000D02*
X136400000Y-98100000D01*
X129400000Y-94400000D02*
X129100000Y-94700000D01*
X135000000Y-94400000D02*
X129400000Y-94400000D01*
X135100000Y-94300000D02*
X135000000Y-94400000D01*
X115910000Y-102410000D02*
X115910000Y-108410000D01*
X120110000Y-99060000D02*
X120110000Y-99090000D01*
X120110000Y-99090000D02*
X118100000Y-101100000D01*
X117220000Y-101100000D02*
X115910000Y-102410000D01*
X118100000Y-101100000D02*
X117220000Y-101100000D01*
D21*
X153400000Y-105600000D02*
X156400000Y-105600000D01*
X156400000Y-105600000D02*
X156800000Y-106000000D01*
X168000000Y-91900000D02*
X162500000Y-86400000D01*
X162500000Y-86400000D02*
X159600000Y-86400000D01*
D22*
X164000000Y-107800000D02*
X164000000Y-107800000D01*
X159200000Y-103000000D02*
X164000000Y-107800000D01*
D21*
X133200000Y-90400000D02*
X133700000Y-89900000D01*
X133700000Y-89900000D02*
X139500000Y-89900000D01*
X139500000Y-89900000D02*
X140200000Y-90600000D01*
D22*
X134900000Y-97700000D02*
X135100000Y-97700000D01*
X131300000Y-95100000D02*
X134900000Y-97700000D01*
X141000000Y-88900000D02*
X142130000Y-87770000D01*
X141000000Y-91400000D02*
X141000000Y-88900000D01*
X142130000Y-87770000D02*
X142600000Y-87770000D01*
X144000000Y-86630000D02*
X142600000Y-85230000D01*
X144000000Y-88500000D02*
X144000000Y-86630000D01*
X143200000Y-89300000D02*
X144000000Y-88500000D01*
X142500000Y-89300000D02*
X143200000Y-89300000D01*
X142300000Y-89500000D02*
X142500000Y-89300000D01*
X142300000Y-91400000D02*
X142300000Y-89500000D01*
X157800000Y-95300000D02*
X164200000Y-95300000D01*
X164200000Y-95300000D02*
X165300000Y-96400000D01*
X165300000Y-96400000D02*
X165500000Y-96400000D01*
X171700000Y-96400000D02*
X177800000Y-89385000D01*
X177800000Y-76160000D02*
X177800000Y-89385000D01*
X171050000Y-95550000D02*
X171050000Y-96750000D01*
X157800000Y-96100000D02*
X164300000Y-96100000D01*
X164300000Y-96100000D02*
X165500000Y-97500000D01*
X171050000Y-95550000D02*
X175270367Y-91329633D01*
X175270367Y-91329633D02*
X175259931Y-76100000D01*
X171050000Y-96750000D02*
X171700000Y-97400000D01*
X157800000Y-96100000D02*
X157800000Y-96100000D01*
X170500000Y-95300000D02*
X170500000Y-97400000D01*
X170500000Y-95300000D02*
X174800000Y-91000000D01*
X174800000Y-91000000D02*
X174800000Y-78280000D01*
X174800000Y-78280000D02*
X172720000Y-76200000D01*
X170500000Y-97400000D02*
X171700000Y-98600000D01*
X164000000Y-96900000D02*
X165500000Y-98700000D01*
X157900000Y-96900000D02*
X164000000Y-96900000D01*
X157800000Y-97000000D02*
X157900000Y-96900000D01*
X170000000Y-94900000D02*
X170000000Y-97900000D01*
X170180000Y-76200000D02*
X174100000Y-80120000D01*
X174100000Y-90800000D02*
X174100000Y-80120000D01*
X170050000Y-94850000D02*
X174100000Y-90800000D01*
X170000000Y-94900000D02*
X170050000Y-94850000D01*
X171700000Y-99600000D02*
X171700000Y-99900000D01*
X170000000Y-97900000D02*
X171700000Y-99600000D01*
X157800000Y-97800000D02*
X157900000Y-97700000D01*
X157900000Y-97700000D02*
X163600000Y-97700000D01*
X163600000Y-97700000D02*
X165600000Y-99900000D01*
X171700000Y-99900000D02*
X171600000Y-99800000D01*
X169500000Y-94400000D02*
X169500000Y-98900000D01*
X167640000Y-76200000D02*
X173300000Y-81860000D01*
X173300000Y-90600000D02*
X173300000Y-81860000D01*
X169500000Y-94400000D02*
X173300000Y-90600000D01*
X169500000Y-98900000D02*
X171700000Y-101100000D01*
X171700000Y-101100000D02*
X171600000Y-101000000D01*
X163200000Y-98500000D02*
X165600000Y-101100000D01*
X157900000Y-98500000D02*
X163200000Y-98500000D01*
X157800000Y-98600000D02*
X157900000Y-98500000D01*
X172600000Y-83700000D02*
X165050000Y-76150000D01*
X172600000Y-90400000D02*
X172600000Y-83700000D01*
X169000000Y-94000000D02*
X172600000Y-90400000D01*
X169000000Y-99400000D02*
X169000000Y-94000000D01*
X171700000Y-102100000D02*
X169000000Y-99400000D01*
X164400000Y-101000000D02*
X165500000Y-102100000D01*
X164400000Y-100700000D02*
X164400000Y-101000000D01*
X163200000Y-99500000D02*
X164400000Y-100700000D01*
X157800000Y-99500000D02*
X163200000Y-99500000D01*
X166500000Y-79100000D02*
X165460000Y-79100000D01*
X157800000Y-100300000D02*
X162900000Y-100300000D01*
X162900000Y-100300000D02*
X164600000Y-102000000D01*
X164600000Y-102000000D02*
X164600000Y-102300000D01*
X164600000Y-102300000D02*
X165500000Y-103200000D01*
X171700000Y-103200000D02*
X168500000Y-100000000D01*
X168500000Y-100000000D02*
X168500000Y-93400000D01*
X168500000Y-93400000D02*
X172100000Y-89800000D01*
X172100000Y-89800000D02*
X172100000Y-84700000D01*
X172100000Y-84700000D02*
X166500000Y-79100000D01*
X165460000Y-79100000D02*
X162560000Y-76200000D01*
X164100000Y-79600000D02*
X163420000Y-79600000D01*
X157800000Y-101400000D02*
X157900000Y-101300000D01*
X157900000Y-101300000D02*
X162400000Y-101300000D01*
X162400000Y-101300000D02*
X165500000Y-104400000D01*
X168400000Y-104400000D02*
X167900000Y-103900000D01*
X167900000Y-103900000D02*
X167900000Y-93100000D01*
X167900000Y-93100000D02*
X171400000Y-89600000D01*
X171400000Y-89600000D02*
X171400000Y-84900000D01*
X171400000Y-84900000D02*
X166100000Y-79600000D01*
X166100000Y-79600000D02*
X164100000Y-79600000D01*
X163420000Y-79600000D02*
X160020000Y-76200000D01*
X164400000Y-86800000D02*
X164400000Y-80500000D01*
X140700000Y-80000000D02*
X137100000Y-76400000D01*
X142300000Y-80000000D02*
X140700000Y-80000000D01*
X155600000Y-93300000D02*
X142300000Y-80000000D01*
X155600000Y-101000000D02*
X155600000Y-93300000D01*
X139000000Y-80700000D02*
X134600000Y-76300000D01*
X142200000Y-80700000D02*
X139000000Y-80700000D01*
X154900000Y-93400000D02*
X142200000Y-80700000D01*
X154900000Y-100900000D02*
X154900000Y-93400000D01*
X154800000Y-101000000D02*
X154900000Y-100900000D01*
X121400000Y-99700000D02*
X121400000Y-96400000D01*
X120700000Y-100400000D02*
X121400000Y-99700000D01*
X119900000Y-100400000D02*
X120700000Y-100400000D01*
X118100000Y-102200000D02*
X119900000Y-100400000D01*
X118100000Y-105400000D02*
X118100000Y-102200000D01*
X119500000Y-106800000D02*
X118100000Y-105400000D01*
X122600000Y-106800000D02*
X119500000Y-106800000D01*
X132080000Y-85720000D02*
X132080000Y-76130000D01*
X121400000Y-96400000D02*
X132080000Y-85720000D01*
X157000000Y-102200000D02*
X163600000Y-108800000D01*
X157000000Y-93300000D02*
X157000000Y-102200000D01*
X156800000Y-93100000D02*
X157000000Y-93300000D01*
X156300000Y-102700000D02*
X163600000Y-110000000D01*
X156300000Y-94600000D02*
X156300000Y-102700000D01*
X156300000Y-94600000D02*
X156300000Y-94600000D01*
X170180000Y-114300000D02*
X170180000Y-112180000D01*
X155700000Y-87700000D02*
X156000000Y-87400000D01*
X156000000Y-87400000D02*
X160600000Y-87400000D01*
X160600000Y-87400000D02*
X167300000Y-94100000D01*
X167300000Y-94100000D02*
X167300000Y-109300000D01*
X167300000Y-109300000D02*
X170000000Y-112000000D01*
X170180000Y-112180000D02*
X170000000Y-112000000D01*
X166800000Y-112600000D02*
X166800000Y-113460000D01*
X166800000Y-94300000D02*
X166800000Y-112600000D01*
X160600000Y-88100000D02*
X166800000Y-94300000D01*
X156700000Y-88100000D02*
X160600000Y-88100000D01*
X156400000Y-88400000D02*
X156700000Y-88100000D01*
X166800000Y-113460000D02*
X167640000Y-114300000D01*
X166960000Y-113620000D02*
X167640000Y-114300000D01*
X165100000Y-112300000D02*
X165100000Y-114300000D01*
X166300000Y-111100000D02*
X165100000Y-112300000D01*
X166300000Y-94700000D02*
X166300000Y-111100000D01*
X160400000Y-88800000D02*
X166300000Y-94700000D01*
X157200000Y-88800000D02*
X160400000Y-88800000D01*
X157100000Y-88900000D02*
X157200000Y-88800000D01*
X153700000Y-104200000D02*
X153600000Y-104200000D01*
X150400000Y-112300000D02*
X152400000Y-114300000D01*
X150400000Y-107000000D02*
X150400000Y-112300000D01*
X152400000Y-105000000D02*
X150400000Y-107000000D01*
X152800000Y-105000000D02*
X152400000Y-105000000D01*
X153600000Y-104200000D02*
X152800000Y-105000000D01*
X149860000Y-106740000D02*
X149860000Y-114300000D01*
X152500000Y-104100000D02*
X149860000Y-106740000D01*
X145900000Y-99000000D02*
X145000000Y-99000000D01*
X145220000Y-112200000D02*
X147320000Y-114300000D01*
X142000000Y-112200000D02*
X145220000Y-112200000D01*
X141500000Y-111700000D02*
X142000000Y-112200000D01*
X141500000Y-104400000D02*
X141500000Y-111700000D01*
X142400000Y-103500000D02*
X141500000Y-104400000D01*
X142400000Y-101600000D02*
X142400000Y-103500000D01*
X145000000Y-99000000D02*
X142400000Y-101600000D01*
X145900000Y-98000000D02*
X145100000Y-98000000D01*
X143180000Y-112700000D02*
X144780000Y-114300000D01*
X141600000Y-112700000D02*
X143180000Y-112700000D01*
X140900000Y-112000000D02*
X141600000Y-112700000D01*
X140900000Y-104200000D02*
X140900000Y-112000000D01*
X141900000Y-103200000D02*
X140900000Y-104200000D01*
X141900000Y-101200000D02*
X141900000Y-103200000D01*
X145100000Y-98000000D02*
X141900000Y-101200000D01*
X145600000Y-97200000D02*
X145000000Y-97200000D01*
X140300000Y-112360000D02*
X142240000Y-114300000D01*
X140300000Y-103900000D02*
X140300000Y-112360000D01*
X141400000Y-102800000D02*
X140300000Y-103900000D01*
X141400000Y-100800000D02*
X141400000Y-102800000D01*
X145000000Y-97200000D02*
X141400000Y-100800000D01*
X139700000Y-101400000D02*
X139700000Y-114300000D01*
X144400000Y-96700000D02*
X139700000Y-101400000D01*
X121920000Y-111380000D02*
X121920000Y-114300000D01*
X127500000Y-105800000D02*
X121920000Y-111380000D01*
X127500000Y-95200000D02*
X127500000Y-105800000D01*
X129400000Y-93300000D02*
X127500000Y-95200000D01*
X150800000Y-93300000D02*
X129400000Y-93300000D01*
X151000000Y-93500000D02*
X150800000Y-93300000D01*
X119380000Y-112820000D02*
X119380000Y-114300000D01*
X127000000Y-105200000D02*
X119380000Y-112820000D01*
X127000000Y-94900000D02*
X127000000Y-105200000D01*
X129100000Y-92800000D02*
X127000000Y-94900000D01*
X151600000Y-92800000D02*
X129100000Y-92800000D01*
X151800000Y-93000000D02*
X151600000Y-92800000D01*
X126500000Y-104640000D02*
X116840000Y-114300000D01*
X126500000Y-94600000D02*
X126500000Y-104640000D01*
X128900000Y-92200000D02*
X126500000Y-94600000D01*
X152800000Y-92200000D02*
X128900000Y-92200000D01*
D23*
G36*
X179315000Y-115315000D02*
X179298600Y-115315000D01*
X179298600Y-114585750D01*
X179139850Y-114427000D01*
X177927000Y-114427000D01*
X177927000Y-114447000D01*
X177673000Y-114447000D01*
X177673000Y-114427000D01*
X177653000Y-114427000D01*
X177653000Y-114173000D01*
X177673000Y-114173000D01*
X177673000Y-112807750D01*
X177927000Y-112807750D01*
X177927000Y-114173000D01*
X179139850Y-114173000D01*
X179298600Y-114014250D01*
X179298600Y-113157691D01*
X179201927Y-112924302D01*
X179023299Y-112745673D01*
X178789910Y-112649000D01*
X178085750Y-112649000D01*
X177927000Y-112807750D01*
X177673000Y-112807750D01*
X177514250Y-112649000D01*
X176810090Y-112649000D01*
X176576701Y-112745673D01*
X176398073Y-112924302D01*
X176334500Y-113077780D01*
X176319670Y-113055585D01*
X175833489Y-112730729D01*
X175260000Y-112616655D01*
X174686511Y-112730729D01*
X174200330Y-113055585D01*
X173990000Y-113370366D01*
X173779670Y-113055585D01*
X173293489Y-112730729D01*
X172720000Y-112616655D01*
X172146511Y-112730729D01*
X171660330Y-113055585D01*
X171450000Y-113370366D01*
X171239670Y-113055585D01*
X170940000Y-112855352D01*
X170940000Y-112180000D01*
X170882148Y-111889161D01*
X170882148Y-111889160D01*
X170717401Y-111642599D01*
X168060000Y-108985198D01*
X168060000Y-105271223D01*
X168213201Y-105334838D01*
X168585167Y-105335162D01*
X168928943Y-105193117D01*
X169192192Y-104930327D01*
X169334838Y-104586799D01*
X169335162Y-104214833D01*
X169193117Y-103871057D01*
X168930327Y-103607808D01*
X168660000Y-103495558D01*
X168660000Y-101234802D01*
X170764878Y-103339680D01*
X170764838Y-103385167D01*
X170906883Y-103728943D01*
X171169673Y-103992192D01*
X171513201Y-104134838D01*
X171885167Y-104135162D01*
X172228943Y-103993117D01*
X172492192Y-103730327D01*
X172634838Y-103386799D01*
X172635162Y-103014833D01*
X172493117Y-102671057D01*
X172472290Y-102650194D01*
X172492192Y-102630327D01*
X172634838Y-102286799D01*
X172635162Y-101914833D01*
X172504931Y-101599649D01*
X172634838Y-101286799D01*
X172635162Y-100914833D01*
X172493117Y-100571057D01*
X172422290Y-100500107D01*
X172492192Y-100430327D01*
X172533851Y-100330000D01*
X174345536Y-100330000D01*
X174451200Y-100861207D01*
X174752104Y-101311542D01*
X175183812Y-101600000D01*
X174752104Y-101888458D01*
X174451200Y-102338793D01*
X174345536Y-102870000D01*
X174451200Y-103401207D01*
X174752104Y-103851542D01*
X175183812Y-104140000D01*
X174752104Y-104428458D01*
X174451200Y-104878793D01*
X174345536Y-105410000D01*
X174451200Y-105941207D01*
X174752104Y-106391542D01*
X175202439Y-106692446D01*
X175733646Y-106798110D01*
X177326354Y-106798110D01*
X177857561Y-106692446D01*
X178307896Y-106391542D01*
X178608800Y-105941207D01*
X178714464Y-105410000D01*
X178608800Y-104878793D01*
X178307896Y-104428458D01*
X177876188Y-104140000D01*
X178307896Y-103851542D01*
X178608800Y-103401207D01*
X178714464Y-102870000D01*
X178608800Y-102338793D01*
X178307896Y-101888458D01*
X177876188Y-101600000D01*
X178307896Y-101311542D01*
X178608800Y-100861207D01*
X178714464Y-100330000D01*
X178608800Y-99798793D01*
X178307896Y-99348458D01*
X177857561Y-99047554D01*
X177854694Y-99046984D01*
X177932919Y-99023846D01*
X178355724Y-98681740D01*
X178615427Y-98203875D01*
X178629783Y-98131674D01*
X178507162Y-97917000D01*
X176657000Y-97917000D01*
X176657000Y-97937000D01*
X176403000Y-97937000D01*
X176403000Y-97917000D01*
X174552838Y-97917000D01*
X174430217Y-98131674D01*
X174444573Y-98203875D01*
X174704276Y-98681740D01*
X175127081Y-99023846D01*
X175205306Y-99046984D01*
X175202439Y-99047554D01*
X174752104Y-99348458D01*
X174451200Y-99798793D01*
X174345536Y-100330000D01*
X172533851Y-100330000D01*
X172634838Y-100086799D01*
X172635162Y-99714833D01*
X172493117Y-99371057D01*
X172372290Y-99250019D01*
X172492192Y-99130327D01*
X172634838Y-98786799D01*
X172635162Y-98414833D01*
X172493117Y-98071057D01*
X172422290Y-98000107D01*
X172492192Y-97930327D01*
X172634838Y-97586799D01*
X172634958Y-97448326D01*
X174430217Y-97448326D01*
X174552838Y-97663000D01*
X176403000Y-97663000D01*
X176403000Y-96401890D01*
X176657000Y-96401890D01*
X176657000Y-97663000D01*
X178507162Y-97663000D01*
X178629783Y-97448326D01*
X178615427Y-97376125D01*
X178355724Y-96898260D01*
X177932919Y-96556154D01*
X177411380Y-96401890D01*
X176657000Y-96401890D01*
X176403000Y-96401890D01*
X175648620Y-96401890D01*
X175127081Y-96556154D01*
X174704276Y-96898260D01*
X174444573Y-97376125D01*
X174430217Y-97448326D01*
X172634958Y-97448326D01*
X172635162Y-97214833D01*
X172504931Y-96899649D01*
X172634838Y-96586799D01*
X172634928Y-96483053D01*
X178373500Y-89883696D01*
X178434204Y-89777524D01*
X178502148Y-89675839D01*
X178507379Y-89649542D01*
X178520687Y-89626266D01*
X178536140Y-89504951D01*
X178560000Y-89385000D01*
X178560000Y-77863440D01*
X178663600Y-77863440D01*
X178898917Y-77819162D01*
X179115041Y-77680090D01*
X179260031Y-77467890D01*
X179311040Y-77216000D01*
X179311040Y-75185000D01*
X179315000Y-75185000D01*
X179315000Y-115315000D01*
X179315000Y-115315000D01*
G37*
X179315000Y-115315000D02*
X179298600Y-115315000D01*
X179298600Y-114585750D01*
X179139850Y-114427000D01*
X177927000Y-114427000D01*
X177927000Y-114447000D01*
X177673000Y-114447000D01*
X177673000Y-114427000D01*
X177653000Y-114427000D01*
X177653000Y-114173000D01*
X177673000Y-114173000D01*
X177673000Y-112807750D01*
X177927000Y-112807750D01*
X177927000Y-114173000D01*
X179139850Y-114173000D01*
X179298600Y-114014250D01*
X179298600Y-113157691D01*
X179201927Y-112924302D01*
X179023299Y-112745673D01*
X178789910Y-112649000D01*
X178085750Y-112649000D01*
X177927000Y-112807750D01*
X177673000Y-112807750D01*
X177514250Y-112649000D01*
X176810090Y-112649000D01*
X176576701Y-112745673D01*
X176398073Y-112924302D01*
X176334500Y-113077780D01*
X176319670Y-113055585D01*
X175833489Y-112730729D01*
X175260000Y-112616655D01*
X174686511Y-112730729D01*
X174200330Y-113055585D01*
X173990000Y-113370366D01*
X173779670Y-113055585D01*
X173293489Y-112730729D01*
X172720000Y-112616655D01*
X172146511Y-112730729D01*
X171660330Y-113055585D01*
X171450000Y-113370366D01*
X171239670Y-113055585D01*
X170940000Y-112855352D01*
X170940000Y-112180000D01*
X170882148Y-111889161D01*
X170882148Y-111889160D01*
X170717401Y-111642599D01*
X168060000Y-108985198D01*
X168060000Y-105271223D01*
X168213201Y-105334838D01*
X168585167Y-105335162D01*
X168928943Y-105193117D01*
X169192192Y-104930327D01*
X169334838Y-104586799D01*
X169335162Y-104214833D01*
X169193117Y-103871057D01*
X168930327Y-103607808D01*
X168660000Y-103495558D01*
X168660000Y-101234802D01*
X170764878Y-103339680D01*
X170764838Y-103385167D01*
X170906883Y-103728943D01*
X171169673Y-103992192D01*
X171513201Y-104134838D01*
X171885167Y-104135162D01*
X172228943Y-103993117D01*
X172492192Y-103730327D01*
X172634838Y-103386799D01*
X172635162Y-103014833D01*
X172493117Y-102671057D01*
X172472290Y-102650194D01*
X172492192Y-102630327D01*
X172634838Y-102286799D01*
X172635162Y-101914833D01*
X172504931Y-101599649D01*
X172634838Y-101286799D01*
X172635162Y-100914833D01*
X172493117Y-100571057D01*
X172422290Y-100500107D01*
X172492192Y-100430327D01*
X172533851Y-100330000D01*
X174345536Y-100330000D01*
X174451200Y-100861207D01*
X174752104Y-101311542D01*
X175183812Y-101600000D01*
X174752104Y-101888458D01*
X174451200Y-102338793D01*
X174345536Y-102870000D01*
X174451200Y-103401207D01*
X174752104Y-103851542D01*
X175183812Y-104140000D01*
X174752104Y-104428458D01*
X174451200Y-104878793D01*
X174345536Y-105410000D01*
X174451200Y-105941207D01*
X174752104Y-106391542D01*
X175202439Y-106692446D01*
X175733646Y-106798110D01*
X177326354Y-106798110D01*
X177857561Y-106692446D01*
X178307896Y-106391542D01*
X178608800Y-105941207D01*
X178714464Y-105410000D01*
X178608800Y-104878793D01*
X178307896Y-104428458D01*
X177876188Y-104140000D01*
X178307896Y-103851542D01*
X178608800Y-103401207D01*
X178714464Y-102870000D01*
X178608800Y-102338793D01*
X178307896Y-101888458D01*
X177876188Y-101600000D01*
X178307896Y-101311542D01*
X178608800Y-100861207D01*
X178714464Y-100330000D01*
X178608800Y-99798793D01*
X178307896Y-99348458D01*
X177857561Y-99047554D01*
X177854694Y-99046984D01*
X177932919Y-99023846D01*
X178355724Y-98681740D01*
X178615427Y-98203875D01*
X178629783Y-98131674D01*
X178507162Y-97917000D01*
X176657000Y-97917000D01*
X176657000Y-97937000D01*
X176403000Y-97937000D01*
X176403000Y-97917000D01*
X174552838Y-97917000D01*
X174430217Y-98131674D01*
X174444573Y-98203875D01*
X174704276Y-98681740D01*
X175127081Y-99023846D01*
X175205306Y-99046984D01*
X175202439Y-99047554D01*
X174752104Y-99348458D01*
X174451200Y-99798793D01*
X174345536Y-100330000D01*
X172533851Y-100330000D01*
X172634838Y-100086799D01*
X172635162Y-99714833D01*
X172493117Y-99371057D01*
X172372290Y-99250019D01*
X172492192Y-99130327D01*
X172634838Y-98786799D01*
X172635162Y-98414833D01*
X172493117Y-98071057D01*
X172422290Y-98000107D01*
X172492192Y-97930327D01*
X172634838Y-97586799D01*
X172634958Y-97448326D01*
X174430217Y-97448326D01*
X174552838Y-97663000D01*
X176403000Y-97663000D01*
X176403000Y-96401890D01*
X176657000Y-96401890D01*
X176657000Y-97663000D01*
X178507162Y-97663000D01*
X178629783Y-97448326D01*
X178615427Y-97376125D01*
X178355724Y-96898260D01*
X177932919Y-96556154D01*
X177411380Y-96401890D01*
X176657000Y-96401890D01*
X176403000Y-96401890D01*
X175648620Y-96401890D01*
X175127081Y-96556154D01*
X174704276Y-96898260D01*
X174444573Y-97376125D01*
X174430217Y-97448326D01*
X172634958Y-97448326D01*
X172635162Y-97214833D01*
X172504931Y-96899649D01*
X172634838Y-96586799D01*
X172634928Y-96483053D01*
X178373500Y-89883696D01*
X178434204Y-89777524D01*
X178502148Y-89675839D01*
X178507379Y-89649542D01*
X178520687Y-89626266D01*
X178536140Y-89504951D01*
X178560000Y-89385000D01*
X178560000Y-77863440D01*
X178663600Y-77863440D01*
X178898917Y-77819162D01*
X179115041Y-77680090D01*
X179260031Y-77467890D01*
X179311040Y-77216000D01*
X179311040Y-75185000D01*
X179315000Y-75185000D01*
X179315000Y-115315000D01*
G36*
X154140000Y-93714802D02*
X154140000Y-100337711D01*
X154007808Y-100469673D01*
X153865162Y-100813201D01*
X153864838Y-101185167D01*
X154006883Y-101528943D01*
X154269673Y-101792192D01*
X154613201Y-101934838D01*
X154985167Y-101935162D01*
X155200104Y-101846352D01*
X155413201Y-101934838D01*
X155540000Y-101934948D01*
X155540000Y-102700000D01*
X155597852Y-102990839D01*
X155762599Y-103237401D01*
X162664878Y-110139680D01*
X162664838Y-110185167D01*
X162806883Y-110528943D01*
X163069673Y-110792192D01*
X163413201Y-110934838D01*
X163785167Y-110935162D01*
X164128943Y-110793117D01*
X164392192Y-110530327D01*
X164534838Y-110186799D01*
X164535162Y-109814833D01*
X164393117Y-109471057D01*
X164322290Y-109400107D01*
X164392192Y-109330327D01*
X164534838Y-108986799D01*
X164535162Y-108614833D01*
X164526591Y-108594089D01*
X164528943Y-108593117D01*
X164792192Y-108330327D01*
X164934838Y-107986799D01*
X164935162Y-107614833D01*
X164793117Y-107271057D01*
X164530327Y-107007808D01*
X164186799Y-106865162D01*
X164139923Y-106865121D01*
X160135122Y-102860320D01*
X160135162Y-102814833D01*
X159993117Y-102471057D01*
X159730327Y-102207808D01*
X159386799Y-102065162D01*
X159014833Y-102064838D01*
X158671057Y-102206883D01*
X158407808Y-102469673D01*
X158389226Y-102514424D01*
X158144238Y-102269436D01*
X158328943Y-102193117D01*
X158462293Y-102060000D01*
X162085198Y-102060000D01*
X164564878Y-104539680D01*
X164564838Y-104585167D01*
X164706883Y-104928943D01*
X164969673Y-105192192D01*
X165313201Y-105334838D01*
X165540000Y-105335036D01*
X165540000Y-110785198D01*
X164562599Y-111762599D01*
X164397852Y-112009161D01*
X164340000Y-112300000D01*
X164340000Y-112855352D01*
X164040330Y-113055585D01*
X163830000Y-113370366D01*
X163619670Y-113055585D01*
X163133489Y-112730729D01*
X162560000Y-112616655D01*
X161986511Y-112730729D01*
X161500330Y-113055585D01*
X161290000Y-113370366D01*
X161079670Y-113055585D01*
X160593489Y-112730729D01*
X160020000Y-112616655D01*
X159446511Y-112730729D01*
X158960330Y-113055585D01*
X158750000Y-113370366D01*
X158539670Y-113055585D01*
X158053489Y-112730729D01*
X157480000Y-112616655D01*
X156906511Y-112730729D01*
X156420330Y-113055585D01*
X156210000Y-113370366D01*
X155999670Y-113055585D01*
X155513489Y-112730729D01*
X154940000Y-112616655D01*
X154366511Y-112730729D01*
X153880330Y-113055585D01*
X153670000Y-113370366D01*
X153459670Y-113055585D01*
X152973489Y-112730729D01*
X152400000Y-112616655D01*
X151892421Y-112717619D01*
X151160000Y-111985198D01*
X151160000Y-107314802D01*
X152530564Y-105944238D01*
X152606883Y-106128943D01*
X152869673Y-106392192D01*
X153213201Y-106534838D01*
X153585167Y-106535162D01*
X153706569Y-106485000D01*
X155988726Y-106485000D01*
X156006883Y-106528943D01*
X156269673Y-106792192D01*
X156613201Y-106934838D01*
X156985167Y-106935162D01*
X157328943Y-106793117D01*
X157592192Y-106530327D01*
X157734838Y-106186799D01*
X157735162Y-105814833D01*
X157593117Y-105471057D01*
X157330327Y-105207808D01*
X157209014Y-105157434D01*
X157025790Y-104974210D01*
X156958043Y-104928943D01*
X156738675Y-104782367D01*
X156682484Y-104771190D01*
X156400000Y-104714999D01*
X156399995Y-104715000D01*
X154498556Y-104715000D01*
X154634838Y-104386799D01*
X154635162Y-104014833D01*
X154493117Y-103671057D01*
X154230327Y-103407808D01*
X153886799Y-103265162D01*
X153514833Y-103264838D01*
X153171057Y-103406883D01*
X153150107Y-103427797D01*
X153030327Y-103307808D01*
X152686799Y-103165162D01*
X152314833Y-103164838D01*
X151971057Y-103306883D01*
X151707808Y-103569673D01*
X151565162Y-103913201D01*
X151565121Y-103960077D01*
X149322599Y-106202599D01*
X149157852Y-106449161D01*
X149100000Y-106740000D01*
X149100000Y-112855352D01*
X148800330Y-113055585D01*
X148590000Y-113370366D01*
X148379670Y-113055585D01*
X147893489Y-112730729D01*
X147320000Y-112616655D01*
X146812421Y-112717619D01*
X145757401Y-111662599D01*
X145510839Y-111497852D01*
X145220000Y-111440000D01*
X142314802Y-111440000D01*
X142260000Y-111385198D01*
X142260000Y-104714802D01*
X142937401Y-104037401D01*
X143102148Y-103790840D01*
X143160000Y-103500000D01*
X143160000Y-101914802D01*
X145314802Y-99760000D01*
X145337537Y-99760000D01*
X145369673Y-99792192D01*
X145713201Y-99934838D01*
X146085167Y-99935162D01*
X146428943Y-99793117D01*
X146692192Y-99530327D01*
X146834838Y-99186799D01*
X146835162Y-98814833D01*
X146704931Y-98499649D01*
X146834838Y-98186799D01*
X146835162Y-97814833D01*
X146693117Y-97471057D01*
X146534903Y-97312566D01*
X146535162Y-97014833D01*
X146393117Y-96671057D01*
X146130327Y-96407808D01*
X145786799Y-96265162D01*
X145414833Y-96264838D01*
X145258548Y-96329413D01*
X145193117Y-96171057D01*
X144930327Y-95907808D01*
X144586799Y-95765162D01*
X144214833Y-95764838D01*
X143871057Y-95906883D01*
X143607808Y-96169673D01*
X143465162Y-96513201D01*
X143465121Y-96560077D01*
X139162599Y-100862599D01*
X138997852Y-101109161D01*
X138940000Y-101400000D01*
X138940000Y-112855352D01*
X138640330Y-113055585D01*
X138430000Y-113370366D01*
X138219670Y-113055585D01*
X137733489Y-112730729D01*
X137160000Y-112616655D01*
X136586511Y-112730729D01*
X136100330Y-113055585D01*
X135890000Y-113370366D01*
X135679670Y-113055585D01*
X135193489Y-112730729D01*
X134620000Y-112616655D01*
X134046511Y-112730729D01*
X133560330Y-113055585D01*
X133350000Y-113370366D01*
X133139670Y-113055585D01*
X132653489Y-112730729D01*
X132080000Y-112616655D01*
X131506511Y-112730729D01*
X131020330Y-113055585D01*
X130810000Y-113370366D01*
X130599670Y-113055585D01*
X130113489Y-112730729D01*
X129540000Y-112616655D01*
X128966511Y-112730729D01*
X128480330Y-113055585D01*
X128270000Y-113370366D01*
X128059670Y-113055585D01*
X127573489Y-112730729D01*
X127000000Y-112616655D01*
X126426511Y-112730729D01*
X125940330Y-113055585D01*
X125730000Y-113370366D01*
X125519670Y-113055585D01*
X125033489Y-112730729D01*
X124460000Y-112616655D01*
X123886511Y-112730729D01*
X123400330Y-113055585D01*
X123190000Y-113370366D01*
X122979670Y-113055585D01*
X122680000Y-112855352D01*
X122680000Y-111694802D01*
X128037401Y-106337401D01*
X128202148Y-106090839D01*
X128260000Y-105800000D01*
X128260000Y-104715338D01*
X129614190Y-104715338D01*
X129824686Y-105224777D01*
X130214113Y-105614884D01*
X130723184Y-105826269D01*
X131274398Y-105826750D01*
X131783837Y-105616254D01*
X132173944Y-105226827D01*
X132385329Y-104717756D01*
X132385810Y-104166542D01*
X132175314Y-103657103D01*
X131785887Y-103266996D01*
X131276816Y-103055611D01*
X130725602Y-103055130D01*
X130216163Y-103265626D01*
X129826056Y-103655053D01*
X129614671Y-104164124D01*
X129614190Y-104715338D01*
X128260000Y-104715338D01*
X128260000Y-99833458D01*
X129614190Y-99833458D01*
X129824686Y-100342897D01*
X130214113Y-100733004D01*
X130723184Y-100944389D01*
X131274398Y-100944870D01*
X131783837Y-100734374D01*
X132173944Y-100344947D01*
X132385329Y-99835876D01*
X132385810Y-99284662D01*
X132175314Y-98775223D01*
X131785887Y-98385116D01*
X131276816Y-98173731D01*
X130725602Y-98173250D01*
X130216163Y-98383746D01*
X129826056Y-98773173D01*
X129614671Y-99282244D01*
X129614190Y-99833458D01*
X128260000Y-99833458D01*
X128260000Y-95514802D01*
X128489635Y-95285167D01*
X130364838Y-95285167D01*
X130506883Y-95628943D01*
X130769673Y-95892192D01*
X131113201Y-96034838D01*
X131296556Y-96034998D01*
X134295210Y-98200693D01*
X134306883Y-98228943D01*
X134569673Y-98492192D01*
X134913201Y-98634838D01*
X135285167Y-98635162D01*
X135628943Y-98493117D01*
X135892192Y-98230327D01*
X136034838Y-97886799D01*
X136035162Y-97514833D01*
X135893117Y-97171057D01*
X135630327Y-96907808D01*
X135286799Y-96765162D01*
X134914833Y-96764838D01*
X134907444Y-96767891D01*
X132189859Y-94805190D01*
X132093117Y-94571057D01*
X131830327Y-94307808D01*
X131486799Y-94165162D01*
X131114833Y-94164838D01*
X130771057Y-94306883D01*
X130507808Y-94569673D01*
X130365162Y-94913201D01*
X130364838Y-95285167D01*
X128489635Y-95285167D01*
X129714802Y-94060000D01*
X150237886Y-94060000D01*
X150469673Y-94292192D01*
X150813201Y-94434838D01*
X151185167Y-94435162D01*
X151528943Y-94293117D01*
X151792192Y-94030327D01*
X151831764Y-93935028D01*
X151985167Y-93935162D01*
X152328943Y-93793117D01*
X152592192Y-93530327D01*
X152734838Y-93186799D01*
X152734883Y-93135031D01*
X152885167Y-93135162D01*
X153228943Y-92993117D01*
X153323712Y-92898514D01*
X154140000Y-93714802D01*
X154140000Y-93714802D01*
G37*
X154140000Y-93714802D02*
X154140000Y-100337711D01*
X154007808Y-100469673D01*
X153865162Y-100813201D01*
X153864838Y-101185167D01*
X154006883Y-101528943D01*
X154269673Y-101792192D01*
X154613201Y-101934838D01*
X154985167Y-101935162D01*
X155200104Y-101846352D01*
X155413201Y-101934838D01*
X155540000Y-101934948D01*
X155540000Y-102700000D01*
X155597852Y-102990839D01*
X155762599Y-103237401D01*
X162664878Y-110139680D01*
X162664838Y-110185167D01*
X162806883Y-110528943D01*
X163069673Y-110792192D01*
X163413201Y-110934838D01*
X163785167Y-110935162D01*
X164128943Y-110793117D01*
X164392192Y-110530327D01*
X164534838Y-110186799D01*
X164535162Y-109814833D01*
X164393117Y-109471057D01*
X164322290Y-109400107D01*
X164392192Y-109330327D01*
X164534838Y-108986799D01*
X164535162Y-108614833D01*
X164526591Y-108594089D01*
X164528943Y-108593117D01*
X164792192Y-108330327D01*
X164934838Y-107986799D01*
X164935162Y-107614833D01*
X164793117Y-107271057D01*
X164530327Y-107007808D01*
X164186799Y-106865162D01*
X164139923Y-106865121D01*
X160135122Y-102860320D01*
X160135162Y-102814833D01*
X159993117Y-102471057D01*
X159730327Y-102207808D01*
X159386799Y-102065162D01*
X159014833Y-102064838D01*
X158671057Y-102206883D01*
X158407808Y-102469673D01*
X158389226Y-102514424D01*
X158144238Y-102269436D01*
X158328943Y-102193117D01*
X158462293Y-102060000D01*
X162085198Y-102060000D01*
X164564878Y-104539680D01*
X164564838Y-104585167D01*
X164706883Y-104928943D01*
X164969673Y-105192192D01*
X165313201Y-105334838D01*
X165540000Y-105335036D01*
X165540000Y-110785198D01*
X164562599Y-111762599D01*
X164397852Y-112009161D01*
X164340000Y-112300000D01*
X164340000Y-112855352D01*
X164040330Y-113055585D01*
X163830000Y-113370366D01*
X163619670Y-113055585D01*
X163133489Y-112730729D01*
X162560000Y-112616655D01*
X161986511Y-112730729D01*
X161500330Y-113055585D01*
X161290000Y-113370366D01*
X161079670Y-113055585D01*
X160593489Y-112730729D01*
X160020000Y-112616655D01*
X159446511Y-112730729D01*
X158960330Y-113055585D01*
X158750000Y-113370366D01*
X158539670Y-113055585D01*
X158053489Y-112730729D01*
X157480000Y-112616655D01*
X156906511Y-112730729D01*
X156420330Y-113055585D01*
X156210000Y-113370366D01*
X155999670Y-113055585D01*
X155513489Y-112730729D01*
X154940000Y-112616655D01*
X154366511Y-112730729D01*
X153880330Y-113055585D01*
X153670000Y-113370366D01*
X153459670Y-113055585D01*
X152973489Y-112730729D01*
X152400000Y-112616655D01*
X151892421Y-112717619D01*
X151160000Y-111985198D01*
X151160000Y-107314802D01*
X152530564Y-105944238D01*
X152606883Y-106128943D01*
X152869673Y-106392192D01*
X153213201Y-106534838D01*
X153585167Y-106535162D01*
X153706569Y-106485000D01*
X155988726Y-106485000D01*
X156006883Y-106528943D01*
X156269673Y-106792192D01*
X156613201Y-106934838D01*
X156985167Y-106935162D01*
X157328943Y-106793117D01*
X157592192Y-106530327D01*
X157734838Y-106186799D01*
X157735162Y-105814833D01*
X157593117Y-105471057D01*
X157330327Y-105207808D01*
X157209014Y-105157434D01*
X157025790Y-104974210D01*
X156958043Y-104928943D01*
X156738675Y-104782367D01*
X156682484Y-104771190D01*
X156400000Y-104714999D01*
X156399995Y-104715000D01*
X154498556Y-104715000D01*
X154634838Y-104386799D01*
X154635162Y-104014833D01*
X154493117Y-103671057D01*
X154230327Y-103407808D01*
X153886799Y-103265162D01*
X153514833Y-103264838D01*
X153171057Y-103406883D01*
X153150107Y-103427797D01*
X153030327Y-103307808D01*
X152686799Y-103165162D01*
X152314833Y-103164838D01*
X151971057Y-103306883D01*
X151707808Y-103569673D01*
X151565162Y-103913201D01*
X151565121Y-103960077D01*
X149322599Y-106202599D01*
X149157852Y-106449161D01*
X149100000Y-106740000D01*
X149100000Y-112855352D01*
X148800330Y-113055585D01*
X148590000Y-113370366D01*
X148379670Y-113055585D01*
X147893489Y-112730729D01*
X147320000Y-112616655D01*
X146812421Y-112717619D01*
X145757401Y-111662599D01*
X145510839Y-111497852D01*
X145220000Y-111440000D01*
X142314802Y-111440000D01*
X142260000Y-111385198D01*
X142260000Y-104714802D01*
X142937401Y-104037401D01*
X143102148Y-103790840D01*
X143160000Y-103500000D01*
X143160000Y-101914802D01*
X145314802Y-99760000D01*
X145337537Y-99760000D01*
X145369673Y-99792192D01*
X145713201Y-99934838D01*
X146085167Y-99935162D01*
X146428943Y-99793117D01*
X146692192Y-99530327D01*
X146834838Y-99186799D01*
X146835162Y-98814833D01*
X146704931Y-98499649D01*
X146834838Y-98186799D01*
X146835162Y-97814833D01*
X146693117Y-97471057D01*
X146534903Y-97312566D01*
X146535162Y-97014833D01*
X146393117Y-96671057D01*
X146130327Y-96407808D01*
X145786799Y-96265162D01*
X145414833Y-96264838D01*
X145258548Y-96329413D01*
X145193117Y-96171057D01*
X144930327Y-95907808D01*
X144586799Y-95765162D01*
X144214833Y-95764838D01*
X143871057Y-95906883D01*
X143607808Y-96169673D01*
X143465162Y-96513201D01*
X143465121Y-96560077D01*
X139162599Y-100862599D01*
X138997852Y-101109161D01*
X138940000Y-101400000D01*
X138940000Y-112855352D01*
X138640330Y-113055585D01*
X138430000Y-113370366D01*
X138219670Y-113055585D01*
X137733489Y-112730729D01*
X137160000Y-112616655D01*
X136586511Y-112730729D01*
X136100330Y-113055585D01*
X135890000Y-113370366D01*
X135679670Y-113055585D01*
X135193489Y-112730729D01*
X134620000Y-112616655D01*
X134046511Y-112730729D01*
X133560330Y-113055585D01*
X133350000Y-113370366D01*
X133139670Y-113055585D01*
X132653489Y-112730729D01*
X132080000Y-112616655D01*
X131506511Y-112730729D01*
X131020330Y-113055585D01*
X130810000Y-113370366D01*
X130599670Y-113055585D01*
X130113489Y-112730729D01*
X129540000Y-112616655D01*
X128966511Y-112730729D01*
X128480330Y-113055585D01*
X128270000Y-113370366D01*
X128059670Y-113055585D01*
X127573489Y-112730729D01*
X127000000Y-112616655D01*
X126426511Y-112730729D01*
X125940330Y-113055585D01*
X125730000Y-113370366D01*
X125519670Y-113055585D01*
X125033489Y-112730729D01*
X124460000Y-112616655D01*
X123886511Y-112730729D01*
X123400330Y-113055585D01*
X123190000Y-113370366D01*
X122979670Y-113055585D01*
X122680000Y-112855352D01*
X122680000Y-111694802D01*
X128037401Y-106337401D01*
X128202148Y-106090839D01*
X128260000Y-105800000D01*
X128260000Y-104715338D01*
X129614190Y-104715338D01*
X129824686Y-105224777D01*
X130214113Y-105614884D01*
X130723184Y-105826269D01*
X131274398Y-105826750D01*
X131783837Y-105616254D01*
X132173944Y-105226827D01*
X132385329Y-104717756D01*
X132385810Y-104166542D01*
X132175314Y-103657103D01*
X131785887Y-103266996D01*
X131276816Y-103055611D01*
X130725602Y-103055130D01*
X130216163Y-103265626D01*
X129826056Y-103655053D01*
X129614671Y-104164124D01*
X129614190Y-104715338D01*
X128260000Y-104715338D01*
X128260000Y-99833458D01*
X129614190Y-99833458D01*
X129824686Y-100342897D01*
X130214113Y-100733004D01*
X130723184Y-100944389D01*
X131274398Y-100944870D01*
X131783837Y-100734374D01*
X132173944Y-100344947D01*
X132385329Y-99835876D01*
X132385810Y-99284662D01*
X132175314Y-98775223D01*
X131785887Y-98385116D01*
X131276816Y-98173731D01*
X130725602Y-98173250D01*
X130216163Y-98383746D01*
X129826056Y-98773173D01*
X129614671Y-99282244D01*
X129614190Y-99833458D01*
X128260000Y-99833458D01*
X128260000Y-95514802D01*
X128489635Y-95285167D01*
X130364838Y-95285167D01*
X130506883Y-95628943D01*
X130769673Y-95892192D01*
X131113201Y-96034838D01*
X131296556Y-96034998D01*
X134295210Y-98200693D01*
X134306883Y-98228943D01*
X134569673Y-98492192D01*
X134913201Y-98634838D01*
X135285167Y-98635162D01*
X135628943Y-98493117D01*
X135892192Y-98230327D01*
X136034838Y-97886799D01*
X136035162Y-97514833D01*
X135893117Y-97171057D01*
X135630327Y-96907808D01*
X135286799Y-96765162D01*
X134914833Y-96764838D01*
X134907444Y-96767891D01*
X132189859Y-94805190D01*
X132093117Y-94571057D01*
X131830327Y-94307808D01*
X131486799Y-94165162D01*
X131114833Y-94164838D01*
X130771057Y-94306883D01*
X130507808Y-94569673D01*
X130365162Y-94913201D01*
X130364838Y-95285167D01*
X128489635Y-95285167D01*
X129714802Y-94060000D01*
X150237886Y-94060000D01*
X150469673Y-94292192D01*
X150813201Y-94434838D01*
X151185167Y-94435162D01*
X151528943Y-94293117D01*
X151792192Y-94030327D01*
X151831764Y-93935028D01*
X151985167Y-93935162D01*
X152328943Y-93793117D01*
X152592192Y-93530327D01*
X152734838Y-93186799D01*
X152734883Y-93135031D01*
X152885167Y-93135162D01*
X153228943Y-92993117D01*
X153323712Y-92898514D01*
X154140000Y-93714802D01*
G36*
X131020330Y-77444415D02*
X131320000Y-77644648D01*
X131320000Y-85405198D01*
X123350463Y-93374735D01*
X123239293Y-93207000D01*
X122127000Y-93207000D01*
X122127000Y-94461720D01*
X122214098Y-94511100D01*
X121260320Y-95464878D01*
X121214833Y-95464838D01*
X120871057Y-95606883D01*
X120607808Y-95869673D01*
X120465162Y-96213201D01*
X120464838Y-96585167D01*
X120606883Y-96928943D01*
X120640000Y-96962118D01*
X120640000Y-97831276D01*
X120302878Y-97712581D01*
X119772560Y-97741336D01*
X119416169Y-97888958D01*
X119354331Y-98124725D01*
X120110000Y-98880395D01*
X120124142Y-98866252D01*
X120303748Y-99045858D01*
X120289605Y-99060000D01*
X120303748Y-99074143D01*
X120124142Y-99253748D01*
X120110000Y-99239605D01*
X119662330Y-99687276D01*
X119609160Y-99697852D01*
X119362599Y-99862599D01*
X117562599Y-101662599D01*
X117397852Y-101909161D01*
X117340000Y-102200000D01*
X117340000Y-105400000D01*
X117397852Y-105690839D01*
X117562599Y-105937401D01*
X118962599Y-107337401D01*
X119209161Y-107502148D01*
X119311537Y-107522512D01*
X119180173Y-107653647D01*
X118976732Y-108143587D01*
X118976269Y-108674086D01*
X119178854Y-109164380D01*
X119553647Y-109539827D01*
X120043587Y-109743268D01*
X120321687Y-109743511D01*
X117347579Y-112717619D01*
X116840000Y-112616655D01*
X116266511Y-112730729D01*
X115780330Y-113055585D01*
X115685000Y-113198256D01*
X115685000Y-109744495D01*
X115717480Y-109755927D01*
X116247199Y-109727148D01*
X116602929Y-109579800D01*
X116664583Y-109344188D01*
X115910000Y-108589605D01*
X115895858Y-108603748D01*
X115716253Y-108424143D01*
X115730395Y-108410000D01*
X116089605Y-108410000D01*
X116844188Y-109164583D01*
X117079800Y-109102929D01*
X117255927Y-108602520D01*
X117227148Y-108072801D01*
X117079800Y-107717071D01*
X116844188Y-107655417D01*
X116089605Y-108410000D01*
X115730395Y-108410000D01*
X115716253Y-108395858D01*
X115895858Y-108216253D01*
X115910000Y-108230395D01*
X116664583Y-107475812D01*
X116602929Y-107240200D01*
X116102520Y-107064073D01*
X115685000Y-107086756D01*
X115685000Y-103744495D01*
X115717480Y-103755927D01*
X116247199Y-103727148D01*
X116602929Y-103579800D01*
X116664583Y-103344188D01*
X115910000Y-102589605D01*
X115895858Y-102603748D01*
X115716253Y-102424143D01*
X115730395Y-102410000D01*
X116089605Y-102410000D01*
X116844188Y-103164583D01*
X117079800Y-103102929D01*
X117255927Y-102602520D01*
X117227148Y-102072801D01*
X117079800Y-101717071D01*
X116844188Y-101655417D01*
X116089605Y-102410000D01*
X115730395Y-102410000D01*
X115716253Y-102395858D01*
X115895858Y-102216253D01*
X115910000Y-102230395D01*
X116664583Y-101475812D01*
X116602929Y-101240200D01*
X116102520Y-101064073D01*
X115685000Y-101086756D01*
X115685000Y-100329041D01*
X115843287Y-100394768D01*
X116374383Y-100395231D01*
X116865229Y-100192418D01*
X117110098Y-99947976D01*
X117352796Y-100191098D01*
X117843287Y-100394768D01*
X118374383Y-100395231D01*
X118865229Y-100192418D01*
X119241098Y-99817204D01*
X119289319Y-99701075D01*
X119930395Y-99060000D01*
X119289773Y-98419379D01*
X119242418Y-98304771D01*
X118867204Y-97928902D01*
X118376713Y-97725232D01*
X117845617Y-97724769D01*
X117354771Y-97927582D01*
X117109902Y-98172024D01*
X116867204Y-97928902D01*
X116376713Y-97725232D01*
X115845617Y-97724769D01*
X115685000Y-97791134D01*
X115685000Y-93878218D01*
X115932172Y-94248136D01*
X116385391Y-94550968D01*
X116920000Y-94657308D01*
X117454609Y-94550968D01*
X117907828Y-94248136D01*
X118190000Y-93825837D01*
X118472172Y-94248136D01*
X118925391Y-94550968D01*
X119460000Y-94657308D01*
X119994609Y-94550968D01*
X120447828Y-94248136D01*
X120746831Y-93800648D01*
X120795955Y-93940865D01*
X121159644Y-94347522D01*
X121651269Y-94584046D01*
X121656930Y-94584220D01*
X121873000Y-94461720D01*
X121873000Y-93207000D01*
X121853000Y-93207000D01*
X121853000Y-92953000D01*
X121873000Y-92953000D01*
X121873000Y-91698280D01*
X122127000Y-91698280D01*
X122127000Y-92953000D01*
X123239293Y-92953000D01*
X123384429Y-92734015D01*
X123204045Y-92219135D01*
X122840356Y-91812478D01*
X122348731Y-91575954D01*
X122343070Y-91575780D01*
X122127000Y-91698280D01*
X121873000Y-91698280D01*
X121656930Y-91575780D01*
X121651269Y-91575954D01*
X121159644Y-91812478D01*
X120795955Y-92219135D01*
X120746831Y-92359352D01*
X120447828Y-91911864D01*
X119994609Y-91609032D01*
X119460000Y-91502692D01*
X118925391Y-91609032D01*
X118472172Y-91911864D01*
X118190000Y-92334163D01*
X117907828Y-91911864D01*
X117454609Y-91609032D01*
X116920000Y-91502692D01*
X116385391Y-91609032D01*
X115932172Y-91911864D01*
X115685000Y-92281782D01*
X115685000Y-88798218D01*
X115932172Y-89168136D01*
X116385391Y-89470968D01*
X116920000Y-89577308D01*
X117454609Y-89470968D01*
X117907828Y-89168136D01*
X118190000Y-88745837D01*
X118472172Y-89168136D01*
X118925391Y-89470968D01*
X119460000Y-89577308D01*
X119994609Y-89470968D01*
X120447828Y-89168136D01*
X120603000Y-88935905D01*
X120603000Y-89038310D01*
X120699673Y-89271699D01*
X120878302Y-89450327D01*
X121111691Y-89547000D01*
X121714250Y-89547000D01*
X121873000Y-89388250D01*
X121873000Y-88127000D01*
X122127000Y-88127000D01*
X122127000Y-89388250D01*
X122285750Y-89547000D01*
X122888309Y-89547000D01*
X123121698Y-89450327D01*
X123300327Y-89271699D01*
X123397000Y-89038310D01*
X123397000Y-88285750D01*
X123238250Y-88127000D01*
X122127000Y-88127000D01*
X121873000Y-88127000D01*
X121853000Y-88127000D01*
X121853000Y-87873000D01*
X121873000Y-87873000D01*
X121873000Y-86611750D01*
X122127000Y-86611750D01*
X122127000Y-87873000D01*
X123238250Y-87873000D01*
X123397000Y-87714250D01*
X123397000Y-86961690D01*
X123300327Y-86728301D01*
X123121698Y-86549673D01*
X122888309Y-86453000D01*
X122285750Y-86453000D01*
X122127000Y-86611750D01*
X121873000Y-86611750D01*
X121714250Y-86453000D01*
X121111691Y-86453000D01*
X120878302Y-86549673D01*
X120699673Y-86728301D01*
X120603000Y-86961690D01*
X120603000Y-87064095D01*
X120447828Y-86831864D01*
X119994609Y-86529032D01*
X119460000Y-86422692D01*
X118925391Y-86529032D01*
X118472172Y-86831864D01*
X118190000Y-87254163D01*
X117907828Y-86831864D01*
X117454609Y-86529032D01*
X116920000Y-86422692D01*
X116385391Y-86529032D01*
X115932172Y-86831864D01*
X115685000Y-87201782D01*
X115685000Y-77301744D01*
X115780330Y-77444415D01*
X116266511Y-77769271D01*
X116840000Y-77883345D01*
X117413489Y-77769271D01*
X117899670Y-77444415D01*
X118110000Y-77129634D01*
X118320330Y-77444415D01*
X118806511Y-77769271D01*
X119380000Y-77883345D01*
X119953489Y-77769271D01*
X120439670Y-77444415D01*
X120650000Y-77129634D01*
X120860330Y-77444415D01*
X121346511Y-77769271D01*
X121920000Y-77883345D01*
X122493489Y-77769271D01*
X122979670Y-77444415D01*
X123190000Y-77129634D01*
X123400330Y-77444415D01*
X123886511Y-77769271D01*
X124460000Y-77883345D01*
X125033489Y-77769271D01*
X125519670Y-77444415D01*
X125730000Y-77129634D01*
X125940330Y-77444415D01*
X126426511Y-77769271D01*
X127000000Y-77883345D01*
X127573489Y-77769271D01*
X128059670Y-77444415D01*
X128270000Y-77129634D01*
X128480330Y-77444415D01*
X128966511Y-77769271D01*
X129540000Y-77883345D01*
X130113489Y-77769271D01*
X130599670Y-77444415D01*
X130810000Y-77129634D01*
X131020330Y-77444415D01*
X131020330Y-77444415D01*
G37*
X131020330Y-77444415D02*
X131320000Y-77644648D01*
X131320000Y-85405198D01*
X123350463Y-93374735D01*
X123239293Y-93207000D01*
X122127000Y-93207000D01*
X122127000Y-94461720D01*
X122214098Y-94511100D01*
X121260320Y-95464878D01*
X121214833Y-95464838D01*
X120871057Y-95606883D01*
X120607808Y-95869673D01*
X120465162Y-96213201D01*
X120464838Y-96585167D01*
X120606883Y-96928943D01*
X120640000Y-96962118D01*
X120640000Y-97831276D01*
X120302878Y-97712581D01*
X119772560Y-97741336D01*
X119416169Y-97888958D01*
X119354331Y-98124725D01*
X120110000Y-98880395D01*
X120124142Y-98866252D01*
X120303748Y-99045858D01*
X120289605Y-99060000D01*
X120303748Y-99074143D01*
X120124142Y-99253748D01*
X120110000Y-99239605D01*
X119662330Y-99687276D01*
X119609160Y-99697852D01*
X119362599Y-99862599D01*
X117562599Y-101662599D01*
X117397852Y-101909161D01*
X117340000Y-102200000D01*
X117340000Y-105400000D01*
X117397852Y-105690839D01*
X117562599Y-105937401D01*
X118962599Y-107337401D01*
X119209161Y-107502148D01*
X119311537Y-107522512D01*
X119180173Y-107653647D01*
X118976732Y-108143587D01*
X118976269Y-108674086D01*
X119178854Y-109164380D01*
X119553647Y-109539827D01*
X120043587Y-109743268D01*
X120321687Y-109743511D01*
X117347579Y-112717619D01*
X116840000Y-112616655D01*
X116266511Y-112730729D01*
X115780330Y-113055585D01*
X115685000Y-113198256D01*
X115685000Y-109744495D01*
X115717480Y-109755927D01*
X116247199Y-109727148D01*
X116602929Y-109579800D01*
X116664583Y-109344188D01*
X115910000Y-108589605D01*
X115895858Y-108603748D01*
X115716253Y-108424143D01*
X115730395Y-108410000D01*
X116089605Y-108410000D01*
X116844188Y-109164583D01*
X117079800Y-109102929D01*
X117255927Y-108602520D01*
X117227148Y-108072801D01*
X117079800Y-107717071D01*
X116844188Y-107655417D01*
X116089605Y-108410000D01*
X115730395Y-108410000D01*
X115716253Y-108395858D01*
X115895858Y-108216253D01*
X115910000Y-108230395D01*
X116664583Y-107475812D01*
X116602929Y-107240200D01*
X116102520Y-107064073D01*
X115685000Y-107086756D01*
X115685000Y-103744495D01*
X115717480Y-103755927D01*
X116247199Y-103727148D01*
X116602929Y-103579800D01*
X116664583Y-103344188D01*
X115910000Y-102589605D01*
X115895858Y-102603748D01*
X115716253Y-102424143D01*
X115730395Y-102410000D01*
X116089605Y-102410000D01*
X116844188Y-103164583D01*
X117079800Y-103102929D01*
X117255927Y-102602520D01*
X117227148Y-102072801D01*
X117079800Y-101717071D01*
X116844188Y-101655417D01*
X116089605Y-102410000D01*
X115730395Y-102410000D01*
X115716253Y-102395858D01*
X115895858Y-102216253D01*
X115910000Y-102230395D01*
X116664583Y-101475812D01*
X116602929Y-101240200D01*
X116102520Y-101064073D01*
X115685000Y-101086756D01*
X115685000Y-100329041D01*
X115843287Y-100394768D01*
X116374383Y-100395231D01*
X116865229Y-100192418D01*
X117110098Y-99947976D01*
X117352796Y-100191098D01*
X117843287Y-100394768D01*
X118374383Y-100395231D01*
X118865229Y-100192418D01*
X119241098Y-99817204D01*
X119289319Y-99701075D01*
X119930395Y-99060000D01*
X119289773Y-98419379D01*
X119242418Y-98304771D01*
X118867204Y-97928902D01*
X118376713Y-97725232D01*
X117845617Y-97724769D01*
X117354771Y-97927582D01*
X117109902Y-98172024D01*
X116867204Y-97928902D01*
X116376713Y-97725232D01*
X115845617Y-97724769D01*
X115685000Y-97791134D01*
X115685000Y-93878218D01*
X115932172Y-94248136D01*
X116385391Y-94550968D01*
X116920000Y-94657308D01*
X117454609Y-94550968D01*
X117907828Y-94248136D01*
X118190000Y-93825837D01*
X118472172Y-94248136D01*
X118925391Y-94550968D01*
X119460000Y-94657308D01*
X119994609Y-94550968D01*
X120447828Y-94248136D01*
X120746831Y-93800648D01*
X120795955Y-93940865D01*
X121159644Y-94347522D01*
X121651269Y-94584046D01*
X121656930Y-94584220D01*
X121873000Y-94461720D01*
X121873000Y-93207000D01*
X121853000Y-93207000D01*
X121853000Y-92953000D01*
X121873000Y-92953000D01*
X121873000Y-91698280D01*
X122127000Y-91698280D01*
X122127000Y-92953000D01*
X123239293Y-92953000D01*
X123384429Y-92734015D01*
X123204045Y-92219135D01*
X122840356Y-91812478D01*
X122348731Y-91575954D01*
X122343070Y-91575780D01*
X122127000Y-91698280D01*
X121873000Y-91698280D01*
X121656930Y-91575780D01*
X121651269Y-91575954D01*
X121159644Y-91812478D01*
X120795955Y-92219135D01*
X120746831Y-92359352D01*
X120447828Y-91911864D01*
X119994609Y-91609032D01*
X119460000Y-91502692D01*
X118925391Y-91609032D01*
X118472172Y-91911864D01*
X118190000Y-92334163D01*
X117907828Y-91911864D01*
X117454609Y-91609032D01*
X116920000Y-91502692D01*
X116385391Y-91609032D01*
X115932172Y-91911864D01*
X115685000Y-92281782D01*
X115685000Y-88798218D01*
X115932172Y-89168136D01*
X116385391Y-89470968D01*
X116920000Y-89577308D01*
X117454609Y-89470968D01*
X117907828Y-89168136D01*
X118190000Y-88745837D01*
X118472172Y-89168136D01*
X118925391Y-89470968D01*
X119460000Y-89577308D01*
X119994609Y-89470968D01*
X120447828Y-89168136D01*
X120603000Y-88935905D01*
X120603000Y-89038310D01*
X120699673Y-89271699D01*
X120878302Y-89450327D01*
X121111691Y-89547000D01*
X121714250Y-89547000D01*
X121873000Y-89388250D01*
X121873000Y-88127000D01*
X122127000Y-88127000D01*
X122127000Y-89388250D01*
X122285750Y-89547000D01*
X122888309Y-89547000D01*
X123121698Y-89450327D01*
X123300327Y-89271699D01*
X123397000Y-89038310D01*
X123397000Y-88285750D01*
X123238250Y-88127000D01*
X122127000Y-88127000D01*
X121873000Y-88127000D01*
X121853000Y-88127000D01*
X121853000Y-87873000D01*
X121873000Y-87873000D01*
X121873000Y-86611750D01*
X122127000Y-86611750D01*
X122127000Y-87873000D01*
X123238250Y-87873000D01*
X123397000Y-87714250D01*
X123397000Y-86961690D01*
X123300327Y-86728301D01*
X123121698Y-86549673D01*
X122888309Y-86453000D01*
X122285750Y-86453000D01*
X122127000Y-86611750D01*
X121873000Y-86611750D01*
X121714250Y-86453000D01*
X121111691Y-86453000D01*
X120878302Y-86549673D01*
X120699673Y-86728301D01*
X120603000Y-86961690D01*
X120603000Y-87064095D01*
X120447828Y-86831864D01*
X119994609Y-86529032D01*
X119460000Y-86422692D01*
X118925391Y-86529032D01*
X118472172Y-86831864D01*
X118190000Y-87254163D01*
X117907828Y-86831864D01*
X117454609Y-86529032D01*
X116920000Y-86422692D01*
X116385391Y-86529032D01*
X115932172Y-86831864D01*
X115685000Y-87201782D01*
X115685000Y-77301744D01*
X115780330Y-77444415D01*
X116266511Y-77769271D01*
X116840000Y-77883345D01*
X117413489Y-77769271D01*
X117899670Y-77444415D01*
X118110000Y-77129634D01*
X118320330Y-77444415D01*
X118806511Y-77769271D01*
X119380000Y-77883345D01*
X119953489Y-77769271D01*
X120439670Y-77444415D01*
X120650000Y-77129634D01*
X120860330Y-77444415D01*
X121346511Y-77769271D01*
X121920000Y-77883345D01*
X122493489Y-77769271D01*
X122979670Y-77444415D01*
X123190000Y-77129634D01*
X123400330Y-77444415D01*
X123886511Y-77769271D01*
X124460000Y-77883345D01*
X125033489Y-77769271D01*
X125519670Y-77444415D01*
X125730000Y-77129634D01*
X125940330Y-77444415D01*
X126426511Y-77769271D01*
X127000000Y-77883345D01*
X127573489Y-77769271D01*
X128059670Y-77444415D01*
X128270000Y-77129634D01*
X128480330Y-77444415D01*
X128966511Y-77769271D01*
X129540000Y-77883345D01*
X130113489Y-77769271D01*
X130599670Y-77444415D01*
X130810000Y-77129634D01*
X131020330Y-77444415D01*
G36*
X133560330Y-77444415D02*
X134046511Y-77769271D01*
X134620000Y-77883345D01*
X135027489Y-77802291D01*
X138462599Y-81237401D01*
X138709161Y-81402148D01*
X139000000Y-81460000D01*
X141885198Y-81460000D01*
X151865198Y-91440000D01*
X143234966Y-91440000D01*
X143235162Y-91214833D01*
X143093117Y-90871057D01*
X143060000Y-90837882D01*
X143060000Y-90060000D01*
X143200000Y-90060000D01*
X143490839Y-90002148D01*
X143737401Y-89837401D01*
X144537401Y-89037401D01*
X144702148Y-88790839D01*
X144760000Y-88500000D01*
X144760000Y-86630000D01*
X144702148Y-86339161D01*
X144537401Y-86092599D01*
X143869830Y-85425028D01*
X143870220Y-84978490D01*
X143677282Y-84511542D01*
X143320337Y-84153974D01*
X142853727Y-83960221D01*
X142348490Y-83959780D01*
X141881542Y-84152718D01*
X141523974Y-84509663D01*
X141330221Y-84976273D01*
X141329780Y-85481510D01*
X141522718Y-85948458D01*
X141879663Y-86306026D01*
X142346273Y-86499779D01*
X142348488Y-86499781D01*
X141881542Y-86692718D01*
X141523974Y-87049663D01*
X141345343Y-87479855D01*
X140462599Y-88362599D01*
X140297852Y-88609161D01*
X140240000Y-88900000D01*
X140240000Y-89388420D01*
X140125790Y-89274210D01*
X140104523Y-89260000D01*
X139838675Y-89082367D01*
X139782484Y-89071190D01*
X139500000Y-89014999D01*
X139499995Y-89015000D01*
X133700005Y-89015000D01*
X133700000Y-89014999D01*
X133417516Y-89071190D01*
X133361325Y-89082367D01*
X133074210Y-89274210D01*
X133074208Y-89274213D01*
X132791165Y-89557256D01*
X132671057Y-89606883D01*
X132407808Y-89869673D01*
X132265162Y-90213201D01*
X132264838Y-90585167D01*
X132406883Y-90928943D01*
X132669673Y-91192192D01*
X133013201Y-91334838D01*
X133385167Y-91335162D01*
X133728943Y-91193117D01*
X133992192Y-90930327D01*
X134042566Y-90809014D01*
X134066580Y-90785000D01*
X139133420Y-90785000D01*
X139357255Y-91008835D01*
X139406883Y-91128943D01*
X139669673Y-91392192D01*
X139784807Y-91440000D01*
X128900000Y-91440000D01*
X128609161Y-91497852D01*
X128362599Y-91662599D01*
X125962599Y-94062599D01*
X125797852Y-94309161D01*
X125740000Y-94600000D01*
X125740000Y-104325198D01*
X123510369Y-106554829D01*
X123393117Y-106271057D01*
X123130327Y-106007808D01*
X122786799Y-105865162D01*
X122414833Y-105864838D01*
X122071057Y-106006883D01*
X122037882Y-106040000D01*
X119814802Y-106040000D01*
X118860000Y-105085198D01*
X118860000Y-102514802D01*
X118976510Y-102398292D01*
X118976269Y-102674086D01*
X119178854Y-103164380D01*
X119553647Y-103539827D01*
X120043587Y-103743268D01*
X120574086Y-103743731D01*
X121064380Y-103541146D01*
X121439827Y-103166353D01*
X121643268Y-102676413D01*
X121643731Y-102145914D01*
X121441146Y-101655620D01*
X121066353Y-101280173D01*
X120752023Y-101149652D01*
X120990839Y-101102148D01*
X121237401Y-100937401D01*
X121937401Y-100237402D01*
X122076688Y-100028943D01*
X122102148Y-99990839D01*
X122160000Y-99700000D01*
X122160000Y-96962463D01*
X122192192Y-96930327D01*
X122334838Y-96586799D01*
X122334879Y-96539923D01*
X132617401Y-86257401D01*
X132782148Y-86010839D01*
X132840000Y-85720000D01*
X132840000Y-77644648D01*
X133139670Y-77444415D01*
X133350000Y-77129634D01*
X133560330Y-77444415D01*
X133560330Y-77444415D01*
G37*
X133560330Y-77444415D02*
X134046511Y-77769271D01*
X134620000Y-77883345D01*
X135027489Y-77802291D01*
X138462599Y-81237401D01*
X138709161Y-81402148D01*
X139000000Y-81460000D01*
X141885198Y-81460000D01*
X151865198Y-91440000D01*
X143234966Y-91440000D01*
X143235162Y-91214833D01*
X143093117Y-90871057D01*
X143060000Y-90837882D01*
X143060000Y-90060000D01*
X143200000Y-90060000D01*
X143490839Y-90002148D01*
X143737401Y-89837401D01*
X144537401Y-89037401D01*
X144702148Y-88790839D01*
X144760000Y-88500000D01*
X144760000Y-86630000D01*
X144702148Y-86339161D01*
X144537401Y-86092599D01*
X143869830Y-85425028D01*
X143870220Y-84978490D01*
X143677282Y-84511542D01*
X143320337Y-84153974D01*
X142853727Y-83960221D01*
X142348490Y-83959780D01*
X141881542Y-84152718D01*
X141523974Y-84509663D01*
X141330221Y-84976273D01*
X141329780Y-85481510D01*
X141522718Y-85948458D01*
X141879663Y-86306026D01*
X142346273Y-86499779D01*
X142348488Y-86499781D01*
X141881542Y-86692718D01*
X141523974Y-87049663D01*
X141345343Y-87479855D01*
X140462599Y-88362599D01*
X140297852Y-88609161D01*
X140240000Y-88900000D01*
X140240000Y-89388420D01*
X140125790Y-89274210D01*
X140104523Y-89260000D01*
X139838675Y-89082367D01*
X139782484Y-89071190D01*
X139500000Y-89014999D01*
X139499995Y-89015000D01*
X133700005Y-89015000D01*
X133700000Y-89014999D01*
X133417516Y-89071190D01*
X133361325Y-89082367D01*
X133074210Y-89274210D01*
X133074208Y-89274213D01*
X132791165Y-89557256D01*
X132671057Y-89606883D01*
X132407808Y-89869673D01*
X132265162Y-90213201D01*
X132264838Y-90585167D01*
X132406883Y-90928943D01*
X132669673Y-91192192D01*
X133013201Y-91334838D01*
X133385167Y-91335162D01*
X133728943Y-91193117D01*
X133992192Y-90930327D01*
X134042566Y-90809014D01*
X134066580Y-90785000D01*
X139133420Y-90785000D01*
X139357255Y-91008835D01*
X139406883Y-91128943D01*
X139669673Y-91392192D01*
X139784807Y-91440000D01*
X128900000Y-91440000D01*
X128609161Y-91497852D01*
X128362599Y-91662599D01*
X125962599Y-94062599D01*
X125797852Y-94309161D01*
X125740000Y-94600000D01*
X125740000Y-104325198D01*
X123510369Y-106554829D01*
X123393117Y-106271057D01*
X123130327Y-106007808D01*
X122786799Y-105865162D01*
X122414833Y-105864838D01*
X122071057Y-106006883D01*
X122037882Y-106040000D01*
X119814802Y-106040000D01*
X118860000Y-105085198D01*
X118860000Y-102514802D01*
X118976510Y-102398292D01*
X118976269Y-102674086D01*
X119178854Y-103164380D01*
X119553647Y-103539827D01*
X120043587Y-103743268D01*
X120574086Y-103743731D01*
X121064380Y-103541146D01*
X121439827Y-103166353D01*
X121643268Y-102676413D01*
X121643731Y-102145914D01*
X121441146Y-101655620D01*
X121066353Y-101280173D01*
X120752023Y-101149652D01*
X120990839Y-101102148D01*
X121237401Y-100937401D01*
X121937401Y-100237402D01*
X122076688Y-100028943D01*
X122102148Y-99990839D01*
X122160000Y-99700000D01*
X122160000Y-96962463D01*
X122192192Y-96930327D01*
X122334838Y-96586799D01*
X122334879Y-96539923D01*
X132617401Y-86257401D01*
X132782148Y-86010839D01*
X132840000Y-85720000D01*
X132840000Y-77644648D01*
X133139670Y-77444415D01*
X133350000Y-77129634D01*
X133560330Y-77444415D01*
G36*
X158960330Y-77444415D02*
X159446511Y-77769271D01*
X160020000Y-77883345D01*
X160527579Y-77782381D01*
X162882599Y-80137401D01*
X163129161Y-80302148D01*
X163420000Y-80360000D01*
X163465121Y-80360000D01*
X163464838Y-80685167D01*
X163606883Y-81028943D01*
X163640000Y-81062118D01*
X163640000Y-86237537D01*
X163614536Y-86262956D01*
X163125790Y-85774210D01*
X163115600Y-85767401D01*
X162838675Y-85582367D01*
X162782484Y-85571190D01*
X162500000Y-85514999D01*
X162499995Y-85515000D01*
X159906822Y-85515000D01*
X159786799Y-85465162D01*
X159414833Y-85464838D01*
X159071057Y-85606883D01*
X158807808Y-85869673D01*
X158665162Y-86213201D01*
X158664838Y-86585167D01*
X158687494Y-86640000D01*
X156000000Y-86640000D01*
X155709161Y-86697852D01*
X155608787Y-86764920D01*
X155514833Y-86764838D01*
X155171057Y-86906883D01*
X154907808Y-87169673D01*
X154765162Y-87513201D01*
X154764838Y-87885167D01*
X154906883Y-88228943D01*
X155169673Y-88492192D01*
X155479596Y-88620884D01*
X155606883Y-88928943D01*
X155869673Y-89192192D01*
X156213201Y-89334838D01*
X156268019Y-89334886D01*
X156306883Y-89428943D01*
X156569673Y-89692192D01*
X156913201Y-89834838D01*
X157285167Y-89835162D01*
X157628943Y-89693117D01*
X157762293Y-89560000D01*
X160085198Y-89560000D01*
X165540000Y-95014802D01*
X165540000Y-95465034D01*
X165439749Y-95464947D01*
X164737401Y-94762599D01*
X164490839Y-94597852D01*
X164200000Y-94540000D01*
X158362463Y-94540000D01*
X158330327Y-94507808D01*
X157986799Y-94365162D01*
X157760000Y-94364964D01*
X157760000Y-93300000D01*
X157734936Y-93173997D01*
X157735162Y-92914833D01*
X157593117Y-92571057D01*
X157330327Y-92307808D01*
X156986799Y-92165162D01*
X156614833Y-92164838D01*
X156271057Y-92306883D01*
X156007808Y-92569673D01*
X155989226Y-92614424D01*
X142837401Y-79462599D01*
X142590839Y-79297852D01*
X142300000Y-79240000D01*
X141014802Y-79240000D01*
X139647755Y-77872953D01*
X139700000Y-77883345D01*
X140273489Y-77769271D01*
X140759670Y-77444415D01*
X140970000Y-77129634D01*
X141180330Y-77444415D01*
X141666511Y-77769271D01*
X142240000Y-77883345D01*
X142813489Y-77769271D01*
X143299670Y-77444415D01*
X143510000Y-77129634D01*
X143720330Y-77444415D01*
X144206511Y-77769271D01*
X144780000Y-77883345D01*
X145353489Y-77769271D01*
X145839670Y-77444415D01*
X146050000Y-77129634D01*
X146260330Y-77444415D01*
X146746511Y-77769271D01*
X147320000Y-77883345D01*
X147893489Y-77769271D01*
X148379670Y-77444415D01*
X148590000Y-77129634D01*
X148800330Y-77444415D01*
X149286511Y-77769271D01*
X149860000Y-77883345D01*
X150433489Y-77769271D01*
X150919670Y-77444415D01*
X151130000Y-77129634D01*
X151340330Y-77444415D01*
X151826511Y-77769271D01*
X152400000Y-77883345D01*
X152973489Y-77769271D01*
X153459670Y-77444415D01*
X153670000Y-77129634D01*
X153880330Y-77444415D01*
X154366511Y-77769271D01*
X154940000Y-77883345D01*
X155513489Y-77769271D01*
X155999670Y-77444415D01*
X156210000Y-77129634D01*
X156420330Y-77444415D01*
X156906511Y-77769271D01*
X157480000Y-77883345D01*
X158053489Y-77769271D01*
X158539670Y-77444415D01*
X158750000Y-77129634D01*
X158960330Y-77444415D01*
X158960330Y-77444415D01*
G37*
X158960330Y-77444415D02*
X159446511Y-77769271D01*
X160020000Y-77883345D01*
X160527579Y-77782381D01*
X162882599Y-80137401D01*
X163129161Y-80302148D01*
X163420000Y-80360000D01*
X163465121Y-80360000D01*
X163464838Y-80685167D01*
X163606883Y-81028943D01*
X163640000Y-81062118D01*
X163640000Y-86237537D01*
X163614536Y-86262956D01*
X163125790Y-85774210D01*
X163115600Y-85767401D01*
X162838675Y-85582367D01*
X162782484Y-85571190D01*
X162500000Y-85514999D01*
X162499995Y-85515000D01*
X159906822Y-85515000D01*
X159786799Y-85465162D01*
X159414833Y-85464838D01*
X159071057Y-85606883D01*
X158807808Y-85869673D01*
X158665162Y-86213201D01*
X158664838Y-86585167D01*
X158687494Y-86640000D01*
X156000000Y-86640000D01*
X155709161Y-86697852D01*
X155608787Y-86764920D01*
X155514833Y-86764838D01*
X155171057Y-86906883D01*
X154907808Y-87169673D01*
X154765162Y-87513201D01*
X154764838Y-87885167D01*
X154906883Y-88228943D01*
X155169673Y-88492192D01*
X155479596Y-88620884D01*
X155606883Y-88928943D01*
X155869673Y-89192192D01*
X156213201Y-89334838D01*
X156268019Y-89334886D01*
X156306883Y-89428943D01*
X156569673Y-89692192D01*
X156913201Y-89834838D01*
X157285167Y-89835162D01*
X157628943Y-89693117D01*
X157762293Y-89560000D01*
X160085198Y-89560000D01*
X165540000Y-95014802D01*
X165540000Y-95465034D01*
X165439749Y-95464947D01*
X164737401Y-94762599D01*
X164490839Y-94597852D01*
X164200000Y-94540000D01*
X158362463Y-94540000D01*
X158330327Y-94507808D01*
X157986799Y-94365162D01*
X157760000Y-94364964D01*
X157760000Y-93300000D01*
X157734936Y-93173997D01*
X157735162Y-92914833D01*
X157593117Y-92571057D01*
X157330327Y-92307808D01*
X156986799Y-92165162D01*
X156614833Y-92164838D01*
X156271057Y-92306883D01*
X156007808Y-92569673D01*
X155989226Y-92614424D01*
X142837401Y-79462599D01*
X142590839Y-79297852D01*
X142300000Y-79240000D01*
X141014802Y-79240000D01*
X139647755Y-77872953D01*
X139700000Y-77883345D01*
X140273489Y-77769271D01*
X140759670Y-77444415D01*
X140970000Y-77129634D01*
X141180330Y-77444415D01*
X141666511Y-77769271D01*
X142240000Y-77883345D01*
X142813489Y-77769271D01*
X143299670Y-77444415D01*
X143510000Y-77129634D01*
X143720330Y-77444415D01*
X144206511Y-77769271D01*
X144780000Y-77883345D01*
X145353489Y-77769271D01*
X145839670Y-77444415D01*
X146050000Y-77129634D01*
X146260330Y-77444415D01*
X146746511Y-77769271D01*
X147320000Y-77883345D01*
X147893489Y-77769271D01*
X148379670Y-77444415D01*
X148590000Y-77129634D01*
X148800330Y-77444415D01*
X149286511Y-77769271D01*
X149860000Y-77883345D01*
X150433489Y-77769271D01*
X150919670Y-77444415D01*
X151130000Y-77129634D01*
X151340330Y-77444415D01*
X151826511Y-77769271D01*
X152400000Y-77883345D01*
X152973489Y-77769271D01*
X153459670Y-77444415D01*
X153670000Y-77129634D01*
X153880330Y-77444415D01*
X154366511Y-77769271D01*
X154940000Y-77883345D01*
X155513489Y-77769271D01*
X155999670Y-77444415D01*
X156210000Y-77129634D01*
X156420330Y-77444415D01*
X156906511Y-77769271D01*
X157480000Y-77883345D01*
X158053489Y-77769271D01*
X158539670Y-77444415D01*
X158750000Y-77129634D01*
X158960330Y-77444415D01*
M02*
