G04 #@! TF.FileFunction,Paste,Top*
%FSLAX46Y46*%
G04 Gerber Fmt 4.6, Leading zero omitted, Abs format (unit mm)*
G04 Created by KiCad (PCBNEW 4.0.7-e2-6376~58~ubuntu14.04.1) date Sat Dec  9 10:48:14 2017*
%MOMM*%
%LPD*%
G01*
G04 APERTURE LIST*
%ADD10C,0.100000*%
%ADD11R,0.635000X1.143000*%
%ADD12R,1.524000X2.032000*%
%ADD13R,1.143000X0.635000*%
%ADD14R,1.597660X1.800860*%
%ADD15R,1.500000X1.300000*%
%ADD16R,1.000000X0.250000*%
%ADD17R,0.250000X1.000000*%
%ADD18R,1.297940X0.248920*%
G04 APERTURE END LIST*
D10*
D11*
X136738000Y-91400000D03*
X138262000Y-91400000D03*
X136738000Y-88800000D03*
X138262000Y-88800000D03*
X138262000Y-93500000D03*
X136738000Y-93500000D03*
D12*
X139851000Y-101300000D03*
X136549000Y-101300000D03*
X116649000Y-81000000D03*
X119951000Y-81000000D03*
D11*
X138338000Y-98800000D03*
X139862000Y-98800000D03*
X118362000Y-83400000D03*
X116838000Y-83400000D03*
D13*
X145500000Y-91362000D03*
X145500000Y-89838000D03*
X140300000Y-87162000D03*
X140300000Y-85638000D03*
X138300000Y-85638000D03*
X138300000Y-87162000D03*
D11*
X175662000Y-92800000D03*
X174138000Y-92800000D03*
X167038000Y-92800000D03*
X168562000Y-92800000D03*
D13*
X178250000Y-87688000D03*
X178250000Y-89212000D03*
D11*
X170988000Y-84950000D03*
X172512000Y-84950000D03*
X178362000Y-85500000D03*
X176838000Y-85500000D03*
D14*
X132229860Y-92710000D03*
X129390140Y-92710000D03*
X132229860Y-87630000D03*
X129390140Y-87630000D03*
D15*
X137250000Y-96400000D03*
X139950000Y-96400000D03*
D11*
X126492000Y-92710000D03*
X124968000Y-92710000D03*
D13*
X123190000Y-100838000D03*
X123190000Y-102362000D03*
D11*
X134738000Y-86400000D03*
X136262000Y-86400000D03*
X124968000Y-87630000D03*
X126492000Y-87630000D03*
D16*
X147800000Y-92750000D03*
X147800000Y-93250000D03*
X147800000Y-93750000D03*
X147800000Y-94250000D03*
X147800000Y-94750000D03*
X147800000Y-95250000D03*
X147800000Y-95750000D03*
X147800000Y-96250000D03*
X147800000Y-96750000D03*
X147800000Y-97250000D03*
X147800000Y-97750000D03*
X147800000Y-98250000D03*
X147800000Y-98750000D03*
X147800000Y-99250000D03*
X147800000Y-99750000D03*
X147800000Y-100250000D03*
D17*
X149750000Y-102200000D03*
X150250000Y-102200000D03*
X150750000Y-102200000D03*
X151250000Y-102200000D03*
X151750000Y-102200000D03*
X152250000Y-102200000D03*
X152750000Y-102200000D03*
X153250000Y-102200000D03*
X153750000Y-102200000D03*
X154250000Y-102200000D03*
X154750000Y-102200000D03*
X155250000Y-102200000D03*
X155750000Y-102200000D03*
X156250000Y-102200000D03*
X156750000Y-102200000D03*
X157250000Y-102200000D03*
D16*
X159200000Y-100250000D03*
X159200000Y-99750000D03*
X159200000Y-99250000D03*
X159200000Y-98750000D03*
X159200000Y-98250000D03*
X159200000Y-97750000D03*
X159200000Y-97250000D03*
X159200000Y-96750000D03*
X159200000Y-96250000D03*
X159200000Y-95750000D03*
X159200000Y-95250000D03*
X159200000Y-94750000D03*
X159200000Y-94250000D03*
X159200000Y-93750000D03*
X159200000Y-93250000D03*
X159200000Y-92750000D03*
D17*
X157250000Y-90800000D03*
X156750000Y-90800000D03*
X156250000Y-90800000D03*
X155750000Y-90800000D03*
X155250000Y-90800000D03*
X154750000Y-90800000D03*
X154250000Y-90800000D03*
X153750000Y-90800000D03*
X153250000Y-90800000D03*
X152750000Y-90800000D03*
X152250000Y-90800000D03*
X151750000Y-90800000D03*
X151250000Y-90800000D03*
X150750000Y-90800000D03*
X150250000Y-90800000D03*
X149750000Y-90800000D03*
D18*
X169114720Y-86544160D03*
X169114720Y-87194400D03*
X169114720Y-87844640D03*
X169114720Y-88494880D03*
X169114720Y-89145120D03*
X169114720Y-89795360D03*
X169114720Y-90445600D03*
X169114720Y-91095840D03*
X174865280Y-91095840D03*
X174865280Y-90445600D03*
X174865280Y-89795360D03*
X174865280Y-89145120D03*
X174865280Y-88494880D03*
X174865280Y-87844640D03*
X174865280Y-87194400D03*
X174865280Y-86544160D03*
D11*
X117348000Y-96520000D03*
X118872000Y-96520000D03*
M02*
