G04 #@! TF.FileFunction,Soldermask,Bot*
%FSLAX46Y46*%
G04 Gerber Fmt 4.6, Leading zero omitted, Abs format (unit mm)*
G04 Created by KiCad (PCBNEW 4.0.7-e2-6376~58~ubuntu14.04.1) date Wed Mar 28 12:10:58 2018*
%MOMM*%
%LPD*%
G01*
G04 APERTURE LIST*
%ADD10C,0.100000*%
%ADD11C,1.501140*%
%ADD12R,1.727200X2.032000*%
%ADD13O,1.727200X2.032000*%
%ADD14C,1.397000*%
%ADD15C,1.270000*%
%ADD16O,3.014980X1.506220*%
%ADD17C,1.400000*%
%ADD18R,1.524000X1.824000*%
%ADD19O,1.524000X1.824000*%
%ADD20C,0.500000*%
G04 APERTURE END LIST*
D10*
D11*
X131000000Y-99559060D03*
X131000000Y-104440940D03*
D12*
X177800000Y-76200000D03*
D13*
X175260000Y-76200000D03*
X172720000Y-76200000D03*
X170180000Y-76200000D03*
X167640000Y-76200000D03*
X165100000Y-76200000D03*
X162560000Y-76200000D03*
X160020000Y-76200000D03*
X157480000Y-76200000D03*
X154940000Y-76200000D03*
X152400000Y-76200000D03*
X149860000Y-76200000D03*
X147320000Y-76200000D03*
X144780000Y-76200000D03*
X142240000Y-76200000D03*
X139700000Y-76200000D03*
X137160000Y-76200000D03*
X134620000Y-76200000D03*
X132080000Y-76200000D03*
X129540000Y-76200000D03*
X127000000Y-76200000D03*
X124460000Y-76200000D03*
X121920000Y-76200000D03*
X119380000Y-76200000D03*
X116840000Y-76200000D03*
D12*
X177800000Y-114300000D03*
D13*
X175260000Y-114300000D03*
X172720000Y-114300000D03*
X170180000Y-114300000D03*
X167640000Y-114300000D03*
X165100000Y-114300000D03*
X162560000Y-114300000D03*
X160020000Y-114300000D03*
X157480000Y-114300000D03*
X154940000Y-114300000D03*
X152400000Y-114300000D03*
X149860000Y-114300000D03*
X147320000Y-114300000D03*
X144780000Y-114300000D03*
X142240000Y-114300000D03*
X139700000Y-114300000D03*
X137160000Y-114300000D03*
X134620000Y-114300000D03*
X132080000Y-114300000D03*
X129540000Y-114300000D03*
X127000000Y-114300000D03*
X124460000Y-114300000D03*
X121920000Y-114300000D03*
X119380000Y-114300000D03*
X116840000Y-114300000D03*
D14*
X116690000Y-102420000D03*
X121090000Y-102420000D03*
X116690000Y-108420000D03*
X121090000Y-108420000D03*
D15*
X142600000Y-87770000D03*
X142600000Y-85230000D03*
D16*
X176530000Y-97790000D03*
X176530000Y-105410000D03*
X176530000Y-102870000D03*
X176530000Y-100330000D03*
D17*
X120870000Y-99060000D03*
X118870000Y-99060000D03*
X116870000Y-99060000D03*
D18*
X122000000Y-88000000D03*
D19*
X122000000Y-93080000D03*
X119460000Y-88000000D03*
X119460000Y-93080000D03*
X116920000Y-88000000D03*
X116920000Y-93080000D03*
D20*
X122800000Y-83700000D03*
X165700000Y-88000000D03*
X135500000Y-109600000D03*
X136900000Y-104800000D03*
X170800000Y-86600000D03*
X178900000Y-80100000D03*
X125500000Y-102400000D03*
X166500000Y-81900000D03*
M02*
